<svg xmlns="http://www.w3.org/2000/svg" width="56.927" height="61.57" viewBox="0 0 56.927 61.57">
  <g id="researchIcon5" transform="translate(-8.157 -5.214)">
    <path id="Path_126992" data-name="Path 126992" d="M120.927,93.568v1.143a8.153,8.153,0,0,1-8.129,8.129M110.273,57H112.8a8.153,8.153,0,0,1,8.129,8.129v.086m-40.427,0v-.086A8.153,8.153,0,0,1,88.629,57h2.525M80.5,93.568v1.143a8.153,8.153,0,0,0,8.129,8.129" transform="translate(-64.592 -43.799)" fill="none" stroke="#7f1f3f" stroke-linecap="round" stroke-linejoin="round" stroke-miterlimit="10" stroke-width="2"/>
    <g id="Group_60681" data-name="Group 60681">
      <path id="Path_126993" data-name="Path 126993" d="M13.873,18.25a1.03,1.03,0,0,0-.323,0,4.4,4.4,0,1,1,.323,0Z" transform="translate(43.46 15.988)" fill="none" stroke="#7f1f3f" stroke-linecap="round" stroke-linejoin="round" stroke-width="2"/>
      <path id="Path_126994" data-name="Path 126994" d="M9.832,18.338c-2.4,1.6-2.4,4.22,0,5.82a9.66,9.66,0,0,0,9.9,0c2.4-1.6,2.4-4.22,0-5.82A9.738,9.738,0,0,0,9.832,18.338Z" transform="translate(42.55 21.261)" fill="none" stroke="#7f1f3f" stroke-linecap="round" stroke-linejoin="round" stroke-width="2"/>
    </g>
    <g id="Group_60682" data-name="Group 60682" transform="translate(-41.425)">
      <path id="Path_126993-2" data-name="Path 126993" d="M13.873,18.25a1.03,1.03,0,0,0-.323,0,4.4,4.4,0,1,1,.323,0Z" transform="translate(43.46 15.988)" fill="none" stroke="#7f1f3f" stroke-linecap="round" stroke-linejoin="round" stroke-width="2"/>
      <path id="Path_126994-2" data-name="Path 126994" d="M9.832,18.338c-2.4,1.6-2.4,4.22,0,5.82a9.66,9.66,0,0,0,9.9,0c2.4-1.6,2.4-4.22,0-5.82A9.738,9.738,0,0,0,9.832,18.338Z" transform="translate(42.55 21.261)" fill="none" stroke="#7f1f3f" stroke-linecap="round" stroke-linejoin="round" stroke-width="2"/>
    </g>
    <g id="Group_60684" data-name="Group 60684">
      <path id="Path_126995" data-name="Path 126995" d="M13.873,18.25a1.03,1.03,0,0,0-.323,0,4.4,4.4,0,1,1,.323,0Z" transform="translate(22.312 34.988)" fill="none" stroke="#7f1f3f" stroke-linecap="round" stroke-linejoin="round" stroke-width="2"/>
      <path id="Path_126996" data-name="Path 126996" d="M9.832,18.338c-2.4,1.6-2.4,4.22,0,5.82a9.66,9.66,0,0,0,9.9,0c2.4-1.6,2.4-4.22,0-5.82A9.738,9.738,0,0,0,9.832,18.338Z" transform="translate(21.4 40.261)" fill="none" stroke="#7f1f3f" stroke-linecap="round" stroke-linejoin="round" stroke-width="2"/>
    </g>
    <g id="Group_60683" data-name="Group 60683">
      <path id="Path_126997" data-name="Path 126997" d="M13.873,18.25a1.03,1.03,0,0,0-.323,0,4.4,4.4,0,1,1,.323,0Z" transform="translate(22.312 -3.256)" fill="none" stroke="#7f1f3f" stroke-linecap="round" stroke-linejoin="round" stroke-width="2"/>
      <path id="Path_126998" data-name="Path 126998" d="M9.832,18.338c-2.4,1.6-2.4,4.22,0,5.82a9.66,9.66,0,0,0,9.9,0c2.4-1.6,2.4-4.22,0-5.82A9.738,9.738,0,0,0,9.832,18.338Z" transform="translate(21.4 2.017)" fill="none" stroke="#7f1f3f" stroke-linecap="round" stroke-linejoin="round" stroke-width="2"/>
    </g>
  </g>
</svg>
