<svg xmlns="http://www.w3.org/2000/svg" width="64.892" height="41.484" viewBox="0 0 64.892 41.484">
  <g id="researchIcon2" transform="translate(-5.405 -24.723)">
    <g id="Group_55944" data-name="Group 55944" transform="translate(5.405 24.723)">
      <g id="Group_55943" data-name="Group 55943" transform="translate(0 0)">
        <path id="Subtraction_1" data-name="Subtraction 1" d="M28.22,41.484h0a3.513,3.513,0,0,1-3.51-3.325,3.649,3.649,0,0,1-.395.022,3.517,3.517,0,0,1-3.5-3.326,3.647,3.647,0,0,1-.392.021,3.518,3.518,0,0,1-3.505-3.326,3.582,3.582,0,0,1-.386.021,3.519,3.519,0,0,1-2.976-5.394l-.715-.5L8.673,23.05a1.969,1.969,0,0,1-1.994.325L0,21.114l.6-1.958c1.463.459,3.828,1.253,6.79,2.421l.015,0a.041.041,0,0,0,.037-.025l3.6-9.131.609-1.545,2.4-6.073a.04.04,0,0,0,0-.031.039.039,0,0,0-.022-.021L5.963,1.611,6.455,0l8.28,2.956A1.974,1.974,0,0,1,15.92,5.284l1.7.713a4.539,4.539,0,0,0,1.734.346c.093,0,.188,0,.28-.009.251-.016.438-.023.647-.023.494,0,1.149.037,2.733.128l.03,0,1.635.093a13.822,13.822,0,0,1,3.838.775c.374-.361.738-.72,1.081-1.068a4.878,4.878,0,0,1,4.224-1.382l8.038,1.28a.984.984,0,0,1,.111.011l2.848.452a5.49,5.49,0,0,0,2.754-.271L50.4,5.29a1.972,1.972,0,0,1,1.183-2.335L58.926.075l.708,1.8L52.288,4.754a.04.04,0,0,0-.022.022.037.037,0,0,0,0,.03l4.241,10.751.562,1.426,1.8,4.572a.04.04,0,0,0,.037.025l.015,0L64.183,19.5l.709,1.8-5.258,2.074A1.971,1.971,0,0,1,57.4,22.81L53.64,25.227a3.791,3.791,0,0,1-.263,3.67,3.84,3.84,0,0,1-3.222,1.777,3.891,3.891,0,0,1-1-.134A3.853,3.853,0,0,1,45.3,34.162a4.06,4.06,0,0,1-.748-.07,3.818,3.818,0,0,1-3.848,3.791,3.981,3.981,0,0,1-1.364-.243,3.809,3.809,0,0,1-1.308,2.507,3.909,3.909,0,0,1-4.884.155l-1.408-1.04-.836.981A3.514,3.514,0,0,1,28.22,41.484Zm2.391-7.911a1.586,1.586,0,0,0-1.211.561l-2.39,2.806a1.588,1.588,0,0,0,2.425,2.052L30.7,37.5l.051-.06,1.07-1.256a.1.1,0,0,1,.012-.015,1.588,1.588,0,0,0-1.225-2.6Zm.008-1.933a3.521,3.521,0,0,1,2.678,5.8l-.3.35,1.3.958a2.031,2.031,0,0,0,1.213.4,1.894,1.894,0,0,0,1.385-.583,1.926,1.926,0,0,0,.239-2.359l-2.053-1.589a.966.966,0,1,1,1.183-1.528l1.006.78.022.017c1.138.882,1.138.882,1.739,1.324l.464.342a2.024,2.024,0,0,0,1.211.4,1.91,1.91,0,0,0,1.519-3.091l-2.962-2.28a.967.967,0,0,1,.59-1.733.957.957,0,0,1,.589.2l1.615,1.244c1.453,1.119,1.453,1.119,1.8,1.378l.01.007.213.157a2.058,2.058,0,0,0,1.213.4,1.9,1.9,0,0,0,1.352-.546,1.936,1.936,0,0,0,.174-2.533l-3.34-2.573a.966.966,0,1,1,1.18-1.531l1.691,1.3.04.031c1.719,1.325,1.719,1.325,2.224,1.7l.37.273a1.923,1.923,0,0,0,2.67-.366,1.874,1.874,0,0,0,.376-1.42,2.052,2.052,0,0,0-.809-1.365L47.186,22.22l-.088-.065c-3.223-2.379-3.223-2.379-3.441-2.531l-.115-.08a13.3,13.3,0,0,1-1.843.13,13.389,13.389,0,0,1-9.7-4.259.244.244,0,0,0-.179-.075.277.277,0,0,0-.184.072c-2.713,2.438-5.215,3.674-7.436,3.674a5.482,5.482,0,0,1-3.826-1.548,2.476,2.476,0,0,1-.764-2.041,2.507,2.507,0,0,1,1.148-1.884,48.219,48.219,0,0,0,6.141-4.784,11.907,11.907,0,0,0-2.321-.363l-1.757-.1c-1.487-.085-2.1-.12-2.525-.12-.2,0-.356.008-.531.019-.134.009-.27.013-.4.013a6.482,6.482,0,0,1-2.479-.5l-1.651-.691L12.5,14,9.6,21.349l4.288,2.705.04.026.852.6,1.456-1.709a3.521,3.521,0,0,1,6.2,2.084,3.6,3.6,0,0,1,.382-.021,3.525,3.525,0,0,1,2.669,1.222l.008.011a3.484,3.484,0,0,1,.832,2c0,.021,0,.041,0,.062l0,.031.047,0,.047,0c.1-.008.2-.012.293-.012a3.475,3.475,0,0,1,2.273.835,3.539,3.539,0,0,1,1.237,2.49A3.646,3.646,0,0,1,30.619,31.64Zm-3.9-1.37a1.587,1.587,0,0,0-1.213.559l-2.39,2.805a1.588,1.588,0,0,0,2.425,2.053l2.389-2.8a1.586,1.586,0,0,0-1.21-2.614Zm-3.895-3.3a1.589,1.589,0,0,0-1.215.559l-2.389,2.805a1.588,1.588,0,0,0,2.424,2.053l2.389-2.8a1.583,1.583,0,0,0-.054-2.113l-.013-.014A1.57,1.57,0,0,0,22.821,26.967Zm-3.9-3.3a1.589,1.589,0,0,0-1.216.559l-2.39,2.805a1.588,1.588,0,0,0,2.424,2.052l2.389-2.8a1.586,1.586,0,0,0-1.206-2.614Zm24.882-6.1a.946.946,0,0,1,.573.187l4.289,3.166,3.7,2.733.071.052,4.146-2.663c-.338-.857-5.219-13.228-5.5-13.941L48.246,8.143a7.392,7.392,0,0,1-2.568.458,7.416,7.416,0,0,1-1.157-.091l-2.746-.436a.987.987,0,0,1-.105-.011l-8.147-1.3a2.938,2.938,0,0,0-2.547.832,56.621,56.621,0,0,1-9.148,7.619.617.617,0,0,0-.3.459.555.555,0,0,0,.171.457,3.541,3.541,0,0,0,2.509,1.016c1.7,0,3.815-1.1,6.131-3.179a2.208,2.208,0,0,1,1.476-.57,2.162,2.162,0,0,1,1.574.674,11.27,11.27,0,0,0,8.262,3.667,11.773,11.773,0,0,0,1.966-.168A1.13,1.13,0,0,1,43.807,17.559Z" transform="translate(0 0)" fill="#7f1f3f"/>
      </g>
    </g>
  </g>
</svg>
