<svg xmlns="http://www.w3.org/2000/svg" width="47.427" height="57.247" viewBox="0 0 47.427 57.247">
  <g id="researchIcon9" transform="translate(-66.663 -27.091)">
    <path id="Path_127014" data-name="Path 127014" d="M91.143,37.2a23.471,23.471,0,1,0,19.213,11.158c1.926-3.615,3.484-7.263,3.484-9.612a11.4,11.4,0,0,0-22.7-1.546Zm10.17,22.219a40.318,40.318,0,0,1-.62,8.4H91.262V53.44h6.168c1.665,2.717,3.185,4.964,3.884,5.977ZM69.935,53.44h8.329a42.258,42.258,0,0,0-.007,14.376H69.929a21.36,21.36,0,0,1,.006-14.376Zm10.13,0h9.423V67.816H80.058a40.485,40.485,0,0,1,.008-14.376Zm9.423-14.413v12.64h-9.06C82.077,44.554,85.585,39.675,89.488,39.027Zm0,30.562V82.237c-3.9-.648-7.411-5.53-9.069-12.648Zm1.773,12.648V69.589h9.069C98.672,76.707,95.162,81.589,91.262,82.237Zm0-30.57v-11.1c.706,3.106,2.9,7.363,5.1,11.1ZM84.473,39.791c-2.617,2.482-4.706,6.616-5.86,11.876H70.661A21.946,21.946,0,0,1,84.473,39.791Zm-13.819,29.8H78.6c1.164,5.274,3.262,9.415,5.886,11.9A21.931,21.931,0,0,1,70.654,69.589ZM96.271,81.476c2.619-2.483,4.713-6.621,5.876-11.887H110.1A21.943,21.943,0,0,1,96.271,81.476Zm15.793-20.838a21.341,21.341,0,0,1-1.243,7.178h-8.328a41.619,41.619,0,0,0,.6-7.777c.018-.021.039-.039.056-.062.238-.337,3.394-4.829,6.215-9.82A21.606,21.606,0,0,1,112.064,60.638Zm-9.636-31.524a9.645,9.645,0,0,1,9.638,9.629c0,4.2-6.4,14.422-9.638,19.167C99.188,53.166,92.8,42.943,92.8,38.744A9.64,9.64,0,0,1,102.428,29.114Z" fill="#7f1f3f" stroke="#7f1f3f" stroke-width="0.5"/>
    <path id="Path_127015" data-name="Path 127015" d="M316.446,87.763a5.2,5.2,0,1,0-5.2-5.2A5.211,5.211,0,0,0,316.446,87.763Zm0-8.628a3.427,3.427,0,1,1-3.422,3.423A3.431,3.431,0,0,1,316.446,79.135Z" transform="translate(-214.018 -43.814)" fill="#7f1f3f" stroke="#7f1f3f" stroke-width="0.5"/>
  </g>
</svg>
