<svg xmlns="http://www.w3.org/2000/svg" width="59.934" height="60.582" viewBox="0 0 59.934 60.582">
  <g id="researchIcon6" transform="translate(-0.303 6.792)">
    <g id="Group_60686" data-name="Group 60686" transform="translate(-0.111 -6.678)">
      <g id="Group_60688" data-name="Group 60688" transform="translate(0 0.002)">
        <path id="Path_126999" data-name="Path 126999" d="M-231.947,0h-2.442a20.116,20.116,0,0,0-20.051,20.06v.87a20.027,20.027,0,0,0,7.1,15.278c.045.038.027.047.018.114l.057,7.485c-.024.435.183.556.614.4l7.5-3.036a1.052,1.052,0,0,1,.763-.179h12.474a20.128,20.128,0,0,0,19.8-16.861" transform="translate(255.854 15.193)" fill="none" stroke="#7f1f3f" stroke-linecap="round" stroke-linejoin="round" stroke-width="2"/>
        <path id="Path_127000" data-name="Path 127000" d="M-3.809,0s2.3-.041,5.945,0a20.7,20.7,0,0,1,8.675,1.987" transform="translate(27.803 15.193)" fill="none" stroke="#7f1f3f" stroke-linecap="round" stroke-linejoin="round" stroke-width="2"/>
        <path id="Path_127001" data-name="Path 127001" d="M0-27.1v-2.628" transform="translate(48.565 30.617)" fill="none" stroke="#7f1f3f" stroke-linecap="round" stroke-linejoin="round" stroke-width="2"/>
        <path id="Path_127002" data-name="Path 127002" d="M0,0,1.859,1.859" transform="translate(38.196 3.991)" fill="none" stroke="#7f1f3f" stroke-linecap="round" stroke-linejoin="round" stroke-width="2"/>
        <path id="Path_127003" data-name="Path 127003" d="M-19.167,0l-1.859,1.859" transform="translate(78.101 3.991)" fill="none" stroke="#7f1f3f" stroke-linecap="round" stroke-linejoin="round" stroke-width="2"/>
        <path id="Path_127004" data-name="Path 127004" d="M0-68.648v-6.657" transform="translate(48.558 99.332)" fill="none" stroke="#7f1f3f" stroke-linecap="round" stroke-linejoin="round" stroke-width="2"/>
        <path id="Path_127005" data-name="Path 127005" d="M-7.339,0H1.438A.714.714,0,0,1,2.15.712v2.8a.714.714,0,0,1-.712.712H-7.339a.714.714,0,0,1-.712-.712V.712A.714.714,0,0,1-7.339,0Z" transform="translate(51.509 30.684)" fill="none" stroke="#7f1f3f" stroke-linecap="round" stroke-linejoin="round" stroke-width="2"/>
        <path id="Path_127006" data-name="Path 127006" d="M0,0H6.49V2.21a2.217,2.217,0,0,1-2.21,2.21H2.209A2.217,2.217,0,0,1,0,2.21Z" transform="translate(45.313 34.905)" fill="none" stroke="#7f1f3f" stroke-linecap="round" stroke-linejoin="round" stroke-width="2"/>
        <path id="Path_127007" data-name="Path 127007" d="M-27.757,0a2.691,2.691,0,0,1,2.692,2.693,2.691,2.691,0,0,1-2.692,2.693,2.691,2.691,0,0,1-2.692-2.693A2.691,2.691,0,0,1-27.757,0Z" transform="translate(76.316 18.254)" fill="none" stroke="#7f1f3f" stroke-linecap="round" stroke-linejoin="round" stroke-width="2"/>
        <path id="Path_127008" data-name="Path 127008" d="M0,0H21.885" transform="translate(14.792 35.725)" fill="none" stroke="#7f1f3f" stroke-linecap="round" stroke-linejoin="round" stroke-width="2"/>
        <path id="Path_127009" data-name="Path 127009" d="M0,0H16.34" transform="translate(14.792 29.723)" fill="none" stroke="#7f1f3f" stroke-linecap="round" stroke-linejoin="round" stroke-width="2"/>
        <path id="Path_127010" data-name="Path 127010" d="M0,0H21.885" transform="translate(14.792 41.724)" fill="none" stroke="#7f1f3f" stroke-linecap="round" stroke-linejoin="round" stroke-width="2"/>
        <path id="Path_127011" data-name="Path 127011" d="M-64.35-5.88a8.965,8.965,0,0,0-6.24,8.945c-.007,6.444,5.539,7.47,6.021,13.031m7.866,0c.486-5.56,6.031-6.586,6.024-13.031-.007-6.252-4.716-9.414-9.553-9.515a10.885,10.885,0,0,0-4.119.57" transform="translate(109.194 14.589)" fill="none" stroke="#7f1f3f" stroke-linecap="round" stroke-linejoin="round" stroke-width="2"/>
      </g>
    </g>
  </g>
</svg>
