<svg xmlns="http://www.w3.org/2000/svg" width="52.002" height="53.745" viewBox="0 0 52.002 53.745">
  <g id="researchIcon8" transform="translate(-1038.943 -650.614)">
    <path id="Path_127013" data-name="Path 127013" d="M-8816.621-8987.484s7.7,22.213,5.5,31.01-20.674,21.555-25.512,20.676-23.092-12.979-23.973-20.676,4.619-31.01,4.619-31.01,12.1,4.84,19.354,4.4S-8816.621-8987.484-8816.621-8987.484Z" transform="translate(9900.669 9639.099)" fill="none" stroke="#7f1f3f" stroke-linecap="round" stroke-linejoin="round" stroke-width="2"/>
    <g id="Polygon_43" data-name="Polygon 43" transform="translate(1048 659)" fill="none" stroke-linecap="round" stroke-linejoin="round">
      <path d="M16.5,0l4.372,11.553L33,12.223l-9.425,7.81L26.7,32,16.5,25.274,6.3,32,9.425,20.033,0,12.223l12.127-.67Z" stroke="none"/>
      <path d="M 16.5 5.650184631347656 L 13.99801063537598 12.26091957092285 C 13.71792984008789 13.0009593963623 13.02787971496582 13.50629043579102 12.2378101348877 13.54994010925293 L 5.204849243164062 13.93844413757324 L 10.70125007629395 18.49298858642578 C 11.29953002929688 18.98875045776367 11.5565299987793 19.78614044189453 11.36034965515137 20.53796005249023 L 9.554275512695312 27.45929908752441 L 15.3988094329834 23.6043701171875 C 16.06682014465332 23.16375923156738 16.93318176269531 23.16375923156738 17.60118865966797 23.6043701171875 L 23.44572448730469 27.45929908752441 L 21.63965034484863 20.53796005249023 C 21.4434700012207 19.78614044189453 21.70046997070312 18.98875045776367 22.29874992370605 18.49298858642578 L 27.79515075683594 13.93844413757324 L 20.7621898651123 13.54994010925293 C 19.97212028503418 13.50629043579102 19.28207015991211 13.0009593963623 19.00199127197266 12.26091957092285 L 16.5 5.650184631347656 M 16.5 0 L 20.87250137329102 11.55298042297363 L 33 12.22290992736816 L 23.57485008239746 20.03297996520996 L 26.69755935668945 32 L 16.5 25.27391052246094 L 6.302440643310547 32 L 9.425149917602539 20.03297996520996 L 0 12.22290992736816 L 12.12750053405762 11.55298042297363 L 16.5 0 Z" stroke="none" fill="#7f1f3f"/>
    </g>
  </g>
</svg>
