<svg xmlns="http://www.w3.org/2000/svg" width="53.064" height="53.064" viewBox="0 0 53.064 53.064">
  <g id="researchIcon4" transform="translate(-1668.5 -2792)">
    <path id="mbri-clock" d="M6.921,26.532a1.154,1.154,0,1,1-1.154-1.154A1.154,1.154,0,0,1,6.921,26.532ZM27.686,47.3a1.154,1.154,0,1,1-1.154-1.154A1.154,1.154,0,0,1,27.686,47.3ZM48.45,26.532A1.154,1.154,0,1,1,47.3,25.379,1.154,1.154,0,0,1,48.45,26.532ZM27.686,5.768a1.154,1.154,0,1,1-1.154-1.154A1.154,1.154,0,0,1,27.686,5.768ZM26.532,9.229a1.151,1.151,0,0,0-1.154,1.154V23.288a3.45,3.45,0,1,0,4.4,4.4h8.292a1.154,1.154,0,1,0,0-2.307H29.776a3.472,3.472,0,0,0-2.09-2.09V10.382A1.151,1.151,0,0,0,26.532,9.229Zm0,16.15a1.154,1.154,0,1,1-1.154,1.154A1.137,1.137,0,0,1,26.532,25.379ZM26.532,0A26.532,26.532,0,1,0,53.064,26.532,26.551,26.551,0,0,0,26.532,0Zm0,2.307A24.225,24.225,0,1,1,2.307,26.532,24.207,24.207,0,0,1,26.532,2.307Z" transform="translate(1668.5 2792)" fill="#7f1f3f"/>
    <circle id="Ellipse_11760" data-name="Ellipse 11760" cx="1.15" cy="1.15" r="1.15" transform="translate(1708.5 2803)" fill="#7f1f3f"/>
    <circle id="Ellipse_11763" data-name="Ellipse 11763" cx="1.15" cy="1.15" r="1.15" transform="translate(1708.5 2830)" fill="#7f1f3f"/>
    <circle id="Ellipse_11761" data-name="Ellipse 11761" cx="1.15" cy="1.15" r="1.15" transform="translate(1679.5 2803)" fill="#7f1f3f"/>
    <circle id="Ellipse_11762" data-name="Ellipse 11762" cx="1.15" cy="1.15" r="1.15" transform="translate(1679.5 2830)" fill="#7f1f3f"/>
  </g>
</svg>
