<svg xmlns="http://www.w3.org/2000/svg" width="55.614" height="61.822" viewBox="0 0 55.614 61.822">
  <g id="researchIcon10" transform="translate(-403.739 -1431.284)">
    <path id="Path_127016" data-name="Path 127016" d="M-8831.785-8710.943v-8.2h12.277v-12.5l6.861-3.124-5.859-8.2s-.424-9.479-2.87-14.274a24.8,24.8,0,0,0-21.933-13.458c-12.905-.34-22.952,9.716-22.952,20.458.163,8.126,1.539,12.09,2.518,14.438s6.374,11.586,6.763,14.32,0,10.547,0,10.547" transform="translate(9271 10203.001)" fill="none" stroke="#7f1f3f" stroke-linecap="round" stroke-linejoin="round" stroke-width="2"/>
    <path id="Path_127017" data-name="Path 127017" d="M0-26.573v-3.16" transform="translate(427.244 1469.884)" fill="none" stroke="#7f1f3f" stroke-linecap="round" stroke-linejoin="round" stroke-width="2"/>
    <path id="Path_127018" data-name="Path 127018" d="M0,0,2.234,2.235" transform="translate(414.778 1443.887)" fill="none" stroke="#7f1f3f" stroke-linecap="round" stroke-linejoin="round" stroke-width="2"/>
    <path id="Path_127019" data-name="Path 127019" d="M-18.791,0l-2.234,2.235" transform="translate(458.499 1443.887)" fill="none" stroke="#7f1f3f" stroke-linecap="round" stroke-linejoin="round" stroke-width="2"/>
    <path id="Path_127020" data-name="Path 127020" d="M-7.2,0H3.357a.859.859,0,0,1,.856.856V4.219a.859.859,0,0,1-.856.856H-7.2a.859.859,0,0,1-.856-.856V.856A.859.859,0,0,1-7.2,0Z" transform="translate(429.154 1475.978)" fill="none" stroke="#7f1f3f" stroke-linecap="round" stroke-linejoin="round" stroke-width="2"/>
    <path id="Path_127021" data-name="Path 127021" d="M0,0H7.8V2.657A2.666,2.666,0,0,1,5.146,5.314H2.656A2.666,2.666,0,0,1,0,2.657Z" transform="translate(423.333 1481.051)" fill="none" stroke="#7f1f3f" stroke-linecap="round" stroke-linejoin="round" stroke-width="2"/>
    <path id="Path_127022" data-name="Path 127022" d="M-26.177,0a4.271,4.271,0,0,1,4.272,4.273,4.271,4.271,0,0,1-4.272,4.273,4.271,4.271,0,0,1-4.272-4.273A4.271,4.271,0,0,1-26.177,0Z" transform="translate(453.411 1456.613)" fill="none" stroke="#7f1f3f" stroke-linecap="round" stroke-linejoin="round" stroke-width="2"/>
    <path id="Path_127023" data-name="Path 127023" d="M-63.089-5.762a10.777,10.777,0,0,0-7.5,10.754c-.008,7.748,6.659,8.981,7.238,15.666m9.457,0c.584-6.685,7.251-7.918,7.243-15.666-.008-7.517-5.669-11.317-11.484-11.439a13.085,13.085,0,0,0-4.951.686" transform="translate(485.859 1455.319)" fill="none" stroke="#7f1f3f" stroke-linecap="round" stroke-linejoin="round" stroke-width="2"/>
    <path id="Path_127025" data-name="Path 127025" d="M0-66.517v-8.788" transform="translate(427.234 1541.355)" fill="none" stroke="#7f1f3f" stroke-linecap="round" stroke-linejoin="round" stroke-width="2"/>
  </g>
</svg>
