<svg xmlns="http://www.w3.org/2000/svg" width="57.865" height="54.721" viewBox="0 0 57.865 54.721">
  <g id="researchIcon7" transform="translate(-1 -14.856)">
    <path id="Path_127012" data-name="Path 127012" d="M12.563,60.458a4.382,4.382,0,0,0,1-2.782,4.475,4.475,0,0,0-8.95,0,4.382,4.382,0,0,0,1,2.782,5.959,5.959,0,0,0-3.389,5.385v2.884a.851.851,0,0,0,.851.851H15.1a.851.851,0,0,0,.851-.851V65.842a5.959,5.959,0,0,0-3.389-5.385ZM9.084,54.947a2.729,2.729,0,1,1-2.773,2.729A2.754,2.754,0,0,1,9.084,54.947Zm5.167,12.928H3.918V65.842A4.261,4.261,0,0,1,7.2,61.691a4.5,4.5,0,0,0,3.776,0,4.261,4.261,0,0,1,3.279,4.151v2.033Zm12.617-7.417a4.382,4.382,0,0,0,1-2.782,4.475,4.475,0,0,0-8.95,0,4.382,4.382,0,0,0,1,2.782,5.959,5.959,0,0,0-3.389,5.385v2.884a.851.851,0,0,0,.851.851H29.406a.851.851,0,0,0,.851-.851V65.842a5.959,5.959,0,0,0-3.389-5.385Zm-3.479-5.511a2.729,2.729,0,1,1-2.773,2.729A2.754,2.754,0,0,1,23.388,54.947Zm5.166,12.928H18.222V65.842A4.261,4.261,0,0,1,21.5,61.691a4.5,4.5,0,0,0,3.776,0,4.261,4.261,0,0,1,3.279,4.151Zm12.617-7.417a4.382,4.382,0,0,0,1-2.782,4.475,4.475,0,0,0-8.95,0,4.382,4.382,0,0,0,1,2.782,5.959,5.959,0,0,0-3.389,5.385v2.884a.851.851,0,0,0,.851.851H43.71a.851.851,0,0,0,.851-.851V65.842a5.959,5.959,0,0,0-3.389-5.385Zm-3.479-5.511a2.729,2.729,0,1,1-2.773,2.729A2.754,2.754,0,0,1,37.693,54.947Zm5.166,12.928H32.526V65.842A4.261,4.261,0,0,1,35.8,61.691a4.5,4.5,0,0,0,3.776,0,4.261,4.261,0,0,1,3.279,4.151Zm12.617-7.417a4.382,4.382,0,0,0,1-2.782,4.475,4.475,0,0,0-8.95,0,4.381,4.381,0,0,0,1,2.782,5.959,5.959,0,0,0-3.389,5.385v2.884a.851.851,0,0,0,.851.851H58.014a.851.851,0,0,0,.851-.851V65.842a5.959,5.959,0,0,0-3.389-5.385ZM52,54.947a2.729,2.729,0,1,1-2.773,2.729A2.754,2.754,0,0,1,52,54.947Zm5.167,12.928H46.83V65.842a4.261,4.261,0,0,1,3.279-4.151,4.5,4.5,0,0,0,3.776,0,4.261,4.261,0,0,1,3.279,4.151ZM2.449,50.669a.851.851,0,0,0,.851.851H22.553a.851.851,0,0,0,.851-.851v-4.75H24a.851.851,0,0,0,.851-.851v-3.1A.851.851,0,0,0,24,41.117h-2.3a7.619,7.619,0,0,0-4.641-6.847A5.516,5.516,0,0,0,18.554,30.5,5.628,5.628,0,0,0,7.3,30.5,5.516,5.516,0,0,0,8.788,34.27a7.618,7.618,0,0,0-4.641,6.847h-2.3A.851.851,0,0,0,1,41.968v3.1a.851.851,0,0,0,.851.851h.6v4.75ZM21.7,49.818H4.151v-3.9H21.7ZM12.927,26.634A3.868,3.868,0,1,1,9,30.5a3.9,3.9,0,0,1,3.926-3.867Zm-2.461,8.875a5.671,5.671,0,0,0,4.921,0A5.886,5.886,0,0,1,20,41.117H5.849a5.887,5.887,0,0,1,4.617-5.608ZM2.7,42.819H23.151v1.4H2.7ZM57.56,14.856h-32a1.306,1.306,0,0,0-1.3,1.3V18.4a1.306,1.306,0,0,0,.975,1.261V46.255a.851.851,0,0,0,.851.851H57.039a.851.851,0,0,0,.851-.851V19.663a1.306,1.306,0,0,0,.975-1.261V16.161A1.307,1.307,0,0,0,57.56,14.856Zm-31.6,1.7h31.2V18h-31.2ZM26.935,45.4v-25.7H56.188V45.4H26.935Zm14.626-23.97A11.122,11.122,0,1,0,52.683,32.555,11.134,11.134,0,0,0,41.561,21.434ZM50.941,31.7H46.9a5.417,5.417,0,0,0-4.486-4.486V23.176A9.433,9.433,0,0,1,50.941,31.7Zm-5.006,4.02a5.374,5.374,0,0,0,.964-2.319h4.043a9.375,9.375,0,0,1-2.148,5.177Zm-4.373-6.872a3.7,3.7,0,1,1-3.7,3.7A3.707,3.707,0,0,1,41.561,28.853Zm-9.42,3.7a9.431,9.431,0,0,1,8.569-9.379v4.043a5.4,5.4,0,1,0,4.021,9.71l2.858,2.858a9.414,9.414,0,0,1-15.448-7.231Z" transform="translate(0)" fill="#7f1f3f"/>
  </g>
</svg>
