<svg id="researchIcon11" xmlns="http://www.w3.org/2000/svg" width="58.883" height="58.883" viewBox="0 0 58.883 58.883">
  <path id="Path_127027" data-name="Path 127027" d="M32.693,15.8a.834.834,0,0,1,.834-.835H60.752a.834.834,0,1,1,0,1.669H33.527A.834.834,0,0,1,32.693,15.8Zm28.894,9.6a.835.835,0,0,1-.835.834H47.139a.834.834,0,1,1,0-1.669H60.752a.835.835,0,0,1,.835.835ZM32.693,20.6a.834.834,0,0,1,.834-.834H60.752a.834.834,0,1,1,0,1.669H33.527a.834.834,0,0,1-.834-.835Zm3.876,45.618c-4.768,0-8.5-1.333-8.5-3.034a8.5,8.5,0,0,1,17.008,0c0,1.7-3.735,3.034-8.5,3.034Zm0-13.206A10.183,10.183,0,0,0,26.4,63.18c0,1.1.6,2.63,3.463,3.684a20.155,20.155,0,0,0,6.709,1.018c5.064,0,10.173-1.454,10.173-4.7A10.184,10.184,0,0,0,36.57,53.008Zm-3.483-5.969a3.482,3.482,0,1,1,3.483,3.482A3.486,3.486,0,0,1,33.087,47.039Zm8.634,0a5.151,5.151,0,1,0-5.151,5.151A5.156,5.156,0,0,0,41.721,47.039ZM57.71,66.214c-4.768,0-8.5-1.333-8.5-3.034a8.5,8.5,0,0,1,17.008,0C66.214,64.882,62.478,66.214,57.71,66.214Zm0-13.206A10.184,10.184,0,0,0,47.537,63.18c0,1.1.6,2.63,3.464,3.684a20.155,20.155,0,0,0,6.709,1.018c5.064,0,10.173-1.454,10.173-4.7A10.183,10.183,0,0,0,57.711,53.008Zm-3.482-5.969a3.482,3.482,0,1,1,3.482,3.482A3.485,3.485,0,0,1,54.229,47.039Zm8.632,0a5.15,5.15,0,1,0-5.15,5.151A5.156,5.156,0,0,0,62.861,47.039Zm-43.268-25.1a3.67,3.67,0,1,1-3.67,3.67A3.674,3.674,0,0,1,19.593,21.936Zm0,9.009a5.339,5.339,0,1,0-5.338-5.339A5.345,5.345,0,0,0,19.593,30.945Zm46.621,3.6V10.669H28.065V32.39h1.491A1.274,1.274,0,0,0,30.509,32l3.4-3.4a2.983,2.983,0,0,1,3.536-.505l5.234-5.234a.834.834,0,0,1,1.18,1.18L38.625,29.27A2.981,2.981,0,0,1,38.12,32.8l-1.745,1.745ZM32.922,35.642l4.018-4.017a1.31,1.31,0,0,0,0-1.85h0a1.311,1.311,0,0,0-1.85,0l-3.4,3.4a2.957,2.957,0,0,1-2.132.883H12.332a1.665,1.665,0,0,0-1.663,1.663V47.655a1.665,1.665,0,0,0,1.663,1.663h.953V37.51a.834.834,0,1,1,1.669,0v7.35h6.208a2.264,2.264,0,0,1,2.261,2.262v2.2h.811V37.509a.834.834,0,0,1,.834-.835h5.36a3.369,3.369,0,0,0,2.494-1.033ZM21.754,52.609a.593.593,0,0,1-.592.592h-7.9a.593.593,0,0,1-.593-.592V50.987H14.12a.835.835,0,0,0,.834-.834V46.528h6.208a.593.593,0,0,1,.592.593ZM67.048,9H27.231a.834.834,0,0,0-.834.835V32.39H12.332A3.335,3.335,0,0,0,9,35.722V47.655a3.335,3.335,0,0,0,2,3.054v1.9a2.264,2.264,0,0,0,2.262,2.262h7.9a2.264,2.264,0,0,0,2.261-2.262V50.987h1.645a.835.835,0,0,0,.835-.834V38.344h4.526A5.028,5.028,0,0,0,34.1,36.822l.6-.6H67.048a.834.834,0,0,0,.835-.835V9.835A.834.834,0,0,0,67.048,9Z" transform="translate(-9 -9)" fill="#7f1f3f" fill-rule="evenodd"/>
</svg>
