<svg xmlns="http://www.w3.org/2000/svg" width="57.672" height="53.323" viewBox="0 0 57.672 53.323">
  <g id="researchIcon13" transform="translate(-916.809 -1802)">
    <path id="Path_127048" data-name="Path 127048" d="M-8312.462-8374.211s-3.659-3.72-7.554-4.951a17.5,17.5,0,0,0-5.606-1.114s-4.779,4.4-6.372,4.34" transform="translate(9277.594 10209.559)" fill="none" stroke="#7f1f3f" stroke-width="2"/>
    <path id="Path_127049" data-name="Path 127049" d="M-8331.991-8374.211s3.656-3.72,7.55-4.951a17.49,17.49,0,0,1,5.6-1.114s4.778,4.4,6.37,4.34" transform="translate(9258.295 10209.559)" fill="none" stroke="#7f1f3f" stroke-width="2"/>
    <path id="Path_127050" data-name="Path 127050" d="M-8326.444-8379.67l-2.7-3.637" transform="translate(9278.613 10208.602)" fill="none" stroke="#7f1f3f" stroke-width="2"/>
    <path id="Path_127051" data-name="Path 127051" d="M-8329.144-8379.67l2.7-3.637" transform="translate(9268.081 10208.602)" fill="none" stroke="#7f1f3f" stroke-width="2"/>
    <g id="Path_127052" data-name="Path 127052" transform="translate(934.239 1802)" fill="none">
      <path d="M11.47,0a11.665,11.665,0,0,1,11.47,11.85c0,6.544-5.135,13.5-11.47,13.5S0,18.394,0,11.85A11.665,11.665,0,0,1,11.47,0Z" stroke="none"/>
      <path d="M 11.47032070159912 1.999996185302734 C 6.248371124267578 1.999996185302734 2 6.418525695800781 2 11.84962558746338 C 2 14.57694625854492 3.088649749755859 17.54581642150879 4.912139892578125 19.79133605957031 C 5.808231353759766 20.89481544494629 6.865171432495117 21.79858589172363 7.968680381774902 22.40493583679199 C 9.105510711669922 23.02958679199219 10.28363037109375 23.34631538391113 11.47032070159912 23.34631538391113 C 12.65701103210449 23.34631538391113 13.83513069152832 23.02958679199219 14.97196006774902 22.40493583679199 C 16.07546997070312 21.79858589172363 17.13241004943848 20.89481544494629 18.02849960327148 19.79133605957031 C 19.85198974609375 17.54581642150879 20.94064140319824 14.57694625854492 20.94064140319824 11.84962558746338 C 20.94064140319824 6.418525695800781 16.69227027893066 1.999996185302734 11.47032070159912 1.999996185302734 M 11.47032070159912 -3.814697265625e-06 C 17.80520057678223 -3.814697265625e-06 22.94064140319824 5.305255889892578 22.94064140319824 11.84962558746338 C 22.94064140319824 18.39398574829102 17.80520057678223 25.34631538391113 11.47032070159912 25.34631538391113 C 5.135440826416016 25.34631538391113 0 18.39398574829102 0 11.84962558746338 C 0 5.305255889892578 5.135440826416016 -3.814697265625e-06 11.47032070159912 -3.814697265625e-06 Z" stroke="none" fill="#7f1f3f"/>
    </g>
    <path id="Path_127053" data-name="Path 127053" d="M-8324.9-8395.466h-4.625a7.952,7.952,0,0,1-2.638,1.188,13.684,13.684,0,0,1-1.926,0,7.227,7.227,0,0,1-3.192-1.682" transform="translate(9277.071 10204.595)" fill="none" stroke="#7f1f3f" stroke-linecap="round" stroke-linejoin="round" stroke-width="2"/>
    <line id="Line_8744" data-name="Line 8744" y2="3.947" transform="translate(933.202 1813.699)" fill="none" stroke="#7f1f3f" stroke-linecap="round" stroke-width="2"/>
    <line id="Line_8745" data-name="Line 8745" y2="3.947" transform="translate(958.218 1813.699)" fill="none" stroke="#7f1f3f" stroke-linecap="round" stroke-width="2"/>
    <path id="Path_127054" data-name="Path 127054" d="M-8304.2-8357.176v-14.512a169.446,169.446,0,0,0-27.908,5.936" transform="translate(9277.676 10212.279)" fill="none" stroke="#7f1f3f" stroke-width="2"/>
    <path id="Path_127057" data-name="Path 127057" d="M-8332.1-8357.176v-14.512a169.446,169.446,0,0,1,27.908,5.936" transform="translate(9249.912 10212.279)" fill="none" stroke="#7f1f3f" stroke-width="2"/>
    <path id="Path_127055" data-name="Path 127055" d="M-8308.394-8370.427v-5.229s-14.866-.824-23.62,10.282" transform="translate(9277.702 10211.019)" fill="none" stroke="#7f1f3f" stroke-width="2"/>
    <path id="Path_127056" data-name="Path 127056" d="M-8332.013-8370.427v-5.229s14.866-.824,23.62,10.282" transform="translate(9253.992 10211.019)" fill="none" stroke="#7f1f3f" stroke-width="2"/>
    <line id="Line_8746" data-name="Line 8746" y2="10.533" transform="translate(945.689 1844.79)" fill="none" stroke="#7f1f3f" stroke-width="2"/>
  </g>
</svg>
