<svg xmlns="http://www.w3.org/2000/svg" width="38.739" height="38.739" viewBox="0 0 38.739 38.739">
  <g id="call-calling" transform="translate(1255.143 -213.698)">
    <g id="Group_56083" data-name="Group 56083" transform="translate(-1254.143 214.698)">
      <g id="call-calling-2" data-name="call-calling" transform="translate(0 0)">
        <path id="Path_124605" data-name="Path 124605" d="M38.684,32a4.676,4.676,0,0,1-.459,2,7.579,7.579,0,0,1-1.249,1.874,8.282,8.282,0,0,1-3.013,2.168,9.225,9.225,0,0,1-3.582.7A15.309,15.309,0,0,1,24.393,37.4a32.265,32.265,0,0,1-6.319-3.637,52.813,52.813,0,0,1-6.025-5.143,52.2,52.2,0,0,1-5.125-6.007,32.749,32.749,0,0,1-3.6-6.264A15.472,15.472,0,0,1,2,10.34a9.5,9.5,0,0,1,.661-3.545A8.455,8.455,0,0,1,4.774,3.727,5.382,5.382,0,0,1,8.595,2a3.452,3.452,0,0,1,1.488.331,3,3,0,0,1,1.231,1.029l4.262,6.007a6.287,6.287,0,0,1,.735,1.286,2.9,2.9,0,0,1,.257,1.121,2.494,2.494,0,0,1-.386,1.3,6.248,6.248,0,0,1-1.029,1.3l-1.4,1.451a.983.983,0,0,0-.294.735,1.668,1.668,0,0,0,.055.423c.055.147.11.257.147.367a15.244,15.244,0,0,0,1.708,2.351c.827.955,1.708,1.929,2.664,2.9.992.974,1.947,1.874,2.921,2.7A14.1,14.1,0,0,0,23.327,27c.092.037.2.092.331.147a1.268,1.268,0,0,0,.459.073,1.011,1.011,0,0,0,.753-.312l1.4-1.378A5.636,5.636,0,0,1,27.589,24.5a2.446,2.446,0,0,1,1.3-.386,2.932,2.932,0,0,1,1.121.239,7.1,7.1,0,0,1,1.286.716l6.08,4.317a2.787,2.787,0,0,1,1.01,1.176A3.769,3.769,0,0,1,38.684,32Z" transform="translate(-2 -2)" fill="none" stroke="#7f1f3f" stroke-miterlimit="10" stroke-width="2"/>
        <path id="Path_124606" data-name="Path 124606" d="M21.369,11.869A7.216,7.216,0,0,0,19.24,7.738,6.215,6.215,0,0,0,15,5.5" transform="translate(8.928 0.942)" fill="none" stroke="#7f1f3f" stroke-linecap="round" stroke-linejoin="round" stroke-width="2"/>
        <path id="Path_124607" data-name="Path 124607" d="M27.738,14.738A12.728,12.728,0,0,0,15,2" transform="translate(9.001 -2)" fill="none" stroke="#7f1f3f" stroke-linecap="round" stroke-linejoin="round" stroke-width="2"/>
      </g>
    </g>
  </g>
</svg>
