<svg xmlns="http://www.w3.org/2000/svg" width="41.633" height="58.698" viewBox="0 0 41.633 58.698">
  <g id="iconStudent" transform="translate(1.25 1.358)">
    <path id="Path_124485" data-name="Path 124485" d="M.5,90.284V78.351L15.827,70.03" transform="translate(-0.5 -34.558)" fill="none" stroke="#fff" stroke-linejoin="round" stroke-width="2.5"/>
    <path id="Path_124486" data-name="Path 124486" d="M62.827,90.284V78.351L47.5,70.03" transform="translate(-23.694 -34.558)" fill="none" stroke="#fff" stroke-linejoin="round" stroke-width="2.5"/>
    <path id="Path_124487" data-name="Path 124487" d="M39.482,78.243,28.424,87.549,16.71,78.243" transform="translate(-8.499 -38.611)" fill="none" stroke="#fff" stroke-width="2.5"/>
    <path id="Path_124488" data-name="Path 124488" d="M39.617,83.214,23.486,96.789,6.4,83.214" transform="translate(-3.41 -41.064)" fill="none" stroke="#fff" stroke-width="2.5"/>
    <path id="Path_124489" data-name="Path 124489" d="M39.77,21.12V37.411a9.371,9.371,0,0,1-18.741,0V21.12" transform="translate(-10.631 -10.422)" fill="none" stroke="#fff" stroke-width="2.5"/>
    <line id="Line_227" data-name="Line 227" x1="18.592" transform="translate(10.429 19.341)" fill="none" stroke="#fff" stroke-width="2.5"/>
    <line id="Line_228" data-name="Line 228" y2="8.94" transform="translate(35.563 7.809)" fill="none" stroke="#fff" stroke-width="2.5"/>
    <path id="Path_124492" data-name="Path 124492" d="M18.225,15.542,1.238,7.753,18.225.544l16.987,7.21Z" transform="translate(1.5 -0.544)" fill="none" stroke="#fff" stroke-width="2.5"/>
    <path id="Path_124491" data-name="Path 124491" d="M67.829,32.783h0c1.565,0,2.833,4.906,2.833,6.585H65C65,37.689,66.263,32.783,67.829,32.783Z" transform="translate(-32.327 -16.177)" fill="none" stroke="#fff" stroke-width="2.5"/>
  </g>
</svg>
