<svg xmlns="http://www.w3.org/2000/svg" width="44" height="44" viewBox="0 0 44 44">
  <g id="language-square" transform="translate(10.815 11)">
    <circle id="Ellipse_11731" data-name="Ellipse 11731" cx="22" cy="22" r="22" transform="translate(-10.815 -11)" fill="#dfe9ef"/>
    <path id="Path_124275" data-name="Path 124275" d="M16.084,8.96H7.01" transform="translate(-0.455 -0.632)" fill="none" stroke="#c6aa76" stroke-linecap="round" stroke-linejoin="round" stroke-width="2"/>
    <path id="Path_124276" data-name="Path 124276" d="M12,7.28V8.808" transform="translate(-0.908 -0.479)" fill="none" stroke="#c6aa76" stroke-linecap="round" stroke-linejoin="round" stroke-width="2"/>
    <path id="Path_124277" data-name="Path 124277" d="M13.819,8.94A6.949,6.949,0,0,1,7,16.014" transform="translate(-0.454 -0.63)" fill="none" stroke="#c6aa76" stroke-linecap="round" stroke-linejoin="round" stroke-width="2"/>
    <path id="Path_124278" data-name="Path 124278" d="M16.587,16.5A5.239,5.239,0,0,1,12.45,14.25" transform="translate(-0.948 -1.112)" fill="none" stroke="#c6aa76" stroke-linecap="round" stroke-linejoin="round" stroke-width="2"/>
    <path id="Path_124279" data-name="Path 124279" d="M8.365,20.185H13.82c4.546,0,6.365-1.818,6.365-6.365V8.365C20.185,3.818,18.366,2,13.82,2H8.365C3.818,2,2,3.818,2,8.365V13.82C2,18.366,3.818,20.185,8.365,20.185Z" transform="translate(0 0)" fill="none" stroke="#c6aa76" stroke-linecap="round" stroke-linejoin="round" stroke-width="2"/>
  </g>
</svg>
