<svg id="Main_Box" xmlns="http://www.w3.org/2000/svg" width="340.121" height="307.191" viewBox="0 0 340.121 307.191">
  <g id="BG" transform="translate(0.341)">
    <path id="Frame" d="M292.68,183.841h-3.217V70.65A33.87,33.87,0,0,0,265.29,38.341L146.343,3.354,27.39,38.341A33.87,33.87,0,0,0,3.217,70.65V183.876H0V70.65A37.1,37.1,0,0,1,26.482,35.256L146.343,0l.448.138L266.2,35.256A37.1,37.1,0,0,1,292.68,70.65Z" transform="translate(47.1)" fill="#c7af81"/>
    <path id="Union_19" data-name="Union 19" d="M8751.659,22895.957v-117H8752v-79.865a40.378,40.378,0,0,1,28.829-38.523l130.46-38.377.488.154,129.972,38.223a40.38,40.38,0,0,1,28.822,38.523v79.865h.092v117Z" transform="translate(-8752 -22588.766)" fill="#003865"/>
  </g>
</svg>
