<svg xmlns="http://www.w3.org/2000/svg" width="39.646" height="55.986" viewBox="0 0 39.646 55.986">
  <g id="mapIcon1" transform="translate(1 1.086)">
    <path id="Path_124485" data-name="Path 124485" d="M.5,89.514V78.035l14.744-8" transform="translate(-0.5 -35.906)" fill="none" stroke="#b77f88" stroke-width="2"/>
    <path id="Path_124486" data-name="Path 124486" d="M62.244,89.514V78.035l-14.744-8" transform="translate(-24.598 -35.906)" fill="none" stroke="#b77f88" stroke-width="2"/>
    <path id="Path_124487" data-name="Path 124487" d="M38.616,78.243,27.979,87.2,16.71,78.243" transform="translate(-8.811 -40.117)" fill="none" stroke="#b77f88" stroke-width="2"/>
    <path id="Path_124488" data-name="Path 124488" d="M38.354,83.214,22.837,96.273,6.4,83.214" transform="translate(-3.524 -42.665)" fill="none" stroke="#b77f88" stroke-width="2"/>
    <path id="Path_124489" data-name="Path 124489" d="M39.058,21.12V36.792a9.015,9.015,0,0,1-18.029,0V21.12" transform="translate(-11.026 -10.828)" fill="none" stroke="#b77f88" stroke-width="2"/>
    <line id="Line_227" data-name="Line 227" x1="17.885" transform="translate(10.033 18.606)" fill="none" stroke="#b77f88" stroke-width="2"/>
    <line id="Line_228" data-name="Line 228" y2="8.6" transform="translate(34.212 7.513)" fill="none" stroke="#b77f88" stroke-width="2"/>
    <path id="Path_124492" data-name="Path 124492" d="M17.58,14.972,1.238,7.479,17.58.544,33.921,7.479Z" transform="translate(1.396 -0.544)" fill="none" stroke="#b77f88" stroke-width="2"/>
    <path id="Path_124491" data-name="Path 124491" d="M67.721,32.783h0c1.505,0,2.725,4.72,2.725,6.335H65C65,37.5,66.215,32.783,67.721,32.783Z" transform="translate(-33.568 -16.808)" fill="none" stroke="#b77f88" stroke-width="2"/>
  </g>
</svg>
