<svg xmlns="http://www.w3.org/2000/svg" width="62" height="62" viewBox="0 0 62 62">
  <g id="play" transform="translate(-223 -138)">
    <circle id="Ellipse_11208" data-name="Ellipse 11208" cx="11" cy="11" r="11" transform="translate(243 158)" fill="#fff" opacity="0"/>
    <circle id="Ellipse_171" data-name="Ellipse 171" cx="31" cy="31" r="31" transform="translate(223 138)" fill="#b77f88"/>
    <g id="Polygon_37" data-name="Polygon 37" transform="translate(267 158) rotate(90)" fill="none">
      <path d="M11.143,1.429a1,1,0,0,1,1.715,0L23.091,18.486A1,1,0,0,1,22.234,20H1.766a1,1,0,0,1-.857-1.514Z" stroke="none"/>
      <path d="M 12.00000286102295 3.887310028076172 L 3.532392501831055 17.99999809265137 L 20.46761131286621 17.99999809265137 L 12.00000286102295 3.887310028076172 M 12 0.9436531066894531 C 12.33164501190186 0.9436531066894531 12.66329002380371 1.105487823486328 12.85748958587646 1.429159164428711 L 23.09130096435547 18.48550796508789 C 23.49122047424316 19.15202903747559 23.01110076904297 19.99999809265137 22.23381042480469 19.99999809265137 L 1.766189575195312 19.99999809265137 C 0.9888896942138672 19.99999809265137 0.5087795257568359 19.15202903747559 0.9087009429931641 18.48550796508789 L 11.14251041412354 1.429159164428711 C 11.33670997619629 1.105487823486328 11.66835498809814 0.9436531066894531 12 0.9436531066894531 Z" stroke="none" fill="#fff"/>
    </g>
  </g>
</svg>
