<svg xmlns="http://www.w3.org/2000/svg" width="66.972" height="78.189" viewBox="0 0 66.972 78.189">
  <g id="ico1" transform="translate(0)">
    <g id="Group_56159" data-name="Group 56159" transform="translate(0 0)">
      <g id="Group_56156" data-name="Group 56156" transform="translate(0 0)">
        <path id="Path_122729" data-name="Path 122729" d="M582.484,460.489V460.4l-5.341,5.369c.026,4.074.014,8.525-.1,16.688-.2,15.648-22.109,23.094-27.884,24.793h-.014c-5.773-1.7-27.681-9.173-27.882-24.793-.149-11.6-.109-15.7-.042-21.906.028-2.712.054-5.8.08-10.078l27.844-10.064h.014l27.844,10.064v.135l4.3-4.317-32.146-11.616h-.014l-33.224,12v1.888c-.028,5.263-.068,8.85-.1,11.926-.068,6.231-.108,10.359.042,22.038.255,19.532,24.847,27.964,32.375,30.067l.9.271.89-.255c7.54-2.1,32.147-10.509,32.4-30.082C582.593,470.848,582.551,466.72,582.484,460.489Z" transform="translate(-515.77 -434.675)" fill="#c6aa76"/>
      </g>
      <g id="Group_56157" data-name="Group 56157" transform="translate(33.381 14.066)">
        <path id="Path_122730" data-name="Path 122730" d="M1032.073,645.726l-5.343,5.369-27.884,27.991-.365-.323v-7.175l.121.106,28.045-28.167,5.355-5.379C1032.021,641.188,1032.039,643.618,1032.073,645.726Z" transform="translate(-998.482 -638.148)" fill="#c6aa76"/>
      </g>
      <g id="Group_56158" data-name="Group 56158" transform="translate(14.812 34.353)">
        <path id="Path_122731" data-name="Path 122731" d="M748.626,944.7v7.175l-18.567-16.268,3.549-4.061Z" transform="translate(-730.059 -931.548)" fill="#c6aa76"/>
      </g>
    </g>
  </g>
</svg>
