<svg xmlns="http://www.w3.org/2000/svg" width="76.293" height="76.326" viewBox="0 0 76.293 76.326">
  <g id="ico2" transform="translate(-0.109 -0.001)">
    <g id="Group_56609" data-name="Group 56609" transform="translate(0.109 0.001)">
      <g id="Group_56608" data-name="Group 56608" transform="translate(0 0)">
        <path id="Path_124300" data-name="Path 124300" d="M65.139,6.247V2.3A2.29,2.29,0,0,0,62.852.01H56.594a2.318,2.318,0,0,0-1.912,1.009,29.382,29.382,0,0,0-29.22,48.33l-2.228,2.169L21.9,50.18a2.91,2.91,0,0,0-4.11,0L1.378,66.589a4.344,4.344,0,0,0,0,6.136l2.387,2.387a4.16,4.16,0,0,0,5.877,0L26.18,58.574a2.91,2.91,0,0,0,0-4.11L24.815,53.1l2.227-2.168a29.359,29.359,0,0,0,17.94,7.759l.078,0a1.118,1.118,0,0,0,.076-2.233A27.143,27.143,0,1,1,54.274,3.224V6.1A24.417,24.417,0,1,0,64.835,46.115l0,0,.025-.028a24.409,24.409,0,0,0,.276-33.036V9.156a27.153,27.153,0,0,1-14.993,47.19,1.118,1.118,0,0,0,.255,2.221A29.384,29.384,0,0,0,65.139,6.247ZM8.061,73.531a1.922,1.922,0,0,1-2.715,0L2.959,71.144a2.106,2.106,0,0,1,0-2.975l8.611-8.611L16.8,64.791ZM18.382,63.21,13.15,57.978,14.732,56.4l5.232,5.232ZM24.6,56.993l-3.055,3.055-5.232-5.232,3.055-3.055a.675.675,0,0,1,.948,0L24.6,56.044A.676.676,0,0,1,24.6,56.993ZM37.015,49.2a22.312,22.312,0,0,1-6.395-4.878V27.755a.085.085,0,0,1,.085-.085h6.31V49.2Zm8.63,2.346a21.954,21.954,0,0,1-6.394-1.363V19.28a.085.085,0,0,1,.085-.085h6.31V51.549Zm0-40.744V16.96h-6.31a2.323,2.323,0,0,0-2.32,2.32v6.155h-6.31a2.323,2.323,0,0,0-2.32,2.32V41.42C18.893,26.731,29.5,7.238,47.026,7.238a22.1,22.1,0,0,1,7.248,1.214v.033h-6.31A2.323,2.323,0,0,0,45.644,10.8Zm8.63,39.576a22.05,22.05,0,0,1-6.395,1.2V10.805a.085.085,0,0,1,.085-.085h6.31V50.381ZM69.205,29.416a22.084,22.084,0,0,1-4.066,12.8V31.926a1.118,1.118,0,1,0-2.235,0V44.9a22.338,22.338,0,0,1-6.394,4.569V2.33a.085.085,0,0,1,.085-.085h6.258A.052.052,0,0,1,62.9,2.3V26.711a1.118,1.118,0,0,0,2.235,0V16.616A22.086,22.086,0,0,1,69.205,29.416Z" transform="translate(-0.109 -0.001)" fill="#c6aa76"/>
      </g>
    </g>
  </g>
</svg>
