<svg xmlns="http://www.w3.org/2000/svg" width="65.426" height="78" viewBox="0 0 65.426 78">
  <g id="ico3" transform="translate(-0.264 -0.264)">
    <g id="layer6" transform="translate(0.264 0.264)">
      <path id="path848" d="M9.077,3.967c-4.372,0-6.642,2.289-7.736,4.476A10.6,10.6,0,0,0,.264,12.78V36.675a10.6,10.6,0,0,0,1.077,4.337,8.076,8.076,0,0,0,7.736,4.476H19.812V42.971H9.077c-3.181,0-4.686-1.5-5.479-3.083a8.3,8.3,0,0,1-.817-3.213V12.78A8.3,8.3,0,0,1,3.6,9.567C4.391,7.98,5.914,6.484,9.077,6.484H36.752c3.186,0,4.686,1.5,5.479,3.083a8.191,8.191,0,0,1,.808,3.213V15.3h2.517V12.78a10.6,10.6,0,0,0-1.077-4.337,8.05,8.05,0,0,0-7.727-4.476Z" transform="translate(-0.264 13.641)" fill="#c6aa76"/>
      <path id="path850" d="M15.955.264A13.9,13.9,0,0,0,2.126,14.1l-.009,5.033H4.634L4.643,14.1a11.316,11.316,0,1,1,22.632,0v5.033h2.517V14.1A13.9,13.9,0,0,0,15.955.264Z" transform="translate(6.696 -0.264)" fill="#c6aa76"/>
      <path id="path852" d="M9.992,1.85a6.141,6.141,0,0,0-6.287,6.3V13.18H6.222V8.146a3.614,3.614,0,0,1,3.77-3.78,3.633,3.633,0,0,1,3.78,3.78l-.009,5.033h2.517l.009-5.033a6.146,6.146,0,0,0-6.3-6.3Z" transform="translate(12.658 5.691)" fill="#c6aa76"/>
      <g id="Group_56610" data-name="Group 56610" transform="translate(15.1 27.684)">
        <path id="path854" d="M24.827,6.086A1.258,1.258,0,0,0,23.592,7.1l-.483,2.4A22.542,22.542,0,0,0,17.147,12l-2.08-1.374a1.258,1.258,0,0,0-1.588.158l-5.34,5.34A1.258,1.258,0,0,0,7.981,17.7l1.365,2.043a22.544,22.544,0,0,0-2.47,6.009l-2.424.483a1.258,1.258,0,0,0-1.012,1.235v7.541A1.258,1.258,0,0,0,4.452,36.25l2.4.474A22.608,22.608,0,0,0,9.364,42.7l-1.384,2.08a1.258,1.258,0,0,0,.158,1.588l5.34,5.331a1.258,1.258,0,0,0,1.588.158L17.1,50.5a22.609,22.609,0,0,0,6.018,2.47l.474,2.415A1.258,1.258,0,0,0,24.827,56.4h7.55a1.258,1.258,0,0,0,1.235-1.012L34.086,53a22.551,22.551,0,0,0,6.064-2.461l1.987,1.319a1.258,1.258,0,0,0,1.588-.158l5.34-5.331a1.258,1.258,0,0,0,.158-1.588l-1.328-2a22.551,22.551,0,0,0,2.47-6.064l2.387-.474a1.258,1.258,0,0,0,1.012-1.235V27.474a1.258,1.258,0,0,0-1.012-1.235l-2.34-.464a22.572,22.572,0,0,0-2.545-6.027L49.224,17.7a1.258,1.258,0,0,0-.158-1.579l-5.34-5.34a1.258,1.258,0,0,0-1.588-.158l-2.015,1.347a22.564,22.564,0,0,0-6.036-2.48l-.474-2.4a1.258,1.258,0,0,0-1.235-1.012ZM25.858,8.6h5.489l.409,2.025a1.258,1.258,0,0,0,.975.984A20.161,20.161,0,0,1,39.6,14.435a1.258,1.258,0,0,0,1.374-.009l1.7-1.133,3.882,3.882-1.152,1.718a1.258,1.258,0,0,0,0,1.393,20.1,20.1,0,0,1,2.9,6.854,1.258,1.258,0,0,0,.984.966l1.96.4v5.479l-2.015.409a1.258,1.258,0,0,0-.984.984,20.122,20.122,0,0,1-2.814,6.9,1.258,1.258,0,0,0,.01,1.374l1.114,1.662L42.677,49.2,41.014,48.09a1.258,1.258,0,0,0-1.384-.01,20.1,20.1,0,0,1-6.9,2.8,1.258,1.258,0,0,0-.984.994l-.4,2.006H25.858l-.409-2.034a1.258,1.258,0,0,0-.975-.984,20.128,20.128,0,0,1-6.844-2.823,1.258,1.258,0,0,0-1.384.01L14.528,49.2l-3.882-3.882,1.17-1.755a1.258,1.258,0,0,0,.009-1.393,20.1,20.1,0,0,1-2.87-6.807,1.258,1.258,0,0,0-.984-.966l-2.015-.409V28.5L8,28.1a1.258,1.258,0,0,0,.984-.975,20.128,20.128,0,0,1,2.823-6.844,1.258,1.258,0,0,0-.009-1.384l-1.152-1.718,3.882-3.882,1.755,1.17a1.258,1.258,0,0,0,1.393,0,20.146,20.146,0,0,1,6.817-2.87,1.258,1.258,0,0,0,.966-.984Z" transform="translate(-3.439 -6.086)" fill="#c6aa76"/>
        <path id="path856" d="M21.645,7.938A16.354,16.354,0,1,0,38,24.292,16.373,16.373,0,0,0,21.645,7.938Zm0,2.517A13.837,13.837,0,1,1,7.808,24.292,13.825,13.825,0,0,1,21.645,10.454Z" transform="translate(3.513 0.866)" fill="#c6aa76"/>
        <path id="path858" d="M13.7,9a6.292,6.292,0,1,0,6.3,6.287A6.3,6.3,0,0,0,13.7,9Zm0,2.517a3.775,3.775,0,1,1-3.77,3.77A3.757,3.757,0,0,1,13.7,11.513Z" transform="translate(11.463 4.841)" fill="#c6aa76"/>
        <path id="path860" d="M16.673,11.906a10.082,10.082,0,0,0-10.058,9.7l2.517.093a7.55,7.55,0,0,1,15.091,0l2.507-.084a10.083,10.083,0,0,0-10.058-9.714Z" transform="translate(8.485 15.769)" fill="#c6aa76"/>
      </g>
    </g>
  </g>
</svg>
