<svg xmlns="http://www.w3.org/2000/svg" width="69.524" height="78" viewBox="0 0 69.524 78">
  <g id="ico4" transform="translate(-0.184)">
    <g id="surface1" transform="translate(0.184)">
      <path id="Path_124301" data-name="Path 124301" d="M68.711,37.006l-3.1-1.335V33.548A30.558,30.558,0,0,0,45.134,4.6V1.608A1.609,1.609,0,0,0,43.526,0H26.318A1.609,1.609,0,0,0,24.71,1.608V4.616A30.558,30.558,0,0,0,4.237,33.564V35.7l-3.072,1.3a1.606,1.606,0,0,0-.981,1.48v8.443a1.609,1.609,0,0,0,1.608,1.608H3.883v3.217a1.608,1.608,0,0,0,1.608,1.608h5.774a24.331,24.331,0,0,0,2.4,5.757L9.576,63.2a1.607,1.607,0,0,0,0,2.267l6.835,6.835a1.607,1.607,0,0,0,2.267,0l4.085-4.085a24.294,24.294,0,0,0,5.742,2.4v5.774A1.609,1.609,0,0,0,30.113,78h9.649a1.609,1.609,0,0,0,1.608-1.608V70.618a24.273,24.273,0,0,0,5.757-2.4l4.085,4.085a1.607,1.607,0,0,0,2.267,0l6.835-6.835a1.607,1.607,0,0,0,0-2.267l-4.085-4.085a24.327,24.327,0,0,0,2.4-5.757H64.4a1.609,1.609,0,0,0,1.609-1.608V48.537H68.1a1.608,1.608,0,0,0,1.608-1.608V38.485A1.608,1.608,0,0,0,68.711,37.006ZM27.894,3.233H41.917V30.106H27.926ZM62.808,50.145H57.453a1.608,1.608,0,0,0-1.608,1.27A21.139,21.139,0,0,1,52.9,58.492a1.608,1.608,0,0,0,.209,2.01l3.844,3.844-4.6,4.568-3.844-3.844a1.608,1.608,0,0,0-2.01-.209A21.15,21.15,0,0,1,39.424,67.8a1.608,1.608,0,0,0-1.27,1.608v5.42H31.721V69.363a1.607,1.607,0,0,0-1.27-1.608,21.079,21.079,0,0,1-7.076-2.943,1.609,1.609,0,0,0-2.011.209L17.52,68.865l-4.551-4.552,3.844-3.844a1.608,1.608,0,0,0,.209-2.01,21.161,21.161,0,0,1-2.991-7.044,1.608,1.608,0,0,0-1.608-1.27H7.067V48.537h14.7a13.252,13.252,0,0,0,26.311,0H62.793ZM25.047,48.537h19.8a10.035,10.035,0,0,1-19.813,0ZM66.508,45.32H3.384V39.547l3.1-1.335a1.605,1.605,0,0,0,.981-1.48V33.516A27.338,27.338,0,0,1,24.71,8.025v23.69a1.609,1.609,0,0,0,1.608,1.608h17.24a1.609,1.609,0,0,0,1.609-1.608V8.025A27.34,27.34,0,0,1,62.423,33.548v3.217a1.605,1.605,0,0,0,.981,1.479l3.1,1.335V45.32Zm0,0" transform="translate(-0.184)" fill="#c6aa76"/>
    </g>
  </g>
</svg>
