<svg xmlns="http://www.w3.org/2000/svg" width="64.037" height="76.845" viewBox="0 0 64.037 76.845">
  <g id="ico5" transform="translate(-56 -16)">
    <path id="Path_124302" data-name="Path 124302" d="M119.662,35.586,100.451,16.375A1.281,1.281,0,0,0,99.545,16H76.492a1.281,1.281,0,0,0-.906.375L56.375,35.586a1.281,1.281,0,0,0-.375.906V59.545a1.281,1.281,0,0,0,.375.906L75.586,79.662a1.281,1.281,0,0,0,.906.375h3.842V83.88a1.281,1.281,0,0,0,1.281,1.281h2.561v6.4a1.281,1.281,0,0,0,1.281,1.281H90.58a1.281,1.281,0,0,0,1.281-1.281v-6.4h2.562A1.281,1.281,0,0,0,95.7,83.88V80.037h3.842a1.281,1.281,0,0,0,.906-.375l19.211-19.211a1.281,1.281,0,0,0,.375-.906V36.492a1.281,1.281,0,0,0-.375-.906ZM89.3,90.283H86.738V85.16H89.3ZM93.142,82.6H82.9V80.037H93.142Zm24.334-23.584L99.015,77.476H77.022L58.561,59.015V37.022L77.022,18.561H99.015l18.461,18.461Z" fill="#c6aa76"/>
    <path id="Path_124303" data-name="Path 124303" d="M139.842,178.562a1.282,1.282,0,0,1,1.281,1.281,1.281,1.281,0,0,0,2.561,0,3.842,3.842,0,1,0-3.842,3.842,1.281,1.281,0,1,1-1.281,1.281,1.281,1.281,0,1,0-2.561,0,3.842,3.842,0,1,0,3.842-3.842,1.281,1.281,0,1,1,0-2.561Z" transform="translate(-67.193 -134.385)" fill="#c6aa76"/>
    <path id="Path_124304" data-name="Path 124304" d="M206.4,176h-5.123a1.281,1.281,0,0,0,0,2.561h1.281v8.965a1.281,1.281,0,1,0,2.561,0v-8.965H206.4a1.281,1.281,0,1,0,0-2.561Z" transform="translate(-120.947 -134.385)" fill="#c6aa76"/>
    <path id="Path_124305" data-name="Path 124305" d="M267.842,176A3.847,3.847,0,0,0,264,179.842v5.123a3.842,3.842,0,1,0,7.684,0v-5.123A3.847,3.847,0,0,0,267.842,176Zm1.281,8.965a1.281,1.281,0,0,1-2.562,0v-5.123a1.281,1.281,0,0,1,2.562,0Z" transform="translate(-174.701 -134.385)" fill="#c6aa76"/>
    <path id="Path_124306" data-name="Path 124306" d="M329.281,188.807a1.281,1.281,0,0,0,1.281-1.281v-3.842h1.281a3.842,3.842,0,0,0,0-7.684h-2.561A1.281,1.281,0,0,0,328,177.281v10.246A1.281,1.281,0,0,0,329.281,188.807Zm1.281-10.246h1.281a1.281,1.281,0,0,1,0,2.561h-1.281Z" transform="translate(-228.455 -134.385)" fill="#c6aa76"/>
    <path id="Path_124307" data-name="Path 124307" d="M123.861,101.791H105.93a1.281,1.281,0,0,1-.906-.375l-16.65-16.65A1.281,1.281,0,0,1,88,83.861V65.93a1.281,1.281,0,0,1,.375-.906l16.65-16.65A1.281,1.281,0,0,1,105.93,48h17.93a1.281,1.281,0,0,1,.906.375l16.65,16.65a1.281,1.281,0,0,1,.375.906v17.93a1.281,1.281,0,0,1-.375.906l-16.65,16.65A1.281,1.281,0,0,1,123.861,101.791Zm-17.4-2.561h16.87l15.9-15.9V66.461l-15.9-15.9h-16.87l-15.9,15.9V83.33Zm34.05-15.369Z" transform="translate(-26.877 -26.877)" fill="#c6aa76"/>
  </g>
</svg>
