<svg xmlns="http://www.w3.org/2000/svg" width="84.077" height="78" viewBox="0 0 84.077 78">
  <g id="ico6" transform="translate(0 -18.533)">
    <g id="Group_56612" data-name="Group 56612" transform="translate(0 18.533)">
      <path id="Path_124308" data-name="Path 124308" d="M1.232,68.61a1.23,1.23,0,0,0,1.23-1.23V60.986A22.735,22.735,0,0,1,5.536,49.565a23,23,0,0,1,8.084-8.17,1.23,1.23,0,1,0-1.259-2.112,25.464,25.464,0,0,0-8.95,9.046A25.2,25.2,0,0,0,0,60.986v6.395a1.23,1.23,0,0,0,1.23,1.229Z" transform="translate(-0.002 -35.736)" fill="#c6aa76"/>
      <path id="Path_124309" data-name="Path 124309" d="M257.855,200.014a1.23,1.23,0,0,0-1.23,1.23v4.471a6.082,6.082,0,0,0,4.117,5.757l2.683.916a1.23,1.23,0,0,0,.795-2.327l-2.683-.916a3.623,3.623,0,0,1-2.453-3.429v-4.471A1.23,1.23,0,0,0,257.855,200.014Z" transform="translate(-214.551 -170.26)" fill="#c6aa76"/>
      <path id="Path_124310" data-name="Path 124310" d="M103.239,96.255a1.225,1.225,0,0,0,.743-.251,10.821,10.821,0,0,1,10.436-1.488,1.23,1.23,0,0,0,.883-2.3,13.28,13.28,0,0,0-12.807,1.825,1.23,1.23,0,0,0,.745,2.209Z" transform="translate(-85.284 -79.4)" fill="#c6aa76"/>
      <path id="Path_124311" data-name="Path 124311" d="M76.51,132.6a1.23,1.23,0,1,0-2.176-1.147,13.323,13.323,0,0,0-1.53,6.187v6.395a13.194,13.194,0,0,0,2.629,7.934,1.23,1.23,0,0,0,1.973-1.469,10.752,10.752,0,0,1-2.142-6.466v-6.395A10.707,10.707,0,0,1,76.51,132.6Z" transform="translate(-60.868 -112.395)" fill="#c6aa76"/>
      <path id="Path_124312" data-name="Path 124312" d="M190.729,151.853a1.23,1.23,0,0,0-1.371,1.07,20.587,20.587,0,0,1-34.688,12.325,24.959,24.959,0,0,0,3.817-1.532.27.27,0,0,1,.173-.028l3.417.708a1.23,1.23,0,0,0,.5-2.408l-3.417-.708a2.737,2.737,0,0,0-1.776.238,22.64,22.64,0,0,1-4.565,1.7,20.672,20.672,0,0,1-2.07-3.136,19.212,19.212,0,0,0,8.068-3.573,1.933,1.933,0,0,1,1.649-.326l7.549,1.9a1.23,1.23,0,1,0,.6-2.385l-7.548-1.9a4.38,4.38,0,0,0-3.735.75,16.754,16.754,0,0,1-7.644,3.22,20.4,20.4,0,0,1-.984-3.409,13.328,13.328,0,0,0,11.805-13.227v-6.395a13.291,13.291,0,0,0-.342-3,20.445,20.445,0,0,1,3.262-1.21,17.177,17.177,0,0,1,.589,4.46v.041a1.23,1.23,0,0,0,2.459,0v-.041a19.634,19.634,0,0,0-.64-4.973,20.673,20.673,0,0,1,3.078-.23q.265,0,.528.007a22.833,22.833,0,0,1,.543,4.947v6.395a1.23,1.23,0,1,0,2.459,0v-6.395a25.277,25.277,0,0,0-.447-4.723,20.59,20.59,0,0,1,17.373,17.958,1.23,1.23,0,0,0,2.443-.286,23.054,23.054,0,1,0-.017,5.534,1.23,1.23,0,0,0-1.07-1.371ZM158.051,134.74v6.395a10.868,10.868,0,0,1-9.676,10.789q-.057-.763-.057-1.54,0-1.015.1-2.006a7.339,7.339,0,0,0,6.126-7.244v-5.489a20.744,20.744,0,0,1,3.364-2.663A10.828,10.828,0,0,1,158.051,134.74Zm-9.2,10.995a20.511,20.511,0,0,1,3.236-7.209v2.608A4.883,4.883,0,0,1,148.847,145.735Z" transform="translate(-121.945 -109.49)" fill="#c6aa76"/>
      <path id="Path_124313" data-name="Path 124313" d="M82.715,88.584,70.232,76.1A28.617,28.617,0,0,0,46.971,30.8H46.9A25.242,25.242,0,0,0,17.6,19.718a1.23,1.23,0,0,0,.746,2.343,22.776,22.776,0,0,1,25.717,8.881,28.473,28.473,0,0,0-3.947.684A19.237,19.237,0,0,0,5.968,43.784v10.2a3.623,3.623,0,0,1-2.453,3.429l-2.683.916a1.23,1.23,0,1,0,.794,2.327l2.683-.916a6.082,6.082,0,0,0,4.118-5.757v-10.2A16.754,16.754,0,0,1,37.533,32.4a28.631,28.631,0,0,0-8.758,4.941A7.347,7.347,0,0,0,17.9,43.784v1.75a1.23,1.23,0,1,0,2.459,0v-1.75a4.892,4.892,0,0,1,6.421-4.642A28.7,28.7,0,0,0,19.935,50a1.229,1.229,0,0,0-1.967,1.135,7.358,7.358,0,0,0,.919,2.707,28.721,28.721,0,0,0,.171,11.973,16.754,16.754,0,0,1-3.77-2.091,5.05,5.05,0,0,0-4.121-.87L2.9,64.738a1.23,1.23,0,0,0,.546,2.4l8.265-1.883a2.593,2.593,0,0,1,2.115.451,19.156,19.156,0,0,0,6.052,3,28.469,28.469,0,0,0,1.712,3.973A22.485,22.485,0,0,1,15.1,70.579a2.726,2.726,0,0,0-1.91-.205L8.425,71.62A1.23,1.23,0,0,0,9.047,74l4.765-1.246a.271.271,0,0,1,.188.026,24.962,24.962,0,0,0,9.18,2.561,28.822,28.822,0,0,0,2.846,3.586c-.258.007-.517.011-.775.011a28.58,28.58,0,0,1-9.908-1.761,1.23,1.23,0,0,0-.85,2.308A31.034,31.034,0,0,0,25.251,81.4a31.529,31.529,0,0,0,3.185-.165,28.769,28.769,0,0,0,4.08,2.9,34.919,34.919,0,0,1-15.907-.32,1.23,1.23,0,0,0-1.725,1.333l0,.021a1.23,1.23,0,0,0,.9.973,37.2,37.2,0,0,0,18.931,0,1.229,1.229,0,0,0,.712-.513,28.583,28.583,0,0,0,28.217-2.938l1.64,1.64a1.23,1.23,0,1,0,1.739-1.739l-1.432-1.432A28.884,28.884,0,0,0,68.7,78.049L80.975,90.323a2.2,2.2,0,0,1-3.109,3.109L70.73,86.3a1.23,1.23,0,0,0-1.739,1.739l7.137,7.137a4.658,4.658,0,0,0,6.587-6.587ZM46.971,85.6A26.173,26.173,0,1,1,73.144,59.427,26.2,26.2,0,0,1,46.971,85.6Z" transform="translate(0 -18.533)" fill="#c6aa76"/>
    </g>
  </g>
</svg>
