<svg xmlns="http://www.w3.org/2000/svg" width="56.649" height="56.649" viewBox="0 0 56.649 56.649">
  <g id="trainingImg5" transform="translate(-1 -1)">
    <path id="Path_124320" data-name="Path 124320" d="M14.843,45.719H7.875C3.967,45.719,2,43.752,2,39.845V7.875C2,3.967,3.967,2,7.875,2h11.75C23.532,2,25.5,3.967,25.5,7.875V12.93" transform="translate(0 0)" fill="none" stroke="#c6aa76" stroke-linecap="round" stroke-linejoin="round" stroke-miterlimit="10" stroke-width="2"/>
    <path id="Path_124321" data-name="Path 124321" d="M35.855,12.612V43.107c0,4.4-2.186,6.613-6.585,6.613H13.312c-4.4,0-6.612-2.213-6.612-6.613V12.612C6.7,8.213,8.913,6,13.312,6H29.27C33.669,6,35.855,8.213,35.855,12.612Z" transform="translate(8.142 6.93)" fill="none" stroke="#c6aa76" stroke-linecap="round" stroke-linejoin="round" stroke-miterlimit="10" stroke-width="2"/>
    <path id="Path_124322" data-name="Path 124322" d="M13.4,12.93V7.875C13.4,3.967,15.367,2,19.275,2h11.75C34.932,2,36.9,3.967,36.9,7.875v31.97c0,3.907-1.967,5.875-5.875,5.875H24.248" transform="translate(19.75 0)" fill="none" stroke="#c6aa76" stroke-linecap="round" stroke-linejoin="round" stroke-miterlimit="10" stroke-width="2"/>
    <path id="Path_124323" data-name="Path 124323" d="M10,11H20.93" transform="translate(13.86 15.592)" fill="none" stroke="#c6aa76" stroke-linecap="round" stroke-linejoin="round" stroke-miterlimit="10" stroke-width="2"/>
    <path id="Path_124324" data-name="Path 124324" d="M10,14H20.93" transform="translate(13.86 20.79)" fill="none" stroke="#c6aa76" stroke-linecap="round" stroke-linejoin="round" stroke-miterlimit="10" stroke-width="2"/>
    <path id="Path_124325" data-name="Path 124325" d="M12,27.2V19" transform="translate(17.325 29.452)" fill="none" stroke="#c6aa76" stroke-linecap="round" stroke-linejoin="round" stroke-miterlimit="10" stroke-width="2"/>
  </g>
</svg>
