<svg xmlns="http://www.w3.org/2000/svg" width="58.156" height="59.203" viewBox="0 0 58.156 59.203">
  <g id="trainingImg1" transform="translate(-2.345 -2)">
    <g id="Path_124314" data-name="Path 124314" transform="translate(4.405)" fill="none">
      <path d="M18.307,28.508a5.432,5.432,0,0,0-.986,0,13.284,13.284,0,1,1,.986,0Z" stroke="none"/>
      <path d="M 17.27908134460449 26.50535202026367 C 17.63697242736816 26.4797477722168 18.01395797729492 26.4796142578125 18.35477828979492 26.50511932373047 C 21.23252296447754 26.37954902648926 23.91558265686035 25.17249870300293 25.92137718200684 23.09845733642578 C 27.95676803588867 20.99380493164062 29.0849666595459 18.21209526062012 29.09847640991211 15.26553535461426 C 29.09662437438965 9.053267478942871 24.04196929931641 3.999997615814209 17.82920837402344 3.999997615814209 C 14.81166744232178 3.999997615814209 11.97900772094727 5.172657489776611 9.853017807006836 7.301957607269287 C 7.729517459869385 9.428757667541504 6.560057640075684 12.25822734832764 6.560057640075684 15.2691478729248 C 6.560057640075684 18.21346855163574 7.679487705230713 20.99438667297363 9.712137222290039 23.09962844848633 C 11.71514320373535 25.17418098449707 14.39853191375732 26.38102340698242 17.27908134460449 26.50535202026367 M 18.30737686157227 28.5084171295166 C 18.00852012634277 28.47853088378906 17.64989852905273 28.47853088378906 17.32115745544434 28.5084171295166 C 10.20841789245605 28.26932716369629 4.560057640075684 22.4416675567627 4.560057640075684 15.2691478729248 C 4.560057640075684 7.947207450866699 10.47738742828369 1.999997615814209 17.82920837402344 1.999997615814209 C 25.15126800537109 1.999997615814209 31.09847831726074 7.947207450866699 31.09847831726074 15.2691478729248 C 31.0685977935791 22.4416675567627 25.42023658752441 28.26932716369629 18.30737686157227 28.5084171295166 Z" stroke="none" fill="#c6aa76"/>
    </g>
    <path id="Path_124315" data-name="Path 124315" d="M16.669,4a10.464,10.464,0,0,1,.389,20.92,3.376,3.376,0,0,0-.777,0" transform="translate(27.71 3.977)" fill="none" stroke="#c6aa76" stroke-width="2"/>
    <g id="Path_124316" data-name="Path 124316" transform="translate(0 22.247)" fill="none">
      <path d="M7.769,17.289C.537,22.131.537,30.02,7.769,34.832c8.219,5.5,21.7,5.5,29.915,0,7.232-4.841,7.232-12.731,0-17.543C29.5,11.82,16.018,11.82,7.769,17.289Z" stroke="none"/>
      <path d="M 22.74932670593262 15.18749618530273 C 20.17004585266113 15.18749618530273 17.66015625 15.50957870483398 15.28934669494629 16.14479827880859 C 12.86905288696289 16.79328155517578 10.7117805480957 17.73849105834961 8.877628326416016 18.95402526855469 C 5.950992584228516 20.91459655761719 4.341209411621094 23.44558525085449 4.344974517822266 26.08100700378418 C 4.348724365234375 28.70858764648438 5.958225250244141 31.22507667541504 8.876987457275391 33.16688537597656 L 8.881366729736328 33.16980743408203 C 10.70805740356445 34.39202880859375 12.8594856262207 35.34230804443359 15.27588653564453 35.99423980712891 C 17.64191627502441 36.63257598876953 20.14880561828613 36.95624542236328 22.72690582275391 36.95624542236328 C 25.30500602722168 36.95624542236328 27.81188583374023 36.63257598876953 30.17792510986328 35.99423980712891 C 32.59431457519531 35.34230804443359 34.74574661254883 34.39202880859375 36.57205581665039 33.17005920410156 C 39.50141525268555 31.20909690856934 41.11260604858398 28.67703819274902 41.10883712768555 26.04032707214355 C 41.10507583618164 23.41274642944336 39.49557495117188 20.8962574005127 36.57382583618164 18.95244598388672 C 34.7546272277832 17.7374382019043 32.60904693603516 16.79267883300781 30.1966667175293 16.14441680908203 C 27.8337459564209 15.50945663452148 25.32809638977051 15.18749618530273 22.74932670593262 15.18749618530273 M 22.74932289123535 13.1875 C 28.17355918884277 13.1875 33.5903205871582 14.55476379394531 37.68462371826172 17.28928756713867 C 44.91691589355469 22.10083770751953 44.91691589355469 29.99060821533203 37.68462371826172 34.83204650878906 C 29.46612548828125 40.33097839355469 15.9876823425293 40.33097839355469 7.769176483154297 34.83204650878906 C 0.536895751953125 30.0204963684082 0.536895751953125 22.13072776794434 7.769176483154297 17.28928756713867 C 11.89337539672852 14.55476379394531 17.32508659362793 13.1875 22.74932289123535 13.1875 Z" stroke="none" fill="#c6aa76"/>
    </g>
    <path id="Path_124317" data-name="Path 124317" d="M18.34,31.931a14.456,14.456,0,0,0,5.858-2.6c4.662-3.5,4.662-9.264,0-12.761A14.863,14.863,0,0,0,18.43,14" transform="translate(31.807 23.863)" fill="none" stroke="#c6aa76" stroke-width="2"/>
  </g>
</svg>
