<svg xmlns="http://www.w3.org/2000/svg" width="100" height="100" viewBox="0 0 100 100">
  <g id="aboutIconGreen2" transform="translate(-1394.141 -1267.141)">
    <circle id="Ellipse_11716" data-name="Ellipse 11716" cx="50" cy="50" r="50" transform="translate(1394.141 1267.141)" fill="#005f61"/>
    <g id="icon" transform="translate(1402.022 1275.022)">
      <g id="spacer" transform="translate(0.118 0.118)" fill="rgba(255,255,255,0)" stroke="rgba(0,0,0,0)" stroke-width="1">
        <rect width="84" height="84" stroke="none"/>
        <rect x="0.5" y="0.5" width="83" height="83" fill="none"/>
      </g>
      <g id="Group_57070" data-name="Group 57070" transform="translate(5804.04 16342.321)">
        <path id="KSA_outline" data-name="KSA outline" d="M-5813.583-16318.1a43.519,43.519,0,0,0-5.668,1.414,54.633,54.633,0,0,0-5.788,2.357l4.016,4.959a18.65,18.65,0,0,0-3.419,2.359,4.853,4.853,0,0,0-1.416,2.359l-2.948-1.182-2.594,5.2a32.913,32.913,0,0,1,6.377,6.85,18.877,18.877,0,0,1,2.594,7.438,12.116,12.116,0,0,1,5.077,4.607c1.713,3.1-.118,4.576,1.769,7.793s4.015,2.539,5.788,5.078a7.258,7.258,0,0,1,1.3,5.078,7.948,7.948,0,0,1,3.656,2.475,17.521,17.521,0,0,1,2.477,5.074l2.357-4.592a8.133,8.133,0,0,1,5.552-1.416c3.012.469,6.494,3.3,6.494,3.3s1.123-4.193,3.9-5.787,3.9.473,7.2-.588,13.816-5.67,13.816-5.67a7.593,7.593,0,0,1-.471-3.891c.265-2.4,2.947-3.539,1.532-5.67s-4.458.738-7.2-.707-1.86-2.83-3.779-5.082-2.71-1.5-3.9-3.9a11.983,11.983,0,0,1-.826-5.666,5.449,5.449,0,0,1-3.42-2.24c-1.21-1.887-.5-4.086-1.621-4.926s-3.221.318-6.646-1.57-5.67-.707-5.67-.707a26.544,26.544,0,0,0-7.323-6.965A88.035,88.035,0,0,0-5813.583-16318.1Z" transform="translate(34.566 -13.031)" fill="none" stroke="#fff" stroke-linejoin="round" stroke-width="3"/>
        <g id="Group_57070-2" data-name="Group 57070" transform="translate(-5773.882 -16312.743)">
          <path id="Union_18" data-name="Union 18" d="M11.343,27.147a2.3,2.3,0,0,1,.523-1.48,13.5,13.5,0,0,0-1.009-1.339l-.03-.033c-.247-.312-.523-.629-.842-.969-.318.34-.594.662-.841.969l-.026.029A14.247,14.247,0,0,0,8.1,25.667a2.306,2.306,0,0,1,.523,1.48.745.745,0,0,1-.759.7c-.048,0-.093-.007-.142-.011a1.334,1.334,0,0,1-.916-.711c-.056-.085-.116-.176-.191-.27a3.694,3.694,0,0,1-2.292.974,1.775,1.775,0,0,1-1.683-1.078,1.236,1.236,0,0,1,.251-1.6,1.054,1.054,0,0,1,.591-.169,2.563,2.563,0,0,1,.8.18,2.538,2.538,0,0,0,.524.149,5.693,5.693,0,0,0,.595.04h.06a2.221,2.221,0,0,1-.371-.807.775.775,0,0,1,.157-.612.588.588,0,0,1,.463-.2.206.206,0,0,1,.049,0,1.772,1.772,0,0,1,1.047.587c.632-.786,1.279-1.536,1.927-2.236a22.965,22.965,0,0,0-2.177-1.747A26.683,26.683,0,0,0,.6,17.166,2,2,0,0,1,.244,17L0,16.84l.209-.193a1.872,1.872,0,0,1,.838-.381A3.792,3.792,0,0,1,1.8,16.19a5.518,5.518,0,0,1,1.354.183,9.608,9.608,0,0,1,2.33.916c.408.229.8.469,1.163.711a22.148,22.148,0,0,1,3.335,2.79A22.174,22.174,0,0,1,13.321,18c.359-.238.752-.482,1.163-.711a9.616,9.616,0,0,1,2.33-.916,5.521,5.521,0,0,1,1.354-.183,3.789,3.789,0,0,1,.755.075,1.841,1.841,0,0,1,.838.381l.209.193L19.728,17a2,2,0,0,1-.351.168,26.7,26.7,0,0,0-5.969,3.179,23.526,23.526,0,0,0-2.177,1.747c.647.7,1.294,1.45,1.926,2.236a1.774,1.774,0,0,1,1.047-.587.238.238,0,0,1,.053,0,.6.6,0,0,1,.46.2.776.776,0,0,1,.157.609,2.237,2.237,0,0,1-.371.807h.06c.269,0,.594-.04.6-.04a2.668,2.668,0,0,0,.523-.149,2.57,2.57,0,0,1,.8-.18,1.054,1.054,0,0,1,.591.169,1.236,1.236,0,0,1,.251,1.6,1.774,1.774,0,0,1-1.683,1.078,3.7,3.7,0,0,1-2.292-.974,2.588,2.588,0,0,0-.187.27,1.341,1.341,0,0,1-.92.711c-.049,0-.094.011-.142.011A.745.745,0,0,1,11.343,27.147ZM9.036,18.538V9a10.107,10.107,0,0,0-2.21,2.1l-.3.392-.1-.482A8.64,8.64,0,0,1,6.616,7.42,8.708,8.708,0,0,0,4.331,8.887l-.385.362.011-.531a4.7,4.7,0,0,1,1.279-3,1.76,1.76,0,0,0-.5-.075A2.289,2.289,0,0,0,3.43,6.09l-.539.437.187-.67A3.118,3.118,0,0,1,5.124,3.733a5.06,5.06,0,0,1,1.082-.271,1.981,1.981,0,0,0-1.074-.3,2.382,2.382,0,0,0-.927.188l-.558.262.262-.561a3.08,3.08,0,0,1,3-1.64,5.872,5.872,0,0,1,.83.062A3.417,3.417,0,0,0,6.418.441L5.333.071,6.478.007C6.594,0,6.709,0,6.822,0A3.949,3.949,0,0,1,9.985,1.278,3.961,3.961,0,0,1,13.153,0c.112,0,.228,0,.344.007l1.17.068L13.554.441a3.41,3.41,0,0,0-1.316,1.029,5.918,5.918,0,0,1,.833-.062,3.082,3.082,0,0,1,3,1.64l.262.563-.562-.265a2.353,2.353,0,0,0-.923-.187,1.96,1.96,0,0,0-1.073.3,5.075,5.075,0,0,1,1.077.271A3.13,3.13,0,0,1,16.9,5.856l.183.67-.539-.437a2.313,2.313,0,0,0-1.3-.446,1.766,1.766,0,0,0-.5.075,4.677,4.677,0,0,1,1.279,3l.011.531-.385-.362A8.7,8.7,0,0,0,13.355,7.42a8.565,8.565,0,0,1,.187,3.587l-.1.482-.3-.392A10.081,10.081,0,0,0,10.936,9v9.543Z" fill="#fff"/>
        </g>
      </g>
    </g>
  </g>
</svg>
