<svg xmlns="http://www.w3.org/2000/svg" width="64.892" height="41.484" viewBox="0 0 64.892 41.484">
  <g id="aimIcon4" transform="translate(-5.405 -24.723)">
    <g id="Group_55944" data-name="Group 55944" transform="translate(5.405 24.723)">
      <g id="Group_55943" data-name="Group 55943" transform="translate(0 0)">
        <path id="Subtraction_1" data-name="Subtraction 1" d="M28.22,41.484a3.514,3.514,0,0,1-3.511-3.325,3.651,3.651,0,0,1-.393.021,3.52,3.52,0,0,1-3.506-3.326,3.647,3.647,0,0,1-.393.022,3.518,3.518,0,0,1-3.5-3.326,3.6,3.6,0,0,1-.385.021,3.52,3.52,0,0,1-2.978-5.394l-.715-.5L8.674,23.049a1.97,1.97,0,0,1-1.995.326L0,21.114l.6-1.958c1.464.459,3.829,1.253,6.79,2.422l.015,0a.042.042,0,0,0,.038-.026l4.087-10.361L11.6,11l2.444-6.195a.04.04,0,0,0-.022-.052L5.963,1.611,6.456,0l8.28,2.955A1.975,1.975,0,0,1,15.92,5.284l1.7.713a4.514,4.514,0,0,0,1.731.347c.094,0,.189,0,.283-.009.251-.016.438-.023.647-.023.492,0,1.145.037,2.72.128l1.678.1a13.783,13.783,0,0,1,3.838.775c.355-.343.709-.692,1.081-1.068a4.876,4.876,0,0,1,4.224-1.383l3.668.582a.966.966,0,1,1-.3,1.909l-3.669-.582a2.938,2.938,0,0,0-2.546.833,56.679,56.679,0,0,1-9.149,7.619.619.619,0,0,0-.3.46.556.556,0,0,0,.171.457,3.541,3.541,0,0,0,2.51,1.016c1.695,0,3.815-1.1,6.131-3.179a2.206,2.206,0,0,1,1.476-.571,2.16,2.16,0,0,1,1.574.675,11.273,11.273,0,0,0,8.263,3.667,11.778,11.778,0,0,0,1.966-.168,1.116,1.116,0,0,1,.189-.017.946.946,0,0,1,.571.187l7.993,5.9.071.052,4.147-2.663c-.213-.539-2.4-6.091-4-10.145l-1.5-3.8L48.246,8.143a7.423,7.423,0,0,1-3.725.368l-2.849-.452a.966.966,0,0,1,.151-1.921.977.977,0,0,1,.151.012l2.849.452a5.5,5.5,0,0,0,.854.067,5.467,5.467,0,0,0,1.9-.338L50.4,5.29a1.973,1.973,0,0,1,1.184-2.335L58.925.074l.708,1.8L52.288,4.754a.034.034,0,0,0-.021.021.035.035,0,0,0,0,.031l3.35,8.492.134.339,3.123,7.916a.039.039,0,0,0,.037.025.044.044,0,0,0,.016,0L64.183,19.5l.709,1.8-5.258,2.074A1.972,1.972,0,0,1,57.4,22.81l-3.763,2.416a3.79,3.79,0,0,1-.262,3.67,3.841,3.841,0,0,1-3.224,1.777,3.893,3.893,0,0,1-1-.133A3.853,3.853,0,0,1,45.3,34.162a4.059,4.059,0,0,1-.749-.071,3.818,3.818,0,0,1-3.849,3.791,3.983,3.983,0,0,1-1.364-.243,3.808,3.808,0,0,1-1.307,2.507,3.91,3.91,0,0,1-4.885.154l-1.408-1.038-.835.98A3.513,3.513,0,0,1,28.22,41.484Zm2.391-7.912a1.586,1.586,0,0,0-1.211.561l-2.391,2.805a1.588,1.588,0,0,0,2.424,2.053c.942-1.107,2-2.353,2.391-2.805l.006-.008.006-.008a1.588,1.588,0,0,0-1.224-2.6Zm.008-1.933h0a3.521,3.521,0,0,1,2.677,5.8l-.3.35,1.3.959a2.033,2.033,0,0,0,1.214.4,1.893,1.893,0,0,0,1.384-.582,1.925,1.925,0,0,0,.239-2.359l-2.053-1.589a.966.966,0,0,1,1.183-1.528l1.051.814.04.031c1.086.842,1.086.842,1.695,1.289l.024.018.421.31a2.024,2.024,0,0,0,1.211.4,1.911,1.911,0,0,0,1.519-3.091l-2.962-2.281a.967.967,0,0,1,.59-1.732.957.957,0,0,1,.589.2l1.715,1.32.014.011c1.35,1.039,1.35,1.039,1.7,1.3l.216.159a2.057,2.057,0,0,0,1.212.4,1.9,1.9,0,0,0,1.352-.547,1.937,1.937,0,0,0,.175-2.533l-3.34-2.574a.966.966,0,1,1,1.179-1.531l1.7,1.311.074.057c1.681,1.3,1.681,1.3,2.185,1.667l.366.27a1.922,1.922,0,0,0,2.669-.366,1.871,1.871,0,0,0,.376-1.418,2.053,2.053,0,0,0-.81-1.367l-4.132-3.05L47.03,22.1c-3.156-2.33-3.156-2.33-3.374-2.481l-.114-.08a13.3,13.3,0,0,1-1.842.13,13.386,13.386,0,0,1-9.7-4.259.245.245,0,0,0-.179-.075.277.277,0,0,0-.185.072c-2.713,2.437-5.215,3.673-7.435,3.673a5.483,5.483,0,0,1-3.826-1.548,2.477,2.477,0,0,1-.763-2.042,2.507,2.507,0,0,1,1.148-1.883,48.2,48.2,0,0,0,6.14-4.785,11.893,11.893,0,0,0-2.321-.362l-1.717-.1h-.022c-1.542-.088-2.118-.122-2.544-.122-.2,0-.354.007-.529.019-.134.009-.271.013-.407.013a6.482,6.482,0,0,1-2.477-.5l-1.652-.691L12.12,14.96l-.011.029L9.6,21.349l4.289,2.705c.013.008.028.017.04.027l.851.6,1.457-1.709a3.52,3.52,0,0,1,6.2,2.085,3.6,3.6,0,0,1,.383-.021,3.525,3.525,0,0,1,2.668,1.222l0,.005,0,.005a3.487,3.487,0,0,1,.831,2c0,.015,0,.031,0,.046s0,.032,0,.046l.047,0,.047,0c.1-.008.2-.012.293-.012a3.473,3.473,0,0,1,2.273.836,3.537,3.537,0,0,1,1.236,2.49A3.637,3.637,0,0,1,30.619,31.64Zm-3.9-1.369a1.587,1.587,0,0,0-1.212.559l-2.391,2.806a1.587,1.587,0,0,0,.186,2.237,1.587,1.587,0,0,0,2.239-.185l2.388-2.8a1.586,1.586,0,0,0-1.209-2.615Zm-3.894-3.3a1.59,1.59,0,0,0-1.216.559l-2.39,2.805a1.588,1.588,0,0,0,2.423,2.053l2.39-2.8a1.588,1.588,0,0,0-.054-2.114l-.008-.008-.006-.006A1.571,1.571,0,0,0,22.821,26.967Zm-3.9-3.3a1.588,1.588,0,0,0-1.216.559l-2.391,2.805a1.588,1.588,0,0,0,2.424,2.053l2.389-2.8a1.586,1.586,0,0,0-1.206-2.614Z" transform="translate(0 0)" fill="#c6aa76"/>
      </g>
    </g>
  </g>
</svg>
