<svg xmlns="http://www.w3.org/2000/svg" width="48.558" height="57.896" viewBox="0 0 48.558 57.896">
  <g id="aimIcon1" transform="translate(-6 -1)">
    <path id="Path_124621" data-name="Path 124621" d="M30.279,1A24.307,24.307,0,0,0,6,25.279a24.03,24.03,0,0,0,4.731,14.381l1.5-1.109A22.149,22.149,0,0,1,7.9,26.213h9.021A41.153,41.153,0,0,0,18.491,36.87l1.791-.529a39.27,39.27,0,0,1-1.489-10.129H29.345v8.4h1.868v-8.4H41.764A39.269,39.269,0,0,1,40.27,36.341l1.791.529a41.154,41.154,0,0,0,1.571-10.657h9.025a22.149,22.149,0,0,1-4.328,12.341l1.5,1.106a24.03,24.03,0,0,0,4.731-14.381A24.307,24.307,0,0,0,30.279,1ZM16.91,24.345H7.891a22.28,22.28,0,0,1,3.885-11.694,39.648,39.648,0,0,0,6.5,1.738,41.512,41.512,0,0,0-1.364,9.956ZM12.945,11.091A22.476,22.476,0,0,1,23.972,3.777a21.43,21.43,0,0,0-5.161,8.813,39.37,39.37,0,0,1-5.866-1.5Zm16.4,13.254H18.777A39.615,39.615,0,0,1,20.132,14.7a67.234,67.234,0,0,0,9.213.718Zm0-10.8A65.756,65.756,0,0,1,20.69,12.9c1.9-5.565,5.046-9.381,8.655-9.948Zm1.868-10.6c3.61.567,6.755,4.389,8.657,9.95a66.749,66.749,0,0,1-8.657.654Zm0,21.4V15.418a68.307,68.307,0,0,0,9.214-.715,39.643,39.643,0,0,1,1.354,9.642ZM41.747,12.589a21.432,21.432,0,0,0-5.161-8.812,22.467,22.467,0,0,1,11.025,7.308,38.551,38.551,0,0,1-5.864,1.5Zm1.9,11.756a41.48,41.48,0,0,0-1.365-9.958,39.033,39.033,0,0,0,6.5-1.737,22.273,22.273,0,0,1,3.886,11.695Z" fill="#c6aa76"/>
    <path id="Path_124622" data-name="Path 124622" d="M47.087,59.542h6.537a.934.934,0,0,0,.934-.934V53.379a3.175,3.175,0,0,0-2.486-3.095,3.268,3.268,0,1,0-4.366,0,3.146,3.146,0,0,0-1.271.616,3.728,3.728,0,0,0-2.569-1.578,3.735,3.735,0,1,0-4.762,0,3.7,3.7,0,0,0-1.544.571,4.663,4.663,0,0,0-4.479-3.424h-.192a4.2,4.2,0,1,0-5.218,0h-.192A4.663,4.663,0,0,0,23,49.893a3.7,3.7,0,0,0-1.544-.571,3.735,3.735,0,1,0-4.762,0A3.728,3.728,0,0,0,14.12,50.9a3.146,3.146,0,0,0-1.271-.616,3.268,3.268,0,1,0-4.366,0A3.175,3.175,0,0,0,6,53.379v5.229a.934.934,0,0,0,.934.934H13.47a.934.934,0,0,0,.934.934h8.4a.934.934,0,0,0,.934.934H36.815a.934.934,0,0,0,.934-.934h8.4A.934.934,0,0,0,47.087,59.542Zm2.8-13.073a1.4,1.4,0,1,1-1.4,1.4,1.4,1.4,0,0,1,1.4-1.4Zm-2.8,6.91a1.307,1.307,0,0,1,1.307-1.307h2.988a1.307,1.307,0,0,1,1.307,1.307v4.3h-5.6Zm-36.418-6.91a1.4,1.4,0,1,1-1.4,1.4,1.4,1.4,0,0,1,1.4-1.4Zm2.8,11.206h-5.6v-4.3a1.307,1.307,0,0,1,1.307-1.307h2.988a1.307,1.307,0,0,1,1.307,1.307Zm5.6-13.073a1.868,1.868,0,1,1-1.868,1.868A1.868,1.868,0,0,1,19.073,44.6Zm3.735,14.007h-7.47v-5.6a1.868,1.868,0,0,1,1.868-1.868h3.735a1.868,1.868,0,0,1,1.868,1.868Zm7.47-17.742A2.334,2.334,0,1,1,27.944,43.2,2.334,2.334,0,0,1,30.279,40.866Zm5.6,18.676H24.676v-8.4a2.8,2.8,0,0,1,2.8-2.8h5.6a2.8,2.8,0,0,1,2.8,2.8Zm5.6-14.941a1.868,1.868,0,1,1-1.868,1.868A1.868,1.868,0,0,1,41.484,44.6ZM45.22,58.608h-7.47v-5.6a1.868,1.868,0,0,1,1.868-1.868h3.735a1.868,1.868,0,0,1,1.868,1.868Z" transform="translate(0 -2.514)" fill="#c6aa76"/>
  </g>
</svg>
