<svg xmlns="http://www.w3.org/2000/svg" width="227.294" height="144.933" viewBox="0 0 227.294 144.933">
  <g id="block-wm-2" transform="translate(-847.035 -895.345)" opacity="0.15">
    <path id="Path_122818" data-name="Path 122818" d="M887.284,1896.436c0,1.982-3.872,3.6-8.661,3.6s-8.679-1.614-8.679-3.6v-3.615c0-1.982,3.89-3.6,8.679-3.6s8.661,1.615,8.661,3.6Z" transform="translate(-20.439 -886.763)" fill="#fff"/>
    <path id="Path_122819" data-name="Path 122819" d="M858.183,1882.063a19.029,19.029,0,0,1-7.081-1.241c-3.539-1.467-4.067-3.65-4.067-4.821v-3.615c0-1.171.532-3.355,4.067-4.822a20.759,20.759,0,0,1,14.155,0c3.529,1.468,4.055,3.65,4.055,4.821V1876c0,1.17-.527,3.353-4.055,4.821a18.961,18.961,0,0,1-7.074,1.242Zm-6.21-6.376a5.129,5.129,0,0,0,1.733.827,15.536,15.536,0,0,0,4.477.611c3.364,0,5.6-.886,6.192-1.428v-3.014c-.6-.542-2.829-1.428-6.192-1.428a15.51,15.51,0,0,0-4.477.611,5.126,5.126,0,0,0-1.733.827Z" transform="translate(0 -866.326)" fill="#fff"/>
    <path id="Path_122820" data-name="Path 122820" d="M1077.548,2026.5c0,1.983-3.873,3.6-8.661,3.6s-8.68-1.614-8.68-3.6v-3.615c0-1.982,3.891-3.6,8.68-3.6s8.661,1.615,8.661,3.6Z" transform="translate(-190.193 -1002.803)" fill="#fff"/>
    <path id="Path_122821" data-name="Path 122821" d="M1048.441,2012.122a19.024,19.024,0,0,1-7.081-1.241c-3.538-1.467-4.067-3.651-4.067-4.822v-3.615c0-1.172.532-3.355,4.067-4.822a20.752,20.752,0,0,1,14.156,0c3.529,1.467,4.055,3.65,4.055,4.821v3.615c0,1.172-.527,3.354-4.055,4.821a18.968,18.968,0,0,1-7.074,1.243Zm-6.211-6.375a5.14,5.14,0,0,0,1.732.827,15.537,15.537,0,0,0,4.478.61c3.363,0,5.6-.886,6.192-1.428v-3.014c-.6-.542-2.829-1.429-6.192-1.429a15.529,15.529,0,0,0-4.478.612,5.125,5.125,0,0,0-1.733.826Z" transform="translate(-169.753 -982.364)" fill="#fff"/>
    <g id="Group_56241" data-name="Group 56241" transform="translate(882.674 916.262)">
      <g id="Group_56239" data-name="Group 56239" transform="translate(3.293 3.296)">
        <rect id="Rectangle_14014" data-name="Rectangle 14014" width="48.655" height="8.379" fill="#fff"/>
      </g>
      <g id="Group_56240" data-name="Group 56240">
        <path id="Path_122822" data-name="Path 122822" d="M1229.662,1104.432h-48.656a3.292,3.292,0,0,1-3.292-3.292v-8.38a3.292,3.292,0,0,1,3.292-3.291h48.656a3.292,3.292,0,0,1,3.292,3.291v8.38A3.292,3.292,0,0,1,1229.662,1104.432Zm-45.364-6.584h42.072v-1.792H1184.3Z" transform="translate(-1177.714 -1089.469)" fill="#fff"/>
      </g>
    </g>
    <g id="Group_56242" data-name="Group 56242" transform="translate(873.933 924.647)">
      <path id="Path_122823" data-name="Path 122823" d="M1158.547,1255.764h-49.277a12.635,12.635,0,0,1-12.621-12.621v-63.291a12.636,12.636,0,0,1,12.621-12.621h49.277a12.636,12.636,0,0,1,12.621,12.621v63.3A12.636,12.636,0,0,1,1158.547,1255.764Zm-49.277-81.953a6.043,6.043,0,0,0-6.036,6.037v63.3a6.044,6.044,0,0,0,6.036,6.037h49.277a6.044,6.044,0,0,0,6.036-6.037v-63.291a6.043,6.043,0,0,0-6.036-6.037Z" transform="translate(-1096.65 -1167.231)" fill="#fff"/>
    </g>
    <g id="Group_56243" data-name="Group 56243" transform="translate(1048.683 943.465)">
      <path id="Path_122824" data-name="Path 122824" d="M2765.521,1395.542h0a4.767,4.767,0,0,1-6.605-1.348l-9.526-14.414a4.765,4.765,0,0,1,1.348-6.606h0a4.767,4.767,0,0,1,6.605,1.349l9.526,14.414A4.766,4.766,0,0,1,2765.521,1395.542Z" transform="translate(-2745.303 -1369.095)" fill="#fff"/>
      <path id="Path_122825" data-name="Path 122825" d="M2735.635,1372.357a8.054,8.054,0,0,1-6.737-3.614l-9.527-14.413a8.059,8.059,0,0,1,13.447-8.888l9.526,14.414a8.061,8.061,0,0,1-2.28,11.169h0A8.014,8.014,0,0,1,2735.635,1372.357Zm2.616-4.077Zm-12.158-19.866a1.474,1.474,0,0,0-1.229,2.289l9.525,14.414a1.479,1.479,0,0,0,2.046.417h0a1.478,1.478,0,0,0,.417-2.044l-9.523-14.418a1.472,1.472,0,0,0-1.232-.656Z" transform="translate(-2718.034 -1341.826)" fill="#fff"/>
    </g>
    <g id="Group_56244" data-name="Group 56244" transform="translate(1024.985 954.651)">
      <path id="Path_122826" data-name="Path 122826" d="M2520.152,1482.392a3.289,3.289,0,0,1-2.8-1.557l-18.7-30.153a3.292,3.292,0,1,1,5.6-3.47l18.7,30.155a3.291,3.291,0,0,1-2.794,5.027Z" transform="translate(-2498.159 -1445.653)" fill="#fff"/>
    </g>
    <g id="Group_56245" data-name="Group 56245" transform="translate(969.445 958.117)">
      <path id="Path_122827" data-name="Path 122827" d="M2084.864,1531.23l-51.13,31.065a13.418,13.418,0,0,1-18.437-4.5h0a13.417,13.417,0,0,1,4.5-18.437l40.8-24.786,10.334-6.278Z" transform="translate(-2010.056 -1505.009)" fill="#fff"/>
      <path id="Path_122828" data-name="Path 122828" d="M1999.5,1540.287a16.707,16.707,0,0,1-8.7-30.986l51.13-31.065a3.292,3.292,0,0,1,4.521,1.1l13.933,22.934a3.292,3.292,0,0,1-1.1,4.521l-51.131,31.066a16.61,16.61,0,0,1-8.647,2.427Zm43.032-54.715-48.317,29.356a10.126,10.126,0,1,0,10.515,17.307l48.317-29.355Z" transform="translate(-1982.766 -1477.758)" fill="#fff"/>
    </g>
    <g id="Group_56246" data-name="Group 56246" transform="translate(952.719 1004.193)">
      <path id="Path_122829" data-name="Path 122829" d="M1879.8,1944.286l-14.182,8.616a4.947,4.947,0,0,1-6.8-1.659h0a4.946,4.946,0,0,1,1.658-6.8l14.182-8.616Z" transform="translate(-1854.816 -1932.538)" fill="#fff"/>
      <path id="Path_122830" data-name="Path 122830" d="M1835.793,1929.666a8.244,8.244,0,0,1-4.293-15.285l14.182-8.616a3.292,3.292,0,0,1,4.521,1.1l5.141,8.458a3.291,3.291,0,0,1-1.1,4.521l-14.183,8.617a8.19,8.19,0,0,1-4.265,1.2Zm10.494-16.565-11.369,6.908a1.656,1.656,0,0,0,1.72,2.83l11.369-6.908Z" transform="translate(-1827.545 -1905.286)" fill="#fff"/>
    </g>
    <g id="Group_56247" data-name="Group 56247" transform="translate(927.921 1020.277)">
      <path id="Path_122831" data-name="Path 122831" d="M1600.8,2074.557a3.293,3.293,0,0,1-1.563-6.192l24.908-13.415a3.292,3.292,0,0,1,3.121,5.8l-24.908,13.414a3.284,3.284,0,0,1-1.557.395Z" transform="translate(-1597.504 -2054.556)" fill="#fff"/>
    </g>
    <g id="Group_56248" data-name="Group 56248" transform="translate(1016.697 964.39)">
      <path id="Path_122832" data-name="Path 122832" d="M2431.1,1553.808a3.292,3.292,0,0,1-2.836-1.621l-6.614-11.22a3.292,3.292,0,0,1,5.673-3.344l6.614,11.219a3.294,3.294,0,0,1-2.836,4.964Z" transform="translate(-2421.194 -1536.003)" fill="#fff"/>
    </g>
    <g id="Group_56249" data-name="Group 56249" transform="translate(982.786 987.472)">
      <path id="Path_122833" data-name="Path 122833" d="M2114.7,1765.363a3.293,3.293,0,0,1-2.877-1.684L2107,1755.07a3.292,3.292,0,1,1,5.746-3.217l4.82,8.609a3.293,3.293,0,0,1-2.868,4.9Z" transform="translate(-2106.582 -1750.169)" fill="#fff"/>
    </g>
    <g id="Group_56250" data-name="Group 56250" transform="translate(990.796 981.58)">
      <path id="Path_122834" data-name="Path 122834" d="M2189.03,1710.683a3.29,3.29,0,0,1-2.875-1.684l-4.821-8.608a3.292,3.292,0,0,1,5.745-3.217l4.82,8.608a3.293,3.293,0,0,1-2.868,4.9Z" transform="translate(-2180.913 -1695.49)" fill="#fff"/>
    </g>
    <g id="Group_56251" data-name="Group 56251" transform="translate(999.877 976.414)">
      <path id="Path_122835" data-name="Path 122835" d="M2273.31,1662.733a3.29,3.29,0,0,1-2.875-1.684l-4.822-8.609a3.292,3.292,0,0,1,5.744-3.218l4.82,8.609a3.293,3.293,0,0,1-2.869,4.9Z" transform="translate(-2265.193 -1647.539)" fill="#fff"/>
    </g>
    <g id="Group_56252" data-name="Group 56252" transform="translate(1008.167 970.224)">
      <path id="Path_122836" data-name="Path 122836" d="M2350.18,1605.273a3.29,3.29,0,0,1-2.875-1.684l-4.822-8.608a3.292,3.292,0,0,1,5.745-3.217l4.82,8.608a3.292,3.292,0,0,1-2.869,4.9Z" transform="translate(-2342.063 -1590.08)" fill="#fff"/>
    </g>
    <g id="Group_56255" data-name="Group 56255" transform="translate(1030.541 953.503)">
      <g id="Group_56253" data-name="Group 56253" transform="translate(3.292 3.291)">
        <path id="Path_122837" data-name="Path 122837" d="M2600.9,1465.49l5.939,8.994-18.091,14.859-8.524-13.746Z" transform="translate(-2580.223 -1465.49)" fill="#fff"/>
      </g>
      <g id="Group_56254" data-name="Group 56254">
        <path id="Path_122838" data-name="Path 122838" d="M2561.5,1465.388a3.294,3.294,0,0,1-2.8-1.557l-8.525-13.746a3.291,3.291,0,0,1,1.352-4.691l20.68-10.114a3.291,3.291,0,0,1,4.193,1.143l5.939,8.993a3.291,3.291,0,0,1-.656,4.359l-18.1,14.866a3.293,3.293,0,0,1-2.088.749Zm-3.812-15.68,4.625,7.457,12.9-10.6-2.713-4.1Z" transform="translate(-2549.679 -1434.944)" fill="#fff"/>
      </g>
    </g>
    <ellipse id="Ellipse_11177" data-name="Ellipse 11177" cx="8.665" cy="3.601" rx="8.665" ry="3.601" transform="translate(849.512 1002.465)" fill="#fff"/>
    <path id="Path_122839" data-name="Path 122839" d="M858.249,1878.495a18.982,18.982,0,0,1-7.074-1.241c-3.532-1.468-4.06-3.654-4.06-4.826s.532-3.359,4.06-4.826a20.743,20.743,0,0,1,14.149,0c3.532,1.468,4.06,3.654,4.06,4.826s-.532,3.358-4.06,4.826a18.982,18.982,0,0,1-7.074,1.241Zm-5.739-6.069a6.9,6.9,0,0,0,1.268.521,16.7,16.7,0,0,0,8.941,0,.742.742,0,1,0,0-1.043,16.665,16.665,0,0,0-8.941,0,6.88,6.88,0,0,0-1.269.528Zm12.038.409Z" transform="translate(-0.072 -866.362)" fill="#fff"/>
    <ellipse id="Ellipse_11178" data-name="Ellipse 11178" cx="8.665" cy="3.601" rx="8.665" ry="3.601" transform="translate(870.018 1016.482)" fill="#fff"/>
    <path id="Path_122840" data-name="Path 122840" d="M1048.5,2008.555a19,19,0,0,1-7.074-1.241c-3.532-1.469-4.06-3.655-4.06-4.826s.532-3.358,4.06-4.825a20.742,20.742,0,0,1,14.149,0c3.533,1.468,4.06,3.653,4.06,4.825s-.527,3.358-4.06,4.826a19,19,0,0,1-7.074,1.241Zm-5.739-6.069a6.9,6.9,0,0,0,1.269.522,16.7,16.7,0,0,0,8.941,0,.742.742,0,1,0,0-1.043,16.689,16.689,0,0,0-8.941,0,6.886,6.886,0,0,0-1.265.519Zm12.037.409Z" transform="translate(-169.824 -982.401)" fill="#fff"/>
    <g id="Group_56256" data-name="Group 56256" transform="translate(878.6 895.345)">
      <path id="Path_122841" data-name="Path 122841" d="M1253.033,961.368a4.938,4.938,0,0,0-4.932-4.933h-42.16a4.938,4.938,0,0,0-4.932,4.933v8.962h52.024Z" transform="translate(-1194.424 -949.849)" fill="#fff"/>
      <path id="Path_122842" data-name="Path 122842" d="M1198.875,922.406h-52.718a6.244,6.244,0,0,1-6.237-6.238v-9.307a11.529,11.529,0,0,1,11.516-11.516h42.16a11.529,11.529,0,0,1,11.516,11.516v9.307a6.244,6.244,0,0,1-6.237,6.238Zm-52.37-6.584h52.024v-8.962a4.938,4.938,0,0,0-4.932-4.933h-42.16a4.937,4.937,0,0,0-4.932,4.933Z" transform="translate(-1139.92 -895.345)" fill="#fff"/>
    </g>
    <rect id="Rectangle_14015" data-name="Rectangle 14015" width="53.184" height="59.389" transform="translate(884.264 940.313)" fill="#fff"/>
  </g>
</svg>
