<svg xmlns="http://www.w3.org/2000/svg" width="180.366" height="159.642" viewBox="0 0 180.366 159.642">
  <g id="block-wm-6" transform="translate(-185.814 -183.937)" opacity="0.15">
    <g id="Group_56305" data-name="Group 56305" transform="translate(243.526 206.895)">
      <path id="Path_122875" data-name="Path 122875" d="M282.242,290.659a29.745,29.745,0,0,0,8.752,7.873,21.9,21.9,0,0,0-8.752-7.873Z" transform="translate(-276.398 -243.275)" fill="#fff"/>
      <path id="Path_122876" data-name="Path 122876" d="M282.741,271.4a3.673,3.673,0,0,0-2-4.795,26.935,26.935,0,0,0-7.37-1.885,29.842,29.842,0,0,0,1.136,7.6,20.611,20.611,0,0,1,3.435,1.079,3.673,3.673,0,0,0,4.795-2Z" transform="translate(-273.375 -234.431)" fill="#fff"/>
      <path id="Path_122877" data-name="Path 122877" d="M298.327,279.125a3.672,3.672,0,1,0-5.019,5.362A19.656,19.656,0,0,1,297.5,289.9c1.493,2.438,2.913,4.874,4.2,7.443a30.019,30.019,0,0,0,7.783,1.026c.255,0,.508-.013.762-.018a88.709,88.709,0,0,0-6.483-12.285A26.566,26.566,0,0,0,298.327,279.125Z" transform="translate(-279.773 -239.005)" fill="#fff"/>
      <path id="Path_122878" data-name="Path 122878" d="M277.319,242.363a29.368,29.368,0,0,0-2.677,7c8.156,1.6,16.327,6.413,22.793,13.747a52.638,52.638,0,0,1,12.034,22.466,29.462,29.462,0,0,0,6.969-2.344,60.008,60.008,0,0,0-13.494-24.979C295.62,249.944,286.6,244.462,277.319,242.363Z" transform="translate(-273.807 -226.811)" fill="#fff"/>
      <path id="Path_122879" data-name="Path 122879" d="M322.228,246.7c-6.777-9.748-15.87-16.811-27.8-21.6-.576-.231-1.142-.446-1.706-.661a29.78,29.78,0,0,0-6.26,4.713c-.218.214-.426.437-.639.657,1.867.587,3.814,1.286,5.868,2.11,10.557,4.232,18.572,10.436,24.5,18.968a3.673,3.673,0,0,0,6.032-4.192Z" transform="translate(-277.62 -220.702)" fill="#fff"/>
      <path id="Path_122880" data-name="Path 122880" d="M342.012,272.16A3.673,3.673,0,0,0,340.135,277a79.148,79.148,0,0,1,3.317,9.036l.592,1.948.473,1.563q1.075-.878,2.078-1.86a29.725,29.725,0,0,0,3.686-4.414,85.984,85.984,0,0,0-3.423-9.241,3.671,3.671,0,0,0-4.845-1.873Z" transform="translate(-296.026 -236.861)" fill="#fff"/>
      <path id="Path_122881" data-name="Path 122881" d="M346.576,236.3a63.489,63.489,0,0,0-10.442-12.489,29.437,29.437,0,0,0-14.67-5.041,3.661,3.661,0,0,0,1.516,4.094c11.97,7.756,20.03,18.621,25,33.778a29.9,29.9,0,0,0-1.4-20.342Z" transform="translate(-289.718 -218.767)" fill="#fff"/>
    </g>
    <g id="Group_56306" data-name="Group 56306" transform="translate(185.814 183.937)">
      <path id="Path_122882" data-name="Path 122882" d="M247.661,338.21a3.233,3.233,0,1,0-6.418-.783c-1.551,12.727-7.645,19.363-19.783,32.585l-2.534,2.765a3.233,3.233,0,1,0,4.771,4.363l2.526-2.756C238.47,361.048,245.86,353,247.661,338.21Z" transform="translate(-196.814 -235.293)" fill="#fff"/>
      <path id="Path_122883" data-name="Path 122883" d="M303.381,342.532c.071,0,.141.007.213.007a3.232,3.232,0,0,0,3.222-3.024c.082-1.241.115-2.464.1-3.635-.027-2.546-.174-4.847-.406-6.949a43.783,43.783,0,0,1-6.7-1.376,59.537,59.537,0,0,1,.639,8.394c.011,1.009-.02,2.068-.091,3.147a3.232,3.232,0,0,0,3.019,3.435Z" transform="translate(-224.676 -232.896)" fill="#fff"/>
      <path id="Path_122884" data-name="Path 122884" d="M258.433,317.279a3.24,3.24,0,0,0,3.363-3.1,36.088,36.088,0,0,1,1.793-10.468,43.646,43.646,0,0,1-4.355-6.08c-2.256,4.111-3.624,9.664-3.9,16.281A3.234,3.234,0,0,0,258.433,317.279Z" transform="translate(-209.513 -222.696)" fill="#fff"/>
      <path id="Path_122885" data-name="Path 122885" d="M290.543,357.8a3.233,3.233,0,0,0-3.913,2.364c-3.506,14.209-11.159,27.722-21,37.072a3.233,3.233,0,0,0,4.454,4.688c10.71-10.178,19.029-24.834,22.822-40.211a3.233,3.233,0,0,0-2.364-3.913Z" transform="translate(-212.68 -243.174)" fill="#fff"/>
      <path id="Path_122886" data-name="Path 122886" d="M235.537,298.531c.506-3.474,1.031-7.064,1.774-10.774a20.9,20.9,0,0,1,1.944-5.612A43.84,43.84,0,0,1,237.18,274a24.973,24.973,0,0,0-6.21,12.486c-.775,3.875-1.311,7.552-1.831,11.107-2.114,14.471-3.939,26.968-21.115,42.905a3.233,3.233,0,0,0,4.4,4.74C231.27,327.754,233.342,313.559,235.537,298.531Z" transform="translate(-193.032 -214.64)" fill="#fff"/>
      <path id="Path_122887" data-name="Path 122887" d="M312.55,329.773a44.977,44.977,0,0,1-4.927.274c-.515,0-1.027-.02-1.538-.038a75.572,75.572,0,0,1,.12,10.367c-.965,18.437-7.19,33.372-18.495,44.389a3.233,3.233,0,1,0,4.513,4.631c12.508-12.188,19.385-28.567,20.438-48.682A82.189,82.189,0,0,0,312.55,329.773Z" transform="translate(-220.215 -233.651)" fill="#fff"/>
      <path id="Path_122888" data-name="Path 122888" d="M220.919,303.843a3.233,3.233,0,0,0-6.3-1.45c-2.928,12.726-6.19,23.825-16.515,30.771a3.233,3.233,0,1,0,3.609,5.365C213.98,330.277,217.8,317.417,220.919,303.843Z" transform="translate(-189.516 -223.463)" fill="#fff"/>
      <path id="Path_122889" data-name="Path 122889" d="M231.872,261.286a78.523,78.523,0,0,0-3.849,11.565,3.233,3.233,0,1,0,6.256,1.632,72.354,72.354,0,0,1,3.525-10.626,20.376,20.376,0,0,1,6.042-7.985,44.139,44.139,0,0,1,1.239-8.275,26.46,26.46,0,0,0-13.214,13.688Z" transform="translate(-200.167 -205.639)" fill="#fff"/>
      <path id="Path_122890" data-name="Path 122890" d="M335.3,326.21a43.152,43.152,0,0,1-6.277,1.756c.012.091.025.169.036.255,1.846,12.905,1.568,21.543-4.951,38.615a3.233,3.233,0,0,0,6.041,2.307c6.986-18.3,7.279-28.069,5.31-41.838C335.407,326.931,335.353,326.574,335.3,326.21Z" transform="translate(-232.885 -232.437)" fill="#fff"/>
      <path id="Path_122891" data-name="Path 122891" d="M200.131,293.689c6.884-7.361,8.149-15.037,9.489-23.164a80.963,80.963,0,0,1,4.92-19.009,30.7,30.7,0,0,1,16.424-16.468,3.234,3.234,0,0,0-2.555-5.942,37.126,37.126,0,0,0-19.852,19.938c-3.255,7.864-4.355,14.54-5.325,20.43-1.277,7.748-2.281,13.869-7.83,19.8a3.233,3.233,0,0,0,4.723,4.417Z" transform="translate(-188.787 -199.245)" fill="#fff"/>
      <path id="Path_122892" data-name="Path 122892" d="M258.032,227.814a3.193,3.193,0,0,0,1.044,1.86,43.406,43.406,0,0,1,3.726-5.882c-.709.079-1.417.173-2.124.293A3.233,3.233,0,0,0,258.032,227.814Z" transform="translate(-210.416 -197.524)" fill="#fff"/>
      <path id="Path_122893" data-name="Path 122893" d="M354.253,322.179l-2.266-2.3q-1.334.849-2.716,1.593c.63,6.53.394,14.286-1.227,25.348a3.233,3.233,0,0,0,2.73,3.668,3.278,3.278,0,0,0,.474.035,3.234,3.234,0,0,0,3.193-2.765,129.765,129.765,0,0,0,1.607-20.639A11.756,11.756,0,0,1,354.253,322.179Z" transform="translate(-241.105 -230.279)" fill="#fff"/>
      <path id="Path_122894" data-name="Path 122894" d="M193.929,268.635c2.121-9.854,4.762-22.11,12.3-29.823a3.233,3.233,0,1,0-4.624-4.519c-8.843,9.046-11.822,22.88-14,32.981-.572,2.654-1.112,5.162-1.677,7.208a3.233,3.233,0,1,0,6.231,1.724C192.778,273.98,193.338,271.384,193.929,268.635Z" transform="translate(-185.814 -200.771)" fill="#fff"/>
      <path id="Path_122895" data-name="Path 122895" d="M221.289,216.139a3.233,3.233,0,0,0,4.161,4.95,47.889,47.889,0,0,1,31.039-11.258,43.6,43.6,0,0,1,8.362-5.632,57.924,57.924,0,0,0-6.257-.758C245.674,202.615,231.728,207.364,221.289,216.139Z" transform="translate(-197.514 -190.553)" fill="#fff"/>
      <path id="Path_122896" data-name="Path 122896" d="M217.771,202.811a3.215,3.215,0,0,0,1.927-.639c10.068-7.49,21.45-11.56,32.918-11.77a3.233,3.233,0,1,0-.118-6.465c-12.826.232-25.5,4.745-36.66,13.048a3.234,3.234,0,0,0,1.933,5.827Z" transform="translate(-195.605 -183.937)" fill="#fff"/>
      <path id="Path_122897" data-name="Path 122897" d="M285.479,190.681a61.252,61.252,0,0,1,12.91,2.855,43.888,43.888,0,0,1,15.343-.056,69.488,69.488,0,0,0-27.563-9.226,3.233,3.233,0,1,0-.69,6.428Z" transform="translate(-218.804 -184.039)" fill="#fff"/>
      <path id="Path_122898" data-name="Path 122898" d="M272.223,321.143a43.477,43.477,0,0,1-13.489-8.48c-1.405,2.881-2.4,8.355-2.007,19.365.428,12.158-7.857,25.822-25.331,41.764a3.233,3.233,0,1,0,4.359,4.776c18.96-17.3,27.934-32.6,27.433-46.767-.3-8.486.323-12.774.867-14.841a31.332,31.332,0,0,1,2.634,14.584c-.711,17.565-10.007,35.08-25.5,48.052a3.233,3.233,0,1,0,4.151,4.959c16.889-14.143,27.027-33.366,27.812-52.75A43.831,43.831,0,0,0,272.223,321.143Z" transform="translate(-200.992 -227.819)" fill="#fff"/>
      <path id="Path_122899" data-name="Path 122899" d="M388.568,324.288,340.653,275.62a7.69,7.69,0,0,0-5.679-2.3l-5.657-5.748a39.866,39.866,0,0,0-59.45-52.855c-.616.607-1.2,1.233-1.766,1.868a39.7,39.7,0,0,0-9.8,21.645A39.917,39.917,0,0,0,269.427,271.1q.676.687,1.377,1.333a39.642,39.642,0,0,0,20.849,10.06,40.867,40.867,0,0,0,10.664.223q1.838-.207,3.65-.585a40.077,40.077,0,0,0,15.817-7.141l2.859,2.9,2.8,2.842a7.7,7.7,0,0,0,2.206,5.715l47.914,48.669a7.722,7.722,0,1,0,11.008-10.831Zm-76.832-50.465a33.692,33.692,0,0,1-44.164-45.482,33.419,33.419,0,0,1,4.5-6.914c.668-.792,1.369-1.562,2.124-2.3a33.8,33.8,0,0,1,4.263-3.549,33.689,33.689,0,0,1,45.348,49.013,34.132,34.132,0,0,1-2.339,2.555,33.762,33.762,0,0,1-3.65,3.1A33.355,33.355,0,0,1,311.736,273.822Z" transform="translate(-210.42 -190.536)" fill="#fff"/>
    </g>
  </g>
</svg>
