<svg xmlns="http://www.w3.org/2000/svg" width="172.29" height="172.285" viewBox="0 0 172.29 172.285">
  <path id="block-wm-3" d="M896.186,677.142a6.063,6.063,0,0,0-3.063.85v-.029c-2.946,1.7-11.126,7.743-22.029.08a54.254,54.254,0,0,0-1.21-7.315c4.392-1.774,8.351-.278,10.055.179l-.006-.02a4.466,4.466,0,0,0,2.344.021,4.515,4.515,0,1,0-4.357-7.532l-.005-.02c-1.245,1.246-3.92,4.513-8.6,5.179a54.129,54.129,0,0,0-2.887-7.893c5.611-12.085,15.714-10.945,19.116-10.943l-.015-.025a6.061,6.061,0,0,0,3.078-.8,6.123,6.123,0,1,0-6.123-10.6,6.059,6.059,0,0,0-2.228,2.268l-.015-.025c-1.7,2.948-5.766,12.273-19.047,11.083a54.814,54.814,0,0,0-12.727-12.727c-1.19-13.281,8.135-17.346,11.083-19.047l-.025-.014a6.061,6.061,0,0,0,2.268-2.228,6.123,6.123,0,1,0-10.6-6.123,6.057,6.057,0,0,0-.8,3.078l-.025-.014c0,3.4,1.142,13.506-10.943,19.116a54.162,54.162,0,0,0-6.043-2.342c-2.346-8.257,2.963-12.568,4.631-14.258l-.02-.005a4.469,4.469,0,0,0,1.177-2.028,4.515,4.515,0,1,0-8.737-2.278,4.467,4.467,0,0,0,.037,2.344l-.021-.006c.631,2.29,3.162,8.651-2.93,14.714a54.546,54.546,0,0,0-5.494-.8c-7.663-10.9-1.623-19.082.08-22.028h-.029a6.123,6.123,0,1,0-10.545,0H811.5c1.7,2.946,7.743,11.126.08,22.028a54.171,54.171,0,0,0-17.4,4.662c-12.086-5.611-10.944-15.714-10.943-19.116l-.025.014a6.06,6.06,0,0,0-.8-3.078,6.123,6.123,0,1,0-10.6,6.123,6.058,6.058,0,0,0,2.268,2.228l-.025.014c2.948,1.7,12.273,5.766,11.083,19.047A54.813,54.813,0,0,0,772.417,651.6c-13.281,1.19-17.346-8.135-19.047-11.083l-.014.025a6.06,6.06,0,0,0-2.228-2.268,6.123,6.123,0,1,0-6.122,10.6,6.058,6.058,0,0,0,3.078.8l-.014.025c3.4,0,13.505-1.142,19.116,10.943a54.145,54.145,0,0,0-2.961,8.155c-4.674-.668-7.347-3.932-8.592-5.178l-.006.02a4.51,4.51,0,1,0-2.012,7.508l-.006.021c1.705-.458,5.668-1.956,10.064-.176a54.393,54.393,0,0,0-1.148,7.049c-10.9,7.663-19.083,1.622-22.029-.08v.029a6.123,6.123,0,1,0,0,10.545v.029c2.946-1.7,11.126-7.742,22.029-.08a54.161,54.161,0,0,0,4.661,17.4c-5.611,12.085-15.714,10.944-19.116,10.943l.014.025a6.058,6.058,0,0,0-3.078.8,6.123,6.123,0,1,0,6.122,10.6,6.055,6.055,0,0,0,2.228-2.268l.014.025c1.7-2.948,5.766-12.273,19.047-11.083a54.812,54.812,0,0,0,4.137,5.128c-2.451,7.335-8.729,8.287-10.924,8.867l.015.015a4.468,4.468,0,0,0-2.044,1.148,4.515,4.515,0,1,0,7.526,4.367l.015.015c.594-2.192,1.585-8.473,8.951-10.876a54.778,54.778,0,0,0,5.052,4.064c1.19,13.281-8.135,17.346-11.083,19.047l.025.014a6.061,6.061,0,0,0-2.268,2.228,6.123,6.123,0,1,0,10.6,6.123,6.058,6.058,0,0,0,.8-3.078l.025.014c0-3.4-1.142-13.506,10.943-19.116a54.174,54.174,0,0,0,17.4,4.661c7.663,10.9,1.622,19.082-.08,22.028h.029a6.061,6.061,0,0,0-.85,3.063,6.123,6.123,0,1,0,11.4-3.063h.029c-1.7-2.946-7.742-11.126-.08-22.028a54.181,54.181,0,0,0,17.4-4.661C851.517,738.5,850.375,748.6,850.374,752l.025-.014a6.055,6.055,0,0,0,.8,3.078,6.123,6.123,0,1,0,8.337-8.351l.025-.014c-2.948-1.7-12.273-5.766-11.083-19.047A54.816,54.816,0,0,0,861.2,714.93c13.281-1.19,17.346,8.135,19.047,11.083l.015-.025a6.058,6.058,0,0,0,2.228,2.268,6.123,6.123,0,1,0,6.123-10.6,6.061,6.061,0,0,0-3.078-.8l.015-.025c-3.4,0-13.506,1.142-19.116-10.943a54.08,54.08,0,0,0,2.6-6.89c4.9.548,7.675,3.941,8.952,5.219l.005-.02a4.515,4.515,0,1,0,2.012-7.51l.006-.02c-1.741.467-5.834,2.012-10.338.055a54.341,54.341,0,0,0,1.422-8.234c10.9-7.662,19.083-1.622,22.029.08v-.029a6.059,6.059,0,0,0,3.063.85,6.123,6.123,0,1,0,0-12.245Zm-84.745,11.812a2.089,2.089,0,1,1-1.478.612,2.09,2.09,0,0,1,1.478-.612Zm-36.47-22.333a2.09,2.09,0,1,1,2.09,2.09,2.09,2.09,0,0,1-2.09-2.09Zm16.652,46.728a2.09,2.09,0,1,1,2.09-2.089,2.09,2.09,0,0,1-2.09,2.089Zm-6.236-16.39a8.326,8.326,0,1,1,8.326-8.326,8.326,8.326,0,0,1-8.326,8.326Zm16.866-23.171a2.089,2.089,0,1,1,2.09-2.09,2.089,2.089,0,0,1-2.09,2.09Zm-3.279-10.812a5.368,5.368,0,1,1,5.368-5.368,5.368,5.368,0,0,1-5.368,5.368Zm12.467,51.563a5.368,5.368,0,1,1,5.368-5.368,5.368,5.368,0,0,1-5.368,5.368Zm9.9-35.249a3.8,3.8,0,1,1,3.8-3.8,3.8,3.8,0,0,1-3.8,3.8Zm6.093,47.879a2.09,2.09,0,1,1,2.09-2.09,2.09,2.09,0,0,1-2.09,2.09Zm-2.3-65.376a8.326,8.326,0,1,1,8.326-8.326,8.326,8.326,0,0,1-8.326,8.326Zm9.888,55.357a3.8,3.8,0,1,1,3.8-3.8,3.8,3.8,0,0,1-3.8,3.8Zm3.674-26.106a5.368,5.368,0,1,1,5.368-5.368,5.368,5.368,0,0,1-5.368,5.368Zm7.457,18.126a2.09,2.09,0,1,1,2.09-2.09,2.09,2.09,0,0,1-2.09,2.09Zm0-42.549a2.09,2.09,0,1,1,2.09-2.09,2.09,2.09,0,0,1-2.09,2.09Zm11.532,14.241a3.8,3.8,0,1,1,3.8-3.8,3.8,3.8,0,0,1-3.8,3.8Z" transform="translate(-730.518 -596.976)" fill="#fff" stroke="rgba(0,0,0,0)" stroke-miterlimit="10" stroke-width="1" opacity="0.15"/>
</svg>
