<svg xmlns="http://www.w3.org/2000/svg" width="227.295" height="197.179" viewBox="0 0 227.295 197.179">
  <g id="block-wm-5" transform="translate(-119.172 -138.5)" opacity="0.15">
    <g id="Group_56257" data-name="Group 56257" transform="translate(223.145 151.696)">
      <rect id="Rectangle_14016" data-name="Rectangle 14016" width="5.06" height="44.079" fill="#fff"/>
    </g>
    <g id="Group_56258" data-name="Group 56258" transform="translate(232.693 169.4)">
      <rect id="Rectangle_14017" data-name="Rectangle 14017" width="5.061" height="26.375" fill="#fff"/>
    </g>
    <g id="Group_56265" data-name="Group 56265" transform="translate(200.47 205.87)">
      <g id="Group_56259" data-name="Group 56259" transform="translate(0 20.309)">
        <path id="Path_122843" data-name="Path 122843" d="M242.481,245.221v40.642H222.127a4,4,0,0,1-4-3.992V249.222a4,4,0,0,1,4-4Z" transform="translate(-218.126 -245.22)" fill="#fff"/>
      </g>
      <g id="Group_56260" data-name="Group 56260" transform="translate(24.355 20.311)">
        <path id="Path_122844" data-name="Path 122844" d="M272.453,249.223v32.648a3.992,3.992,0,0,1-3.992,3.992H247.77V245.222h20.686a4,4,0,0,1,4,4Z" transform="translate(-247.77 -245.222)" fill="#fff"/>
      </g>
      <g id="Group_56261" data-name="Group 56261" transform="translate(20.53 29.678)">
        <path id="Path_122845" data-name="Path 122845" d="M247.1,256.623A3.986,3.986,0,0,0,245,264v3.123a2.1,2.1,0,0,0,4.205,0V264a3.986,3.986,0,0,0-2.1-7.374Z" transform="translate(-243.114 -256.623)" fill="#fff"/>
      </g>
      <g id="Group_56264" data-name="Group 56264" transform="translate(7.208 0)">
        <g id="Group_56262" data-name="Group 56262" transform="translate(0 0)">
          <path id="Path_122846" data-name="Path 122846" d="M244.049,220.5v4.512c-7.073.072-12.634,4.891-12.634,15.807H226.9C226.9,226.24,235.594,220.567,244.049,220.5Z" transform="translate(-226.9 -220.5)" fill="#fff"/>
        </g>
        <g id="Group_56263" data-name="Group 56263" transform="translate(17.149)">
          <path id="Path_122847" data-name="Path 122847" d="M265.244,240.816H260.73c0-11.319-5.944-15.808-12.8-15.808h-.161V220.5h.161C256.979,220.494,265.244,226.731,265.244,240.816Z" transform="translate(-247.773 -220.5)" fill="#fff"/>
        </g>
      </g>
    </g>
    <g id="Group_56267" data-name="Group 56267" transform="translate(177.205 192.705)">
      <g id="Group_56266" data-name="Group 56266">
        <path id="Path_122848" data-name="Path 122848" d="M237.538,204.476a47.73,47.73,0,1,0,47.73,47.73,47.73,47.73,0,0,0-47.73-47.73Zm0,90.137a42.407,42.407,0,1,1,42.407-42.407,42.407,42.407,0,0,1-42.407,42.407Z" transform="translate(-189.808 -204.476)" fill="#fff"/>
      </g>
    </g>
    <g id="Group_56268" data-name="Group 56268" transform="translate(150.942 144.322)">
      <path id="Path_122849" data-name="Path 122849" d="M188.966,222.643l-21.9-22.1,7.322-13.353L161.574,174.37l8.35-13.121-12.083-12.083,3.578-3.579,14.954,14.954-8.351,13.121,12.631,12.631-7.323,13.353,19.214,19.419Z" transform="translate(-157.841 -145.586)" fill="#fff"/>
    </g>
    <g id="Group_56269" data-name="Group 56269" transform="translate(161.366 156.514)">
      <path id="Path_122850" data-name="Path 122850" d="M190.213,211.345l-8.038-8.038,7.718-13.751-19.364-19.364,3.578-3.579,22.077,22.077-7.718,13.751,1.748,1.748,16.132-16.132-.3-12.307L194.3,164.006l3.578-3.579L211.053,173.6l.4,16.5Z" transform="translate(-170.529 -160.427)" fill="#fff"/>
    </g>
    <g id="Group_56270" data-name="Group 56270" transform="translate(145.119 138.5)">
      <circle id="Ellipse_11179" data-name="Ellipse 11179" cx="5.623" cy="5.623" r="5.623" transform="translate(0 0)" fill="#fff"/>
    </g>
    <g id="Group_56271" data-name="Group 56271" transform="translate(220.052 143.824)">
      <path id="Path_122851" data-name="Path 122851" d="M253.206,150.6a5.623,5.623,0,1,1-5.623-5.624,5.623,5.623,0,0,1,5.623,5.624Z" transform="translate(-241.96 -144.98)" fill="#fff"/>
    </g>
    <g id="Group_56272" data-name="Group 56272" transform="translate(229.601 158.732)">
      <path id="Path_122852" data-name="Path 122852" d="M264.83,168.749a5.624,5.624,0,1,1-5.624-5.623,5.624,5.624,0,0,1,5.624,5.623Z" transform="translate(-253.582 -163.126)" fill="#fff"/>
    </g>
    <g id="Group_56273" data-name="Group 56273" transform="translate(246.359 168.721)">
      <rect id="Rectangle_14018" data-name="Rectangle 14018" width="44.079" height="5.06" transform="translate(0 31.164) rotate(-45)" fill="#fff"/>
    </g>
    <g id="Group_56274" data-name="Group 56274" transform="translate(253.112 187.992)">
      <rect id="Rectangle_14019" data-name="Rectangle 14019" width="26.375" height="5.061" transform="translate(0 18.647) rotate(-45)" fill="#fff"/>
    </g>
    <g id="Group_56275" data-name="Group 56275" transform="translate(275.284 163.296)">
      <path id="Path_122853" data-name="Path 122853" d="M318.786,178.279a5.623,5.623,0,1,1,0-7.952A5.623,5.623,0,0,1,318.786,178.279Z" transform="translate(-309.187 -168.681)" fill="#fff"/>
    </g>
    <g id="Group_56276" data-name="Group 56276" transform="translate(271.501 180.587)">
      <path id="Path_122854" data-name="Path 122854" d="M314.179,199.326a5.623,5.623,0,1,1,0-7.953A5.623,5.623,0,0,1,314.179,199.326Z" transform="translate(-304.581 -189.727)" fill="#fff"/>
    </g>
    <g id="Group_56277" data-name="Group 56277" transform="translate(211.899 168.942)">
      <rect id="Rectangle_14020" data-name="Rectangle 14020" width="5.06" height="26.375" fill="#fff"/>
    </g>
    <g id="Group_56278" data-name="Group 56278" transform="translate(208.806 158.339)">
      <path id="Path_122855" data-name="Path 122855" d="M239.518,168.27a5.623,5.623,0,1,1-5.623-5.623A5.623,5.623,0,0,1,239.518,168.27Z" transform="translate(-228.272 -162.647)" fill="#fff"/>
    </g>
    <g id="Group_56279" data-name="Group 56279" transform="translate(221.61 283.727)">
      <rect id="Rectangle_14021" data-name="Rectangle 14021" width="5.06" height="44.079" fill="#fff"/>
    </g>
    <g id="Group_56280" data-name="Group 56280" transform="translate(212.061 284.188)">
      <rect id="Rectangle_14022" data-name="Rectangle 14022" width="5.061" height="16.213" fill="#fff"/>
    </g>
    <g id="Group_56281" data-name="Group 56281" transform="translate(218.517 324.433)">
      <path id="Path_122856" data-name="Path 122856" d="M240.092,370.435a5.623,5.623,0,1,1,5.623,5.623,5.623,5.623,0,0,1-5.623-5.623Z" transform="translate(-240.092 -364.812)" fill="#fff"/>
    </g>
    <g id="Group_56282" data-name="Group 56282" transform="translate(208.969 299.829)">
      <path id="Path_122857" data-name="Path 122857" d="M228.47,340.485a5.622,5.622,0,1,1,5.623,5.623,5.622,5.622,0,0,1-5.623-5.623Z" transform="translate(-228.47 -334.864)" fill="#fff"/>
    </g>
    <g id="Group_56283" data-name="Group 56283" transform="translate(232.857 284.188)">
      <rect id="Rectangle_14023" data-name="Rectangle 14023" width="5.061" height="26.374" fill="#fff"/>
    </g>
    <g id="Group_56284" data-name="Group 56284" transform="translate(229.763 309.92)">
      <path id="Path_122858" data-name="Path 122858" d="M253.78,352.769a5.623,5.623,0,1,1,5.624,5.624,5.623,5.623,0,0,1-5.624-5.624Z" transform="translate(-253.78 -347.147)" fill="#fff"/>
    </g>
    <g id="Group_56285" data-name="Group 56285" transform="translate(135.377 237.902)">
      <rect id="Rectangle_14024" data-name="Rectangle 14024" width="44.079" height="5.061" fill="#fff"/>
    </g>
    <g id="Group_56286" data-name="Group 56286" transform="translate(153.081 228.353)">
      <rect id="Rectangle_14025" data-name="Rectangle 14025" width="26.375" height="5.06" fill="#fff"/>
    </g>
    <g id="Group_56287" data-name="Group 56287" transform="translate(127.505 234.808)">
      <path id="Path_122859" data-name="Path 122859" d="M134.937,255.724a5.624,5.624,0,1,1-5.622,5.624,5.624,5.624,0,0,1,5.622-5.624Z" transform="translate(-129.315 -255.724)" fill="#fff"/>
    </g>
    <g id="Group_56288" data-name="Group 56288" transform="translate(142.414 225.259)">
      <path id="Path_122860" data-name="Path 122860" d="M153.085,244.1a5.624,5.624,0,1,1-5.623,5.623,5.624,5.624,0,0,1,5.623-5.623Z" transform="translate(-147.462 -244.1)" fill="#fff"/>
    </g>
    <g id="Group_56289" data-name="Group 56289" transform="translate(129.776 249.149)">
      <rect id="Rectangle_14026" data-name="Rectangle 14026" width="49.681" height="5.061" fill="#fff"/>
    </g>
    <g id="Group_56290" data-name="Group 56290" transform="translate(119.172 246.056)">
      <path id="Path_122861" data-name="Path 122861" d="M124.795,269.414a5.623,5.623,0,1,1-5.623,5.623A5.623,5.623,0,0,1,124.795,269.414Z" transform="translate(-119.172 -269.414)" fill="#fff"/>
    </g>
    <g id="Group_56291" data-name="Group 56291" transform="translate(179.648 151.024)">
      <path id="Path_122862" data-name="Path 122862" d="M202.379,155.391a5.623,5.623,0,1,1-7.952,0,5.623,5.623,0,0,1,7.952,0Z" transform="translate(-192.781 -153.744)" fill="#fff"/>
    </g>
    <g id="Group_56292" data-name="Group 56292" transform="translate(133.792 279.047)">
      <path id="Path_122863" data-name="Path 122863" d="M140.545,341.837l-3.578-3.578L151.919,323.3l13.121,8.35,12.63-12.63,13.356,7.323L207.8,309.569l4.844,2.314-20.725,20.724-13.353-7.322L165.751,338.1l-13.121-8.35Z" transform="translate(-136.967 -309.569)" fill="#fff"/>
    </g>
    <g id="Group_56293" data-name="Group 56293" transform="translate(145.983 259.965)">
      <path id="Path_122864" data-name="Path 122864" d="M161.569,327.266l-3.579-3.578,22.077-22.077,13.751,7.718,1.748-1.748-16.132-16.132-12.307.3L155.384,303.5l-3.579-3.579,13.174-13.168,16.5-.405,21.244,21.241-8.038,8.038L180.935,307.9Z" transform="translate(-151.805 -286.343)" fill="#fff"/>
    </g>
    <g id="Group_56294" data-name="Group 56294" transform="translate(127.968 305.893)">
      <path id="Path_122865" data-name="Path 122865" d="M131.525,343.891a5.623,5.623,0,1,1,0,7.953,5.623,5.623,0,0,1,0-7.953Z" transform="translate(-129.877 -342.244)" fill="#fff"/>
    </g>
    <g id="Group_56295" data-name="Group 56295" transform="translate(140.492 271.365)">
      <path id="Path_122866" data-name="Path 122866" d="M146.769,301.866a5.623,5.623,0,1,1,0,7.952A5.623,5.623,0,0,1,146.769,301.866Z" transform="translate(-145.122 -300.219)" fill="#fff"/>
    </g>
    <g id="Group_56300" data-name="Group 56300" transform="translate(265.868 222.349)">
      <g id="Group_56296" data-name="Group 56296">
        <path id="Path_122867" data-name="Path 122867" d="M369.89,275.418H348.741l-3.371-15.183H327.506l-4.265-14.62H297.726v-5.057h29.311l4.265,14.621h18.124l3.371,15.183h17.089Z" transform="translate(-297.726 -240.558)" fill="#fff"/>
      </g>
      <g id="Group_56297" data-name="Group 56297" transform="translate(8.779 8.989)">
        <path id="Path_122868" data-name="Path 122868" d="M338.994,292.931H320.363l-11.952-11.38V251.5h11.367l4.265,15.182h27.386v5.057H320.208l-4.266-15.175h-2.472v22.815l8.915,8.488h16.606Z" transform="translate(-308.411 -251.5)" fill="#fff"/>
      </g>
      <g id="Group_56298" data-name="Group 56298" transform="translate(69.353 26.706)">
        <path id="Path_122869" data-name="Path 122869" d="M387.762,284.31a5.623,5.623,0,1,1,5.624-5.623,5.623,5.623,0,0,1-5.624,5.623Z" transform="translate(-382.14 -273.064)" fill="#fff"/>
      </g>
      <g id="Group_56299" data-name="Group 56299" transform="translate(36.082 42.264)">
        <path id="Path_122870" data-name="Path 122870" d="M347.267,303.247a5.623,5.623,0,1,1,5.623-5.623,5.623,5.623,0,0,1-5.623,5.623Z" transform="translate(-341.644 -292.001)" fill="#fff"/>
      </g>
    </g>
    <g id="Group_56301" data-name="Group 56301" transform="translate(261.926 191.208)">
      <path id="Path_122871" data-name="Path 122871" d="M296.541,229.246l-3.613-3.549,22.616-23.043,9.009,4.635-2.316,4.5-5.693-2.928Z" transform="translate(-292.928 -202.655)" fill="#fff"/>
    </g>
    <g id="Group_56302" data-name="Group 56302" transform="translate(286.772 192.474)">
      <path id="Path_122872" data-name="Path 122872" d="M332.768,213.793a5.623,5.623,0,1,1,0-7.952,5.623,5.623,0,0,1,0,7.952Z" transform="translate(-323.169 -204.195)" fill="#fff"/>
    </g>
    <g id="Group_56303" data-name="Group 56303" transform="translate(253.113 272.237)">
      <path id="Path_122873" data-name="Path 122873" d="M302.55,331.673l-4.5-2.316,2.937-5.71L282.2,304.859l3.579-3.579,21.4,21.4Z" transform="translate(-282.2 -301.28)" fill="#fff"/>
    </g>
    <g id="Group_56304" data-name="Group 56304" transform="translate(265.591 295.848)">
      <path id="Path_122874" data-name="Path 122874" d="M299.036,339.618a5.623,5.623,0,1,1,7.952,0A5.623,5.623,0,0,1,299.036,339.618Z" transform="translate(-297.388 -330.019)" fill="#fff"/>
    </g>
  </g>
</svg>
