<svg xmlns="http://www.w3.org/2000/svg" width="146.294" height="170.789" viewBox="0 0 146.294 170.789">
  <g id="block-wm-1" transform="translate(-1203.2 -1352.654)" opacity="0.15">
    <g id="Group_56238" data-name="Group 56238" transform="translate(1203.2 1352.651)">
      <g id="Group_56235" data-name="Group 56235">
        <path id="Path_122815" data-name="Path 122815" d="M661.5,491.072v-.206l-11.67,11.726c.058,8.9.029,18.623-.207,36.452-.444,34.183-48.3,50.446-60.909,54.159h-.029c-12.612-3.712-60.465-20.037-60.907-54.159-.326-25.341-.237-34.3-.09-47.852.061-5.926.119-12.674.176-22.015L588.685,447.2h.029l60.822,21.982v.3l9.4-9.431-70.22-25.372h-.029L516.11,460.9v4.123c-.061,11.495-.147,19.332-.208,26.051-.147,13.613-.236,22.631.09,48.12.558,42.667,54.276,61.084,70.72,65.679l1.973.59,1.946-.558c16.471-4.6,70.22-22.955,70.779-65.711C661.736,513.7,661.645,504.685,661.5,491.072Z" transform="translate(-515.77 -434.671)" fill="#fff"/>
      </g>
      <g id="Group_56236" data-name="Group 56236" transform="translate(72.916 30.736)">
        <path id="Path_122816" data-name="Path 122816" d="M1071.86,654.705l-11.671,11.728L999.28,727.577l-.8-.706V711.2l.266.232L1060.01,649.9l11.7-11.755C1071.73,644.777,1071.8,650.08,1071.86,654.705Z" transform="translate(-998.482 -638.147)" fill="#fff"/>
      </g>
      <g id="Group_56237" data-name="Group 56237" transform="translate(32.37 75.055)">
        <path id="Path_122817" data-name="Path 122817" d="M770.608,960.278v15.674l-40.546-35.537,7.75-8.868Z" transform="translate(-730.063 -931.548)" fill="#fff"/>
      </g>
    </g>
  </g>
</svg>
