<svg xmlns="http://www.w3.org/2000/svg" width="96" height="96" viewBox="0 0 96 96">
  <g id="ico-2" transform="translate(0 0)">
    <g id="Ellipse_11167" data-name="Ellipse 11167" transform="translate(0 0)" fill="#fafafa" stroke="#f8f8f8" stroke-width="2">
      <circle cx="48" cy="48" r="48" stroke="none"/>
      <circle cx="48" cy="48" r="47" fill="none"/>
    </g>
    <g id="Group_56179" data-name="Group 56179" transform="translate(13.642 22.29)">
      <path id="Path_122732" data-name="Path 122732" d="M875.393,1891.489c0,.623-1.217,1.13-2.722,1.13s-2.728-.507-2.728-1.13v-1.136c0-.623,1.222-1.13,2.728-1.13s2.722.508,2.722,1.13Z" transform="translate(-869.167 -1855.56)" fill="#dfdfde"/>
      <path id="Path_122733" data-name="Path 122733" d="M850.538,1871.261a5.977,5.977,0,0,1-2.225-.391c-1.112-.462-1.278-1.148-1.278-1.52v-1.137c0-.368.166-1.054,1.278-1.52a6.523,6.523,0,0,1,4.451,0c1.109.462,1.274,1.148,1.274,1.52v1.137c0,.368-.165,1.054-1.274,1.52a5.963,5.963,0,0,1-2.225.391Zm-1.954-2a1.612,1.612,0,0,0,.543.26,4.875,4.875,0,0,0,1.411.192,3.419,3.419,0,0,0,1.947-.448v-.948a3.421,3.421,0,0,0-1.947-.448,4.875,4.875,0,0,0-1.411.192,1.609,1.609,0,0,0-.543.259Z" transform="translate(-847.035 -1833.429)" fill="#084c51"/>
      <path id="Path_122734" data-name="Path 122734" d="M1065.65,2021.549c0,.623-1.217,1.13-2.722,1.13s-2.728-.507-2.728-1.13v-1.135c0-.623,1.222-1.13,2.728-1.13s2.722.508,2.722,1.13Z" transform="translate(-1052.982 -1981.21)" fill="#dfdfde"/>
      <path id="Path_122735" data-name="Path 122735" d="M1040.8,2001.321a5.978,5.978,0,0,1-2.226-.391c-1.112-.461-1.278-1.147-1.278-1.52v-1.135c0-.368.166-1.054,1.278-1.52a6.522,6.522,0,0,1,4.451,0c1.108.461,1.274,1.147,1.274,1.52v1.135c0,.368-.166,1.054-1.275,1.52A5.956,5.956,0,0,1,1040.8,2001.321Zm-1.954-2a1.617,1.617,0,0,0,.543.26,4.884,4.884,0,0,0,1.411.193,3.417,3.417,0,0,0,1.945-.448v-.948a3.42,3.42,0,0,0-1.945-.448,4.875,4.875,0,0,0-1.411.192,1.613,1.613,0,0,0-.543.259Z" transform="translate(-1030.849 -1959.078)" fill="#084c51"/>
      <g id="Group_56163" data-name="Group 56163" transform="translate(11.197 6.572)">
        <g id="Group_56161" data-name="Group 56161" transform="translate(1.038 1.039)">
          <rect id="Rectangle_14001" data-name="Rectangle 14001" width="15.291" height="2.634" fill="#fff"/>
        </g>
        <g id="Group_56162" data-name="Group 56162" transform="translate(0 0)">
          <path id="Path_122736" data-name="Path 122736" d="M1194.037,1094.171h-15.291a1.034,1.034,0,0,1-1.035-1.035V1090.5a1.035,1.035,0,0,1,1.035-1.035h15.291a1.035,1.035,0,0,1,1.035,1.035v2.634A1.035,1.035,0,0,1,1194.037,1094.171Zm-14.256-2.069h13.225v-.564h-13.222Z" transform="translate(-1177.712 -1089.468)" fill="#084c51"/>
        </g>
      </g>
      <g id="Group_56164" data-name="Group 56164" transform="translate(8.45 9.209)">
        <path id="Path_122737" data-name="Path 122737" d="M1116.1,1195.054h-15.486a3.971,3.971,0,0,1-3.966-3.966V1171.2a3.971,3.971,0,0,1,3.966-3.967H1116.1a3.971,3.971,0,0,1,3.967,3.967v19.891a3.971,3.971,0,0,1-3.967,3.966Zm-15.486-25.755a1.9,1.9,0,0,0-1.9,1.9v19.891a1.9,1.9,0,0,0,1.9,1.9H1116.1a1.9,1.9,0,0,0,1.9-1.9V1171.2a1.9,1.9,0,0,0-1.9-1.9Z" transform="translate(-1096.652 -1167.23)" fill="#084c51"/>
      </g>
      <g id="Group_56165" data-name="Group 56165" transform="translate(63.371 15.122)">
        <path id="Path_122738" data-name="Path 122738" d="M2753.919,1379.664h0a1.5,1.5,0,0,1-2.076-.424l-2.994-4.529a1.5,1.5,0,0,1,.423-2.076h0a1.5,1.5,0,0,1,2.076.423l2.994,4.529a1.5,1.5,0,0,1-.423,2.076Z" transform="translate(-2747.563 -1371.349)" fill="#bf9862"/>
        <path id="Path_122739" data-name="Path 122739" d="M2723.566,1351.417a2.532,2.532,0,0,1-2.117-1.136l-2.994-4.529a2.533,2.533,0,0,1,4.226-2.793l2.994,4.529a2.533,2.533,0,0,1-.716,3.51h0A2.518,2.518,0,0,1,2723.566,1351.417Zm.822-1.282Zm-3.821-6.243a.463.463,0,0,0-.385.72l2.993,4.529a.465.465,0,0,0,.643.131h0a.465.465,0,0,0,.132-.643l-2.994-4.53a.464.464,0,0,0-.385-.205Z" transform="translate(-2718.035 -1341.822)" fill="#084c51"/>
      </g>
      <g id="Group_56166" data-name="Group 56166" transform="translate(55.955 18.684)">
        <path id="Path_122740" data-name="Path 122740" d="M2505.073,1457.2a1.034,1.034,0,0,1-.88-.489l-5.875-9.477a1.035,1.035,0,0,1,1.759-1.085l5.875,9.476a1.035,1.035,0,0,1-.878,1.58Z" transform="translate(-2498.188 -1445.696)" fill="#084c51"/>
      </g>
      <g id="Group_56167" data-name="Group 56167" transform="translate(38.47 19.722)">
        <path id="Path_122741" data-name="Path 122741" d="M2035.822,1515.508l-16.067,9.763a4.216,4.216,0,0,1-5.792-1.411h0a4.216,4.216,0,0,1,1.411-5.793l12.821-7.789,3.248-1.974Z" transform="translate(-2012.314 -1507.257)" fill="#bf9862"/>
        <path id="Path_122742" data-name="Path 122742" d="M1988.025,1497.4a5.25,5.25,0,0,1-2.736-9.738l16.067-9.763a1.035,1.035,0,0,1,1.421.347l4.379,7.207a1.035,1.035,0,0,1-.347,1.421l-16.067,9.763A5.221,5.221,0,0,1,1988.025,1497.4Zm13.523-17.195-15.185,9.228a3.182,3.182,0,0,0,3.3,5.439l15.184-9.228Z" transform="translate(-1982.763 -1477.749)" fill="#084c51"/>
      </g>
      <g id="Group_56168" data-name="Group 56168" transform="translate(33.205 34.208)">
        <path id="Path_122743" data-name="Path 122743" d="M1864.918,1938.49l-4.456,2.708a1.554,1.554,0,0,1-2.136-.521h0a1.554,1.554,0,0,1,.521-2.136l4.457-2.708Z" transform="translate(-1857.06 -1934.792)" fill="#bf9862"/>
        <path id="Path_122744" data-name="Path 122744" d="M1830.125,1912.944a2.59,2.59,0,0,1-1.35-4.8l4.458-2.707a1.034,1.034,0,0,1,1.421.347l1.615,2.657a1.035,1.035,0,0,1-.347,1.421l-4.456,2.708A2.572,2.572,0,0,1,1830.125,1912.944Zm3.3-5.211-3.573,2.171a.521.521,0,0,0,.543.889l3.573-2.171Z" transform="translate(-1827.53 -1905.283)" fill="#084c51"/>
      </g>
      <g id="Group_56169" data-name="Group 56169" transform="translate(25.415 39.246)">
        <path id="Path_122745" data-name="Path 122745" d="M1598.532,2060.847a1.034,1.034,0,0,1-.492-1.945l7.827-4.216a1.035,1.035,0,1,1,.977,1.822l-7.827,4.215A1.03,1.03,0,0,1,1598.532,2060.847Z" transform="translate(-1597.496 -2054.541)" fill="#084c51"/>
      </g>
      <g id="Group_56170" data-name="Group 56170" transform="translate(53.319 21.7)">
        <path id="Path_122746" data-name="Path 122746" d="M2424.306,1541.6a1.035,1.035,0,0,1-.893-.509l-2.079-3.526a1.035,1.035,0,1,1,1.782-1.051l2.079,3.526a1.035,1.035,0,0,1-.89,1.56Z" transform="translate(-2421.191 -1536.006)" fill="#084c51"/>
      </g>
      <g id="Group_56171" data-name="Group 56171" transform="translate(42.658 28.956)">
        <path id="Path_122747" data-name="Path 122747" d="M2109.132,1754.947a1.034,1.034,0,0,1-.9-.529l-1.52-2.705a1.035,1.035,0,1,1,1.805-1.011l1.52,2.705a1.035,1.035,0,0,1-.9,1.54Z" transform="translate(-2106.575 -1750.172)" fill="#084c51"/>
      </g>
      <g id="Group_56172" data-name="Group 56172" transform="translate(45.173 27.104)">
        <path id="Path_122748" data-name="Path 122748" d="M2183.461,1700.267a1.035,1.035,0,0,1-.9-.53l-1.52-2.705a1.035,1.035,0,1,1,1.805-1.011l1.52,2.705a1.035,1.035,0,0,1-.9,1.54Z" transform="translate(-2180.905 -1695.491)" fill="#084c51"/>
      </g>
      <g id="Group_56173" data-name="Group 56173" transform="translate(48.033 25.475)">
        <path id="Path_122749" data-name="Path 122749" d="M2267.752,1652.307a1.034,1.034,0,0,1-.9-.529l-1.52-2.705a1.035,1.035,0,0,1,1.806-1.011l1.519,2.705a1.035,1.035,0,0,1-.9,1.54Z" transform="translate(-2265.197 -1647.532)" fill="#084c51"/>
      </g>
      <g id="Group_56174" data-name="Group 56174" transform="translate(50.635 23.528)">
        <path id="Path_122750" data-name="Path 122750" d="M2344.611,1594.846a1.034,1.034,0,0,1-.9-.53l-1.52-2.705a1.034,1.034,0,1,1,1.805-1.01l1.52,2.705a1.034,1.034,0,0,1-.9,1.541Z" transform="translate(-2342.056 -1590.071)" fill="#084c51"/>
      </g>
      <g id="Group_56177" data-name="Group 56177" transform="translate(57.672 18.276)">
        <g id="Group_56175" data-name="Group 56175" transform="translate(1.033 1.04)">
          <path id="Path_122751" data-name="Path 122751" d="M2586.723,1465.49l1.867,2.823-5.687,4.668-2.679-4.32Z" transform="translate(-2580.223 -1465.49)" fill="#bf9862"/>
        </g>
        <g id="Group_56176" data-name="Group 56176" transform="translate(0 0)">
          <path id="Path_122752" data-name="Path 122752" d="M2553.393,1444.5a1.034,1.034,0,0,1-.879-.49l-2.68-4.32a1.035,1.035,0,0,1,.425-1.474l6.5-3.179a1.035,1.035,0,0,1,1.318.359l1.867,2.823a1.035,1.035,0,0,1-.206,1.37l-5.687,4.668A1.035,1.035,0,0,1,2553.393,1444.5Zm-1.194-4.927,1.454,2.344,4.053-3.331-.852-1.29Z" transform="translate(-2549.679 -1434.937)" fill="#084c51"/>
        </g>
      </g>
      <ellipse id="Ellipse_11168" data-name="Ellipse 11168" cx="2.723" cy="1.131" rx="2.723" ry="1.131" transform="translate(0.778 33.666)" fill="#dfdfde"/>
      <path id="Path_122753" data-name="Path 122753" d="M850.614,1870.171a5.962,5.962,0,0,1-2.223-.391c-1.109-.462-1.276-1.149-1.276-1.52s.166-1.055,1.276-1.52a6.52,6.52,0,0,1,4.451,0c1.109.461,1.276,1.148,1.276,1.52s-.166,1.055-1.276,1.52a5.968,5.968,0,0,1-2.228.391Zm-1.8-1.907a2.159,2.159,0,0,0,.4.164,5.248,5.248,0,0,0,2.81,0,.233.233,0,1,0,0-.326,5.238,5.238,0,0,0-2.81,0,2.146,2.146,0,0,0-.4.158Zm3.783.128Z" transform="translate(-847.113 -1833.469)" fill="#0d5655"/>
      <ellipse id="Ellipse_11169" data-name="Ellipse 11169" cx="2.723" cy="1.131" rx="2.723" ry="1.131" transform="translate(7.222 38.071)" fill="#dfdfde"/>
      <path id="Path_122754" data-name="Path 122754" d="M1040.876,2000.232a5.965,5.965,0,0,1-2.223-.391c-1.11-.461-1.276-1.148-1.276-1.52s.166-1.055,1.276-1.52a6.522,6.522,0,0,1,4.451,0c1.11.461,1.276,1.149,1.276,1.52s-.166,1.055-1.276,1.52a5.959,5.959,0,0,1-2.228.391Zm-1.8-1.907a2.177,2.177,0,0,0,.4.164,5.248,5.248,0,0,0,2.81,0,.233.233,0,1,0,0-.326,5.248,5.248,0,0,0-2.81,0,2.172,2.172,0,0,0-.4.159Zm3.783.128Z" transform="translate(-1030.926 -1959.119)" fill="#0d5655"/>
      <g id="Group_56178" data-name="Group 56178" transform="translate(9.923)">
        <path id="Path_122755" data-name="Path 122755" d="M1217.359,957.981a1.551,1.551,0,0,0-1.55-1.55h-13.245a1.551,1.551,0,0,0-1.55,1.55V960.8h16.349Z" transform="translate(-1198.942 -954.361)" fill="#bf9862"/>
        <path id="Path_122756" data-name="Path 122756" d="M1158.451,903.848h-16.567a1.963,1.963,0,0,1-1.961-1.961v-2.926a3.623,3.623,0,0,1,3.619-3.619h13.244a3.623,3.623,0,0,1,3.619,3.619v2.926A1.963,1.963,0,0,1,1158.451,903.848Zm-16.458-2.069h16.349v-2.816a1.551,1.551,0,0,0-1.55-1.55h-13.244a1.551,1.551,0,0,0-1.55,1.55Z" transform="translate(-1139.923 -895.342)" fill="#084c51"/>
      </g>
      <rect id="Rectangle_14002" data-name="Rectangle 14002" width="16" height="18" rx="2" transform="translate(12.358 14.71)" fill="#bf9862"/>
    </g>
  </g>
</svg>
