<svg xmlns="http://www.w3.org/2000/svg" width="97" height="97" viewBox="0 0 97 97">
  <g id="ico-4" transform="translate(0 0)">
    <g id="Ellipse_11171" data-name="Ellipse 11171" transform="translate(0 0)" fill="#fafafa" stroke="#f8f8f8" stroke-width="2">
      <circle cx="48.5" cy="48.5" r="48.5" stroke="none"/>
      <circle cx="48.5" cy="48.5" r="47.5" fill="none"/>
    </g>
    <path id="Path_122782" data-name="Path 122782" d="M309.008-54.456A11.491,11.491,0,0,0,297.646-58.1a1.678,1.678,0,0,1-1.657-.534l-.831-.956-1.963,1.7-1.789-2.145a1.323,1.323,0,0,0-1.018-.477,1.326,1.326,0,0,0-.459.083,1.324,1.324,0,0,0-.381-.34L287.06-62.24a1.326,1.326,0,0,0-.675-.186,1.333,1.333,0,0,0-1.079.555,1.321,1.321,0,0,0-.687-.193,1.331,1.331,0,0,0-.326.039l-2.74.692L280.3-63.321a1.319,1.319,0,0,0-1.005-.613l-.317-2.021a1.361,1.361,0,0,0-.029-.138l1.827-.253L280.6-67.6a1.678,1.678,0,0,1,.688-1.6,11.491,11.491,0,0,0,4.734-10.953,11.5,11.5,0,0,0-8.961-9.662l-5.154,2.184-.021.28,4.741-.239.058,2.388a6.936,6.936,0,0,1,2.2,1.153,6.935,6.935,0,0,1,2.605,4.527,6.88,6.88,0,0,1-1.339,5.119,6.881,6.881,0,0,1-4.573,2.681A6.94,6.94,0,0,1,270.4-73.1a6.878,6.878,0,0,1-2.617-4.464,6.94,6.94,0,0,1,1.328-5.2,6.881,6.881,0,0,1,4.573-2.681,6.964,6.964,0,0,1,1.846-.01l-.023-.942-4.86.244.165-2.265,3.919-1.661a11.583,11.583,0,0,0-1.678.109,11.493,11.493,0,0,0-9.807,12.961,11.491,11.491,0,0,0,7.533,9.254,1.678,1.678,0,0,1,1.1,1.352l.174,1.255,2.884-.4a1.34,1.34,0,0,0,.016.217l.449,2.858a1.319,1.319,0,0,0,1.309,1.12h.041a1.331,1.331,0,0,0,.1.2l1.544,2.447a1.32,1.32,0,0,0,1.122.619h0a1.324,1.324,0,0,0,.707-.205l.554-.35.075.3a1.324,1.324,0,0,0,1.286,1.005h0a1.328,1.328,0,0,0,.326-.039l2.807-.7a1.324,1.324,0,0,0,.462-.217l1.737,1.027a1.326,1.326,0,0,0,.675.186,1.319,1.319,0,0,0,.377-.055l1.607,1.916-1.61,1.4.831.956a1.678,1.678,0,0,1,.3,1.715,11.491,11.491,0,0,0,2,11.763,11.5,11.5,0,0,0,12.781,3.206l3.128-4.643-.136-.246-3.842,2.787-1.354-1.973a6.937,6.937,0,0,1-2.477.237,6.935,6.935,0,0,1-4.657-2.37,6.881,6.881,0,0,1-1.672-5.02,6.88,6.88,0,0,1,2.369-4.742,6.94,6.94,0,0,1,5.1-1.673,6.878,6.878,0,0,1,4.629,2.312,6.94,6.94,0,0,1,1.724,5.08,6.881,6.881,0,0,1-2.369,4.742,6.962,6.962,0,0,1-1.545,1.017l.533.777,3.939-2.857,1.1,1.988-2.371,3.534a11.582,11.582,0,0,0,1.346-1.007,11.493,11.493,0,0,0,1.141-16.216Zm-32.224-7.973h-.066a.253.253,0,0,1-.249-.217L276.02-65.5a.251.251,0,0,1,.046-.188l.014-.017,1.752-.243a.252.252,0,0,1,.084.15l.343,2.186-.985.621a1.318,1.318,0,0,0-.488.567Zm3.73,2.689-.853.543a.247.247,0,0,1-.134.039h0a.252.252,0,0,1-.217-.117L277.9-61.513l.42-.066a1.318,1.318,0,0,0,.868-.53,1.32,1.32,0,0,0,.24-.581l1.246,1.975a1.322,1.322,0,0,0-.158.975Zm4.133.715-2.436.608a.253.253,0,0,1-.306-.183l-.176-.706a1.332,1.332,0,0,0,.307-1.044l2.519-.627a.255.255,0,0,1,.062-.008.25.25,0,0,1,.135.04l-.231.391a1.329,1.329,0,0,0,.128,1.53Zm3.806-.266a1.317,1.317,0,0,0-.471.9,1.359,1.359,0,0,0,0,.178l-1.7-1.007a1.329,1.329,0,0,0-.033-.461l-.294-1.18.217-.362a.251.251,0,0,1,.217-.124.248.248,0,0,1,.128.036l2.489,1.475a.249.249,0,0,1,.055.045Zm.9,1.467.663-1.12a1.327,1.327,0,0,0,.151-.375l.063-.053a.248.248,0,0,1,.161-.059.252.252,0,0,1,.194.09l1.8,2.158-1.449,1.258Z" transform="translate(-239.073 111.228)" fill="#005d63"/>
  </g>
</svg>
