<svg xmlns="http://www.w3.org/2000/svg" width="97" height="97" viewBox="0 0 97 97">
  <g id="ico-5" transform="translate(0 0)">
    <g id="Ellipse_11172" data-name="Ellipse 11172" transform="translate(0 0)" fill="#fafafa" stroke="#f8f8f8" stroke-width="2">
      <circle cx="48.5" cy="48.5" r="48.5" stroke="none"/>
      <circle cx="48.5" cy="48.5" r="47.5" fill="none"/>
    </g>
    <g id="Group_56232" data-name="Group 56232" transform="translate(10.856 16.584)">
      <g id="Group_56184" data-name="Group 56184" transform="translate(34.862 4.424)">
        <rect id="Rectangle_14003" data-name="Rectangle 14003" width="1.697" height="14.779" fill="#005d63"/>
      </g>
      <g id="Group_56185" data-name="Group 56185" transform="translate(38.063 10.361)">
        <rect id="Rectangle_14004" data-name="Rectangle 14004" width="1.697" height="8.843" fill="#005d63"/>
      </g>
      <g id="Group_56192" data-name="Group 56192" transform="translate(27.26 22.587)">
        <g id="Group_56186" data-name="Group 56186" transform="translate(0 6.811)">
          <path id="Path_122783" data-name="Path 122783" d="M226.292,245.221v13.626h-6.824a1.341,1.341,0,0,1-1.342-1.34V246.563a1.342,1.342,0,0,1,1.342-1.342Z" transform="translate(-218.126 -245.221)" fill="#d8b482"/>
        </g>
        <g id="Group_56187" data-name="Group 56187" transform="translate(8.166 6.811)">
          <path id="Path_122784" data-name="Path 122784" d="M256.046,246.563v10.945a1.34,1.34,0,0,1-1.34,1.34H247.77V245.221h6.936A1.342,1.342,0,0,1,256.046,246.563Z" transform="translate(-247.77 -245.221)" fill="#c8a977"/>
        </g>
        <g id="Group_56188" data-name="Group 56188" transform="translate(6.882 9.951)">
          <path id="Path_122785" data-name="Path 122785" d="M244.45,256.623a1.336,1.336,0,0,0-.7,2.473v1.047a.706.706,0,1,0,1.411,0V259.1a1.336,1.336,0,0,0-.7-2.473Z" transform="translate(-243.111 -256.622)" fill="#e2f2ef"/>
        </g>
        <g id="Group_56191" data-name="Group 56191" transform="translate(2.417 0)">
          <g id="Group_56189" data-name="Group 56189" transform="translate(0 0.003)">
            <path id="Path_122786" data-name="Path 122786" d="M232.654,220.5v1.513c-2.371.024-4.234,1.64-4.234,5.3H226.9C226.9,222.423,229.814,220.52,232.654,220.5Z" transform="translate(-226.9 -220.5)" fill="#d8b482"/>
          </g>
          <g id="Group_56190" data-name="Group 56190" transform="translate(5.752)">
            <path id="Path_122787" data-name="Path 122787" d="M253.631,227.307h-1.513c0-3.8-1.992-5.3-4.29-5.3h-.053v-1.513h.053C250.859,220.493,253.631,222.584,253.631,227.307Z" transform="translate(-247.774 -220.494)" fill="#c8a977"/>
          </g>
        </g>
      </g>
      <g id="Group_56194" data-name="Group 56194" transform="translate(19.458 18.174)">
        <g id="Group_56193" data-name="Group 56193" transform="translate(0)">
          <path id="Path_122788" data-name="Path 122788" d="M205.813,204.476a16,16,0,1,0,16,16,16,16,0,0,0-16-16Zm0,30.221a14.221,14.221,0,1,1,14.221-14.221A14.221,14.221,0,0,1,205.813,234.7Z" transform="translate(-189.81 -204.476)" fill="#005d63"/>
        </g>
      </g>
      <g id="Group_56195" data-name="Group 56195" transform="translate(10.651 1.952)">
        <path id="Path_122789" data-name="Path 122789" d="M168.277,171.422l-7.342-7.41,2.455-4.477-4.3-4.3,2.8-4.4-4.051-4.051,1.2-1.2,5.014,5.014-2.8,4.4,4.234,4.234-2.456,4.477,6.442,6.514Z" transform="translate(-157.84 -145.586)" fill="#005d63"/>
      </g>
      <g id="Group_56196" data-name="Group 56196" transform="translate(14.148 6.038)">
        <path id="Path_122790" data-name="Path 122790" d="M177.13,177.5l-2.694-2.7,2.588-4.611-6.493-6.493,1.2-1.2,7.4,7.4-2.589,4.607.586.586,5.41-5.408-.1-4.125-3.937-3.937,1.2-1.2,4.417,4.417.136,5.537Z" transform="translate(-170.531 -160.426)" fill="#005d63"/>
      </g>
      <g id="Group_56197" data-name="Group 56197" transform="translate(8.7 0)">
        <circle id="Ellipse_11173" data-name="Ellipse 11173" cx="1.886" cy="1.886" r="1.886" transform="translate(0 0)" fill="#c8a977"/>
      </g>
      <g id="Group_56198" data-name="Group 56198" transform="translate(33.823 1.785)">
        <path id="Path_122791" data-name="Path 122791" d="M245.73,146.866a1.886,1.886,0,1,1-1.886-1.886,1.886,1.886,0,0,1,1.886,1.886Z" transform="translate(-241.959 -144.98)" fill="#c8a977"/>
      </g>
      <g id="Group_56199" data-name="Group 56199" transform="translate(37.026 6.784)">
        <path id="Path_122792" data-name="Path 122792" d="M257.353,165.012a1.886,1.886,0,1,1-1.886-1.886A1.886,1.886,0,0,1,257.353,165.012Z" transform="translate(-253.582 -163.126)" fill="#c8a977"/>
      </g>
      <g id="Group_56200" data-name="Group 56200" transform="translate(42.645 10.133)">
        <rect id="Rectangle_14005" data-name="Rectangle 14005" width="14.779" height="1.697" transform="translate(0 10.449) rotate(-45)" fill="#005d63"/>
      </g>
      <g id="Group_56201" data-name="Group 56201" transform="translate(44.909 16.593)">
        <rect id="Rectangle_14006" data-name="Rectangle 14006" width="8.843" height="1.697" transform="translate(0 6.252) rotate(-45)" fill="#005d63"/>
      </g>
      <g id="Group_56202" data-name="Group 56202" transform="translate(52.343 8.311)">
        <path id="Path_122793" data-name="Path 122793" d="M312.406,171.9a1.886,1.886,0,1,1,0-2.666A1.886,1.886,0,0,1,312.406,171.9Z" transform="translate(-309.187 -168.677)" fill="#c8a977"/>
      </g>
      <g id="Group_56203" data-name="Group 56203" transform="translate(51.073 14.112)">
        <path id="Path_122794" data-name="Path 122794" d="M307.794,192.946a1.886,1.886,0,1,1,0-2.666A1.886,1.886,0,0,1,307.794,192.946Z" transform="translate(-304.575 -189.727)" fill="#c8a977"/>
      </g>
      <g id="Group_56204" data-name="Group 56204" transform="translate(31.091 10.207)">
        <rect id="Rectangle_14007" data-name="Rectangle 14007" width="1.697" height="8.843" fill="#005d63"/>
      </g>
      <g id="Group_56205" data-name="Group 56205" transform="translate(30.054 6.652)">
        <path id="Path_122795" data-name="Path 122795" d="M232.042,164.533a1.886,1.886,0,1,1-1.886-1.886,1.886,1.886,0,0,1,1.886,1.886Z" transform="translate(-228.271 -162.647)" fill="#c8a977"/>
      </g>
      <g id="Group_56206" data-name="Group 56206" transform="translate(34.347 48.694)">
        <rect id="Rectangle_14008" data-name="Rectangle 14008" width="1.697" height="14.779" fill="#005d63"/>
      </g>
      <g id="Group_56207" data-name="Group 56207" transform="translate(31.145 48.848)">
        <rect id="Rectangle_14009" data-name="Rectangle 14009" width="1.697" height="5.437" fill="#005d63"/>
      </g>
      <g id="Group_56208" data-name="Group 56208" transform="translate(33.31 62.342)">
        <path id="Path_122796" data-name="Path 122796" d="M240.092,366.7a1.886,1.886,0,1,1,1.885,1.886,1.886,1.886,0,0,1-1.885-1.886Z" transform="translate(-240.092 -364.811)" fill="#c8a977"/>
      </g>
      <g id="Group_56209" data-name="Group 56209" transform="translate(30.108 54.09)">
        <path id="Path_122797" data-name="Path 122797" d="M228.47,336.743a1.886,1.886,0,1,1,1.886,1.886,1.886,1.886,0,0,1-1.886-1.886Z" transform="translate(-228.47 -334.857)" fill="#c8a977"/>
      </g>
      <g id="Group_56210" data-name="Group 56210" transform="translate(38.118 48.848)">
        <rect id="Rectangle_14010" data-name="Rectangle 14010" width="1.697" height="8.843" fill="#005d63"/>
      </g>
      <g id="Group_56211" data-name="Group 56211" transform="translate(37.081 57.475)">
        <path id="Path_122798" data-name="Path 122798" d="M253.78,349.032a1.884,1.884,0,1,1,.552,1.334,1.886,1.886,0,0,1-.552-1.334Z" transform="translate(-253.78 -347.146)" fill="#c8a977"/>
      </g>
      <g id="Group_56212" data-name="Group 56212" transform="translate(5.433 33.329)">
        <rect id="Rectangle_14011" data-name="Rectangle 14011" width="14.779" height="1.697" fill="#005d63"/>
      </g>
      <g id="Group_56213" data-name="Group 56213" transform="translate(11.37 30.127)">
        <rect id="Rectangle_14012" data-name="Rectangle 14012" width="8.843" height="1.697" fill="#005d63"/>
      </g>
      <g id="Group_56214" data-name="Group 56214" transform="translate(2.794 32.291)">
        <path id="Path_122799" data-name="Path 122799" d="M131.2,255.724a1.886,1.886,0,1,1-1.885,1.885,1.886,1.886,0,0,1,1.885-1.885Z" transform="translate(-129.315 -255.724)" fill="#c8a977"/>
      </g>
      <g id="Group_56215" data-name="Group 56215" transform="translate(7.796 29.088)">
        <path id="Path_122800" data-name="Path 122800" d="M149.349,244.1a1.886,1.886,0,1,1-1.886,1.886,1.886,1.886,0,0,1,1.886-1.886Z" transform="translate(-147.463 -244.1)" fill="#c8a977"/>
      </g>
      <g id="Group_56216" data-name="Group 56216" transform="translate(3.555 37.099)">
        <rect id="Rectangle_14013" data-name="Rectangle 14013" width="16.658" height="1.697" fill="#005d63"/>
      </g>
      <g id="Group_56217" data-name="Group 56217" transform="translate(0 36.063)">
        <path id="Path_122801" data-name="Path 122801" d="M121.058,269.414a1.886,1.886,0,1,1-1.886,1.886,1.886,1.886,0,0,1,1.886-1.886Z" transform="translate(-119.172 -269.414)" fill="#c8a977"/>
      </g>
      <g id="Group_56218" data-name="Group 56218" transform="translate(20.277 4.2)">
        <path id="Path_122802" data-name="Path 122802" d="M196,154.3a1.886,1.886,0,1,1-2.666,0A1.886,1.886,0,0,1,196,154.3Z" transform="translate(-192.778 -153.745)" fill="#c8a977"/>
      </g>
      <g id="Group_56219" data-name="Group 56219" transform="translate(4.902 47.125)">
        <path id="Path_122803" data-name="Path 122803" d="M138.164,320.388l-1.2-1.2,5.014-5.014,4.4,2.8,4.234-4.234,4.477,2.456,5.626-5.626,1.628.776-6.948,6.948-4.477-2.455-4.3,4.3-4.406-2.8Z" transform="translate(-136.964 -309.57)" fill="#005d63"/>
      </g>
      <g id="Group_56220" data-name="Group 56220" transform="translate(8.992 40.724)">
        <path id="Path_122804" data-name="Path 122804" d="M155.078,300.061l-1.2-1.2,7.4-7.4,4.611,2.589.586-.586-5.408-5.41-4.125.1-3.937,3.938-1.2-1.2,4.417-4.417,5.537-.136,7.123,7.124-2.694,2.694-4.619-2.586Z" transform="translate(-151.807 -286.338)" fill="#005d63"/>
      </g>
      <g id="Group_56221" data-name="Group 56221" transform="translate(2.949 56.125)">
        <path id="Path_122805" data-name="Path 122805" d="M130.43,342.794a1.886,1.886,0,1,1,0,2.666,1.886,1.886,0,0,1,0-2.666Z" transform="translate(-129.878 -342.241)" fill="#c8a977"/>
      </g>
      <g id="Group_56222" data-name="Group 56222" transform="translate(7.149 44.548)">
        <path id="Path_122806" data-name="Path 122806" d="M145.675,300.77a1.886,1.886,0,1,1,0,2.666A1.886,1.886,0,0,1,145.675,300.77Z" transform="translate(-145.122 -300.217)" fill="#c8a977"/>
      </g>
      <g id="Group_56227" data-name="Group 56227" transform="translate(49.187 28.114)">
        <g id="Group_56223" data-name="Group 56223" transform="translate(0 0)">
          <path id="Path_122807" data-name="Path 122807" d="M321.923,252.243h-7.091l-1.131-5.09h-5.989l-1.43-4.9h-8.555v-1.7h9.828l1.43,4.9h6.079l1.131,5.09h5.73Z" transform="translate(-297.727 -240.554)" fill="#005d63"/>
        </g>
        <g id="Group_56224" data-name="Group 56224" transform="translate(2.94 3.011)">
          <path id="Path_122808" data-name="Path 122808" d="M318.666,265.4h-6.25l-4.008-3.816V251.5h3.812l1.43,5.09h9.189v1.7H312.369l-1.43-5.09h-.828v7.649l2.99,2.846h5.568Z" transform="translate(-308.408 -251.5)" fill="#005d63"/>
        </g>
        <g id="Group_56225" data-name="Group 56225" transform="translate(23.252 8.954)">
          <path id="Path_122809" data-name="Path 122809" d="M384.025,276.834a1.885,1.885,0,1,1,1.334-.552A1.886,1.886,0,0,1,384.025,276.834Z" transform="translate(-382.139 -273.063)" fill="#c8a977"/>
        </g>
        <g id="Group_56226" data-name="Group 56226" transform="translate(12.098 14.171)">
          <path id="Path_122810" data-name="Path 122810" d="M343.53,295.771a1.886,1.886,0,1,1,1.886-1.886A1.886,1.886,0,0,1,343.53,295.771Z" transform="translate(-341.644 -292)" fill="#c8a977"/>
        </g>
      </g>
      <g id="Group_56228" data-name="Group 56228" transform="translate(47.864 17.667)">
        <path id="Path_122811" data-name="Path 122811" d="M294.14,211.573l-1.212-1.194,7.583-7.726,3.021,1.555-.776,1.509-1.909-.977Z" transform="translate(-292.928 -202.653)" fill="#005d63"/>
      </g>
      <g id="Group_56229" data-name="Group 56229" transform="translate(56.195 18.097)">
        <path id="Path_122812" data-name="Path 122812" d="M326.387,207.413a1.886,1.886,0,1,1,0-2.666,1.886,1.886,0,0,1,0,2.666Z" transform="translate(-323.168 -204.194)" fill="#c8a977"/>
      </g>
      <g id="Group_56230" data-name="Group 56230" transform="translate(44.913 44.845)">
        <path id="Path_122813" data-name="Path 122813" d="M289.022,311.47l-1.509-.776.985-1.915-6.3-6.3,1.2-1.2,7.175,7.176Z" transform="translate(-282.201 -301.283)" fill="#005d63"/>
      </g>
      <g id="Group_56231" data-name="Group 56231" transform="translate(49.096 52.758)">
        <path id="Path_122814" data-name="Path 122814" d="M297.944,333.239a1.886,1.886,0,1,1,2.666,0A1.886,1.886,0,0,1,297.944,333.239Z" transform="translate(-297.391 -330.019)" fill="#c8a977"/>
      </g>
    </g>
  </g>
</svg>
