<svg xmlns="http://www.w3.org/2000/svg" width="97" height="97" viewBox="0 0 97 97">
  <g id="ico-6" transform="translate(0)">
    <g id="Group_56180" data-name="Group 56180" transform="translate(0 0)">
      <g id="Ellipse_11170" data-name="Ellipse 11170" transform="translate(0 0)" fill="#fafafa" stroke="#f8f8f8" stroke-width="2">
        <circle cx="48.5" cy="48.5" r="48.5" stroke="none"/>
        <circle cx="48.5" cy="48.5" r="47.5" fill="none"/>
      </g>
    </g>
    <g id="Group_56183" data-name="Group 56183" transform="translate(20.213 17.249)">
      <g id="Group_56181" data-name="Group 56181" transform="translate(20.977 8.342)">
        <path id="Path_122757" data-name="Path 122757" d="M282.242,290.659a10.812,10.812,0,0,0,3.181,2.862,7.958,7.958,0,0,0-3.181-2.862Z" transform="translate(-280.119 -273.437)" fill="#c8a977"/>
        <path id="Path_122758" data-name="Path 122758" d="M276.779,267.144a1.335,1.335,0,0,0-.725-1.742,9.788,9.788,0,0,0-2.678-.685,10.848,10.848,0,0,0,.413,2.762,7.49,7.49,0,0,1,1.248.392A1.335,1.335,0,0,0,276.779,267.144Z" transform="translate(-273.376 -253.709)" fill="#c8a977"/>
        <path id="Path_122759" data-name="Path 122759" d="M294.391,278.493a1.337,1.337,0,0,0-1.825,1.954,7.14,7.14,0,0,1,1.52,1.966c.543.886,1.06,1.772,1.527,2.705a10.909,10.909,0,0,0,2.829.373c.092,0,.185,0,.277-.006a32.253,32.253,0,0,0-2.357-4.465,9.662,9.662,0,0,0-1.972-2.527Z" transform="translate(-287.649 -263.912)" fill="#c8a977"/>
        <path id="Path_122760" data-name="Path 122760" d="M275.615,242.363a10.675,10.675,0,0,0-.977,2.545,15.216,15.216,0,0,1,8.284,4.994,19.131,19.131,0,0,1,4.374,8.166,10.706,10.706,0,0,0,2.533-.852,21.811,21.811,0,0,0-4.9-9.079A17.859,17.859,0,0,0,275.615,242.363Z" transform="translate(-274.339 -236.71)" fill="#c8a977"/>
        <path id="Path_122761" data-name="Path 122761" d="M299.057,232.531a21.672,21.672,0,0,0-10.1-7.849c-.21-.084-.415-.162-.62-.24a10.822,10.822,0,0,0-2.28,1.713c-.079.078-.155.158-.231.239.678.217,1.386.467,2.133.766a19.077,19.077,0,0,1,8.9,6.895,1.335,1.335,0,0,0,2.193-1.52Z" transform="translate(-282.844 -223.083)" fill="#c8a977"/>
        <path id="Path_122762" data-name="Path 122762" d="M340.618,271.96a1.335,1.335,0,0,0-.683,1.76,28.765,28.765,0,0,1,1.205,3.285l.217.708.172.568q.391-.319.76-.676a10.8,10.8,0,0,0,1.34-1.6,31.237,31.237,0,0,0-1.244-3.359,1.334,1.334,0,0,0-1.766-.681Z" transform="translate(-323.905 -259.131)" fill="#c8a977"/>
        <path id="Path_122763" data-name="Path 122763" d="M330.5,225.138a23.075,23.075,0,0,0-3.8-4.539,10.7,10.7,0,0,0-5.332-1.832,1.331,1.331,0,0,0,.551,1.488,22,22,0,0,1,9.088,12.277,10.866,10.866,0,0,0-.507-7.394Z" transform="translate(-309.834 -218.767)" fill="#c8a977"/>
      </g>
      <g id="Group_56182" data-name="Group 56182" transform="translate(0 0)">
        <path id="Path_122764" data-name="Path 122764" d="M228.834,335.9a1.175,1.175,0,0,0-2.333-.284c-.565,4.626-2.779,7.038-7.19,11.844l-.921,1.005a1.176,1.176,0,0,0,1.737,1.586l.918-1C225.492,344.2,228.178,341.278,228.834,335.9Z" transform="translate(-210.353 -298.498)" fill="#005d63"/>
        <path id="Path_122765" data-name="Path 122765" d="M301.11,333h.077a1.175,1.175,0,0,0,1.171-1.1c.029-.451.042-.895.038-1.321-.01-.925-.063-1.762-.148-2.526a15.915,15.915,0,0,1-2.434-.5,21.633,21.633,0,0,1,.232,3.051c0,.367-.008.751-.033,1.143a1.175,1.175,0,0,0,1.1,1.253Z" transform="translate(-272.505 -293.152)" fill="#005d63"/>
        <path id="Path_122766" data-name="Path 122766" d="M256.46,304.775a1.178,1.178,0,0,0,1.222-1.126,13.118,13.118,0,0,1,.651-3.8,15.867,15.867,0,0,1-1.583-2.21,13.587,13.587,0,0,0-1.417,5.918A1.175,1.175,0,0,0,256.46,304.775Z" transform="translate(-238.679 -270.399)" fill="#005d63"/>
        <path id="Path_122767" data-name="Path 122767" d="M274.043,357.743a1.175,1.175,0,0,0-1.422.86,28.348,28.348,0,0,1-7.632,13.474,1.175,1.175,0,0,0,1.619,1.7,30.756,30.756,0,0,0,8.3-14.615A1.175,1.175,0,0,0,274.043,357.743Z" transform="translate(-245.747 -316.081)" fill="#005d63"/>
        <path id="Path_122768" data-name="Path 122768" d="M217.365,282.917c.185-1.263.375-2.567.645-3.916a7.6,7.6,0,0,1,.707-2.04,15.931,15.931,0,0,1-.751-2.962,9.077,9.077,0,0,0-2.257,4.539c-.282,1.411-.477,2.744-.665,4.037-.769,5.26-1.432,9.8-7.675,15.595a1.175,1.175,0,0,0,1.6,1.723C215.814,293.541,216.567,288.38,217.365,282.917Z" transform="translate(-201.916 -252.428)" fill="#005d63"/>
        <path id="Path_122769" data-name="Path 122769" d="M296.114,329.773a16.351,16.351,0,0,1-1.792.1c-.187,0-.373-.008-.559-.014a27.469,27.469,0,0,1,.043,3.768c-.351,6.7-2.613,12.129-6.722,16.133a1.175,1.175,0,0,0,1.64,1.683c4.546-4.43,7.046-10.383,7.429-17.7a29.87,29.87,0,0,0-.039-3.974Z" transform="translate(-262.554 -294.838)" fill="#005d63"/>
        <path id="Path_122770" data-name="Path 122770" d="M205.487,301.323a1.175,1.175,0,0,0-2.291-.527c-1.064,4.626-2.25,8.66-6,11.182a1.177,1.177,0,0,0,1.311,1.954C202.965,310.931,204.353,306.255,205.487,301.323Z" transform="translate(-194.074 -272.11)" fill="#005d63"/>
        <path id="Path_122771" data-name="Path 122771" d="M229.355,252.572a28.54,28.54,0,0,0-1.4,4.2,1.175,1.175,0,0,0,2.273.594,26.3,26.3,0,0,1,1.281-3.863,7.406,7.406,0,0,1,2.2-2.9,16.042,16.042,0,0,1,.451-3.007A9.616,9.616,0,0,0,229.355,252.572Z" transform="translate(-217.832 -232.348)" fill="#005d63"/>
        <path id="Path_122772" data-name="Path 122772" d="M328.041,326.21a15.685,15.685,0,0,1-2.28.638.721.721,0,0,0,.013.093c.671,4.691.57,7.83-1.8,14.035a1.175,1.175,0,0,0,2.2.838c2.539-6.65,2.646-10.2,1.93-15.207C328.08,326.473,328.06,326.342,328.041,326.21Z" transform="translate(-290.817 -292.128)" fill="#005d63"/>
        <path id="Path_122773" data-name="Path 122773" d="M196.571,252.413c2.5-2.675,2.962-5.465,3.449-8.419a29.446,29.446,0,0,1,1.788-6.909,11.157,11.157,0,0,1,5.971-5.986,1.175,1.175,0,1,0-.927-2.159,13.494,13.494,0,0,0-7.215,7.246,31.407,31.407,0,0,0-1.936,7.426c-.464,2.816-.83,5.04-2.846,7.2a1.175,1.175,0,0,0,1.716,1.606Z" transform="translate(-192.449 -218.087)" fill="#005d63"/>
        <path id="Path_122774" data-name="Path 122774" d="M258,225.256a1.162,1.162,0,0,0,.38.676,15.778,15.778,0,0,1,1.355-2.138c-.257.029-.515.063-.772.109a1.175,1.175,0,0,0-.963,1.353Z" transform="translate(-240.696 -214.248)" fill="#005d63"/>
        <path id="Path_122775" data-name="Path 122775" d="M350.279,320.719l-.824-.837q-.485.308-.987.579a37.879,37.879,0,0,1-.446,9.212,1.176,1.176,0,0,0,.992,1.333,1.2,1.2,0,0,0,.172.013,1.176,1.176,0,0,0,1.161-1.005,47.148,47.148,0,0,0,.584-7.5A4.273,4.273,0,0,1,350.279,320.719Z" transform="translate(-309.154 -287.317)" fill="#005d63"/>
        <path id="Path_122776" data-name="Path 122776" d="M188.764,246.156c.771-3.583,1.73-8.033,4.471-10.84a1.175,1.175,0,0,0-1.681-1.643c-3.214,3.288-4.3,8.316-5.087,11.987-.208.965-.4,1.876-.609,2.62a1.175,1.175,0,0,0,2.265.626C188.346,248.1,188.549,247.155,188.764,246.156Z" transform="translate(-185.815 -221.492)" fill="#005d63"/>
        <path id="Path_122777" data-name="Path 122777" d="M220.555,208a1.175,1.175,0,0,0,1.512,1.8,17.406,17.406,0,0,1,11.282-4.092,15.851,15.851,0,0,1,3.04-2.047,21.054,21.054,0,0,0-2.28-.276A19.7,19.7,0,0,0,220.555,208Z" transform="translate(-211.914 -198.698)" fill="#005d63"/>
        <path id="Path_122778" data-name="Path 122778" d="M215.712,190.8a1.168,1.168,0,0,0,.7-.232,20.691,20.691,0,0,1,11.964-4.277,1.175,1.175,0,1,0-.042-2.349,23.023,23.023,0,0,0-13.325,4.741,1.176,1.176,0,0,0,.7,2.118Z" transform="translate(-207.656 -183.94)" fill="#005d63"/>
        <path id="Path_122779" data-name="Path 122779" d="M283.641,186.585a22.264,22.264,0,0,1,4.692,1.038,15.953,15.953,0,0,1,5.577-.021,25.255,25.255,0,0,0-10.018-3.353,1.175,1.175,0,1,0-.251,2.336Z" transform="translate(-259.407 -184.167)" fill="#005d63"/>
        <path id="Path_122780" data-name="Path 122780" d="M245.561,315.743a15.8,15.8,0,0,1-4.9-3.082c-.51,1.047-.869,3.04-.731,7.038.155,4.419-2.855,9.384-9.207,15.179a1.175,1.175,0,0,0,1.584,1.737c6.891-6.288,10.153-11.848,9.971-17a19.857,19.857,0,0,1,.315-5.394,11.387,11.387,0,0,1,.958,5.3c-.258,6.384-3.637,12.75-9.269,17.465a1.176,1.176,0,0,0,1.509,1.8c6.139-5.139,9.824-12.127,10.109-19.172a15.932,15.932,0,0,0-.336-3.876Z" transform="translate(-219.673 -281.827)" fill="#005d63"/>
        <path id="Path_122781" data-name="Path 122781" d="M305.454,247.268,288.039,229.58a2.8,2.8,0,0,0-2.063-.835l-2.056-2.088a14.49,14.49,0,0,0-21.6-19.215c-.224.217-.434.448-.642.678a14.428,14.428,0,0,0-3.562,7.867,14.5,14.5,0,0,0,4.041,11.946q.245.25.5.484a14.408,14.408,0,0,0,7.578,3.656,14.854,14.854,0,0,0,3.876.081,13.4,13.4,0,0,0,1.328-.217,14.566,14.566,0,0,0,5.754-2.6l1.039,1.055,1.016,1.033a2.8,2.8,0,0,0,.8,2.077L301.461,251.2a2.807,2.807,0,1,0,4-3.937Zm-27.925-18.347a12.243,12.243,0,0,1-16.046-16.529,12.147,12.147,0,0,1,1.637-2.513c.243-.288.5-.568.772-.837a12.284,12.284,0,0,1,1.549-1.29,12.245,12.245,0,0,1,16.476,17.819,12.4,12.4,0,0,1-.85.927,12.271,12.271,0,0,1-1.326,1.129,12.127,12.127,0,0,1-2.214,1.294Z" transform="translate(-240.704 -198.656)" fill="#005d63"/>
      </g>
    </g>
  </g>
</svg>
