<svg xmlns="http://www.w3.org/2000/svg" width="53.752" height="53.752" viewBox="0 0 53.752 53.752">
  <g id="aimIcon5" transform="translate(-1 -1)">
    <path id="Path_124949" data-name="Path 124949" d="M14.162,43.4h-6.6C3.863,43.4,2,41.538,2,37.838V7.563C2,3.863,3.863,2,7.563,2H18.69c3.7,0,5.563,1.863,5.563,5.563V12.35" fill="none" stroke="#7f1f3f" stroke-linecap="round" stroke-linejoin="round" stroke-width="2"/>
    <path id="Path_124950" data-name="Path 124950" d="M34.309,12.262V41.14c0,4.166-2.07,6.262-6.236,6.262H12.962C8.8,47.4,6.7,45.306,6.7,41.14V12.262C6.7,8.1,8.8,6,12.962,6H28.074C32.24,6,34.309,8.1,34.309,12.262Z" transform="translate(7.462 6.35)" fill="none" stroke="#7f1f3f" stroke-linecap="round" stroke-linejoin="round" stroke-width="2"/>
    <path id="Path_124951" data-name="Path 124951" d="M13.4,12.35V7.563C13.4,3.863,15.263,2,18.963,2H30.09c3.7,0,5.563,1.863,5.563,5.563V37.838c0,3.7-1.863,5.563-5.563,5.563H23.673" transform="translate(18.098)" fill="none" stroke="#7f1f3f" stroke-linecap="round" stroke-linejoin="round" stroke-width="2"/>
    <path id="Path_124952" data-name="Path 124952" d="M10,11H20.35" transform="translate(12.701 14.288)" fill="none" stroke="#7f1f3f" stroke-linecap="round" stroke-linejoin="round" stroke-width="2"/>
    <path id="Path_124953" data-name="Path 124953" d="M10,14H20.35" transform="translate(12.701 19.051)" fill="none" stroke="#7f1f3f" stroke-linecap="round" stroke-linejoin="round" stroke-width="2"/>
    <path id="Path_124954" data-name="Path 124954" d="M12,26.763V19" transform="translate(15.876 26.989)" fill="none" stroke="#7f1f3f" stroke-linecap="round" stroke-linejoin="round" stroke-width="2"/>
  </g>
</svg>
