<svg xmlns="http://www.w3.org/2000/svg" width="59" height="46" viewBox="0 0 59 46">
  <g id="aimIcon3" transform="translate(-1274 -2205.137)">
    <g id="Rectangle_16219" data-name="Rectangle 16219" transform="translate(1274 2205.137)" fill="none" stroke="#7f1f3f" stroke-width="2">
      <rect width="59" height="46" rx="5" stroke="none"/>
      <rect x="1" y="1" width="57" height="44" rx="4" fill="none"/>
    </g>
    <path id="Path_124945" data-name="Path 124945" d="M6.74,14.11h13.4" transform="translate(1303.712 2205.098)" fill="none" stroke="#7f1f3f" stroke-linecap="round" stroke-linejoin="round" stroke-width="2"/>
    <path id="Path_124946" data-name="Path 124946" d="M6.74,14.11h13.4" transform="translate(1303.712 2212.04)" fill="none" stroke="#7f1f3f" stroke-linecap="round" stroke-linejoin="round" stroke-width="2"/>
    <path id="Path_124947" data-name="Path 124947" d="M6.74,14.11h13.4" transform="translate(1303.712 2218.981)" fill="none" stroke="#7f1f3f" stroke-linecap="round" stroke-linejoin="round" stroke-width="2"/>
    <circle id="Ellipse_11717" data-name="Ellipse 11717" cx="7" cy="7" r="7" transform="translate(1288 2214.137)" fill="none" stroke="#7f1f3f" stroke-linecap="round" stroke-linejoin="round" stroke-width="2"/>
    <path id="Path_124948" data-name="Path 124948" d="M-13051.549-4191.782c3.154,0,4.858-1.875,6.564-1.363s2.473,1.7,3.581,3.75,1.193,5.457,0,5.968-20.29.085-20.887,0-1.79-3.732,0-6.546a6.31,6.31,0,0,1,4.924-3.172C-13056.262-4193.37-13054.7-4191.782-13051.549-4191.782Z" transform="translate(14347.338 6424.571)" fill="none" stroke="#7f1f3f" stroke-linecap="round" stroke-linejoin="round" stroke-width="2"/>
  </g>
</svg>
