<svg xmlns="http://www.w3.org/2000/svg" width="53.55" height="53.646" viewBox="0 0 53.55 53.646">
  <g id="aimIcon6" transform="translate(-1.002 -1)">
    <path id="Path_124955" data-name="Path 124955" d="M22.224,15.323a1.563,1.563,0,0,0-.491,0,6.674,6.674,0,1,1,.491,0Z" transform="translate(21.084 0)" fill="none" stroke="#7f1f3f" stroke-linecap="round" stroke-linejoin="round" stroke-width="2"/>
    <path id="Path_124956" data-name="Path 124956" d="M17.017,22.255A14.549,14.549,0,0,0,27.19,20.4c3.641-2.427,3.641-6.4,0-8.83A14.64,14.64,0,0,0,16.94,9.733" transform="translate(23.631 11.865)" fill="none" stroke="#7f1f3f" stroke-linecap="round" stroke-linejoin="round" stroke-width="2"/>
    <path id="Path_124957" data-name="Path 124957" d="M9.909,15.323a1.563,1.563,0,0,1,.491,0,6.674,6.674,0,1,0-.491,0Z" transform="translate(2.337 0)" fill="none" stroke="#7f1f3f" stroke-linecap="round" stroke-linejoin="round" stroke-width="2"/>
    <path id="Path_124958" data-name="Path 124958" d="M14.906,22.255A14.549,14.549,0,0,1,4.733,20.4c-3.641-2.427-3.641-6.4,0-8.83A14.64,14.64,0,0,1,14.983,9.733" transform="translate(0 11.865)" fill="none" stroke="#7f1f3f" stroke-linecap="round" stroke-linejoin="round" stroke-width="2"/>
    <path id="Path_124959" data-name="Path 124959" d="M16.224,22.793a1.563,1.563,0,0,0-.491,0,6.674,6.674,0,1,1,.491,0Z" transform="translate(11.592 11.818)" fill="none" stroke="#7f1f3f" stroke-linecap="round" stroke-linejoin="round" stroke-width="2"/>
    <path id="Path_124960" data-name="Path 124960" d="M10.763,19.038c-3.641,2.427-3.641,6.4,0,8.83a14.659,14.659,0,0,0,15.027,0c3.641-2.427,3.641-6.4,0-8.83A14.778,14.778,0,0,0,10.763,19.038Z" transform="translate(9.54 23.706)" fill="none" stroke="#7f1f3f" stroke-linecap="round" stroke-linejoin="round" stroke-width="2"/>
  </g>
</svg>
