<svg id="ArtworkSlider" xmlns="http://www.w3.org/2000/svg" xmlns:xlink="http://www.w3.org/1999/xlink" width="67" height="561" viewBox="0 0 67 561">
  <defs>
    <clipPath id="clip-path">
      <rect id="Rectangle_14366" data-name="Rectangle 14366" width="67" height="561" transform="translate(42)" fill="#fff" stroke="#707070" stroke-width="1"/>
    </clipPath>
  </defs>
  <g id="Mask_Group_27" data-name="Mask Group 27" transform="translate(-42)" clip-path="url(#clip-path)">
    <g id="Group_56807" data-name="Group 56807" transform="translate(-109.715 0.752)">
      <path id="Path_124393" data-name="Path 124393" d="M216.458,57.13,60.4,211.194v-1.529L0,269.3v3.723L218.68,57.13Z" transform="translate(0.004 204.472)" fill="#c9a06b"/>
      <path id="Path_124394" data-name="Path 124394" d="M216.458,59.381,60.4,213.45v-1.534L0,271.555v3.723L218.68,59.381Z" transform="translate(0.004 212.533)" fill="#c9a06b"/>
      <path id="Path_124395" data-name="Path 124395" d="M216.458,61.633,60.4,215.7v-1.529L0,273.806v3.727L218.68,61.633Z" transform="translate(0.004 220.59)" fill="#c9a06b"/>
      <path id="Path_124396" data-name="Path 124396" d="M216.458,32.358,60.4,186.422v-1.529L0,244.531v3.718L218.68,32.358Z" transform="translate(0.004 115.811)" fill="#c9a06b"/>
      <path id="Path_124397" data-name="Path 124397" d="M216.458,41.365,60.4,195.434V193.9L0,253.543v3.723L218.68,41.365Z" transform="translate(0.004 148.05)" fill="#c9a06b"/>
      <path id="Path_124398" data-name="Path 124398" d="M216.458,39.113,60.4,193.177v-1.529L0,251.286v3.723L218.68,39.113Z" transform="translate(0.004 139.989)" fill="#c9a06b"/>
      <path id="Path_124399" data-name="Path 124399" d="M216.458,36.862,60.4,190.926V189.4L0,249.035v3.727L218.68,36.862Z" transform="translate(0.004 131.932)" fill="#c9a06b"/>
      <path id="Path_124400" data-name="Path 124400" d="M216.458,34.61,60.4,188.679v-1.534L0,246.783v3.727L218.68,34.61Z" transform="translate(0.004 123.871)" fill="#c9a06b"/>
      <path id="Path_124401" data-name="Path 124401" d="M216.458,43.617,60.4,197.686v-1.529L0,255.795v3.718L218.68,43.617Z" transform="translate(0.004 156.11)" fill="#c9a06b"/>
      <path id="Path_124402" data-name="Path 124402" d="M216.458,54.877,60.4,208.946v-1.529L0,267.055v3.723L218.68,54.877Z" transform="translate(0.004 196.411)" fill="#c9a06b"/>
      <path id="Path_124403" data-name="Path 124403" d="M216.458,50.373,60.4,204.437v-1.529L0,262.546v3.723L218.68,50.373Z" transform="translate(0.004 180.289)" fill="#c9a06b"/>
      <path id="Path_124404" data-name="Path 124404" d="M216.458,52.625,60.4,206.689V205.16L0,264.8v3.727L218.68,52.625Z" transform="translate(0.004 188.35)" fill="#c9a06b"/>
      <path id="Path_124405" data-name="Path 124405" d="M216.458,45.87,60.4,199.934V198.4L0,258.043v3.718L218.68,45.87Z" transform="translate(0.004 164.172)" fill="#c9a06b"/>
      <path id="Path_124406" data-name="Path 124406" d="M216.458,3.082,60.4,157.151v-1.534L0,215.26v3.723L218.68,3.082Z" transform="translate(0.004 11.031)" fill="#c9a06b"/>
      <path id="Path_124407" data-name="Path 124407" d="M216.458,48.121,60.4,202.186v-1.529L0,260.295v3.718L218.68,48.121Z" transform="translate(0.004 172.232)" fill="#c9a06b"/>
      <path id="Path_124408" data-name="Path 124408" d="M30.743,0,0,30.36v3.723L34.518,0Z" transform="translate(0.004 0)" fill="#c9a06b"/>
      <path id="Path_124409" data-name="Path 124409" d="M41.188,0,0,40.672v3.723L44.963,0Z" transform="translate(0.004 0)" fill="#c9a06b"/>
      <path id="Path_124410" data-name="Path 124410" d="M0,0V3.147L3.187,0Z" transform="translate(0.003 0.004)" fill="#c9a06b"/>
      <path id="Path_124411" data-name="Path 124411" d="M51.637,0,0,50.979v3.732L55.413,0Z" transform="translate(0.003 0)" fill="#c9a06b"/>
      <path id="Path_124412" data-name="Path 124412" d="M9.857,0,0,9.74v3.718L13.632,0Z" transform="translate(0.003 0)" fill="#c9a06b"/>
      <path id="Path_124413" data-name="Path 124413" d="M20.3,0,0,20.048V23.77L24.077,0Z" transform="translate(0.003 0)" fill="#c9a06b"/>
      <path id="Path_124414" data-name="Path 124414" d="M94.971,0,60.408,34.119V32.59L0,92.228v3.727L97.188,0Z" transform="translate(0.003 0)" fill="#c9a06b"/>
      <path id="Path_124415" data-name="Path 124415" d="M84.522,0,60.408,23.807V22.278L0,81.916v3.727L86.748,0Z" transform="translate(0.004 0)" fill="#c9a06b"/>
      <path id="Path_124416" data-name="Path 124416" d="M63.636,0,60.407,3.187V1.658L0,61.3v3.723L65.853,0Z" transform="translate(0 0)" fill="#c9a06b"/>
      <path id="Path_124417" data-name="Path 124417" d="M74.077,0,60.4,13.5V11.966L0,71.6v3.718L76.3,0Z" transform="translate(0.004 0.004)" fill="#c9a06b"/>
      <path id="Path_124418" data-name="Path 124418" d="M216.458.83,60.4,154.894v-1.529L0,213v3.727L218.68.83Z" transform="translate(0.004 2.97)" fill="#c9a06b"/>
      <path id="Path_124419" data-name="Path 124419" d="M209.862,0,60.407,147.549V146.02L0,205.658v3.723L212.083,0Z" transform="translate(0 0.004)" fill="#c9a06b"/>
      <path id="Path_124420" data-name="Path 124420" d="M105.416,0,60.408,44.431V42.9L0,102.54v3.723L107.638,0Z" transform="translate(0.003 0)" fill="#c9a06b"/>
      <path id="Path_124421" data-name="Path 124421" d="M147.192,0,60.408,85.68V84.151L0,143.789v3.727L149.413,0Z" transform="translate(0.003 0)" fill="#c9a06b"/>
      <path id="Path_124422" data-name="Path 124422" d="M216.458,18.846,60.4,172.91v-1.529L0,231.019v3.718L218.68,18.846Z" transform="translate(0.004 67.453)" fill="#c9a06b"/>
      <path id="Path_124423" data-name="Path 124423" d="M216.458,7.586,60.4,161.651v-1.529L0,219.759v3.723L218.68,7.586Z" transform="translate(0.004 27.153)" fill="#c9a06b"/>
      <path id="Path_124424" data-name="Path 124424" d="M216.458,14.342,60.4,168.411v-1.534L0,226.519v3.718L218.68,14.342Z" transform="translate(0.004 51.331)" fill="#c9a06b"/>
      <path id="Path_124425" data-name="Path 124425" d="M216.458,9.838,60.4,163.9v-1.529L0,222.011v3.727L218.68,9.838Z" transform="translate(0.004 35.21)" fill="#c9a06b"/>
      <path id="Path_124426" data-name="Path 124426" d="M216.458,12.09,60.4,166.154v-1.529L0,224.263v3.723L218.68,12.09Z" transform="translate(0.004 43.27)" fill="#c9a06b"/>
      <path id="Path_124427" data-name="Path 124427" d="M216.458,16.594,60.4,170.662v-1.529L0,228.771v3.718L218.68,16.594Z" transform="translate(0.004 59.388)" fill="#c9a06b"/>
      <path id="Path_124428" data-name="Path 124428" d="M115.856,0,60.407,54.748V53.214L0,112.857v3.718L118.078,0Z" transform="translate(0 0)" fill="#c9a06b"/>
      <path id="Path_124429" data-name="Path 124429" d="M216.458,25.6,60.4,179.666v-1.529L0,237.775V241.5L218.68,25.6Z" transform="translate(0.004 91.631)" fill="#c9a06b"/>
      <path id="Path_124430" data-name="Path 124430" d="M216.458,23.35,60.4,177.414v-1.529L0,235.523v3.723L218.68,23.35Z" transform="translate(0.004 83.571)" fill="#c9a06b"/>
      <path id="Path_124431" data-name="Path 124431" d="M216.458,21.1,60.4,175.162v-1.529L0,233.271v3.723L218.68,21.1Z" transform="translate(0.004 75.51)" fill="#c9a06b"/>
      <path id="Path_124432" data-name="Path 124432" d="M216.458,27.853,60.4,181.922v-1.534L0,240.031v3.723L218.68,27.853Z" transform="translate(0.004 99.689)" fill="#c9a06b"/>
      <path id="Path_124433" data-name="Path 124433" d="M157.636,0,60.408,95.988V94.459L0,154.1v3.727L159.858,0Z" transform="translate(0.003 0.004)" fill="#c9a06b"/>
      <path id="Path_124434" data-name="Path 124434" d="M136.751,0,60.408,75.368V73.838L0,133.477V137.2L138.968,0Z" transform="translate(0.003 0)" fill="#c9a06b"/>
      <path id="Path_124435" data-name="Path 124435" d="M216.458,30.105,60.4,184.174v-1.529L0,242.283v3.723L218.68,30.105Z" transform="translate(0.004 107.749)" fill="#c9a06b"/>
      <path id="Path_124436" data-name="Path 124436" d="M216.458,5.334,60.4,159.4v-1.529L0,217.511v3.723L218.68,5.334Z" transform="translate(0.004 19.088)" fill="#c9a06b"/>
      <path id="Path_124437" data-name="Path 124437" d="M126.3,0,60.408,65.056V63.531L0,123.165v3.723L128.519,0Z" transform="translate(0.004 0)" fill="#c9a06b"/>
      <path id="Path_124438" data-name="Path 124438" d="M168.078,0,60.4,106.3v-1.529L0,164.413v3.727L170.3,0Z" transform="translate(0.004 0)" fill="#c9a06b"/>
      <path id="Path_124439" data-name="Path 124439" d="M188.972,0,60.408,126.925V125.4L0,185.034v3.723L191.194,0Z" transform="translate(0.003 0.004)" fill="#c9a06b"/>
      <path id="Path_124440" data-name="Path 124440" d="M199.417,0,60.408,137.241v-1.529L0,195.35v3.727L201.638,0Z" transform="translate(0.003 0)" fill="#c9a06b"/>
      <path id="Path_124441" data-name="Path 124441" d="M178.523,0,60.408,116.616v-1.529L0,174.725v3.723L180.749,0Z" transform="translate(0.004 0)" fill="#c9a06b"/>
      <path id="Path_124442" data-name="Path 124442" d="M178.057,86.4,22.007,240.469v-1.534L10.556,250.25h3.766L180.283,86.4Z" transform="translate(38.4 309.251)" fill="#c9a06b"/>
      <path id="Path_124443" data-name="Path 124443" d="M186.253,84.153,30.2,238.217v-1.529L8.3,258.31h3.775L188.48,84.153Z" transform="translate(30.205 301.191)" fill="#c9a06b"/>
      <path id="Path_124444" data-name="Path 124444" d="M168.652,88.657,13.141,242.19h2.222L170.878,88.657Z" transform="translate(47.805 317.312)" fill="#c9a06b"/>
      <path id="Path_124445" data-name="Path 124445" d="M160.459,90.908,15.393,234.134h2.222L162.685,90.908Z" transform="translate(55.998 325.369)" fill="#c9a06b"/>
      <path id="Path_124446" data-name="Path 124446" d="M194.446,81.9,38.4,235.965v-1.534L6.051,266.371H9.826L196.673,81.9Z" transform="translate(22.011 293.134)" fill="#c9a06b"/>
      <path id="Path_124447" data-name="Path 124447" d="M210.829,77.4,54.779,231.465v-1.529L1.547,282.49H5.314L213.055,77.4Z" transform="translate(5.628 277.012)" fill="#c9a06b"/>
      <path id="Path_124448" data-name="Path 124448" d="M152.266,93.161,17.645,226.07h2.226L154.492,93.161Z" transform="translate(64.192 333.434)" fill="#c9a06b"/>
      <path id="Path_124449" data-name="Path 124449" d="M216.458,72.894,60.4,226.958v-1.534L0,285.063v3.723L218.68,72.894Z" transform="translate(0.004 260.894)" fill="#c9a06b"/>
      <path id="Path_124450" data-name="Path 124450" d="M216.458,68.389,60.4,222.457v-1.529L0,280.566v3.723L218.68,68.389Z" transform="translate(0.004 244.768)" fill="#c9a06b"/>
      <path id="Path_124451" data-name="Path 124451" d="M202.639,79.649,46.59,233.714v-1.529L3.8,274.431H7.569l197.3-194.782Z" transform="translate(13.818 285.073)" fill="#c9a06b"/>
      <path id="Path_124452" data-name="Path 124452" d="M216.462,75.145,60.407,229.214V227.68L0,287.323v3.228H.5L218.683,75.145Z" transform="translate(0 268.951)" fill="#c9a06b"/>
      <path id="Path_124453" data-name="Path 124453" d="M216.458,66.137,60.4,220.206v-1.534L0,278.314v3.723L218.68,66.137Z" transform="translate(0.004 236.711)" fill="#c9a06b"/>
      <path id="Path_124454" data-name="Path 124454" d="M216.458,70.641,60.4,224.705v-1.529L0,282.814v3.718L218.68,70.641Z" transform="translate(0.004 252.833)" fill="#c9a06b"/>
      <path id="Path_124455" data-name="Path 124455" d="M70.332,115.681,40.166,145.463h2.222l30.171-29.783Z" transform="translate(146.126 414.035)" fill="#c9a06b"/>
      <path id="Path_124456" data-name="Path 124456" d="M144.069,95.413,19.9,218.009h2.222L146.3,95.413Z" transform="translate(72.386 341.491)" fill="#c9a06b"/>
      <path id="Path_124457" data-name="Path 124457" d="M78.529,113.428l-40.616,40.1h2.226l40.616-40.1Z" transform="translate(137.928 405.97)" fill="#c9a06b"/>
      <path id="Path_124458" data-name="Path 124458" d="M62.139,117.932,42.418,137.407h2.217l19.731-19.475Z" transform="translate(154.32 422.091)" fill="#c9a06b"/>
      <path id="Path_124459" data-name="Path 124459" d="M216.458,63.885,60.4,217.949V216.42L0,276.058v3.727L218.68,63.885Z" transform="translate(0.004 228.65)" fill="#c9a06b"/>
      <path id="Path_124460" data-name="Path 124460" d="M53.949,120.184l-9.281,9.163H46.89l9.286-9.163Z" transform="translate(162.509 430.153)" fill="#c9a06b"/>
      <path id="Path_124461" data-name="Path 124461" d="M86.722,111.176,35.661,161.588h2.222l51.066-50.411Z" transform="translate(129.734 397.913)" fill="#c9a06b"/>
      <path id="Path_124462" data-name="Path 124462" d="M119.494,102.168,26.653,193.833h2.226l92.841-91.665Z" transform="translate(96.963 365.67)" fill="#c9a06b"/>
      <path id="Path_124463" data-name="Path 124463" d="M94.915,108.925,33.409,169.648H35.63l61.511-60.724Z" transform="translate(121.544 389.852)" fill="#c9a06b"/>
      <path id="Path_124464" data-name="Path 124464" d="M135.876,97.665,22.15,209.949h2.217L138.1,97.665Z" transform="translate(80.58 349.552)" fill="#c9a06b"/>
      <path id="Path_124465" data-name="Path 124465" d="M127.687,99.916,24.4,201.893h2.222L129.913,99.916Z" transform="translate(88.773 357.612)" fill="#c9a06b"/>
      <path id="Path_124466" data-name="Path 124466" d="M103.1,106.673,31.158,177.7h2.217l71.956-71.031Z" transform="translate(113.355 381.792)" fill="#c9a06b"/>
      <path id="Path_124467" data-name="Path 124467" d="M111.3,104.421,28.906,185.764h2.222l82.4-81.343Z" transform="translate(105.161 373.734)" fill="#c9a06b"/>
    </g>
  </g>
</svg>
