<svg xmlns="http://www.w3.org/2000/svg" xmlns:xlink="http://www.w3.org/1999/xlink" width="472" height="563" viewBox="0 0 472 563">
  <defs>
    <clipPath id="clip-path">
      <rect id="Rectangle_14327" data-name="Rectangle 14327" width="472" height="563" transform="translate(0 2349)" fill="#fff" stroke="#707070" stroke-width="1"/>
    </clipPath>
    <clipPath id="clip-path-2">
      <rect id="Rectangle_14262" data-name="Rectangle 14262" width="110.052" height="60.981" fill="none" stroke="#c7af81" stroke-width="1"/>
    </clipPath>
    <clipPath id="clip-path-3">
      <rect id="Rectangle_14263" data-name="Rectangle 14263" width="110.052" height="365.068" fill="none" stroke="#c7af81" stroke-width="1"/>
    </clipPath>
    <clipPath id="clip-path-4">
      <rect id="Rectangle_14264" data-name="Rectangle 14264" width="110.052" height="136.952" fill="none" stroke="#c7af81" stroke-width="1"/>
    </clipPath>
    <clipPath id="clip-path-5">
      <rect id="Rectangle_14265" data-name="Rectangle 14265" width="232.164" height="60.981" fill="none" stroke="#c7af81" stroke-width="1"/>
    </clipPath>
    <clipPath id="clip-path-6">
      <rect id="Rectangle_14266" data-name="Rectangle 14266" width="232.164" height="365.068" fill="none" stroke="#c7af81" stroke-width="1"/>
    </clipPath>
    <clipPath id="clip-path-7">
      <rect id="Rectangle_14267" data-name="Rectangle 14267" width="232.164" height="136.952" fill="none" stroke="#c7af81" stroke-width="1"/>
    </clipPath>
    <clipPath id="clip-path-8">
      <rect id="Rectangle_14268" data-name="Rectangle 14268" width="232.159" height="60.981" fill="none" stroke="#c7af81" stroke-width="1"/>
    </clipPath>
    <clipPath id="clip-path-9">
      <rect id="Rectangle_14269" data-name="Rectangle 14269" width="232.159" height="365.068" fill="none" stroke="#c7af81" stroke-width="1"/>
    </clipPath>
    <clipPath id="clip-path-10">
      <rect id="Rectangle_14270" data-name="Rectangle 14270" width="232.159" height="136.952" fill="none" stroke="#c7af81" stroke-width="1"/>
    </clipPath>
    <clipPath id="clip-path-17">
      <rect id="Rectangle_14277" data-name="Rectangle 14277" width="110.64" height="60.981" fill="none" stroke="#c7af81" stroke-width="1"/>
    </clipPath>
    <clipPath id="clip-path-18">
      <rect id="Rectangle_14278" data-name="Rectangle 14278" width="110.64" height="365.068" fill="none" stroke="#c7af81" stroke-width="1"/>
    </clipPath>
    <clipPath id="clip-path-19">
      <rect id="Rectangle_14279" data-name="Rectangle 14279" width="110.64" height="136.952" fill="none" stroke="#c7af81" stroke-width="1"/>
    </clipPath>
  </defs>
  <g id="Artwork002" transform="translate(0 -2349)" clip-path="url(#clip-path)">
    <g id="Artwork02" transform="translate(-677.181 2349)" opacity="0.55">
      <g id="Group_56486" data-name="Group 56486" transform="translate(1039.285)">
        <g id="Group_56485" data-name="Group 56485" clip-path="url(#clip-path-2)">
          <path id="Path_124119" data-name="Path 124119" d="M248.669,218.957V23.8a12.1,12.1,0,0,1,8.688-11.6L298.31.165,339.263,12.2a12.093,12.093,0,0,1,8.688,11.6V218.957M305.384,367.871V280.524a12.091,12.091,0,0,1,8.688-11.6L355.025,256.9l40.953,12.034a12.091,12.091,0,0,1,8.688,11.6v87.681m-214.036-.335V280.524a12.091,12.091,0,0,1,8.688-11.6L240.272,256.9l40.953,12.034a12.091,12.091,0,0,1,8.688,11.6v87.347m-41.228,33.617V206.33a12.093,12.093,0,0,1,8.688-11.6L298.327,182.7,339.28,194.73a12.093,12.093,0,0,1,8.688,11.6V401.488" transform="translate(-240.272 -222.95)" fill="none" stroke="#c7af81" stroke-miterlimit="10" stroke-width="1"/>
        </g>
      </g>
      <g id="Group_56488" data-name="Group 56488" transform="translate(1039.285 60.981)">
        <g id="Group_56487" data-name="Group 56487" clip-path="url(#clip-path-3)">
          <path id="Path_124120" data-name="Path 124120" d="M306.471,218.62V131.273a12.093,12.093,0,0,1,8.688-11.6l40.953-12.034,40.953,12.034a12.093,12.093,0,0,1,8.688,11.6v87.681m-214.035-.335V131.273a12.093,12.093,0,0,1,8.688-11.6l40.953-12.034,40.953,12.034a12.093,12.093,0,0,1,8.688,11.6V218.62m-41.228,33.617V57.074a12.091,12.091,0,0,1,8.688-11.6l40.953-12.034,40.953,12.034a12.091,12.091,0,0,1,8.688,11.6V252.237M190.389,401.151V313.8a12.1,12.1,0,0,1,8.688-11.6l40.953-12.028L280.983,302.2a12.1,12.1,0,0,1,8.688,11.6v87.681m18.129-.335V313.8a12.1,12.1,0,0,1,8.688-11.6l40.953-12.028L398.394,302.2a12.1,12.1,0,0,1,8.688,11.6v87.347M249.756,434.768V239.611a12.1,12.1,0,0,1,8.688-11.6L299.4,215.976l40.953,12.034a12.093,12.093,0,0,1,8.688,11.6V434.768M306.471,583.682V496.336a12.091,12.091,0,0,1,8.688-11.6l40.953-12.034,40.953,12.034a12.091,12.091,0,0,1,8.688,11.6v87.681m-214.035-.335V496.336a12.091,12.091,0,0,1,8.688-11.6l40.953-12.034,40.953,12.034a12.091,12.091,0,0,1,8.688,11.6v87.347M249.773,617.3V422.142a12.093,12.093,0,0,1,8.688-11.6l40.953-12.034,40.953,12.034a12.093,12.093,0,0,1,8.688,11.6V617.3" transform="translate(-241.359 -134.674)" fill="none" stroke="#c7af81" stroke-miterlimit="10" stroke-width="1"/>
        </g>
      </g>
      <g id="Group_56490" data-name="Group 56490" transform="translate(1039.285 426.048)">
        <g id="Group_56489" data-name="Group 56489" clip-path="url(#clip-path-4)">
          <path id="Path_124121" data-name="Path 124121" d="M305.384,285.178V197.831a12.086,12.086,0,0,1,8.688-11.6L355.025,174.2l40.953,12.034a12.093,12.093,0,0,1,8.688,11.6v87.681m-214.036-.334V197.831a12.086,12.086,0,0,1,8.688-11.6L240.272,174.2l40.953,12.034a12.093,12.093,0,0,1,8.688,11.6v87.347m-41.228,33.617V123.637a12.093,12.093,0,0,1,8.688-11.6L298.327,100l40.953,12.034a12.1,12.1,0,0,1,8.688,11.6V318.795m-99.3,182.531V306.168a12.093,12.093,0,0,1,8.688-11.6L298.31,282.54l40.953,12.028a12.093,12.093,0,0,1,8.688,11.6V501.326" transform="translate(-240.272 -201.237)" fill="none" stroke="#c7af81" stroke-miterlimit="10" stroke-width="1"/>
        </g>
      </g>
      <g id="Group_56492" data-name="Group 56492" transform="translate(807.121)">
        <g id="Group_56491" data-name="Group 56491" clip-path="url(#clip-path-5)">
          <path id="Path_124122" data-name="Path 124122" d="M322.494,218.957V23.8a12.1,12.1,0,0,1,8.683-11.6L372.135.165,413.088,12.2a12.093,12.093,0,0,1,8.688,11.6V218.957m-215.381,0V23.8a12.093,12.093,0,0,1,8.688-11.6L256.036.165,296.989,12.2a12.093,12.093,0,0,1,8.688,11.6V218.957M263.11,367.871V280.524a12.091,12.091,0,0,1,8.688-11.6L312.751,256.9,353.7,268.929a12.091,12.091,0,0,1,8.688,11.6v87.681m-214.035-.335V280.524a12.091,12.091,0,0,1,8.688-11.6L198,256.9l40.959,12.034a12.093,12.093,0,0,1,8.683,11.6v87.347m-41.228,33.617V206.33a12.093,12.093,0,0,1,8.688-11.6L256.053,182.7l40.953,12.034a12.093,12.093,0,0,1,8.688,11.6V401.488m74.822-33.617V280.524a12.1,12.1,0,0,1,8.694-11.6L430.162,256.9l40.953,12.034a12.093,12.093,0,0,1,8.683,11.6v87.347M322.483,401.488V206.33a12.088,12.088,0,0,1,8.683-11.6L372.118,182.7l40.953,12.034a12.093,12.093,0,0,1,8.688,11.6V401.488" transform="translate(-197.998 -222.95)" fill="none" stroke="#c7af81" stroke-miterlimit="10" stroke-width="1"/>
        </g>
      </g>
      <g id="Group_56494" data-name="Group 56494" transform="translate(807.121 60.981)">
        <g id="Group_56493" data-name="Group 56493" clip-path="url(#clip-path-6)">
          <path id="Path_124123" data-name="Path 124123" d="M264.2,218.62V131.273a12.093,12.093,0,0,1,8.688-11.6l40.953-12.034,40.953,12.034a12.093,12.093,0,0,1,8.688,11.6v87.681m-214.036-.335V131.273a12.093,12.093,0,0,1,8.688-11.6l40.953-12.034,40.959,12.034a12.1,12.1,0,0,1,8.683,11.6V218.62M207.5,252.237V57.074a12.091,12.091,0,0,1,8.688-11.6L257.14,33.445l40.953,12.034a12.091,12.091,0,0,1,8.688,11.6V252.237M381.6,218.62V131.273a12.1,12.1,0,0,1,8.694-11.6l40.953-12.034L472.2,119.673a12.1,12.1,0,0,1,8.683,11.6V218.62M323.57,252.237V57.074a12.086,12.086,0,0,1,8.683-11.6l40.953-12.034,40.953,12.034a12.091,12.091,0,0,1,8.688,11.6V252.237M148.115,401.151V313.8a12.1,12.1,0,0,1,8.688-11.6l40.953-12.028L238.709,302.2a12.1,12.1,0,0,1,8.688,11.6v87.681m132.882-.335V313.8a12.1,12.1,0,0,1,8.688-11.6l40.953-12.028L470.873,302.2a12.1,12.1,0,0,1,8.688,11.6v87.681m-214.035-.335V313.8a12.1,12.1,0,0,1,8.688-11.6l40.953-12.028L356.12,302.2a12.1,12.1,0,0,1,8.688,11.6v87.347m-41.228,33.617V239.611a12.1,12.1,0,0,1,8.683-11.6l40.959-12.034,40.953,12.034a12.093,12.093,0,0,1,8.688,11.6V434.768m-215.381,0V239.611a12.093,12.093,0,0,1,8.688-11.6l40.953-12.034,40.953,12.034a12.093,12.093,0,0,1,8.688,11.6V434.768M264.2,583.682V496.336a12.091,12.091,0,0,1,8.688-11.6l40.953-12.034,40.953,12.034a12.091,12.091,0,0,1,8.688,11.6v87.681m-214.036-.335V496.336a12.091,12.091,0,0,1,8.688-11.6l40.953-12.034,40.959,12.034a12.093,12.093,0,0,1,8.683,11.6v87.347M207.5,617.3V422.142a12.093,12.093,0,0,1,8.688-11.6l40.953-12.034,40.953,12.034a12.093,12.093,0,0,1,8.688,11.6V617.3M381.6,583.682V496.336a12.1,12.1,0,0,1,8.694-11.6l40.953-12.034L472.2,484.741a12.093,12.093,0,0,1,8.683,11.6v87.347M323.57,617.3V422.142a12.088,12.088,0,0,1,8.683-11.6l40.953-12.034,40.953,12.034a12.093,12.093,0,0,1,8.688,11.6V617.3" transform="translate(-199.085 -134.674)" fill="none" stroke="#c7af81" stroke-miterlimit="10" stroke-width="1"/>
        </g>
      </g>
      <g id="Group_56496" data-name="Group 56496" transform="translate(807.121 426.048)">
        <g id="Group_56495" data-name="Group 56495" clip-path="url(#clip-path-7)">
          <path id="Path_124124" data-name="Path 124124" d="M263.111,285.178V197.831a12.086,12.086,0,0,1,8.688-11.6L312.752,174.2l40.953,12.034a12.093,12.093,0,0,1,8.688,11.6v87.681m-214.035-.334V197.831a12.086,12.086,0,0,1,8.688-11.6L198,174.2l40.953,12.034a12.086,12.086,0,0,1,8.688,11.6v87.347m-41.228,33.617V123.637a12.093,12.093,0,0,1,8.688-11.6L256.054,100l40.953,12.034a12.1,12.1,0,0,1,8.688,11.6V318.795m74.821-33.617V197.831a12.086,12.086,0,0,1,8.688-11.6L430.158,174.2l40.953,12.034a12.086,12.086,0,0,1,8.688,11.6v87.347M322.478,318.795V123.637a12.093,12.093,0,0,1,8.688-11.6L372.119,100l40.953,12.034a12.093,12.093,0,0,1,8.688,11.6V318.795M322.489,501.326V306.168a12.1,12.1,0,0,1,8.688-11.6L372.13,282.54l40.959,12.028a12.1,12.1,0,0,1,8.683,11.6V501.326m-215.375,0V306.168a12.093,12.093,0,0,1,8.688-11.6l40.953-12.028,40.953,12.028a12.093,12.093,0,0,1,8.688,11.6V501.326" transform="translate(-197.994 -201.237)" fill="none" stroke="#c7af81" stroke-miterlimit="10" stroke-width="1"/>
        </g>
      </g>
      <g id="Group_56498" data-name="Group 56498" transform="translate(574.967)">
        <g id="Group_56497" data-name="Group 56497" clip-path="url(#clip-path-8)">
          <path id="Path_124125" data-name="Path 124125" d="M280.221,218.957V23.8A12.1,12.1,0,0,1,288.9,12.2L329.862.165,370.815,12.2A12.1,12.1,0,0,1,379.5,23.8V218.957m-215.376,0V23.8a12.093,12.093,0,0,1,8.688-11.6L213.763.165,254.716,12.2A12.093,12.093,0,0,1,263.4,23.8V218.957M220.837,367.871V280.524a12.091,12.091,0,0,1,8.688-11.6L270.478,256.9l40.953,12.034a12.091,12.091,0,0,1,8.688,11.6v87.681m-214.036-.335V280.524a12.091,12.091,0,0,1,8.688-11.6L155.725,256.9l40.953,12.034a12.091,12.091,0,0,1,8.688,11.6v87.347m-41.228,33.617V206.33a12.093,12.093,0,0,1,8.688-11.6L213.78,182.7l40.953,12.034a12.093,12.093,0,0,1,8.688,11.6V401.488m74.821-33.617V280.524a12.1,12.1,0,0,1,8.694-11.6L387.884,256.9l40.958,12.034a12.093,12.093,0,0,1,8.683,11.6v87.347M280.2,401.488V206.33a12.093,12.093,0,0,1,8.688-11.6L329.846,182.7,370.8,194.73a12.093,12.093,0,0,1,8.688,11.6V401.488" transform="translate(-155.731 -222.95)" fill="none" stroke="#c7af81" stroke-miterlimit="10" stroke-width="1"/>
        </g>
      </g>
      <g id="Group_56500" data-name="Group 56500" transform="translate(574.967 60.981)">
        <g id="Group_56499" data-name="Group 56499" clip-path="url(#clip-path-9)">
          <path id="Path_124126" data-name="Path 124126" d="M221.924,218.62V131.273a12.093,12.093,0,0,1,8.688-11.6l40.953-12.034,40.953,12.034a12.093,12.093,0,0,1,8.688,11.6v87.681m-214.035-.335V131.273a12.093,12.093,0,0,1,8.688-11.6l40.953-12.034,40.953,12.034a12.093,12.093,0,0,1,8.688,11.6V218.62m-41.228,33.617V57.074a12.091,12.091,0,0,1,8.688-11.6l40.953-12.034L255.82,45.479a12.091,12.091,0,0,1,8.688,11.6V252.237M339.33,218.62V131.273a12.1,12.1,0,0,1,8.694-11.6l40.947-12.034,40.959,12.034a12.1,12.1,0,0,1,8.683,11.6V218.62M281.291,252.237V57.074a12.091,12.091,0,0,1,8.688-11.6l40.953-12.034,40.953,12.034a12.091,12.091,0,0,1,8.688,11.6V252.237M105.842,401.151V313.8a12.1,12.1,0,0,1,8.688-11.6l40.953-12.028L196.436,302.2a12.1,12.1,0,0,1,8.688,11.6v87.681m132.882-.335V313.8a12.1,12.1,0,0,1,8.683-11.6l40.959-12.028L428.6,302.2a12.1,12.1,0,0,1,8.688,11.6v87.681m-214.035-.335V313.8a12.1,12.1,0,0,1,8.683-11.6l40.959-12.028L313.847,302.2a12.1,12.1,0,0,1,8.688,11.6v87.347m-41.228,33.617V239.611a12.1,12.1,0,0,1,8.683-11.6l40.958-12.034L371.9,228.01a12.1,12.1,0,0,1,8.683,11.6V434.768m-215.376,0V239.611a12.093,12.093,0,0,1,8.688-11.6l40.953-12.034L255.8,228.01a12.093,12.093,0,0,1,8.688,11.6V434.768M221.924,583.682V496.336a12.091,12.091,0,0,1,8.688-11.6l40.953-12.034,40.953,12.034a12.091,12.091,0,0,1,8.688,11.6v87.681m-214.035-.335V496.336a12.091,12.091,0,0,1,8.688-11.6l40.953-12.034,40.953,12.034a12.091,12.091,0,0,1,8.688,11.6v87.347M165.226,617.3V422.142a12.093,12.093,0,0,1,8.688-11.6l40.953-12.034,40.953,12.034a12.093,12.093,0,0,1,8.688,11.6V617.3m74.821-33.617V496.336a12.1,12.1,0,0,1,8.694-11.6l40.947-12.034,40.959,12.034a12.093,12.093,0,0,1,8.683,11.6v87.347M281.291,617.3V422.142a12.093,12.093,0,0,1,8.688-11.6l40.953-12.034,40.953,12.034a12.093,12.093,0,0,1,8.688,11.6V617.3" transform="translate(-156.818 -134.674)" fill="none" stroke="#c7af81" stroke-miterlimit="10" stroke-width="1"/>
        </g>
      </g>
      <g id="Group_56502" data-name="Group 56502" transform="translate(574.967 426.048)">
        <g id="Group_56501" data-name="Group 56501" clip-path="url(#clip-path-10)">
          <path id="Path_124127" data-name="Path 124127" d="M220.837,285.178V197.831a12.086,12.086,0,0,1,8.688-11.6L270.478,174.2l40.953,12.034a12.093,12.093,0,0,1,8.688,11.6v87.681m-214.036-.334V197.831a12.086,12.086,0,0,1,8.688-11.6L155.725,174.2l40.953,12.034a12.093,12.093,0,0,1,8.688,11.6v87.347m-41.228,33.617V123.637a12.093,12.093,0,0,1,8.688-11.6L213.78,100l40.953,12.034a12.1,12.1,0,0,1,8.688,11.6V318.795m74.821-33.617V197.831a12.087,12.087,0,0,1,8.688-11.6L387.884,174.2l40.958,12.034a12.088,12.088,0,0,1,8.683,11.6v87.347M280.2,318.795V123.637a12.093,12.093,0,0,1,8.688-11.6L329.846,100,370.8,112.037a12.093,12.093,0,0,1,8.688,11.6V318.795M280.215,501.326V306.168a12.093,12.093,0,0,1,8.688-11.6l40.953-12.028,40.958,12.028a12.1,12.1,0,0,1,8.683,11.6V501.326m-215.376,0V306.168a12.093,12.093,0,0,1,8.688-11.6l40.953-12.028,40.953,12.028a12.093,12.093,0,0,1,8.688,11.6V501.326" transform="translate(-155.731 -201.237)" fill="none" stroke="#c7af81" stroke-miterlimit="10" stroke-width="1"/>
        </g>
      </g>
      <g id="Group_56504" data-name="Group 56504" transform="translate(342.804)">
        <g id="Group_56503" data-name="Group 56503" clip-path="url(#clip-path-5)">
          <path id="Path_124128" data-name="Path 124128" d="M237.948,218.957V23.8a12.1,12.1,0,0,1,8.683-11.6L287.589.165,328.542,12.2a12.093,12.093,0,0,1,8.688,11.6V218.957m-215.381,0V23.8a12.093,12.093,0,0,1,8.688-11.6L171.49.165,212.443,12.2a12.093,12.093,0,0,1,8.688,11.6V218.957M178.564,367.871V280.524a12.091,12.091,0,0,1,8.688-11.6L228.205,256.9l40.953,12.034a12.091,12.091,0,0,1,8.688,11.6v87.681m-214.035-.335V280.524a12.091,12.091,0,0,1,8.688-11.6L113.452,256.9l40.953,12.034a12.091,12.091,0,0,1,8.688,11.6v87.347m-41.228,33.617V206.33a12.093,12.093,0,0,1,8.688-11.6L171.507,182.7,212.46,194.73a12.093,12.093,0,0,1,8.688,11.6V401.488m74.821-33.617V280.524a12.1,12.1,0,0,1,8.694-11.6L345.616,256.9l40.953,12.034a12.093,12.093,0,0,1,8.683,11.6v87.347M237.931,401.488V206.33a12.093,12.093,0,0,1,8.688-11.6L287.573,182.7l40.953,12.034a12.093,12.093,0,0,1,8.688,11.6V401.488" transform="translate(-113.452 -222.95)" fill="none" stroke="#c7af81" stroke-miterlimit="10" stroke-width="1"/>
        </g>
      </g>
      <g id="Group_56506" data-name="Group 56506" transform="translate(342.804 60.981)">
        <g id="Group_56505" data-name="Group 56505" clip-path="url(#clip-path-6)">
          <path id="Path_124129" data-name="Path 124129" d="M179.651,218.62V131.273a12.093,12.093,0,0,1,8.688-11.6l40.953-12.034,40.953,12.034a12.093,12.093,0,0,1,8.688,11.6v87.681M64.9,218.62V131.273a12.093,12.093,0,0,1,8.688-11.6l40.953-12.034,40.953,12.034a12.093,12.093,0,0,1,8.688,11.6V218.62m-41.228,33.617V57.074a12.091,12.091,0,0,1,8.688-11.6l40.953-12.034,40.953,12.034a12.091,12.091,0,0,1,8.688,11.6V252.237m74.821-33.617V131.273a12.1,12.1,0,0,1,8.694-11.6L346.7,107.639l40.953,12.034a12.1,12.1,0,0,1,8.683,11.6V218.62M239.018,252.237V57.074a12.091,12.091,0,0,1,8.688-11.6L288.66,33.445l40.953,12.034a12.091,12.091,0,0,1,8.688,11.6V252.237M63.569,401.151V313.8a12.1,12.1,0,0,1,8.688-11.6l40.953-12.028L154.163,302.2a12.1,12.1,0,0,1,8.688,11.6v87.681m132.882-.335V313.8a12.1,12.1,0,0,1,8.688-11.6l40.953-12.028L386.327,302.2a12.1,12.1,0,0,1,8.688,11.6v87.681m-214.035-.335V313.8a12.1,12.1,0,0,1,8.688-11.6l40.953-12.028L271.574,302.2a12.1,12.1,0,0,1,8.688,11.6v87.347m-41.228,33.617V239.611a12.1,12.1,0,0,1,8.683-11.6l40.959-12.034,40.953,12.034a12.093,12.093,0,0,1,8.688,11.6V434.768m-215.381,0V239.611a12.093,12.093,0,0,1,8.688-11.6l40.953-12.034,40.953,12.034a12.093,12.093,0,0,1,8.688,11.6V434.768M179.651,583.682V496.336a12.091,12.091,0,0,1,8.688-11.6l40.953-12.034,40.953,12.034a12.091,12.091,0,0,1,8.688,11.6v87.681M64.9,583.682V496.336a12.091,12.091,0,0,1,8.688-11.6l40.953-12.034,40.953,12.034a12.091,12.091,0,0,1,8.688,11.6v87.347M122.953,617.3V422.142a12.093,12.093,0,0,1,8.688-11.6l40.953-12.034,40.953,12.034a12.093,12.093,0,0,1,8.688,11.6V617.3m74.821-33.617V496.336a12.1,12.1,0,0,1,8.694-11.6L346.7,472.707l40.953,12.034a12.093,12.093,0,0,1,8.683,11.6v87.347M239.018,617.3V422.142a12.093,12.093,0,0,1,8.688-11.6l40.953-12.034,40.953,12.034a12.093,12.093,0,0,1,8.688,11.6V617.3" transform="translate(-114.539 -134.674)" fill="none" stroke="#c7af81" stroke-miterlimit="10" stroke-width="1"/>
        </g>
      </g>
      <g id="Group_56508" data-name="Group 56508" transform="translate(342.804 426.048)">
        <g id="Group_56507" data-name="Group 56507" clip-path="url(#clip-path-7)">
          <path id="Path_124130" data-name="Path 124130" d="M178.564,285.178V197.831a12.086,12.086,0,0,1,8.688-11.6L228.205,174.2l40.953,12.034a12.093,12.093,0,0,1,8.688,11.6v87.681m-214.035-.334V197.831a12.086,12.086,0,0,1,8.688-11.6L113.452,174.2l40.953,12.034a12.093,12.093,0,0,1,8.688,11.6v87.347m-41.228,33.617V123.637a12.093,12.093,0,0,1,8.688-11.6L171.507,100l40.953,12.034a12.1,12.1,0,0,1,8.688,11.6V318.795m74.821-33.617V197.831a12.086,12.086,0,0,1,8.688-11.6L345.611,174.2l40.953,12.034a12.087,12.087,0,0,1,8.688,11.6v87.347M237.931,318.795V123.637a12.093,12.093,0,0,1,8.688-11.6L287.573,100l40.953,12.034a12.093,12.093,0,0,1,8.688,11.6V318.795M237.942,501.326V306.168a12.1,12.1,0,0,1,8.688-11.6l40.953-12.028,40.959,12.028a12.1,12.1,0,0,1,8.683,11.6V501.326m-215.375,0V306.168a12.093,12.093,0,0,1,8.688-11.6L171.49,282.54l40.953,12.028a12.093,12.093,0,0,1,8.688,11.6V501.326" transform="translate(-113.452 -201.237)" fill="none" stroke="#c7af81" stroke-miterlimit="10" stroke-width="1"/>
        </g>
      </g>
      <g id="Group_56510" data-name="Group 56510" transform="translate(110.645)">
        <g id="Group_56509" data-name="Group 56509" clip-path="url(#clip-path-8)">
          <path id="Path_124131" data-name="Path 124131" d="M195.674,218.957V23.8a12.1,12.1,0,0,1,8.683-11.6L245.315.165,286.268,12.2a12.093,12.093,0,0,1,8.688,11.6V218.957m-215.381,0V23.8a12.093,12.093,0,0,1,8.688-11.6L129.217.165,170.17,12.2a12.093,12.093,0,0,1,8.688,11.6V218.957M136.29,367.871V280.524a12.091,12.091,0,0,1,8.688-11.6L185.931,256.9l40.953,12.034a12.091,12.091,0,0,1,8.688,11.6v87.681m-214.035-.335V280.524a12.091,12.091,0,0,1,8.688-11.6L71.178,256.9l40.953,12.034a12.091,12.091,0,0,1,8.688,11.6v87.347M79.592,401.488V206.33a12.093,12.093,0,0,1,8.688-11.6L129.233,182.7l40.953,12.034a12.093,12.093,0,0,1,8.688,11.6V401.488M253.7,367.871V280.524a12.091,12.091,0,0,1,8.688-11.6L303.342,256.9,344.3,268.929a12.093,12.093,0,0,1,8.683,11.6v87.347M195.657,401.488V206.33a12.093,12.093,0,0,1,8.688-11.6L245.3,182.7l40.953,12.034a12.093,12.093,0,0,1,8.688,11.6V401.488" transform="translate(-71.184 -222.95)" fill="none" stroke="#c7af81" stroke-miterlimit="10" stroke-width="1"/>
        </g>
      </g>
      <g id="Group_56512" data-name="Group 56512" transform="translate(110.645 60.981)">
        <g id="Group_56511" data-name="Group 56511" clip-path="url(#clip-path-9)">
          <path id="Path_124132" data-name="Path 124132" d="M137.377,218.62V131.273a12.093,12.093,0,0,1,8.688-11.6l40.953-12.034,40.953,12.034a12.093,12.093,0,0,1,8.688,11.6v87.681M22.624,218.62V131.273a12.093,12.093,0,0,1,8.688-11.6l40.953-12.034,40.953,12.034a12.093,12.093,0,0,1,8.688,11.6V218.62M80.679,252.237V57.074a12.091,12.091,0,0,1,8.688-11.6L130.32,33.445l40.953,12.034a12.091,12.091,0,0,1,8.688,11.6V252.237m74.827-33.617V131.273a12.093,12.093,0,0,1,8.688-11.6l40.953-12.034,40.953,12.034a12.1,12.1,0,0,1,8.683,11.6V218.62M196.744,252.237V57.074a12.091,12.091,0,0,1,8.688-11.6l40.953-12.034,40.953,12.034a12.091,12.091,0,0,1,8.688,11.6V252.237M21.295,401.151V313.8a12.1,12.1,0,0,1,8.688-11.6l40.953-12.028L111.889,302.2a12.1,12.1,0,0,1,8.688,11.6v87.681m132.882-.335V313.8a12.1,12.1,0,0,1,8.688-11.6L303.1,290.176,344.053,302.2a12.1,12.1,0,0,1,8.688,11.6v87.681m-214.035-.335V313.8a12.1,12.1,0,0,1,8.688-11.6l40.953-12.028L229.3,302.2a12.1,12.1,0,0,1,8.688,11.6v87.347m-41.228,33.617V239.611a12.1,12.1,0,0,1,8.683-11.6L246.4,215.976l40.953,12.034a12.093,12.093,0,0,1,8.688,11.6V434.768m-215.381,0V239.611a12.093,12.093,0,0,1,8.688-11.6L130.3,215.976l40.953,12.034a12.093,12.093,0,0,1,8.688,11.6V434.768M137.377,583.682V496.336a12.091,12.091,0,0,1,8.688-11.6l40.953-12.034,40.953,12.034a12.091,12.091,0,0,1,8.688,11.6v87.681m-214.035-.335V496.336a12.091,12.091,0,0,1,8.688-11.6l40.953-12.034,40.953,12.034a12.091,12.091,0,0,1,8.688,11.6v87.347M80.679,617.3V422.142a12.093,12.093,0,0,1,8.688-11.6l40.953-12.034,40.953,12.034a12.093,12.093,0,0,1,8.688,11.6V617.3m74.827-33.617V496.336a12.091,12.091,0,0,1,8.688-11.6l40.953-12.034,40.953,12.034a12.093,12.093,0,0,1,8.683,11.6v87.347M196.744,617.3V422.142a12.093,12.093,0,0,1,8.688-11.6l40.953-12.034,40.953,12.034a12.093,12.093,0,0,1,8.688,11.6V617.3" transform="translate(-72.271 -134.674)" fill="none" stroke="#c7af81" stroke-miterlimit="10" stroke-width="1"/>
        </g>
      </g>
      <g id="Group_56514" data-name="Group 56514" transform="translate(110.645 426.048)">
        <g id="Group_56513" data-name="Group 56513" clip-path="url(#clip-path-10)">
          <path id="Path_124133" data-name="Path 124133" d="M136.29,285.178V197.831a12.086,12.086,0,0,1,8.688-11.6L185.931,174.2l40.953,12.034a12.093,12.093,0,0,1,8.688,11.6v87.681m-214.035-.334V197.831a12.086,12.086,0,0,1,8.688-11.6L71.178,174.2l40.953,12.034a12.093,12.093,0,0,1,8.688,11.6v87.347M79.592,318.795V123.637a12.093,12.093,0,0,1,8.688-11.6L129.233,100l40.953,12.034a12.093,12.093,0,0,1,8.688,11.6V318.795M253.7,285.178V197.831a12.086,12.086,0,0,1,8.688-11.6L303.337,174.2l40.953,12.034a12.086,12.086,0,0,1,8.688,11.6v87.347M195.657,318.795V123.637a12.093,12.093,0,0,1,8.688-11.6L245.3,100l40.953,12.034a12.093,12.093,0,0,1,8.688,11.6V318.795M195.668,501.326V306.168a12.1,12.1,0,0,1,8.688-11.6L245.31,282.54l40.964,12.028a12.1,12.1,0,0,1,8.677,11.6V501.326m-215.375,0V306.168a12.093,12.093,0,0,1,8.688-11.6l40.953-12.028,40.953,12.028a12.093,12.093,0,0,1,8.688,11.6V501.326" transform="translate(-71.184 -201.237)" fill="none" stroke="#c7af81" stroke-miterlimit="10" stroke-width="1"/>
        </g>
      </g>
      <g id="Group_56516" data-name="Group 56516">
        <g id="Group_56515" data-name="Group 56515" clip-path="url(#clip-path-17)">
          <path id="Path_124134" data-name="Path 124134" d="M59.543,218.957V23.8a12.1,12.1,0,0,1,8.683-11.6L109.184.165,150.137,12.2a12.1,12.1,0,0,1,8.683,11.6V218.957M.159,367.871V280.524a12.091,12.091,0,0,1,8.688-11.6L49.8,256.9l40.953,12.034a12.091,12.091,0,0,1,8.688,11.6v87.681m18.123-.335V280.524a12.1,12.1,0,0,1,8.694-11.6L167.206,256.9l40.959,12.034a12.093,12.093,0,0,1,8.683,11.6v87.347M59.526,401.488V206.33a12.093,12.093,0,0,1,8.688-11.6L109.168,182.7l40.953,12.034a12.093,12.093,0,0,1,8.688,11.6V401.488" transform="translate(-56.566 -222.95)" fill="none" stroke="#c7af81" stroke-miterlimit="10" stroke-width="1"/>
        </g>
      </g>
      <g id="Group_56518" data-name="Group 56518" transform="translate(0 60.981)">
        <g id="Group_56517" data-name="Group 56517" clip-path="url(#clip-path-18)">
          <path id="Path_124135" data-name="Path 124135" d="M.159,218.62V131.273a12.093,12.093,0,0,1,8.688-11.6L49.8,107.639l40.953,12.034a12.093,12.093,0,0,1,8.688,11.6v87.681m18.123-.335V131.273a12.1,12.1,0,0,1,8.694-11.6l40.948-12.034,40.959,12.034a12.1,12.1,0,0,1,8.683,11.6V218.62M59.526,252.237V57.074a12.091,12.091,0,0,1,8.688-11.6l40.953-12.034,40.953,12.034a12.091,12.091,0,0,1,8.688,11.6V252.237M116.241,401.151V313.8a12.1,12.1,0,0,1,8.683-11.6l40.959-12.028L206.835,302.2a12.1,12.1,0,0,1,8.688,11.6v87.681M1.488,401.151V313.8a12.1,12.1,0,0,1,8.683-11.6l40.959-12.028L92.077,302.2a12.1,12.1,0,0,1,8.694,11.6v87.347M59.543,434.768V239.611a12.1,12.1,0,0,1,8.683-11.6l40.959-12.034,40.953,12.034a12.1,12.1,0,0,1,8.683,11.6V434.768M.159,583.682V496.336a12.091,12.091,0,0,1,8.688-11.6L49.8,472.707l40.953,12.034a12.091,12.091,0,0,1,8.688,11.6v87.681m18.123-.335V496.336a12.1,12.1,0,0,1,8.694-11.6l40.948-12.034,40.959,12.034a12.093,12.093,0,0,1,8.683,11.6v87.347M59.526,617.3V422.142a12.093,12.093,0,0,1,8.688-11.6l40.953-12.034,40.953,12.034a12.093,12.093,0,0,1,8.688,11.6V617.3" transform="translate(-56.566 -134.674)" fill="none" stroke="#c7af81" stroke-miterlimit="10" stroke-width="1"/>
        </g>
      </g>
      <g id="Group_56520" data-name="Group 56520" transform="translate(0 426.048)">
        <g id="Group_56519" data-name="Group 56519" clip-path="url(#clip-path-19)">
          <path id="Path_124136" data-name="Path 124136" d="M.159,285.178V197.831a12.086,12.086,0,0,1,8.688-11.6L49.8,174.2l40.948,12.034a12.086,12.086,0,0,1,8.688,11.6v87.681m18.134-.334V197.831a12.082,12.082,0,0,1,8.683-11.6L167.206,174.2l40.959,12.034a12.081,12.081,0,0,1,8.683,11.6v87.347M59.526,318.795V123.637a12.1,12.1,0,0,1,8.683-11.6L109.162,100l40.959,12.034a12.093,12.093,0,0,1,8.688,11.6V318.795M59.543,501.326V306.168a12.087,12.087,0,0,1,8.688-11.6l40.948-12.028,40.959,12.028a12.088,12.088,0,0,1,8.683,11.6V501.326" transform="translate(-56.566 -201.237)" fill="none" stroke="#c7af81" stroke-miterlimit="10" stroke-width="1"/>
        </g>
      </g>
    </g>
  </g>
</svg>
