<svg xmlns="http://www.w3.org/2000/svg" width="59.557" height="53.752" viewBox="0 0 59.557 53.752">
  <g id="buildings-2" transform="translate(1 1)">
    <path id="Path_124949" data-name="Path 124949" d="M15.526,43.4H8.187C4.072,43.4,2,41.538,2,37.838V7.563C2,3.863,4.072,2,8.187,2H20.562c4.115,0,6.187,1.863,6.187,5.563V12.35" transform="translate(-2 -2)" fill="none" stroke="#7f1f3f" stroke-linecap="round" stroke-linejoin="round" stroke-width="2"/>
    <path id="Path_124950" data-name="Path 124950" d="M37.406,12.262V41.14c0,4.166-2.3,6.262-6.935,6.262H13.664c-4.633,0-6.964-2.1-6.964-6.262V12.262C6.7,8.1,9.031,6,13.664,6H30.471C35.1,6,37.406,8.1,37.406,12.262Z" transform="translate(6.826 4.35)" fill="none" stroke="#7f1f3f" stroke-linecap="round" stroke-linejoin="round" stroke-width="2"/>
    <path id="Path_124951" data-name="Path 124951" d="M13.4,12.35V7.563C13.4,3.863,15.472,2,19.587,2H31.962c4.115,0,6.187,1.863,6.187,5.563V37.838c0,3.7-2.072,5.563-6.187,5.563H24.825" transform="translate(19.407 -2)" fill="none" stroke="#7f1f3f" stroke-linecap="round" stroke-linejoin="round" stroke-width="2"/>
    <path id="Path_124952" data-name="Path 124952" d="M10,11H21.511" transform="translate(13.023 12.288)" fill="none" stroke="#7f1f3f" stroke-linecap="round" stroke-linejoin="round" stroke-width="2"/>
    <path id="Path_124953" data-name="Path 124953" d="M10,14H21.511" transform="translate(13.023 17.051)" fill="none" stroke="#7f1f3f" stroke-linecap="round" stroke-linejoin="round" stroke-width="2"/>
    <path id="Path_124954" data-name="Path 124954" d="M12,26.763V19" transform="translate(16.778 24.989)" fill="none" stroke="#7f1f3f" stroke-linecap="round" stroke-linejoin="round" stroke-width="2"/>
  </g>
</svg>
