<svg xmlns="http://www.w3.org/2000/svg" width="38" height="38" viewBox="0 0 38 38">
  <g id="callEv" transform="translate(-491.924 -2091.326)">
    <circle id="Ellipse_11222" data-name="Ellipse 11222" cx="19" cy="19" r="19" transform="translate(491.924 2091.326)" fill="#eee"/>
    <path id="Vector" d="M21.241,17.369a2.707,2.707,0,0,1-.266,1.159,4.389,4.389,0,0,1-.723,1.085,4.8,4.8,0,0,1-1.744,1.255,5.341,5.341,0,0,1-2.074.4,8.864,8.864,0,0,1-3.467-.776A18.682,18.682,0,0,1,9.307,18.39a30.58,30.58,0,0,1-3.489-2.978,30.221,30.221,0,0,1-2.968-3.478A18.962,18.962,0,0,1,.766,8.307,8.959,8.959,0,0,1,0,4.829,5.5,5.5,0,0,1,.383,2.776,4.9,4.9,0,0,1,1.606,1,3.116,3.116,0,0,1,3.818,0,2,2,0,0,1,4.68.191a1.734,1.734,0,0,1,.713.6L7.86,4.265a3.64,3.64,0,0,1,.425.745,1.681,1.681,0,0,1,.149.649,1.444,1.444,0,0,1-.223.755,3.618,3.618,0,0,1-.6.755l-.808.84a.569.569,0,0,0-.17.425.966.966,0,0,0,.032.245c.032.085.064.149.085.213a8.826,8.826,0,0,0,.989,1.361c.479.553.989,1.117,1.542,1.681.574.564,1.127,1.085,1.691,1.564a8.163,8.163,0,0,0,1.372.979c.053.021.117.053.191.085a.734.734,0,0,0,.266.043.585.585,0,0,0,.436-.181l.808-.8a3.263,3.263,0,0,1,.766-.6,1.416,1.416,0,0,1,.755-.223,1.7,1.7,0,0,1,.649.138,4.114,4.114,0,0,1,.745.415l3.521,2.5a1.613,1.613,0,0,1,.585.681A2.182,2.182,0,0,1,21.241,17.369Z" transform="translate(500.304 2099.69)" fill="none" stroke="#005f61" stroke-width="1.5"/>
  </g>
</svg>
