<svg xmlns="http://www.w3.org/2000/svg" width="60.611" height="43.128" viewBox="0 0 60.611 43.128">
  <g id="Eng-ico7" transform="translate(-0.539 -15.796)">
    <g id="Group_60443" data-name="Group 60443" transform="translate(1.539 16.796)">
      <path id="Path_126921" data-name="Path 126921" d="M-487.14-350.74h3.781v-34.033h-19.853A5.668,5.668,0,0,0-508.2-381.8a.79.79,0,0,1-.685.4.79.79,0,0,1-.685-.4,5.668,5.668,0,0,0-4.988-2.969H-534.41v34.033h19.853a5.668,5.668,0,0,1,4.869,2.762.934.934,0,0,0,.8.456.934.934,0,0,0,.8-.456,5.668,5.668,0,0,1,4.869-2.762h16.071" transform="translate(538.188 384.773)" fill="none" stroke="#7f1f3f" stroke-linecap="round" stroke-linejoin="round" stroke-miterlimit="10" stroke-width="2"/>
      <path id="Path_126922" data-name="Path 126922" d="M-38.969,0H-41.8a.946.946,0,0,0-.946.946v32.14a.946.946,0,0,0,.946.946h22.621a1.932,1.932,0,0,1,1.675.9,4.731,4.731,0,0,0,5.482,2.111,4.656,4.656,0,0,0,2.632-2.1,1.881,1.881,0,0,1,1.618-.911H14.917a.946.946,0,0,0,.946-.946V.946A.946.946,0,0,0,14.917,0H12.083" transform="translate(42.749 3.782)" fill="none" stroke="#7f1f3f" stroke-linecap="round" stroke-linejoin="round" stroke-miterlimit="10" stroke-width="2"/>
      <path id="Path_126923" data-name="Path 126923" d="M0-151.774v-11.3l7.64,11.062c.142.2.293.1.293-.144l-.106-10.939" transform="translate(23.001 175.23)" fill="none" stroke="#7f1f3f" stroke-linecap="round" stroke-linejoin="round" stroke-miterlimit="10" stroke-width="2"/>
      <path id="Path_126924" data-name="Path 126924" d="M-63.367,0h-4.726V11.217h4.726" transform="translate(83.023 12.239)" fill="none" stroke="#7f1f3f" stroke-linecap="round" stroke-linejoin="round" stroke-miterlimit="10" stroke-width="2"/>
      <path id="Path_126925" data-name="Path 126925" d="M-58.7,0h-4.38" transform="translate(78.005 17.848)" fill="none" stroke="#7f1f3f" stroke-linecap="round" stroke-linejoin="round" stroke-miterlimit="10" stroke-width="2"/>
      <path id="Path_126926" data-name="Path 126926" d="M-118.316-12.96a5.634,5.634,0,0,0-3.164-.966,5.66,5.66,0,0,0-5.66,5.66,5.66,5.66,0,0,0,5.66,5.66c3.126,0,4.886-2.534,4.886-5.66h-3.387" transform="translate(161.219 26.062)" fill="none" stroke="#7f1f3f" stroke-linecap="round" stroke-linejoin="round" stroke-miterlimit="10" stroke-width="2"/>
    </g>
  </g>
</svg>
