<svg xmlns="http://www.w3.org/2000/svg" width="38" height="38" viewBox="0 0 38 38">
  <g id="ENIcon2" transform="translate(-493.311 -2090.209)">
    <circle id="Ellipse_11217" data-name="Ellipse 11217" cx="19" cy="19" r="19" transform="translate(493.311 2090.209)" fill="#eee"/>
    <path id="map-pin-location" d="M13.657,12.492v7.524h-2.12V12.492a5.3,5.3,0,1,1,2.12,0ZM9.418,14.884v2.148c-3.108.388-5.3,1.274-5.3,1.924,0,.855,3.793,2.12,8.478,2.12s8.478-1.264,8.478-2.12c0-.65-2.191-1.536-5.3-1.924V14.884c4.3.471,7.418,1.919,7.418,4.072,0,2.657-4.747,4.239-10.6,4.239S2,21.613,2,18.956C2,16.8,5.12,15.355,9.418,14.884ZM12.6,10.478A3.179,3.179,0,1,0,9.418,7.3,3.179,3.179,0,0,0,12.6,10.478Z" transform="translate(499.713 2096.611)" fill="#005f61" fill-rule="evenodd"/>
  </g>
</svg>
