<svg xmlns="http://www.w3.org/2000/svg" width="38" height="38" viewBox="0 0 38 38">
  <g id="ENIcon1" transform="translate(13.377 4.318)">
    <circle id="Ellipse_11216" data-name="Ellipse 11216" cx="19" cy="19" r="19" transform="translate(-13.377 -4.318)" fill="#eee"/>
    <g id="Group_56785" data-name="Group 56785" transform="translate(-7.688 1.448)">
      <path id="Path_124586" data-name="Path 124586" d="M12.392,15.784A3.392,3.392,0,1,0,9,12.392,3.392,3.392,0,0,0,12.392,15.784Z" transform="translate(0.914 0.842)" fill="none" stroke="#005f61" stroke-linecap="round" stroke-linejoin="round" stroke-miterlimit="10" stroke-width="1.5" opacity="0.34"/>
      <path id="Path_124587" data-name="Path 124587" d="M2,14.228v-1.99A2.154,2.154,0,0,1,4.148,10.09C6.195,10.09,7.031,8.642,6,6.867a2.147,2.147,0,0,1,.791-2.928L8.75,2.82a1.887,1.887,0,0,1,2.578.678l.124.215c1.018,1.775,2.691,1.775,3.72,0L15.3,3.5a1.887,1.887,0,0,1,2.578-.678L19.83,3.939a2.147,2.147,0,0,1,.791,2.928c-1.029,1.775-.192,3.222,1.854,3.222a2.154,2.154,0,0,1,2.148,2.148v1.99a2.154,2.154,0,0,1-2.148,2.148c-2.046,0-2.883,1.447-1.854,3.222a2.144,2.144,0,0,1-.791,2.928l-1.956,1.119a1.887,1.887,0,0,1-2.578-.678l-.124-.215c-1.018-1.775-2.691-1.775-3.72,0l-.124.215a1.887,1.887,0,0,1-2.578.678L6.794,22.526A2.147,2.147,0,0,1,6,19.6c1.029-1.775.192-3.222-1.854-3.222A2.154,2.154,0,0,1,2,14.228Z" fill="none" stroke="#005f61" stroke-linecap="round" stroke-linejoin="round" stroke-miterlimit="10" stroke-width="1.5"/>
    </g>
  </g>
</svg>
