<svg xmlns="http://www.w3.org/2000/svg" width="24" height="24" viewBox="0 0 24 24">
  <g id="fax" transform="translate(-1762 -720)">
    <rect id="Rectangle_14368" data-name="Rectangle 14368" width="24" height="24" transform="translate(1762 720)" fill="none"/>
    <path id="fax-2" data-name="fax" d="M7.779,2.441h7.533l1.011,1.011V5.375h2.441V2.947a1.22,1.22,0,0,0-.358-.863L16.68.358A1.22,1.22,0,0,0,15.819,0H6.558A1.22,1.22,0,0,0,5.338,1.221V5.375H7.779ZM1.441,4.882H.221A1.224,1.224,0,0,0-1,6.1V18.308A1.223,1.223,0,0,0,.221,19.529H1.441a1.223,1.223,0,0,0,1.221-1.221V6.1A1.223,1.223,0,0,0,1.441,4.882ZM18.764,7.323H5.338V18.308a1.224,1.224,0,0,0,1.221,1.221H18.764a1.224,1.224,0,0,0,1.221-1.221V8.544A1.224,1.224,0,0,0,18.764,7.323ZM11.44,16.478a.608.608,0,0,1-.61.61H9.61a.607.607,0,0,1-.61-.61V15.257a.607.607,0,0,1,.61-.61H10.83a.608.608,0,0,1,.61.61Zm0-4.882a.608.608,0,0,1-.61.61H9.61A.607.607,0,0,1,9,11.6V10.375a.607.607,0,0,1,.61-.61H10.83a.607.607,0,0,1,.61.61Zm4.882,4.882a.608.608,0,0,1-.61.61H14.492a.608.608,0,0,1-.61-.61V15.257a.608.608,0,0,1,.61-.61h1.221a.608.608,0,0,1,.61.61Zm0-4.882a.608.608,0,0,1-.61.61H14.492a.607.607,0,0,1-.61-.61V10.375a.607.607,0,0,1,.61-.61h1.221a.607.607,0,0,1,.61.61Z" transform="translate(1764.5 722.5)" fill="none" stroke="#c6aa76" stroke-linecap="round" stroke-linejoin="round" stroke-width="1.5"/>
  </g>
</svg>
