<svg xmlns="http://www.w3.org/2000/svg" width="58.8" height="47.994" viewBox="0 0 58.8 47.994">
  <g id="HR-ico09" transform="translate(0.4 -9.675)">
    <path id="Subtraction_5" data-name="Subtraction 5" d="M35.181,47.182H33.987V27.9a.248.248,0,0,0-.248-.248H20.323a.251.251,0,0,0-.253.248v19.28h-1.2L18.86,27.9a1.461,1.461,0,0,1,.872-1.334V24.6a8.3,8.3,0,0,1-2.263-5.7V9.489H11.626a4.1,4.1,0,0,1-2.705,1.653v4.111l7.657,16.5c.062.214.058.242.054.265a.078.078,0,0,0,0,.034A8.316,8.316,0,0,1,0,32.05.707.707,0,0,1,.038,31.8a.275.275,0,0,0,.016-.048L7.711,15.267V11.142A4.082,4.082,0,1,1,11.63,4.731h6.006A2.752,2.752,0,0,1,20.26,2.864h.008a2.794,2.794,0,0,1,1.672.56,2.782,2.782,0,0,1,4.4-1.486,2.786,2.786,0,0,1,5.387.28,2.791,2.791,0,0,1,4.433,2.339v.176h10.21a4.077,4.077,0,1,1,3.917,6.409v4.11l7.657,16.5a.69.69,0,0,1,.051.231v.068a8.315,8.315,0,1,1-16.63,0c0-.011,0-.024,0-.037V32a.6.6,0,0,1,.046-.235l3.7-7.967c1.006-2.167,2.03-4.371,2.786-6,.705-1.517,1.171-2.519,1.176-2.534V11.142a4.105,4.105,0,0,1-2.7-1.653H40.534v7.5a3.405,3.405,0,0,1-1,2.408l-5.213,5.213v1.951a1.458,1.458,0,0,1,.871,1.334l-.013,19.28ZM42.6,32.609a7.108,7.108,0,0,0,14.167,0Zm-41.371,0a7.11,7.11,0,0,0,14.168,0ZM49.687,16.829h0L42.92,31.4H56.455L49.689,16.829Zm-41.371,0h0L1.548,31.4H15.083L8.318,16.829Zm12.628,8.14v1.467h12.17V24.968Zm-2.265-13.68h0V18.9A7.05,7.05,0,0,0,20.6,23.759H33.471l5.21-5.211a2.2,2.2,0,0,0,.645-1.555v-7.5H30.982a3.616,3.616,0,0,0,3.575,3.022h1a.6.6,0,0,1,.6.6v3.21a.6.6,0,0,1-1.209,0V13.717h-.4a4.835,4.835,0,0,1-3.969-2.08,2.773,2.773,0,0,1-3.3-.092,2.786,2.786,0,0,1-5.387-.279,2.762,2.762,0,0,1-1.638.534,2.812,2.812,0,0,1-.49-.043,2.737,2.737,0,0,1-1.1-.467ZM24.63,2.557a1.578,1.578,0,0,0-1.576,1.583V10.7a1.58,1.58,0,1,0,3.158,0V4.141A1.589,1.589,0,0,0,24.63,2.557ZM29.006,1.2a1.585,1.585,0,0,0-1.583,1.583V9.343a1.573,1.573,0,0,0,2.6,1.2,4.772,4.772,0,0,1-.3-1.662.6.6,0,0,1,.6-.6h.255V2.787A1.586,1.586,0,0,0,29.006,1.2ZM20.262,4.074a1.585,1.585,0,0,0-1.584,1.583V8.926a1.63,1.63,0,0,0,1.306,1.64,1.6,1.6,0,0,0,.276.025,1.586,1.586,0,0,0,1.583-1.58V5.658a1.588,1.588,0,0,0-1.581-1.583Zm29.427.158a2.876,2.876,0,0,0-.006,5.751h.009a2.877,2.877,0,1,0,0-5.753Zm-41.371,0a2.876,2.876,0,0,0,0,5.751h.007a2.877,2.877,0,1,0,0-5.753ZM36.164,5.941V8.278h9.613a4.025,4.025,0,0,1,0-2.339Zm-23.939,0h0a4.039,4.039,0,0,1,0,2.337h5.248V5.941ZM33.374,2.892a1.585,1.585,0,0,0-1.583,1.581.037.037,0,0,1,0,.011.035.035,0,0,0,0,.011c.007.152.006,1.074.006,2.143V8.276h3.164V4.558a1.632,1.632,0,0,0-1.306-1.641A1.591,1.591,0,0,0,33.374,2.892Z" transform="translate(0 10.087)" fill="#7f1f3f" stroke="#7f1f3f" stroke-width="0.8"/>
  </g>
</svg>
