<svg xmlns="http://www.w3.org/2000/svg" width="58" height="68.003" viewBox="0 0 58 68.003">
  <g id="ico1" transform="translate(-0.999 -1.06)">
    <path id="Subtraction_6" data-name="Subtraction 6" d="M28.915,68h0l-.474-.146-.025-.007a60.466,60.466,0,0,1-16.716-7.5C4.09,55.2.183,48.984.093,41.873-.043,31.673,0,27.9.046,22.668l.008-.579.018-1.555.01-1.327c.02-1.931.041-4.576.065-7.95v-.864L28.915,0,55.727,9.7,53.819,11.6,29.326,2.751l-.2-.067h-.433L3.375,11.829l-.791.286-.008.844c-.023,3.854-.049,6.83-.078,9.1-.061,5.716-.086,9.453.045,19.79a16.754,16.754,0,0,0,3.51,9.928,29.535,29.535,0,0,0,7.736,6.964,59.666,59.666,0,0,0,14.778,6.619l.168.053h.358l.166-.053a59.546,59.546,0,0,0,14.778-6.612,29.585,29.585,0,0,0,7.736-6.958,16.8,16.8,0,0,0,3.51-9.942c.11-7.694.11-11.554.092-14.58L57.8,24.834c.041,4.5.041,8.549-.067,17.039-.094,7.131-4,13.354-11.617,18.494a60.021,60.021,0,0,1-16.734,7.5l-.47.14Zm.27-21.318h0L13.861,33.26l1.609-1.834L28.109,42.484l.971.85,26.1-26.216,2.791-2.8c.006.877.014,1.675.022,2.446l.008.559,0,.43-4.459,4.479L29.185,46.683Z" transform="translate(0.999 1.06)" fill="#7f1f3f"/>
  </g>
</svg>
