<svg xmlns="http://www.w3.org/2000/svg" width="58" height="58.025" viewBox="0 0 58 58.025">
  <g id="ico2" transform="translate(-0.109 -0.001)">
    <g id="Group_56609" data-name="Group 56609" transform="translate(0.109 0.001)">
      <g id="Group_56608" data-name="Group 56608" transform="translate(0 0)">
        <path id="Path_124300" data-name="Path 124300" d="M49.547,4.75v-3A1.741,1.741,0,0,0,47.808.008H43.05A1.762,1.762,0,0,0,41.6.775,22.337,22.337,0,0,0,19.383,37.516l-1.693,1.649-1.017-1.017a2.212,2.212,0,0,0-3.124,0L1.074,50.623a3.3,3.3,0,0,0,0,4.665L2.888,57.1a3.163,3.163,0,0,0,4.468,0L19.929,44.529a2.212,2.212,0,0,0,0-3.124l-1.038-1.038,1.693-1.648a22.319,22.319,0,0,0,13.638,5.9l.059,0a.85.85,0,0,0,.058-1.7A20.635,20.635,0,1,1,41.287,2.451V4.636a18.562,18.562,0,1,0,8.029,30.422l0,0,.019-.021a18.557,18.557,0,0,0,.21-25.114V6.961a20.643,20.643,0,0,1-11.4,35.875.85.85,0,0,0,.194,1.688A22.338,22.338,0,0,0,49.547,4.75ZM6.154,55.9a1.461,1.461,0,0,1-2.064,0L2.275,54.086a1.6,1.6,0,0,1,0-2.261l6.546-6.546L12.8,49.256ZM14,48.054l-3.977-3.977,1.2-1.2L15.2,46.851Zm4.727-4.727L16.405,45.65l-3.977-3.977L14.75,39.35a.513.513,0,0,1,.721,0l3.257,3.257A.514.514,0,0,1,18.727,43.328Zm9.438-5.922A16.962,16.962,0,0,1,23.3,33.7V21.1a.065.065,0,0,1,.065-.065h4.8v16.37Zm6.561,1.784a16.69,16.69,0,0,1-4.861-1.036v-23.5a.065.065,0,0,1,.064-.065h4.8v24.6Zm0-30.975v4.679h-4.8a1.766,1.766,0,0,0-1.764,1.764v4.679h-4.8A1.766,1.766,0,0,0,21.605,21.1V31.489A16.862,16.862,0,0,1,41.287,6.425v.025h-4.8A1.766,1.766,0,0,0,34.726,8.214ZM41.287,38.3a16.763,16.763,0,0,1-4.861.91v-31a.065.065,0,0,1,.065-.065h4.8V38.3ZM52.638,22.363a16.789,16.789,0,0,1-3.091,9.731V24.271a.85.85,0,1,0-1.7,0v9.862a16.982,16.982,0,0,1-4.861,3.474V1.771a.065.065,0,0,1,.064-.065h4.757a.04.04,0,0,1,.04.04v18.56a.85.85,0,1,0,1.7,0V12.633A16.79,16.79,0,0,1,52.638,22.363Z" transform="translate(-0.109 -0.001)" fill="#7f1f3f"/>
      </g>
    </g>
  </g>
</svg>
