<svg xmlns="http://www.w3.org/2000/svg" width="58" height="69.627" viewBox="0 0 58 69.627">
  <g id="ico3" transform="translate(-0.264 -0.264)">
    <g id="layer6" transform="translate(0.264 0.264)">
      <g id="Group_60637" data-name="Group 60637" transform="translate(8.623 20.258)">
        <path id="path854" d="M24.424,6.086a1.234,1.234,0,0,0-1.212.993L22.738,9.43a22.117,22.117,0,0,0-5.85,2.46l-2.041-1.349a1.234,1.234,0,0,0-1.558.155L8.05,15.936A1.234,1.234,0,0,0,7.9,17.485l1.339,2a22.119,22.119,0,0,0-2.424,5.9l-2.378.474a1.234,1.234,0,0,0-.993,1.212v7.4a1.234,1.234,0,0,0,.993,1.212l2.351.465a22.182,22.182,0,0,0,2.469,5.868L7.9,44.055a1.234,1.234,0,0,0,.155,1.558l5.239,5.23A1.234,1.234,0,0,0,14.847,51l2-1.33a22.183,22.183,0,0,0,5.9,2.424l.465,2.369a1.234,1.234,0,0,0,1.212.993h7.408a1.235,1.235,0,0,0,1.212-.993l.465-2.342a22.126,22.126,0,0,0,5.95-2.415L41.408,51a1.234,1.234,0,0,0,1.558-.155l5.239-5.23a1.235,1.235,0,0,0,.155-1.558l-1.3-1.959a22.126,22.126,0,0,0,2.424-5.95l2.342-.465a1.235,1.235,0,0,0,.993-1.212v-7.4a1.234,1.234,0,0,0-.993-1.212l-2.3-.456a22.147,22.147,0,0,0-2.5-5.914l1.33-2a1.235,1.235,0,0,0-.155-1.549L42.967,10.7a1.234,1.234,0,0,0-1.558-.155l-1.977,1.321A22.138,22.138,0,0,0,33.509,9.43l-.465-2.351a1.234,1.234,0,0,0-1.212-.993Zm1.011,2.469h5.385l.4,1.986a1.234,1.234,0,0,0,.957.966,19.781,19.781,0,0,1,6.743,2.77,1.234,1.234,0,0,0,1.349-.009l1.667-1.112,3.809,3.809-1.13,1.686a1.235,1.235,0,0,0,0,1.367,19.722,19.722,0,0,1,2.843,6.725,1.234,1.234,0,0,0,.966.948l1.923.392v5.376l-1.977.4a1.234,1.234,0,0,0-.966.966,19.743,19.743,0,0,1-2.761,6.77,1.234,1.234,0,0,0,.009,1.349l1.093,1.631-3.809,3.809L40.306,47.3a1.234,1.234,0,0,0-1.358-.009,19.725,19.725,0,0,1-6.77,2.752,1.234,1.234,0,0,0-.966.975l-.392,1.968H25.435l-.4-2a1.234,1.234,0,0,0-.957-.966,19.748,19.748,0,0,1-6.715-2.77A1.234,1.234,0,0,0,16,47.263l-1.686,1.121L10.51,44.575l1.148-1.722a1.235,1.235,0,0,0,.009-1.367,19.722,19.722,0,0,1-2.816-6.679,1.234,1.234,0,0,0-.966-.948l-1.977-.4V28.082l2-.4a1.234,1.234,0,0,0,.966-.957,19.749,19.749,0,0,1,2.77-6.715,1.234,1.234,0,0,0-.009-1.358l-1.13-1.686,3.809-3.809L16.041,14.3a1.234,1.234,0,0,0,1.367,0A19.766,19.766,0,0,1,24.1,11.489a1.234,1.234,0,0,0,.948-.966Z" transform="translate(-3.439 -6.086)" fill="#7f1f3f"/>
        <path id="path856" d="M21.337,7.938A16.046,16.046,0,1,0,37.383,23.984,16.064,16.064,0,0,0,21.337,7.938Zm0,2.469A13.577,13.577,0,1,1,7.76,23.984,13.565,13.565,0,0,1,21.337,10.407Z" transform="translate(3.347 0.701)" fill="#7f1f3f"/>
        <g id="Group_60636" data-name="Group 60636" transform="translate(14.816 13.578)">
          <path id="path858" d="M13.577,16.934c-3.394,0-6.169-5.067-6.169-1.673a6.173,6.173,0,1,0,12.347,0C19.755,11.867,16.971,16.934,13.577,16.934Zm0,0c2.06,0,3.709-3.733,3.709-1.673a3.7,3.7,0,1,1-7.408,0C9.878,13.2,11.517,16.934,13.577,16.934Z" transform="translate(-3.709 -9.092)" fill="#7f1f3f"/>
          <path id="path860" d="M16.483,11.906a9.892,9.892,0,0,0-9.868,9.522l2.469.091a7.408,7.408,0,0,1,14.807,0l2.46-.082a9.893,9.893,0,0,0-9.868-9.531Z" transform="translate(-6.615 1.671)" fill="#7f1f3f"/>
          <path id="Path_126977" data-name="Path 126977" d="M25.432,4.043c-.271-1.107-4.113-2.756-8.051-2.656s-7.748,1.638-7.7,3.055,2.568,2.037,2.568,2.037,2.756,2.3,5.4,2.3,5.18-2.3,5.18-2.3S25.7,5.15,25.432,4.043Z" transform="translate(-7.691 -1.382)" fill="none" stroke="#7f1f3f" stroke-width="2"/>
          <g id="Ellipse_11759" data-name="Ellipse 11759" transform="translate(8.163 1.971)" fill="none" stroke="#7f1f3f" stroke-width="2">
            <ellipse cx="1.472" cy="1.472" rx="1.472" ry="1.472" stroke="none"/>
            <ellipse cx="1.472" cy="1.472" rx="0.472" ry="0.472" fill="none"/>
          </g>
        </g>
      </g>
      <g id="Group_60638" data-name="Group 60638" transform="translate(0 0)">
        <path id="path848" d="M7.911,3.967A6.994,6.994,0,0,0,1.2,7.851a9.2,9.2,0,0,0-.935,3.763V32.348A9.2,9.2,0,0,0,1.2,36.111,7.008,7.008,0,0,0,7.911,40h4.837V37.811H7.911a4.8,4.8,0,0,1-4.754-2.675,7.2,7.2,0,0,1-.709-2.788V11.614a7.2,7.2,0,0,1,.709-2.788A4.819,4.819,0,0,1,7.911,6.151H31.924a4.8,4.8,0,0,1,4.754,2.675c.689,1.377-.234,1.185-.234,1.185v2.184h2.184V10.011s.949-.262,0-2.16a6.985,6.985,0,0,0-6.7-3.884Z" transform="translate(-0.264 11.311)" fill="#7f1f3f"/>
        <path id="path850" d="M14.124.264a12.057,12.057,0,0,0-12,12.007l-.008,4.368H4.3l.008-4.368a9.819,9.819,0,1,1,19.638,0v4.368h2.184V12.27A12.058,12.058,0,0,0,14.124.264Z" transform="translate(5.53 -0.264)" fill="#7f1f3f"/>
        <path id="path852" d="M9.161,1.85A5.329,5.329,0,0,0,3.705,7.313v4.368H5.889V7.313A3.136,3.136,0,0,1,9.16,4.033a3.153,3.153,0,0,1,3.28,3.28l-.008,4.368h2.184l.008-4.368A5.333,5.333,0,0,0,9.16,1.85Z" transform="translate(10.493 4.694)" fill="#7f1f3f"/>
      </g>
    </g>
  </g>
</svg>
