<svg xmlns="http://www.w3.org/2000/svg" width="64.502" height="56.904" viewBox="0 0 64.502 56.904">
  <g id="ico5" transform="translate(-96.612 -71.145)">
    <path id="Path_126918" data-name="Path 126918" d="M-18651.1-5851.694l5.65,5.488,10.541-14.558" transform="translate(18794.627 5934.861)" fill="none" stroke="#7f1f3f" stroke-linecap="round" stroke-width="2"/>
    <g id="Group_60642" data-name="Group 60642" transform="translate(96.612 71.145)">
      <path id="Subtraction_18" data-name="Subtraction 18" d="M47.315,56.9H44.359a4.333,4.333,0,0,1-4.324-4.3V49.972H11.606V52.6a4.333,4.333,0,0,1-4.324,4.3H4.329A4.336,4.336,0,0,1,0,52.6V36.881a6.086,6.086,0,0,1,2.138-4.626L3.8,30.731l.06-.056L7.827,19.939a4.358,4.358,0,0,1,4.049-2.816H40.131l-.016-.361c-.005-.134-.007-.268-.007-.421V2.957A1.166,1.166,0,0,1,41.094,1.8L51.794.016a1.247,1.247,0,0,1,.2-.016,1.476,1.476,0,0,1,.16.012h.007l.029,0,7.8,1.3L58.95,2.62l-6.9-1.148-.061-.012L41.856,3.15l-.29.048V16.34c0,3.194,1.81,6.163,5.236,8.586A22.528,22.528,0,0,0,51.868,27.6l.121.044.124-.044a22.818,22.818,0,0,0,5.072-2.672c3.423-2.428,5.232-5.4,5.232-8.581V8.674l1.456-1.348V16.34c0,3.681-2.024,7.061-5.854,9.773a23.765,23.765,0,0,1-5.639,2.941l-.021.008a1.192,1.192,0,0,1-.369.056,1.162,1.162,0,0,1-.36-.056l-.025-.008a23.715,23.715,0,0,1-3.679-1.7l-.83-.469,1.425,3.839.024.068,1.195,1.26.013.012a6.17,6.17,0,0,1,1.89,4.4V52.6A4.334,4.334,0,0,1,47.315,56.9Zm-5.741-6.933h0v2.636a2.793,2.793,0,0,0,2.784,2.76h2.962A2.784,2.784,0,0,0,50.1,52.6v-3.55l-.528.321a4.145,4.145,0,0,1-2.152.6.861.861,0,0,1-.1,0H41.575ZM1.541,49.053h0v3.554a2.794,2.794,0,0,0,2.78,2.76H7.289A2.783,2.783,0,0,0,10.066,52.6V49.972H4.321a.781.781,0,0,1-.1,0,4.161,4.161,0,0,1-2.154-.6l-.529-.321ZM4.8,31.862l-1.62,1.525-.041.044a4.548,4.548,0,0,0-1.6,3.45v8.814a2.805,2.805,0,0,0,.826,1.95,2.768,2.768,0,0,0,1.945.79H47.328a2.773,2.773,0,0,0,2.771-2.74l0-.353h-.016V36.468a4.586,4.586,0,0,0-1.4-3.278.371.371,0,0,0-.073-.072l-1.071-1.147-.1-.108ZM36.051,23.77a7.266,7.266,0,0,1,7.237,6.25l.044.3h3.406L44.9,25.367l-.031-.084-.073-.06a12.509,12.509,0,0,1-4.345-6.3l-.073-.257h-28.5a2.8,2.8,0,0,0-2.6,1.789l-3.49,9.4-.172.469H28.758l.044-.3A7.374,7.374,0,0,1,36.051,23.77ZM36.038,25.3a5.774,5.774,0,0,0-5.66,4.6l-.084.417h11.49L41.7,29.9a5.774,5.774,0,0,0-5.66-4.6Zm9.577,19.08H37.226a.776.776,0,0,1-.771-.766V37.8a.774.774,0,0,1,.771-.775h8.385a.779.779,0,0,1,.775.771v5.817A.77.77,0,0,1,45.615,44.379ZM38,38.566h0v4.277h6.844V38.566H38ZM14.415,44.379H6.029a.772.772,0,0,1-.774-.766V37.8a.779.779,0,0,1,.774-.771h8.382a.779.779,0,0,1,.775.771v5.817A.77.77,0,0,1,14.415,44.379ZM6.8,38.566h0v4.277h6.848V38.566H6.8Zm24.428,4.7H20.42a.77.77,0,1,1,0-1.541h10.8a.77.77,0,1,1,0,1.541Zm0-3.47H20.42a.768.768,0,1,1,0-1.537h10.8a.768.768,0,1,1,0,1.537Z" transform="translate(0 0)" fill="#7f1f3f"/>
    </g>
  </g>
</svg>
