<svg xmlns="http://www.w3.org/2000/svg" width="58" height="53.808" viewBox="0 0 58 53.808">
  <g id="ico6" transform="translate(0 -18.533)">
    <g id="Group_60644" data-name="Group 60644" transform="translate(0 18.533)">
      <path id="Path_126980" data-name="Path 126980" d="M.852,59.5a.85.85,0,0,0,.85-.85v-4.42a15.716,15.716,0,0,1,2.125-7.895,15.9,15.9,0,0,1,5.588-5.648.85.85,0,1,0-.871-1.46,17.6,17.6,0,0,0-6.187,6.253A17.417,17.417,0,0,0,0,54.232v4.42a.85.85,0,0,0,.85.85Z" transform="translate(-0.002 -36.777)" fill="#7f1f3f"/>
      <path id="Path_126981" data-name="Path 126981" d="M257.475,200.014a.85.85,0,0,0-.85.85v3.09a4.2,4.2,0,0,0,2.846,3.979l1.855.633a.85.85,0,0,0,.549-1.609l-1.855-.633a2.5,2.5,0,0,1-1.7-2.37v-3.09A.85.85,0,0,0,257.475,200.014Z" transform="translate(-227.607 -179.496)" fill="#7f1f3f"/>
      <path id="Path_126982" data-name="Path 126982" d="M102.859,94.736a.847.847,0,0,0,.514-.173,7.48,7.48,0,0,1,7.214-1.028.85.85,0,0,0,.61-1.587,9.18,9.18,0,0,0-8.853,1.262.85.85,0,0,0,.515,1.527Z" transform="translate(-90.476 -83.103)" fill="#7f1f3f"/>
      <path id="Path_126983" data-name="Path 126983" d="M75.366,132.047a.85.85,0,1,0-1.5-.793,9.21,9.21,0,0,0-1.058,4.277v4.42a9.121,9.121,0,0,0,1.817,5.484.85.85,0,0,0,1.364-1.015,7.433,7.433,0,0,1-1.481-4.469v-4.42A7.4,7.4,0,0,1,75.366,132.047Z" transform="translate(-64.553 -118.113)" fill="#7f1f3f"/>
      <path id="Path_126984" data-name="Path 126984" d="M176.876,144.281a.85.85,0,0,0-.948.74,14.231,14.231,0,0,1-23.978,8.52,17.254,17.254,0,0,0,2.639-1.059.187.187,0,0,1,.12-.019l2.362.49a.85.85,0,1,0,.345-1.665l-2.362-.49a1.892,1.892,0,0,0-1.228.165,15.652,15.652,0,0,1-3.155,1.177,14.288,14.288,0,0,1-1.431-2.168,13.28,13.28,0,0,0,5.577-2.47,1.336,1.336,0,0,1,1.14-.225l5.218,1.314a.85.85,0,1,0,.415-1.649l-5.218-1.314a3.028,3.028,0,0,0-2.582.519,11.581,11.581,0,0,1-5.284,2.226,14.1,14.1,0,0,1-.68-2.357,9.213,9.213,0,0,0,8.161-9.143v-4.42a9.188,9.188,0,0,0-.237-2.075,14.135,14.135,0,0,1,2.255-.836,11.874,11.874,0,0,1,.407,3.083v.029a.85.85,0,1,0,1.7,0v-.029a13.572,13.572,0,0,0-.443-3.437,14.29,14.29,0,0,1,2.128-.159q.183,0,.365,0a15.784,15.784,0,0,1,.375,3.42v4.42a.85.85,0,1,0,1.7,0v-4.42a17.472,17.472,0,0,0-.309-3.265A14.233,14.233,0,0,1,175.939,141.6a.85.85,0,0,0,1.688-.2,15.936,15.936,0,1,0-.012,3.825.85.85,0,0,0-.74-.948Zm-22.589-11.829v4.42a7.513,7.513,0,0,1-6.688,7.458q-.039-.527-.04-1.064,0-.7.068-1.387a5.073,5.073,0,0,0,4.235-5.007v-3.794a14.34,14.34,0,0,1,2.325-1.841A7.485,7.485,0,0,1,154.287,132.452Zm-6.362,7.6a14.178,14.178,0,0,1,2.237-4.983v1.8A3.375,3.375,0,0,1,147.925,140.052Z" transform="translate(-129.403 -115.059)" fill="#7f1f3f"/>
      <path id="Path_126985" data-name="Path 126985" d="M57.06,66.857,48.45,58.247A19.741,19.741,0,0,0,32.4,26.992h-.051a17.413,17.413,0,0,0-20.208-7.642.848.848,0,0,0,.515,1.617A15.712,15.712,0,0,1,30.4,27.093a19.642,19.642,0,0,0-2.723.472A13.271,13.271,0,0,0,4.117,35.952v7.039a2.5,2.5,0,0,1-1.692,2.366l-1.851.632a.848.848,0,1,0,.548,1.606l1.851-.632a4.2,4.2,0,0,0,2.841-3.971V35.952A11.558,11.558,0,0,1,25.892,28.1a19.751,19.751,0,0,0-6.042,3.409,5.068,5.068,0,0,0-7.5,4.447V37.16a.848.848,0,0,0,1.7,0V35.952a3.374,3.374,0,0,1,4.43-3.2,19.8,19.8,0,0,0-4.725,7.491.848.848,0,0,0-1.357.783,5.076,5.076,0,0,0,.634,1.867,19.813,19.813,0,0,0,.118,8.26,11.558,11.558,0,0,1-2.6-1.443,3.484,3.484,0,0,0-2.843-.6L2,50.408a.848.848,0,0,0,.377,1.654l5.7-1.3a1.789,1.789,0,0,1,1.459.311,13.215,13.215,0,0,0,4.175,2.066A19.639,19.639,0,0,0,14.9,55.88a15.511,15.511,0,0,1-4.479-1.443A1.88,1.88,0,0,0,9.1,54.3l-3.287.86A.848.848,0,0,0,6.241,56.8l3.287-.86a.187.187,0,0,1,.13.018,17.22,17.22,0,0,0,6.333,1.767,19.883,19.883,0,0,0,1.963,2.474c-.178,0-.356.008-.534.008a19.716,19.716,0,0,1-6.835-1.215A.848.848,0,0,0,10,60.58,21.408,21.408,0,0,0,17.419,61.9a21.75,21.75,0,0,0,2.2-.114,19.846,19.846,0,0,0,2.815,2,24.089,24.089,0,0,1-10.973-.221.848.848,0,0,0-1.19.919l0,.014a.848.848,0,0,0,.619.671,25.661,25.661,0,0,0,13.059,0,.848.848,0,0,0,.491-.354,19.718,19.718,0,0,0,19.466-2.027l1.131,1.131a.848.848,0,1,0,1.2-1.2l-.988-.988a19.925,19.925,0,0,0,2.145-2.145l8.467,8.467A1.516,1.516,0,0,1,53.716,70.2l-4.923-4.923a.848.848,0,1,0-1.2,1.2L52.516,71.4a3.213,3.213,0,0,0,4.544-4.544ZM32.4,64.8A18.055,18.055,0,1,1,50.458,46.744,18.075,18.075,0,0,1,32.4,64.8Z" transform="translate(0 -18.533)" fill="#7f1f3f"/>
    </g>
  </g>
</svg>
