<svg id="ico7" xmlns="http://www.w3.org/2000/svg" width="58" height="50.316" viewBox="0 0 58 50.316">
  <g id="Group_56184" data-name="Group 56184" transform="translate(26.532 3.367)">
    <rect id="Rectangle_14003" data-name="Rectangle 14003" width="1.291" height="11.248" fill="#7f1f3f"/>
  </g>
  <g id="Group_56185" data-name="Group 56185" transform="translate(28.968 7.885)">
    <rect id="Rectangle_14004" data-name="Rectangle 14004" width="1.291" height="6.73" fill="#7f1f3f"/>
  </g>
  <g id="Group_56192" data-name="Group 56192" transform="translate(20.742 17.19)">
    <path id="Subtraction_7" data-name="Subtraction 7" d="M11.5,10.369H1.018A1.019,1.019,0,0,1,0,9.352V1.02A1.024,1.024,0,0,1,1.023,0H11.5a1.02,1.02,0,0,1,1.017,1.02V9.352A1.018,1.018,0,0,1,11.5,10.369ZM6.263,2.388l0,0H6.217a1.008,1.008,0,0,0-.936.735,1.02,1.02,0,0,0,.443,1.145v.795a.534.534,0,0,0,.493.536l.046,0A.537.537,0,0,0,6.8,5.068V4.273a1.019,1.019,0,0,0-.534-1.885Z" transform="translate(0 5.184)" fill="#7f1f3f"/>
    <g id="Group_56191" data-name="Group 56191" transform="translate(1.843 0)">
      <g id="Group_56189" data-name="Group 56189" transform="translate(0 0.002)">
        <path id="Path_122786" data-name="Path 122786" d="M231.279,220.5v1.152c-1.8.018-3.222,1.248-3.222,4.034H226.9C226.9,221.963,229.118,220.515,231.279,220.5Z" transform="translate(-226.9 -220.5)" fill="#7f1f3f"/>
      </g>
      <g id="Group_56190" data-name="Group 56190" transform="translate(4.377)">
        <path id="Path_122787" data-name="Path 122787" d="M252.231,225.679H251.08c0-2.892-1.516-4.034-3.265-4.034h-.04v-1.152h.04C250.122,220.493,252.231,222.084,252.231,225.679Z" transform="translate(-247.774 -220.494)" fill="#7f1f3f"/>
      </g>
    </g>
  </g>
  <g id="Group_56194" data-name="Group 56194" transform="translate(14.809 13.831)">
    <g id="Group_56193" data-name="Group 56193" transform="translate(0)">
      <path id="Path_122788" data-name="Path 122788" d="M201.989,204.476a12.179,12.179,0,1,0,12.179,12.179,12.179,12.179,0,0,0-12.179-12.179Zm0,23a10.823,10.823,0,1,1,10.823-10.823,10.823,10.823,0,0,1-10.823,10.823Z" transform="translate(-189.81 -204.476)" fill="#7f1f3f"/>
    </g>
  </g>
  <g id="Group_56195" data-name="Group 56195" transform="translate(8.106 1.486)">
    <path id="Path_122789" data-name="Path 122789" d="M165.783,165.249l-5.588-5.64,1.868-3.407-3.271-3.271,2.131-3.349L157.84,146.5l.913-.913,3.816,3.816-2.131,3.349,3.222,3.222-1.869,3.407,4.9,4.957Z" transform="translate(-157.84 -145.586)" fill="#7f1f3f"/>
  </g>
  <g id="Group_56196" data-name="Group 56196" transform="translate(10.767 4.595)">
    <path id="Path_122790" data-name="Path 122790" d="M175.553,173.42l-2.051-2.051,1.97-3.509-4.942-4.941.913-.913,5.634,5.633-1.97,3.506.446.446,4.117-4.116-.077-3.14-3-3,.913-.913,3.362,3.362.1,4.214Z" transform="translate(-170.531 -160.426)" fill="#7f1f3f"/>
  </g>
  <g id="Group_56197" data-name="Group 56197" transform="translate(6.621 0)">
    <circle id="Ellipse_11173" data-name="Ellipse 11173" cx="1.435" cy="1.435" r="1.435" transform="translate(0 0)" fill="#7f1f3f"/>
  </g>
  <g id="Group_56198" data-name="Group 56198" transform="translate(25.741 1.358)">
    <path id="Path_122791" data-name="Path 122791" d="M244.829,146.415a1.435,1.435,0,1,1-1.435-1.435A1.435,1.435,0,0,1,244.829,146.415Z" transform="translate(-241.959 -144.98)" fill="#7f1f3f"/>
  </g>
  <g id="Group_56199" data-name="Group 56199" transform="translate(28.178 5.163)">
    <path id="Path_122792" data-name="Path 122792" d="M256.452,164.561a1.435,1.435,0,1,1-1.435-1.435A1.435,1.435,0,0,1,256.452,164.561Z" transform="translate(-253.582 -163.126)" fill="#7f1f3f"/>
  </g>
  <g id="Group_56200" data-name="Group 56200" transform="translate(32.455 7.712)">
    <rect id="Rectangle_14005" data-name="Rectangle 14005" width="11.248" height="1.291" transform="translate(0 7.952) rotate(-45)" fill="#7f1f3f"/>
  </g>
  <g id="Group_56201" data-name="Group 56201" transform="translate(34.178 12.628)">
    <rect id="Rectangle_14006" data-name="Rectangle 14006" width="6.73" height="1.291" transform="translate(0 4.758) rotate(-45)" fill="#7f1f3f"/>
  </g>
  <g id="Group_56202" data-name="Group 56202" transform="translate(39.836 6.325)">
    <path id="Path_122793" data-name="Path 122793" d="M311.637,171.127a1.435,1.435,0,1,1,0-2.029A1.435,1.435,0,0,1,311.637,171.127Z" transform="translate(-309.187 -168.677)" fill="#7f1f3f"/>
  </g>
  <g id="Group_56203" data-name="Group 56203" transform="translate(38.869 10.74)">
    <path id="Path_122794" data-name="Path 122794" d="M307.025,192.177a1.435,1.435,0,1,1,0-2.029A1.435,1.435,0,0,1,307.025,192.177Z" transform="translate(-304.574 -189.727)" fill="#7f1f3f"/>
  </g>
  <g id="Group_56204" data-name="Group 56204" transform="translate(23.662 7.768)">
    <rect id="Rectangle_14007" data-name="Rectangle 14007" width="1.291" height="6.73" fill="#7f1f3f"/>
  </g>
  <g id="Group_56205" data-name="Group 56205" transform="translate(22.873 5.062)">
    <path id="Path_122795" data-name="Path 122795" d="M231.141,164.082a1.435,1.435,0,1,1-1.435-1.435,1.435,1.435,0,0,1,1.435,1.435Z" transform="translate(-228.271 -162.647)" fill="#7f1f3f"/>
  </g>
  <g id="Group_56206" data-name="Group 56206" transform="translate(26.14 37.058)">
    <rect id="Rectangle_14008" data-name="Rectangle 14008" width="1.291" height="11.248" fill="#7f1f3f"/>
  </g>
  <g id="Group_56207" data-name="Group 56207" transform="translate(23.703 37.176)">
    <rect id="Rectangle_14009" data-name="Rectangle 14009" width="1.291" height="4.138" fill="#7f1f3f"/>
  </g>
  <g id="Group_56208" data-name="Group 56208" transform="translate(25.35 47.445)">
    <path id="Path_122796" data-name="Path 122796" d="M240.092,366.246a1.435,1.435,0,1,1,1.434,1.435,1.435,1.435,0,0,1-1.434-1.435Z" transform="translate(-240.092 -364.811)" fill="#7f1f3f"/>
  </g>
  <g id="Group_56209" data-name="Group 56209" transform="translate(22.914 41.165)">
    <path id="Path_122797" data-name="Path 122797" d="M228.47,336.292a1.435,1.435,0,1,1,1.435,1.435A1.435,1.435,0,0,1,228.47,336.292Z" transform="translate(-228.47 -334.857)" fill="#7f1f3f"/>
  </g>
  <g id="Group_56210" data-name="Group 56210" transform="translate(29.01 37.176)">
    <rect id="Rectangle_14010" data-name="Rectangle 14010" width="1.291" height="6.73" fill="#7f1f3f"/>
  </g>
  <g id="Group_56211" data-name="Group 56211" transform="translate(28.22 43.741)">
    <path id="Path_122798" data-name="Path 122798" d="M253.78,348.581a1.434,1.434,0,1,1,.42,1.015,1.435,1.435,0,0,1-.42-1.015Z" transform="translate(-253.78 -347.146)" fill="#7f1f3f"/>
  </g>
  <g id="Group_56212" data-name="Group 56212" transform="translate(4.135 25.365)">
    <rect id="Rectangle_14011" data-name="Rectangle 14011" width="11.248" height="1.291" fill="#7f1f3f"/>
  </g>
  <g id="Group_56213" data-name="Group 56213" transform="translate(8.653 22.928)">
    <rect id="Rectangle_14012" data-name="Rectangle 14012" width="6.73" height="1.291" fill="#7f1f3f"/>
  </g>
  <g id="Group_56214" data-name="Group 56214" transform="translate(2.127 24.575)">
    <path id="Path_122799" data-name="Path 122799" d="M130.749,255.724a1.435,1.435,0,1,1-1.434,1.435,1.435,1.435,0,0,1,1.434-1.435Z" transform="translate(-129.315 -255.724)" fill="#7f1f3f"/>
  </g>
  <g id="Group_56215" data-name="Group 56215" transform="translate(5.933 22.137)">
    <path id="Path_122800" data-name="Path 122800" d="M148.9,244.1a1.435,1.435,0,1,1-1.435,1.435A1.435,1.435,0,0,1,148.9,244.1Z" transform="translate(-147.463 -244.1)" fill="#7f1f3f"/>
  </g>
  <g id="Group_56216" data-name="Group 56216" transform="translate(2.706 28.235)">
    <rect id="Rectangle_14013" data-name="Rectangle 14013" width="12.677" height="1.291" fill="#7f1f3f"/>
  </g>
  <g id="Group_56217" data-name="Group 56217" transform="translate(0 27.445)">
    <path id="Path_122801" data-name="Path 122801" d="M120.607,269.414a1.435,1.435,0,1,1-1.435,1.435,1.435,1.435,0,0,1,1.435-1.435Z" transform="translate(-119.172 -269.414)" fill="#7f1f3f"/>
  </g>
  <g id="Group_56218" data-name="Group 56218" transform="translate(15.432 3.196)">
    <path id="Path_122802" data-name="Path 122802" d="M195.228,154.166a1.435,1.435,0,1,1-2.029,0A1.435,1.435,0,0,1,195.228,154.166Z" transform="translate(-192.778 -153.745)" fill="#7f1f3f"/>
  </g>
  <g id="Group_56219" data-name="Group 56219" transform="translate(3.73 35.864)">
    <path id="Path_122803" data-name="Path 122803" d="M137.877,317.8l-.913-.913,3.816-3.816,3.349,2.131,3.222-3.222,3.407,1.869,4.281-4.281,1.239.591-5.288,5.288-3.407-1.868-3.271,3.271-3.354-2.134Z" transform="translate(-136.964 -309.57)" fill="#7f1f3f"/>
  </g>
  <g id="Group_56220" data-name="Group 56220" transform="translate(6.843 30.993)">
    <path id="Path_122804" data-name="Path 122804" d="M154.3,296.782l-.913-.913,5.634-5.634,3.509,1.97.446-.446-4.116-4.117-3.14.077-3,3-.913-.913,3.362-3.362,4.214-.1,5.421,5.422-2.051,2.051-3.515-1.968Z" transform="translate(-151.807 -286.338)" fill="#7f1f3f"/>
  </g>
  <g id="Group_56221" data-name="Group 56221" transform="translate(2.244 42.714)">
    <path id="Path_122805" data-name="Path 122805" d="M130.3,342.661a1.435,1.435,0,1,1,0,2.029A1.435,1.435,0,0,1,130.3,342.661Z" transform="translate(-129.878 -342.241)" fill="#7f1f3f"/>
  </g>
  <g id="Group_56222" data-name="Group 56222" transform="translate(5.441 33.903)">
    <path id="Path_122806" data-name="Path 122806" d="M145.543,300.638a1.435,1.435,0,1,1,0,2.029A1.435,1.435,0,0,1,145.543,300.638Z" transform="translate(-145.122 -300.217)" fill="#7f1f3f"/>
  </g>
  <g id="Group_56227" data-name="Group 56227" transform="translate(37.433 21.396)">
    <g id="Group_56223" data-name="Group 56223" transform="translate(0 0)">
      <path id="Path_122807" data-name="Path 122807" d="M316.141,249.45h-5.4l-.861-3.874h-4.558l-1.088-3.73h-6.51v-1.291h7.48l1.088,3.731h4.627l.861,3.874h4.361Z" transform="translate(-297.727 -240.554)" fill="#7f1f3f"/>
    </g>
    <g id="Group_56224" data-name="Group 56224" transform="translate(2.237 2.292)">
      <path id="Path_122808" data-name="Path 122808" d="M316.215,262.075h-4.756l-3.05-2.9V251.5h2.9l1.088,3.874h6.993v1.291h-7.967l-1.088-3.874h-.63v5.821l2.275,2.166h4.238Z" transform="translate(-308.408 -251.5)" fill="#7f1f3f"/>
    </g>
    <g id="Group_56225" data-name="Group 56225" transform="translate(17.696 6.814)">
      <path id="Path_122809" data-name="Path 122809" d="M383.574,275.933a1.434,1.434,0,1,1,1.015-.42A1.435,1.435,0,0,1,383.574,275.933Z" transform="translate(-382.139 -273.063)" fill="#7f1f3f"/>
    </g>
    <g id="Group_56226" data-name="Group 56226" transform="translate(9.207 10.785)">
      <path id="Path_122810" data-name="Path 122810" d="M343.079,294.87a1.435,1.435,0,1,1,1.435-1.435A1.435,1.435,0,0,1,343.079,294.87Z" transform="translate(-341.644 -292)" fill="#7f1f3f"/>
    </g>
  </g>
  <g id="Group_56228" data-name="Group 56228" transform="translate(36.427 13.446)">
    <path id="Path_122811" data-name="Path 122811" d="M293.85,209.442l-.922-.909,5.771-5.88,2.3,1.183-.591,1.148-1.452-.744Z" transform="translate(-292.928 -202.653)" fill="#7f1f3f"/>
  </g>
  <g id="Group_56229" data-name="Group 56229" transform="translate(42.767 13.773)">
    <path id="Path_122812" data-name="Path 122812" d="M325.618,206.644a1.435,1.435,0,1,1,0-2.029A1.435,1.435,0,0,1,325.618,206.644Z" transform="translate(-323.168 -204.194)" fill="#7f1f3f"/>
  </g>
  <g id="Group_56230" data-name="Group 56230" transform="translate(34.181 34.129)">
    <path id="Path_122813" data-name="Path 122813" d="M287.392,309.036l-1.148-.591.749-1.457L282.2,302.2l.913-.913,5.46,5.461Z" transform="translate(-282.201 -301.283)" fill="#7f1f3f"/>
  </g>
  <g id="Group_56231" data-name="Group 56231" transform="translate(37.365 40.151)">
    <path id="Path_122814" data-name="Path 122814" d="M297.812,332.47a1.435,1.435,0,1,1,2.029,0A1.435,1.435,0,0,1,297.812,332.47Z" transform="translate(-297.391 -330.02)" fill="#7f1f3f"/>
  </g>
</svg>
