<svg xmlns="http://www.w3.org/2000/svg" width="51.767" height="61.587" viewBox="0 0 51.767 61.587">
  <g id="ico8" transform="translate(-13.037 -8.881)">
    <path id="Path_126892" data-name="Path 126892" d="M279.57,84.912,283.7,78.92l4.127,5.992M283.7,72.736V78.92M271.54,70.529h4.92a1.8,1.8,0,0,1,1.415.681,1.724,1.724,0,0,1,.33.647,5.663,5.663,0,0,0,11.14-1.432,1.675,1.675,0,1,0-3.349,0,2.313,2.313,0,0,1-4.55.589,5.051,5.051,0,0,0-.957-1.9,5.138,5.138,0,0,0-4.03-1.936h-4.92" transform="translate(-230.102 -50.259)" fill="none" stroke="#7f1f3f" stroke-linecap="round" stroke-linejoin="round" stroke-miterlimit="10" stroke-width="2"/>
    <path id="Path_126893" data-name="Path 126893" d="M128.31,91.082a5.547,5.547,0,0,0,5.387-5.6v-.157a.4.4,0,0,0-.4-.405H123.179a.4.4,0,0,0-.4.405v.241a5.556,5.556,0,0,0,1.625,3.931,5.427,5.427,0,0,0,3.908,1.591Zm-32.777-6.17,4.079-5.992,4.079,5.992M99.613,78.92V72.736m12.017-2.208h-4.863a1.774,1.774,0,0,0-1.4.681,1.732,1.732,0,0,0-.325.647A5.591,5.591,0,0,1,94.03,70.424a1.655,1.655,0,1,1,3.31,0,2.284,2.284,0,0,0,4.5.589,5.118,5.118,0,0,1,4.929-3.833h4.863" transform="translate(-74.579 -50.259)" fill="none" stroke="#7f1f3f" stroke-linecap="round" stroke-linejoin="round" stroke-miterlimit="10" stroke-width="2"/>
    <path id="Path_126894" data-name="Path 126894" d="M100.506,78.643a5.577,5.577,0,0,1-5.45-5.6v-.157a.405.405,0,0,1,.405-.405H105.7a.405.405,0,0,1,.405.405v.241a5.523,5.523,0,0,1-5.6,5.52Zm16.011-15.065V53.019h-3.78V63.578m0,21.612V66.954m3.779,3.395V66.954m0,18.239V74.6" transform="translate(-75.48 -37.82)" fill="none" stroke="#7f1f3f" stroke-linecap="round" stroke-linejoin="round" stroke-miterlimit="10" stroke-width="2"/>
    <path id="Path_126895" data-name="Path 126895" d="M177.889,27.275a1.68,1.68,0,0,0,1.688,1.672h3.7a1.672,1.672,0,1,0,0-3.343h-3.7a1.68,1.68,0,0,0-1.688,1.672Zm1.646-12.126-1.031-1.68a1.124,1.124,0,0,1,.215-1.432L180.8,10.2a.951.951,0,0,1,1.258,0l2.076,1.835a1.124,1.124,0,0,1,.215,1.431l-1.031,1.68m-.114,49.8c4.617-1.522,8.186-8.875,8.548-17.94m-20.646,0c.362,9.065,3.931,16.418,8.548,17.94m1.775.078V47.009" transform="translate(-142.506 0)" fill="none" stroke="#7f1f3f" stroke-linecap="round" stroke-linejoin="round" stroke-miterlimit="10" stroke-width="2"/>
    <path id="Path_126896" data-name="Path 126896" d="M96.278,270.288a19.558,19.558,0,0,0,36.931-6.151,1.015,1.015,0,0,0-.24-.8.99.99,0,0,0-.749-.342H95.358a.99.99,0,0,0-.751.344,1.015,1.015,0,0,0-.237.8,19.93,19.93,0,0,0,.425,2.171" transform="translate(-74.869 -216.168)" fill="none" stroke="#7f1f3f" stroke-linecap="round" stroke-linejoin="round" stroke-miterlimit="10" stroke-width="2"/>
    <path id="Path_126897" data-name="Path 126897" d="M53.73,277.507a25.1,25.1,0,0,0,18.108-31.081" transform="translate(-9.024 -208.25)" fill="none" stroke="#7f1f3f" stroke-linecap="round" stroke-linejoin="round" stroke-miterlimit="10" stroke-width="2"/>
    <path id="Path_126898" data-name="Path 126898" d="M69.107,277.507A25.1,25.1,0,0,1,51,246.425m41.033,17.386H58.208" transform="translate(-35.973 -208.25)" fill="none" stroke="#7f1f3f" stroke-linecap="round" stroke-linejoin="round" stroke-miterlimit="10" stroke-width="2"/>
  </g>
</svg>
