<svg xmlns="http://www.w3.org/2000/svg" xmlns:xlink="http://www.w3.org/1999/xlink" width="58" height="53.229" viewBox="0 0 58 53.229">
  <defs>
    <clipPath id="clip-path">
      <path id="Path_126903" data-name="Path 126903" d="M385.352,2142.566l-11.491,2.516-1.44,9.159,4.367-.248,3.015,11.269.183,3.472,5.369,7.465,4.446,2.181,8.472-5.7,6.877-13.252v-11.742l-14.091-7.129Z" transform="translate(-372.421 -2140.552)" fill="#fff"/>
    </clipPath>
    <clipPath id="clip-path-2">
      <path id="Path_126914" data-name="Path 126914" d="M115.2,66h-3.981l-3.555.435-2.347,2.1L93.391,80.886,90.8,83.356l2.594,7.1-3.335.618-5.749-4.431-2.845-9.637L82.6,70.832,84.616,67.2l1.271-3.066,2.8-2.76,2.8-1.489L95.3,58.26l3.242-1.139h3.767l5.607,2.32,2.936,1.446,2.716,2.365L115.5,65.18Z" transform="translate(-81.462 -57.121)" fill="#fff"/>
    </clipPath>
  </defs>
  <g id="ico9" transform="translate(-331.03 -2133.052)">
    <g id="Group_57156" data-name="Group 57156" transform="translate(341.903 2149.791)">
      <path id="Path_126902" data-name="Path 126902" d="M357.153,2172.7l-.465,1.887-3.379,1.744-2.836-5.561,8.287-6.869v-3.38a11.788,11.788,0,0,1,6.434,1.2c2.892,1.636,4.008,2.481,5.126,5.343a15.613,15.613,0,0,1,.653,6.542v4.906a10.067,10.067,0,0,0-1.09,3.926,7.131,7.131,0,0,0,1.09,3.489h3.053v3.707h1.5a2.114,2.114,0,0,1,1.255.418,1.959,1.959,0,0,1,.4,1.226v4.681H348.838v-4.5a2.189,2.189,0,0,1,.55-1.348,2.716,2.716,0,0,1,1.488-.477h1.671v-1.99a2.115,2.115,0,0,1,.336-1.292,1.857,1.857,0,0,1,1.206-.427h1.732a9.693,9.693,0,0,1,.868-5.67c1.418-2.617,4.907-4.8,4.907-4.8l-.545-4.689Z" transform="translate(-348.838 -2160.468)" fill="none" stroke="#7f1f3f" stroke-linejoin="round" stroke-width="2"/>
      <line id="Line_8714" data-name="Line 8714" x1="16.485" transform="translate(6.462 25.468)" fill="none" stroke="#7f1f3f" stroke-width="2"/>
      <line id="Line_8715" data-name="Line 8715" x1="21.98" transform="translate(3.457 29.174)" fill="none" stroke="#7f1f3f" stroke-width="2"/>
    </g>
    <g id="Mask_Group_28" data-name="Mask Group 28" transform="translate(356.302 2137.631)" clip-path="url(#clip-path)">
      <g id="Group_57157" data-name="Group 57157" transform="translate(2.392 1.745)">
        <path id="Path_126900" data-name="Path 126900" d="M391.168,2143.41s1.908,4.091,5.342,5.452,8.4,0,8.4,0,1.717,8.614-1.853,15.813-12.43,12.975-12.43,12.975-8.014-5.779-11.558-12.975-2.617-15.813-2.617-15.813,5.043,1.363,8.723,0S391.168,2143.41,391.168,2143.41Z" transform="translate(-376.339 -2143.41)" fill="none" stroke="#7f1f3f" stroke-linejoin="round" stroke-width="2"/>
        <path id="Path_126901" data-name="Path 126901" d="M390.09,2167.778l5.126,4.47,6.76-8.832" transform="translate(-381.694 -2151.201)" fill="none" stroke="#7f1f3f" stroke-linecap="round" stroke-linejoin="round" stroke-width="2"/>
      </g>
    </g>
    <g id="Mask_Group_35" data-name="Mask Group 35" transform="translate(331.03 2133.052)" clip-path="url(#clip-path-2)">
      <g id="Group_60437" data-name="Group 60437" transform="translate(1.434 1.388)">
        <path id="path854" d="M18.2,6.086a.869.869,0,0,0-.855.7l-.331,1.654A15.563,15.563,0,0,0,12.9,10.17l-1.436-.949a.869.869,0,0,0-1.1.109L6.684,13.017a.869.869,0,0,0-.109,1.09l.943,1.41a15.564,15.564,0,0,0-1.705,4.148L4.138,20a.869.869,0,0,0-.7.855V26.06a.869.869,0,0,0,.7.855l1.654.327A15.609,15.609,0,0,0,7.53,31.371L6.574,32.8a.869.869,0,0,0,.109,1.1l3.687,3.68a.869.869,0,0,0,1.1.109l1.4-.936a15.609,15.609,0,0,0,4.152,1.705l.327,1.667a.869.869,0,0,0,.855.7H23.42a.869.869,0,0,0,.855-.7L24.6,38.48a15.57,15.57,0,0,0,4.187-1.7l1.369.909a.869.869,0,0,0,1.1-.109l3.687-3.68a.869.869,0,0,0,.109-1.1l-.916-1.379a15.569,15.569,0,0,0,1.7-4.184l1.649-.327a.869.869,0,0,0,.7-.855v-5.2a.869.869,0,0,0-.7-.855l-1.616-.321a15.584,15.584,0,0,0-1.757-4.161l.936-1.41a.869.869,0,0,0-.109-1.09L31.253,9.331a.869.869,0,0,0-1.1-.109l-1.391.93a15.578,15.578,0,0,0-4.168-1.71l-.327-1.654a.869.869,0,0,0-.855-.7Zm.712,1.738h3.792l.282,1.4a.869.869,0,0,0,.672.68,13.921,13.921,0,0,1,4.745,1.949.869.869,0,0,0,.949-.006l1.174-.782,2.681,2.68-.794,1.186a.869.869,0,0,0,0,.962,13.878,13.878,0,0,1,2,4.732.869.869,0,0,0,.68.667l1.353.276v3.786l-1.391.282a.869.869,0,0,0-.68.68,13.892,13.892,0,0,1-1.943,4.762.869.869,0,0,0,.007.949l.769,1.148-2.68,2.68-1.148-.763a.869.869,0,0,0-.956-.007,13.879,13.879,0,0,1-4.762,1.936.869.869,0,0,0-.68.686l-.278,1.384H18.917l-.282-1.4a.869.869,0,0,0-.672-.68,13.9,13.9,0,0,1-4.725-1.949.869.869,0,0,0-.956.007l-1.186.788-2.68-2.68.808-1.212A.869.869,0,0,0,9.23,31a13.877,13.877,0,0,1-1.981-4.7.869.869,0,0,0-.68-.667l-1.391-.282V21.56l1.41-.282a.869.869,0,0,0,.68-.672,13.9,13.9,0,0,1,1.948-4.723.869.869,0,0,0-.007-.956l-.794-1.186,2.68-2.68,1.212.808a.869.869,0,0,0,.962,0,13.909,13.909,0,0,1,4.706-1.981.869.869,0,0,0,.667-.68Z" transform="translate(-3.439 -6.086)" fill="#7f1f3f" stroke="#7f1f3f" stroke-width="0.2"/>
        <path id="path856" d="M16.581,7.938A11.291,11.291,0,1,0,27.872,19.229,11.291,11.291,0,0,0,16.581,7.938Zm0,1.738a9.544,9.544,0,1,1-6.758,2.8,9.554,9.554,0,0,1,6.758-2.8Z" transform="translate(0.788 -1.859)" fill="#7f1f3f" stroke="#7f1f3f" stroke-width="0.2"/>
      </g>
    </g>
  </g>
</svg>
