<svg id="IiconLab4" xmlns="http://www.w3.org/2000/svg" xmlns:xlink="http://www.w3.org/1999/xlink" width="82" height="82" viewBox="0 0 82 82">
  <defs>
    <clipPath id="clip-path">
      <rect id="Rectangle_16228" data-name="Rectangle 16228" width="56" height="56" transform="translate(-0.387 -0.387)" fill="#7f1f3f"/>
    </clipPath>
  </defs>
  <circle id="Ellipse_11171" data-name="Ellipse 11171" cx="41" cy="41" r="41" fill="#5e81a4" opacity="0.1"/>
  <g id="Picture4" transform="translate(13.387 13.379)" clip-path="url(#clip-path)">
    <path id="Path_126940" data-name="Path 126940" d="M48.368,39.05H43.3a.862.862,0,0,0,0,1.725h5.065a.862.862,0,0,0,0-1.725Z" transform="translate(-18.024 -16.583)" fill="#7f1f3f"/>
    <path id="Path_126941" data-name="Path 126941" d="M46.984,45.725A1.846,1.846,0,0,0,48.824,44H45.15A1.84,1.84,0,0,0,46.984,45.725Z" transform="translate(-19.176 -18.687)" fill="#7f1f3f"/>
    <path id="Path_126942" data-name="Path 126942" d="M42.908,10.44h0a7.4,7.4,0,0,0-7.348,7.267v.253a7.584,7.584,0,0,0,.512,2.576,6.9,6.9,0,0,0,1.276,2.093,14.1,14.1,0,0,1,1.725,2.794.575.575,0,0,0,.506.316h6.669a.575.575,0,0,0,.506-.316,14.152,14.152,0,0,1,1.725-2.794,6.985,6.985,0,0,0,1.271-2.093,7.877,7.877,0,0,0,.512-2.547v-.253A7.405,7.405,0,0,0,42.908,10.44Zm5.657,7.474a6.157,6.157,0,0,1-.4,1.984,5.232,5.232,0,0,1-.96,1.552A13.224,13.224,0,0,0,45.553,24H40.269a13.258,13.258,0,0,0-1.656-2.547,5.215,5.215,0,0,1-.954-1.552,6.157,6.157,0,0,1-.4-1.984v-.207a5.686,5.686,0,0,1,5.652-5.588h0a5.692,5.692,0,0,1,5.657,5.588Z" transform="translate(-15.1 -4.422)" fill="#7f1f3f"/>
    <path id="Path_126943" data-name="Path 126943" d="M43.52,21.939,46.561,16v3.438l3.156-.627-3.156,5.813V21.249Z" transform="translate(-18.483 -6.785)" fill="#7f1f3f"/>
    <path id="Path_126944" data-name="Path 126944" d="M70.226,50.223a4.473,4.473,0,1,1-4.473-4.473A4.473,4.473,0,0,1,70.226,50.223Z" transform="translate(-26.032 -19.431)" fill="#7f1f3f"/>
    <path id="Path_126945" data-name="Path 126945" d="M28.726,50.223a4.473,4.473,0,1,1-4.473-4.473A4.473,4.473,0,0,1,28.726,50.223Z" transform="translate(-8.392 -19.431)" fill="#7f1f3f"/>
    <path id="Path_126946" data-name="Path 126946" d="M71.737,66.082a11.292,11.292,0,0,0-4.37-2.087,14.493,14.493,0,0,0-3.68-.575,11.9,11.9,0,0,0-3.68.575,12.776,12.776,0,0,0-3.381,1.449c-.069.08-.132.161-.207.236a12.9,12.9,0,0,1,4.6,2.3A4.105,4.105,0,0,1,62.7,71.354v1.023h9.929v-4.5A2.139,2.139,0,0,0,71.737,66.082Z" transform="translate(-23.966 -26.942)" fill="#7f1f3f"/>
    <path id="Path_126947" data-name="Path 126947" d="M21.941,71.354a4.232,4.232,0,0,1,1.61-3.317l.069-.057.075-.052a16.059,16.059,0,0,1,4.519-2.242c-.115-.121-.218-.247-.328-.374a12.233,12.233,0,0,0-3.237-1.317,14.449,14.449,0,0,0-3.68-.575,11.919,11.919,0,0,0-3.68.575,13.8,13.8,0,0,0-4.37,2.087A2.3,2.3,0,0,0,12,67.876v4.5h9.941Z" transform="translate(-5.085 -26.942)" fill="#7f1f3f"/>
    <path id="Path_126948" data-name="Path 126948" d="M32.75,78.4V73.93a2.248,2.248,0,0,1,.9-1.788,13.581,13.581,0,0,1,4.37-2.087,11.758,11.758,0,0,1,3.68-.575,14.2,14.2,0,0,1,3.68.575,11.194,11.194,0,0,1,4.375,2.087,2.127,2.127,0,0,1,.891,1.788V78.4Z" transform="translate(-13.905 -29.517)" fill="#7f1f3f"/>
    <path id="Path_126949" data-name="Path 126949" d="M49.476,56.273A4.473,4.473,0,1,1,45,51.8,4.473,4.473,0,0,1,49.476,56.273Z" transform="translate(-17.212 -22.002)" fill="#7f1f3f"/>
  </g>
</svg>
