<svg id="IiconLab3" xmlns="http://www.w3.org/2000/svg" xmlns:xlink="http://www.w3.org/1999/xlink" width="82" height="82" viewBox="0 0 82 82">
  <defs>
    <clipPath id="clip-path">
      <rect id="Rectangle_16227" data-name="Rectangle 16227" width="62" height="62" transform="translate(0.13 0.13)" fill="#7f1f3f"/>
    </clipPath>
  </defs>
  <circle id="Ellipse_11171" data-name="Ellipse 11171" cx="41" cy="41" r="41" fill="#5e81a4" opacity="0.1"/>
  <g id="Picture3" transform="translate(9.87 9.862)" clip-path="url(#clip-path)">
    <path id="Path_126933" data-name="Path 126933" d="M19.247,28.684A3.247,3.247,0,1,0,16,25.437,3.247,3.247,0,0,0,19.247,28.684Z" transform="translate(-5.65 -7.82)" fill="#7f1f3f"/>
    <path id="Path_126934" data-name="Path 126934" d="M23.5,40a1.649,1.649,0,0,0,.961.312h4.546a1.623,1.623,0,1,0,0-3.247H25L21.908,34.8a3.2,3.2,0,0,0-2.935-1.3,3.312,3.312,0,0,0-2.9,3.344v9.312A3.247,3.247,0,0,0,19.317,49.4h7.1v8.26a1.623,1.623,0,0,0,3.247,0v-9.9a1.623,1.623,0,0,0-1.623-1.623h-5.52v-6.87Z" transform="translate(-5.674 -11.779)" fill="#7f1f3f"/>
    <path id="Path_126935" data-name="Path 126935" d="M73.247,28.684A3.247,3.247,0,1,0,70,25.437,3.247,3.247,0,0,0,73.247,28.684Z" transform="translate(-24.584 -7.82)" fill="#7f1f3f"/>
    <path id="Path_126936" data-name="Path 126936" d="M69.163,33.45a3.2,3.2,0,0,0-2.935,1.3l-3.091,2.3H59.123a1.623,1.623,0,1,0,0,3.247h4.546a1.649,1.649,0,0,0,.961-.312l.987-.734v6.89h-5.5a1.623,1.623,0,0,0-1.623,1.623v9.883a1.623,1.623,0,1,0,3.247,0v-8.26h7.065a3.247,3.247,0,0,0,3.247-3.247V36.794A3.312,3.312,0,0,0,69.163,33.45Z" transform="translate(-20.201 -11.762)" fill="#7f1f3f"/>
    <path id="Path_126937" data-name="Path 126937" d="M52.377,46H30.3a1.3,1.3,0,1,0,0,2.6h9.74V61.585h-3.9v2.6h10.39v-2.6h-3.9V48.6h9.74a1.3,1.3,0,1,0,0-2.6Z" transform="translate(-10.208 -16.169)" fill="#7f1f3f"/>
    <path id="Path_126938" data-name="Path 126938" d="M21.689,52.286H12.6V39.3a1.3,1.3,0,1,0-2.6,0V53.585a1.3,1.3,0,0,0,1.3,1.3h3.9v3.9H12.6v2.6H20.39v-2.6h-2.6v-3.9h3.9a1.3,1.3,0,0,0,0-2.6Z" transform="translate(-3.546 -13.364)" fill="#7f1f3f"/>
    <path id="Path_126939" data-name="Path 126939" d="M77.689,38.5a1.3,1.3,0,0,0-1.3,1.3V52.461H67.3a1.3,1.3,0,1,0,0,2.6h3.9v3.9H68.6v2.6H76.39v-2.6h-2.6v-3.9h3.9a1.3,1.3,0,0,0,1.3-1.3V39.8A1.3,1.3,0,0,0,77.689,38.5Z" transform="translate(-23.182 -13.539)" fill="#7f1f3f"/>
  </g>
</svg>
