<svg id="IiconLab6" xmlns="http://www.w3.org/2000/svg" width="82" height="82" viewBox="0 0 82 82">
  <circle id="Ellipse_11171" data-name="Ellipse 11171" cx="41" cy="41" r="41" fill="#5e81a4" opacity="0.1"/>
  <g id="Group_60621" data-name="Group 60621" transform="translate(15.15 15.781)">
    <path id="Path_126956" data-name="Path 126956" d="M24.981,15.453a7.8,7.8,0,0,1,1.357,4.223.811.811,0,0,0,.754.754H28.9V15.378a.712.712,0,0,1,.754-.754.756.756,0,0,1,.754.754v5.053h1.735a.712.712,0,0,0,.754-.754,7.6,7.6,0,0,1,1.357-4.223c2.489-3.544.6-8.522-3.318-9.427A5.533,5.533,0,0,0,24.981,8.44,6.259,6.259,0,0,0,24.981,15.453Zm13.047-2.79h1.056a.754.754,0,1,0,0-1.508H38.027a.712.712,0,0,0-.754.754A.756.756,0,0,0,38.027,12.663ZM36.066,6.177l.754-.83a.747.747,0,1,0-1.056-1.056l-.754.83a.747.747,0,1,0,1.056,1.056Zm-6.41-2.338a.712.712,0,0,0,.754-.754V1.954a.754.754,0,1,0-1.508,0V3.085A.756.756,0,0,0,29.656,3.839ZM23.171,6.177a.747.747,0,0,0,1.056-1.056l-.754-.83a.747.747,0,1,0-1.056,1.056Zm-3.017,6.486H21.21a.754.754,0,1,0,0-1.508H20.154a.712.712,0,0,0-.754.754A.811.811,0,0,0,20.154,12.663Zm3.318,6.787.754-.83a.747.747,0,0,0-1.056-1.056l-.754.83a.747.747,0,0,0,1.056,1.056Zm12.594-1.885a.747.747,0,1,0-1.056,1.056l.754.83a.747.747,0,1,0,1.056-1.056ZM28.3,21.713a.754.754,0,0,0,0,1.508h2.639a.754.754,0,1,0,0-1.508Z" transform="translate(-3.791)" fill="#7f1f3f"/>
    <path id="Path_126957" data-name="Path 126957" d="M47.66,34c-.9-1.659,2.187,4.223-4.148-7.918a1.19,1.19,0,0,0-.377-.452l-7.768-3.544a.743.743,0,1,0-.6,1.357l6.109,2.79L26.017,31.885C5.5,23.967,12.593,26.757,11.009,26.154l6.259-2.639a.743.743,0,0,0-.6-1.357L8.747,25.55c-.226.075-.3.3-.377.377l-4.3,8.6a.731.731,0,0,0,.452,1.056l18.1,5.2a.81.81,0,0,0,.9-.452L26.017,34.6l2.866,5.807a.7.7,0,0,0,.9.377l17.421-5.656A.889.889,0,0,0,47.66,34Z" transform="translate(0 -5.12)" fill="#7f1f3f"/>
    <path id="Path_126958" data-name="Path 126958" d="M26.316,46.092l.3-.679v14.1L10.252,52.8a.725.725,0,0,1-.452-.679V43.377L23.525,47.3a2.241,2.241,0,0,0,2.79-1.207ZM44.943,43v9.05a.66.66,0,0,1-.452.679L28.126,59.44V44.584l.754,1.584a2.326,2.326,0,0,0,2.639,1.207c8.371-2.715,11.689-3.771,12.82-4.148h.226c.075,0,.075,0,.075-.075h.075C44.867,43,44.943,43,44.943,43Z" transform="translate(-1.43 -10.277)" fill="#7f1f3f"/>
  </g>
</svg>
