<svg id="IiconLab5" xmlns="http://www.w3.org/2000/svg" width="82" height="82" viewBox="0 0 82 82">
  <circle id="Ellipse_11171" data-name="Ellipse 11171" cx="41" cy="41" r="41" fill="#5e81a4" opacity="0.1"/>
  <g id="Group_60620" data-name="Group 60620" transform="translate(-0.193 -0.193)">
    <path id="Path_126955" data-name="Path 126955" d="M41.194,21.878A18.5,18.5,0,0,0,22.718,40.354v.018A18.475,18.475,0,0,0,32.931,56.9l.151.076a2.506,2.506,0,0,1,1.393,2.253v4.642a2.522,2.522,0,0,0,2.519,2.519h9.238a2.522,2.522,0,0,0,2.519-2.519V59.027a2.536,2.536,0,0,1,1.2-2.146l.926-.57q.786-.485,1.521-1.046l.379.379a2.621,2.621,0,1,0,3.707-3.707l-.41-.41a18.586,18.586,0,0,0,3.6-10.95v-.223A18.5,18.5,0,0,0,41.194,21.878Zm5.878,41.989a.841.841,0,0,1-.84.84H36.995a.841.841,0,0,1-.84-.84v-1.68H47.072Zm0-4.841v1.482H36.155V59.226a4.227,4.227,0,0,0-.185-1.236H47.205A4.149,4.149,0,0,0,47.072,59.027ZM55.3,54.456a.943.943,0,0,1-1.332,0l-8.378-8.378A7.617,7.617,0,0,0,46.971,44.8L55.3,53.124a.943.943,0,0,1,0,1.332ZM32.951,44.917l-2.874.8L29.463,44.4l2.494-1.6-.431-3.636-2.807-1.019.287-1.415,2.982.156L33.8,33.7l-1.672-2.449,1.082-.979,2.333,1.861,3.353-1.5.1-2.92,1.476-.163.78,2.83,3.61.733,1.821-2.3,1.3.725-1.049,2.727,2.5,2.693,2.873-.8.615,1.324-2.494,1.6.431,3.636,2.807,1.019-.287,1.415-2.982-.156-1.039,1.821L47.92,43.373a7.559,7.559,0,1,0-3.861,3.553l1.419,1.419-1.994.895-.1,2.92-1.476.163-.78-2.83-3.61-.733-1.821,2.3-1.3-.725,1.049-2.727Zm8.243.9a5.878,5.878,0,1,1,5.878-5.878,5.878,5.878,0,0,1-5.878,5.878Zm16.8-5.236a16.9,16.9,0,0,1-3.119,9.747L50.587,46.04l.753-1.321,3.394.178.863-4.253-3.2-1.16-.186-1.565,2.842-1.828-1.833-3.947-3.262.913-1.091-1.175,1.195-3.106L46.253,26.64l-2.07,2.616L42.6,28.934l-.887-3.216-4.345.48-.11,3.326-1.463.656-2.648-2.112-3.226,2.92,1.906,2.791-.781,1.369-3.394-.178-.863,4.253,3.195,1.16.186,1.565-2.843,1.828,1.833,3.947,3.262-.913,1.091,1.175-1.195,3.106,3.814,2.136,2.07-2.616,1.588.322.887,3.216,4.345-.48.11-3.326,1.621-.727L51.2,54.067q-.584.433-1.2.814l-.926.57a4.164,4.164,0,0,0-1,.859H34.98a4.22,4.22,0,0,0-1.146-.84l-.152-.076A16.8,16.8,0,0,1,24.4,40.372v-.018a16.8,16.8,0,0,1,33.591,0Zm3.359-2.742h5.039v1.68H61.348ZM40.354,16h1.68v4.2h-1.68Zm10.319,6.128,3.359-3.359,1.188,1.188L51.86,23.315Zm7.64,6.639,4.2-3.361,1.05,1.312-4.2,3.361Zm1.724,19.873L60.9,47.2l4.2,2.517-.863,1.44ZM16,37.834h5.039v1.68H16Zm11.161-17.88,1.188-1.187,3.359,3.359L30.52,23.313Zm-8.323,6.781,1.05-1.312,4.2,3.361L23.038,30.1ZM17.263,49.693l4.2-2.522.865,1.439-4.2,2.522Z" fill="#7f1f3f"/>
  </g>
</svg>
