<svg xmlns="http://www.w3.org/2000/svg" xmlns:xlink="http://www.w3.org/1999/xlink" width="304" height="308" viewBox="0 0 304 308">
  <defs>
    <clipPath id="clip-path">
      <rect id="mask" width="304" height="308" transform="translate(34 21)" fill="#fff"/>
    </clipPath>
  </defs>
  <g id="Mask-2" data-name="Mask" transform="translate(-34 -21)" clip-path="url(#clip-path)">
    <g id="data" transform="translate(22 66.326)">
      <text id="نظام_إدارة_التعلم" data-name="نظام إدارة التعلم" transform="translate(37 151.674)" fill="#5e81a4" font-size="20" font-family="Almarai-Regular, Almarai"><tspan x="-66.38" y="18">نظام إدارة التعلم</tspan></text>
      <g id="serv-icon02" transform="translate(119 46.262)">
        <rect id="base" width="90" height="90" rx="4" transform="translate(0 -13.588)" fill="none"/>
        <g id="serv-icon02-2" data-name="serv-icon02" transform="translate(13.783 -2.045)">
          <g id="Group_57130" data-name="Group 57130" transform="translate(0 8.661)">
            <path id="Path_124974" data-name="Path 124974" d="M104.012,114.728H50.24V85.6A3.365,3.365,0,0,1,53.6,82.24H78.247V80H53.6A5.608,5.608,0,0,0,48,85.6v34.728a5.608,5.608,0,0,0,5.6,5.6H67.586l-2.4,5.6H60.323a3.361,3.361,0,1,0,0,6.721H93.93a3.361,3.361,0,1,0,0-6.721H89.068l-2.4-5.6h13.985a5.608,5.608,0,0,0,5.6-5.6V101.285h-2.24ZM95.05,134.892a1.122,1.122,0,0,1-1.12,1.12H60.323a1.12,1.12,0,1,1,0-2.24H93.93A1.122,1.122,0,0,1,95.05,134.892Zm-8.42-3.361H67.623l2.4-5.6H84.23Zm14.022-7.842H53.6a3.365,3.365,0,0,1-3.361-3.361v-3.361h53.772v3.361A3.365,3.365,0,0,1,100.652,123.69Z" transform="translate(-48 -80)" fill="#7f1f3f" stroke="#fff" stroke-width="0.8"/>
            <path id="Path_124975" data-name="Path 124975" d="M248,85.867h2.24v2.24H248Z" transform="translate(-219.994 -46.659)" fill="#7f1f3f" stroke="#fff" stroke-width="1"/>
          </g>
          <g id="Group_57131" data-name="Group 57131" transform="translate(31.668)">
            <path id="Path_124977" data-name="Path 124977" d="M283.554,30.894a1.12,1.12,0,0,0,.316-1.253l-1.34-3.485a1.12,1.12,0,0,0-1.074-.718l-3.05.078-1.34-1.41.234-3.042a1.12,1.12,0,0,0-.662-1.109l-3.412-1.516a1.12,1.12,0,0,0-1.267.252l-2.1,2.211-1.945-.05-1.986-2.316a1.12,1.12,0,0,0-1.252-.316l-3.485,1.34a1.12,1.12,0,0,0-.718,1.074l.078,3.049-1.41,1.34-3.042-.234a1.12,1.12,0,0,0-1.109.662l-1.516,3.412a1.12,1.12,0,0,0,.252,1.267l2.211,2.1-.05,1.945-2.316,1.986a1.12,1.12,0,0,0-.316,1.253l1.34,3.485a1.126,1.126,0,0,0,1.074.718l3.05-.078,1.34,1.41-.234,3.042a1.12,1.12,0,0,0,.662,1.109l3.412,1.516a1.12,1.12,0,0,0,1.267-.252l2.1-2.211,1.945.05,1.986,2.316a1.12,1.12,0,0,0,1.252.316l3.485-1.34a1.12,1.12,0,0,0,.718-1.074l-.078-3.049,1.41-1.34,3.042.234a1.12,1.12,0,0,0,1.109-.662l1.516-3.412a1.12,1.12,0,0,0-.252-1.267l-2.211-2.1.05-1.945Zm-4.27,5.212,2,1.9-.875,1.967-2.75-.211a1.118,1.118,0,0,0-.857.3l-2.132,2.026a1.121,1.121,0,0,0-.348.84l.07,2.757-2.009.773-1.8-2.094a1.12,1.12,0,0,0-.822-.391l-2.941-.075H266.8a1.12,1.12,0,0,0-.812.349l-1.9,2-1.966-.875.211-2.75a1.12,1.12,0,0,0-.3-.857L260,39.637a1.113,1.113,0,0,0-.84-.348l-2.757.07-.773-2.009,2.093-1.8a1.12,1.12,0,0,0,.391-.822l.075-2.941a1.121,1.121,0,0,0-.348-.84l-2-1.9.875-1.967,2.75.211a1.123,1.123,0,0,0,.857-.3l2.132-2.026a1.121,1.121,0,0,0,.348-.84l-.07-2.757,2.009-.773,1.8,2.094a1.12,1.12,0,0,0,.821.39l2.941.075a1.1,1.1,0,0,0,.84-.348l1.9-2,1.967.875-.211,2.75a1.12,1.12,0,0,0,.3.857l2.026,2.132a1.114,1.114,0,0,0,.84.348l2.757-.07.773,2.009L279.4,31.5a1.12,1.12,0,0,0-.391.822l-.075,2.941a1.12,1.12,0,0,0,.348.84Z" transform="translate(-253.179 -18.146)" fill="#7f1f3f" stroke="#fff" stroke-width="0.8"/>
            <path id="Path_124976" data-name="Path 124976" d="M140.467,71.593a7.973,7.973,0,1,0,10.3,4.58A7.974,7.974,0,0,0,140.467,71.593Zm4.921,12.793a5.733,5.733,0,1,1,3.292-7.409,5.733,5.733,0,0,1-3.292,7.409Z" transform="translate(-127.947 -63.652)" fill="#7f1f3f" stroke="#fff" stroke-width="0.8"/>
          </g>
        </g>
      </g>
    </g>
  </g>
</svg>
