<svg id="men-shabe" xmlns="http://www.w3.org/2000/svg" width="62.032" height="62" viewBox="0 0 62.032 62">
  <path id="Path_118" data-name="Path 118" d="M3.342,3.125-6.74-6.957,4.619-18.317v-.4H3.32L-7.591-7.807h0L-18.5-18.717h-1.3v.4L-8.442-6.957-18.526,3.125l.261.5-1.753,1.753.541.541L-7.591-5.967,4.292,5.918l.541-.541L3.081,3.623Z" transform="translate(38.608 37.507)" fill="#c6aa76"/>
  <path id="Path_119" data-name="Path 119" d="M3.494.155V-.927L-8,10.564H-9.434L-20.926-.927V.155l12.21,12.21Z" transform="translate(39.732 8.226)" fill="#c6aa76"/>
  <path id="Path_120" data-name="Path 120" d="M2.145.4-.634-2.381h0L-3.416.4l.627.128L-12.845,10.583v1.082L-.635-.545l12.21,12.21V10.583L1.519.526Z" transform="translate(31.652 46.685)" fill="#c6aa76"/>
  <path id="Path_121" data-name="Path 121" d="M3.494.155V-.927L-8.716,11.282-20.926-.927V.155l12.21,12.21Z" transform="translate(39.732 4.576)" fill="#c6aa76"/>
  <path id="Path_122" data-name="Path 122" d="M3.494.155V-.927L-4.348,6.915H-5.1l-3.611,3.609h0l-3.611-3.609h-.756L-20.926-.927V.155l12.21,12.21Z" transform="translate(39.732 11.876)" fill="#c6aa76"/>
  <path id="Path_123" data-name="Path 123" d="M2.529.782-2.935-4.682h0L-8.4.782l.516.244-7.262,7.261V9.369L-2.936-2.842,9.274,9.369V8.287L2.014,1.026Z" transform="translate(33.952 45.332)" fill="#c6aa76"/>
  <path id="Path_124" data-name="Path 124" d="M2.846,1.1-4.836-6.583h0L-12.519,1.1l.427.331-4.955,4.955V7.467L-4.837-4.742h0L7.373,7.467V6.386L2.418,1.431Z" transform="translate(35.853 43.582)" fill="#c6aa76"/>
  <path id="Path_125" data-name="Path 125" d="M1.312,2.741-6.016-4.586l11.83-11.83H4.731L1.624-13.31v-.756l-9.48,9.479.38.382h0L4.75,8.02H5.833L1.155,3.344Z" transform="translate(41.603 35.206)" fill="#c6aa76"/>
  <path id="Path_126" data-name="Path 126" d="M3.494,0-8.715,12.209-20.924,0h0V1.082l12.21,12.21L3.495,1.082V0Z" transform="translate(39.731)" fill="#c6aa76"/>
  <path id="Path_127" data-name="Path 127" d="M3.1,1.365-6.375-8.173h0l-9.478,9.538.321.379-3.052,3.05V5.877l12.21-12.21L5.834,5.877V4.794L2.782,1.744Z" transform="translate(37.393 41.523)" fill="#c6aa76"/>
  <path id="Path_128" data-name="Path 128" d="M1.747,0-10.462,12.209,1.765,24.435H2.847L-9.379,12.209,2.83,0Z" transform="translate(59.185 18.79)" fill="#c6aa76"/>
  <path id="Path_129" data-name="Path 129" d="M.312,1.747V1.708l-.341-.341L11.8-10.462H10.718L.312-.055V-.812l-2.18,2.18.38.38h0L10.736,13.973h1.083L.312,2.467Z" transform="translate(42.915 29.253)" fill="#c6aa76"/>
  <path id="Path_130" data-name="Path 130" d="M.834,2.263l-3.99-3.99L8.673-13.556H7.591L.834-6.8v-.756L-5-1.725l.38.379h0L7.61,10.88H8.693L.833,3.022Z" transform="translate(42.393 32.345)" fill="#c6aa76"/>
  <path id="Path_131" data-name="Path 131" d="M1.9,0H.819L-11.389,12.209.837,24.436H1.919L-10.307,12.209Z" transform="translate(56.464 18.79)" fill="#c6aa76"/>
  <path id="Path_132" data-name="Path 132" d="M1.747,1.9l8.989-8.989,3.221-3.221V-11.39L9.764-7.2H9.008L1.748.061h0L-5.515-7.2h-.756l-4.193-4.192v1.082l3.222,3.221Z" transform="translate(29.269 25.989)" fill="#c6aa76"/>
  <path id="Path_133" data-name="Path 133" d="M1.9,1.747l.38-.38L-7.195-8.113v.756L-10.3-10.463h-1.082L.445,1.367-6.883,8.694l.156.6L-11.4,13.972h1.083L1.905,1.748Z" transform="translate(26.002 29.253)" fill="#c6aa76"/>
  <path id="Path_134" data-name="Path 134" d="M0,1.747V2.83L12.21-9.38,24.42,2.83V1.747L12.21-10.462Z" transform="translate(18.807 59.17)" fill="#c6aa76"/>
  <path id="Path_135" data-name="Path 135" d="M.158,0H-.925L11.283,12.209-.944,24.436H.139L12.366,12.209Z" transform="translate(0.944 18.79)" fill="#c6aa76"/>
  <path id="Path_136" data-name="Path 136" d="M1.9,1.747l.38-.38L.1-.813v.757L-10.3-10.463h-1.082L.445,1.367.1,1.707v.759L-11.4,13.972h1.083L1.905,1.748Z" transform="translate(18.703 29.253)" fill="#c6aa76"/>
  <path id="Path_137" data-name="Path 137" d="M1.9,1.747l.38-.38-5.83-5.829v.756L-10.3-10.463h-1.082L.445,1.367l-3.991,3.99,0,.757-7.86,7.858h1.083L1.905,1.748Z" transform="translate(22.352 29.253)" fill="#c6aa76"/>
  <path id="Path_138" data-name="Path 138" d="M.157,0H-.925L11.283,12.209-.943,24.436H.14L12.366,12.209Z" transform="translate(4.593 18.79)" fill="#c6aa76"/>
</svg>
