<svg id="MMIcon4" xmlns="http://www.w3.org/2000/svg" xmlns:xlink="http://www.w3.org/1999/xlink" width="47.861" height="53.222" viewBox="0 0 47.861 53.222">
  <defs>
    <clipPath id="clip-path">
      <path id="Union_6" data-name="Union 6" d="M11.03,49.84,6.544,46.567,1.683,41.146l3.793-1.764,7.046.76,2.887-.721,1.5,2.284,7.061,2.611,7.012-2.611,1.529-2.284,3.056.807,12.3-1.887-5.7,7.665s-1.622,2.279-6.17,4.488S30.577,52.9,23.967,53.2q-.389.018-.776.017A27.656,27.656,0,0,1,11.03,49.84Zm2.406-33.955L7.718,13.068,0,14.878,3.739,8.615l2.337-2.15a26.318,26.318,0,0,1,5.983-4.113A45.312,45.312,0,0,1,23.519.038c3.8-.351,11.443,1.847,11.443,1.847l9.348,6.73,1.933,3.731-6.451,2.13-16.272,2.13Z" fill="#b5b5b5"/>
    </clipPath>
  </defs>
  <g id="Group_55944" data-name="Group 55944" transform="translate(3.417 15.631)">
    <g id="Group_55943" data-name="Group 55943" transform="translate(0 0)">
      <path id="Subtraction_1" data-name="Subtraction 1" d="M17.842,26.228a2.222,2.222,0,0,1-2.22-2.1,2.308,2.308,0,0,1-.248.014,2.225,2.225,0,0,1-2.217-2.1,2.306,2.306,0,0,1-.248.014,2.224,2.224,0,0,1-2.215-2.1,2.274,2.274,0,0,1-.243.013A2.225,2.225,0,0,1,8.567,16.55l-.452-.317L5.484,14.572a1.246,1.246,0,0,1-1.261.206L0,13.349l.379-1.238c.926.29,2.421.792,4.293,1.531l.009,0a.026.026,0,0,0,.024-.017l2.584-6.55.048-.122L8.882,3.038a.025.025,0,0,0-.014-.033L3.77,1.019,4.081,0,9.316,1.868a1.249,1.249,0,0,1,.749,1.472l1.077.45a2.854,2.854,0,0,0,1.094.219c.059,0,.12,0,.179-.006.159-.01.277-.014.409-.014.311,0,.724.024,1.72.081l1.061.06a8.714,8.714,0,0,1,2.427.49c.224-.217.448-.437.683-.675a3.083,3.083,0,0,1,2.671-.875l2.319.368a.611.611,0,1,1-.191,1.207l-2.32-.368a1.858,1.858,0,0,0-1.61.527A35.834,35.834,0,0,1,13.8,9.622a.391.391,0,0,0-.189.291.351.351,0,0,0,.108.289,2.239,2.239,0,0,0,1.587.643,6.463,6.463,0,0,0,3.876-2.01,1.4,1.4,0,0,1,.933-.361,1.366,1.366,0,0,1,.995.427,7.127,7.127,0,0,0,5.224,2.318,7.446,7.446,0,0,0,1.243-.106.706.706,0,0,1,.12-.01.6.6,0,0,1,.361.118l5.053,3.73.045.033L35.778,13.3,33.248,6.885l-.947-2.4-1.8.663a4.693,4.693,0,0,1-2.355.232l-1.8-.286a.611.611,0,0,1,.1-1.214.618.618,0,0,1,.1.007l1.8.286a3.476,3.476,0,0,0,.54.042A3.456,3.456,0,0,0,30.079,4l1.782-.658a1.247,1.247,0,0,1,.749-1.476L37.254.047,37.7,1.184,33.058,3.006a.022.022,0,0,0-.014.014.022.022,0,0,0,0,.019l2.118,5.369.085.214,1.974,5a.025.025,0,0,0,.024.016l.01,0,3.324-1.311.449,1.137L37.7,14.778a1.247,1.247,0,0,1-1.411-.357l-2.379,1.528a2.4,2.4,0,0,1-.166,2.32,2.429,2.429,0,0,1-2.038,1.124,2.462,2.462,0,0,1-.634-.084,2.436,2.436,0,0,1-2.433,2.29,2.566,2.566,0,0,1-.474-.045,2.414,2.414,0,0,1-2.433,2.4,2.518,2.518,0,0,1-.862-.153,2.408,2.408,0,0,1-.827,1.585,2.472,2.472,0,0,1-3.088.1l-.89-.656-.528.62A2.221,2.221,0,0,1,17.842,26.228Zm1.512-5a1,1,0,0,0-.766.355l-1.512,1.774a1,1,0,0,0,1.533,1.3l1.512-1.774,0,0,0,0a1,1,0,0,0-.774-1.643ZM19.358,20h0a2.226,2.226,0,0,1,1.692,3.666l-.188.221.821.606a1.286,1.286,0,0,0,.767.254,1.2,1.2,0,0,0,.875-.368,1.217,1.217,0,0,0,.151-1.492l-1.3-1a.611.611,0,0,1,.748-.966l.664.515.025.02c.687.532.687.532,1.071.815l.015.011.266.2a1.28,1.28,0,0,0,.766.252,1.208,1.208,0,0,0,.96-1.954l-1.873-1.442a.611.611,0,0,1,.373-1.1.6.6,0,0,1,.372.127l1.084.835.009.007c.853.657.853.657,1.074.82l.137.1a1.3,1.3,0,0,0,.766.252,1.2,1.2,0,0,0,.855-.346,1.225,1.225,0,0,0,.11-1.6L27.491,16.8a.611.611,0,1,1,.745-.968l1.076.829.047.036c1.063.819,1.063.819,1.381,1.054l.232.171a1.215,1.215,0,0,0,1.688-.232,1.183,1.183,0,0,0,.238-.9,1.3,1.3,0,0,0-.512-.865L29.773,14l-.039-.029c-2-1.473-2-1.473-2.133-1.569l-.072-.05a8.4,8.4,0,0,1-1.165.082,8.463,8.463,0,0,1-6.135-2.693.155.155,0,0,0-.113-.048A.175.175,0,0,0,20,9.744c-1.715,1.541-3.3,2.322-4.7,2.322a3.467,3.467,0,0,1-2.419-.978A1.566,1.566,0,0,1,12.4,9.8a1.585,1.585,0,0,1,.726-1.191A30.476,30.476,0,0,0,17,5.581a7.519,7.519,0,0,0-1.468-.229L14.45,5.29h-.014c-.975-.056-1.339-.077-1.609-.077-.125,0-.224,0-.334.012-.085.005-.171.008-.257.008a4.1,4.1,0,0,1-1.566-.314L9.626,4.482,7.662,9.458l-.007.018L6.069,13.5l2.711,1.71.025.017.538.378.921-1.08a2.226,2.226,0,0,1,3.92,1.318,2.277,2.277,0,0,1,.242-.013,2.228,2.228,0,0,1,1.687.773l0,0,0,0a2.2,2.2,0,0,1,.525,1.263c0,.01,0,.02,0,.029s0,.02,0,.029l.03,0,.03,0c.062-.005.124-.008.186-.008a2.2,2.2,0,0,1,1.437.528,2.236,2.236,0,0,1,.782,1.574A2.3,2.3,0,0,1,19.358,20Zm-2.468-.866a1,1,0,0,0-.767.353l-1.512,1.774a1,1,0,0,0,.117,1.414,1,1,0,0,0,1.415-.117l1.51-1.772a1,1,0,0,0-.764-1.653Zm-2.462-2.089a1,1,0,0,0-.769.353l-1.511,1.774a1,1,0,0,0,1.532,1.3L15.192,18.7a1,1,0,0,0-.034-1.337l0,0,0,0A.993.993,0,0,0,14.428,17.049ZM11.965,14.96a1,1,0,0,0-.769.353L9.685,17.087a1,1,0,0,0,1.533,1.3l1.51-1.772a1,1,0,0,0-.763-1.653Z" transform="translate(0 0)" fill="#7f1f3f" stroke="#7f1f3f" stroke-width="0.5"/>
    </g>
  </g>
  <g id="Mask_Group_10" data-name="Mask Group 10" clip-path="url(#clip-path)">
    <g id="_43.-Globe" data-name="43.-Globe" transform="translate(-1.122 1.333)">
      <circle id="Layer-1" cx="25.074" cy="25.074" r="25.074" fill="none" stroke="#7f1f3f" stroke-linecap="round" stroke-linejoin="round" stroke-width="2"/>
      <path id="Layer-2" d="M50,2V50.466" transform="translate(-24.972 -1.298)" fill="none" stroke="#7f1f3f" stroke-linecap="round" stroke-linejoin="round" stroke-width="2" fill-rule="evenodd"/>
      <path id="Layer-3" d="M52.016,50H2" transform="translate(-1.98 -25.065)" fill="none" stroke="#7f1f3f" stroke-linecap="round" stroke-linejoin="round" stroke-width="2" fill-rule="evenodd"/>
      <path id="Layer-4" d="M50,2s12.579,9.375,12.579,24.27S50,50.539,50,50.539" transform="translate(-24.97 -1.298)" fill="none" stroke="#7f1f3f" stroke-linecap="round" stroke-linejoin="round" stroke-width="2" fill-rule="evenodd"/>
      <path id="Layer-5" d="M38.579,2S26,11.375,26,26.27s12.579,24.27,12.579,24.27" transform="translate(-13.476 -1.298)" fill="none" stroke="#7f1f3f" stroke-linecap="round" stroke-linejoin="round" stroke-width="2" fill-rule="evenodd"/>
      <path id="Layer-6" d="M16.4,73.51a37.351,37.351,0,0,1,35.011.094" transform="translate(-8.878 -31.303)" fill="none" stroke="#7f1f3f" stroke-linecap="round" stroke-linejoin="round" stroke-width="2" fill-rule="evenodd"/>
      <path id="Layer-7" d="M16.4,16.5a36.127,36.127,0,0,0,17.417,4.513A36.137,36.137,0,0,0,51.411,16.4" transform="translate(-8.878 -8.97)" fill="none" stroke="#7f1f3f" stroke-linecap="round" stroke-linejoin="round" stroke-width="2" fill-rule="evenodd"/>
    </g>
  </g>
</svg>
