<svg xmlns="http://www.w3.org/2000/svg" width="56.356" height="47.314" viewBox="0 0 56.356 47.314">
  <g id="MMIcon6" transform="translate(0 -34.019)">
    <g id="Group_56897" data-name="Group 56897">
      <g id="Group_56890" data-name="Group 56890" transform="translate(39.127 34.019)">
        <g id="Group_56889" data-name="Group 56889" transform="translate(0 0)">
          <path id="Path_124635" data-name="Path 124635" d="M302.108,34.019a7.735,7.735,0,0,0,0,15.47,7.771,7.771,0,0,0,7.762-7.762A7.692,7.692,0,0,0,302.108,34.019Zm0,13.769a6.034,6.034,0,1,1,6.06-6.007A6.058,6.058,0,0,1,302.108,47.788Z" transform="translate(-294.4 -34.019)" fill="#7f1f3f"/>
        </g>
      </g>
      <g id="Group_56892" data-name="Group 56892" transform="translate(44.336 36.73)">
        <g id="Group_56891" data-name="Group 56891" transform="translate(0 0)">
          <path id="Path_124636" data-name="Path 124636" d="M338.544,60.639a1.39,1.39,0,0,0-.159-.425,1.333,1.333,0,0,0-.213-.372c-.106-.106-.159-.213-.266-.319a.954.954,0,0,0-.372-.266,1.332,1.332,0,0,0-.372-.213c-.159-.053-.266-.159-.425-.213a3.662,3.662,0,0,1-.425-.159.4.4,0,0,1-.213-.106c-.053-.053-.159-.053-.213-.106s-.16-.053-.213-.106l-.159-.159a.276.276,0,0,1-.106-.213.32.32,0,0,1-.053-.213V57.5c0-.053.053-.159.053-.213.053-.053.053-.159.106-.213l.159-.159a.406.406,0,0,1,.266-.106.479.479,0,0,1,.266-.053h.319a.479.479,0,0,1,.266.053,2.3,2.3,0,0,1,.266.053c.053,0,.16.053.213.053.106,0,.159.053.213.053l.266.106.053-.319.106-.851v-.213l-.213-.053c-.053,0-.16-.053-.213-.053s-.106-.053-.213-.053a2.305,2.305,0,0,0-.266-.053c-.106,0-.16-.053-.266-.053h-.053v-1.01h-1.276v1.063h-.053a1.888,1.888,0,0,0-.478.213.954.954,0,0,0-.372.266,2.314,2.314,0,0,0-.319.372,1.069,1.069,0,0,0-.213.425l-.159.478a1.809,1.809,0,0,0-.053.532,1.171,1.171,0,0,0,.053.425,1.39,1.39,0,0,0,.159.425c.053.106.159.266.213.372.106.106.159.213.266.319a.954.954,0,0,0,.372.266,1.333,1.333,0,0,0,.372.213,3.158,3.158,0,0,1,.425.213,3.661,3.661,0,0,1,.425.159.4.4,0,0,1,.213.106c.053.053.159.053.213.106s.106.106.16.106l.159.159c.053.053.053.106.106.213a2.3,2.3,0,0,1,.053.266v.266a.4.4,0,0,1-.106.213l-.159.159a.734.734,0,0,1-.213.159c-.053.053-.159.053-.213.106a2.3,2.3,0,0,1-.266.053H335.3a2.3,2.3,0,0,1-.266-.053.755.755,0,0,1-.319-.106c-.106-.053-.213-.053-.319-.106-.053,0-.106-.053-.16-.053s-.106-.053-.159-.053l-.319-.159-.053.372-.106.957v.159l.159.053a.711.711,0,0,1,.478.053.986.986,0,0,0,.372.106c.106.053.266.053.425.106a1.17,1.17,0,0,0,.425.053h.106v1.063h1.276V63.35h.053a1.889,1.889,0,0,0,.478-.213,1.865,1.865,0,0,0,.425-.266,2.309,2.309,0,0,0,.319-.372,2.968,2.968,0,0,0,.266-.425l.159-.478a1.639,1.639,0,0,0,.053-.532A1.171,1.171,0,0,0,338.544,60.639Z" transform="translate(-333.6 -54.419)" fill="#7f1f3f"/>
        </g>
      </g>
      <g id="Group_56894" data-name="Group 56894" transform="translate(9.102 50.173)">
        <g id="Group_56893" data-name="Group 56893">
          <path id="Path_124637" data-name="Path 124637" d="M102.5,155.895a.905.905,0,0,0-1.223-.159l-8.612,6.858-11.111-4.625a.848.848,0,0,0-.8.106L68.849,166.58a.85.85,0,0,0-.213,1.17.775.775,0,0,0,.691.372.857.857,0,0,0,.478-.159l11.536-8.24,11.164,4.625a.956.956,0,0,0,.851-.106l8.984-7.124A.905.905,0,0,0,102.5,155.895Z" transform="translate(-68.489 -155.569)" fill="#7f1f3f"/>
        </g>
      </g>
    </g>
    <g id="Group_56896" data-name="Group 56896" transform="translate(0 54.167)">
      <g id="Group_56895" data-name="Group 56895" transform="translate(0 0)">
        <path id="Path_124638" data-name="Path 124638" d="M55.554,211.083H51.62V186.47a.84.84,0,0,0-.851-.851H42.955a.84.84,0,0,0-.851.851v24.614H39.233V194.975a.84.84,0,0,0-.851-.851H30.515a.84.84,0,0,0-.851.851v16.108H26.793V193.7a.84.84,0,0,0-.851-.851H18.128a.84.84,0,0,0-.851.851v17.384H14.407V198.7a.84.84,0,0,0-.851-.851H5.688a.84.84,0,0,0-.851.851v12.387H.851a.851.851,0,0,0,0,1.7H55.5a.84.84,0,0,0,.851-.851A.768.768,0,0,0,55.554,211.083Zm-42.9,0H6.539V199.547h6.114Zm12.44,0H18.979V194.55h6.114Zm12.387,0H31.365V195.826h6.114Zm12.44,0H43.805V187.32h6.114Z" transform="translate(0 -185.619)" fill="#7f1f3f"/>
      </g>
    </g>
  </g>
</svg>
