<svg xmlns="http://www.w3.org/2000/svg" width="53.264" height="52.382" viewBox="0 0 53.264 52.382">
  <g id="MMIcon2" transform="translate(0.226 -0.216)">
    <g id="g6216" transform="translate(0 0.002)">
      <g id="g6218">
        <g id="Group_56883" data-name="Group 56883">
          <g id="g6226" transform="translate(0.774 1.214)">
            <path id="path6228" d="M-417.421-343.274v19.22a2.379,2.379,0,0,1-2.38,2.38h-30.241a2.378,2.378,0,0,1-2.379-2.38v-45.624a2.378,2.378,0,0,1,2.379-2.379H-419.8a2.379,2.379,0,0,1,2.38,2.379V-354.2" transform="translate(452.42 372.056)" fill="none" stroke="#7f1f3f" stroke-linecap="round" stroke-linejoin="round" stroke-miterlimit="10" stroke-width="2"/>
          </g>
          <g id="g6230" transform="translate(8.289 6.28)">
            <path id="path6232" d="M-145.115-66.26h-10.9a1.27,1.27,0,0,1-1.27-1.27v-3.016a1.27,1.27,0,0,1,1.27-1.27h17.429a1.27,1.27,0,0,1,1.27,1.27v3.016a1.27,1.27,0,0,1-1.27,1.27h-2.9" transform="translate(157.282 71.816)" fill="none" stroke="#7f1f3f" stroke-linecap="round" stroke-linejoin="round" stroke-miterlimit="10" stroke-width="2"/>
          </g>
          <g id="g6234" transform="translate(5.028 16.028)">
            <path id="path6236" d="M0,0H26.49" fill="none" stroke="#7f1f3f" stroke-linecap="round" stroke-linejoin="round" stroke-miterlimit="10" stroke-width="2"/>
          </g>
          <g id="g6238" transform="translate(5.028 20.22)">
            <path id="path6240" d="M0,0H26.49" fill="none" stroke="#7f1f3f" stroke-linecap="round" stroke-linejoin="round" stroke-miterlimit="10" stroke-width="2"/>
          </g>
          <g id="g6242" transform="translate(5.028 24.413)">
            <path id="path6244" d="M0,0H20.093" fill="none" stroke="#7f1f3f" stroke-linecap="round" stroke-linejoin="round" stroke-miterlimit="10" stroke-width="2"/>
          </g>
          <g id="g6246" transform="translate(6.377 33.47)">
            <path id="path6248" d="M0,0H7.729" fill="none" stroke="#7f1f3f" stroke-linecap="round" stroke-linejoin="round" stroke-miterlimit="10" stroke-width="2"/>
          </g>
          <g id="g6250" transform="translate(5.028 37.298)">
            <path id="path6252" d="M-113.742-27.415a5.189,5.189,0,0,1,.89,2.915,5.214,5.214,0,0,1-5.214,5.214,5.214,5.214,0,0,1-5.213-5.214,5.214,5.214,0,0,1,5.213-5.214,5.208,5.208,0,0,1,1.636.262" transform="translate(123.278 29.713)" fill="none" stroke="#7f1f3f" stroke-linecap="round" stroke-linejoin="round" stroke-miterlimit="10" stroke-width="2"/>
          </g>
          <g id="g6254" transform="translate(20.246 43.521)">
            <path id="path6256" d="M-116.294-12.043h0a3.447,3.447,0,0,1-4.875,0,3.447,3.447,0,0,0-4.875,0" transform="translate(126.045 13.053)" fill="none" stroke="#7f1f3f" stroke-linecap="round" stroke-linejoin="round" stroke-miterlimit="10" stroke-width="2"/>
          </g>
          <g id="Group_56884" data-name="Group 56884">
            <g id="g6258" transform="translate(26.264 12.454)">
              <path id="path6260" d="M-40.4-282.229l-3.387-3.387,20.276-20.276,3.387,3.387Z" transform="translate(43.783 305.893)" fill="none" stroke="#7f1f3f" stroke-linecap="round" stroke-linejoin="round" stroke-miterlimit="10" stroke-width="2"/>
            </g>
            <g id="g6262" transform="translate(22.719 38.219)">
              <path id="path6264" d="M-17.22,0l-1.444,1.444" transform="translate(18.664)" fill="none" stroke="#7f1f3f" stroke-linecap="round" stroke-linejoin="round" stroke-miterlimit="10" stroke-width="2"/>
            </g>
            <g id="g6266" transform="translate(23.887 32.73)">
              <path id="path6268" d="M-28.343,0l-2.281,4.517a.857.857,0,0,0,1.151,1.151l4.517-2.281Z" transform="translate(30.72)" fill="none" stroke="#7f1f3f" stroke-linecap="round" stroke-linejoin="round" stroke-miterlimit="10" stroke-width="2"/>
            </g>
            <g id="g6270" transform="translate(46.541 10.344)">
              <path id="path6272" d="M-40.4-65.558l-3.387-3.387,1.733-1.733a1.285,1.285,0,0,1,1.817,0l1.57,1.57a1.285,1.285,0,0,1,0,1.817Z" transform="translate(43.783 71.054)" fill="none" stroke="#7f1f3f" stroke-linecap="round" stroke-linejoin="round" stroke-miterlimit="10" stroke-width="2"/>
            </g>
            <g id="g6274" transform="translate(43.492 15.841)">
              <path id="path6276" d="M-76.751,0h0a2.682,2.682,0,0,1,0,3.793l-6.435,6.435" transform="translate(83.186)" fill="none" stroke="#7f1f3f" stroke-linecap="round" stroke-linejoin="round" stroke-miterlimit="10" stroke-width="2"/>
            </g>
          </g>
          <g id="g6278" transform="translate(8.623 42.511)">
            <path id="path6280" d="M0,0H3.238" fill="none" stroke="#7f1f3f" stroke-linecap="round" stroke-linejoin="round" stroke-miterlimit="10" stroke-width="2"/>
          </g>
        </g>
      </g>
    </g>
  </g>
</svg>
