<svg xmlns="http://www.w3.org/2000/svg" width="50.814" height="50.815" viewBox="0 0 50.814 50.815">
  <g id="MMIcon5" transform="translate(-0.75 -0.75)">
    <g id="mobile_x2C__apps_x2C__cloud_x2C__install_x2C__syncing" transform="translate(1 1)">
      <g id="XMLID_108_">
        <g id="Group_56887" data-name="Group 56887">
          <g id="XMLID_342_" transform="translate(13.418 11.74)">
            <path id="Path_124624" data-name="Path 124624" d="M26.61,46.574H13.193A4.2,4.2,0,0,1,9,42.382V12.193A4.2,4.2,0,0,1,13.193,8H26.61A4.2,4.2,0,0,1,30.8,12.193V23.936a.839.839,0,0,1-1.677,0V12.193A2.519,2.519,0,0,0,26.61,9.677H13.193a2.519,2.519,0,0,0-2.516,2.516V42.382A2.519,2.519,0,0,0,13.193,44.9H26.61a2.519,2.519,0,0,0,2.516-2.516V27.287a.839.839,0,0,1,1.677,0V42.382A4.2,4.2,0,0,1,26.61,46.574Z" transform="translate(-9 -8)" fill="#7f1f3f" stroke="#7f1f3f" stroke-width="0.5"/>
          </g>
          <g id="XMLID_343_" transform="translate(21.803 15.094)">
            <g id="XMLID_265_">
              <path id="Path_124626" data-name="Path 124626" d="M18.193,11.677H14.839a.839.839,0,1,1,0-1.677h3.354a.839.839,0,0,1,0,1.677Z" transform="translate(-14 -10)" fill="#7f1f3f" stroke="#7f1f3f" stroke-width="0.5"/>
            </g>
          </g>
        </g>
      </g>
      <g id="Group_56888" data-name="Group 56888">
        <g id="XMLID_356_">
          <path id="Path_124623" data-name="Path 124623" d="M44.606,32.866H31.189a.839.839,0,0,1,0-1.677H44.606a5.031,5.031,0,1,0,0-10.063c-.02,0-.29.035-.31.035a.791.791,0,0,1-.708-.312.836.836,0,0,1-.153-.756A8.372,8.372,0,0,0,35.382,9.386a8.319,8.319,0,0,0-3.72.879.856.856,0,0,1-.683.029A.836.836,0,0,1,30.5,9.8,10.9,10.9,0,0,0,16.579,3.325a.84.84,0,0,1-.57-1.58A12.582,12.582,0,0,1,31.737,8.4a9.913,9.913,0,0,1,3.644-.689A10.073,10.073,0,0,1,45.444,17.771a9.859,9.859,0,0,1-.151,1.712,6.709,6.709,0,0,1-.688,13.382Zm-32.7,0H9.386A8.372,8.372,0,0,1,7.994,16.237a12.569,12.569,0,0,1,2.051-9.961.838.838,0,1,1,1.364.976,10.891,10.891,0,0,0-1.556,9.474.838.838,0,0,1-.765,1.078,6.695,6.695,0,0,0,.3,13.384H11.9a.839.839,0,0,1,0,1.677Z" transform="translate(-1 -1)" fill="#7f1f3f" stroke="#7f1f3f" stroke-width="0.5"/>
        </g>
        <g id="XMLID_334_" transform="translate(20.963 30.188)">
          <g id="XMLID_336_" transform="translate(2.516)">
            <path id="Path_124627" data-name="Path 124627" d="M15.839,30.74A.839.839,0,0,1,15,29.9V23.193A4.2,4.2,0,0,1,19.193,19h3.354a.839.839,0,0,1,0,1.677H19.193a2.519,2.519,0,0,0-2.516,2.516V29.9A.839.839,0,0,1,15.839,30.74Z" transform="translate(-15 -19)" fill="#7f1f3f" stroke="#7f1f3f" stroke-width="0.5"/>
          </g>
          <g id="XMLID_335_" transform="translate(0 7.548)">
            <path id="Path_124628" data-name="Path 124628" d="M16.854,27.692a.842.842,0,0,1-.594-.245l-2.516-2.516a.838.838,0,0,1,1.186-1.186l1.922,1.922,1.922-1.922a.838.838,0,0,1,1.186,1.186l-2.516,2.516a.829.829,0,0,1-.59.245Z" transform="translate(-13.5 -23.501)" fill="#7f1f3f" stroke="#7f1f3f" stroke-width="0.5"/>
          </g>
        </g>
        <g id="XMLID_304_" transform="translate(40.252 36.729)">
          <g id="XMLID_307_">
            <path id="Path_124629" data-name="Path 124629" d="M25.839,24.661A.771.771,0,0,1,25,23.906v-.168a.839.839,0,0,1,1.677,0,.915.915,0,0,1-.839.922Z" transform="translate(-25 -22.9)" fill="#7f1f3f" stroke="#7f1f3f" stroke-width="0.5"/>
          </g>
          <g id="XMLID_306_" transform="translate(0 3.354)">
            <path id="Path_124630" data-name="Path 124630" d="M25.839,26.661A.771.771,0,0,1,25,25.906v-.168a.839.839,0,0,1,1.677,0,.915.915,0,0,1-.839.922Z" transform="translate(-25 -24.9)" fill="#7f1f3f" stroke="#7f1f3f" stroke-width="0.5"/>
          </g>
          <g id="XMLID_305_" transform="translate(0 6.709)">
            <path id="Path_124631" data-name="Path 124631" d="M25.839,28.661A.771.771,0,0,1,25,27.906v-.168a.839.839,0,0,1,1.677,0,.915.915,0,0,1-.839.922Z" transform="translate(-25 -26.9)" fill="#7f1f3f" stroke="#7f1f3f" stroke-width="0.5"/>
          </g>
        </g>
        <g id="XMLID_296_" transform="translate(6.709 36.729)">
          <g id="XMLID_303_">
            <path id="Path_124632" data-name="Path 124632" d="M5.839,24.661A.771.771,0,0,1,5,23.906v-.168a.839.839,0,1,1,1.677,0,.915.915,0,0,1-.839.922Z" transform="translate(-5 -22.9)" fill="#7f1f3f" stroke="#7f1f3f" stroke-width="0.5"/>
          </g>
          <g id="XMLID_302_" transform="translate(0 3.354)">
            <path id="Path_124633" data-name="Path 124633" d="M5.839,26.661A.771.771,0,0,1,5,25.906v-.168a.839.839,0,1,1,1.677,0,.915.915,0,0,1-.839.922Z" transform="translate(-5 -24.9)" fill="#7f1f3f" stroke="#7f1f3f" stroke-width="0.5"/>
          </g>
          <g id="XMLID_301_" transform="translate(0 6.709)">
            <path id="Path_124634" data-name="Path 124634" d="M5.839,28.661A.771.771,0,0,1,5,27.906v-.168a.839.839,0,1,1,1.677,0,.915.915,0,0,1-.839.922Z" transform="translate(-5 -26.9)" fill="#7f1f3f" stroke="#7f1f3f" stroke-width="0.5"/>
          </g>
        </g>
        <g id="XMLID_960_" transform="translate(11.424 2.322)">
          <path id="Path_124625" data-name="Path 124625" d="M8.656,4.057A.831.831,0,0,1,8,3.75a.818.818,0,0,1,.112-1.164l.047-.035a.845.845,0,0,1,1.171.159A.831.831,0,0,1,9.2,3.869.877.877,0,0,1,8.656,4.057Z" transform="translate(-7.812 -2.385)" fill="#7f1f3f"/>
        </g>
      </g>
    </g>
  </g>
</svg>
