<svg xmlns="http://www.w3.org/2000/svg" width="52.386" height="52.771" viewBox="0 0 52.386 52.771">
  <g id="MMIcon1" transform="translate(0.206 0.194)">
    <g id="g2781" transform="translate(0.794 0.806)">
      <g id="g2783">
        <g id="Group_56880" data-name="Group 56880">
          <g id="g2823" transform="translate(25.193 5.501)">
            <path id="path2825" d="M0,0V12.393" fill="none" stroke="#7f1f3f" stroke-linecap="round" stroke-linejoin="round" stroke-miterlimit="10" stroke-width="2"/>
          </g>
          <g id="g2827" transform="translate(25.193 9.067)">
            <path id="path2829" d="M0-28.257l2.351-2.351" transform="translate(0 30.608)" fill="none" stroke="#7f1f3f" stroke-linecap="round" stroke-linejoin="round" stroke-miterlimit="10" stroke-width="2"/>
          </g>
          <g id="g2831" transform="translate(21.813 9.072)">
            <path id="path2833" d="M-40.62-40.62-44-44" transform="translate(44 44)" fill="none" stroke="#7f1f3f" stroke-linecap="round" stroke-linejoin="round" stroke-miterlimit="10" stroke-width="2"/>
          </g>
          <g id="g2835" transform="translate(15.964)">
            <path id="path2837" d="M-175.207-44.951a5.694,5.694,0,0,0-5.348-3.74,5.7,5.7,0,0,0-5.349,3.74,5.132,5.132,0,0,0-3.88,4.977,5.131,5.131,0,0,0,5.131,5.131,5.123,5.123,0,0,0,4.1-2.044,5.122,5.122,0,0,0,4.1,2.044,5.131,5.131,0,0,0,5.131-5.131A5.132,5.132,0,0,0-175.207-44.951Z" transform="translate(189.784 48.691)" fill="none" stroke="#7f1f3f" stroke-linecap="round" stroke-linejoin="round" stroke-miterlimit="10" stroke-width="2"/>
          </g>
          <g id="g2839" transform="translate(9.655 18.588)">
            <path id="path2841" d="M0,0,2.941,3.733" fill="none" stroke="#7f1f3f" stroke-linecap="round" stroke-linejoin="round" stroke-miterlimit="10" stroke-width="2"/>
          </g>
          <g id="g2843" transform="translate(0.003 7.97)">
            <path id="path2845" d="M-83.412-18.618A3.846,3.846,0,0,0-86.5-20.167a3.852,3.852,0,0,0-3.852,3.852A3.846,3.846,0,0,0-88.8-13.227a5.017,5.017,0,0,0,5,4.629,5.018,5.018,0,0,0,5.018-5.018A5.017,5.017,0,0,0-83.412-18.618Z" transform="translate(90.352 20.167)" fill="none" stroke="#7f1f3f" stroke-linecap="round" stroke-linejoin="round" stroke-miterlimit="10" stroke-width="2"/>
          </g>
          <g id="g2847" transform="translate(37.789 18.588)">
            <path id="path2849" d="M-35.353,0l-2.941,3.733" transform="translate(38.295)" fill="none" stroke="#7f1f3f" stroke-linecap="round" stroke-linejoin="round" stroke-miterlimit="10" stroke-width="2"/>
          </g>
          <g id="g2851" transform="translate(38.814 7.97)">
            <path id="path2853" d="M-55.638-18.618a3.846,3.846,0,0,1,3.088-1.549A3.852,3.852,0,0,1-48.7-16.315a3.846,3.846,0,0,1-1.549,3.088,5.017,5.017,0,0,1-5,4.629,5.018,5.018,0,0,1-5.018-5.018A5.017,5.017,0,0,1-55.638-18.618Z" transform="translate(60.267 20.167)" fill="none" stroke="#7f1f3f" stroke-linecap="round" stroke-linejoin="round" stroke-miterlimit="10" stroke-width="2"/>
          </g>
          <g id="g2791" transform="translate(20.318 29.678)">
            <path id="path2793" d="M-71.492-11.065h0a3.335,3.335,0,0,0-3.422-.726h0A3.807,3.807,0,0,0-77.44-8.207v1.625a2.95,2.95,0,0,0,2.95,2.95h0A2.95,2.95,0,0,0-71.9-5.163l1.034-1.885A3.335,3.335,0,0,0-71.492-11.065Z" transform="translate(77.44 11.986)" fill="none" stroke="#7f1f3f" stroke-linecap="round" stroke-linejoin="round" stroke-miterlimit="10" stroke-width="2"/>
          </g>
          <g id="g2795" transform="translate(5.247 17.894)">
            <path id="path2797" d="M0-208.417a20.143,20.143,0,0,1,19.946-17.34A20.143,20.143,0,0,1,39.894-208.4" transform="translate(0 225.757)" fill="none" stroke="#7f1f3f" stroke-linecap="round" stroke-linejoin="round" stroke-miterlimit="10" stroke-width="2"/>
          </g>
          <g id="g2799" transform="translate(9.475 25.558)">
            <path id="path2801" d="M0,0H3.386A3.552,3.552,0,0,1,6.938,3.552h0A3.552,3.552,0,0,1,5.5,6.406h0a5.017,5.017,0,0,0-2.031,4.032v.585" fill="none" stroke="#7f1f3f" stroke-linecap="round" stroke-linejoin="round" stroke-miterlimit="10" stroke-width="2"/>
          </g>
          <g id="g2803" transform="translate(0 24.664)">
            <path id="path2805" d="M-155.22-237.458l-5.967-5.967a6.8,6.8,0,0,1-1.992-4.809v-6.5a2.477,2.477,0,0,0-2.053-2.441h0a2.477,2.477,0,0,0-2.9,2.441v5.823a15.942,15.942,0,0,0,4.669,11.273l6.119,6.119" transform="translate(168.134 257.215)" fill="none" stroke="#7f1f3f" stroke-linecap="round" stroke-linejoin="round" stroke-miterlimit="10" stroke-width="2"/>
          </g>
          <g id="g2807" transform="translate(6.292 33.878)">
            <path id="path2809" d="M-227.181-198.06v0a12.073,12.073,0,0,0-3.536-8.537h0a8.453,8.453,0,0,0-5.977-2.476h0l-4.657-4.656a2.772,2.772,0,0,0-3.92,0h0a2.772,2.772,0,0,0,0,3.92l5.4,5.4" transform="translate(246.082 214.539)" fill="none" stroke="#7f1f3f" stroke-linecap="round" stroke-linejoin="round" stroke-miterlimit="10" stroke-width="2"/>
          </g>
          <g id="g2811" transform="translate(39.598 47.497)">
            <path id="path2813" d="M-34.378,0l-2.86,2.86" transform="translate(37.239)" fill="none" stroke="#7f1f3f" stroke-linecap="round" stroke-linejoin="round" stroke-miterlimit="10" stroke-width="2"/>
          </g>
          <g id="g2815" transform="translate(37.472 24.664)">
            <path id="path2817" d="M0-237.458l5.967-5.967a6.8,6.8,0,0,0,1.992-4.809v-6.5a2.477,2.477,0,0,1,2.053-2.441h0a2.477,2.477,0,0,1,2.9,2.441v5.823A15.941,15.941,0,0,1,11-241.337" transform="translate(0 257.215)" fill="none" stroke="#7f1f3f" stroke-linecap="round" stroke-linejoin="round" stroke-miterlimit="10" stroke-width="2"/>
          </g>
          <g id="g2819" transform="translate(25.193 33.878)">
            <path id="path2821" d="M0-198.06v0a12.073,12.073,0,0,1,3.536-8.537h0a8.453,8.453,0,0,1,5.977-2.476h0l4.657-4.656a2.772,2.772,0,0,1,3.92,0h0a2.772,2.772,0,0,1,0,3.92l-5.4,5.4" transform="translate(0 214.539)" fill="none" stroke="#7f1f3f" stroke-linecap="round" stroke-linejoin="round" stroke-miterlimit="10" stroke-width="2"/>
          </g>
          <g id="g2855" transform="translate(30.944 22.382)">
            <path id="path2857" d="M-76.39-171.479a3.948,3.948,0,0,0-1.411-1.589l-2.13-1.373a6.142,6.142,0,0,1-2.815-5.163,6.142,6.142,0,0,1,6.142-6.142h.7" transform="translate(82.745 185.746)" fill="none" stroke="#7f1f3f" stroke-linecap="round" stroke-linejoin="round" stroke-miterlimit="10" stroke-width="2"/>
          </g>
          <g id="g2859" transform="translate(45.717 44.238)">
            <path id="path2861" d="M0,0H0" fill="none" stroke="#7f1f3f" stroke-linecap="round" stroke-linejoin="round" stroke-miterlimit="10" stroke-width="2"/>
          </g>
        </g>
      </g>
    </g>
  </g>
</svg>
