<svg xmlns="http://www.w3.org/2000/svg" width="42.504" height="50.678" viewBox="0 0 42.504 50.678">
  <g id="MMIcon3" transform="translate(-6 -1)">
    <path id="Path_124621" data-name="Path 124621" d="M27.252,1A21.276,21.276,0,0,0,6,22.252,21.035,21.035,0,0,0,10.141,34.84l1.314-.971a19.388,19.388,0,0,1-3.789-10.8h7.9A36.023,36.023,0,0,0,16.934,32.4l1.568-.463a34.374,34.374,0,0,1-1.3-8.866h9.236v7.356h1.635V23.069h9.236A34.374,34.374,0,0,1,36,31.936l1.568.463a36.023,36.023,0,0,0,1.375-9.329h7.9a19.387,19.387,0,0,1-3.789,10.8l1.311.968A21.035,21.035,0,0,0,48.5,22.252,21.276,21.276,0,0,0,27.252,1Zm-11.7,20.435H7.655a19.5,19.5,0,0,1,3.4-10.236,34.705,34.705,0,0,0,5.688,1.521,36.337,36.337,0,0,0-1.194,8.715Zm-3.471-11.6a19.674,19.674,0,0,1,9.652-6.4,18.758,18.758,0,0,0-4.518,7.714,34.462,34.462,0,0,1-5.135-1.313Zm14.356,11.6h-9.25a34.677,34.677,0,0,1,1.186-8.444,58.852,58.852,0,0,0,8.064.629Zm0-9.45a57.559,57.559,0,0,1-7.576-.572c1.665-4.872,4.417-8.211,7.576-8.708Zm1.635-9.28c3.16.5,5.913,3.842,7.578,8.709a58.427,58.427,0,0,1-7.578.572Zm0,18.73V13.62a59.791,59.791,0,0,0,8.065-.626,34.7,34.7,0,0,1,1.185,8.44Zm9.221-10.29a18.761,18.761,0,0,0-4.518-7.714,19.666,19.666,0,0,1,9.651,6.4,33.745,33.745,0,0,1-5.133,1.317Zm1.664,10.29a36.309,36.309,0,0,0-1.2-8.717,34.167,34.167,0,0,0,5.688-1.52,19.5,19.5,0,0,1,3.4,10.237Z" transform="translate(0)" fill="#7f1f3f"/>
    <path id="Path_124622" data-name="Path 124622" d="M41.965,56.977h5.722a.817.817,0,0,0,.817-.817V51.583a2.779,2.779,0,0,0-2.176-2.709,2.861,2.861,0,1,0-3.822,0,2.754,2.754,0,0,0-1.112.539,3.263,3.263,0,0,0-2.249-1.381,3.27,3.27,0,1,0-4.169,0,3.237,3.237,0,0,0-1.351.5,4.082,4.082,0,0,0-3.921-3h-.168a3.678,3.678,0,1,0-4.568,0H24.8a4.082,4.082,0,0,0-3.923,3,3.237,3.237,0,0,0-1.351-.5,3.27,3.27,0,1,0-4.169,0,3.263,3.263,0,0,0-2.249,1.381A2.754,2.754,0,0,0,12,48.874a2.861,2.861,0,1,0-3.822,0A2.779,2.779,0,0,0,6,51.583V56.16a.817.817,0,0,0,.817.817h5.722a.817.817,0,0,0,.817.817h7.356a.817.817,0,0,0,.817.817H32.974a.817.817,0,0,0,.817-.817h7.356A.817.817,0,0,0,41.965,56.977Zm2.452-11.443a1.226,1.226,0,1,1-1.226,1.226,1.226,1.226,0,0,1,1.226-1.226Zm-2.452,6.049a1.144,1.144,0,0,1,1.144-1.144h2.616a1.144,1.144,0,0,1,1.144,1.144v3.76h-4.9ZM10.087,45.534A1.226,1.226,0,1,1,8.861,46.76a1.226,1.226,0,0,1,1.226-1.226Zm2.452,9.809h-4.9v-3.76a1.144,1.144,0,0,1,1.144-1.144h2.616a1.144,1.144,0,0,1,1.144,1.144Zm4.9-11.443a1.635,1.635,0,1,1-1.635,1.635A1.635,1.635,0,0,1,17.443,43.9Zm3.27,12.261H14.174v-4.9a1.635,1.635,0,0,1,1.635-1.635h3.27a1.635,1.635,0,0,1,1.635,1.635Zm6.539-15.53a2.043,2.043,0,1,1-2.043,2.043A2.043,2.043,0,0,1,27.252,40.63Zm4.9,16.348H22.348V49.621A2.452,2.452,0,0,1,24.8,47.169h4.9a2.452,2.452,0,0,1,2.452,2.452Zm4.9-13.078a1.635,1.635,0,1,1-1.635,1.635A1.635,1.635,0,0,1,37.061,43.9ZM40.33,56.16H33.791v-4.9a1.635,1.635,0,0,1,1.635-1.635H38.7a1.635,1.635,0,0,1,1.635,1.635Z" transform="translate(0 -6.934)" fill="#7f1f3f"/>
  </g>
</svg>
