<svg xmlns="http://www.w3.org/2000/svg" width="40.368" height="34.679" viewBox="0 0 40.368 34.679">
  <g id="noData" transform="translate(-1078.816 -2824.321)">
    <g id="Path_124581" data-name="Path 124581" transform="translate(1074 2819)" fill="none">
      <path d="M19.912,8.141a6,6,0,0,1,10.176,0L44.263,30.82A6,6,0,0,1,39.175,40H10.825a6,6,0,0,1-5.088-9.18Z" stroke="none"/>
      <path d="M 25 7.320777893066406 C 23.59106063842773 7.320777893066406 22.3547306060791 8.006019592285156 21.60799980163574 9.200786590576172 L 7.433490753173828 31.88000869750977 C 6.651500701904297 33.13117980957031 6.611660003662109 34.64859008789062 7.326908111572266 35.93906784057617 C 8.042160034179688 37.22955703735352 9.350040435791016 37.99999618530273 10.82548141479492 37.99999618530273 L 39.17451095581055 37.99999618530273 C 40.64995956420898 37.99999618530273 41.95783233642578 37.22955703735352 42.67308044433594 35.93906784057617 C 43.38832855224609 34.64859008789062 43.34849166870117 33.13117980957031 42.56650161743164 31.88000869750977 L 28.3919792175293 9.200778961181641 C 27.64525985717773 8.006008148193359 26.40892028808594 7.320777893066406 25 7.320777893066406 M 24.99999809265137 5.320777893066406 C 26.95649147033691 5.320777893066406 28.91297912597656 6.260776519775391 30.08798027038574 8.140777587890625 L 44.26250076293945 30.82000732421875 C 46.76018142700195 34.81628799438477 43.88713073730469 39.99999618530273 39.17451095581055 39.99999618530273 L 10.82548141479492 39.99999618530273 C 6.112869262695312 39.99999618530273 3.239810943603516 34.81629943847656 5.737491607666016 30.82000732421875 L 19.91200065612793 8.140789031982422 C 21.08700561523438 6.260784149169922 23.04350471496582 5.320777893066406 24.99999809265137 5.320777893066406 Z" stroke="none" fill="#005f61"/>
    </g>
    <rect id="Rectangle_14355" data-name="Rectangle 14355" width="4" height="13" rx="2" transform="translate(1097 2833)" fill="#c6aa76"/>
    <rect id="Rectangle_14356" data-name="Rectangle 14356" width="4" height="4" rx="1" transform="translate(1099 2848) rotate(45)" fill="#c6aa76"/>
  </g>
</svg>
