<svg xmlns="http://www.w3.org/2000/svg" xmlns:xlink="http://www.w3.org/1999/xlink" width="173.4" height="85" viewBox="0 0 173.4 85">
  <defs>
    <clipPath id="clip-path">
      <rect id="Rectangle_14280" data-name="Rectangle 14280" width="173.4" height="85" transform="translate(-5983 -5885)" fill="#c6aa76" style="mix-blend-mode: color;isolation: isolate"/>
    </clipPath>
    <clipPath id="clip-path-2">
      <rect id="Rectangle_14262" data-name="Rectangle 14262" width="45.004" height="24.969" fill="none" stroke="#c7af81" stroke-width="1"/>
    </clipPath>
    <clipPath id="clip-path-3">
      <rect id="Rectangle_14263" data-name="Rectangle 14263" width="45.004" height="149.479" fill="none" stroke="#c7af81" stroke-width="1"/>
    </clipPath>
    <clipPath id="clip-path-4">
      <rect id="Rectangle_14264" data-name="Rectangle 14264" width="45.004" height="56.076" fill="none" stroke="#c7af81" stroke-width="1"/>
    </clipPath>
    <clipPath id="clip-path-5">
      <rect id="Rectangle_14265" data-name="Rectangle 14265" width="94.939" height="24.969" fill="none" stroke="#c7af81" stroke-width="1"/>
    </clipPath>
    <clipPath id="clip-path-6">
      <rect id="Rectangle_14266" data-name="Rectangle 14266" width="94.939" height="149.479" fill="none" stroke="#c7af81" stroke-width="1"/>
    </clipPath>
    <clipPath id="clip-path-7">
      <rect id="Rectangle_14267" data-name="Rectangle 14267" width="94.939" height="56.076" fill="none" stroke="#c7af81" stroke-width="1"/>
    </clipPath>
    <clipPath id="clip-path-8">
      <rect id="Rectangle_14268" data-name="Rectangle 14268" width="94.937" height="24.969" fill="none" stroke="#c7af81" stroke-width="1"/>
    </clipPath>
    <clipPath id="clip-path-9">
      <rect id="Rectangle_14269" data-name="Rectangle 14269" width="94.937" height="149.479" fill="none" stroke="#c7af81" stroke-width="1"/>
    </clipPath>
    <clipPath id="clip-path-10">
      <rect id="Rectangle_14270" data-name="Rectangle 14270" width="94.937" height="56.076" fill="none" stroke="#c7af81" stroke-width="1"/>
    </clipPath>
    <clipPath id="clip-path-17">
      <rect id="Rectangle_14277" data-name="Rectangle 14277" width="45.244" height="24.969" fill="none" stroke="#c7af81" stroke-width="1"/>
    </clipPath>
    <clipPath id="clip-path-18">
      <rect id="Rectangle_14278" data-name="Rectangle 14278" width="45.244" height="149.479" fill="none" stroke="#c7af81" stroke-width="1"/>
    </clipPath>
    <clipPath id="clip-path-19">
      <rect id="Rectangle_14279" data-name="Rectangle 14279" width="45.244" height="56.076" fill="none" stroke="#c7af81" stroke-width="1"/>
    </clipPath>
  </defs>
  <g id="patternBC" transform="translate(5983 5885)" opacity="0.2" clip-path="url(#clip-path)">
    <g id="Artwork02" transform="translate(-6136.7 -5934.152)">
      <g id="Group_56486" data-name="Group 56486" transform="translate(424.996)">
        <g id="Group_56485" data-name="Group 56485" clip-path="url(#clip-path-2)">
          <path id="Path_124119" data-name="Path 124119" d="M214.365,89.75V9.842a4.953,4.953,0,0,1,3.553-4.75L234.664.165l16.747,4.927a4.951,4.951,0,0,1,3.553,4.75V89.75m-17.407,60.974V114.959a4.95,4.95,0,0,1,3.553-4.748l16.747-4.927,16.747,4.927a4.95,4.95,0,0,1,3.553,4.748v35.9m-87.526-.137V114.959a4.95,4.95,0,0,1,3.553-4.748l16.747-4.927,16.747,4.927a4.95,4.95,0,0,1,3.553,4.748v35.764m-16.859,13.765V84.58a4.951,4.951,0,0,1,3.553-4.75L234.671,74.9l16.747,4.927a4.951,4.951,0,0,1,3.553,4.75v79.908" transform="translate(-210.931 -91.385)" fill="none" stroke="#c7af81" stroke-miterlimit="10" stroke-width="1"/>
        </g>
      </g>
      <g id="Group_56488" data-name="Group 56488" transform="translate(424.996 24.969)">
        <g id="Group_56487" data-name="Group 56487" clip-path="url(#clip-path-3)">
          <path id="Path_124120" data-name="Path 124120" d="M237.859,109.266V73.5a4.951,4.951,0,0,1,3.553-4.75l16.747-4.927,16.747,4.927a4.951,4.951,0,0,1,3.553,4.75v35.9m-87.526-.137V73.5a4.951,4.951,0,0,1,3.553-4.75l16.747-4.927,16.747,4.927a4.951,4.951,0,0,1,3.553,4.75v35.764M214.673,123.03V43.12a4.95,4.95,0,0,1,3.553-4.748l16.747-4.927,16.747,4.927a4.95,4.95,0,0,1,3.553,4.748v79.91M190.389,184V148.239a4.953,4.953,0,0,1,3.553-4.75l16.747-4.925,16.747,4.925a4.953,4.953,0,0,1,3.553,4.75v35.9M238.4,184V148.239a4.953,4.953,0,0,1,3.553-4.75l16.747-4.925,16.747,4.925a4.953,4.953,0,0,1,3.553,4.75V184m-64.336,13.765V117.86a4.953,4.953,0,0,1,3.553-4.75l16.747-4.927,16.747,4.927a4.951,4.951,0,0,1,3.553,4.75v79.908m-17.407,60.974V222.978a4.95,4.95,0,0,1,3.553-4.748l16.747-4.927,16.747,4.927a4.95,4.95,0,0,1,3.553,4.748v35.9m-87.526-.137V222.978a4.95,4.95,0,0,1,3.553-4.748l16.747-4.927,16.747,4.927a4.95,4.95,0,0,1,3.553,4.748v35.764m-16.859,13.765V192.6a4.951,4.951,0,0,1,3.553-4.75l16.747-4.927,16.747,4.927a4.951,4.951,0,0,1,3.553,4.75v79.908" transform="translate(-211.232 -74.894)" fill="none" stroke="#c7af81" stroke-miterlimit="10" stroke-width="1"/>
        </g>
      </g>
      <g id="Group_56490" data-name="Group 56490" transform="translate(424.996 174.447)">
        <g id="Group_56489" data-name="Group 56489" clip-path="url(#clip-path-4)">
          <path id="Path_124121" data-name="Path 124121" d="M237.557,175.824V140.059a4.948,4.948,0,0,1,3.553-4.748l16.747-4.927,16.747,4.927a4.951,4.951,0,0,1,3.553,4.748v35.9m-87.526-.137V140.059a4.948,4.948,0,0,1,3.553-4.748l16.747-4.927,16.747,4.927a4.951,4.951,0,0,1,3.553,4.748v35.764m-16.859,13.765V109.68a4.951,4.951,0,0,1,3.553-4.75L234.671,100l16.747,4.927a4.953,4.953,0,0,1,3.553,4.75v79.908m-40.606,74.738V184.418a4.951,4.951,0,0,1,3.553-4.75l16.747-4.925,16.747,4.925a4.951,4.951,0,0,1,3.553,4.75v79.908" transform="translate(-210.931 -141.454)" fill="none" stroke="#c7af81" stroke-miterlimit="10" stroke-width="1"/>
        </g>
      </g>
      <g id="Group_56492" data-name="Group 56492" transform="translate(330.057)">
        <g id="Group_56491" data-name="Group 56491" clip-path="url(#clip-path-5)">
          <path id="Path_124122" data-name="Path 124122" d="M219.567,89.75V9.842a4.951,4.951,0,0,1,3.551-4.75L239.867.165l16.747,4.927a4.951,4.951,0,0,1,3.553,4.75V89.75m-88.076,0V9.842a4.951,4.951,0,0,1,3.553-4.75L192.391.165l16.747,4.927a4.951,4.951,0,0,1,3.553,4.75V89.75m-17.407,60.974V114.959a4.95,4.95,0,0,1,3.553-4.748l16.747-4.927,16.747,4.927a4.95,4.95,0,0,1,3.553,4.748v35.9m-87.526-.137V114.959a4.95,4.95,0,0,1,3.553-4.748l16.747-4.927,16.749,4.927a4.951,4.951,0,0,1,3.551,4.748v35.764M172.1,164.488V84.58a4.951,4.951,0,0,1,3.553-4.75L192.4,74.9l16.747,4.927a4.951,4.951,0,0,1,3.553,4.75v79.908m30.6-13.765V114.959a4.952,4.952,0,0,1,3.555-4.748l16.747-4.927,16.747,4.927a4.951,4.951,0,0,1,3.551,4.748v35.764m-64.331,13.765V84.58a4.949,4.949,0,0,1,3.551-4.75L239.86,74.9l16.747,4.927a4.951,4.951,0,0,1,3.553,4.75v79.908" transform="translate(-168.657 -91.385)" fill="none" stroke="#c7af81" stroke-miterlimit="10" stroke-width="1"/>
        </g>
      </g>
      <g id="Group_56494" data-name="Group 56494" transform="translate(330.057 24.969)">
        <g id="Group_56493" data-name="Group 56493" clip-path="url(#clip-path-6)">
          <path id="Path_124123" data-name="Path 124123" d="M195.585,109.266V73.5a4.951,4.951,0,0,1,3.553-4.75l16.747-4.927,16.747,4.927a4.951,4.951,0,0,1,3.553,4.75v35.9m-87.526-.137V73.5a4.951,4.951,0,0,1,3.553-4.75l16.747-4.927,16.749,4.927a4.951,4.951,0,0,1,3.551,4.75v35.764M172.4,123.03V43.12a4.95,4.95,0,0,1,3.553-4.748L192.7,33.445l16.747,4.927A4.95,4.95,0,0,1,213,43.12v79.91m30.6-13.765V73.5a4.953,4.953,0,0,1,3.555-4.75L263.9,63.824l16.747,4.927A4.951,4.951,0,0,1,284.2,73.5v35.764M219.864,123.03V43.12a4.948,4.948,0,0,1,3.551-4.748l16.747-4.927,16.747,4.927a4.95,4.95,0,0,1,3.553,4.748v79.91M148.115,184V148.239a4.953,4.953,0,0,1,3.553-4.75l16.747-4.925,16.747,4.925a4.953,4.953,0,0,1,3.553,4.75v35.9m54.34-.137V148.239a4.953,4.953,0,0,1,3.553-4.75l16.747-4.925,16.747,4.925a4.955,4.955,0,0,1,3.553,4.75v35.9M196.128,184V148.239a4.953,4.953,0,0,1,3.553-4.75l16.747-4.925,16.747,4.925a4.953,4.953,0,0,1,3.553,4.75V184m-16.859,13.765V117.86a4.951,4.951,0,0,1,3.551-4.75l16.749-4.927,16.747,4.927a4.951,4.951,0,0,1,3.553,4.75v79.908m-88.076,0V117.86a4.951,4.951,0,0,1,3.553-4.75l16.747-4.927,16.747,4.927a4.951,4.951,0,0,1,3.553,4.75v79.908m-17.407,60.974V222.978a4.95,4.95,0,0,1,3.553-4.748l16.747-4.927,16.747,4.927a4.95,4.95,0,0,1,3.553,4.748v35.9m-87.526-.137V222.978a4.95,4.95,0,0,1,3.553-4.748l16.747-4.927,16.749,4.927a4.951,4.951,0,0,1,3.551,4.748v35.764M172.4,272.507V192.6a4.951,4.951,0,0,1,3.553-4.75l16.747-4.927,16.747,4.927A4.951,4.951,0,0,1,213,192.6v79.908m30.6-13.765V222.978a4.952,4.952,0,0,1,3.555-4.748L263.9,213.3l16.747,4.927a4.951,4.951,0,0,1,3.551,4.748v35.764m-64.331,13.765V192.6a4.949,4.949,0,0,1,3.551-4.75l16.747-4.927,16.747,4.927a4.951,4.951,0,0,1,3.553,4.75v79.908" transform="translate(-168.958 -74.894)" fill="none" stroke="#c7af81" stroke-miterlimit="10" stroke-width="1"/>
        </g>
      </g>
      <g id="Group_56496" data-name="Group 56496" transform="translate(330.057 174.447)">
        <g id="Group_56495" data-name="Group 56495" clip-path="url(#clip-path-7)">
          <path id="Path_124124" data-name="Path 124124" d="M195.284,175.824V140.059a4.948,4.948,0,0,1,3.553-4.748l16.747-4.927,16.747,4.927a4.951,4.951,0,0,1,3.553,4.748v35.9m-87.526-.137V140.059a4.948,4.948,0,0,1,3.553-4.748l16.747-4.927,16.747,4.927a4.948,4.948,0,0,1,3.553,4.748v35.764M172.1,189.588V109.68a4.951,4.951,0,0,1,3.553-4.75L192.4,100l16.747,4.927a4.953,4.953,0,0,1,3.553,4.75v79.908m30.6-13.765V140.059a4.948,4.948,0,0,1,3.553-4.748l16.747-4.927,16.747,4.927a4.948,4.948,0,0,1,3.553,4.748v35.764m-64.333,13.765V109.68a4.951,4.951,0,0,1,3.553-4.75L239.861,100l16.747,4.927a4.951,4.951,0,0,1,3.553,4.75v79.908m-40.6,74.738V184.418a4.954,4.954,0,0,1,3.553-4.75l16.747-4.925,16.749,4.925a4.951,4.951,0,0,1,3.551,4.75v79.908m-88.074,0V184.418a4.951,4.951,0,0,1,3.553-4.75l16.747-4.925,16.747,4.925a4.951,4.951,0,0,1,3.553,4.75v79.908" transform="translate(-168.656 -141.454)" fill="none" stroke="#c7af81" stroke-miterlimit="10" stroke-width="1"/>
        </g>
      </g>
      <g id="Group_56498" data-name="Group 56498" transform="translate(235.122)">
        <g id="Group_56497" data-name="Group 56497" clip-path="url(#clip-path-8)">
          <path id="Path_124125" data-name="Path 124125" d="M177.294,89.75V9.842a4.951,4.951,0,0,1,3.551-4.75L197.594.165l16.747,4.927a4.951,4.951,0,0,1,3.551,4.75V89.75m-88.074,0V9.842a4.951,4.951,0,0,1,3.553-4.75L150.117.165l16.747,4.927a4.951,4.951,0,0,1,3.553,4.75V89.75M153.01,150.724V114.959a4.95,4.95,0,0,1,3.553-4.748l16.747-4.927,16.747,4.927a4.95,4.95,0,0,1,3.553,4.748v35.9m-87.526-.137V114.959a4.95,4.95,0,0,1,3.553-4.748l16.747-4.927,16.747,4.927a4.95,4.95,0,0,1,3.553,4.748v35.764m-16.859,13.765V84.58a4.951,4.951,0,0,1,3.553-4.75L150.124,74.9l16.747,4.927a4.951,4.951,0,0,1,3.553,4.75v79.908m30.6-13.765V114.959a4.952,4.952,0,0,1,3.555-4.748l16.745-4.927,16.749,4.927a4.951,4.951,0,0,1,3.551,4.748v35.764m-64.333,13.765V84.58a4.951,4.951,0,0,1,3.553-4.75L197.587,74.9l16.747,4.927a4.951,4.951,0,0,1,3.553,4.75v79.908" transform="translate(-126.386 -91.385)" fill="none" stroke="#c7af81" stroke-miterlimit="10" stroke-width="1"/>
        </g>
      </g>
      <g id="Group_56500" data-name="Group 56500" transform="translate(235.122 24.969)">
        <g id="Group_56499" data-name="Group 56499" clip-path="url(#clip-path-9)">
          <path id="Path_124126" data-name="Path 124126" d="M153.312,109.266V73.5a4.951,4.951,0,0,1,3.553-4.75l16.747-4.927,16.747,4.927a4.951,4.951,0,0,1,3.553,4.75v35.9m-87.526-.137V73.5a4.951,4.951,0,0,1,3.553-4.75l16.747-4.927,16.747,4.927a4.951,4.951,0,0,1,3.553,4.75v35.764M130.126,123.03V43.12a4.95,4.95,0,0,1,3.553-4.748l16.747-4.927,16.747,4.927a4.95,4.95,0,0,1,3.553,4.748v79.91m30.6-13.765V73.5a4.953,4.953,0,0,1,3.555-4.75l16.745-4.927,16.749,4.927a4.951,4.951,0,0,1,3.551,4.75v35.764M177.589,123.03V43.12a4.95,4.95,0,0,1,3.553-4.748l16.747-4.927,16.747,4.927a4.95,4.95,0,0,1,3.553,4.748v79.91M105.842,184V148.239a4.953,4.953,0,0,1,3.553-4.75l16.747-4.925,16.747,4.925a4.953,4.953,0,0,1,3.553,4.75v35.9M200.781,184V148.239a4.953,4.953,0,0,1,3.551-4.75l16.749-4.925,16.747,4.925a4.955,4.955,0,0,1,3.553,4.75v35.9M153.855,184V148.239a4.953,4.953,0,0,1,3.551-4.75l16.749-4.925,16.747,4.925a4.955,4.955,0,0,1,3.553,4.75V184M177.6,197.768V117.86a4.951,4.951,0,0,1,3.551-4.75l16.749-4.927,16.747,4.927a4.951,4.951,0,0,1,3.551,4.75v79.908m-88.074,0V117.86a4.951,4.951,0,0,1,3.553-4.75l16.747-4.927,16.747,4.927a4.951,4.951,0,0,1,3.553,4.75v79.908m-17.407,60.974V222.978a4.95,4.95,0,0,1,3.553-4.748l16.747-4.927,16.747,4.927a4.95,4.95,0,0,1,3.553,4.748v35.9m-87.526-.137V222.978a4.95,4.95,0,0,1,3.553-4.748l16.747-4.927,16.747,4.927a4.95,4.95,0,0,1,3.553,4.748v35.764m-16.859,13.765V192.6a4.951,4.951,0,0,1,3.553-4.75l16.747-4.927,16.747,4.927a4.951,4.951,0,0,1,3.553,4.75v79.908m30.6-13.765V222.978a4.952,4.952,0,0,1,3.555-4.748l16.745-4.927,16.749,4.927a4.951,4.951,0,0,1,3.551,4.748v35.764m-64.333,13.765V192.6a4.951,4.951,0,0,1,3.553-4.75l16.747-4.927,16.747,4.927a4.951,4.951,0,0,1,3.553,4.75v79.908" transform="translate(-126.688 -74.894)" fill="none" stroke="#c7af81" stroke-miterlimit="10" stroke-width="1"/>
        </g>
      </g>
      <g id="Group_56502" data-name="Group 56502" transform="translate(235.122 174.447)">
        <g id="Group_56501" data-name="Group 56501" clip-path="url(#clip-path-10)">
          <path id="Path_124127" data-name="Path 124127" d="M153.01,175.824V140.059a4.948,4.948,0,0,1,3.553-4.748l16.747-4.927,16.747,4.927a4.951,4.951,0,0,1,3.553,4.748v35.9m-87.526-.137V140.059a4.948,4.948,0,0,1,3.553-4.748l16.747-4.927,16.747,4.927a4.951,4.951,0,0,1,3.553,4.748v35.764m-16.859,13.765V109.68a4.951,4.951,0,0,1,3.553-4.75L150.124,100l16.747,4.927a4.953,4.953,0,0,1,3.553,4.75v79.908m30.6-13.765V140.059a4.948,4.948,0,0,1,3.553-4.748l16.747-4.927,16.749,4.927a4.949,4.949,0,0,1,3.551,4.748v35.764m-64.333,13.765V109.68a4.951,4.951,0,0,1,3.553-4.75L197.587,100l16.747,4.927a4.951,4.951,0,0,1,3.553,4.75v79.908m-40.6,74.738V184.418a4.951,4.951,0,0,1,3.553-4.75l16.747-4.925,16.749,4.925a4.951,4.951,0,0,1,3.551,4.75v79.908m-88.074,0V184.418a4.951,4.951,0,0,1,3.553-4.75l16.747-4.925,16.747,4.925a4.951,4.951,0,0,1,3.553,4.75v79.908" transform="translate(-126.386 -141.454)" fill="none" stroke="#c7af81" stroke-miterlimit="10" stroke-width="1"/>
        </g>
      </g>
      <g id="Group_56504" data-name="Group 56504" transform="translate(140.183)">
        <g id="Group_56503" data-name="Group 56503" clip-path="url(#clip-path-5)">
          <path id="Path_124128" data-name="Path 124128" d="M135.021,89.75V9.842a4.951,4.951,0,0,1,3.551-4.75L155.321.165l16.747,4.927a4.951,4.951,0,0,1,3.553,4.75V89.75m-88.076,0V9.842A4.951,4.951,0,0,1,91.1,5.092L107.845.165l16.747,4.927a4.951,4.951,0,0,1,3.553,4.75V89.75m-17.407,60.974V114.959a4.95,4.95,0,0,1,3.553-4.748l16.747-4.927,16.747,4.927a4.95,4.95,0,0,1,3.553,4.748v35.9m-87.526-.137V114.959a4.95,4.95,0,0,1,3.553-4.748l16.747-4.927,16.747,4.927a4.95,4.95,0,0,1,3.553,4.748v35.764M87.551,164.488V84.58A4.951,4.951,0,0,1,91.1,79.83L107.851,74.9,124.6,79.83a4.951,4.951,0,0,1,3.553,4.75v79.908m30.6-13.765V114.959a4.952,4.952,0,0,1,3.555-4.748l16.747-4.927,16.747,4.927a4.951,4.951,0,0,1,3.551,4.748v35.764m-64.333,13.765V84.58a4.951,4.951,0,0,1,3.553-4.75L155.314,74.9l16.747,4.927a4.951,4.951,0,0,1,3.553,4.75v79.908" transform="translate(-84.111 -91.385)" fill="none" stroke="#c7af81" stroke-miterlimit="10" stroke-width="1"/>
        </g>
      </g>
      <g id="Group_56506" data-name="Group 56506" transform="translate(140.183 24.969)">
        <g id="Group_56505" data-name="Group 56505" clip-path="url(#clip-path-6)">
          <path id="Path_124129" data-name="Path 124129" d="M111.039,109.266V73.5a4.951,4.951,0,0,1,3.553-4.75l16.747-4.927,16.747,4.927a4.951,4.951,0,0,1,3.553,4.75v35.9m-87.526-.137V73.5a4.951,4.951,0,0,1,3.553-4.75l16.747-4.927,16.747,4.927a4.951,4.951,0,0,1,3.553,4.75v35.764M87.853,123.03V43.12a4.95,4.95,0,0,1,3.553-4.748l16.747-4.927L124.9,38.372a4.95,4.95,0,0,1,3.553,4.748v79.91m30.6-13.765V73.5a4.953,4.953,0,0,1,3.555-4.75l16.747-4.927L196.1,68.751a4.951,4.951,0,0,1,3.551,4.75v35.764M135.316,123.03V43.12a4.95,4.95,0,0,1,3.553-4.748l16.747-4.927,16.747,4.927a4.95,4.95,0,0,1,3.553,4.748v79.91M63.569,184V148.239a4.953,4.953,0,0,1,3.553-4.75l16.747-4.925,16.747,4.925a4.953,4.953,0,0,1,3.553,4.75v35.9m54.34-.137V148.239a4.953,4.953,0,0,1,3.553-4.75l16.747-4.925,16.747,4.925a4.953,4.953,0,0,1,3.553,4.75v35.9M111.582,184V148.239a4.953,4.953,0,0,1,3.553-4.75l16.747-4.925,16.747,4.925a4.953,4.953,0,0,1,3.553,4.75V184m-16.859,13.765V117.86a4.951,4.951,0,0,1,3.551-4.75l16.749-4.927,16.747,4.927a4.951,4.951,0,0,1,3.553,4.75v79.908m-88.076,0V117.86a4.951,4.951,0,0,1,3.553-4.75l16.747-4.927,16.747,4.927a4.951,4.951,0,0,1,3.553,4.75v79.908m-17.407,60.974V222.978a4.95,4.95,0,0,1,3.553-4.748l16.747-4.927,16.747,4.927a4.95,4.95,0,0,1,3.553,4.748v35.9m-87.526-.137V222.978a4.95,4.95,0,0,1,3.553-4.748L84.412,213.3l16.747,4.927a4.95,4.95,0,0,1,3.553,4.748v35.764M87.853,272.507V192.6a4.951,4.951,0,0,1,3.553-4.75l16.747-4.927,16.747,4.927a4.951,4.951,0,0,1,3.553,4.75v79.908m30.6-13.765V222.978a4.952,4.952,0,0,1,3.555-4.748l16.747-4.927L196.1,218.23a4.951,4.951,0,0,1,3.551,4.748v35.764m-64.333,13.765V192.6a4.951,4.951,0,0,1,3.553-4.75l16.747-4.927,16.747,4.927a4.951,4.951,0,0,1,3.553,4.75v79.908" transform="translate(-84.412 -74.894)" fill="none" stroke="#c7af81" stroke-miterlimit="10" stroke-width="1"/>
        </g>
      </g>
      <g id="Group_56508" data-name="Group 56508" transform="translate(140.183 174.447)">
        <g id="Group_56507" data-name="Group 56507" clip-path="url(#clip-path-7)">
          <path id="Path_124130" data-name="Path 124130" d="M110.737,175.824V140.059a4.948,4.948,0,0,1,3.553-4.748l16.747-4.927,16.747,4.927a4.951,4.951,0,0,1,3.553,4.748v35.9m-87.526-.137V140.059a4.948,4.948,0,0,1,3.553-4.748l16.747-4.927,16.747,4.927a4.951,4.951,0,0,1,3.553,4.748v35.764M87.551,189.588V109.68a4.951,4.951,0,0,1,3.553-4.75L107.851,100,124.6,104.93a4.953,4.953,0,0,1,3.553,4.75v79.908m30.6-13.765V140.059a4.948,4.948,0,0,1,3.553-4.748l16.747-4.927,16.747,4.927a4.948,4.948,0,0,1,3.553,4.748v35.764m-64.333,13.765V109.68a4.951,4.951,0,0,1,3.553-4.75L155.314,100l16.747,4.927a4.951,4.951,0,0,1,3.553,4.75v79.908m-40.6,74.738V184.418a4.953,4.953,0,0,1,3.553-4.75l16.747-4.925,16.749,4.925a4.951,4.951,0,0,1,3.551,4.75v79.908m-88.074,0V184.418a4.951,4.951,0,0,1,3.553-4.75l16.747-4.925,16.747,4.925a4.951,4.951,0,0,1,3.553,4.75v79.908" transform="translate(-84.111 -141.454)" fill="none" stroke="#c7af81" stroke-miterlimit="10" stroke-width="1"/>
        </g>
      </g>
      <g id="Group_56510" data-name="Group 56510" transform="translate(45.246)">
        <g id="Group_56509" data-name="Group 56509" clip-path="url(#clip-path-8)">
          <path id="Path_124131" data-name="Path 124131" d="M92.747,89.75V9.842A4.951,4.951,0,0,1,96.3,5.092L113.047.165l16.747,4.927a4.951,4.951,0,0,1,3.553,4.75V89.75m-88.076,0V9.842a4.951,4.951,0,0,1,3.553-4.75L65.571.165,82.317,5.092a4.951,4.951,0,0,1,3.553,4.75V89.75M68.463,150.724V114.959a4.95,4.95,0,0,1,3.553-4.748l16.747-4.927,16.747,4.927a4.95,4.95,0,0,1,3.553,4.748v35.9m-87.526-.137V114.959a4.95,4.95,0,0,1,3.553-4.748l16.747-4.927,16.747,4.927a4.95,4.95,0,0,1,3.553,4.748v35.764M45.277,164.488V84.58a4.951,4.951,0,0,1,3.553-4.75L65.577,74.9,82.324,79.83a4.951,4.951,0,0,1,3.553,4.75v79.908m30.6-13.765V114.959a4.95,4.95,0,0,1,3.553-4.748l16.747-4.927,16.747,4.927a4.951,4.951,0,0,1,3.551,4.748v35.764M92.74,164.488V84.58a4.951,4.951,0,0,1,3.553-4.75L113.04,74.9l16.747,4.927a4.951,4.951,0,0,1,3.553,4.75v79.908" transform="translate(-41.839 -91.385)" fill="none" stroke="#c7af81" stroke-miterlimit="10" stroke-width="1"/>
        </g>
      </g>
      <g id="Group_56512" data-name="Group 56512" transform="translate(45.246 24.969)">
        <g id="Group_56511" data-name="Group 56511" clip-path="url(#clip-path-9)">
          <path id="Path_124132" data-name="Path 124132" d="M68.765,109.266V73.5a4.951,4.951,0,0,1,3.553-4.75l16.747-4.927,16.747,4.927a4.951,4.951,0,0,1,3.553,4.75v35.9m-87.526-.137V73.5a4.951,4.951,0,0,1,3.553-4.75l16.747-4.927,16.747,4.927a4.951,4.951,0,0,1,3.553,4.75v35.764M45.579,123.03V43.12a4.95,4.95,0,0,1,3.553-4.748l16.747-4.927,16.747,4.927a4.95,4.95,0,0,1,3.553,4.748v79.91m30.6-13.765V73.5a4.951,4.951,0,0,1,3.553-4.75l16.747-4.927,16.747,4.927a4.951,4.951,0,0,1,3.551,4.75v35.764M93.042,123.03V43.12a4.95,4.95,0,0,1,3.553-4.748l16.747-4.927,16.747,4.927a4.95,4.95,0,0,1,3.553,4.748v79.91M21.295,184V148.239a4.953,4.953,0,0,1,3.553-4.75l16.747-4.925,16.747,4.925a4.953,4.953,0,0,1,3.553,4.75v35.9m54.34-.137V148.239a4.953,4.953,0,0,1,3.553-4.75l16.747-4.925,16.747,4.925a4.955,4.955,0,0,1,3.553,4.75v35.9M69.308,184V148.239a4.953,4.953,0,0,1,3.553-4.75l16.747-4.925,16.747,4.925a4.953,4.953,0,0,1,3.553,4.75V184M93.048,197.768V117.86a4.951,4.951,0,0,1,3.551-4.75l16.749-4.927L130.1,113.11a4.951,4.951,0,0,1,3.553,4.75v79.908m-88.076,0V117.86a4.951,4.951,0,0,1,3.553-4.75l16.747-4.927,16.747,4.927a4.951,4.951,0,0,1,3.553,4.75v79.908M68.765,258.742V222.978a4.95,4.95,0,0,1,3.553-4.748L89.064,213.3l16.747,4.927a4.95,4.95,0,0,1,3.553,4.748v35.9m-87.526-.137V222.978a4.95,4.95,0,0,1,3.553-4.748L42.138,213.3l16.747,4.927a4.95,4.95,0,0,1,3.553,4.748v35.764M45.579,272.507V192.6a4.951,4.951,0,0,1,3.553-4.75l16.747-4.927,16.747,4.927a4.951,4.951,0,0,1,3.553,4.75v79.908m30.6-13.765V222.978a4.95,4.95,0,0,1,3.553-4.748l16.747-4.927,16.747,4.927a4.951,4.951,0,0,1,3.551,4.748v35.764M93.042,272.507V192.6a4.951,4.951,0,0,1,3.553-4.75l16.747-4.927,16.747,4.927a4.951,4.951,0,0,1,3.553,4.75v79.908" transform="translate(-42.141 -74.894)" fill="none" stroke="#c7af81" stroke-miterlimit="10" stroke-width="1"/>
        </g>
      </g>
      <g id="Group_56514" data-name="Group 56514" transform="translate(45.246 174.447)">
        <g id="Group_56513" data-name="Group 56513" clip-path="url(#clip-path-10)">
          <path id="Path_124133" data-name="Path 124133" d="M68.463,175.824V140.059a4.948,4.948,0,0,1,3.553-4.748l16.747-4.927,16.747,4.927a4.951,4.951,0,0,1,3.553,4.748v35.9m-87.526-.137V140.059a4.948,4.948,0,0,1,3.553-4.748l16.747-4.927,16.747,4.927a4.951,4.951,0,0,1,3.553,4.748v35.764M45.277,189.588V109.68a4.951,4.951,0,0,1,3.553-4.75L65.577,100l16.747,4.927a4.951,4.951,0,0,1,3.553,4.75v79.908m30.6-13.765V140.059a4.948,4.948,0,0,1,3.553-4.748l16.747-4.927,16.747,4.927a4.948,4.948,0,0,1,3.553,4.748v35.764M92.74,189.588V109.68a4.951,4.951,0,0,1,3.553-4.75L113.04,100l16.747,4.927a4.951,4.951,0,0,1,3.553,4.75v79.908m-40.6,74.738V184.418a4.953,4.953,0,0,1,3.553-4.75l16.747-4.925,16.751,4.925a4.952,4.952,0,0,1,3.548,4.75v79.908m-88.074,0V184.418a4.951,4.951,0,0,1,3.553-4.75l16.747-4.925,16.747,4.925a4.951,4.951,0,0,1,3.553,4.75v79.908" transform="translate(-41.839 -141.454)" fill="none" stroke="#c7af81" stroke-miterlimit="10" stroke-width="1"/>
        </g>
      </g>
      <g id="Group_56516" data-name="Group 56516">
        <g id="Group_56515" data-name="Group 56515" clip-path="url(#clip-path-17)">
          <path id="Path_124134" data-name="Path 124134" d="M24.443,89.75V9.842a4.951,4.951,0,0,1,3.551-4.75L44.743.165,61.49,5.092a4.951,4.951,0,0,1,3.551,4.75V89.75M.159,150.724V114.959a4.95,4.95,0,0,1,3.553-4.748l16.747-4.927,16.747,4.927a4.95,4.95,0,0,1,3.553,4.748v35.9m7.411-.137V114.959a4.952,4.952,0,0,1,3.555-4.748l16.745-4.927,16.749,4.927a4.951,4.951,0,0,1,3.551,4.748v35.764M24.436,164.488V84.58a4.951,4.951,0,0,1,3.553-4.75L44.736,74.9,61.483,79.83a4.951,4.951,0,0,1,3.553,4.75v79.908" transform="translate(-23.226 -91.385)" fill="none" stroke="#c7af81" stroke-miterlimit="10" stroke-width="1"/>
        </g>
      </g>
      <g id="Group_56518" data-name="Group 56518" transform="translate(0 24.969)">
        <g id="Group_56517" data-name="Group 56517" clip-path="url(#clip-path-18)">
          <path id="Path_124135" data-name="Path 124135" d="M.159,109.266V73.5a4.951,4.951,0,0,1,3.553-4.75l16.747-4.927,16.747,4.927a4.951,4.951,0,0,1,3.553,4.75v35.9m7.411-.137V73.5a4.953,4.953,0,0,1,3.555-4.75L68.47,63.824l16.749,4.927A4.951,4.951,0,0,1,88.77,73.5v35.764M24.436,123.03V43.12a4.95,4.95,0,0,1,3.553-4.748l16.747-4.927,16.747,4.927a4.95,4.95,0,0,1,3.553,4.748v79.91M47.629,184V148.239a4.953,4.953,0,0,1,3.551-4.75l16.749-4.925,16.747,4.925a4.955,4.955,0,0,1,3.553,4.75v35.9M.7,184V148.239a4.953,4.953,0,0,1,3.551-4.75L21,138.564l16.745,4.925a4.955,4.955,0,0,1,3.555,4.75V184M24.443,197.768V117.86a4.951,4.951,0,0,1,3.551-4.75l16.749-4.927L61.49,113.11a4.951,4.951,0,0,1,3.551,4.75v79.908M.159,258.742V222.978a4.95,4.95,0,0,1,3.553-4.748L20.459,213.3l16.747,4.927a4.95,4.95,0,0,1,3.553,4.748v35.9m7.411-.137V222.978a4.952,4.952,0,0,1,3.555-4.748L68.47,213.3l16.749,4.927a4.951,4.951,0,0,1,3.551,4.748v35.764M24.436,272.507V192.6a4.951,4.951,0,0,1,3.553-4.75l16.747-4.927,16.747,4.927a4.951,4.951,0,0,1,3.553,4.75v79.908" transform="translate(-23.226 -74.894)" fill="none" stroke="#c7af81" stroke-miterlimit="10" stroke-width="1"/>
        </g>
      </g>
      <g id="Group_56520" data-name="Group 56520" transform="translate(0 174.447)">
        <g id="Group_56519" data-name="Group 56519" clip-path="url(#clip-path-19)">
          <path id="Path_124136" data-name="Path 124136" d="M.159,175.824V140.059a4.948,4.948,0,0,1,3.553-4.748l16.747-4.927L37.2,135.312a4.948,4.948,0,0,1,3.553,4.748v35.9m7.416-.137V140.059a4.946,4.946,0,0,1,3.551-4.748l16.747-4.927,16.749,4.927a4.946,4.946,0,0,1,3.551,4.748v35.764M24.436,189.588V109.68a4.951,4.951,0,0,1,3.551-4.75L44.734,100l16.749,4.927a4.951,4.951,0,0,1,3.553,4.75v79.908M24.443,264.326V184.418A4.948,4.948,0,0,1,28,179.668l16.745-4.925,16.749,4.925a4.949,4.949,0,0,1,3.551,4.75v79.908" transform="translate(-23.226 -141.454)" fill="none" stroke="#c7af81" stroke-miterlimit="10" stroke-width="1"/>
        </g>
      </g>
    </g>
  </g>
</svg>
