<svg xmlns="http://www.w3.org/2000/svg" width="52.033" height="58.402" viewBox="0 0 52.033 58.402">
  <g id="priorityIcon7" transform="translate(-1472.821 -446.125)">
    <path id="Path_122782" data-name="Path 122782" d="M312.158-52.011A12.28,12.28,0,0,0,300.016-55.9a1.793,1.793,0,0,1-1.77-.571l-.888-1.022-2.1,1.821-1.912-2.292a1.414,1.414,0,0,0-1.088-.509,1.416,1.416,0,0,0-.491.088,1.414,1.414,0,0,0-.407-.363l-2.66-1.577a1.417,1.417,0,0,0-.722-.2,1.425,1.425,0,0,0-1.153.593,1.412,1.412,0,0,0-.734-.207,1.422,1.422,0,0,0-.348.042l-2.928.739-1.34-2.124a1.41,1.41,0,0,0-1.074-.655l-.339-2.16a1.461,1.461,0,0,0-.031-.147l1.953-.27-.186-1.341a1.793,1.793,0,0,1,.736-1.709,12.28,12.28,0,0,0,5.059-11.7A12.287,12.287,0,0,0,278.018-89.8l-5.508,2.334-.022.3,5.066-.255.061,2.552a7.411,7.411,0,0,1,2.356,1.232,7.411,7.411,0,0,1,2.784,4.838,7.353,7.353,0,0,1-1.431,5.47,7.353,7.353,0,0,1-4.886,2.866,7.417,7.417,0,0,1-5.54-1.473,7.351,7.351,0,0,1-2.8-4.77,7.417,7.417,0,0,1,1.419-5.554,7.353,7.353,0,0,1,4.886-2.866,7.443,7.443,0,0,1,1.972-.01l-.024-1.007-5.194.261.176-2.42,4.188-1.775a12.378,12.378,0,0,0-1.794.116,12.282,12.282,0,0,0-10.481,13.851,12.28,12.28,0,0,0,8.05,9.889,1.793,1.793,0,0,1,1.172,1.444l.186,1.341,3.083-.427a1.434,1.434,0,0,0,.017.232l.48,3.055a1.41,1.41,0,0,0,1.4,1.2h.044a1.417,1.417,0,0,0,.108.209l1.65,2.615a1.411,1.411,0,0,0,1.2.661h0a1.414,1.414,0,0,0,.755-.219l.592-.374.08.323a1.415,1.415,0,0,0,1.375,1.074h0a1.42,1.42,0,0,0,.348-.042l3-.748a1.415,1.415,0,0,0,.494-.232l1.856,1.1a1.417,1.417,0,0,0,.722.2,1.41,1.41,0,0,0,.4-.059l1.717,2.048-1.72,1.493.888,1.022a1.794,1.794,0,0,1,.317,1.833,12.28,12.28,0,0,0,2.14,12.57,12.287,12.287,0,0,0,13.658,3.426l3.342-4.962-.145-.263-4.106,2.978-1.447-2.108a7.413,7.413,0,0,1-2.647.253,7.411,7.411,0,0,1-4.977-2.533,7.353,7.353,0,0,1-1.787-5.364,7.353,7.353,0,0,1,2.531-5.067,7.417,7.417,0,0,1,5.446-1.788,7.351,7.351,0,0,1,4.947,2.471,7.417,7.417,0,0,1,1.842,5.428,7.353,7.353,0,0,1-2.531,5.067,7.441,7.441,0,0,1-1.651,1.087l.57.831,4.209-3.053,1.173,2.124L309.5-33.605a12.38,12.38,0,0,0,1.439-1.077,12.282,12.282,0,0,0,1.219-17.329Zm-34.436-8.52h-.071a.27.27,0,0,1-.266-.232l-.48-3.055a.268.268,0,0,1,.049-.2l.015-.019,1.872-.26a.269.269,0,0,1,.089.16L279.3-61.8l-1.052.664a1.408,1.408,0,0,0-.522.606Zm3.986,2.874-.912.58a.263.263,0,0,1-.143.042h0a.269.269,0,0,1-.232-.125l-1.508-2.391.449-.071a1.408,1.408,0,0,0,.928-.566,1.41,1.41,0,0,0,.256-.621l1.332,2.11a1.413,1.413,0,0,0-.169,1.042Zm4.417.765-2.6.65a.27.27,0,0,1-.327-.2l-.188-.754a1.423,1.423,0,0,0,.328-1.116l2.691-.671a.273.273,0,0,1,.066-.008.267.267,0,0,1,.144.043l-.247.418a1.42,1.42,0,0,0,.137,1.635Zm4.067-.284a1.407,1.407,0,0,0-.5.961,1.445,1.445,0,0,0,0,.19L287.87-57.1a1.419,1.419,0,0,0-.035-.493l-.314-1.261.232-.386a.268.268,0,0,1,.232-.132.265.265,0,0,1,.137.038l2.66,1.577a.267.267,0,0,1,.059.048Zm.957,1.567.709-1.2a1.418,1.418,0,0,0,.161-.4l.067-.057a.265.265,0,0,1,.172-.063.269.269,0,0,1,.208.1l1.926,2.306-1.549,1.345Z" transform="translate(1209.687 536.201)" fill="#7f1f3f"/>
  </g>
</svg>
