<svg xmlns="http://www.w3.org/2000/svg" width="67.233" height="59.431" viewBox="0 0 67.233 59.431">
  <g id="priorityIcon6" transform="translate(-0.349 -0.35)">
    <path id="Subtraction_12" data-name="Subtraction 12" d="M20.444,59.431a.912.912,0,0,1-.629-1.572l0,0A29.626,29.626,0,0,0,27.8,43.768a.911.911,0,0,1,.884-.694.879.879,0,0,1,.223.027.912.912,0,0,1,.664,1.1,31.515,31.515,0,0,1-8.5,14.977A.9.9,0,0,1,20.444,59.431ZM15.618,58.6a.9.9,0,0,1-.7-.327A.919.919,0,0,1,15.009,57c5.891-4.932,9.426-11.6,9.7-18.288a12.247,12.247,0,0,0-.687-4.8,16.773,16.773,0,0,0,2.2,1.092,16.271,16.271,0,0,1,.31,3.776c-.293,7.2-4.064,14.353-10.348,19.616A.92.92,0,0,1,15.618,58.6Zm10.308-.289a.912.912,0,0,1-.635-1.565c4.307-4.195,6.678-9.879,7.048-16.892a28.656,28.656,0,0,0-.021-3.6c.082,0,.163,0,.249,0,.53,0,1.06-.024,1.576-.071a30.907,30.907,0,0,1,.018,3.761c-.393,7.485-2.948,13.579-7.6,18.11A.908.908,0,0,1,25.926,58.309ZM11.949,56.4a.913.913,0,0,1-.912-.953.9.9,0,0,1,.3-.632c6.641-6.058,9.79-11.273,9.627-15.943-.111-3.229.074-5.441.565-6.762a16.984,16.984,0,0,0,1.557,1.21,20.875,20.875,0,0,0-.3,5.5c.182,5.231-3.161,10.905-10.22,17.346A.912.912,0,0,1,11.949,56.4Zm52.684-1.775a2.578,2.578,0,0,1-1.852-.776l-18.021-18.3a2.6,2.6,0,0,1-.742-1.923l0-.132-2.4-2.445-.213.159a14.916,14.916,0,0,1-5.835,2.633c-.424.091-.875.166-1.342.22a15.209,15.209,0,0,1-3.932-.082,14.557,14.557,0,0,1-7.681-3.709c-.184-.168-.351-.328-.508-.489a14.717,14.717,0,0,1-.487-20.085c.236-.262.437-.478.651-.688a14.688,14.688,0,0,1,21.9,19.478l-.163.21,2.316,2.35.093.094.132,0h.067a2.6,2.6,0,0,1,1.843.774l18.021,18.3.164.168a2.6,2.6,0,0,1-2.013,4.248ZM32.558,6.507a13,13,0,0,0-3.407.456,12.815,12.815,0,0,0-4.033,1.9,12.984,12.984,0,0,0-1.642,1.367c-.286.281-.561.579-.817.887a12.825,12.825,0,0,0-1.735,2.664,12.956,12.956,0,0,0,11.653,18.66c.284,0,.574-.01.863-.029a13.052,13.052,0,0,0,4.483-1.118,12.753,12.753,0,0,0,2.348-1.371,13.17,13.17,0,0,0,1.4-1.2c.317-.314.62-.644.9-.98A12.981,12.981,0,0,0,32.558,6.507ZM8.91,53.136a.913.913,0,0,1-.675-1.528l.953-1.038.006-.006c4.605-5.019,6.916-7.539,7.51-12.419a.914.914,0,0,1,.906-.8c.036,0,.074,0,.111.006a.918.918,0,0,1,.608.345.9.9,0,0,1,.187.67c-.667,5.46-3.415,8.458-7.968,13.426l0,0-.96,1.047A.906.906,0,0,1,8.91,53.136Zm26.232-1.549a.942.942,0,0,1-.326-.059.9.9,0,0,1-.5-.477.908.908,0,0,1-.02-.7c2.46-6.452,2.576-9.684,1.9-14.489a16.942,16.942,0,0,0,1.774-.49c0,.015,0,.03.006.046.731,5.129.622,8.769-1.981,15.584A.917.917,0,0,1,35.142,51.587ZM6.163,48.833a.911.911,0,0,1-.911-.946.918.918,0,0,1,.291-.636c6.539-6.067,7.233-10.816,8.038-16.314.182-1.258.389-2.684.685-4.161V26.77A9.117,9.117,0,0,1,16.114,22.7a16.748,16.748,0,0,0,.635,2.358,8.217,8.217,0,0,0-.7,2.072c-.265,1.316-.45,2.572-.628,3.786l-.02.13-.023.151c-.818,5.6-1.591,10.888-8.6,17.387A.9.9,0,0,1,6.163,48.833Zm34.959-4.219h0a1.141,1.141,0,0,1-.136-.011.916.916,0,0,1-.772-1.032,39.516,39.516,0,0,0,.478-9.407c.249-.138.464-.264.659-.385l.611.62a4.763,4.763,0,0,0,.659,1.8,48.537,48.537,0,0,1-.6,7.629A.909.909,0,0,1,41.122,44.614ZM3.6,42.876a.912.912,0,0,1-.9-1.093A.9.9,0,0,1,3.1,41.2c3.973-2.671,5.22-6.9,6.337-11.754a.907.907,0,0,1,.888-.708.881.881,0,0,1,.2.023.915.915,0,0,1,.686,1.094c-1.16,5.042-2.577,9.819-7.1,12.863A.9.9,0,0,1,3.6,42.876Zm25.771-2.25h-.069a.914.914,0,0,1-.618-.31.9.9,0,0,1-.222-.664c.022-.349.032-.731.032-1.2a22.771,22.771,0,0,0-.18-2.74,17.228,17.228,0,0,0,1.876.373c.075.734.119,1.524.129,2.346,0,.436-.01.888-.041,1.345A.917.917,0,0,1,29.376,40.625ZM3.073,35.3a.913.913,0,0,1-.665-1.536c2.147-2.3,2.534-4.636,3.024-7.6v-.018a32.292,32.292,0,0,1,1.982-7.606A13.6,13.6,0,0,1,14.72,11.2a.913.913,0,0,1,1.206,1.178.9.9,0,0,1-.486.5A11.849,11.849,0,0,0,9.1,19.236l0,.006A30.8,30.8,0,0,0,7.23,26.46c-.5,3-.963,5.84-3.492,8.547A.894.894,0,0,1,3.073,35.3Zm15.068-.333h-.012l-.024,0a.906.906,0,0,1-.871-.944v-.009a13.922,13.922,0,0,1,1.2-5.489,17.4,17.4,0,0,0,1.261,1.718,13.859,13.859,0,0,0-.638,3.853A.911.911,0,0,1,18.141,34.965Zm14.252-4.612h0a11.015,11.015,0,0,1-2.538-.339c-.416-.822-.887-1.652-1.529-2.691A7.671,7.671,0,0,0,26.7,25.215a1.078,1.078,0,1,1,1.474-1.574,9.668,9.668,0,0,1,1.979,2.535l.01.017a33.146,33.146,0,0,1,2.232,4.158Zm2.637-.285h0a20.192,20.192,0,0,0-4.519-8.29,16.04,16.04,0,0,0-8.429-5.192,10.678,10.678,0,0,1,.8-2.055,18.084,18.084,0,0,1,9.242,5.816l.005.008a22.4,22.4,0,0,1,4.943,9.024,10.668,10.668,0,0,1-2.039.69ZM.912,28.653a.907.907,0,0,1-.241-.033.919.919,0,0,1-.554-.431.9.9,0,0,1-.082-.7c.211-.769.417-1.727.617-2.654l.015-.071c.81-3.764,1.92-8.916,5.182-12.254A.918.918,0,0,1,7.142,12.5a.925.925,0,0,1,.274.644.9.9,0,0,1-.261.645c-2.9,2.969-3.9,7.623-4.7,11.362l-.006.021c-.2.922-.422,1.967-.655,2.812A.914.914,0,0,1,.912,28.653ZM39.8,27.613h0l-.268-.874a30.164,30.164,0,0,0-1.26-3.434,1.083,1.083,0,0,1,.994-1.517,1.052,1.052,0,0,1,.385.073,1.083,1.083,0,0,1,.6.569,31.762,31.762,0,0,1,1.234,3.3,10.929,10.929,0,0,1-1.264,1.494c-.133.129-.269.255-.416.386ZM11.35,26.192a.892.892,0,0,1-.23-.029.917.917,0,0,1-.653-1.116A29.409,29.409,0,0,1,11.9,20.741a9.678,9.678,0,0,1,4.249-4.7,17.122,17.122,0,0,0-.323,2.4,7.984,7.984,0,0,0-2.256,3.037,27.878,27.878,0,0,0-1.343,4.038A.907.907,0,0,1,11.35,26.192Zm12.294-3.409a1.082,1.082,0,0,1-.408-.082,8.35,8.35,0,0,0-1.162-.379,11.028,11.028,0,0,1-.356-2.256,9.937,9.937,0,0,1,2.34.643,1.078,1.078,0,0,1-.414,2.074Zm19.622-1.358v0A23.208,23.208,0,0,0,34.071,9.613a1.077,1.077,0,0,1-.487-.959,10.779,10.779,0,0,1,5.077,1.81,23.68,23.68,0,0,1,3.855,4.6,10.922,10.922,0,0,1,.749,6.357ZM37,19.925a1.059,1.059,0,0,1-.854-.423A19.975,19.975,0,0,0,26.8,12.264c-.569-.228-1.144-.439-1.757-.645a11,11,0,0,1,2.062-1.549l.041.016.017.006c.164.063.307.119.442.175l.008,0a22.04,22.04,0,0,1,10.2,7.852l.1.151A1.081,1.081,0,0,1,37,19.925Zm-19.047-8.7v0a.981.981,0,0,1-.053-.186.912.912,0,0,1,.747-1.049l.045-.008.013,0,.03-.006c-.27.393-.533.813-.781,1.251Zm-8.537-.063A.913.913,0,0,1,8.831,9.55,20.118,20.118,0,0,1,21.775,4.824c.3,0,.594.006.871.019.489.033.976.082,1.448.145a16.909,16.909,0,0,0-2.331,1.653,18.325,18.325,0,0,0-11.756,4.305A.9.9,0,0,1,9.419,11.161ZM8.033,6.488h0a.912.912,0,0,1-.54-1.645A23.378,23.378,0,0,1,21.1,0h.017a.919.919,0,0,1,.912.9.913.913,0,0,1-.9.927A21.719,21.719,0,0,0,8.571,6.312.9.9,0,0,1,8.033,6.488Zm21.617-3.53h0A23.71,23.71,0,0,0,24.8,1.894.91.91,0,0,1,24.9.079c.027,0,.056,0,.1,0a25.656,25.656,0,0,1,8.869,2.671c-.4-.032-.838-.05-1.293-.05a17.022,17.022,0,0,0-2.922.254Z" transform="translate(0.349 0.35)" fill="#7f1f3f"/>
  </g>
</svg>
