<svg xmlns="http://www.w3.org/2000/svg" width="47.936" height="56.203" viewBox="0 0 47.936 56.203">
  <path id="priorityIcon1" d="M-21858.729-3729.982h0l-.391-.121-.021-.006a49.974,49.974,0,0,1-13.814-6.2c-6.291-4.254-9.52-9.391-9.594-15.269-.111-8.43-.08-11.552-.039-15.872l.006-.478.016-1.285.008-1.1c.016-1.6.033-3.782.053-6.571v-.714l23.777-8.59,22.16,8.013-1.576,1.576-20.244-7.316-.164-.055h-.357l-20.926,7.557-.654.236-.006.7c-.02,3.185-.041,5.645-.064,7.519-.051,4.724-.072,7.813.037,16.356a13.843,13.843,0,0,0,2.9,8.206,24.436,24.436,0,0,0,6.393,5.756,49.325,49.325,0,0,0,12.215,5.47l.139.044h.3l.137-.044a49.233,49.233,0,0,0,12.215-5.465,24.427,24.427,0,0,0,6.393-5.75,13.882,13.882,0,0,0,2.9-8.217c.092-6.359.092-9.549.076-12.05l2.006-2.01c.035,3.72.035,7.065-.055,14.082-.078,5.894-3.309,11.036-9.6,15.285a49.6,49.6,0,0,1-13.83,6.2l-.389.115Zm.225-17.619h0l-12.666-11.094,1.33-1.516,10.445,9.139.8.7,21.568-21.667,2.307-2.312c0,.725.012,1.384.018,2.022l.006.462,0,.356-3.686,3.7-20.129,20.206Z" transform="translate(21882.625 3786.185)" fill="#7f1f3f"/>
</svg>
