<svg xmlns="http://www.w3.org/2000/svg" width="84.328" height="53.595" viewBox="0 0 84.328 53.595">
  <g id="priorityIcon5" transform="translate(-1448.335 -1111.204)">
    <g id="Group_56179" data-name="Group 56179" transform="translate(1448.088 1110.954)">
      <path id="Union_14" data-name="Union 14" d="M-9292-4397.372a.983.983,0,0,1,.486-1.1l8.643-4.656.164-.089-.035-.183,0-.007a2.821,2.821,0,0,1,1.329-2.84l4.8-2.915.131-.08-.012-.157a6.008,6.008,0,0,1,2.854-5.673l19.079-11.593a.983.983,0,0,1,.508-.143.973.973,0,0,1,.835.47l.8,1.319,5.711-2.793.238-.117-.129-.229a2.771,2.771,0,0,1,.882-3.657,2.744,2.744,0,0,1,1.517-.456,2.756,2.756,0,0,1,2.3,1.24l3.558,5.376a2.748,2.748,0,0,1,.4,2.073,2.736,2.736,0,0,1-1.184,1.75,2.722,2.722,0,0,1-1.517.454,2.755,2.755,0,0,1-2.241-1.146l-.156-.215-5.168,4.244-.169.136.352.583a.981.981,0,0,1-.328,1.343l-19.079,11.593a5.957,5.957,0,0,1-3.1.87h-.014a5.96,5.96,0,0,1-2.571-.58l-.124-.059-5.25,3.193a2.819,2.819,0,0,1-1.46.41,2.854,2.854,0,0,1-.676-.08,2.925,2.925,0,0,1-.9-.4l-.124-.084-8.944,4.814a1,1,0,0,1-.456.12A.983.983,0,0,1-9292-4397.372Zm16.052-9.916-4.452,2.709a.866.866,0,0,0-.288,1.191.86.86,0,0,0,.737.418.863.863,0,0,0,.454-.128l4.241-2.578.218-.129Zm4.628-6.906-1.311.8a4.031,4.031,0,0,0-1.348,5.533,4.008,4.008,0,0,0,3.446,1.939,4.011,4.011,0,0,0,2.087-.587l18.033-10.958.216-.128-4.058-6.675-.128-.213-2.2,1.338,1.981,3.357a.98.98,0,0,1,.007.98.974.974,0,0,1-.85.494.978.978,0,0,1-.842-.478l-1.842-3.119-.128-.22-1.631.987,1.443,2.569a.992.992,0,0,1-.007.976.989.989,0,0,1-.847.482.97.97,0,0,1-.852-.5l-1.409-2.5-1.6.971,1.621,2.892a.983.983,0,0,1-.007.973.982.982,0,0,1-.845.484.976.976,0,0,1-.852-.5l-1.591-2.831-1.668,1.013,1.569,2.8a.984.984,0,0,1-.009.971.987.987,0,0,1-.843.484h-.054a.982.982,0,0,1-.8-.5l-1.537-2.735-1.472.9,1.733,3.083a.978.978,0,0,1-.009.971.987.987,0,0,1-.845.482.991.991,0,0,1-.856-.5l-1.567-2.8-.129-.225v0Zm20.232-9.295-.248.122,1.871,3.018.15.243,5.03-4.134.173-.145-1.257-1.9v0Zm6.106-6.181a.8.8,0,0,0,.119.6l.6.913.012.012c0,.009.012.016.017.026l0,0a.215.215,0,0,0,.021.028l2.215,3.353c.01.016.017.03.026.044l.007.014,0,.007.643.976a.806.806,0,0,0,.67.36.809.809,0,0,0,.441-.133.808.808,0,0,0,.345-.508.808.808,0,0,0-.117-.6l-3.557-5.376a.8.8,0,0,0-.612-.358l-.015,0h-.044A.8.8,0,0,0-9244.979-4429.67Zm-65.663,29.1h-.128a6.728,6.728,0,0,1-2.422-.447c-1.184-.491-1.361-1.193-1.361-1.57v-1.35c0-.374.178-1.074,1.359-1.572a7.507,7.507,0,0,1,2.552-.447,7.521,7.521,0,0,1,2.553.447,3.062,3.062,0,0,1,.8.472,1.432,1.432,0,0,1,.563,1.107.853.853,0,0,1-.007.119v1.224c0,.375-.175,1.074-1.356,1.57a6.723,6.723,0,0,1-2.424.447Zm-1.735-3.788a2.822,2.822,0,0,0-.52.206l-.077.046-.131.292.208.108a2.768,2.768,0,0,0,.517.213l0,0a6.513,6.513,0,0,0,1.736.234,6.465,6.465,0,0,0,1.619-.2.543.543,0,0,0,.25.061.514.514,0,0,0,.191-.037.522.522,0,0,0,.33-.457l.012-.161-.145-.075a4.453,4.453,0,0,0-.515-.227l-.02,0a6.5,6.5,0,0,0-1.727-.234A6.482,6.482,0,0,0-9312.378-4404.354Zm-5.915-1.448h-.112a6.755,6.755,0,0,1-2.439-.449c-1.185-.491-1.362-1.193-1.362-1.57v-1.35c0-.372.178-1.071,1.359-1.574a7.6,7.6,0,0,1,2.553-.447,7.566,7.566,0,0,1,2.55.447c1.18.494,1.355,1.2,1.355,1.574v1.35c0,.375-.176,1.076-1.355,1.57a6.779,6.779,0,0,1-2.436.452C-9318.218-4405.8-9318.255-4405.8-9318.293-4405.8Zm-1.745-3.79a3.011,3.011,0,0,0-.515.206l-.136.072v.3l.131.07a3.08,3.08,0,0,0,.518.213,6.448,6.448,0,0,0,1.74.238,6.327,6.327,0,0,0,1.621-.206.531.531,0,0,0,.248.063.508.508,0,0,0,.2-.04.523.523,0,0,0,.329-.468l0-.157-.14-.075a4.4,4.4,0,0,0-.5-.218l-.334-.122v.038a6.546,6.546,0,0,0-1.42-.157A6.525,6.525,0,0,0-9320.038-4409.592Zm12.325,2.845a4.474,4.474,0,0,1-4.457-4.461v-23.62a4.447,4.447,0,0,1,3.086-4.244l.176-.056v-1.567l-.164-.061a2.083,2.083,0,0,1-1.348-1.944v-3.477a4.055,4.055,0,0,1,4.048-4.05h15.727a4.055,4.055,0,0,1,4.045,4.05v3.477a2.076,2.076,0,0,1-1.958,2.073l-.236.014v1.352l.208.033a4.455,4.455,0,0,1,3.725,4.4v23.62a4.477,4.477,0,0,1-4.459,4.461Zm-2.5-28.082v23.623a2.513,2.513,0,0,0,2.5,2.5h18.392a2.511,2.511,0,0,0,2.5-2.5v-23.62a2.509,2.509,0,0,0-2.5-2.5h-18.392A2.513,2.513,0,0,0-9310.217-4434.829Zm3.262-4.466h16.2v-1.167h-16.194Zm-1.5-6.883-.007,3.343v.25h19.917v-3.593a2.1,2.1,0,0,0-2.092-2.089h-15.727A2.092,2.092,0,0,0-9308.457-4446.178Zm2.8,33.984a1.752,1.752,0,0,1-1.75-1.752v-17a1.752,1.752,0,0,1,1.75-1.752h15a1.752,1.752,0,0,1,1.748,1.752v17a1.752,1.752,0,0,1-1.748,1.752Z" transform="translate(9322.454 4450.478)" fill="#7f1f3f"/>
      <g id="Group_56166" data-name="Group 56166" transform="translate(66.446 22.187)">
        <path id="Path_122740" data-name="Path 122740" d="M2506.364,1459.353a1.228,1.228,0,0,1-1.045-.581l-6.977-11.253a1.228,1.228,0,0,1,2.088-1.289l6.977,11.253a1.229,1.229,0,0,1-1.043,1.876Z" transform="translate(-2498.188 -1445.696)" fill="#7f1f3f"/>
      </g>
    </g>
  </g>
</svg>
