<svg id="qyam" xmlns="http://www.w3.org/2000/svg" width="55" height="55" viewBox="0 0 55 55">
  <rect id="base" width="55" height="55" fill="none"/>
  <g id="Group_56877" data-name="Group 56877" transform="translate(7.432 2.23)">
    <path id="Path_124616" data-name="Path 124616" d="M46.51,4.226,27.222,1.011a.8.8,0,0,0-.264,0L7.672,4.226A.8.8,0,0,0,7,5.018V29.127c0,6.188,3.456,11.9,9.983,16.527a41.72,41.72,0,0,0,9.854,5.129.792.792,0,0,0,.508,0A41.719,41.719,0,0,0,37.2,45.654c6.527-4.626,9.983-10.339,9.983-16.527V5.018A.8.8,0,0,0,46.51,4.226Z" transform="translate(-7 -1)" fill="none" stroke="#7f1f3f" stroke-width="2"/>
    <path id="Path_124617" data-name="Path 124617" d="M-18652.215-5852.755l8.512,8.175,13.82-16.181" transform="translate(18661.908 5874.618)" fill="none" stroke="#7f1f3f" stroke-linecap="round" stroke-width="2"/>
  </g>
</svg>
