<svg id="SerDetails" xmlns="http://www.w3.org/2000/svg" width="36.578" height="43.612" viewBox="0 0 36.578 43.612">
  <path id="Path_124621" data-name="Path 124621" d="M24.289,1A18.31,18.31,0,0,0,6,19.289,18.1,18.1,0,0,0,9.564,30.122l1.131-.836a16.684,16.684,0,0,1-3.26-9.294h6.8a31,31,0,0,0,1.18,8.028l1.349-.4a29.582,29.582,0,0,1-1.122-7.63h7.949v6.331h1.407V19.992h7.949a29.581,29.581,0,0,1-1.125,7.63l1.349.4a31,31,0,0,0,1.183-8.028h6.8a16.684,16.684,0,0,1-3.26,9.3l1.128.833a18.1,18.1,0,0,0,3.564-10.833A18.31,18.31,0,0,0,24.289,1ZM14.218,18.586H7.424a16.784,16.784,0,0,1,2.926-8.809,29.867,29.867,0,0,0,4.9,1.309,31.271,31.271,0,0,0-1.028,7.5ZM11.231,8.6a16.931,16.931,0,0,1,8.307-5.509A16.143,16.143,0,0,0,15.65,9.731,29.657,29.657,0,0,1,11.231,8.6Zm12.354,9.984H15.625a29.842,29.842,0,0,1,1.021-7.266,50.647,50.647,0,0,0,6.94.541Zm0-8.132a49.534,49.534,0,0,1-6.52-.492c1.433-4.192,3.8-7.067,6.52-7.494Zm1.407-7.986c2.719.427,5.089,3.306,6.521,7.495a50.281,50.281,0,0,1-6.521.492Zm0,16.118V11.861a51.455,51.455,0,0,0,6.941-.539,29.863,29.863,0,0,1,1.02,7.264ZM32.928,9.73A16.145,16.145,0,0,0,29.04,3.092a16.924,16.924,0,0,1,8.305,5.5A29.04,29.04,0,0,1,32.928,9.73Zm1.432,8.855a31.247,31.247,0,0,0-1.028-7.5,29.4,29.4,0,0,0,4.9-1.308,16.778,16.778,0,0,1,2.927,8.81Z" transform="translate(-6 -1)" fill="#c6aa76"/>
  <path id="Path_124622" data-name="Path 124622" d="M36.951,54.467h4.924a.7.7,0,0,0,.7-.7V49.825a2.392,2.392,0,0,0-1.873-2.331,2.462,2.462,0,1,0-3.289,0,2.37,2.37,0,0,0-.957.464,2.808,2.808,0,0,0-1.935-1.189,2.814,2.814,0,1,0-3.587,0,2.786,2.786,0,0,0-1.163.43A3.513,3.513,0,0,0,26.4,44.619h-.145a3.165,3.165,0,1,0-3.931,0h-.145A3.513,3.513,0,0,0,18.8,47.2a2.785,2.785,0,0,0-1.163-.43,2.814,2.814,0,1,0-3.587,0,2.808,2.808,0,0,0-1.935,1.189,2.37,2.37,0,0,0-.957-.464,2.462,2.462,0,1,0-3.289,0A2.392,2.392,0,0,0,6,49.825v3.939a.7.7,0,0,0,.7.7h4.924a.7.7,0,0,0,.7.7h6.331a.7.7,0,0,0,.7.7h9.848a.7.7,0,0,0,.7-.7h6.331A.7.7,0,0,0,36.951,54.467Zm2.11-9.848a1.055,1.055,0,1,1-1.055,1.055,1.055,1.055,0,0,1,1.055-1.055Zm-2.11,5.205a.985.985,0,0,1,.985-.985h2.251a.985.985,0,0,1,.985.985V53.06H36.951ZM9.517,44.619a1.055,1.055,0,1,1-1.055,1.055,1.055,1.055,0,0,1,1.055-1.055Zm2.11,8.441H7.407V49.825a.985.985,0,0,1,.985-.985h2.251a.985.985,0,0,1,.985.985Zm4.221-9.848a1.407,1.407,0,1,1-1.407,1.407A1.407,1.407,0,0,1,15.848,43.212Zm2.814,10.551H13.034V49.543a1.407,1.407,0,0,1,1.407-1.407h2.814a1.407,1.407,0,0,1,1.407,1.407ZM24.289,40.4a1.759,1.759,0,1,1-1.759,1.759A1.759,1.759,0,0,1,24.289,40.4ZM28.51,54.467H20.068V48.136a2.11,2.11,0,0,1,2.11-2.11H26.4a2.11,2.11,0,0,1,2.11,2.11ZM32.73,43.212a1.407,1.407,0,1,1-1.407,1.407A1.407,1.407,0,0,1,32.73,43.212Zm2.814,10.551H29.916V49.543a1.407,1.407,0,0,1,1.407-1.407h2.814a1.407,1.407,0,0,1,1.407,1.407Z" transform="translate(-6 -12.262)" fill="#005f61"/>
</svg>
