<svg id="ServDetailsIcon1" xmlns="http://www.w3.org/2000/svg" width="36" height="36" viewBox="0 0 36 36">
  <rect id="base" width="36" height="36" rx="6" fill="#005f61" opacity="0"/>
  <g id="icon" transform="translate(2.88 2.767)">
    <g id="Path_124314" data-name="Path 124314" transform="translate(0.744 0)" fill="none">
      <path d="M10.706,13.85a2.428,2.428,0,0,0-.441,0,5.938,5.938,0,1,1,.441,0Z" stroke="none"/>
      <path d="M 10.23976039886475 12.34776973724365 C 10.40414905548096 12.33757781982422 10.574462890625 12.33750915527344 10.73331642150879 12.34762287139893 C 13.07854747772217 12.22809314727783 14.91230487823486 10.30187511444092 14.92354106903076 7.928019523620605 C 14.92160129547119 5.485997676849365 12.93426990509033 3.499996423721313 10.49177360534668 3.499996423721313 C 8.048123359680176 3.499996423721313 6.060063362121582 5.488056659698486 6.060063362121582 7.931716442108154 C 6.060063362121582 10.3042573928833 7.88993501663208 12.22967720031738 10.23976039886475 12.34776973724365 M 10.70553302764893 13.85007667541504 C 10.57193279266357 13.83671569824219 10.41161441802979 13.83671569824219 10.26466274261475 13.85007667541504 C 7.085042953491211 13.74319648742676 4.560063362121582 11.13804626464844 4.560063362121582 7.931716442108154 C 4.560063362121582 4.658586502075195 7.205283164978027 1.999996423721313 10.49177360534668 1.999996423721313 C 13.76496315002441 1.999996423721313 16.42354393005371 4.658586502075195 16.42354393005371 7.931716442108154 C 16.41018295288086 11.13804626464844 13.88519287109375 13.74319648742676 10.70553302764893 13.85007667541504 Z" stroke="none" fill="#005f61"/>
    </g>
    <path id="Path_124315" data-name="Path 124315" d="M16.454,4a4.678,4.678,0,0,1,.174,9.352,1.509,1.509,0,0,0-.347,0" transform="translate(4.682 0.672)" fill="none" stroke="#005f61" stroke-width="1.5"/>
    <g id="Path_124316" data-name="Path 124316" transform="translate(0 3.759)" fill="none">
      <path d="M4.77,15.021c-3.233,2.164-3.233,5.691,0,7.842a13.047,13.047,0,0,0,13.373,0c3.233-2.164,3.233-5.691,0-7.842A13.109,13.109,0,0,0,4.77,15.021Z" stroke="none"/>
      <path d="M 11.46633625030518 14.68749618530273 C 9.257265090942383 14.68749618530273 7.120220184326172 15.26386642456055 5.602428436279297 16.2687931060791 C 4.4676513671875 17.02895927429199 3.843585968017578 17.98120880126953 3.844966888427734 18.95041465759277 C 3.846345901489258 19.91602516174316 4.469846725463867 20.86211585998535 5.60389518737793 21.61659622192383 C 7.114416122436523 22.62726593017578 9.247535705566406 23.20691680908203 11.4563159942627 23.20691680908203 C 13.66509628295898 23.20691680908203 15.79821586608887 22.62726593017578 17.30844497680664 21.61678504943848 C 18.44428634643555 20.85643577575684 19.06904602050781 19.90365600585938 19.06766510009766 18.93397521972656 C 19.06627655029297 17.96836471557617 18.44277572631836 17.02227592468262 17.30977630615234 16.26849555969238 C 15.80540657043457 15.26374626159668 13.67555618286133 14.68749618530273 11.46633625030518 14.68749618530273 M 11.46634006500244 13.18749618530273 C 13.89113807678223 13.18749618530273 16.31259536743164 13.7987060546875 18.14287567138672 15.02112579345703 C 21.37592697143555 17.17203521728516 21.37592697143555 20.69899559020996 18.14287567138672 22.8632755279541 C 14.46895599365234 25.32146453857422 8.443675994873047 25.32146453857422 4.769756317138672 22.8632755279541 C 1.536706924438477 20.71235466003418 1.536706924438477 17.18539619445801 4.769756317138672 15.02112579345703 C 6.613401412963867 13.7987060546875 9.04154109954834 13.18749618530273 11.46634006500244 13.18749618530273 Z" stroke="none" fill="#005f61"/>
    </g>
    <path id="Path_124317" data-name="Path 124317" d="M18.34,22.016a6.462,6.462,0,0,0,2.619-1.162,3.384,3.384,0,0,0,0-5.7A6.644,6.644,0,0,0,18.38,14" transform="translate(5.374 4.032)" fill="none" stroke="#005f61" stroke-width="1.5"/>
  </g>
</svg>
