<svg xmlns="http://www.w3.org/2000/svg" width="40.785" height="57.608" viewBox="0 0 40.785 57.608">
  <g id="STRIcon2" transform="translate(0.5 1.088)">
    <path id="Path_124485" data-name="Path 124485" d="M.5,90.1V78.277L15.691,70.03" transform="translate(0 -34.875)" fill="none" stroke="#7f1f3f" stroke-width="2"/>
    <path id="Path_124486" data-name="Path 124486" d="M62.691,90.1V78.277L47.5,70.03" transform="translate(-23.405 -34.875)" fill="none" stroke="#7f1f3f" stroke-width="2"/>
    <path id="Path_124487" data-name="Path 124487" d="M39.279,78.243,28.32,87.466,16.71,78.243" transform="translate(-8.072 -38.964)" fill="none" stroke="#7f1f3f" stroke-width="2"/>
    <path id="Path_124488" data-name="Path 124488" d="M39.321,83.214,23.334,96.668,6.4,83.214" transform="translate(-2.937 -41.44)" fill="none" stroke="#7f1f3f" stroke-width="2"/>
    <path id="Path_124489" data-name="Path 124489" d="M39.6,21.12V37.266a9.287,9.287,0,0,1-18.575,0V21.12" transform="translate(-10.223 -10.518)" fill="none" stroke="#7f1f3f" stroke-width="2"/>
    <line id="Line_227" data-name="Line 227" x1="18.427" transform="translate(10.836 19.168)" fill="none" stroke="#7f1f3f" stroke-width="2"/>
    <line id="Line_228" data-name="Line 228" y2="8.861" transform="translate(35.747 7.738)" fill="none" stroke="#7f1f3f" stroke-width="2"/>
    <path id="Path_124492" data-name="Path 124492" d="M18.074,15.408,1.238,7.689,18.074.544,34.91,7.689Z" transform="translate(1.975 -0.545)" fill="none" stroke="#7f1f3f" stroke-width="2"/>
    <path id="Path_124491" data-name="Path 124491" d="M67.8,32.783h0c1.551,0,2.808,4.863,2.808,6.526H65C65,37.646,66.252,32.783,67.8,32.783Z" transform="translate(-32.117 -16.326)" fill="none" stroke="#7f1f3f" stroke-width="2"/>
  </g>
</svg>
