<svg xmlns="http://www.w3.org/2000/svg" width="46.623" height="57.333" viewBox="0 0 46.623 57.333">
  <g id="STRIcon1" transform="translate(1 1)">
    <path id="Path_124616" data-name="Path 124616" d="M50.877,4.582,29.458,1.013a.892.892,0,0,0-.293,0L7.746,4.582A.892.892,0,0,0,7,5.462V32.236c0,6.872,3.838,13.217,11.086,18.354a46.331,46.331,0,0,0,10.943,5.7.88.88,0,0,0,.564,0,46.331,46.331,0,0,0,10.943-5.7c7.249-5.137,11.086-11.482,11.086-18.354V5.462A.892.892,0,0,0,50.877,4.582Z" transform="translate(-7 -1)" fill="none" stroke="#7f1f3f" stroke-width="2"/>
    <path id="Path_124617" data-name="Path 124617" d="M-18652.217-5851.871l9.453,9.079,15.348-17.97" transform="translate(18662.98 5876.151)" fill="none" stroke="#7f1f3f" stroke-linecap="round" stroke-width="2"/>
  </g>
</svg>
