<svg id="trainingImg3" xmlns="http://www.w3.org/2000/svg" width="77.353" height="49.45" viewBox="0 0 77.353 49.45">
  <g id="Group_55944" data-name="Group 55944" transform="translate(0 0)">
    <g id="Group_55943" data-name="Group 55943" transform="translate(0 0)">
      <path id="Subtraction_1" data-name="Subtraction 1" d="M33.639,49.45h0a4.187,4.187,0,0,1-4.185-3.963,4.351,4.351,0,0,1-.471.026,4.193,4.193,0,0,1-4.177-3.964,4.349,4.349,0,0,1-.467.025,4.194,4.194,0,0,1-4.178-3.965,4.273,4.273,0,0,1-.46.025,4.194,4.194,0,0,1-3.548-6.43l-.852-.6-4.963-3.129a2.347,2.347,0,0,1-2.376.387L0,25.168l.714-2.334c1.744.547,4.563,1.493,8.094,2.886a.048.048,0,0,0,.018,0,.049.049,0,0,0,.045-.03l4.294-10.884.726-1.841,2.856-7.239a.048.048,0,0,0,0-.037.047.047,0,0,0-.026-.025L7.108,1.92,7.695,0l9.87,3.523A2.353,2.353,0,0,1,18.977,6.3l2.03.85a5.41,5.41,0,0,0,2.067.413c.111,0,.224,0,.334-.011.3-.019.523-.027.771-.027.588,0,1.37.045,3.258.153l.036,0,1.95.111A16.476,16.476,0,0,1,34,8.712c.446-.43.879-.858,1.288-1.273a5.815,5.815,0,0,1,5.035-1.648L49.9,7.318a1.173,1.173,0,0,1,.133.013l3.4.539a6.545,6.545,0,0,0,3.283-.323l3.359-1.24a2.35,2.35,0,0,1,1.411-2.783L70.241.089l.844,2.142L62.329,5.667a.048.048,0,0,0-.027.026.044.044,0,0,0,0,.036l5.056,12.816.67,1.7,2.15,5.449a.047.047,0,0,0,.045.03.048.048,0,0,0,.018,0l6.267-2.472.845,2.142-6.267,2.473a2.35,2.35,0,0,1-2.661-.673L63.94,30.071a4.519,4.519,0,0,1-.313,4.374,4.578,4.578,0,0,1-3.841,2.118,4.639,4.639,0,0,1-1.2-.159A4.593,4.593,0,0,1,54,40.723a4.84,4.84,0,0,1-.892-.084,4.551,4.551,0,0,1-4.587,4.519,4.746,4.746,0,0,1-1.626-.29,4.541,4.541,0,0,1-1.559,2.989,4.66,4.66,0,0,1-5.822.185L37.838,46.8l-1,1.169A4.188,4.188,0,0,1,33.639,49.45Zm2.85-9.431a1.891,1.891,0,0,0-1.444.668L32.2,44.033a1.893,1.893,0,0,0,2.89,2.446L36.6,44.7l.061-.072,1.276-1.5a.118.118,0,0,1,.014-.018,1.893,1.893,0,0,0-1.46-3.1Zm.01-2.3a4.2,4.2,0,0,1,3.192,6.912l-.356.417,1.549,1.143a2.421,2.421,0,0,0,1.446.479,2.258,2.258,0,0,0,1.651-.695,2.3,2.3,0,0,0,.284-2.812l-2.447-1.895a1.152,1.152,0,1,1,1.41-1.822l1.2.929.026.02c1.356,1.051,1.356,1.051,2.073,1.578l.553.408a2.413,2.413,0,0,0,1.443.475,2.277,2.277,0,0,0,1.811-3.685L46.8,36.451a1.152,1.152,0,0,1,.7-2.065,1.14,1.14,0,0,1,.7.239l1.925,1.483c1.732,1.334,1.732,1.334,2.151,1.642l.012.009.254.187A2.453,2.453,0,0,0,54,38.422a2.261,2.261,0,0,0,1.612-.651,2.308,2.308,0,0,0,.207-3.02l-3.981-3.067a1.152,1.152,0,1,1,1.406-1.825l2.016,1.554.048.037c2.05,1.58,2.05,1.58,2.651,2.022l.441.325a2.292,2.292,0,0,0,3.183-.437,2.234,2.234,0,0,0,.448-1.693,2.446,2.446,0,0,0-.965-1.628l-4.813-3.553-.105-.078c-3.842-2.836-3.842-2.836-4.1-3.017l-.137-.1a15.851,15.851,0,0,1-2.2.155,15.96,15.96,0,0,1-11.569-5.077.291.291,0,0,0-.213-.09.33.33,0,0,0-.219.086c-3.235,2.906-6.217,4.379-8.863,4.379A6.535,6.535,0,0,1,24.281,20.9a2.951,2.951,0,0,1-.91-2.433,2.988,2.988,0,0,1,1.368-2.246,57.478,57.478,0,0,0,7.32-5.7,14.194,14.194,0,0,0-2.767-.432L27.2,9.971c-1.772-.1-2.5-.144-3.01-.144-.237,0-.424.009-.633.022-.16.01-.322.015-.483.015a7.726,7.726,0,0,1-2.955-.592L18.149,8.45,14.9,16.686l-3.457,8.763,5.112,3.225.048.031,1.016.714,1.736-2.037a4.2,4.2,0,0,1,7.39,2.485,4.3,4.3,0,0,1,.456-.024A4.2,4.2,0,0,1,30.38,31.3l.01.013a4.153,4.153,0,0,1,.991,2.381c0,.025,0,.049,0,.073l0,.037.056-.005.056-.005c.116-.009.234-.014.349-.014a4.142,4.142,0,0,1,2.709,1,4.218,4.218,0,0,1,1.474,2.969A4.347,4.347,0,0,1,36.5,37.715Zm-4.653-1.633a1.892,1.892,0,0,0-1.446.667L27.55,40.094a1.894,1.894,0,0,0,2.89,2.447L33.288,39.2a1.891,1.891,0,0,0-1.442-3.116ZM27.2,32.145a1.894,1.894,0,0,0-1.449.666l-2.848,3.344A1.893,1.893,0,0,0,25.8,38.6l2.847-3.343a1.888,1.888,0,0,0-.064-2.519l-.015-.017A1.872,1.872,0,0,0,27.2,32.145ZM22.56,28.206a1.894,1.894,0,0,0-1.45.667l-2.849,3.344a1.893,1.893,0,0,0,2.889,2.446L24,31.322a1.891,1.891,0,0,0-1.437-3.116Zm29.66-7.275a1.128,1.128,0,0,1,.682.223l5.113,3.774,4.415,3.258.085.062,4.943-3.174c-.4-1.022-6.221-15.769-6.556-16.618l-3.39,1.251a8.811,8.811,0,0,1-3.062.546,8.841,8.841,0,0,1-1.379-.108L49.8,9.625a1.177,1.177,0,0,1-.126-.013L39.961,8.067a3.5,3.5,0,0,0-3.036.992,67.494,67.494,0,0,1-10.905,9.083.735.735,0,0,0-.355.547.662.662,0,0,0,.2.545,4.221,4.221,0,0,0,2.991,1.211c2.021,0,4.548-1.31,7.308-3.789a2.632,2.632,0,0,1,1.759-.679,2.577,2.577,0,0,1,1.876.8,13.434,13.434,0,0,0,9.849,4.371,14.034,14.034,0,0,0,2.344-.2A1.346,1.346,0,0,1,52.22,20.931Z" fill="#7f1f3f"/>
    </g>
  </g>
</svg>
