<svg xmlns="http://www.w3.org/2000/svg" width="49.609" height="53.918" viewBox="0 0 49.609 53.918">
  <g id="trainingImg2" transform="translate(-0.99 -1)">
    <path id="Path_122677" data-name="Path 122677" d="M14.529,2H37.061a31.739,31.739,0,0,1,4.164.214c6.591.738,8.375,3.831,8.375,12.3V29.552c0,8.47-1.784,11.563-8.375,12.3a31.515,31.515,0,0,1-4.164.214H14.529a31.741,31.741,0,0,1-4.164-.214c-6.591-.738-8.375-3.831-8.375-12.3V14.515c0-8.47,1.784-11.563,8.375-12.3A31.739,31.739,0,0,1,14.529,2Z" transform="translate(0)" fill="none" stroke="#7f1f3f" stroke-linecap="round" stroke-linejoin="round" stroke-width="2"/>
    <path id="Path_122678" data-name="Path 122678" d="M13.58,8.32h8.756" transform="translate(15.986 4.935)" fill="none" stroke="#7f1f3f" stroke-linecap="round" stroke-linejoin="round" stroke-width="2"/>
    <path id="Path_122679" data-name="Path 122679" d="M6.74,14.11H31.794" transform="translate(6.552 16.703)" fill="none" stroke="#7f1f3f" stroke-linecap="round" stroke-linejoin="round" stroke-width="2"/>
    <path id="Path_122684" data-name="Path 122684" d="M6.74,14.11H23.83" transform="translate(14.516 7.924)" fill="none" stroke="#7f1f3f" stroke-linecap="round" stroke-linejoin="round" stroke-width="2"/>
    <path id="Path_122680" data-name="Path 122680" d="M0,0H16.174" transform="translate(34.601 42.067) rotate(45)" fill="none" stroke="#7f1f3f" stroke-linecap="round" stroke-linejoin="round" stroke-width="2"/>
    <path id="Path_122683" data-name="Path 122683" d="M0,0H16.174" transform="translate(16.988 42.067) rotate(135)" fill="none" stroke="#7f1f3f" stroke-linecap="round" stroke-linejoin="round" stroke-width="2"/>
    <path id="Path_122682" data-name="Path 122682" d="M10.494,8.3h2.778" transform="translate(11.73 4.907)" fill="none" stroke="#7f1f3f" stroke-linecap="round" stroke-linejoin="round" stroke-width="2"/>
  </g>
</svg>
