<svg xmlns="http://www.w3.org/2000/svg" width="38" height="38" viewBox="0 0 38 38">
  <g id="translate" transform="translate(6.373 5.703)">
    <circle id="Ellipse_11219" data-name="Ellipse 11219" cx="19" cy="19" r="19" transform="translate(-6.373 -5.703)" fill="#eee"/>
    <g id="Group_56788" data-name="Group 56788">
      <path id="Path_124592" data-name="Path 124592" d="M19.437,19.046,17.108,14.4l-2.329,4.647" transform="translate(1.127 1.094)" fill="none" stroke="#005f61" stroke-linecap="round" stroke-linejoin="round" stroke-width="1.5"/>
      <path id="Path_124593" data-name="Path 124593" d="M15.17,17.91H19" transform="translate(1.161 1.403)" fill="none" stroke="#005f61" stroke-linecap="round" stroke-linejoin="round" stroke-width="1.5"/>
      <path id="Path_124594" data-name="Path 124594" d="M17.368,22.9A5.528,5.528,0,1,1,22.9,17.368,5.529,5.529,0,0,1,17.368,22.9Z" transform="translate(0.867 0.868)" fill="none" stroke="#005f61" stroke-linecap="round" stroke-linejoin="round" stroke-width="1.5"/>
      <path id="Path_124595" data-name="Path 124595" d="M5.286,2H9.552c2.253,0,3.341,1.088,3.286,3.286V9.552c.054,2.253-1.034,3.341-3.286,3.286H5.286C3.088,12.882,2,11.794,2,9.541V5.275C2,3.088,3.088,2,5.286,2Z" fill="none" stroke="#005f61" stroke-linecap="round" stroke-linejoin="round" stroke-width="1.5"/>
      <path id="Path_124596" data-name="Path 124596" d="M9.367,5.85H4.949" transform="translate(0.26 0.34)" fill="none" stroke="#005f61" stroke-linecap="round" stroke-linejoin="round" stroke-width="1.5"/>
      <path id="Path_124597" data-name="Path 124597" d="M6.969,5.17v.74" transform="translate(0.438 0.28)" fill="none" stroke="#005f61" stroke-linecap="round" stroke-linejoin="round" stroke-width="1.5"/>
      <path id="Path_124598" data-name="Path 124598" d="M8.258,5.84a3.39,3.39,0,0,1-3.319,3.45" transform="translate(0.259 0.339)" fill="none" stroke="#005f61" stroke-linecap="round" stroke-linejoin="round" stroke-width="1.5"/>
      <path id="Path_124599" data-name="Path 124599" d="M9.173,9.1A2.529,2.529,0,0,1,7.16,8" transform="translate(0.455 0.529)" fill="none" stroke="#005f61" stroke-linecap="round" stroke-linejoin="round" stroke-width="1.5"/>
      <path id="Path_124600" data-name="Path 124600" d="M2,15a7.612,7.612,0,0,0,7.617,7.617l-1.143-1.9" transform="translate(0 1.146)" fill="none" stroke="#005f61" stroke-linecap="round" stroke-linejoin="round" stroke-width="1.5" opacity="0.4"/>
      <path id="Path_124601" data-name="Path 124601" d="M22.617,9.617A7.612,7.612,0,0,0,15,2l1.143,1.9" transform="translate(1.146)" fill="none" stroke="#005f61" stroke-linecap="round" stroke-linejoin="round" stroke-width="1.5" opacity="0.4"/>
    </g>
  </g>
</svg>
