<svg id="trBGPatter2Green" xmlns="http://www.w3.org/2000/svg" width="488.897" height="403.243" viewBox="0 0 488.897 403.243">
  <path id="Subtraction_2" data-name="Subtraction 2" d="M488.406,160H.5C.2,329.055,0,428.444,0,435.857a62.023,62.023,0,0,0,9.529,31.527,66.8,66.8,0,0,0,16.995,18.449A88.747,88.747,0,0,0,56.19,499.877c32.952,9.129,83.727,27.048,128.5,42.86,22.154,7.8,43.073,15.215,58.987,20.505l.1-.257.1.257c16-5.3,37.042-12.687,59.313-20.505,45.036-15.812,96.08-33.731,129.208-42.86a89.454,89.454,0,0,0,29.833-14.045,66.941,66.941,0,0,0,17.087-18.449,61.764,61.764,0,0,0,9.579-31.527c0-6.632-.173,16.622-.5-275.857Z" transform="translate(0 -160)" fill="#005f61" opacity="0.05"/>
  <path id="Subtraction_2-2" data-name="Subtraction 2" d="M446.249,160H.455C.179,308.908,0,396.453,0,402.982a53.234,53.234,0,0,0,8.706,27.77A59.727,59.727,0,0,0,24.234,447,82.457,82.457,0,0,0,51.34,459.374c30.108,8.041,76.5,23.825,117.409,37.752,20.242,6.873,39.355,13.4,53.9,18.062l.091-.227.091.227c14.623-4.67,33.845-11.175,54.193-18.062,41.149-13.928,87.787-29.711,118.056-37.752A83.128,83.128,0,0,0,422.334,447a59.869,59.869,0,0,0,15.613-16.251,53.016,53.016,0,0,0,8.752-27.77c0-5.842-.158,14.641-.458-242.982Z" transform="translate(21.1 -138.74)" fill="#005f61" stroke="#005f61" stroke-linejoin="round" stroke-width="2"/>
</svg>
