<svg id="web" xmlns="http://www.w3.org/2000/svg" width="30" height="30" viewBox="0 0 30 30">
  <rect id="Rectangle_13841" data-name="Rectangle 13841" width="30" height="30" rx="4" fill="#005f61" opacity="0"/>
  <g id="web-2" data-name="web" transform="translate(6 5.935)">
    <g id="Icon-Set">
      <path id="globe" d="M219.614,684.482a19.894,19.894,0,0,0-3.475-.8,21.789,21.789,0,0,0,.284-3.06h4.529a7.855,7.855,0,0,1-1.339,3.864ZM215,687.724a18.407,18.407,0,0,0,.922-2.931,18.837,18.837,0,0,1,2.917.665A7.933,7.933,0,0,1,215,687.724Zm-1.394.222c-.182.013-.364.028-.549.028s-.367-.015-.549-.028a16.9,16.9,0,0,1-1.16-3.3c.562-.049,1.132-.078,1.709-.078s1.147.029,1.71.078a16.935,16.935,0,0,1-1.16,3.3Zm-6.331-2.488a18.837,18.837,0,0,1,2.917-.665,18.408,18.408,0,0,0,.922,2.931,7.936,7.936,0,0,1-3.839-2.266Zm-.779-.976a7.855,7.855,0,0,1-1.339-3.864h4.529a21.789,21.789,0,0,0,.284,3.06,19.9,19.9,0,0,0-3.475.8Zm0-8.859a19.845,19.845,0,0,0,3.475.8,21.788,21.788,0,0,0-.284,3.06h-4.529a7.855,7.855,0,0,1,1.339-3.864Zm4.618-3.242a18.41,18.41,0,0,0-.922,2.931,18.753,18.753,0,0,1-2.917-.665,7.936,7.936,0,0,1,3.839-2.266Zm1.394-.222c.183-.012.364-.028.549-.028s.367.015.549.028a16.947,16.947,0,0,1,1.16,3.3c-.563.049-1.133.078-1.71.078s-1.147-.029-1.709-.078a16.909,16.909,0,0,1,1.16-3.3Zm2.787,8.459a19.84,19.84,0,0,1-.291,2.917c-.637-.055-1.285-.088-1.946-.088s-1.309.033-1.945.088a19.7,19.7,0,0,1-.291-2.917Zm-4.474-1.132a19.7,19.7,0,0,1,.291-2.917c.637.055,1.284.088,1.945.088s1.309-.033,1.945-.088a19.763,19.763,0,0,1,.292,2.917Zm8.018-4.84a18.753,18.753,0,0,1-2.917.665,18.408,18.408,0,0,0-.922-2.931,7.933,7.933,0,0,1,3.839,2.266Zm.779.976a7.856,7.856,0,0,1,1.339,3.864h-4.529a21.788,21.788,0,0,0-.284-3.06,19.845,19.845,0,0,0,3.475-.8ZM213.053,671a9.053,9.053,0,1,0,9.053,9.053A9.053,9.053,0,0,0,213.053,671Z" transform="translate(-204 -671)" fill="#005f61" fill-rule="evenodd"/>
    </g>
  </g>
</svg>
