<svg xmlns="http://www.w3.org/2000/svg" width="58.928" height="58.928" viewBox="0 0 58.928 58.928">
  <g id="_43.-Globe" data-name="43.-Globe" transform="translate(1 1)">
    <circle id="Layer-1" cx="28.464" cy="28.464" r="28.464" fill="none" stroke="#c6aa76" stroke-linecap="round" stroke-linejoin="round" stroke-width="2"/>
    <path id="Layer-2" d="M50,2V57.02" transform="translate(-21.588 -1.203)" fill="none" stroke="#c6aa76" stroke-linecap="round" stroke-linejoin="round" stroke-width="2" fill-rule="evenodd"/>
    <path id="Layer-3" d="M58.779,50H2" transform="translate(-1.977 -21.693)" fill="none" stroke="#c6aa76" stroke-linecap="round" stroke-linejoin="round" stroke-width="2" fill-rule="evenodd"/>
    <path id="Layer-4" d="M50,2S64.28,12.643,64.28,29.551,50,57.1,50,57.1" transform="translate(-21.586 -1.203)" fill="none" stroke="#c6aa76" stroke-linecap="round" stroke-linejoin="round" stroke-width="2" fill-rule="evenodd"/>
    <path id="Layer-5" d="M40.28,2S26,12.643,26,29.551,40.28,57.1,40.28,57.1" transform="translate(-11.782 -1.203)" fill="none" stroke="#c6aa76" stroke-linecap="round" stroke-linejoin="round" stroke-width="2" fill-rule="evenodd"/>
    <path id="Layer-6" d="M16.4,74.092a42.4,42.4,0,0,1,39.745.106" transform="translate(-7.86 -26.18)" fill="none" stroke="#c6aa76" stroke-linecap="round" stroke-linejoin="round" stroke-width="2" fill-rule="evenodd"/>
    <path id="Layer-7" d="M16.4,16.511a41.012,41.012,0,0,0,19.772,5.123A41.023,41.023,0,0,0,56.145,16.4" transform="translate(-7.86 -7.966)" fill="none" stroke="#c6aa76" stroke-linecap="round" stroke-linejoin="round" stroke-width="2" fill-rule="evenodd"/>
  </g>
</svg>
