<svg xmlns="http://www.w3.org/2000/svg" width="49.222" height="61.891" viewBox="0 0 49.222 61.891">
  <path id="graduates" d="M95,39.779,91.424,38.73l-7.775-5.078V32.488a10.348,10.348,0,0,0,4.084-7.268,2.376,2.376,0,0,0,1.994-2.342v-3.2c0-.012,0-.024,0-.037V15.589a1.758,1.758,0,0,0,.735-1.435V10.445l5.365-.914a1.9,1.9,0,0,0,.257-3.688L78,.09a1.893,1.893,0,0,0-1.153,0L58.754,5.843a1.909,1.909,0,0,0-.592,3.321v4.851h-.044a1.849,1.849,0,0,0-1.847,1.847v2.408l-1.192,7a1.986,1.986,0,0,0,1.957,2.319h4.037a1.986,1.986,0,0,0,1.957-2.319l-1.192-7V15.861a1.849,1.849,0,0,0-1.847-1.847h-.044V9.69l4.435.755v3.709a1.76,1.76,0,0,0,.732,1.432l0,4.093v3.2a2.376,2.376,0,0,0,1.994,2.342,10.349,10.349,0,0,0,4.08,7.265v1.169l-7.773,5.077L59.844,39.78a9.07,9.07,0,0,0-6.519,8.707l-.032,6.827a.892.892,0,0,0,1.784,0l.032-6.827a7.33,7.33,0,0,1,5.237-7l3.327-.977,13.292,7.9a.9.9,0,0,0,.911,0l13.292-7.9,3.327.977a7.331,7.331,0,0,1,5.237,7V57.1a2.006,2.006,0,0,1-2,2H93.8V55.26a.892.892,0,0,0-1.784,0V59.1H62.824V55.26a.892.892,0,0,0-1.784,0V59.1H57.113a2.006,2.006,0,0,1-2-2V55.314a.892.892,0,0,0-1.784,0V57.1a3.792,3.792,0,0,0,3.788,3.788H97.728a3.792,3.792,0,0,0,3.788-3.788V48.486A9.07,9.07,0,0,0,95,39.779ZM61.072,25.8H57.035a.2.2,0,0,1-.2-.235l1.079-6.331h2.277l1.079,6.331A.2.2,0,0,1,61.072,25.8Zm-1.019-9.941v1.591h-2V15.861a.063.063,0,0,1,.064-.064h1.872A.063.063,0,0,1,60.053,15.861ZM74.231,44.378l.355.546L65.48,39.513l5.78-3.775A18.735,18.735,0,0,0,74.231,44.378Zm-.006-3.85a22.935,22.935,0,0,0,6.392,0,17.035,17.035,0,0,1-1.5,2.877l-1.695,2.6-1.695-2.6a17.036,17.036,0,0,1-1.5-2.877Zm6.386,3.85a18.733,18.733,0,0,0,2.971-8.64l5.78,3.775-9.106,5.411Zm5.217-28.457h2.114v2.866H86.892a1.066,1.066,0,0,1-1.065-1.065v-1.8ZM59.295,7.543,77.383,1.789a.117.117,0,0,1,.072,0L95.543,7.543a.1.1,0,0,1,.082.121c-.007.093-.059.1-.1.108l-5.98,1.019L87.3,8.513a.892.892,0,0,0-.219,1.77l1.595.2v3.657H66.164V10.481l9.229-1.142a16.521,16.521,0,0,1,4.051,0l3.493.432A.892.892,0,0,0,83.156,8l-3.493-.432a18.3,18.3,0,0,0-4.489,0L65.293,8.791,59.311,7.772c-.039-.007-.092-.016-.1-.108a.1.1,0,0,1,.082-.121Zm7.6,11.244V15.921h2.117v1.8a1.066,1.066,0,0,1-1.065,1.065H66.9Zm1.963,5.975a1.382,1.382,0,0,0-1.374-1.3.589.589,0,0,1-.589-.588V20.571h1.051A2.852,2.852,0,0,0,70.8,17.722v-1.8H84.044v1.8a2.852,2.852,0,0,0,2.849,2.848h1.051v2.308a.589.589,0,0,1-.589.588,1.382,1.382,0,0,0-1.374,1.3,8.578,8.578,0,0,1-17.12,0Zm8.56,9.815a10.3,10.3,0,0,0,4.445-1.008v.565a17,17,0,0,1-.6,4.48,21.061,21.061,0,0,1-7.686,0,17,17,0,0,1-.6-4.48c0-.019,0-.037,0-.056s0-.007,0-.011v-.5a10.3,10.3,0,0,0,4.449,1.009Z" transform="translate(-52.794 0.502)" fill="#c6aa76" stroke="rgba(0,0,0,0)" stroke-miterlimit="10" stroke-width="1"/>
</svg>
