<svg xmlns="http://www.w3.org/2000/svg" width="100" height="100" viewBox="0 0 100 100">
  <g id="about-timeline-icon1" transform="translate(-1394.141 -1267.141)">
    <circle id="Ellipse_11716" data-name="Ellipse 11716" cx="50" cy="50" r="50" transform="translate(1394.141 1267.141)" fill="#005f61"/>
    <g id="im" transform="translate(130.023 -2292.184)">
      <path id="interface-lighting-light-bulb-on--lighting-light-shine-incandescent-bulb-lights" d="M50.418,34.064A15.09,15.09,0,0,0,48,25.848a17.115,17.115,0,0,0-6.665-5.964,19.308,19.308,0,0,0-18.033.341,16.921,16.921,0,0,0-6.387,6.211,15,15,0,0,0-2.045,8.3,15.207,15.207,0,0,0,2.862,8.1,17.343,17.343,0,0,0,6.978,5.659v7.955a1.733,1.733,0,0,0,.6,1.246,2.086,2.086,0,0,0,1.384.512H38.578a2.086,2.086,0,0,0,1.384-.512,1.733,1.733,0,0,0,.6-1.246V48.355A17.3,17.3,0,0,0,47.7,42.471a15.15,15.15,0,0,0,2.721-8.407ZM32.633.81V7.748m20.326-.324-5.386,4.949m16.973,9.389H56.923M12.306,7.424l5.387,4.949M.72,21.762H8.342" transform="translate(1281.484 3572.52)" fill="none" stroke="#fff" stroke-width="3"/>
      <g id="Rectangle" transform="translate(1304.456 3634.855)" fill="none" stroke="#fff" stroke-width="3">
        <path d="M0,0H19.322a0,0,0,0,1,0,0V4.466a6,6,0,0,1-6,6H6a6,6,0,0,1-6-6V0A0,0,0,0,1,0,0Z" stroke="none"/>
        <path d="M1.5,1.5H17.822a0,0,0,0,1,0,0V4.466a4.5,4.5,0,0,1-4.5,4.5H6a4.5,4.5,0,0,1-4.5-4.5V1.5A0,0,0,0,1,1.5,1.5Z" fill="none"/>
      </g>
    </g>
  </g>
</svg>
