<svg xmlns="http://www.w3.org/2000/svg" width="110" height="110" viewBox="0 0 110 110">
  <g id="about-timeline-icon1-h" transform="translate(-1393.939 -1266.939)">
    <circle id="Ellipse_11716" data-name="Ellipse 11716" cx="55" cy="55" r="55" transform="translate(1393.939 1266.939)" fill="#c6aa76"/>
    <g id="icon" transform="translate(1403.336 1276.337)">
      <g id="spacer" transform="translate(-0.397 -0.398)" fill="rgba(255,255,255,0)" stroke="rgba(0,0,0,0)" stroke-width="1">
        <rect width="92" height="92" stroke="none"/>
        <rect x="0.5" y="0.5" width="91" height="91" fill="none"/>
      </g>
      <g id="im" transform="translate(-1271.858 -3567.495)">
        <path id="interface-lighting-light-bulb-on--lighting-light-shine-incandescent-bulb-lights" d="M55.627,37.549a16.671,16.671,0,0,0-2.676-9.077,18.909,18.909,0,0,0-7.364-6.589,21.331,21.331,0,0,0-19.923.377,18.7,18.7,0,0,0-7.057,6.862,16.573,16.573,0,0,0-2.26,9.171,16.8,16.8,0,0,0,3.162,8.947,19.161,19.161,0,0,0,7.71,6.252V62.28a1.914,1.914,0,0,0,.661,1.377,2.3,2.3,0,0,0,1.529.565H42.546a2.3,2.3,0,0,0,1.529-.565,1.915,1.915,0,0,0,.661-1.377V53.338a19.118,19.118,0,0,0,7.885-6.5,16.738,16.738,0,0,0,3.007-9.288ZM35.977.81V8.475m22.456-.357-5.951,5.467M71.234,23.957H62.813M13.52,8.117l5.951,5.467M.72,23.957H9.141" transform="translate(1281.484 3572.52)" fill="none" stroke="#fff" stroke-width="3"/>
        <g id="Rectangle" transform="translate(1306.788 3641.302)" fill="none" stroke="#fff" stroke-width="3">
          <path d="M0,0H21.347a0,0,0,0,1,0,0V5.563a6,6,0,0,1-6,6H6a6,6,0,0,1-6-6V0A0,0,0,0,1,0,0Z" stroke="none"/>
          <path d="M1.5,1.5H19.847a0,0,0,0,1,0,0V5.563a4.5,4.5,0,0,1-4.5,4.5H6a4.5,4.5,0,0,1-4.5-4.5V1.5A0,0,0,0,1,1.5,1.5Z" fill="none"/>
        </g>
      </g>
    </g>
  </g>
</svg>
