<svg xmlns="http://www.w3.org/2000/svg" width="100" height="100" viewBox="0 0 100 100">
  <g id="about-timeline-icon6" transform="translate(-1394.141 -1267.141)">
    <circle id="Ellipse_11716" data-name="Ellipse 11716" cx="50" cy="50" r="50" transform="translate(1394.141 1267.141)" fill="#005f61"/>
    <g id="icon" transform="translate(1402.022 1275.022)">
      <g id="spacer" transform="translate(0.118 0.118)" fill="rgba(255,255,255,0)" stroke="rgba(0,0,0,0)" stroke-width="1">
        <rect width="84" height="84" stroke="none"/>
        <rect x="0.5" y="0.5" width="83" height="83" fill="none"/>
      </g>
      <g id="img" transform="translate(7415.118 16706.281)">
        <g id="shabe" transform="translate(-7406.78 -16695.854)">
          <path id="Path_118" data-name="Path 118" d="M5.436,5.083-5.55-5.9,6.827-18.281v-.436H5.412L-6.477-6.829h0L-18.367-18.717h-1.417v.436L-7.4-5.9-18.392,5.083l.285.543-1.91,1.91.59.59,12.95-12.95L6.471,8.126l.59-.59-1.91-1.91Z" transform="translate(40.274 39.191)" fill="#fff"/>
          <path id="Path_119" data-name="Path 119" d="M5.683.252V-.927L-6.84,11.594H-8.4L-20.926-.927V.252l13.3,13.3Z" transform="translate(41.418 8.88)" fill="#fff"/>
          <path id="Path_120" data-name="Path 120" d="M3.488.647.461-2.381h0L-2.571.647l.683.14L-12.845,11.745v1.179L.459-.381l13.3,13.3V11.745L2.807.786Z" transform="translate(33.338 50.656)" fill="#fff"/>
          <path id="Path_121" data-name="Path 121" d="M5.683.252V-.927l-13.3,13.3-13.3-13.3V.252l13.3,13.3Z" transform="translate(41.418 4.903)" fill="#fff"/>
          <path id="Path_122" data-name="Path 122" d="M5.683.252V-.927L-2.862,7.618h-.824L-7.62,11.551h0l-3.934-3.933h-.824L-20.926-.927V.252l13.3,13.3Z" transform="translate(41.418 12.857)" fill="#fff"/>
          <path id="Path_123" data-name="Path 123" d="M4.113,1.271-1.84-4.682h0L-7.8,1.271l.562.266-7.913,7.912v1.18l13.3-13.306,13.3,13.306V9.449L3.552,1.537Z" transform="translate(35.637 48.975)" fill="#fff"/>
          <path id="Path_124" data-name="Path 124" d="M4.629,1.788-3.741-6.583h0l-8.371,8.371.465.361-5.4,5.4V8.727l13.3-13.3h0l13.3,13.3V7.548l-5.4-5.4Z" transform="translate(37.539 46.898)" fill="#fff"/>
          <path id="Path_125" data-name="Path 125" d="M2.133,4.458-5.851-3.526l12.89-12.89H5.859L2.474-13.031v-.824L-7.856-3.526l.415.416h0L5.879,10.21h1.18l-5.1-5.1Z" transform="translate(44.627 36.89)" fill="#fff"/>
          <path id="Path_126" data-name="Path 126" d="M5.682,0l-13.3,13.3L-20.924,0h0V1.179l13.3,13.3,13.3-13.3V0Z" transform="translate(41.417)" fill="#fff"/>
          <path id="Path_127" data-name="Path 127" d="M5.047,2.219-5.28-8.173h0L-15.611,2.219l.35.413-3.325,3.324v1.18l13.3-13.3,13.3,13.3V5.957L4.7,2.633Z" transform="translate(39.078 44.512)" fill="#fff"/>
          <path id="Path_128" data-name="Path 128" d="M2.841,0l-13.3,13.3L2.861,26.625H4.04L-9.282,13.3,4.021,0Z" transform="translate(63.552 20.474)" fill="#fff"/>
          <path id="Path_129" data-name="Path 129" d="M.507,2.841V2.8L.136,2.428l12.891-12.89H11.846L.507.878V.053L-1.868,2.428l.415.415h0l13.321,13.32h1.18L.507,3.626Z" transform="translate(46.594 30.937)" fill="#fff"/>
          <path id="Path_130" data-name="Path 130" d="M1.357,3.681-2.991-.666,9.9-13.556H8.719L1.357-6.194v-.824L-5-.665l.415.413h0L8.739,13.07h1.18L1.355,4.508Z" transform="translate(45.744 34.029)" fill="#fff"/>
          <path id="Path_131" data-name="Path 131" d="M3.093,0H1.913l-13.3,13.3L1.933,26.626H3.112L-10.21,13.3Z" transform="translate(60.504 20.474)" fill="#fff"/>
          <path id="Path_132" data-name="Path 132" d="M2.842,3.093,12.636-6.7l3.509-3.509V-11.39L11.577-6.823h-.824l-7.91,7.91h0l-7.912-7.91H-5.9l-4.569-4.567v1.179L-6.953-6.7Z" transform="translate(30.955 27.297)" fill="#fff"/>
          <path id="Path_133" data-name="Path 133" d="M3.1,2.841l.415-.415L-6.818-7.9v.824L-10.2-10.463h-1.179L1.507,2.427l-7.985,7.984.17.657-5.1,5.094h1.18L3.1,2.843Z" transform="translate(27.31 30.937)" fill="#fff"/>
          <path id="Path_134" data-name="Path 134" d="M0,2.841v1.18l13.3-13.3,13.3,13.3V2.841l-13.3-13.3Z" transform="translate(20.492 63.536)" fill="#fff"/>
          <path id="Path_135" data-name="Path 135" d="M.256,0H-.924l13.3,13.3L-.944,26.626H.236L13.559,13.3Z" transform="translate(0.944 20.474)" fill="#fff"/>
          <path id="Path_136" data-name="Path 136" d="M3.1,2.841l.415-.415L1.136.052V.877L-10.2-10.463h-1.179L1.507,2.427,1.136,2.8v.827L-11.4,16.162h1.18L3.1,2.843Z" transform="translate(19.357 30.937)" fill="#fff"/>
          <path id="Path_137" data-name="Path 137" d="M3.1,2.841l.415-.415L-2.842-3.925V-3.1L-10.2-10.463h-1.179L1.507,2.427-2.842,6.774l0,.825L-11.4,16.162h1.18L3.1,2.843Z" transform="translate(23.333 30.937)" fill="#fff"/>
          <path id="Path_138" data-name="Path 138" d="M.256,0H-.924l13.3,13.3L-.943,26.626H.237L13.559,13.3Z" transform="translate(4.92 20.474)" fill="#fff"/>
        </g>
        <g id="im" transform="translate(-7418 -16709.164)" fill="none" stroke="#fff" stroke-width="2">
          <rect width="90" height="90" rx="45" stroke="none"/>
          <rect x="1" y="1" width="88" height="88" rx="44" fill="none"/>
        </g>
      </g>
    </g>
  </g>
</svg>
