<svg xmlns="http://www.w3.org/2000/svg" width="110" height="110" viewBox="0 0 110 110">
  <g id="about-timeline-icon6-h" transform="translate(-1393.939 -1266.939)">
    <circle id="Ellipse_11716" data-name="Ellipse 11716" cx="55" cy="55" r="55" transform="translate(1393.939 1266.939)" fill="#c6aa76"/>
    <g id="icon" transform="translate(1403.336 1276.337)">
      <g id="spacer" transform="translate(-0.397 -0.398)" fill="rgba(255,255,255,0)" stroke="rgba(0,0,0,0)" stroke-width="1">
        <rect width="92" height="92" stroke="none"/>
        <rect x="0.5" y="0.5" width="91" height="91" fill="none"/>
      </g>
      <g id="img" transform="translate(7413.603 16704.766)">
        <g id="shabe" transform="translate(-7405.533 -16694.375)">
          <path id="Path_118" data-name="Path 118" d="M8.264,7.727-3.943-4.48,9.809-18.232v-.485H8.237L-4.973-5.508h0L-18.183-18.717h-1.574v.485L-6-4.48-18.211,7.727l.316.6-2.122,2.122.656.656L-4.973-3.28,9.414,11.108l.656-.656L7.947,8.33Z" transform="translate(42.525 41.466)" fill="#fff"/>
          <path id="Path_119" data-name="Path 119" d="M8.639.383V-.927L-5.275,12.985H-7.012L-20.926-.927V.383L-6.143,15.165Z" transform="translate(43.695 9.764)" fill="#fff"/>
          <path id="Path_120" data-name="Path 120" d="M5.3.983,1.939-2.381h0L-1.429.983l.759.155L-12.845,13.314v1.31L1.938-.159,16.72,14.624v-1.31L4.546,1.138Z" transform="translate(35.614 56.02)" fill="#fff"/>
          <path id="Path_121" data-name="Path 121" d="M8.639.383V-.927L-6.143,13.854-20.926-.927V.383L-6.143,15.165Z" transform="translate(43.695 5.345)" fill="#fff"/>
          <path id="Path_122" data-name="Path 122" d="M8.639.383V-.927L-.855,8.567h-.916l-4.371,4.37h0l-4.371-4.37h-.916L-20.926-.927V.383L-6.143,15.165Z" transform="translate(43.695 14.183)" fill="#fff"/>
          <path id="Path_123" data-name="Path 123" d="M6.253,1.933-.362-4.682h0L-6.978,1.933l.624.3-8.792,8.791V12.33L-.363-2.454,14.419,12.33V11.019L5.63,2.228Z" transform="translate(37.914 53.896)" fill="#fff"/>
          <path id="Path_124" data-name="Path 124" d="M7.038,2.718l-9.3-9.3h0l-9.3,9.3.517.4-6,6v1.31L-2.264-4.354h0L12.518,10.428V9.118l-6-6Z" transform="translate(39.816 51.378)" fill="#fff"/>
          <path id="Path_125" data-name="Path 125" d="M3.243,6.777-5.628-2.094,8.694-16.416H7.383L3.622-12.655v-.916L-7.856-2.094l.461.462h0l14.8,14.8H8.717L3.054,7.508Z" transform="translate(48.713 39.165)" fill="#fff"/>
          <path id="Path_126" data-name="Path 126" d="M8.639,0-6.142,14.781-20.924,0h0V1.31L-6.142,16.092,8.64,1.31V0Z" transform="translate(43.694)" fill="#fff"/>
          <path id="Path_127" data-name="Path 127" d="M7.673,3.374-3.8-8.173h0L-15.28,3.374l.389.459-3.695,3.693V8.838L-3.8-5.945,10.979,8.838V7.526L7.285,3.833Z" transform="translate(41.355 48.55)" fill="#fff"/>
          <path id="Path_128" data-name="Path 128" d="M4.319,0-10.462,14.781l14.8,14.8h1.31l-14.8-14.8L5.63,0Z" transform="translate(69.451 22.749)" fill="#fff"/>
          <path id="Path_129" data-name="Path 129" d="M.771,4.319V4.273L.359,3.86,14.682-10.462H13.369L.771,2.138V1.221L-1.868,3.86l.461.461h0l14.8,14.8H14.7L.771,5.191Z" transform="translate(51.563 33.212)" fill="#fff"/>
          <path id="Path_130" data-name="Path 130" d="M2.063,5.6-2.768.766,11.553-13.556h-1.31l-8.18,8.18v-.916L-5,.767l.461.459h0l14.8,14.8h1.311L2.061,6.515Z" transform="translate(50.272 36.304)" fill="#fff"/>
          <path id="Path_131" data-name="Path 131" d="M4.7,0H3.391l-14.78,14.781,14.8,14.8h1.31l-14.8-14.8Z" transform="translate(65.961 22.749)" fill="#fff"/>
          <path id="Path_132" data-name="Path 132" d="M4.32,4.7,15.2-6.181l3.9-3.9v-1.31L14.026-6.315h-.916L4.321,2.474h0L-4.472-6.315h-.916l-5.076-5.075v1.31l3.9,3.9Z" transform="translate(33.232 29.065)" fill="#fff"/>
          <path id="Path_133" data-name="Path 133" d="M4.708,4.32l.461-.461L-6.308-7.618V-6.7l-3.762-3.761h-1.31L2.942,3.859-5.931,12.73l.189.73L-11.4,19.12h1.311l14.8-14.8Z" transform="translate(29.078 33.212)" fill="#fff"/>
          <path id="Path_134" data-name="Path 134" d="M0,4.319V5.63L14.783-9.152,29.565,5.63V4.319L14.783-10.462Z" transform="translate(22.769 69.433)" fill="#fff"/>
          <path id="Path_135" data-name="Path 135" d="M.39,0H-.921L13.86,14.781l-14.8,14.8H.367l14.8-14.8Z" transform="translate(0.944 22.749)" fill="#fff"/>
          <path id="Path_136" data-name="Path 136" d="M4.708,4.32l.461-.461L2.529,1.22v.917l-12.6-12.6h-1.31L2.942,3.859l-.413.413V5.19L-11.4,19.12h1.311l14.8-14.8Z" transform="translate(20.241 33.212)" fill="#fff"/>
          <path id="Path_137" data-name="Path 137" d="M4.708,4.32l.461-.461L-1.89-3.2v.916l-8.18-8.18h-1.31L2.942,3.859-1.89,8.689l0,.917L-11.4,19.12h1.311l14.8-14.8Z" transform="translate(24.659 33.212)" fill="#fff"/>
          <path id="Path_138" data-name="Path 138" d="M.389,0H-.922L13.859,14.781l-14.8,14.8H.368l14.8-14.8Z" transform="translate(5.362 22.749)" fill="#fff"/>
        </g>
        <g id="im" transform="translate(-7418 -16709.164)" fill="none" stroke="#fff" stroke-width="2">
          <rect width="100" height="100" rx="50" stroke="none"/>
          <rect x="1" y="1" width="98" height="98" rx="49" fill="none"/>
        </g>
      </g>
    </g>
  </g>
</svg>
