<svg xmlns="http://www.w3.org/2000/svg" width="110" height="110.001" viewBox="0 0 110 110.001">
  <g id="about-timeline-icon2-h" transform="translate(-1393.939 -1266.939)">
    <circle id="Ellipse_11716" data-name="Ellipse 11716" cx="55" cy="55" r="55" transform="translate(1393.939 1266.939)" fill="#c6aa76"/>
    <g id="icon" transform="translate(1393.821 1266.822)">
      <g id="spacer" transform="translate(0.118 0.118)" fill="rgba(255,255,255,0)" stroke="rgba(0,0,0,0)" stroke-width="1">
        <rect width="110" height="110" stroke="none"/>
        <rect x="0.5" y="0.5" width="109" height="109" fill="none"/>
      </g>
      <g id="Group_57070" data-name="Group 57070" transform="translate(14.506 19.141)">
        <path id="KSA_outline" data-name="KSA outline" d="M-5810.674-16318.1a50.393,50.393,0,0,0-6.594,1.646,63.368,63.368,0,0,0-6.732,2.741l4.672,5.769a21.7,21.7,0,0,0-3.977,2.745,5.631,5.631,0,0,0-1.646,2.744l-3.429-1.374-3.018,6.045a38.321,38.321,0,0,1,7.419,7.969,21.965,21.965,0,0,1,3.017,8.652,14.092,14.092,0,0,1,5.906,5.359c1.993,3.605-.137,5.323,2.057,9.065s4.67,2.953,6.733,5.907a8.441,8.441,0,0,1,1.508,5.906,9.27,9.27,0,0,1,4.252,2.878,20.4,20.4,0,0,1,2.881,5.9l2.743-5.342a9.468,9.468,0,0,1,6.458-1.648c3.5.547,7.555,3.838,7.555,3.838s1.306-4.877,4.535-6.731,4.533.55,8.379-.684,16.072-6.6,16.072-6.6a8.825,8.825,0,0,1-.547-4.524c.307-2.788,3.428-4.117,1.782-6.6s-5.186.858-8.38-.822-2.164-3.292-4.4-5.911-3.153-1.747-4.534-4.534a13.931,13.931,0,0,1-.96-6.591,6.332,6.332,0,0,1-3.979-2.605c-1.408-2.2-.585-4.753-1.885-5.729s-3.747.37-7.73-1.827-6.6-.822-6.6-.822a30.882,30.882,0,0,0-8.52-8.1A102.5,102.5,0,0,0-5810.674-16318.1Z" transform="translate(5831.399 16318.1)" fill="none" stroke="#fff" stroke-linejoin="round" stroke-width="3"/>
        <g id="Group_57070-2" data-name="Group 57070" transform="translate(26.698 21.39)">
          <path id="Union_18" data-name="Union 18" d="M13.2,31.58a2.676,2.676,0,0,1,.609-1.722A15.7,15.7,0,0,0,12.63,28.3l-.035-.039c-.287-.362-.609-.732-.979-1.127-.37.4-.691.77-.979,1.127l-.03.034a16.573,16.573,0,0,0-1.179,1.562,2.683,2.683,0,0,1,.609,1.722.866.866,0,0,1-.883.813c-.056,0-.108-.008-.165-.012a1.552,1.552,0,0,1-1.066-.827c-.065-.1-.135-.2-.222-.314a4.3,4.3,0,0,1-2.667,1.133,2.064,2.064,0,0,1-1.958-1.254,1.438,1.438,0,0,1,.292-1.856,1.226,1.226,0,0,1,.687-.2,2.982,2.982,0,0,1,.935.209,2.952,2.952,0,0,0,.609.174,6.622,6.622,0,0,0,.692.047h.07a2.583,2.583,0,0,1-.431-.938.9.9,0,0,1,.183-.712.684.684,0,0,1,.539-.232.24.24,0,0,1,.057,0,2.062,2.062,0,0,1,1.218.683c.736-.914,1.488-1.787,2.241-2.6a26.714,26.714,0,0,0-2.533-2.032,31.039,31.039,0,0,0-6.943-3.7,2.33,2.33,0,0,1-.409-.2L0,19.589l.244-.225a2.178,2.178,0,0,1,.975-.443,4.411,4.411,0,0,1,.879-.087,6.419,6.419,0,0,1,1.575.212,11.177,11.177,0,0,1,2.711,1.066c.474.266.931.545,1.353.827a25.764,25.764,0,0,1,3.88,3.246A25.794,25.794,0,0,1,15.5,20.939c.418-.277.875-.561,1.353-.827a11.186,11.186,0,0,1,2.711-1.066,6.422,6.422,0,0,1,1.575-.212,4.407,4.407,0,0,1,.879.087,2.141,2.141,0,0,1,.975.443l.244.225-.283.184a2.322,2.322,0,0,1-.408.2,31.055,31.055,0,0,0-6.943,3.7A27.367,27.367,0,0,0,13.065,25.7c.753.815,1.505,1.687,2.241,2.6a2.063,2.063,0,0,1,1.218-.683.277.277,0,0,1,.061,0,.693.693,0,0,1,.535.235.9.9,0,0,1,.183.709,2.6,2.6,0,0,1-.431.938h.07c.313,0,.691-.047.7-.047a3.1,3.1,0,0,0,.609-.174,2.99,2.99,0,0,1,.931-.209,1.226,1.226,0,0,1,.687.2,1.438,1.438,0,0,1,.292,1.856A2.063,2.063,0,0,1,18.2,32.373a4.308,4.308,0,0,1-2.667-1.133,3.011,3.011,0,0,0-.218.314,1.56,1.56,0,0,1-1.07.827c-.057,0-.109.012-.165.012A.867.867,0,0,1,13.2,31.58ZM10.511,21.565v-11.1A11.757,11.757,0,0,0,7.94,12.91l-.348.456L7.479,12.8A10.05,10.05,0,0,1,7.7,8.631a10.13,10.13,0,0,0-2.658,1.706l-.448.421.013-.618A5.467,5.467,0,0,1,6.091,6.652a2.047,2.047,0,0,0-.583-.087,2.663,2.663,0,0,0-1.518.519l-.627.508.218-.779A3.627,3.627,0,0,1,5.96,4.343a5.887,5.887,0,0,1,1.258-.315,2.3,2.3,0,0,0-1.249-.352,2.771,2.771,0,0,0-1.079.218l-.649.3.3-.652A3.583,3.583,0,0,1,8.032,1.639,6.831,6.831,0,0,1,9,1.711,3.975,3.975,0,0,0,7.466.513L6.2.083,7.536.008C7.67,0,7.8,0,7.936,0a4.594,4.594,0,0,1,3.68,1.487A4.607,4.607,0,0,1,15.3,0c.131,0,.265,0,.4.008l1.362.08-1.3.426a3.967,3.967,0,0,0-1.531,1.2,6.885,6.885,0,0,1,.97-.072A3.585,3.585,0,0,1,18.69,3.547l.305.655-.653-.308a2.737,2.737,0,0,0-1.074-.218,2.28,2.28,0,0,0-1.248.352,5.9,5.9,0,0,1,1.252.315,3.641,3.641,0,0,1,2.384,2.47l.213.779-.627-.508a2.691,2.691,0,0,0-1.514-.519,2.054,2.054,0,0,0-.587.087,5.44,5.44,0,0,1,1.488,3.489l.013.618-.448-.421a10.118,10.118,0,0,0-2.658-1.706,9.964,9.964,0,0,1,.217,4.173l-.112.561-.348-.456a11.727,11.727,0,0,0-2.571-2.446v11.1Z" fill="#fff"/>
        </g>
      </g>
    </g>
  </g>
</svg>
