<svg xmlns="http://www.w3.org/2000/svg" width="17.398" height="17.398" viewBox="0 0 17.398 17.398">
  <path id="map-pin-location" d="M11.569,10.612v6.176H9.829V10.612a4.35,4.35,0,1,1,1.74,0Zm-3.48,1.964v1.763c-2.551.318-4.35,1.046-4.35,1.579,0,.7,3.114,1.74,6.959,1.74s6.959-1.038,6.959-1.74c0-.534-1.8-1.261-4.35-1.579V12.576c3.528.387,6.089,1.575,6.089,3.343,0,2.181-3.9,3.48-8.7,3.48S2,18.1,2,15.919C2,14.151,4.561,12.962,8.089,12.576ZM10.7,8.959a2.61,2.61,0,1,0-2.61-2.61A2.61,2.61,0,0,0,10.7,8.959Z" transform="translate(-2 -2)" fill="#5E81A4 " fill-rule="evenodd"/>
</svg>
