<svg xmlns="http://www.w3.org/2000/svg" xmlns:xlink="http://www.w3.org/1999/xlink" width="287.046" height="431" viewBox="0 0 287.046 431">
  <defs>
    <clipPath id="clip-path">
      <path id="Path_124116" data-name="Path 124116" d="M40.735,37.224C28.1,41.271,19.423,53.886,19.423,68.218v326.8H262.972V68.218c0-14.332-8.675-26.947-21.312-30.994L141.2,5.067Z" transform="translate(-19.423 -5.067)" fill="#c7af81"/>
    </clipPath>
    <clipPath id="clip-path-2">
      <rect id="Rectangle_14261" data-name="Rectangle 14261" width="287.046" height="409.999" transform="translate(37)" fill="#c7af81"/>
    </clipPath>
  </defs>
  <g id="photo-art-bg" transform="translate(-171 -1110.001)">
    <path id="Path_124326" data-name="Path 124326" d="M211.894,431h-2.329V51.149a24.521,24.521,0,0,0-17.5-23.391L105.949,2.429,19.83,27.758a24.521,24.521,0,0,0-17.5,23.391V431H0V51.149A26.861,26.861,0,0,1,19.173,25.525L105.949,0l.324.1,86.448,25.425a26.861,26.861,0,0,1,19.173,25.624Z" transform="translate(171 1110.001)" fill="#c7af81"/>
    <g id="Artwork01" transform="translate(171 1131.001)">
      <g id="Group_56482" data-name="Group 56482" transform="translate(33.616 20.045)">
        <g id="Group_56481" data-name="Group 56481" clip-path="url(#clip-path)">
          <rect id="Rectangle_14061" data-name="Rectangle 14061" width="129.982" height="1.748" transform="translate(-9.882 145.789)" fill="#c7af81"/>
          <rect id="Rectangle_14062" data-name="Rectangle 14062" width="1.607" height="246.619" transform="translate(118.493 145.789)" fill="#c7af81"/>
          <rect id="Rectangle_14063" data-name="Rectangle 14063" width="125.027" height="1.748" transform="translate(-9.882 151.18)" fill="#c7af81"/>
          <rect id="Rectangle_14064" data-name="Rectangle 14064" width="1.607" height="241.231" transform="translate(113.538 151.177)" fill="#c7af81"/>
          <rect id="Rectangle_14065" data-name="Rectangle 14065" width="120.075" height="1.748" transform="translate(-9.882 156.568)" fill="#c7af81"/>
          <rect id="Rectangle_14066" data-name="Rectangle 14066" width="1.607" height="235.839" transform="translate(108.586 156.568)" fill="#c7af81"/>
          <rect id="Rectangle_14067" data-name="Rectangle 14067" width="115.119" height="1.748" transform="translate(-9.882 161.96)" fill="#c7af81"/>
          <rect id="Rectangle_14068" data-name="Rectangle 14068" width="1.607" height="230.448" transform="translate(103.631 161.96)" fill="#c7af81"/>
          <rect id="Rectangle_14069" data-name="Rectangle 14069" width="110.168" height="1.745" transform="translate(-9.882 167.356)" fill="#c7af81"/>
          <rect id="Rectangle_14070" data-name="Rectangle 14070" width="1.607" height="225.06" transform="translate(98.679 167.352)" fill="#c7af81"/>
          <rect id="Rectangle_14071" data-name="Rectangle 14071" width="105.212" height="1.748" transform="translate(-9.882 172.74)" fill="#c7af81"/>
          <rect id="Rectangle_14072" data-name="Rectangle 14072" width="1.607" height="219.668" transform="translate(93.724 172.74)" fill="#c7af81"/>
          <rect id="Rectangle_14073" data-name="Rectangle 14073" width="100.257" height="1.748" transform="translate(-9.882 178.132)" fill="#c7af81"/>
          <rect id="Rectangle_14074" data-name="Rectangle 14074" width="1.607" height="214.276" transform="translate(88.768 178.132)" fill="#c7af81"/>
          <rect id="Rectangle_14075" data-name="Rectangle 14075" width="95.301" height="1.748" transform="translate(-9.882 183.523)" fill="#c7af81"/>
          <rect id="Rectangle_14076" data-name="Rectangle 14076" width="1.607" height="208.884" transform="translate(83.813 183.523)" fill="#c7af81"/>
          <rect id="Rectangle_14077" data-name="Rectangle 14077" width="90.35" height="1.748" transform="translate(-9.882 188.911)" fill="#c7af81"/>
          <rect id="Rectangle_14078" data-name="Rectangle 14078" width="1.607" height="203.497" transform="translate(78.857 188.911)" fill="#c7af81"/>
          <rect id="Rectangle_14079" data-name="Rectangle 14079" width="85.394" height="1.748" transform="translate(-9.882 194.303)" fill="#c7af81"/>
          <rect id="Rectangle_14080" data-name="Rectangle 14080" width="1.607" height="198.105" transform="translate(73.906 194.303)" fill="#c7af81"/>
          <rect id="Rectangle_14081" data-name="Rectangle 14081" width="80.439" height="1.748" transform="translate(-9.882 199.695)" fill="#c7af81"/>
          <rect id="Rectangle_14082" data-name="Rectangle 14082" width="1.607" height="192.717" transform="translate(68.95 199.695)" fill="#c7af81"/>
          <rect id="Rectangle_14083" data-name="Rectangle 14083" width="75.487" height="1.748" transform="translate(-9.882 205.083)" fill="#c7af81"/>
          <rect id="Rectangle_14084" data-name="Rectangle 14084" width="1.607" height="187.325" transform="translate(63.998 205.087)" fill="#c7af81"/>
          <rect id="Rectangle_14085" data-name="Rectangle 14085" width="70.532" height="1.748" transform="translate(-9.882 210.475)" fill="#c7af81"/>
          <rect id="Rectangle_14086" data-name="Rectangle 14086" width="1.607" height="181.933" transform="translate(59.043 210.475)" fill="#c7af81"/>
          <rect id="Rectangle_14087" data-name="Rectangle 14087" width="65.576" height="1.748" transform="translate(-9.882 215.866)" fill="#c7af81"/>
          <rect id="Rectangle_14088" data-name="Rectangle 14088" width="1.607" height="176.545" transform="translate(54.088 215.866)" fill="#c7af81"/>
          <rect id="Rectangle_14089" data-name="Rectangle 14089" width="60.625" height="1.748" transform="translate(-9.882 221.254)" fill="#c7af81"/>
          <rect id="Rectangle_14090" data-name="Rectangle 14090" width="1.607" height="171.154" transform="translate(49.132 221.258)" fill="#c7af81"/>
          <rect id="Rectangle_14091" data-name="Rectangle 14091" width="55.669" height="1.748" transform="translate(-9.882 226.646)" fill="#c7af81"/>
          <rect id="Rectangle_14092" data-name="Rectangle 14092" width="1.607" height="165.762" transform="translate(44.18 226.646)" fill="#c7af81"/>
          <rect id="Rectangle_14093" data-name="Rectangle 14093" width="50.714" height="1.748" transform="translate(-9.882 232.038)" fill="#c7af81"/>
          <rect id="Rectangle_14094" data-name="Rectangle 14094" width="1.607" height="160.37" transform="translate(39.225 232.038)" fill="#c7af81"/>
          <rect id="Rectangle_14095" data-name="Rectangle 14095" width="45.758" height="1.748" transform="translate(-9.882 237.43)" fill="#c7af81"/>
          <rect id="Rectangle_14096" data-name="Rectangle 14096" width="1.607" height="154.982" transform="translate(34.27 237.43)" fill="#c7af81"/>
          <rect id="Rectangle_14097" data-name="Rectangle 14097" width="40.807" height="1.748" transform="translate(-9.882 242.818)" fill="#c7af81"/>
          <rect id="Rectangle_14098" data-name="Rectangle 14098" width="1.607" height="149.59" transform="translate(29.318 242.818)" fill="#c7af81"/>
          <rect id="Rectangle_14099" data-name="Rectangle 14099" width="35.851" height="1.748" transform="translate(-9.882 248.209)" fill="#c7af81"/>
          <rect id="Rectangle_14100" data-name="Rectangle 14100" width="1.607" height="144.202" transform="translate(24.363 248.209)" fill="#c7af81"/>
          <rect id="Rectangle_14101" data-name="Rectangle 14101" width="30.899" height="1.748" transform="translate(-9.882 253.601)" fill="#c7af81"/>
          <rect id="Rectangle_14102" data-name="Rectangle 14102" width="1.607" height="138.811" transform="translate(19.407 253.601)" fill="#c7af81"/>
          <rect id="Rectangle_14103" data-name="Rectangle 14103" width="25.944" height="1.745" transform="translate(-9.882 258.993)" fill="#c7af81"/>
          <rect id="Rectangle_14104" data-name="Rectangle 14104" width="1.607" height="133.419" transform="translate(14.455 258.989)" fill="#c7af81"/>
          <rect id="Rectangle_14105" data-name="Rectangle 14105" width="20.989" height="1.748" transform="translate(-9.882 264.381)" fill="#c7af81"/>
          <rect id="Rectangle_14106" data-name="Rectangle 14106" width="1.607" height="128.027" transform="translate(9.5 264.381)" fill="#c7af81"/>
          <rect id="Rectangle_14107" data-name="Rectangle 14107" width="16.033" height="1.748" transform="translate(-9.882 269.773)" fill="#c7af81"/>
          <rect id="Rectangle_14108" data-name="Rectangle 14108" width="1.607" height="122.635" transform="translate(4.545 269.773)" fill="#c7af81"/>
          <rect id="Rectangle_14109" data-name="Rectangle 14109" width="11.078" height="1.748" transform="translate(-9.882 275.161)" fill="#c7af81"/>
          <rect id="Rectangle_14110" data-name="Rectangle 14110" width="1.607" height="117.247" transform="translate(-0.411 275.161)" fill="#c7af81"/>
          <rect id="Rectangle_14111" data-name="Rectangle 14111" width="1.607" height="144.598" transform="translate(118.493 -2.453)" fill="#c7af81"/>
          <rect id="Rectangle_14112" data-name="Rectangle 14112" width="129.982" height="1.748" transform="translate(-9.882 140.397)" fill="#c7af81"/>
          <rect id="Rectangle_14113" data-name="Rectangle 14113" width="1.607" height="139.21" transform="translate(113.542 -2.457)" fill="#c7af81"/>
          <rect id="Rectangle_14114" data-name="Rectangle 14114" width="125.027" height="1.748" transform="translate(-9.882 135.005)" fill="#c7af81"/>
          <rect id="Rectangle_14115" data-name="Rectangle 14115" width="1.607" height="133.818" transform="translate(108.586 -2.453)" fill="#c7af81"/>
          <rect id="Rectangle_14116" data-name="Rectangle 14116" width="120.075" height="1.748" transform="translate(-9.882 129.617)" fill="#c7af81"/>
          <rect id="Rectangle_14117" data-name="Rectangle 14117" width="1.607" height="128.426" transform="translate(103.631 -2.453)" fill="#c7af81"/>
          <rect id="Rectangle_14118" data-name="Rectangle 14118" width="115.119" height="1.748" transform="translate(-9.882 124.225)" fill="#c7af81"/>
          <rect id="Rectangle_14119" data-name="Rectangle 14119" width="1.607" height="123.035" transform="translate(98.679 -2.453)" fill="#c7af81"/>
          <rect id="Rectangle_14120" data-name="Rectangle 14120" width="110.168" height="1.748" transform="translate(-9.882 118.834)" fill="#c7af81"/>
          <rect id="Rectangle_14121" data-name="Rectangle 14121" width="1.607" height="117.647" transform="translate(93.724 -2.457)" fill="#c7af81"/>
          <rect id="Rectangle_14122" data-name="Rectangle 14122" width="105.212" height="1.748" transform="translate(-9.882 113.442)" fill="#c7af81"/>
          <rect id="Rectangle_14123" data-name="Rectangle 14123" width="1.607" height="112.255" transform="translate(88.768 -2.453)" fill="#c7af81"/>
          <rect id="Rectangle_14124" data-name="Rectangle 14124" width="100.257" height="1.748" transform="translate(-9.882 108.054)" fill="#c7af81"/>
          <rect id="Rectangle_14125" data-name="Rectangle 14125" width="1.607" height="106.863" transform="translate(83.813 -2.453)" fill="#c7af81"/>
          <rect id="Rectangle_14126" data-name="Rectangle 14126" width="95.301" height="1.745" transform="translate(-9.882 102.666)" fill="#c7af81"/>
          <rect id="Rectangle_14127" data-name="Rectangle 14127" width="1.607" height="101.475" transform="translate(78.861 -2.457)" fill="#c7af81"/>
          <rect id="Rectangle_14128" data-name="Rectangle 14128" width="90.346" height="1.748" transform="translate(-9.882 97.27)" fill="#c7af81"/>
          <rect id="Rectangle_14129" data-name="Rectangle 14129" width="1.607" height="96.08" transform="translate(73.906 -2.449)" fill="#c7af81"/>
          <rect id="Rectangle_14130" data-name="Rectangle 14130" width="85.394" height="1.748" transform="translate(-9.882 91.882)" fill="#c7af81"/>
          <rect id="Rectangle_14131" data-name="Rectangle 14131" width="1.607" height="90.692" transform="translate(68.95 -2.453)" fill="#c7af81"/>
          <rect id="Rectangle_14132" data-name="Rectangle 14132" width="80.439" height="1.748" transform="translate(-9.882 86.491)" fill="#c7af81"/>
          <rect id="Rectangle_14133" data-name="Rectangle 14133" width="1.607" height="85.3" transform="translate(63.995 -2.453)" fill="#c7af81"/>
          <rect id="Rectangle_14134" data-name="Rectangle 14134" width="75.487" height="1.748" transform="translate(-9.882 81.099)" fill="#c7af81"/>
          <rect id="Rectangle_14135" data-name="Rectangle 14135" width="1.607" height="79.908" transform="translate(59.043 -2.453)" fill="#c7af81"/>
          <rect id="Rectangle_14136" data-name="Rectangle 14136" width="70.532" height="1.748" transform="translate(-9.882 75.707)" fill="#c7af81"/>
          <rect id="Rectangle_14137" data-name="Rectangle 14137" width="1.607" height="74.52" transform="translate(54.088 -2.453)" fill="#c7af81"/>
          <rect id="Rectangle_14138" data-name="Rectangle 14138" width="65.576" height="1.748" transform="translate(-9.882 70.319)" fill="#c7af81"/>
          <rect id="Rectangle_14139" data-name="Rectangle 14139" width="1.607" height="69.128" transform="translate(49.136 -2.453)" fill="#c7af81"/>
          <rect id="Rectangle_14140" data-name="Rectangle 14140" width="60.621" height="1.748" transform="translate(-9.882 64.927)" fill="#c7af81"/>
          <rect id="Rectangle_14141" data-name="Rectangle 14141" width="1.607" height="63.737" transform="translate(44.181 -2.449)" fill="#c7af81"/>
          <rect id="Rectangle_14142" data-name="Rectangle 14142" width="55.669" height="1.748" transform="translate(-9.882 59.539)" fill="#c7af81"/>
          <rect id="Rectangle_14143" data-name="Rectangle 14143" width="1.607" height="58.349" transform="translate(39.225 -2.453)" fill="#c7af81"/>
          <rect id="Rectangle_14144" data-name="Rectangle 14144" width="50.714" height="1.748" transform="translate(-9.882 54.148)" fill="#c7af81"/>
          <rect id="Rectangle_14145" data-name="Rectangle 14145" width="1.607" height="52.957" transform="translate(34.27 -2.453)" fill="#c7af81"/>
          <rect id="Rectangle_14146" data-name="Rectangle 14146" width="45.758" height="1.748" transform="translate(-9.882 48.756)" fill="#c7af81"/>
          <rect id="Rectangle_14147" data-name="Rectangle 14147" width="1.607" height="47.569" transform="translate(29.318 -2.457)" fill="#c7af81"/>
          <rect id="Rectangle_14148" data-name="Rectangle 14148" width="40.803" height="1.748" transform="translate(-9.882 43.364)" fill="#c7af81"/>
          <rect id="Rectangle_14149" data-name="Rectangle 14149" width="1.607" height="42.177" transform="translate(24.363 -2.453)" fill="#c7af81"/>
          <rect id="Rectangle_14150" data-name="Rectangle 14150" width="35.851" height="1.745" transform="translate(-9.882 37.98)" fill="#c7af81"/>
          <rect id="Rectangle_14151" data-name="Rectangle 14151" width="1.607" height="36.785" transform="translate(19.407 -2.453)" fill="#c7af81"/>
          <rect id="Rectangle_14152" data-name="Rectangle 14152" width="30.896" height="1.748" transform="translate(-9.882 32.584)" fill="#c7af81"/>
          <rect id="Rectangle_14153" data-name="Rectangle 14153" width="1.607" height="31.394" transform="translate(14.455 -2.453)" fill="#c7af81"/>
          <rect id="Rectangle_14154" data-name="Rectangle 14154" width="25.94" height="1.748" transform="translate(-9.882 27.192)" fill="#c7af81"/>
          <rect id="Rectangle_14155" data-name="Rectangle 14155" width="1.607" height="26.006" transform="translate(9.5 -2.453)" fill="#c7af81"/>
          <rect id="Rectangle_14156" data-name="Rectangle 14156" width="20.989" height="1.748" transform="translate(-9.882 21.805)" fill="#c7af81"/>
          <rect id="Rectangle_14157" data-name="Rectangle 14157" width="1.607" height="20.614" transform="translate(4.545 -2.453)" fill="#c7af81"/>
          <rect id="Rectangle_14158" data-name="Rectangle 14158" width="16.033" height="1.748" transform="translate(-9.882 16.413)" fill="#c7af81"/>
          <rect id="Rectangle_14159" data-name="Rectangle 14159" width="1.607" height="15.222" transform="translate(-0.407 -2.453)" fill="#c7af81"/>
          <rect id="Rectangle_14160" data-name="Rectangle 14160" width="11.078" height="1.748" transform="translate(-9.882 11.021)" fill="#c7af81"/>
          <rect id="Rectangle_14161" data-name="Rectangle 14161" width="129.982" height="1.748" transform="translate(123.449 140.397)" fill="#c7af81"/>
          <rect id="Rectangle_14162" data-name="Rectangle 14162" width="1.607" height="144.598" transform="translate(123.449 -2.453)" fill="#c7af81"/>
          <rect id="Rectangle_14163" data-name="Rectangle 14163" width="125.027" height="1.748" transform="translate(128.404 135.005)" fill="#c7af81"/>
          <rect id="Rectangle_14164" data-name="Rectangle 14164" width="1.603" height="139.21" transform="translate(128.404 -2.457)" fill="#c7af81"/>
          <rect id="Rectangle_14165" data-name="Rectangle 14165" width="120.075" height="1.745" transform="translate(133.356 129.617)" fill="#c7af81"/>
          <rect id="Rectangle_14166" data-name="Rectangle 14166" width="1.607" height="133.814" transform="translate(133.36 -2.449)" fill="#c7af81"/>
          <rect id="Rectangle_14167" data-name="Rectangle 14167" width="115.119" height="1.748" transform="translate(138.311 124.225)" fill="#c7af81"/>
          <rect id="Rectangle_14168" data-name="Rectangle 14168" width="1.607" height="128.426" transform="translate(138.311 -2.453)" fill="#c7af81"/>
          <rect id="Rectangle_14169" data-name="Rectangle 14169" width="110.168" height="1.748" transform="translate(143.263 118.834)" fill="#c7af81"/>
          <rect id="Rectangle_14170" data-name="Rectangle 14170" width="1.607" height="123.035" transform="translate(143.267 -2.453)" fill="#c7af81"/>
          <rect id="Rectangle_14171" data-name="Rectangle 14171" width="105.212" height="1.748" transform="translate(148.218 113.446)" fill="#c7af81"/>
          <rect id="Rectangle_14172" data-name="Rectangle 14172" width="1.607" height="117.647" transform="translate(148.218 -2.453)" fill="#c7af81"/>
          <rect id="Rectangle_14173" data-name="Rectangle 14173" width="100.261" height="1.748" transform="translate(153.17 108.054)" fill="#c7af81"/>
          <rect id="Rectangle_14174" data-name="Rectangle 14174" width="1.607" height="112.255" transform="translate(153.174 -2.453)" fill="#c7af81"/>
          <rect id="Rectangle_14175" data-name="Rectangle 14175" width="95.301" height="1.745" transform="translate(158.129 102.662)" fill="#c7af81"/>
          <rect id="Rectangle_14176" data-name="Rectangle 14176" width="1.607" height="106.863" transform="translate(158.129 -2.453)" fill="#c7af81"/>
          <rect id="Rectangle_14177" data-name="Rectangle 14177" width="90.346" height="1.748" transform="translate(163.085 97.274)" fill="#c7af81"/>
          <rect id="Rectangle_14178" data-name="Rectangle 14178" width="1.607" height="101.475" transform="translate(163.085 -2.457)" fill="#c7af81"/>
          <rect id="Rectangle_14179" data-name="Rectangle 14179" width="85.394" height="1.748" transform="translate(168.036 91.882)" fill="#c7af81"/>
          <rect id="Rectangle_14180" data-name="Rectangle 14180" width="1.607" height="96.08" transform="translate(168.036 -2.449)" fill="#c7af81"/>
          <rect id="Rectangle_14181" data-name="Rectangle 14181" width="80.439" height="1.748" transform="translate(172.992 86.491)" fill="#c7af81"/>
          <rect id="Rectangle_14182" data-name="Rectangle 14182" width="1.607" height="90.692" transform="translate(172.992 -2.453)" fill="#c7af81"/>
          <rect id="Rectangle_14183" data-name="Rectangle 14183" width="75.487" height="1.748" transform="translate(177.944 81.103)" fill="#c7af81"/>
          <rect id="Rectangle_14184" data-name="Rectangle 14184" width="1.607" height="85.3" transform="translate(177.947 -2.453)" fill="#c7af81"/>
          <rect id="Rectangle_14185" data-name="Rectangle 14185" width="70.532" height="1.748" transform="translate(182.899 75.711)" fill="#c7af81"/>
          <rect id="Rectangle_14186" data-name="Rectangle 14186" width="1.607" height="79.912" transform="translate(182.899 -2.453)" fill="#c7af81"/>
          <rect id="Rectangle_14187" data-name="Rectangle 14187" width="65.576" height="1.748" transform="translate(187.854 70.319)" fill="#c7af81"/>
          <rect id="Rectangle_14188" data-name="Rectangle 14188" width="1.607" height="74.52" transform="translate(187.854 -2.453)" fill="#c7af81"/>
          <rect id="Rectangle_14189" data-name="Rectangle 14189" width="60.625" height="1.748" transform="translate(192.806 64.927)" fill="#c7af81"/>
          <rect id="Rectangle_14190" data-name="Rectangle 14190" width="1.607" height="69.128" transform="translate(192.81 -2.453)" fill="#c7af81"/>
          <rect id="Rectangle_14191" data-name="Rectangle 14191" width="55.669" height="1.748" transform="translate(197.761 59.539)" fill="#c7af81"/>
          <rect id="Rectangle_14192" data-name="Rectangle 14192" width="1.607" height="63.737" transform="translate(197.762 -2.453)" fill="#c7af81"/>
          <rect id="Rectangle_14193" data-name="Rectangle 14193" width="50.714" height="1.748" transform="translate(202.717 54.148)" fill="#c7af81"/>
          <rect id="Rectangle_14194" data-name="Rectangle 14194" width="1.607" height="58.349" transform="translate(202.717 -2.453)" fill="#c7af81"/>
          <rect id="Rectangle_14195" data-name="Rectangle 14195" width="45.758" height="1.748" transform="translate(207.672 48.76)" fill="#c7af81"/>
          <rect id="Rectangle_14196" data-name="Rectangle 14196" width="1.607" height="52.957" transform="translate(207.672 -2.453)" fill="#c7af81"/>
          <rect id="Rectangle_14197" data-name="Rectangle 14197" width="40.807" height="1.748" transform="translate(212.624 43.364)" fill="#c7af81"/>
          <rect id="Rectangle_14198" data-name="Rectangle 14198" width="1.603" height="47.569" transform="translate(212.628 -2.453)" fill="#c7af81"/>
          <rect id="Rectangle_14199" data-name="Rectangle 14199" width="35.851" height="1.748" transform="translate(217.579 37.976)" fill="#c7af81"/>
          <rect id="Rectangle_14200" data-name="Rectangle 14200" width="1.607" height="42.177" transform="translate(217.579 -2.453)" fill="#c7af81"/>
          <rect id="Rectangle_14201" data-name="Rectangle 14201" width="30.896" height="1.748" transform="translate(222.535 32.584)" fill="#c7af81"/>
          <rect id="Rectangle_14202" data-name="Rectangle 14202" width="1.607" height="36.785" transform="translate(222.535 -2.453)" fill="#c7af81"/>
          <rect id="Rectangle_14203" data-name="Rectangle 14203" width="25.944" height="1.748" transform="translate(227.487 27.196)" fill="#c7af81"/>
          <rect id="Rectangle_14204" data-name="Rectangle 14204" width="1.607" height="31.394" transform="translate(227.49 -2.453)" fill="#c7af81"/>
          <rect id="Rectangle_14205" data-name="Rectangle 14205" width="20.989" height="1.748" transform="translate(232.442 21.805)" fill="#c7af81"/>
          <rect id="Rectangle_14206" data-name="Rectangle 14206" width="1.607" height="26.006" transform="translate(232.442 -2.453)" fill="#c7af81"/>
          <rect id="Rectangle_14207" data-name="Rectangle 14207" width="16.037" height="1.748" transform="translate(237.394 16.413)" fill="#c7af81"/>
          <rect id="Rectangle_14208" data-name="Rectangle 14208" width="1.607" height="20.614" transform="translate(237.398 -2.453)" fill="#c7af81"/>
          <rect id="Rectangle_14209" data-name="Rectangle 14209" width="11.078" height="1.748" transform="translate(242.353 11.021)" fill="#c7af81"/>
          <rect id="Rectangle_14210" data-name="Rectangle 14210" width="1.607" height="15.222" transform="translate(242.353 -2.453)" fill="#c7af81"/>
          <rect id="Rectangle_14211" data-name="Rectangle 14211" width="1.607" height="246.623" transform="translate(123.449 145.789)" fill="#c7af81"/>
          <rect id="Rectangle_14212" data-name="Rectangle 14212" width="129.982" height="1.748" transform="translate(123.449 145.789)" fill="#c7af81"/>
          <rect id="Rectangle_14213" data-name="Rectangle 14213" width="1.607" height="241.231" transform="translate(128.404 151.177)" fill="#c7af81"/>
          <rect id="Rectangle_14214" data-name="Rectangle 14214" width="125.027" height="1.748" transform="translate(128.404 151.177)" fill="#c7af81"/>
          <rect id="Rectangle_14215" data-name="Rectangle 14215" width="1.607" height="235.843" transform="translate(133.356 156.568)" fill="#c7af81"/>
          <rect id="Rectangle_14216" data-name="Rectangle 14216" width="120.075" height="1.748" transform="translate(133.356 156.568)" fill="#c7af81"/>
          <rect id="Rectangle_14217" data-name="Rectangle 14217" width="1.607" height="230.448" transform="translate(138.311 161.96)" fill="#c7af81"/>
          <rect id="Rectangle_14218" data-name="Rectangle 14218" width="115.119" height="1.748" transform="translate(138.311 161.96)" fill="#c7af81"/>
          <rect id="Rectangle_14219" data-name="Rectangle 14219" width="1.607" height="225.06" transform="translate(143.267 167.352)" fill="#c7af81"/>
          <rect id="Rectangle_14220" data-name="Rectangle 14220" width="110.168" height="1.748" transform="translate(143.263 167.348)" fill="#c7af81"/>
          <rect id="Rectangle_14221" data-name="Rectangle 14221" width="1.607" height="219.668" transform="translate(148.222 172.74)" fill="#c7af81"/>
          <rect id="Rectangle_14222" data-name="Rectangle 14222" width="105.212" height="1.748" transform="translate(148.218 172.74)" fill="#c7af81"/>
          <rect id="Rectangle_14223" data-name="Rectangle 14223" width="1.607" height="214.276" transform="translate(153.174 178.132)" fill="#c7af81"/>
          <rect id="Rectangle_14224" data-name="Rectangle 14224" width="100.257" height="1.748" transform="translate(153.174 178.132)" fill="#c7af81"/>
          <rect id="Rectangle_14225" data-name="Rectangle 14225" width="1.607" height="208.884" transform="translate(158.129 183.523)" fill="#c7af81"/>
          <rect id="Rectangle_14226" data-name="Rectangle 14226" width="95.301" height="1.748" transform="translate(158.129 183.523)" fill="#c7af81"/>
          <rect id="Rectangle_14227" data-name="Rectangle 14227" width="1.603" height="203.497" transform="translate(163.085 188.911)" fill="#c7af81"/>
          <rect id="Rectangle_14228" data-name="Rectangle 14228" width="90.346" height="1.748" transform="translate(163.085 188.911)" fill="#c7af81"/>
          <rect id="Rectangle_14229" data-name="Rectangle 14229" width="1.607" height="198.105" transform="translate(168.036 194.303)" fill="#c7af81"/>
          <rect id="Rectangle_14230" data-name="Rectangle 14230" width="85.394" height="1.745" transform="translate(168.036 194.303)" fill="#c7af81"/>
          <rect id="Rectangle_14231" data-name="Rectangle 14231" width="1.607" height="192.717" transform="translate(172.992 199.695)" fill="#c7af81"/>
          <rect id="Rectangle_14232" data-name="Rectangle 14232" width="80.439" height="1.748" transform="translate(172.992 199.695)" fill="#c7af81"/>
          <rect id="Rectangle_14233" data-name="Rectangle 14233" width="1.607" height="187.325" transform="translate(177.947 205.087)" fill="#c7af81"/>
          <rect id="Rectangle_14234" data-name="Rectangle 14234" width="75.487" height="1.748" transform="translate(177.944 205.087)" fill="#c7af81"/>
          <rect id="Rectangle_14235" data-name="Rectangle 14235" width="1.607" height="181.933" transform="translate(182.899 210.475)" fill="#c7af81"/>
          <rect id="Rectangle_14236" data-name="Rectangle 14236" width="70.532" height="1.748" transform="translate(182.899 210.475)" fill="#c7af81"/>
          <rect id="Rectangle_14237" data-name="Rectangle 14237" width="1.607" height="176.545" transform="translate(187.854 215.866)" fill="#c7af81"/>
          <rect id="Rectangle_14238" data-name="Rectangle 14238" width="65.576" height="1.748" transform="translate(187.854 215.866)" fill="#c7af81"/>
          <rect id="Rectangle_14239" data-name="Rectangle 14239" width="1.607" height="171.154" transform="translate(192.81 221.258)" fill="#c7af81"/>
          <rect id="Rectangle_14240" data-name="Rectangle 14240" width="60.625" height="1.748" transform="translate(192.806 221.258)" fill="#c7af81"/>
          <rect id="Rectangle_14241" data-name="Rectangle 14241" width="1.607" height="165.762" transform="translate(197.762 226.65)" fill="#c7af81"/>
          <rect id="Rectangle_14242" data-name="Rectangle 14242" width="55.669" height="1.748" transform="translate(197.761 226.65)" fill="#c7af81"/>
          <rect id="Rectangle_14243" data-name="Rectangle 14243" width="1.607" height="160.37" transform="translate(202.717 232.038)" fill="#c7af81"/>
          <rect id="Rectangle_14244" data-name="Rectangle 14244" width="50.714" height="1.748" transform="translate(202.717 232.038)" fill="#c7af81"/>
          <rect id="Rectangle_14245" data-name="Rectangle 14245" width="1.607" height="154.982" transform="translate(207.672 237.43)" fill="#c7af81"/>
          <rect id="Rectangle_14246" data-name="Rectangle 14246" width="45.758" height="1.748" transform="translate(207.672 237.43)" fill="#c7af81"/>
          <rect id="Rectangle_14247" data-name="Rectangle 14247" width="1.603" height="149.59" transform="translate(212.628 242.818)" fill="#c7af81"/>
          <rect id="Rectangle_14248" data-name="Rectangle 14248" width="40.803" height="1.748" transform="translate(212.628 242.818)" fill="#c7af81"/>
          <rect id="Rectangle_14249" data-name="Rectangle 14249" width="1.607" height="144.202" transform="translate(217.579 248.209)" fill="#c7af81"/>
          <rect id="Rectangle_14250" data-name="Rectangle 14250" width="35.851" height="1.748" transform="translate(217.579 248.209)" fill="#c7af81"/>
          <rect id="Rectangle_14251" data-name="Rectangle 14251" width="1.607" height="138.811" transform="translate(222.535 253.601)" fill="#c7af81"/>
          <rect id="Rectangle_14252" data-name="Rectangle 14252" width="30.896" height="1.748" transform="translate(222.535 253.601)" fill="#c7af81"/>
          <rect id="Rectangle_14253" data-name="Rectangle 14253" width="1.607" height="133.419" transform="translate(227.49 258.993)" fill="#c7af81"/>
          <rect id="Rectangle_14254" data-name="Rectangle 14254" width="25.944" height="1.745" transform="translate(227.487 258.993)" fill="#c7af81"/>
          <rect id="Rectangle_14255" data-name="Rectangle 14255" width="1.607" height="128.027" transform="translate(232.442 264.381)" fill="#c7af81"/>
          <rect id="Rectangle_14256" data-name="Rectangle 14256" width="20.989" height="1.748" transform="translate(232.442 264.381)" fill="#c7af81"/>
          <rect id="Rectangle_14257" data-name="Rectangle 14257" width="1.607" height="122.635" transform="translate(237.398 269.773)" fill="#c7af81"/>
          <rect id="Rectangle_14258" data-name="Rectangle 14258" width="16.037" height="1.748" transform="translate(237.394 269.773)" fill="#c7af81"/>
          <rect id="Rectangle_14259" data-name="Rectangle 14259" width="1.607" height="117.247" transform="translate(242.353 275.165)" fill="#c7af81"/>
          <rect id="Rectangle_14260" data-name="Rectangle 14260" width="11.078" height="1.748" transform="translate(242.353 275.165)" fill="#c7af81"/>
        </g>
      </g>
      <g id="Group_56484" data-name="Group 56484" transform="translate(-37)">
        <g id="Group_56483" data-name="Group 56483" clip-path="url(#clip-path-2)">
          <path id="Path_124118" data-name="Path 124118" d="M213.106,298.546h-2.04V86.363c0-10.218-6.29-19.368-15.3-22.252l-75.283-24.1-75.28,24.1C36.2,67,29.909,76.145,29.909,86.363V298.546H27.873V86.363c0-11.2,6.89-21.219,16.76-24.38l75.854-24.277,75.854,24.277c9.871,3.161,16.764,13.185,16.764,24.38Z" transform="translate(73.464 111.453)" fill="#c7af81"/>
        </g>
      </g>
    </g>
  </g>
</svg>
