<svg xmlns="http://www.w3.org/2000/svg" width="18.137" height="17.986" viewBox="0 0 18.137 17.986">
  <g id="share" transform="translate(-1.3 -1.39)">
    <path id="Path_124567" data-name="Path 124567" d="M16.96,6.17a7.215,7.215,0,0,1,3.06,5.141" transform="translate(-2.445 -0.661)" fill="none" stroke="#005f61" stroke-linecap="round" stroke-linejoin="round" stroke-width="1.5"/>
    <path id="Path_124568" data-name="Path 124568" d="M3.49,11.361A7.191,7.191,0,0,1,6.5,6.22" transform="translate(-0.236 -0.669)" fill="none" stroke="#005f61" stroke-linecap="round" stroke-linejoin="round" stroke-width="1.5"/>
    <path id="Path_124569" data-name="Path 124569" d="M8.19,20.94A7.193,7.193,0,0,0,14.544,21" transform="translate(-1.007 -3.083)" fill="none" stroke="#005f61" stroke-linecap="round" stroke-linejoin="round" stroke-width="1.5"/>
    <path id="Path_124570" data-name="Path 124570" d="M11.6,6.788A2.324,2.324,0,1,0,9.28,4.464,2.324,2.324,0,0,0,11.6,6.788Z" transform="translate(-1.186)" fill="none" stroke="#005f61" stroke-linecap="round" stroke-linejoin="round" stroke-width="1.5"/>
    <path id="Path_124571" data-name="Path 124571" d="M4.374,19.008A2.324,2.324,0,1,0,2.05,16.684,2.324,2.324,0,0,0,4.374,19.008Z" transform="translate(0 -2.004)" fill="none" stroke="#005f61" stroke-linecap="round" stroke-linejoin="round" stroke-width="1.5"/>
    <path id="Path_124572" data-name="Path 124572" d="M18.714,19.008a2.324,2.324,0,1,0-2.324-2.324A2.324,2.324,0,0,0,18.714,19.008Z" transform="translate(-2.352 -2.004)" fill="none" stroke="#005f61" stroke-linecap="round" stroke-linejoin="round" stroke-width="1.5"/>
  </g>
</svg>
