<svg xmlns="http://www.w3.org/2000/svg" xmlns:xlink="http://www.w3.org/1999/xlink" width="438.367" height="338.838" viewBox="0 0 438.367 338.838">
  <defs>
    <linearGradient id="linear-gradient" x1="0.777" y1="0.36" x2="0.868" y2="1" gradientUnits="objectBoundingBox">
      <stop offset="0" stop-color="#f5f9fe"/>
      <stop offset="1" stop-color="#f5f9fe" stop-opacity="0"/>
    </linearGradient>
  </defs>
  <g id="_404_svg" data-name="404_svg" transform="translate(-700.003 -862.764)">
    <path id="Path_108617" data-name="Path 108617" d="M463.431,629.8c75.372-4.806,135.719-48.672,159.951-110.046,25.306-64.1,15.846-137-45.673-179.4-71.677-49.4-171-66.045-248.1-23.06-90.578,50.5-158.336,141.955-121.1,228.91,34.663,80.946,154.615,89.988,254.92,83.593" transform="translate(501.91 570.148)" fill="url(#linear-gradient)"/>
    <g id="Group_56609" data-name="Group 56609" transform="translate(2.031 2.899)">
      <path id="Path_108627" data-name="Path 108627" d="M-190.879-15.991a.979.979,0,0,1-1.107-1.107V-28.392a3.084,3.084,0,0,1,.221-1.329l22.587-49.714a1.586,1.586,0,0,1,1.55-.886h14.062q1.107,0,.775,1.107L-175.378-29.72v.332h13.84a.587.587,0,0,0,.664-.664V-46.329a.979.979,0,0,1,1.107-1.107h12.844a.979.979,0,0,1,1.107,1.107v16.276a.587.587,0,0,0,.664.664h4.982a.979.979,0,0,1,1.107,1.107V-17.1a.979.979,0,0,1-1.107,1.107h-4.982a.587.587,0,0,0-.664.664v9.19a.979.979,0,0,1-1.107,1.107h-12.844a.979.979,0,0,1-1.107-1.107v-9.19a.587.587,0,0,0-.664-.664Zm63.994-3.211a16.954,16.954,0,0,1-.719-2.713q-.276-1.495-.5-3.986t-.331-6.477q-.111-3.986-.111-10.3t.111-10.3q.111-3.986.331-6.477t.5-3.986a16.955,16.955,0,0,1,.719-2.713A21.375,21.375,0,0,1-118.876-77.5q5.689-4.041,14.637-4.041T-89.6-77.5a21.375,21.375,0,0,1,8.009,11.349,16.956,16.956,0,0,1,.719,2.713q.276,1.495.5,3.986t.331,6.477q.111,3.986.111,10.3t-.111,10.3q-.111,3.986-.331,6.477t-.5,3.986a16.954,16.954,0,0,1-.719,2.713A21.375,21.375,0,0,1-89.6-7.853q-5.689,4.041-14.637,4.041t-14.637-4.041A21.375,21.375,0,0,1-126.885-19.2Zm14.956-2.768q1.673,5.093,7.69,5.093t7.69-5.093a16.007,16.007,0,0,0,.39-1.772,30.848,30.848,0,0,0,.279-3.156q.112-2.159.167-5.868t.055-9.91q0-6.2-.055-9.91t-.167-5.868a30.848,30.848,0,0,0-.279-3.156,16.007,16.007,0,0,0-.39-1.772q-1.673-5.093-7.69-5.093t-7.69,5.093a16.01,16.01,0,0,0-.39,1.772,30.848,30.848,0,0,0-.279,3.156q-.112,2.159-.167,5.868t-.055,9.91q0,6.2.055,9.91t.167,5.868a30.848,30.848,0,0,0,.279,3.156A16.01,16.01,0,0,0-111.929-21.97Zm44.173,5.979A.979.979,0,0,1-68.864-17.1V-28.392a3.084,3.084,0,0,1,.221-1.329l22.587-49.714a1.586,1.586,0,0,1,1.55-.886h14.062q1.107,0,.775,1.107L-52.255-29.72v.332h13.84a.587.587,0,0,0,.664-.664V-46.329a.979.979,0,0,1,1.107-1.107H-23.8a.979.979,0,0,1,1.107,1.107v16.276a.587.587,0,0,0,.664.664h4.982a.979.979,0,0,1,1.107,1.107V-17.1a.979.979,0,0,1-1.107,1.107h-4.982a.587.587,0,0,0-.664.664v9.19A.979.979,0,0,1-23.8-5.029H-36.644a.979.979,0,0,1-1.107-1.107v-9.19a.587.587,0,0,0-.664-.664Z" transform="translate(1004.687 1087.44)" fill="#005f61"/>
      <g id="Group_56608" data-name="Group 56608" transform="translate(1011.611 1003.451)">
        <rect id="Rectangle_14329" data-name="Rectangle 14329" width="15.013" height="64.744" rx="7.507" transform="translate(0)" fill="#005f61"/>
        <circle id="Ellipse_11142" data-name="Ellipse 11142" cx="7.507" cy="7.507" r="7.507" transform="translate(0 73.189)" fill="#005f61"/>
      </g>
    </g>
  </g>
</svg>
