<svg xmlns="http://www.w3.org/2000/svg" xmlns:xlink="http://www.w3.org/1999/xlink" width="438.367" height="338.838" viewBox="0 0 438.367 338.838">
  <defs>
    <linearGradient id="linear-gradient" x1="0.777" y1="0.36" x2="0.868" y2="1" gradientUnits="objectBoundingBox">
      <stop offset="0" stop-color="#f5f9fe"/>
      <stop offset="1" stop-color="#f5f9fe" stop-opacity="0"/>
    </linearGradient>
  </defs>
  <g id="exclamation_svg" transform="translate(-700.003 -862.764)">
    <path id="Path_108617" data-name="Path 108617" d="M463.431,629.8c75.372-4.806,135.719-48.672,159.951-110.046,25.306-64.1,15.846-137-45.673-179.4-71.677-49.4-171-66.045-248.1-23.06-90.578,50.5-158.336,141.955-121.1,228.91,34.663,80.946,154.615,89.988,254.92,83.593" transform="translate(501.91 570.148)" fill="url(#linear-gradient)"/>
    <g id="Group_56604" data-name="Group 56604" transform="translate(797.292 913.486)">
      <g id="Polygon_35" data-name="Polygon 35" transform="translate(-3.605 7.059)" fill="none">
        <path d="M96.79,45.252a34,34,0,0,1,57.419,0L217.873,145.6c14.361,22.637-1.9,52.214-28.71,52.214H61.836c-26.808,0-43.071-29.578-28.71-52.214Z" stroke="none"/>
        <path d="M 125.4999618530273 41.46653747558594 C 117.8124542236328 41.46653747558594 111.04150390625 45.18949890136719 106.9231872558594 51.68080139160156 L 43.25930786132812 152.0283813476562 C 38.89518737792969 158.9071197509766 38.63304138183594 167.2755432128906 42.55804443359375 174.4139556884766 C 46.48300170898438 181.5523834228516 53.68977355957031 185.8141174316406 61.83607482910156 185.8141174316406 L 189.1638793945312 185.8141174316406 C 197.3101959228516 185.8141174316406 204.5169677734375 181.5523834228516 208.4419250488281 174.4139556884766 C 212.3669281005859 167.2755432128906 212.1047668457031 158.9071197509766 207.7406616210938 152.0283813476562 L 144.0767669677734 51.68080139160156 C 139.9584655761719 45.18949890136719 133.1874694824219 41.46653747558594 125.4999618530273 41.46653747558594 M 125.4999771118164 29.466552734375 C 136.5164337158203 29.466552734375 147.5328826904297 34.72843933105469 154.2095336914062 45.25222778320312 L 217.8734283447266 145.5998077392578 C 232.2349243164062 168.2364654541016 215.971923828125 197.8141174316406 189.1638793945312 197.8141174316406 L 61.83607482910156 197.8141174316406 C 35.02804565429688 197.8141174316406 18.76504516601562 168.2364654541016 33.12654113769531 145.5998077392578 L 96.79042053222656 45.25222778320312 C 103.4670715332031 34.72843933105469 114.4835357666016 29.466552734375 125.4999771118164 29.466552734375 Z" stroke="none" fill="#005f61"/>
      </g>
      <rect id="Rectangle_14329" data-name="Rectangle 14329" width="12" height="69" rx="6" transform="translate(115.894 80.965)" fill="#005f61"/>
      <circle id="Ellipse_11142" data-name="Ellipse 11142" cx="6" cy="6" r="6" transform="translate(115.894 158.965)" fill="#005f61"/>
    </g>
  </g>
</svg>
