<svg xmlns="http://www.w3.org/2000/svg" width="78.001" height="78.002" viewBox="0 0 78.001 78.002">
<style>
<![CDATA[
#Rotator {animation: Loaderotate 1500ms linear 1s infinite}
@keyframes Loaderotate {
     0% {transform: translate(1069.001px,-305.002px) rotate(0deg)}
     100% {transform: translate(1069.001px,-305.002px) rotate(360deg)}
    }
]]></style>
  <g id="Loader_Nauss" transform="translate(-1030 344.002)">
    <path id="Path_126956" data-name="Path 126956" d="M39,6A33,33,0,1,0,72,39,33,33,0,0,0,39,6m0-6A39,39,0,1,1,0,39,39,39,0,0,1,39,0Z" transform="translate(1030 -344)" fill="#c6aa76" opacity="0.6"/>
    <g id="Rotator" transform="translate(1069.001 -305.002)">
      <g id="Group_57084" data-name="Group 57084" transform="translate(-1069 305)">
        <path id="Path_126957" data-name="Path 126957" d="M39,1A37.923,37.923,0,1,0,53.791,3.986,38.01,38.01,0,0,0,39,1m0-1A39,39,0,1,1,0,39,39,39,0,0,1,39,0Z" transform="translate(1030 -344)" fill="#003462" opacity="0"/>
        <path id="Path_126958" data-name="Path 126958" d="M1087.5-339.244a34.165,34.165,0,0,0-7.34-3.189,38.914,38.914,0,0,0-8.186-1.418l.041,6.43a31.9,31.9,0,0,1,5.923,1.175,28.848,28.848,0,0,1,5.633,2.237Z" fill="#005f61"/>
      </g>
    </g>
    <g id="shape" transform="translate(1041.89 -332.097)">
      <path id="Path_118" data-name="Path 118" d="M.4.375-8.411-8.438l9.928-9.928v-.35H.381L-9.155-9.181h0l-9.537-9.536h-1.136v.35L-9.9-8.439-18.713.375l.229.436-1.531,1.531.473.473L-9.155-7.572,1.231,2.816,1.7,2.343.173.812Z" transform="translate(36.266 35.141)" fill="#c6aa76"/>
      <path id="Path_119" data-name="Path 119" d="M.419.018V-.927L-9.626,9.117h-1.255L-20.926-.927V.018l10.672,10.673Z" transform="translate(37.365 7.307)" fill="#c6aa76"/>
      <path id="Path_120" data-name="Path 120" d="M.255.048-2.174-2.381h0L-4.606.048l.548.112L-12.85,8.952V9.9L-2.175-.777,8.5,9.9V8.95L-.294.158Z" transform="translate(29.287 41.106)" fill="#c6aa76"/>
      <path id="Path_121" data-name="Path 121" d="M.419.018V-.927L-10.254,9.744-20.926-.927V.018l10.672,10.673Z" transform="translate(37.365 4.117)" fill="#c6aa76"/>
      <path id="Path_122" data-name="Path 122" d="M.419.018V-.927L-6.436,5.928H-7.1l-3.156,3.155h0L-13.41,5.928h-.661L-20.926-.927V.018l10.672,10.673Z" transform="translate(37.365 10.497)" fill="#c6aa76"/>
      <path id="Path_123" data-name="Path 123" d="M.3.094-4.473-4.682h0L-9.249.094-8.8.307l-6.348,6.347V7.6L-4.474-3.073,6.2,7.6V6.654L-.146.307Z" transform="translate(31.584 40.213)" fill="#c6aa76"/>
      <path id="Path_124" data-name="Path 124" d="M.342.132-6.373-6.583h0L-13.089.132l.373.289-4.331,4.331V5.7L-6.374-4.973h0L4.3,5.7V4.753L-.032.422Z" transform="translate(33.485 38.924)" fill="#c6aa76"/>
      <path id="Path_125" data-name="Path 125" d="M.158.329l-6.405-6.4,10.34-10.34H3.146L.429-13.7v-.661L-7.856-6.076l.332.333h0L3.162,4.944h.946L.021.856Z" transform="translate(37.354 32.84)" fill="#c6aa76"/>
      <path id="Path_126" data-name="Path 126" d="M.42,0-10.252,10.671-20.923,0h0V.945l10.671,10.673L.421.945V0Z" transform="translate(37.363 0)" fill="#c6aa76"/>
      <path id="Path_127" data-name="Path 127" d="M.374.164-7.913-8.173h0L-16.2.164l.281.331-2.667,2.667v.946L-7.914-6.564,2.759,4.108V3.162L.092.495Z" transform="translate(35.025 37.324)" fill="#c6aa76"/>
      <path id="Path_128" data-name="Path 128" d="M.209,0-10.462,10.671.226,21.358h.945L-9.516,10.671,1.156,0Z" transform="translate(53.05 16.424)" fill="#c6aa76"/>
      <path id="Path_129" data-name="Path 129" d="M.038.209V.176l-.3-.3L10.081-10.462h-.95L.038-1.365v-.662L-1.868-.122l.332.332h0L9.149,10.9H10.1L.038.839Z" transform="translate(37.747 26.887)" fill="#c6aa76"/>
      <path id="Path_130" data-name="Path 130" d="M.1.272-3.389-3.216,6.95-13.556H6L.1-7.651v-.66L-5-3.215l.332.331h0L6.02,7.8h.946L.1.934Z" transform="translate(37.686 29.98)" fill="#c6aa76"/>
      <path id="Path_131" data-name="Path 131" d="M.23,0H-.717L-11.386,10.671-.7,21.36H.245L-10.442,10.671Z" transform="translate(50.787 16.424)" fill="#c6aa76"/>
      <path id="Path_132" data-name="Path 132" d="M.209.228,8.067-7.629l2.815-2.815v-.945L7.217-7.726H6.556L.21-1.38h0L-6.138-7.726H-6.8l-3.665-3.664v.945l2.815,2.815Z" transform="translate(26.902 24.151)" fill="#c6aa76"/>
      <path id="Path_133" data-name="Path 133" d="M.23.21.563-.123-7.723-8.406v.661l-2.717-2.717h-.945L-1.045-.123l-6.4,6.4.137.528L-11.4,10.9h.946L.231.211Z" transform="translate(24.162 26.887)" fill="#c6aa76"/>
      <path id="Path_134" data-name="Path 134" d="M0,.209v.947L10.672-9.517,21.345,1.156V.209L10.672-10.462Z" transform="translate(16.439 53.037)" fill="#c6aa76"/>
      <path id="Path_135" data-name="Path 135" d="M.019,0H-.928L9.744,10.671-.944,21.36H0L10.691,10.671Z" transform="translate(0.944 16.424)" fill="#c6aa76"/>
      <path id="Path_136" data-name="Path 136" d="M.23.209.563-.123-1.343-2.029v.662l-9.1-9.1h-.945L-1.045-.123l-.3.3V.836L-11.4,10.9h.946L.231.21Z" transform="translate(17.782 26.887)" fill="#c6aa76"/>
      <path id="Path_137" data-name="Path 137" d="M.23.209.563-.123l-5.1-5.095v.661l-5.905-5.906h-.945L-1.045-.123-4.534,3.365v.662L-11.4,10.9h.946L.231.21Z" transform="translate(20.972 26.887)" fill="#c6aa76"/>
      <path id="Path_138" data-name="Path 138" d="M.017,0H-.928L9.744,10.671-.943,21.36H0L10.691,10.671Z" transform="translate(4.133 16.424)" fill="#c6aa76"/>
    </g>
  </g>
</svg>
