<svg xmlns="http://www.w3.org/2000/svg" width="60.07" height="40.449" viewBox="0 0 60.07 40.449">
  <g id="AchievIcon11" transform="translate(-790.016 -152.313)">
    <path id="Path_123983" data-name="Path 123983" d="M849.591,167.087,820.4,152.4a.807.807,0,0,0-.73,0L790.508,167.14a.877.877,0,0,0-.41.439.948.948,0,0,0,.412,1.224l9.14,4.6v12.449a.935.935,0,0,0,.43.8c6.562,4.075,13.169,6.113,19.778,6.113s13.215-2.037,19.773-6.112a.937.937,0,0,0,.429-.795V173.567l3.646-1.844,1.717-.864,4.17-2.109a.892.892,0,0,0,.411-.44.949.949,0,0,0-.414-1.223m-11.247,18.233c-12.272,7.445-24.705,7.445-36.977,0V174.266l18.33,9.222a.77.77,0,0,0,.731,0l17.916-9.054Zm-18.283-3.678-19.135-9.627a1.043,1.043,0,0,0-.145-.073l-7.892-3.969,27.152-13.719,27.17,13.67Z" transform="translate(0 0)" fill="#c6aa76"/>
    <path id="Path_123984" data-name="Path 123984" d="M840.318,165.393v16.156l-1.567-1.2V166.435Z" transform="translate(9.693 2.601)" fill="#c6aa76"/>
  </g>
</svg>
