<svg xmlns="http://www.w3.org/2000/svg" width="48.609" height="61.116" viewBox="0 0 48.609 61.116">
  <path id="AchievIcon1" d="M94.467,39.274l-3.528-1.036-7.676-5.014V32.075A10.216,10.216,0,0,0,87.3,24.9a2.346,2.346,0,0,0,1.969-2.312V19.429c0-.012,0-.024,0-.036v-4a1.736,1.736,0,0,0,.726-1.417V10.312l5.3-.9a1.878,1.878,0,0,0,.254-3.641L77.681.089a1.868,1.868,0,0,0-1.139,0L58.685,5.769A1.884,1.884,0,0,0,58.1,9.047v4.789h-.044a1.826,1.826,0,0,0-1.824,1.824v2.377l-1.177,6.91a1.96,1.96,0,0,0,1.932,2.289h3.986a1.96,1.96,0,0,0,1.932-2.289l-1.177-6.91V15.66A1.826,1.826,0,0,0,59.9,13.836h-.044V9.567l4.379.746v3.662a1.738,1.738,0,0,0,.722,1.414l0,4.041v3.159A2.346,2.346,0,0,0,66.932,24.9a10.217,10.217,0,0,0,4.028,7.173v1.154l-7.674,5.013-3.525,1.035a8.954,8.954,0,0,0-6.436,8.6l-.031,6.741a.881.881,0,0,0,1.761,0l.031-6.741a7.237,7.237,0,0,1,5.171-6.906L63.542,40l13.123,7.8a.891.891,0,0,0,.9,0L90.687,40l3.284.964a7.237,7.237,0,0,1,5.17,6.906v8.5a1.981,1.981,0,0,1-1.978,1.978H93.282v-3.8a.881.881,0,0,0-1.761,0v3.8H62.7v-3.8a.881.881,0,0,0-1.761,0v3.8H57.064a1.981,1.981,0,0,1-1.978-1.978V54.611a.881.881,0,0,0-1.761,0v1.764a3.744,3.744,0,0,0,3.739,3.739h40.1a3.744,3.744,0,0,0,3.739-3.739v-8.5A8.955,8.955,0,0,0,94.467,39.274Zm-33.494-13.8H56.987a.2.2,0,0,1-.2-.232l1.065-6.25H60.1l1.065,6.25A.2.2,0,0,1,60.973,25.474ZM59.967,15.66v1.571H57.993V15.66a.063.063,0,0,1,.063-.063H59.9A.063.063,0,0,1,59.967,15.66Zm14,28.154.35.539-8.99-5.342,5.706-3.727A18.5,18.5,0,0,0,73.964,43.814Zm-.006-3.8a22.643,22.643,0,0,0,6.311,0,16.819,16.819,0,0,1-1.482,2.841l-1.673,2.572-1.673-2.572a16.819,16.819,0,0,1-1.482-2.841Zm6.3,3.8a18.5,18.5,0,0,0,2.933-8.53L88.9,39.011l-8.99,5.342Zm5.151-28.1H87.5v2.829H86.465A1.052,1.052,0,0,1,85.414,17.5V15.719Zm-26.2-8.272,17.858-5.68a.116.116,0,0,1,.071,0l17.858,5.68a.1.1,0,0,1,.081.119c-.006.092-.059.1-.1.107l-5.9,1.006L86.869,8.4a.881.881,0,0,0-.216,1.748l1.574.195v3.61H66V10.347L75.112,9.22a16.311,16.311,0,0,1,4,0l3.449.427A.881.881,0,0,0,82.776,7.9l-3.449-.427a18.064,18.064,0,0,0-4.431,0L65.14,8.679,59.234,7.673c-.038-.007-.091-.015-.1-.107a.1.1,0,0,1,.081-.119Zm7.506,11.1V15.719h2.09V17.5a1.052,1.052,0,0,1-1.051,1.051H66.724Zm1.938,5.9a1.365,1.365,0,0,0-1.357-1.279.582.582,0,0,1-.581-.581V20.309h1.038A2.816,2.816,0,0,0,70.575,17.5V15.719H83.653V17.5a2.816,2.816,0,0,0,2.812,2.812H87.5v2.278a.582.582,0,0,1-.581.581,1.365,1.365,0,0,0-1.357,1.279,8.469,8.469,0,0,1-16.9,0Zm8.451,9.69a10.164,10.164,0,0,0,4.389-.995V33.7a16.782,16.782,0,0,1-.594,4.423,20.793,20.793,0,0,1-7.589,0,16.781,16.781,0,0,1-.594-4.423c0-.019,0-.037,0-.055s0-.007,0-.011v-.494A10.165,10.165,0,0,0,77.114,34.138Z" transform="translate(-52.794 0.502)" fill="#c6aa76" stroke="rgba(0,0,0,0)" stroke-miterlimit="10" stroke-width="1"/>
</svg>
