<svg xmlns="http://www.w3.org/2000/svg" width="55.839" height="55.841" viewBox="0 0 55.839 55.841">
  <path id="AchievIcon5" d="M886.211,101.027a27.856,27.856,0,0,0-24.872,15.261l-.049.1a27.817,27.817,0,0,0,0,25.12l.061.122a27.9,27.9,0,0,0,49.732-.015l.049-.094a27.821,27.821,0,0,0,.17-24.8l-.478-.933a27.878,27.878,0,0,0-24.611-14.764M894,104.539a25.377,25.377,0,0,1,13.579,10.283l.542.816H897.963l-.105-.391a28.886,28.886,0,0,0-4.442-9.89l-.992-1.318Zm-18.8,23.273.018-.542a52.818,52.818,0,0,1,1-8.939l.084-.424h19.828l.087.422a53.4,53.4,0,0,1,1,8.941l.016.542Zm22.035,2.271-.016.542a53.4,53.4,0,0,1-1,8.941l-.084.42H876.3l-.084-.42a52.664,52.664,0,0,1-1-8.941l-.015-.542ZM886.211,103.3c3.66,0,7.093,4.361,9.185,11.667l.193.671H876.835l.193-.672c2.09-7.3,5.523-11.665,9.183-11.665m-21.364,11.522a25.374,25.374,0,0,1,13.577-10.283l1.574-.5-.994,1.32a28.87,28.87,0,0,0-4.44,9.89l-.107.391H864.3Zm-4.2,12.43a25.348,25.348,0,0,1,2.3-9.04l.138-.3h10.853l-.114.621a55.955,55.955,0,0,0-.9,8.773l-.015.511h-12.3Zm2.3,12.43a25.348,25.348,0,0,1-2.3-9.038l-.036-.56h12.3l.015.511a56,56,0,0,0,.9,8.771l.114.621H863.09Zm15.472,13.676a25.377,25.377,0,0,1-13.577-10.284l-.544-.816h10.154l.107.391a28.885,28.885,0,0,0,4.44,9.89l.994,1.32Zm7.787,1.239c-3.661,0-7.094-4.363-9.183-11.669l-.193-.671H895.59l-.194.671c-2.091,7.306-5.524,11.669-9.185,11.669m21.364-11.523A25.383,25.383,0,0,1,894,153.357l-1.569.5.989-1.318a28.952,28.952,0,0,0,4.442-9.889l.106-.392h10.152Zm4.2-12.43a25.4,25.4,0,0,1-2.3,9.04l-.143.3H898.479l.115-.621a55.62,55.62,0,0,0,.9-8.768l.015-.514h12.3Zm0-3.392.038.56h-12.3l-.015-.511a55.9,55.9,0,0,0-.9-8.771l-.115-.623h10.848l.143.3a25.364,25.364,0,0,1,2.3,9.04" transform="translate(-858.292 -101.027)" fill="#c6aa76"/>
</svg>
