<svg xmlns="http://www.w3.org/2000/svg" width="33.301" height="33.301" viewBox="0 0 33.301 33.301">
  <g id="language-square" transform="translate(-1 -1)">
    <path id="Path_124275" data-name="Path 124275" d="M22.629,8.96H7.01" transform="translate(2.831 3.933)" fill="none" stroke="#c6aa76" stroke-linecap="round" stroke-linejoin="round" stroke-width="2"/>
    <path id="Path_124276" data-name="Path 124276" d="M12,7.28V9.909" transform="translate(5.65 2.983)" fill="none" stroke="#c6aa76" stroke-linecap="round" stroke-linejoin="round" stroke-width="2"/>
    <path id="Path_124277" data-name="Path 124277" d="M18.738,8.94A11.962,11.962,0,0,1,7,21.116" transform="translate(2.825 3.921)" fill="none" stroke="#c6aa76" stroke-linecap="round" stroke-linejoin="round" stroke-width="2"/>
    <path id="Path_124278" data-name="Path 124278" d="M19.571,18.116A9.017,9.017,0,0,1,12.45,14.25" transform="translate(5.905 6.922)" fill="none" stroke="#c6aa76" stroke-linecap="round" stroke-linejoin="round" stroke-width="2"/>
    <path id="Path_124279" data-name="Path 124279" d="M12.955,33.3h9.39c7.825,0,10.955-3.13,10.955-10.955v-9.39C33.3,5.13,30.171,2,22.345,2h-9.39C5.13,2,2,5.13,2,12.955v9.39C2,30.171,5.13,33.3,12.955,33.3Z" fill="none" stroke="#c6aa76" stroke-linecap="round" stroke-linejoin="round" stroke-width="2"/>
  </g>
</svg>
