<svg id="proglist5" xmlns="http://www.w3.org/2000/svg" width="25.775" height="28.419" viewBox="0 0 25.775 28.419">
  <path id="Path_122712" data-name="Path 122712" d="M8.241,7.2a1,1,0,0,1-.991-.991V2.241a.991.991,0,0,1,1.983,0V6.207A1,1,0,0,1,8.241,7.2Z" transform="translate(-0.641 -1.25)" fill="#c6aa76"/>
  <path id="Path_122713" data-name="Path 122713" d="M16.241,7.2a1,1,0,0,1-.991-.991V2.241a.991.991,0,0,1,1.983,0V6.207A1,1,0,0,1,16.241,7.2Z" transform="translate(1.934 -1.25)" fill="#c6aa76"/>
  <path id="Path_122714" data-name="Path 122714" d="M8.822,15.142a1.316,1.316,0,0,1-.5-.106A1.269,1.269,0,0,1,7.5,13.82a1.316,1.316,0,0,1,.106-.5,1.526,1.526,0,0,1,.278-.436A1.364,1.364,0,0,1,8.32,12.6a1.35,1.35,0,0,1,1.441.278,1.39,1.39,0,0,1,.383.938,1.987,1.987,0,0,1-.026.264.84.84,0,0,1-.079.238,1,1,0,0,1-.119.238,2.082,2.082,0,0,1-.159.2A1.39,1.39,0,0,1,8.822,15.142Z" transform="translate(-0.56 2.372)" fill="#c6aa76"/>
  <path id="Path_122715" data-name="Path 122715" d="M12.322,15.143a1.316,1.316,0,0,1-.5-.106A1.269,1.269,0,0,1,11,13.821a1.316,1.316,0,0,1,.106-.5,1.526,1.526,0,0,1,.278-.436,1.365,1.365,0,0,1,.436-.278,1.325,1.325,0,0,1,1.441.278,1.39,1.39,0,0,1,.383.938,1.987,1.987,0,0,1-.026.264.84.84,0,0,1-.079.238,1,1,0,0,1-.119.238,2.082,2.082,0,0,1-.159.2A1.39,1.39,0,0,1,12.322,15.143Z" transform="translate(0.566 2.371)" fill="#c6aa76"/>
  <path id="Path_122716" data-name="Path 122716" d="M15.822,15.143a1.316,1.316,0,0,1-.5-.106,1.365,1.365,0,0,1-.436-.278l-.159-.2a1,1,0,0,1-.119-.238.84.84,0,0,1-.079-.238,1.987,1.987,0,0,1-.026-.264,1.39,1.39,0,0,1,.383-.938,1.365,1.365,0,0,1,.436-.278,1.32,1.32,0,0,1,1.441.278,1.39,1.39,0,0,1,.383.938,1.987,1.987,0,0,1-.026.264.84.84,0,0,1-.079.238,1,1,0,0,1-.119.238,2.083,2.083,0,0,1-.159.2A1.39,1.39,0,0,1,15.822,15.143Z" transform="translate(1.692 2.371)" fill="#c6aa76"/>
  <path id="Path_122717" data-name="Path 122717" d="M8.822,18.639a1.316,1.316,0,0,1-.5-.106,1.527,1.527,0,0,1-.436-.278,1.39,1.39,0,0,1-.383-.938,1.316,1.316,0,0,1,.106-.5,1.233,1.233,0,0,1,.278-.436,1.327,1.327,0,1,1,.938,2.26Z" transform="translate(-0.56 3.501)" fill="#c6aa76"/>
  <path id="Path_122718" data-name="Path 122718" d="M12.322,18.639A1.309,1.309,0,0,1,11,17.318a1.316,1.316,0,0,1,.106-.5,1.233,1.233,0,0,1,.278-.436,1.384,1.384,0,0,1,1.877,0,1.233,1.233,0,0,1,.278.436,1.316,1.316,0,0,1,.106.5,1.309,1.309,0,0,1-1.322,1.322Z" transform="translate(0.566 3.501)" fill="#c6aa76"/>
  <path id="Path_122719" data-name="Path 122719" d="M15.822,18.644a1.39,1.39,0,0,1-.938-.383,1.234,1.234,0,0,1-.278-.436,1.246,1.246,0,0,1,0-1,1.234,1.234,0,0,1,.278-.436,1.32,1.32,0,0,1,1.19-.357.8.8,0,0,1,.251.079,1,1,0,0,1,.238.119,2.083,2.083,0,0,1,.2.159,1.322,1.322,0,0,1-.938,2.26Z" transform="translate(1.692 3.496)" fill="#c6aa76"/>
  <path id="Path_122720" data-name="Path 122720" d="M26.212,10.323H3.741a.991.991,0,0,1,0-1.983H26.212a.991.991,0,1,1,0,1.983Z" transform="translate(-2.089 1.032)" fill="#c6aa76"/>
  <path id="Path_122721" data-name="Path 122721" d="M20.425,29.186H9.85c-4.825,0-7.6-2.776-7.6-7.6V10.35c0-4.825,2.776-7.6,7.6-7.6H20.425c4.825,0,7.6,2.776,7.6,7.6V21.586C28.025,26.41,25.25,29.186,20.425,29.186ZM9.85,4.733c-3.78,0-5.618,1.837-5.618,5.618V21.586c0,3.78,1.837,5.618,5.618,5.618H20.425c3.78,0,5.618-1.837,5.618-5.618V10.35c0-3.78-1.837-5.618-5.618-5.618Z" transform="translate(-2.25 -0.767)" fill="#c6aa76"/>
</svg>
