<svg xmlns="http://www.w3.org/2000/svg" width="29.909" height="31.912" viewBox="0 0 29.909 31.912">
  <path id="proglist4" d="M31.909,34.4V30.909a6.977,6.977,0,0,0-6.977-6.977H23.188a1.744,1.744,0,0,1-1.744-1.744V13.466a3.489,3.489,0,0,0-3.489-3.489h0a3.489,3.489,0,0,0-3.489,3.489v15.7L10.28,23.583a3.489,3.489,0,0,0-2.791-1.4H6.732A2.731,2.731,0,0,0,4,24.919H4a2.731,2.731,0,0,0,.389,1.406L9.233,34.4M17.955,6.5V3m8.123,12.21h4.087m-24.421,0H9.233M10.985,8.4,8.6,5.854M24.932,8.4l2.379-2.544" transform="translate(-3 -3)" fill="none" stroke="#c6aa76" stroke-width="2"/>
</svg>
