<svg id="proglist1" xmlns="http://www.w3.org/2000/svg" width="39.886" height="39.866" viewBox="0 0 39.886 39.866">
  <path id="Path_118" data-name="Path 118" d="M-5-4.673l-6.483-6.483,7.3-7.3v-.257h-.835L-12.027-11.7h0l-7.015-7.015h-.836v.257l7.3,7.3-6.484,6.483.168.32-1.127,1.127.348.348,7.642-7.642,7.641,7.642.348-.348L-5.165-4.352Z" transform="translate(31.971 30.799)" fill="#c6aa76"/>
  <path id="Path_119" data-name="Path 119" d="M-5.224-.231v-.7l-7.389,7.389h-.923L-20.926-.927v.7l7.851,7.851Z" transform="translate(33.018 5.62)" fill="#c6aa76"/>
  <path id="Path_120" data-name="Path 120" d="M-3.207-.594-4.993-2.381h0L-6.782-.594l.4.083-6.466,6.467v.7L-4.994-1.2,2.857,6.65v-.7L-3.609-.512Z" transform="translate(24.938 30.868)" fill="#c6aa76"/>
  <path id="Path_121" data-name="Path 121" d="M-5.224-.231v-.7l-7.851,7.85-7.851-7.85v.7l7.851,7.851Z" transform="translate(33.018 3.273)" fill="#c6aa76"/>
  <path id="Path_122" data-name="Path 122" d="M-5.224-.231v-.7l-5.042,5.042h-.486l-2.322,2.321h0L-15.4,4.115h-.486L-20.926-.927v.7l7.851,7.851Z" transform="translate(33.018 7.967)" fill="#c6aa76"/>
  <path id="Path_123" data-name="Path 123" d="M-3.781-1.169-7.294-4.682h0l-3.513,3.513.332.157-4.669,4.669v.7L-7.3-3.5.556,4.353v-.7L-4.112-1.012Z" transform="translate(27.238 30.819)" fill="#c6aa76"/>
  <path id="Path_124" data-name="Path 124" d="M-4.256-1.643-9.2-6.583h0l-4.94,4.94.275.213-3.186,3.186v.7L-9.2-5.4h0l7.85,7.85v-.7L-4.531-1.43Z" transform="translate(29.139 30.373)" fill="#c6aa76"/>
  <path id="Path_125" data-name="Path 125" d="M-1.961-4.1-6.673-8.81.934-16.416h-.7l-2,2V-14.9l-6.1,6.1.245.245h0L.249-.7h.7L-2.062-3.71Z" transform="translate(29.555 28.498)" fill="#c6aa76"/>
  <path id="Path_126" data-name="Path 126" d="M-5.224,0l-7.85,7.85L-20.924,0h0V.7l7.851,7.851L-5.223.7V0Z" transform="translate(33.017)" fill="#c6aa76"/>
  <path id="Path_127" data-name="Path 127" d="M-4.64-2.04l-6.094-6.133h0L-16.83-2.04l.206.244L-18.586.165v.7l7.851-7.851L-2.884.861v-.7L-4.846-1.8Z" transform="translate(30.678 29.617)" fill="#c6aa76"/>
  <path id="Path_128" data-name="Path 128" d="M-2.612,0l-7.85,7.85L-2.6,15.712h.7L-9.766,7.85-1.915,0Z" transform="translate(41.791 12.082)" fill="#c6aa76"/>
  <path id="Path_129" data-name="Path 129" d="M-.466-2.612v-.025l-.219-.219,7.607-7.606h-.7L-.466-3.77v-.487l-1.4,1.4.245.245h0L6.237,5.25h.7l-7.4-7.4Z" transform="translate(28.261 22.544)" fill="#c6aa76"/>
  <path id="Path_130" data-name="Path 130" d="M-1.247-3.384-3.813-5.95l7.606-7.606H3.1L-1.247-9.211V-9.7L-5-5.949l.245.244h0L3.109,2.156h.7L-1.248-2.9Z" transform="translate(29.042 25.638)" fill="#c6aa76"/>
  <path id="Path_131" data-name="Path 131" d="M-2.843,0h-.7l-7.849,7.85,7.861,7.862h.7L-10.693,7.85Z" transform="translate(40.372 12.082)" fill="#c6aa76"/>
  <path id="Path_132" data-name="Path 132" d="M-2.612-2.843l5.78-5.78,2.071-2.071v-.7l-2.7,2.7H2.056L-2.612-4.027h0L-7.282-8.695h-.486l-2.7-2.7v.7l2.072,2.071Z" transform="translate(22.556 20.777)" fill="#c6aa76"/>
  <path id="Path_133" data-name="Path 133" d="M-2.847-2.612l.245-.245-6.1-6.1v.486l-2-2h-.7l7.606,7.606L-8.5,1.855l.1.388L-11.4,5.249h.7l7.861-7.86Z" transform="translate(20.79 22.545)" fill="#c6aa76"/>
  <path id="Path_134" data-name="Path 134" d="M0-2.612v.7L7.851-9.766,15.7-1.915v-.7l-7.851-7.85Z" transform="translate(12.093 41.781)" fill="#c6aa76"/>
  <path id="Path_135" data-name="Path 135" d="M-.236,0h-.7l7.85,7.85L-.944,15.712h.7L7.615,7.85Z" transform="translate(0.944 12.082)" fill="#c6aa76"/>
  <path id="Path_136" data-name="Path 136" d="M-2.847-2.612l.245-.245L-4-4.258v.487L-10.7-10.463h-.7l7.606,7.606L-4-2.638v.488l-7.4,7.4h.7l7.861-7.86Z" transform="translate(16.097 22.545)" fill="#c6aa76"/>
  <path id="Path_137" data-name="Path 137" d="M-2.847-2.612l.245-.245L-6.351-6.6v.486L-10.7-10.463h-.7l7.606,7.606L-6.351-.291l0,.487L-11.4,5.249h.7l7.861-7.86Z" transform="translate(18.443 22.545)" fill="#c6aa76"/>
  <path id="Path_138" data-name="Path 138" d="M-.235,0h-.7l7.85,7.85L-.943,15.712h.7L7.615,7.85Z" transform="translate(3.29 12.082)" fill="#c6aa76"/>
</svg>
