<svg id="proglist6" xmlns="http://www.w3.org/2000/svg" width="27.696" height="26.576" viewBox="0 0 27.696 26.576">
  <path id="Path_122722" data-name="Path 122722" d="M9.945,28.265a2.272,2.272,0,0,1-1.069-.271,2.242,2.242,0,0,1-1.185-1.984V24.182c-3.89-.4-6.441-3.259-6.441-7.356V9.1A7.012,7.012,0,0,1,8.657,1.69H21.539A7.012,7.012,0,0,1,28.946,9.1v7.729a7.012,7.012,0,0,1-7.407,7.407H16.683l-5.488,3.659A2.289,2.289,0,0,1,9.945,28.265ZM8.657,3.609A5.133,5.133,0,0,0,3.182,9.084v7.729a5.133,5.133,0,0,0,5.475,5.475.973.973,0,0,1,.966.966V26a.324.324,0,0,0,.5.271l5.732-3.813a.994.994,0,0,1,.541-.167h5.153a5.133,5.133,0,0,0,5.475-5.475V9.084a5.133,5.133,0,0,0-5.475-5.475Z" transform="translate(-1.25 -1.69)" fill="#c6aa76"/>
  <path id="Path_122723" data-name="Path 122723" d="M12.694,13.839a.973.973,0,0,1-.966-.966V12.6a3,3,0,0,1,1.507-2.512c.477-.322.631-.541.631-.876a1.172,1.172,0,1,0-2.345,0,.966.966,0,1,1-1.932,0,3.1,3.1,0,1,1,6.209,0,2.955,2.955,0,0,1-1.481,2.473c-.5.335-.657.554-.657.915v.271A.965.965,0,0,1,12.694,13.839Z" transform="translate(1.154 -0.416)" fill="#c6aa76"/>
  <path id="Path_122724" data-name="Path 122724" d="M12.216,15.032a.966.966,0,1,1,.966-.966A.965.965,0,0,1,12.216,15.032Z" transform="translate(1.632 1.598)" fill="#c6aa76"/>
</svg>
