<svg xmlns="http://www.w3.org/2000/svg" width="76.49" height="75.501" viewBox="0 0 76.49 75.501">
  <g id="regestIcon1" transform="translate(-1604.009 -737)">
    <circle id="Ellipse_11164" data-name="Ellipse 11164" cx="37" cy="37" r="37" transform="translate(1605 737)" fill="#005f61" opacity="0.8"/>
    <g id="regestIcon1-2" data-name="regestIcon1" transform="translate(1596.396 700.691)">
      <g id="Group_55954" data-name="Group 55954" transform="translate(9.113 44.962)">
        <g id="Group_55953" data-name="Group 55953" transform="translate(0 0)">
          <g id="Group_55955" data-name="Group 55955">
            <path id="Path_122649" data-name="Path 122649" d="M78.6,34.978,41.858,52.292,5.113,34.978l36.745-17.3Z" transform="translate(-5.113 -17.683)" fill="none" stroke="#c6aa76" stroke-linejoin="round" stroke-width="3"/>
            <path id="Path_122656" data-name="Path 122656" d="M45.77,22.948,25.882,32.892V57.561" transform="translate(-8.43 -6.365)" fill="none" stroke="#c6aa76" stroke-linecap="round" stroke-width="3"/>
            <g id="Ellipse_11145" data-name="Ellipse 11145" transform="translate(13.35 50.574)" fill="none" stroke="#c6aa76" stroke-width="3">
              <circle cx="4.201" cy="4.201" r="4.201" stroke="none"/>
              <circle cx="4.201" cy="4.201" r="2.701" fill="none"/>
            </g>
            <path id="Path_122657" data-name="Path 122657" d="M26.844,71.9,27.9,79.455H22.924l1.147-8.032" transform="translate(-7.957 -14.108)" fill="none" stroke="#c6aa76" stroke-linejoin="round" stroke-width="3"/>
            <path id="Path_122658" data-name="Path 122658" d="M79.369,30.931V46.5" transform="translate(-16.973 -7.64)" fill="none" stroke="#c6aa76" stroke-linecap="round" stroke-width="3"/>
            <path id="Path_122659" data-name="Path 122659" d="M79.369,30.931V46.5" transform="translate(-68.275 -7.64)" fill="none" stroke="#c6aa76" stroke-linecap="round" stroke-width="3"/>
            <path id="Path_122660" data-name="Path 122660" d="M18.145,50.01s4.29,10.918,24.791,11.874c21.93-.956,26.507-11.874,26.507-11.874" transform="translate(-7.05 -10.688)" fill="none" stroke="#c6aa76" stroke-linecap="round" stroke-linejoin="round" stroke-width="3"/>
          </g>
        </g>
      </g>
    </g>
  </g>
</svg>
