<svg xmlns="http://www.w3.org/2000/svg" width="74" height="74" viewBox="0 0 74 74">
  <g id="regestIcon2" transform="translate(-1605 -737)">
    <circle id="Ellipse_11164" data-name="Ellipse 11164" cx="37" cy="37" r="37" transform="translate(1605 737)" fill="#005f61" opacity="0.8"/>
    <g id="regestIcon2-2" data-name="regestIcon2" transform="translate(1613.174 745.699)">
      <path id="Path_122725" data-name="Path 122725" d="M56.01,40.678V8.084A5.32,5.32,0,0,0,50.15,2.71h-.162A50.908,50.908,0,0,0,30.9,9.11l-.459.3a2.992,2.992,0,0,1-2.863,0L26.9,9A50.653,50.653,0,0,0,7.833,2.683,5.313,5.313,0,0,0,2,8.057V40.678a5.549,5.549,0,0,0,4.7,5.347l.783.108a69.383,69.383,0,0,1,20.092,6.589l.108.054a2.917,2.917,0,0,0,2.592,0A68.756,68.756,0,0,1,50.42,46.133l.891-.108A5.549,5.549,0,0,0,56.01,40.678Z" transform="translate(0 0)" fill="none" stroke="#c6aa76" stroke-linejoin="round" stroke-width="3"/>
      <path id="Path_122726" data-name="Path 122726" d="M12,5.49V46" transform="translate(17.005 4.808)" fill="none" stroke="#c6aa76" stroke-linejoin="round" stroke-width="3"/>
      <path id="Path_122727" data-name="Path 122727" d="M11.576,8.49H5.5" transform="translate(5.952 9.91)" fill="none" stroke="#c6aa76" stroke-linejoin="round" stroke-width="3"/>
      <path id="Path_122728" data-name="Path 122728" d="M13.6,11.49H5.5" transform="translate(5.952 15.011)" fill="none" stroke="#c6aa76" stroke-linejoin="round" stroke-width="3"/>
    </g>
  </g>
</svg>
