<svg xmlns="http://www.w3.org/2000/svg" width="35.963" height="33.416" viewBox="0 0 35.963 33.416">
  <g id="wallet-money" transform="translate(-1 -2.5)">
    <path id="Path_124283" data-name="Path 124283" d="M15.743,16.86v3.447c0,2.921-2.717,5.281-6.062,5.281S3.6,23.228,3.6,20.308V16.86c0,2.921,2.717,4.993,6.079,4.993C13.026,21.853,15.743,19.764,15.743,16.86Z" transform="translate(1.118 9.328)" fill="none" stroke="#c6aa76" stroke-linecap="round" stroke-linejoin="round" stroke-width="2"/>
    <path id="Path_124284" data-name="Path 124284" d="M15.749,16.274a4.455,4.455,0,0,1-.645,2.309,6.241,6.241,0,0,1-5.434,2.683,6.28,6.28,0,0,1-5.434-2.683,4.455,4.455,0,0,1-.645-2.309,4.932,4.932,0,0,1,1.766-3.719,6.481,6.481,0,0,1,4.3-1.545,6.57,6.57,0,0,1,4.3,1.545A4.828,4.828,0,0,1,15.749,16.274Z" transform="translate(1.11 5.243)" fill="none" stroke="#c6aa76" stroke-linecap="round" stroke-linejoin="round" stroke-width="2"/>
    <path id="Path_124285" data-name="Path 124285" d="M15.743,16.281v4.67c0,2.921-2.717,4.993-6.062,4.993S3.6,23.855,3.6,20.951v-4.67C3.6,13.36,6.319,11,9.681,11a6.57,6.57,0,0,1,4.3,1.545A4.967,4.967,0,0,1,15.743,16.281Z" transform="translate(1.118 5.236)" fill="none" stroke="#c6aa76" stroke-linecap="round" stroke-linejoin="round" stroke-width="2"/>
    <path id="Path_124286" data-name="Path 124286" d="M25.581,11.682v3.5a1.743,1.743,0,0,1-1.7,1.732H20.554a3.621,3.621,0,0,1-3.668-3.176A3.5,3.5,0,0,1,20.351,9.95h3.532A1.744,1.744,0,0,1,25.581,11.682Z" transform="translate(10.382 4.503)" fill="none" stroke="#c6aa76" stroke-linecap="round" stroke-linejoin="round" stroke-width="2"/>
    <path id="Path_124287" data-name="Path 124287" d="M2,15.387v-3.4C2,7.372,4.785,4.145,9.115,3.6a9.038,9.038,0,0,1,1.376-.1H25.774a7.766,7.766,0,0,1,1.274.085c4.381.509,7.217,3.753,7.217,8.406v2.462H30.733a3.5,3.5,0,0,0-3.464,3.787,3.621,3.621,0,0,0,3.668,3.176h3.328v2.462c0,5.094-3.4,8.491-8.491,8.491H21.529" fill="none" stroke="#c6aa76" stroke-linecap="round" stroke-linejoin="round" stroke-width="2"/>
  </g>
</svg>
