<svg xmlns="http://www.w3.org/2000/svg" width="90" height="90" viewBox="0 0 90 90">
  <g id="Document7" transform="translate(-1525 -1653.328)">
    <circle id="Ellipse_11723" data-name="Ellipse 11723" cx="45" cy="45" r="45" transform="translate(1525 1653.328)" fill="#005f61" opacity="0.15"/>
    <g id="Group_57050" data-name="Group 57050" transform="translate(1547 1677.328)">
      <g id="Group_57051" data-name="Group 57051" transform="translate(0 0)">
        <path id="Path_126941" data-name="Path 126941" d="M18.615,19.173H29.142m-17.861,0h4.326m1.5-3.111H29.142m-18.706,0H14.1M.567,17.618,16.1,27.139m9.55,0,15.526-9.518M.567,37.842l20.3-14,20.3,14M5.08,20.383V.568H36.662V20.383m-.007-4.843,4.519,2.078V40.954H.567V17.618L5.08,15.544" transform="translate(0.232 0.232)" fill="none" stroke="#005f61" stroke-miterlimit="10" stroke-width="2"/>
        <path id="Path_126942" data-name="Path 126942" d="M31.489,9.82H26.027V8.837h4.385c-.2-1.184-.777-1.776-1.724-1.776a2.051,2.051,0,0,0-1.325.342l-.409-.824a2.6,2.6,0,0,1,1.765-.521A2.407,2.407,0,0,1,30.91,7.282a4.93,4.93,0,0,1,.579,2.538M29.325,5.347h-.968V4.334h.968Zm-5.593,3.5c-.009-1.173-.447-1.755-1.3-1.755-.927,0-1.605.581-2.014,1.755Zm2.5.974H18.62V8.846h1l-.031-4.974h1.037l-.06,3.219a2.259,2.259,0,0,1,1.886-.952q2.078,0,2.333,2.707h1.455Zm-7.427,0H17.583a.971.971,0,0,1-.709-.292,1.19,1.19,0,0,1-.337-.892l-.031-5.3h1.057l.04,4.883c0,.36.18.631.458.631h.748Zm-6.062,1.714h-.957V10.521h.957Zm2.463-2.5a.875.875,0,0,1-.927.783H11.194A2.343,2.343,0,0,1,9.009,8.586a4.652,4.652,0,0,1-.519-2.427H9.537a4.005,4.005,0,0,0,.339,1.766,1.439,1.439,0,0,0,1.367.922h2.532c.258,0,.388-.191.388-.562l-.031-2.126H15.19c.011.512.02,1.475.02,2.878" transform="translate(0.808 0.761)" fill="#005f61" stroke="#005f61" stroke-width="0.3"/>
      </g>
    </g>
  </g>
</svg>
