<svg xmlns="http://www.w3.org/2000/svg" width="90" height="90" viewBox="0 0 90 90">
  <g id="Document4" transform="translate(-1525 -1653.328)">
    <circle id="Ellipse_11723" data-name="Ellipse 11723" cx="45" cy="45" r="45" transform="translate(1525 1653.328)" fill="#005f61" opacity="0.15"/>
    <g id="Group_57040" data-name="Group 57040" transform="translate(1552.024 1678.509)">
      <g id="Group_57041" data-name="Group 57041">
        <path id="Path_126916" data-name="Path 126916" d="M2.074,0h25.35A2.078,2.078,0,0,1,29.5,2.074V10.3l-1.843,1.844V2.074a.234.234,0,0,0-.231-.23H2.074a.232.232,0,0,0-.23.23V37.565a.232.232,0,0,0,.23.23H22.659l5-4.982V17.357L29.5,15.513V33.57l-.273.273-5.541,5.526-.648.27H2.074A2.078,2.078,0,0,1,0,37.565V2.074A2.078,2.078,0,0,1,2.074,0" fill="#005f61"/>
        <path id="Path_126917" data-name="Path 126917" d="M10.323,9.195a2.866,2.866,0,1,1,.84-2.027,2.858,2.858,0,0,1-.84,2.027M8.3,8.4a1.233,1.233,0,1,0-.872-.361A1.231,1.231,0,0,0,8.3,8.4" fill="#005f61"/>
        <path id="Path_126918" data-name="Path 126918" d="M5.517,13.876v.6h5.56V13.9l0-.023h0v-.012h0a2.725,2.725,0,0,0-.107-.655,1.687,1.687,0,0,0-.237-.492,1.6,1.6,0,0,0-.384-.377,2.178,2.178,0,0,0-.347-.2c-.052.035-.106.069-.16.1a3.046,3.046,0,0,1-.477.228,3,3,0,0,1-2.546-.23c-.058-.034-.115-.07-.171-.109a1.889,1.889,0,0,0-.308.175,1.948,1.948,0,0,0-.44.43,1.92,1.92,0,0,0-.286.542,1.875,1.875,0,0,0-.095.6m-.54,2.237H3.883V13.876a3.543,3.543,0,0,1,1.523-2.905,3.591,3.591,0,0,1,1.02-.5l.144-.043.425-.128.338.291.114.1a1.423,1.423,0,0,0,.2.143,1.366,1.366,0,0,0,.215.1A1.311,1.311,0,0,0,8.087,11a1.388,1.388,0,0,0,.245.021A1.351,1.351,0,0,0,8.573,11a1.319,1.319,0,0,0,.228-.061,1.387,1.387,0,0,0,.215-.1,1.506,1.506,0,0,0,.2-.14l.121-.1.36-.308.445.161.15.054a4.14,4.14,0,0,1,1.005.513,3.2,3.2,0,0,1,.766.761,3.288,3.288,0,0,1,.468.963A4.43,4.43,0,0,1,12.7,13.83l0,.035v.012h0v2.236H4.977Z" fill="#005f61"/>
        <rect id="Rectangle_16231" data-name="Rectangle 16231" width="10.14" height="1.634" transform="translate(15.671 7.48)" fill="#005f61"/>
        <rect id="Rectangle_16232" data-name="Rectangle 16232" width="22.124" height="1.634" transform="translate(3.687 31.447)" fill="#005f61"/>
        <rect id="Rectangle_16233" data-name="Rectangle 16233" width="22.124" height="1.634" transform="translate(3.687 25.916)" fill="#005f61"/>
        <path id="Path_126919" data-name="Path 126919" d="M17.309,16.942a.917.917,0,0,0-1.433,1.145L19.563,22.7a.931.931,0,0,0,1.38.068L35.681,8.026a.922.922,0,0,0-1.3-1.3L20.353,20.747Z" fill="#005f61"/>
      </g>
    </g>
  </g>
</svg>
