<svg xmlns="http://www.w3.org/2000/svg" width="90" height="90" viewBox="0 0 90 90">
  <g id="Document3" transform="translate(-1525 -1653.328)">
    <circle id="Ellipse_11723" data-name="Ellipse 11723" cx="45" cy="45" r="45" transform="translate(1525 1653.328)" fill="#005f61" opacity="0.15"/>
    <g id="Group_57038" data-name="Group 57038" transform="translate(1548.493 1678.081)">
      <g id="Group_57039" data-name="Group 57039">
        <path id="Path_126910" data-name="Path 126910" d="M39.685,36.361a.543.543,0,0,0-.651.418l-.387,1.7L35.765,33.64a6.122,6.122,0,0,0,2.907-1.335l2.653,4.458Zm-8.913,2.121-.388-1.7a.542.542,0,0,0-.65-.418l-1.64.4,2.733-4.592a6.168,6.168,0,0,0,2.846,1.436Zm-1.08-11.215A5.14,5.14,0,1,1,34.828,32.6a5.244,5.244,0,0,1-5.136-5.335M1.082,30.089V1.124H35.365v19.74c-.18-.017-.353-.057-.537-.057a6.35,6.35,0,0,0-6.219,6.46,6.59,6.59,0,0,0,.652,2.822Zm41.85,7.237-3.458-5.81a6.544,6.544,0,0,0,1.572-4.249,6.412,6.412,0,0,0-4.6-6.209V.562A.553.553,0,0,0,35.906,0H.541A.552.552,0,0,0,0,.562V30.651a.552.552,0,0,0,.541.562h29.4c.034.045.07.088.1.133h0l-3.559,5.981a.578.578,0,0,0,.021.624.53.53,0,0,0,.563.219l2.385-.585.563,2.477a.549.549,0,0,0,.439.426.51.51,0,0,0,.087.007.537.537,0,0,0,.46-.266L34.709,34l3.705,6.225a.536.536,0,0,0,.46.266.491.491,0,0,0,.086-.007.549.549,0,0,0,.44-.426l.563-2.477,2.385.585a.53.53,0,0,0,.563-.219.578.578,0,0,0,.021-.624" fill="#005f61" stroke="#005f61" stroke-width="0.5"/>
        <path id="Path_126911" data-name="Path 126911" d="M34.828,24.96a2.309,2.309,0,1,1-2.221,2.306,2.267,2.267,0,0,1,2.221-2.306m0,5.738a3.434,3.434,0,1,0-3.3-3.432,3.373,3.373,0,0,0,3.3,3.432" fill="#005f61" stroke="#005f61" stroke-width="0.5"/>
        <path id="Path_126912" data-name="Path 126912" d="M5.867,6.935H30.58a.562.562,0,0,0,0-1.124H5.867a.562.562,0,0,0,0,1.124" fill="#005f61" stroke="#005f61" stroke-width="0.5"/>
        <path id="Path_126913" data-name="Path 126913" d="M5.867,11.637H30.58a.562.562,0,0,0,0-1.124H5.867a.562.562,0,0,0,0,1.124" fill="#005f61" stroke="#005f61" stroke-width="0.5"/>
        <path id="Path_126914" data-name="Path 126914" d="M5.867,16.34H30.58a.562.562,0,0,0,0-1.124H5.867a.562.562,0,0,0,0,1.124" fill="#005f61" stroke="#005f61" stroke-width="0.5"/>
        <path id="Path_126915" data-name="Path 126915" d="M16.332,19.918H5.867a.562.562,0,0,0,0,1.124H16.332a.562.562,0,0,0,0-1.124" fill="#005f61" stroke="#005f61" stroke-width="0.5"/>
      </g>
    </g>
  </g>
</svg>
