<svg xmlns="http://www.w3.org/2000/svg" width="90" height="90" viewBox="0 0 90 90">
  <g id="Document5" transform="translate(-1525 -1653.328)">
    <circle id="Ellipse_11723" data-name="Ellipse 11723" cx="45" cy="45" r="45" transform="translate(1525 1653.328)" fill="#005f61" opacity="0.15"/>
    <g id="Group_57043" data-name="Group 57043" transform="translate(1547.22 1679.707)">
      <g id="Group_57044" data-name="Group 57044" transform="translate(0 0)">
        <path id="Path_126924" data-name="Path 126924" d="M39.422,2.387,22.046.038a4.259,4.259,0,0,0-4.759,3.679L13.728,30.049a4.258,4.258,0,0,0,3.613,4.809l17.375,2.348a4.257,4.257,0,0,0,4.758-3.678L43.032,7.2a4.256,4.256,0,0,0-3.61-4.809M37.8,33.3a2.572,2.572,0,0,1-2.862,2.234L17.566,33.187A2.571,2.571,0,0,1,15.4,30.274L18.957,3.942a2.572,2.572,0,0,1,2.863-2.234L39.2,4.057A2.57,2.57,0,0,1,41.362,6.97Z" transform="translate(2.488 0)" fill="#005f61"/>
        <path id="Path_126925" data-name="Path 126925" d="M25.574,32.723,16.749,31.53a1.062,1.062,0,0,1-.88-1.387l.271-2c.093-.691,1.142-.931,1.142-.931s4.6-1.288,6.324-1.88.917-1.961.917-1.961a8.044,8.044,0,0,1-1.237-2.99,2.108,2.108,0,0,1,.375-2.97l.291-2.15c.488-3.607,4.493-2.987,4.493-2.987l.182.025s4.026.467,3.539,4.074l-.291,2.148a2.108,2.108,0,0,1-.427,2.964,8.047,8.047,0,0,1-1.985,2.554,1.3,1.3,0,0,0,.363,2.133c1.5,1.027,5.6,3.491,5.6,3.491s.947.511.853,1.2l-.271,2s-.014,1.266-1.217,1.1l-8.823-1.192Z" transform="translate(2.877 2.223)" fill="#005f61"/>
        <path id="Path_126926" data-name="Path 126926" d="M24.035,31.381a2.57,2.57,0,0,1-2.537,2.6H3.964a2.57,2.57,0,0,1-2.537-2.6V4.809a2.57,2.57,0,0,1,2.537-2.6H21.5a2.57,2.57,0,0,1,2.537,2.6Z" transform="translate(0.259 0.402)" fill="#d9e6e6"/>
        <path id="Path_126927" data-name="Path 126927" d="M21.757.787H4.224A4.257,4.257,0,0,0,0,5.069V31.64a4.258,4.258,0,0,0,4.224,4.283H21.757A4.258,4.258,0,0,0,25.98,31.64V5.069A4.257,4.257,0,0,0,21.757.787M24.295,31.64a2.57,2.57,0,0,1-2.537,2.6H4.224a2.57,2.57,0,0,1-2.537-2.6V5.069a2.57,2.57,0,0,1,2.537-2.6H21.757a2.57,2.57,0,0,1,2.537,2.6Z" transform="translate(0 0.143)" fill="#005f61"/>
        <path id="Path_126928" data-name="Path 126928" d="M12.348,32.792h-8.9c-1.212,0-1.058-1.256-1.058-1.256V29.514c0-.7,1.007-1.075,1.007-1.075s4.388-1.893,6.014-2.711a1.3,1.3,0,0,0,.645-2.065,8.077,8.077,0,0,1-1.626-2.8A2.11,2.11,0,0,1,8.4,17.871V15.7c0-3.639,4.053-3.562,4.053-3.562h.183s4.052-.077,4.052,3.562v2.169a2.11,2.11,0,0,1-.025,2.995,8.07,8.07,0,0,1-1.627,2.8,1.3,1.3,0,0,0,.645,2.065c1.627.818,6.015,2.711,6.015,2.711s1.007.378,1.007,1.075v2.022s.155,1.256-1.059,1.256h-9.3Z" transform="translate(0.433 2.207)" fill="#005f61"/>
      </g>
    </g>
  </g>
</svg>
