<svg xmlns="http://www.w3.org/2000/svg" width="90" height="90" viewBox="0 0 90 90">
  <g id="Document2" transform="translate(-1525 -1653.328)">
    <circle id="Ellipse_11723" data-name="Ellipse 11723" cx="45" cy="45" r="45" transform="translate(1525 1653.328)" fill="#005f61" opacity="0.15"/>
    <g id="Group_57037" data-name="Group 57037" transform="translate(1554.275 1678.063)">
      <path id="Path_126909" data-name="Path 126909" d="M15.725,28.672a8.409,8.409,0,1,0,0-16.814,8.409,8.409,0,1,0,0,16.814M9.137,16.57l-.1.177A7.274,7.274,0,0,0,8.187,19.4l-.045.377h2.82l.017-.322a13.781,13.781,0,0,1,.348-2.474l.1-.414Zm14.172,3.21-.045-.378a7.3,7.3,0,0,0-.852-2.655l-.1-.177H20.026l.1.413a13.9,13.9,0,0,1,.348,2.476l.017.321Zm-1,4.18.1-.177a7.283,7.283,0,0,0,.852-2.655l.044-.375H20.489l-.017.319a13.9,13.9,0,0,1-.348,2.476l-.1.413Zm-7.084.974H12.794l.244.486a4.747,4.747,0,0,0,1.669,1.98l.521.3ZM12.393,23.71l.07.25h2.766V20.752H11.957l.02.356a12.608,12.608,0,0,0,.416,2.6M16.222,27.7l.521-.3a4.738,4.738,0,0,0,1.669-1.98l.243-.486H16.222Zm0-3.744h2.767l.067-.25a12.53,12.53,0,0,0,.416-2.6l.021-.356H16.222Zm3.271-4.18-.021-.358a12.5,12.5,0,0,0-.416-2.6l-.067-.25H16.222v3.21ZM16.222,15.6h2.433l-.243-.486a4.752,4.752,0,0,0-1.669-1.98l-.521-.3Zm-.994-2.769-.521.3a4.761,4.761,0,0,0-1.669,1.98l-.244.486h2.434Zm0,3.743H12.463l-.07.25a12.658,12.658,0,0,0-.416,2.6l-.02.358h3.271Zm-4.249,4.5-.017-.319H8.141l.045.375a7.285,7.285,0,0,0,.853,2.655l.1.177h2.288l-.1-.413a13.792,13.792,0,0,1-.348-2.476M9.766,24.934l.585.575a7.593,7.593,0,0,0,1.509,1.15l1.1.638-.618-1.092a8.935,8.935,0,0,1-.507-1.059l-.086-.213Zm9.349,1.272L18.5,27.295l1.092-.636a7.634,7.634,0,0,0,1.51-1.15l.585-.575H19.705l-.085.214a8.734,8.734,0,0,1-.506,1.058M21.686,15.6l-.585-.573a7.557,7.557,0,0,0-1.51-1.152L18.5,13.236l.615,1.088a8.75,8.75,0,0,1,.506,1.059l.087.213Zm-9.35-1.272.616-1.089-1.094.636a7.616,7.616,0,0,0-1.509,1.152l-.586.573h1.98l.086-.213a8.935,8.935,0,0,1,.507-1.059M4.645,6.675h.6v-1.1h.391a3.586,3.586,0,0,0,.622-.042A.915.915,0,0,0,6.57,5.4a.83.83,0,0,0,.253-.288.948.948,0,0,0,.1-.451.9.9,0,0,0-.172-.567A.78.78,0,0,0,6.323,3.8a3.6,3.6,0,0,0-.714-.043H4.645Zm.6-2.421v.831h.328a1.522,1.522,0,0,0,.473-.048.393.393,0,0,0,.187-.143A.387.387,0,0,0,6.3,4.666.375.375,0,0,0,6.209,4.4a.427.427,0,0,0-.242-.13,3,3,0,0,0-.431-.02ZM9.788,6.675,8.6,3.762H7.961L6.805,6.675h.637l.248-.663H8.882l.257.663Zm-1.1-1.155L8.273,4.441l-.4,1.079Zm1.264.212a1.1,1.1,0,0,0,.362.742,1.3,1.3,0,0,0,.866.256,1.72,1.72,0,0,0,.649-.107.883.883,0,0,0,.424-1.258.83.83,0,0,0-.328-.3,2.932,2.932,0,0,0-.646-.209,1.567,1.567,0,0,1-.551-.2.225.225,0,0,1-.09-.178.214.214,0,0,1,.1-.181.676.676,0,0,1,.406-.106.6.6,0,0,1,.377.1.5.5,0,0,1,.164.324l.6-.02a.855.855,0,0,0-.3-.649,1.259,1.259,0,0,0-.84-.243,1.512,1.512,0,0,0-.584.1.813.813,0,0,0-.371.3.741.741,0,0,0-.128.418.752.752,0,0,0,.273.587,1.619,1.619,0,0,0,.674.289c.25.062.409.1.479.128a.472.472,0,0,1,.215.126.264.264,0,0,1,.063.176.355.355,0,0,1-.148.281.675.675,0,0,1-.436.12.648.648,0,0,1-.434-.135.7.7,0,0,1-.214-.422Zm2.772,0a1.1,1.1,0,0,0,.362.742,1.3,1.3,0,0,0,.865.256,1.713,1.713,0,0,0,.647-.107.883.883,0,0,0,.425-1.258.838.838,0,0,0-.328-.3,2.932,2.932,0,0,0-.646-.209,1.587,1.587,0,0,1-.551-.2.221.221,0,0,1-.088-.178.213.213,0,0,1,.1-.181A.676.676,0,0,1,13.91,4.2a.6.6,0,0,1,.377.1.5.5,0,0,1,.164.324l.6-.02a.851.851,0,0,0-.3-.649,1.259,1.259,0,0,0-.84-.243,1.512,1.512,0,0,0-.584.1.825.825,0,0,0-.371.3.75.75,0,0,0-.128.418.758.758,0,0,0,.272.587,1.646,1.646,0,0,0,.677.289c.249.062.408.1.479.128a.479.479,0,0,1,.215.126.263.263,0,0,1,.062.176.357.357,0,0,1-.146.281.679.679,0,0,1-.436.12.651.651,0,0,1-.435-.135.7.7,0,0,1-.213-.422Zm2.929.944h.6v-1.1h.391a3.586,3.586,0,0,0,.622-.042.93.93,0,0,0,.312-.137.824.824,0,0,0,.251-.288.934.934,0,0,0,.1-.451.9.9,0,0,0-.171-.567.779.779,0,0,0-.429-.286,3.577,3.577,0,0,0-.714-.043h-.963Zm.6-2.421v.831h.328a1.527,1.527,0,0,0,.473-.048.378.378,0,0,0,.253-.371.375.375,0,0,0-.094-.263.417.417,0,0,0-.239-.13,3.032,3.032,0,0,0-.432-.02Zm2.044.982a1.492,1.492,0,0,0,.393,1.094,1.586,1.586,0,0,0,2.1,0,1.513,1.513,0,0,0,.392-1.107,1.511,1.511,0,0,0-.4-1.112,1.405,1.405,0,0,0-1.053-.4,1.662,1.662,0,0,0-.641.115,1.167,1.167,0,0,0-.386.264,1.348,1.348,0,0,0-.277.4,1.825,1.825,0,0,0-.137.749m.62-.02a1.078,1.078,0,0,0,.234.751.773.773,0,0,0,.6.257.764.764,0,0,0,.591-.256,1.1,1.1,0,0,0,.231-.76,1.085,1.085,0,0,0-.226-.749.766.766,0,0,0-.6-.246.775.775,0,0,0-.6.25,1.089,1.089,0,0,0-.228.753m2.738,1.459h.6V5.458h.122a1.056,1.056,0,0,1,.3.033.469.469,0,0,1,.18.121,3.746,3.746,0,0,1,.319.428l.43.636h.718l-.363-.568a3.322,3.322,0,0,0-.341-.473,1.338,1.338,0,0,0-.32-.244.943.943,0,0,0,.586-.27.765.765,0,0,0,.2-.542.829.829,0,0,0-.13-.459.684.684,0,0,0-.346-.279,2.208,2.208,0,0,0-.693-.078H21.656Zm.6-1.681H22.7a2.474,2.474,0,0,0,.539-.035.323.323,0,0,0,.169-.124.373.373,0,0,0,.06-.219.343.343,0,0,0-.08-.237.355.355,0,0,0-.226-.115c-.049-.007-.2-.01-.438-.01h-.47ZM2.772,40.53H0V0H28.679a2.752,2.752,0,0,1,2.771,2.714v35.1a2.751,2.751,0,0,1-2.771,2.714H2.772ZM25.326,6.675h.6V4.253h.877V3.762H24.444v.492h.881Z" fill="#005f61"/>
    </g>
  </g>
</svg>
