<svg xmlns="http://www.w3.org/2000/svg" width="90" height="90" viewBox="0 0 90 90">
  <g id="Document1" transform="translate(-1525 -1653.328)">
    <circle id="Ellipse_11723" data-name="Ellipse 11723" cx="45" cy="45" r="45" transform="translate(1525 1653.328)" fill="#005f61" opacity="0.15"/>
    <g id="Group_57032" data-name="Group 57032" transform="translate(1546 1678.329)">
      <g id="Group_57033" data-name="Group 57033" transform="translate(0 0)">
        <path id="Path_126908" data-name="Path 126908" d="M19.331,20.324H19.2a5.453,5.453,0,0,0-2.141.442l-.009,0a5.269,5.269,0,0,1-1.226.354l-.678,4.013a.178.178,0,0,1-.351,0l-.678-4.013a5.262,5.262,0,0,1-1.228-.354l-.009,0a5.447,5.447,0,0,0-2.14-.442h-.129a3.475,3.475,0,0,0-3.722,3.16v3.923a27.988,27.988,0,0,0,4.487,1.007,26.609,26.609,0,0,0,11.673-1.007V23.483a3.476,3.476,0,0,0-3.723-3.16M41.2,21.485H26.341a.664.664,0,0,0,0,1.327H41.2a.664.664,0,0,0,0-1.327m0,4.659H26.341a.663.663,0,1,0,0,1.326H41.2a.663.663,0,0,0,0-1.326m0-13.977H26.341a.664.664,0,0,0,0,1.327H41.2a.664.664,0,0,0,0-1.327M46.611,16.1a1.881,1.881,0,0,0-1.035-1.021l-.179-.073v5.572l1.225-3.024a1.886,1.886,0,0,0-.011-1.455m-2.54-6.849a1.9,1.9,0,0,0-1.9-1.9H5.919a1.9,1.9,0,0,0-1.9,1.9v21.4a1.9,1.9,0,0,0,1.9,1.9H42.17a1.9,1.9,0,0,0,1.9-1.9V9.253ZM40.01,33.876H24.862l11.25,4.558a1.9,1.9,0,0,0,2.476-1.048ZM8.079,6.025H23.227L11.977,1.467A1.9,1.9,0,0,0,9.5,2.514Zm-5.387,13.3L1.468,22.345A1.9,1.9,0,0,0,2.514,24.82l.178.073Zm45.159-1.267L45.4,24.113v6.536a3.227,3.227,0,0,1-3.227,3.228h-.73l-1.623,4.008a3.221,3.221,0,0,1-4.2,1.779L21.33,33.876H5.919a3.227,3.227,0,0,1-3.227-3.228V26.324l-.676-.274a3.227,3.227,0,0,1-1.779-4.2l2.455-6.059V9.253A3.227,3.227,0,0,1,5.919,6.025h.729L8.272,2.017a3.227,3.227,0,0,1,4.2-1.779L26.759,6.025H42.17A3.227,3.227,0,0,1,45.4,9.253v4.325l.676.274a3.227,3.227,0,0,1,1.779,4.2M41.2,16.826H26.341a.663.663,0,1,0,0,1.326H41.2a.663.663,0,0,0,0-1.326M10.7,15.9a4.481,4.481,0,0,1,4.279-4.659A4.481,4.481,0,0,1,19.251,15.9a4.481,4.481,0,0,1-4.278,4.659A4.481,4.481,0,0,1,10.7,15.9" transform="translate(0 0)" fill="#005f61"/>
      </g>
    </g>
  </g>
</svg>
