<svg xmlns="http://www.w3.org/2000/svg" width="90" height="90" viewBox="0 0 90 90">
  <g id="Document6" transform="translate(-1525 -1653.328)">
    <circle id="Ellipse_11723" data-name="Ellipse 11723" cx="45" cy="45" r="45" transform="translate(1525 1653.328)" fill="#005f61" opacity="0.15"/>
    <g id="Group_57046" data-name="Group 57046" transform="translate(1546 1679.328)">
      <g id="Group_57047" data-name="Group 57047">
        <g id="Group_57049" data-name="Group 57049" transform="translate(-2)">
          <path id="Path_126929" data-name="Path 126929" d="M9,12.705h13.53a.657.657,0,0,0,0-1.3H9a.657.657,0,0,0,0,1.3" transform="translate(1.414 1.914)" fill="#005f61" stroke="#005f61" stroke-width="0.5"/>
          <path id="Path_126930" data-name="Path 126930" d="M16.912,15.31H9.073a.652.652,0,0,0,0,1.3h7.84a.652.652,0,0,0,0-1.3" transform="translate(1.413 2.569)" fill="#005f61" stroke="#005f61" stroke-width="0.5"/>
          <path id="Path_126931" data-name="Path 126931" d="M16.912,18.94H9.073a.652.652,0,0,0,0,1.3h7.84a.652.652,0,0,0,0-1.3" transform="translate(1.413 3.179)" fill="#005f61" stroke="#005f61" stroke-width="0.5"/>
          <path id="Path_126932" data-name="Path 126932" d="M16.912,22.57H9.073a.652.652,0,0,0,0,1.3h7.84a.652.652,0,0,0,0-1.3" transform="translate(1.413 3.788)" fill="#005f61" stroke="#005f61" stroke-width="0.5"/>
          <path id="Path_126933" data-name="Path 126933" d="M32.022,33.423a3.832,3.832,0,0,1-7.663,0,.652.652,0,0,0-.653-.653H5.609V1.3H23.271V9.4a.652.652,0,0,0,.652.652h8.1v7.1a7.771,7.771,0,1,0,0,13.514ZM5.135,37.254a3.837,3.837,0,0,1-3.774-3.179H23.1a5.123,5.123,0,0,0,1.677,3.179ZM24.576,2.227l1,1L31.1,8.749H24.576ZM34.656,23.912a6.467,6.467,0,1,1-6.466-6.466,6.474,6.474,0,0,1,6.466,6.466m1.3,0a7.751,7.751,0,0,0-2.636-5.825v-8.7a.65.65,0,0,0-.044-.225l-.013-.029a.7.7,0,0,0-.041-.077l-.018-.027a.669.669,0,0,0-.074-.09L24.384.192a.678.678,0,0,0-.09-.075L24.267.1A.544.544,0,0,0,24.19.06L24.161.046A.612.612,0,0,0,23.937,0H4.957A.652.652,0,0,0,4.3.652V32.77H.8c-.026,0-.05,0-.075,0s-.049,0-.074,0A.652.652,0,0,0,0,33.423a5.14,5.14,0,0,0,5.135,5.135H28.19a5.14,5.14,0,0,0,5.135-5.135V29.738a7.751,7.751,0,0,0,2.636-5.825" fill="#005f61" stroke="#005f61" stroke-width="0.5"/>
          <path id="Path_126934" data-name="Path 126934" d="M23.922,17.395v4.347a1.029,1.029,0,0,0,1.065.937h1.658a1.326,1.326,0,0,0,.51-.109,1.172,1.172,0,0,0,.667-1.542l-.712-1.691a.125.125,0,0,0-.182-.086l-.213.11a.676.676,0,0,0-.356.8l.682,1.227a.158.158,0,0,1-.154.228l-1.836,0a.241.241,0,0,1-.25-.222l-.119-4.565a.112.112,0,0,0-.183-.077l-.493.43a.29.29,0,0,0-.084.211" transform="translate(4.015 2.808)" fill="#005f61"/>
          <path id="Path_126935" data-name="Path 126935" d="M24.252,23.5a.211.211,0,0,0,.288,0l.482-.489a.05.05,0,0,1,.068,0l.482.489a.211.211,0,0,0,.288,0l.587-.6a.135.135,0,0,0,0-.2l-.587-.6a.211.211,0,0,0-.288,0l-.482.489a.05.05,0,0,1-.068,0L24.54,22.1a.211.211,0,0,0-.288,0l-.589.6a.137.137,0,0,0,0,.2Z" transform="translate(3.964 3.7)" fill="#005f61"/>
          <path id="Path_126936" data-name="Path 126936" d="M28.583,19.871a.235.235,0,0,0-.134-.07.252.252,0,0,0-.214.065.215.215,0,0,0-.054.239,1.869,1.869,0,0,1-.1,2.3,5.646,5.646,0,0,1-3.161,2.069,2.277,2.277,0,0,1-1.091-.111.145.145,0,0,0-.155.041.125.125,0,0,0,0,.166,2.654,2.654,0,0,0,2.784.434,6.566,6.566,0,0,0,2.409-1.925,2.239,2.239,0,0,0-.29-3.213" transform="translate(3.968 3.323)" fill="#005f61"/>
          <path id="Path_126937" data-name="Path 126937" d="M24.154,17.385a.359.359,0,0,1,.111-.258l.493-.473a.229.229,0,0,0,.074-.151.221.221,0,0,0-.074-.147l-.987-.851a.249.249,0,0,0-.42.165v3.439c0,.093,0,.188,0,.281,0,.244.007.489.011.735v.221a8.168,8.168,0,0,1-.16,1.705,1.979,1.979,0,0,1-.458.885l0,0a1.51,1.51,0,0,1-1.382.455,1.051,1.051,0,0,1-.917-1.05,1.453,1.453,0,0,1,.092-.46s.19-.515.336-.9a.188.188,0,0,0,.009-.056.162.162,0,0,0-.095-.147.167.167,0,0,0-.093-.018.172.172,0,0,0-.158.074c-.19.279-.367.572-.569.84a2.737,2.737,0,0,0-.607,1.169.582.582,0,0,0-.008.063c0,.021,0,.042-.007.062a1.569,1.569,0,0,0,0,.165c0,.028,0,.056,0,.083s0,.028,0,.042a1.832,1.832,0,0,0,1.74,1.473h.019c.105.009.21.013.315.012A3.126,3.126,0,0,0,23,24.355c1.122-.65,1.181-2.013,1.163-3.123-.011-.641-.008-1.285-.008-1.927Z" transform="translate(3.246 2.591)" fill="#005f61"/>
        </g>
        <g id="Group_57048" data-name="Group 57048">
          <path id="Path_126938" data-name="Path 126938" d="M35.862,9.117c-4.246,0-7.688,1.051-7.688,2.347s3.442,2.349,7.688,2.349,7.688-1.051,7.688-2.349S40.108,9.117,35.862,9.117Z" transform="translate(4.729 1.53)" fill="none" stroke="#005f61" stroke-miterlimit="10" stroke-width="2"/>
          <path id="Path_126939" data-name="Path 126939" d="M42.324,26.708a1.857,1.857,0,0,1,.774,1.379v.688c0,1.9-4.155,3.443-9.282,3.443a24.273,24.273,0,0,1-2.83-.162m11.337-8.79a1.857,1.857,0,0,1,.774,1.379v.688c0,1.9-4.155,3.443-9.282,3.443-.383,0-.761-.008-1.133-.026m9.64-8.927A1.857,1.857,0,0,1,43.1,21.2v.688c0,1.9-4.155,3.443-9.282,3.443q-.363,0-.718-.009m9.226-8.943a1.857,1.857,0,0,1,.774,1.379v.688c0,1.9-4.155,3.443-9.282,3.443-.422,0-.837-.011-1.244-.03M43.1,11.56V15c0,1.9-4.155,3.443-9.282,3.443a24.229,24.229,0,0,1-2.953-.178" transform="translate(5.18 1.94)" fill="none" stroke="#005f61" stroke-miterlimit="10" stroke-width="2"/>
          <path id="Path_126940" data-name="Path 126940" d="M0,0V2" transform="translate(26.823 12.501)" fill="none" stroke="#005f61" stroke-width="2"/>
        </g>
      </g>
    </g>
  </g>
</svg>
