<svg xmlns="http://www.w3.org/2000/svg" width="144.56" height="162.096" viewBox="0 0 144.56 162.096">
  <path id="block-wm-4BO" d="M398.332,14.91A33.871,33.871,0,0,0,364.84,4.172,4.947,4.947,0,0,1,359.957,2.6L357.509-.22,351.722,4.8l-5.273-6.315a3.9,3.9,0,0,0-4.356-1.16,3.9,3.9,0,0,0-1.124-1L333.63-8.024a3.907,3.907,0,0,0-1.991-.547,3.93,3.93,0,0,0-3.18,1.636,3.9,3.9,0,0,0-2.026-.569,3.923,3.923,0,0,0-.948.117l-8.078,2.014-3.7-5.858a3.887,3.887,0,0,0-2.963-1.807l-.936-5.957a4.021,4.021,0,0,0-.087-.405l5.387-.746-.512-3.7a4.946,4.946,0,0,1,2.028-4.713A33.872,33.872,0,0,0,330.58-60.844,33.89,33.89,0,0,0,304.168-89.32l-15.191,6.44-.06.826,13.973-.7.17,7.051a20.444,20.444,0,0,1,6.5,3.4,20.442,20.442,0,0,1,7.692,13.345,20.28,20.28,0,0,1-3.947,15.087,20.281,20.281,0,0,1-13.479,7.9,20.458,20.458,0,0,1-15.279-4.064,20.275,20.275,0,0,1-7.716-13.158,20.458,20.458,0,0,1,3.914-15.319,20.281,20.281,0,0,1,13.479-7.9,20.526,20.526,0,0,1,5.451-.029l-.067-2.778-14.325.721.487-6.676,11.553-4.895a34.149,34.149,0,0,0-4.946.322,33.877,33.877,0,0,0-28.908,38.2A33.871,33.871,0,0,0,285.675-24.27a4.947,4.947,0,0,1,3.233,3.984l.512,3.7,8.5-1.178a3.953,3.953,0,0,0,.047.631l1.324,8.427a3.889,3.889,0,0,0,3.859,3.3h.121a3.9,3.9,0,0,0,.3.575l4.552,7.214a3.892,3.892,0,0,0,3.31,1.817h0a3.9,3.9,0,0,0,2.084-.6l1.631-1.029.222.889a3.9,3.9,0,0,0,3.792,2.964h0a3.915,3.915,0,0,0,.948-.117l8.276-2.064a3.9,3.9,0,0,0,1.362-.636l5.111,3.028a3.874,3.874,0,0,0,3.1.382l4.71,5.64-4.746,4.12,2.448,2.82a4.947,4.947,0,0,1,.872,5.056,33.888,33.888,0,0,0,43.6,44.118l9.219-13.685-.4-.725-11.325,8.215-3.99-5.816a20.335,20.335,0,1,1,3.238-1.229l1.572,2.292,11.61-8.422L398,55.263l-7.01,10.406a33.892,33.892,0,0,0,7.344-50.759ZM303.348-8.59l-.076.012a.785.785,0,0,1-.118.009h0a.747.747,0,0,1-.731-.628L301.1-17.625a.74.74,0,0,1,.133-.553c.011-.015.025-.033.041-.051l5.166-.716a.743.743,0,0,1,.245.442l1.012,6.445-2.9,1.832a3.884,3.884,0,0,0-1.449,1.635Zm11,7.927L311.828.923a.727.727,0,0,1-.394.115h0A.741.741,0,0,1,310.8.691L306.642-5.9l1.238-.2a3.884,3.884,0,0,0,2.553-1.56,3.89,3.89,0,0,0,.706-1.713l3.672,5.82a3.9,3.9,0,0,0-.468,2.889Zm12.182,2.11-7.182,1.791a.747.747,0,0,1-.9-.541l-.519-2.08a3.927,3.927,0,0,0,.9-3.078l7.424-1.851a.751.751,0,0,1,.182-.023.735.735,0,0,1,.4.119l-.682,1.151a3.916,3.916,0,0,0,.372,4.511ZM337.743.661a3.883,3.883,0,0,0-1.388,2.651,4,4,0,0,0-.012.524L331.329.865a3.915,3.915,0,0,0-.1-1.359l-.867-3.478L331-5.039a.739.739,0,0,1,.642-.365.73.73,0,0,1,.377.1l7.339,4.348a.732.732,0,0,1,.163.131Zm2.64,4.322,1.957-3.3a3.917,3.917,0,0,0,.445-1.1l.187-.156a.733.733,0,0,1,.475-.173.743.743,0,0,1,.572.267l5.312,6.362L345.06,10.59Z" transform="translate(-262.612 90.57)" fill="#fff" stroke="rgba(0,0,0,0)" stroke-miterlimit="10" stroke-width="1" opacity="0.15"/>
</svg>
