<svg id="IiconLab2" xmlns="http://www.w3.org/2000/svg" xmlns:xlink="http://www.w3.org/1999/xlink" width="82" height="82" viewBox="0 0 82 82">
  <defs>
    <clipPath id="clip-path">
      <rect id="Rectangle_16226" data-name="Rectangle 16226" width="50" height="50" transform="translate(0.468 0.468)" fill="#005f61"/>
    </clipPath>
  </defs>
  <circle id="Ellipse_11171" data-name="Ellipse 11171" cx="41" cy="41" r="41" fill="#005f61" opacity="0.1"/>
  <g id="Picture2" transform="translate(15.532 15.523)" clip-path="url(#clip-path)">
    <path id="Path_126925" data-name="Path 126925" d="M32.519,13.333a1.431,1.431,0,1,0,1.439,1.431A1.437,1.437,0,0,0,32.519,13.333Z" transform="translate(10.58 4.539)" fill="#005f61"/>
    <path id="Path_126926" data-name="Path 126926" d="M32.519,32.439a1.431,1.431,0,1,0,1.439,1.431A1.437,1.437,0,0,0,32.519,32.439Z" transform="translate(10.58 11.043)" fill="#005f61"/>
    <path id="Path_126927" data-name="Path 126927" d="M19.709,14.748H8.963a4.184,4.184,0,0,0-4.19,4.168V24.25h2.88V20.922a.466.466,0,0,1,.932,0V24.25H20.042V20.922a.466.466,0,0,1,.932,0V24.25h2.879V18.871A4.139,4.139,0,0,0,19.709,14.748Z" transform="translate(1.625 5.021)" fill="#005f61"/>
    <path id="Path_126928" data-name="Path 126928" d="M32.519,23.24a1.431,1.431,0,1,0,1.439,1.431A1.437,1.437,0,0,0,32.519,23.24Z" transform="translate(10.58 7.912)" fill="#005f61"/>
    <path id="Path_126929" data-name="Path 126929" d="M32.519,7a1.431,1.431,0,1,0-1.44-1.431A1.437,1.437,0,0,0,32.519,7Z" transform="translate(10.58 1.407)" fill="#005f61"/>
    <path id="Path_126930" data-name="Path 126930" d="M13.25,13.868A5.294,5.294,0,0,0,18.6,8.648a5.354,5.354,0,0,0-10.7,0A5.294,5.294,0,0,0,13.25,13.868Z" transform="translate(2.689 1.167)" fill="#005f61"/>
    <path id="Path_126931" data-name="Path 126931" d="M7.618,37.725h5.262V26.809a.466.466,0,0,1,.932,0V37.725h5.262V22.532H7.618Z" transform="translate(2.593 7.671)" fill="#005f61"/>
    <path id="Path_126932" data-name="Path 126932" d="M30.184,5.786a.466.466,0,0,0,0-.932H25.419a.466.466,0,0,0-.466.466V17.185H21.607a.466.466,0,1,0,0,.932h3.346V30.464H21.607a.466.466,0,1,0,0,.932h3.346V43.26a.466.466,0,0,0,.466.466h3.812a.466.466,0,1,0,0-.932H25.885V31.4h4.3a.466.466,0,0,0,0-.932h-4.3V18.117h4.3a.466.466,0,0,0,0-.932h-4.3V5.786Z" transform="translate(7.197 1.652)" fill="#005f61"/>
  </g>
</svg>
