<svg id="IiconLab1" xmlns="http://www.w3.org/2000/svg" width="82" height="82" viewBox="0 0 82 82">
  <circle id="Ellipse_11171" data-name="Ellipse 11171" cx="41" cy="41" r="41" fill="#005f61" opacity="0.1"/>
  <g id="Group_57193" data-name="Group 57193" transform="translate(14.897 14.889)">
    <path id="Path_126920" data-name="Path 126920" d="M15.888,29.761l-2.671-.408-.693-7.341a5.916,5.916,0,1,0-11.807.755l.734,7.688a5.9,5.9,0,0,0,3.793,5.159A3.848,3.848,0,0,0,7.1,36l5.608.265a1.008,1.008,0,0,0,1.06-.959,1.02,1.02,0,0,0-.958-1.06l-5.669-.265h-.1A1.77,1.77,0,0,1,6.12,33.8.291.291,0,0,0,6,33.758a3.92,3.92,0,0,1-2.549-3.446L2.735,22.6a3.891,3.891,0,1,1,7.77-.449l.734,7.688v.347a1,1,0,0,0,.856,1.02l3.487.55a.858.858,0,0,1,.734.857v8.5a1.02,1.02,0,1,0,2.039,0v-8.5A2.948,2.948,0,0,0,15.888,29.761Z" transform="translate(0.263 6.15)" fill="#005f61"/>
    <path id="Path_126921" data-name="Path 126921" d="M6.712,17.655a5.3,5.3,0,1,0-5.3-5.3A5.318,5.318,0,0,0,6.712,17.655Zm0-8.585a3.283,3.283,0,1,1-3.283,3.283A3.281,3.281,0,0,1,6.712,9.07Z" transform="translate(0.527 2.636)" fill="#005f61"/>
    <path id="Path_126922" data-name="Path 126922" d="M36.535,16.465a5.918,5.918,0,0,0-6.26,5.506l-.693,7.382-2.672.408a2.893,2.893,0,0,0-2.447,2.855v8.5a1.023,1.023,0,0,0,1.02,1.02,1.01,1.01,0,0,0,1.02-1.02v-8.5a.873.873,0,0,1,.734-.857l3.487-.55a1,1,0,0,0,.857-1.02v-.306l.734-7.749a3.891,3.891,0,0,1,7.77.428l-.734,7.749a3.892,3.892,0,0,1-2.529,3.406.289.289,0,0,1-.122.041,1.769,1.769,0,0,1-.918.184h-.1l-5.669.265a1.006,1.006,0,0,0-.959,1.06.994.994,0,0,0,1.06.958l5.608-.265a3.9,3.9,0,0,0,1.856-.387,5.94,5.94,0,0,0,3.793-5.139l.734-7.749A5.917,5.917,0,0,0,36.535,16.465Z" transform="translate(9.145 6.15)" fill="#005f61"/>
    <path id="Path_126923" data-name="Path 126923" d="M34.173,17.655a5.3,5.3,0,1,0-5.3-5.3A5.318,5.318,0,0,0,34.173,17.655Zm0-8.585a3.283,3.283,0,1,1-3.283,3.283A3.281,3.281,0,0,1,34.173,9.07Z" transform="translate(10.793 2.636)" fill="#005f61"/>
    <path id="Path_126924" data-name="Path 126924" d="M32.308,16.717V3.931A1.088,1.088,0,0,0,31.227,2.85H12.466a1.088,1.088,0,0,0-1.081,1.081V16.717A1.088,1.088,0,0,0,12.466,17.8h5.241l3.426,3.426a.985.985,0,0,0,1.427,0L25.986,17.8h5.241A1.075,1.075,0,0,0,32.308,16.717Zm-2.019-.938H25.558a.957.957,0,0,0-.714.306l-3,3-3-3.018a1.039,1.039,0,0,0-.714-.306H13.4V4.889H30.289Z" transform="translate(4.256 1.065)" fill="#005f61"/>
  </g>
</svg>
