<svg xmlns="http://www.w3.org/2000/svg" width="268" height="268" viewBox="0 0 268 268">
  <g id="lampGreen2" transform="translate(-1213 -3520.5)">
    <circle id="Ellipse_11156" data-name="Ellipse 11156" cx="134" cy="134" r="134" transform="translate(1213 3520.5)" fill="#005f61"/>
    <path id="Path_126954" data-name="Path 126954" d="M228.408,110.763a5.266,5.266,0,0,0-.319-6.258c-1.475-1.96-4.1-2.741-6.918-2.741h-61.71L172.745,7.686C173.2,4.5,170.771,1.193,166.99.279A10.016,10.016,0,0,0,164.639,0a8.44,8.44,0,0,0-7.225,3.671l-83.456,136.6A6.044,6.044,0,0,0,74.324,147a9,9,0,0,0,6.9,3.532h60.9l-12.484,90.537c-.436,3.177,1.98,5.849,5.74,6.765a9.761,9.761,0,0,0,2.327.24,8.484,8.484,0,0,0,7.237-3.618l83.466-133.688Z" transform="translate(1195.892 3536.183)" fill="#004a4b" opacity="0.45"/>
    <g id="Group_57195" data-name="Group 57195" transform="translate(1219.189 3562.23)">
      <path id="Path_126951" data-name="Path 126951" d="M62.99,71.886H53.925a2.733,2.733,0,0,0,0,5.465H62.99a2.733,2.733,0,0,0,0-5.465Zm134.707,0h-9.065a2.733,2.733,0,1,0,0,5.465H197.7a2.733,2.733,0,1,0,0-5.465ZM83.322,117.108a2.732,2.732,0,0,0-3.864,0l-6.41,6.41a2.733,2.733,0,0,0,3.864,3.864l6.41-6.41a2.733,2.733,0,0,0,0-3.864Zm95.253-95.252a2.733,2.733,0,0,0-3.865,0l-6.41,6.41a2.733,2.733,0,0,0,3.865,3.865l6.41-6.41a2.732,2.732,0,0,0,0-3.864ZM125.811,0a2.732,2.732,0,0,0-2.732,2.733V11.8a2.733,2.733,0,1,0,5.465,0V2.733A2.733,2.733,0,0,0,125.811,0Zm52.763,123.518-6.41-6.41a2.733,2.733,0,1,0-3.865,3.865l6.41,6.41a2.733,2.733,0,1,0,3.865-3.865ZM83.322,28.266l-6.41-6.41a2.733,2.733,0,0,0-3.864,3.865l6.41,6.41a2.733,2.733,0,0,0,3.864-3.864Zm97,39.659a54.955,54.955,0,0,0-47.808-48.031,2.733,2.733,0,1,0-.662,5.425A49.217,49.217,0,0,1,174.9,68.561a2.733,2.733,0,0,0,5.429-.636Z" transform="translate(0)" fill="#c6aa76"/>
      <g id="Group_57196" data-name="Group 57196" transform="translate(105.747 54.556)">
        <path id="Path_126950" data-name="Path 126950" d="M184.872,111.164H180.7a14.5,14.5,0,0,0-.969-2.341l2.948-2.948a1.951,1.951,0,0,0,0-2.759l-3.469-3.47a1.954,1.954,0,0,0-2.759,0l-2.948,2.948a14.494,14.494,0,0,0-2.341-.969V97.456a1.954,1.954,0,0,0-1.951-1.951h-4.907a1.953,1.953,0,0,0-1.951,1.951v4.169a14.51,14.51,0,0,0-2.341.969l-2.948-2.948a1.954,1.954,0,0,0-2.759,0l-3.469,3.469a1.951,1.951,0,0,0,0,2.759l2.948,2.948a14.491,14.491,0,0,0-.969,2.341h-4.169a1.953,1.953,0,0,0-1.951,1.951v4.907a1.953,1.953,0,0,0,1.951,1.951h4.169a14.5,14.5,0,0,0,.969,2.341l-2.948,2.948a1.953,1.953,0,0,0,0,2.759l3.469,3.469a1.953,1.953,0,0,0,2.759,0l2.948-2.948a14.5,14.5,0,0,0,2.341.969v4.169a1.953,1.953,0,0,0,1.951,1.951h4.907a1.953,1.953,0,0,0,1.951-1.951V129.51a14.5,14.5,0,0,0,2.341-.969l2.948,2.948a1.953,1.953,0,0,0,2.759,0l3.469-3.469a1.951,1.951,0,0,0,0-2.759l-2.948-2.948a14.493,14.493,0,0,0,.969-2.341h4.169a1.953,1.953,0,0,0,1.951-1.951v-4.907A1.953,1.953,0,0,0,184.872,111.164Zm-.8,6.055h-4.416a1.377,1.377,0,0,0-1.34,1.063,11.771,11.771,0,0,1-1.464,3.536,1.377,1.377,0,0,0,.2,1.7l3.122,3.122-2.334,2.334-3.122-3.122a1.377,1.377,0,0,0-1.7-.2,11.781,11.781,0,0,1-3.536,1.465,1.376,1.376,0,0,0-1.063,1.34v4.416h-3.3v-4.416a1.377,1.377,0,0,0-1.063-1.34,11.765,11.765,0,0,1-3.536-1.465,1.377,1.377,0,0,0-1.7.2l-3.122,3.122-2.334-2.334,3.122-3.122a1.377,1.377,0,0,0,.2-1.7,11.775,11.775,0,0,1-1.464-3.536,1.377,1.377,0,0,0-1.34-1.063h-4.416v-3.3h4.416a1.377,1.377,0,0,0,1.34-1.063,11.775,11.775,0,0,1,1.464-3.536,1.377,1.377,0,0,0-.2-1.7l-3.122-3.122,2.334-2.334,3.122,3.122a1.377,1.377,0,0,0,1.7.2,11.771,11.771,0,0,1,3.536-1.464,1.376,1.376,0,0,0,1.063-1.34V98.258h3.3v4.416a1.377,1.377,0,0,0,1.063,1.34,11.777,11.777,0,0,1,3.536,1.464,1.378,1.378,0,0,0,1.7-.2l3.122-3.122,2.334,2.334-3.122,3.122a1.377,1.377,0,0,0-.2,1.7,11.776,11.776,0,0,1,1.464,3.537,1.377,1.377,0,0,0,1.34,1.063h4.416Z" transform="translate(-146.697 -95.505)" fill="#c6aa76"/>
        <path id="Path_126953" data-name="Path 126953" d="M109.683,51.116a7.375,7.375,0,1,0,7.375,7.375A7.383,7.383,0,0,0,109.683,51.116Zm0,12a4.622,4.622,0,1,1,4.622-4.622A4.627,4.627,0,0,1,109.683,63.113Z" transform="translate(-89.62 -38.428)" fill="#c6aa76"/>
      </g>
      <g id="Group_57197" data-name="Group 57197" transform="translate(136.672 36.196)">
        <path id="Path_126950-2" data-name="Path 126950" d="M168.454,104.429h-2.376a8.264,8.264,0,0,0-.552-1.334l1.68-1.68a1.112,1.112,0,0,0,0-1.572l-1.977-1.977a1.113,1.113,0,0,0-1.572,0l-1.68,1.68a8.261,8.261,0,0,0-1.334-.552V96.617a1.113,1.113,0,0,0-1.112-1.112h-2.8a1.113,1.113,0,0,0-1.112,1.112v2.376a8.271,8.271,0,0,0-1.334.552l-1.68-1.68a1.113,1.113,0,0,0-1.572,0l-1.977,1.977a1.112,1.112,0,0,0,0,1.572l1.68,1.68a8.257,8.257,0,0,0-.552,1.334h-2.376a1.113,1.113,0,0,0-1.112,1.112v2.8a1.113,1.113,0,0,0,1.112,1.112h2.376a8.267,8.267,0,0,0,.552,1.334l-1.68,1.68a1.113,1.113,0,0,0,0,1.572l1.977,1.977a1.113,1.113,0,0,0,1.572,0l1.68-1.68a8.262,8.262,0,0,0,1.334.552v2.376a1.113,1.113,0,0,0,1.112,1.112h2.8a1.113,1.113,0,0,0,1.112-1.112v-2.376a8.264,8.264,0,0,0,1.334-.552l1.68,1.68a1.113,1.113,0,0,0,1.573,0l1.977-1.977a1.112,1.112,0,0,0,0-1.572l-1.68-1.68a8.26,8.26,0,0,0,.552-1.334h2.376a1.113,1.113,0,0,0,1.112-1.112v-2.8A1.113,1.113,0,0,0,168.454,104.429ZM168,107.88H165.48a.785.785,0,0,0-.764.606,6.709,6.709,0,0,1-.835,2.016.785.785,0,0,0,.112.969l1.78,1.78-1.33,1.33-1.78-1.78a.785.785,0,0,0-.969-.112,6.714,6.714,0,0,1-2.015.835.784.784,0,0,0-.606.764V116.8h-1.881v-2.517a.785.785,0,0,0-.606-.764,6.705,6.705,0,0,1-2.016-.835.785.785,0,0,0-.969.112l-1.78,1.78-1.33-1.33,1.78-1.78a.785.785,0,0,0,.112-.969,6.71,6.71,0,0,1-.835-2.016.785.785,0,0,0-.764-.606h-2.517V106h2.517a.785.785,0,0,0,.764-.606,6.71,6.71,0,0,1,.835-2.016.785.785,0,0,0-.112-.969l-1.78-1.78,1.33-1.33,1.78,1.78a.785.785,0,0,0,.969.112,6.708,6.708,0,0,1,2.016-.835.784.784,0,0,0,.606-.764V97.074h1.881v2.517a.785.785,0,0,0,.606.764,6.712,6.712,0,0,1,2.016.835.785.785,0,0,0,.969-.112l1.78-1.78,1.33,1.33-1.78,1.78a.785.785,0,0,0-.112.969,6.711,6.711,0,0,1,.835,2.016.785.785,0,0,0,.764.606H168Z" transform="translate(-146.697 -95.505)" fill="#c6aa76"/>
        <path id="Path_126953-2" data-name="Path 126953" d="M106.511,51.116a4.2,4.2,0,1,0,4.2,4.2A4.208,4.208,0,0,0,106.511,51.116Zm0,6.837a2.634,2.634,0,1,1,2.634-2.634A2.637,2.637,0,0,1,106.511,57.953Z" transform="translate(-95.077 -43.885)" fill="#c6aa76"/>
      </g>
      <g id="Group_57200" data-name="Group 57200" transform="translate(92.081 36.196)">
        <path id="Path_126950-3" data-name="Path 126950" d="M168.454,104.429h-2.376a8.264,8.264,0,0,0-.552-1.334l1.68-1.68a1.112,1.112,0,0,0,0-1.572l-1.977-1.977a1.113,1.113,0,0,0-1.572,0l-1.68,1.68a8.261,8.261,0,0,0-1.334-.552V96.617a1.113,1.113,0,0,0-1.112-1.112h-2.8a1.113,1.113,0,0,0-1.112,1.112v2.376a8.271,8.271,0,0,0-1.334.552l-1.68-1.68a1.113,1.113,0,0,0-1.572,0l-1.977,1.977a1.112,1.112,0,0,0,0,1.572l1.68,1.68a8.257,8.257,0,0,0-.552,1.334h-2.376a1.113,1.113,0,0,0-1.112,1.112v2.8a1.113,1.113,0,0,0,1.112,1.112h2.376a8.267,8.267,0,0,0,.552,1.334l-1.68,1.68a1.113,1.113,0,0,0,0,1.572l1.977,1.977a1.113,1.113,0,0,0,1.572,0l1.68-1.68a8.262,8.262,0,0,0,1.334.552v2.376a1.113,1.113,0,0,0,1.112,1.112h2.8a1.113,1.113,0,0,0,1.112-1.112v-2.376a8.264,8.264,0,0,0,1.334-.552l1.68,1.68a1.113,1.113,0,0,0,1.573,0l1.977-1.977a1.112,1.112,0,0,0,0-1.572l-1.68-1.68a8.26,8.26,0,0,0,.552-1.334h2.376a1.113,1.113,0,0,0,1.112-1.112v-2.8A1.113,1.113,0,0,0,168.454,104.429ZM168,107.88H165.48a.785.785,0,0,0-.764.606,6.709,6.709,0,0,1-.835,2.016.785.785,0,0,0,.112.969l1.78,1.78-1.33,1.33-1.78-1.78a.785.785,0,0,0-.969-.112,6.714,6.714,0,0,1-2.015.835.784.784,0,0,0-.606.764V116.8h-1.881v-2.517a.785.785,0,0,0-.606-.764,6.705,6.705,0,0,1-2.016-.835.785.785,0,0,0-.969.112l-1.78,1.78-1.33-1.33,1.78-1.78a.785.785,0,0,0,.112-.969,6.71,6.71,0,0,1-.835-2.016.785.785,0,0,0-.764-.606h-2.517V106h2.517a.785.785,0,0,0,.764-.606,6.71,6.71,0,0,1,.835-2.016.785.785,0,0,0-.112-.969l-1.78-1.78,1.33-1.33,1.78,1.78a.785.785,0,0,0,.969.112,6.708,6.708,0,0,1,2.016-.835.784.784,0,0,0,.606-.764V97.074h1.881v2.517a.785.785,0,0,0,.606.764,6.712,6.712,0,0,1,2.016.835.785.785,0,0,0,.969-.112l1.78-1.78,1.33,1.33-1.78,1.78a.785.785,0,0,0-.112.969,6.711,6.711,0,0,1,.835,2.016.785.785,0,0,0,.764.606H168Z" transform="translate(-146.697 -95.505)" fill="#c6aa76"/>
        <path id="Path_126953-3" data-name="Path 126953" d="M106.511,51.116a4.2,4.2,0,1,0,4.2,4.2A4.208,4.208,0,0,0,106.511,51.116Zm0,6.837a2.634,2.634,0,1,1,2.634-2.634A2.637,2.637,0,0,1,106.511,57.953Z" transform="translate(-95.077 -43.885)" fill="#c6aa76"/>
      </g>
      <g id="Group_57201" data-name="Group 57201" transform="translate(80.647 70.224)">
        <path id="Path_126950-4" data-name="Path 126950" d="M168.454,104.429h-2.376a8.264,8.264,0,0,0-.552-1.334l1.68-1.68a1.112,1.112,0,0,0,0-1.572l-1.977-1.977a1.113,1.113,0,0,0-1.572,0l-1.68,1.68a8.261,8.261,0,0,0-1.334-.552V96.617a1.113,1.113,0,0,0-1.112-1.112h-2.8a1.113,1.113,0,0,0-1.112,1.112v2.376a8.271,8.271,0,0,0-1.334.552l-1.68-1.68a1.113,1.113,0,0,0-1.572,0l-1.977,1.977a1.112,1.112,0,0,0,0,1.572l1.68,1.68a8.257,8.257,0,0,0-.552,1.334h-2.376a1.113,1.113,0,0,0-1.112,1.112v2.8a1.113,1.113,0,0,0,1.112,1.112h2.376a8.267,8.267,0,0,0,.552,1.334l-1.68,1.68a1.113,1.113,0,0,0,0,1.572l1.977,1.977a1.113,1.113,0,0,0,1.572,0l1.68-1.68a8.262,8.262,0,0,0,1.334.552v2.376a1.113,1.113,0,0,0,1.112,1.112h2.8a1.113,1.113,0,0,0,1.112-1.112v-2.376a8.264,8.264,0,0,0,1.334-.552l1.68,1.68a1.113,1.113,0,0,0,1.573,0l1.977-1.977a1.112,1.112,0,0,0,0-1.572l-1.68-1.68a8.26,8.26,0,0,0,.552-1.334h2.376a1.113,1.113,0,0,0,1.112-1.112v-2.8A1.113,1.113,0,0,0,168.454,104.429ZM168,107.88H165.48a.785.785,0,0,0-.764.606,6.709,6.709,0,0,1-.835,2.016.785.785,0,0,0,.112.969l1.78,1.78-1.33,1.33-1.78-1.78a.785.785,0,0,0-.969-.112,6.714,6.714,0,0,1-2.015.835.784.784,0,0,0-.606.764V116.8h-1.881v-2.517a.785.785,0,0,0-.606-.764,6.705,6.705,0,0,1-2.016-.835.785.785,0,0,0-.969.112l-1.78,1.78-1.33-1.33,1.78-1.78a.785.785,0,0,0,.112-.969,6.71,6.71,0,0,1-.835-2.016.785.785,0,0,0-.764-.606h-2.517V106h2.517a.785.785,0,0,0,.764-.606,6.71,6.71,0,0,1,.835-2.016.785.785,0,0,0-.112-.969l-1.78-1.78,1.33-1.33,1.78,1.78a.785.785,0,0,0,.969.112,6.708,6.708,0,0,1,2.016-.835.784.784,0,0,0,.606-.764V97.074h1.881v2.517a.785.785,0,0,0,.606.764,6.712,6.712,0,0,1,2.016.835.785.785,0,0,0,.969-.112l1.78-1.78,1.33,1.33-1.78,1.78a.785.785,0,0,0-.112.969,6.711,6.711,0,0,1,.835,2.016.785.785,0,0,0,.764.606H168Z" transform="translate(-146.697 -95.505)" fill="#c6aa76"/>
        <path id="Path_126953-4" data-name="Path 126953" d="M106.511,51.116a4.2,4.2,0,1,0,4.2,4.2A4.208,4.208,0,0,0,106.511,51.116Zm0,6.837a2.634,2.634,0,1,1,2.634-2.634A2.637,2.637,0,0,1,106.511,57.953Z" transform="translate(-95.077 -43.885)" fill="#c6aa76"/>
      </g>
      <g id="Group_57198" data-name="Group 57198" transform="translate(148.105 70.224)">
        <path id="Path_126950-5" data-name="Path 126950" d="M168.454,104.429h-2.376a8.264,8.264,0,0,0-.552-1.334l1.68-1.68a1.112,1.112,0,0,0,0-1.572l-1.977-1.977a1.113,1.113,0,0,0-1.572,0l-1.68,1.68a8.261,8.261,0,0,0-1.334-.552V96.617a1.113,1.113,0,0,0-1.112-1.112h-2.8a1.113,1.113,0,0,0-1.112,1.112v2.376a8.271,8.271,0,0,0-1.334.552l-1.68-1.68a1.113,1.113,0,0,0-1.572,0l-1.977,1.977a1.112,1.112,0,0,0,0,1.572l1.68,1.68a8.257,8.257,0,0,0-.552,1.334h-2.376a1.113,1.113,0,0,0-1.112,1.112v2.8a1.113,1.113,0,0,0,1.112,1.112h2.376a8.267,8.267,0,0,0,.552,1.334l-1.68,1.68a1.113,1.113,0,0,0,0,1.572l1.977,1.977a1.113,1.113,0,0,0,1.572,0l1.68-1.68a8.262,8.262,0,0,0,1.334.552v2.376a1.113,1.113,0,0,0,1.112,1.112h2.8a1.113,1.113,0,0,0,1.112-1.112v-2.376a8.264,8.264,0,0,0,1.334-.552l1.68,1.68a1.113,1.113,0,0,0,1.573,0l1.977-1.977a1.112,1.112,0,0,0,0-1.572l-1.68-1.68a8.26,8.26,0,0,0,.552-1.334h2.376a1.113,1.113,0,0,0,1.112-1.112v-2.8A1.113,1.113,0,0,0,168.454,104.429ZM168,107.88H165.48a.785.785,0,0,0-.764.606,6.709,6.709,0,0,1-.835,2.016.785.785,0,0,0,.112.969l1.78,1.78-1.33,1.33-1.78-1.78a.785.785,0,0,0-.969-.112,6.714,6.714,0,0,1-2.015.835.784.784,0,0,0-.606.764V116.8h-1.881v-2.517a.785.785,0,0,0-.606-.764,6.705,6.705,0,0,1-2.016-.835.785.785,0,0,0-.969.112l-1.78,1.78-1.33-1.33,1.78-1.78a.785.785,0,0,0,.112-.969,6.71,6.71,0,0,1-.835-2.016.785.785,0,0,0-.764-.606h-2.517V106h2.517a.785.785,0,0,0,.764-.606,6.71,6.71,0,0,1,.835-2.016.785.785,0,0,0-.112-.969l-1.78-1.78,1.33-1.33,1.78,1.78a.785.785,0,0,0,.969.112,6.708,6.708,0,0,1,2.016-.835.784.784,0,0,0,.606-.764V97.074h1.881v2.517a.785.785,0,0,0,.606.764,6.712,6.712,0,0,1,2.016.835.785.785,0,0,0,.969-.112l1.78-1.78,1.33,1.33-1.78,1.78a.785.785,0,0,0-.112.969,6.711,6.711,0,0,1,.835,2.016.785.785,0,0,0,.764.606H168Z" transform="translate(-146.697 -95.505)" fill="#c6aa76"/>
        <path id="Path_126953-5" data-name="Path 126953" d="M106.511,51.116a4.2,4.2,0,1,0,4.2,4.2A4.208,4.208,0,0,0,106.511,51.116Zm0,6.837a2.634,2.634,0,1,1,2.634-2.634A2.637,2.637,0,0,1,106.511,57.953Z" transform="translate(-95.077 -43.885)" fill="#c6aa76"/>
      </g>
      <g id="Group_57202" data-name="Group 57202" transform="translate(140.77 93.098)">
        <path id="Path_126950-6" data-name="Path 126950" d="M160.655,101.23H159.13a5.3,5.3,0,0,0-.354-.856l1.078-1.078a.713.713,0,0,0,0-1.009l-1.268-1.269a.714.714,0,0,0-1.009,0L156.5,98.1a5.3,5.3,0,0,0-.856-.354V96.218a.714.714,0,0,0-.713-.713h-1.794a.714.714,0,0,0-.713.713v1.524a5.308,5.308,0,0,0-.856.354l-1.078-1.078a.714.714,0,0,0-1.009,0l-1.268,1.268a.713.713,0,0,0,0,1.009l1.078,1.078a5.3,5.3,0,0,0-.354.856H147.41a.714.714,0,0,0-.713.713v1.794a.714.714,0,0,0,.713.713h1.524a5.3,5.3,0,0,0,.354.856l-1.078,1.078a.714.714,0,0,0,0,1.009l1.268,1.268a.714.714,0,0,0,1.009,0l1.078-1.078a5.3,5.3,0,0,0,.856.354v1.524a.714.714,0,0,0,.713.713h1.794a.714.714,0,0,0,.713-.713v-1.524a5.3,5.3,0,0,0,.856-.354l1.078,1.078a.714.714,0,0,0,1.009,0l1.268-1.268a.713.713,0,0,0,0-1.009l-1.078-1.078a5.3,5.3,0,0,0,.354-.856h1.524a.714.714,0,0,0,.713-.713v-1.794A.714.714,0,0,0,160.655,101.23Zm-.293,2.214h-1.615a.5.5,0,0,0-.49.389,4.3,4.3,0,0,1-.535,1.293.5.5,0,0,0,.072.622l1.142,1.142-.854.854-1.142-1.142a.5.5,0,0,0-.622-.072,4.307,4.307,0,0,1-1.293.535.5.5,0,0,0-.389.49v1.615h-1.207v-1.615a.5.5,0,0,0-.389-.49,4.3,4.3,0,0,1-1.293-.535.5.5,0,0,0-.622.072l-1.142,1.142-.854-.854,1.142-1.142a.5.5,0,0,0,.072-.622,4.305,4.305,0,0,1-.535-1.293.5.5,0,0,0-.49-.389H147.7v-1.207h1.615a.5.5,0,0,0,.49-.389,4.305,4.305,0,0,1,.535-1.293.5.5,0,0,0-.072-.622l-1.142-1.142.854-.854,1.142,1.142a.5.5,0,0,0,.622.072,4.3,4.3,0,0,1,1.293-.535.5.5,0,0,0,.389-.49V96.512h1.207v1.615a.5.5,0,0,0,.389.49,4.306,4.306,0,0,1,1.293.535.5.5,0,0,0,.622-.072l1.142-1.142.854.854-1.142,1.142a.5.5,0,0,0-.072.622,4.305,4.305,0,0,1,.535,1.293.5.5,0,0,0,.49.389h1.615Z" transform="translate(-146.697 -95.505)" fill="#c6aa76"/>
        <path id="Path_126953-6" data-name="Path 126953" d="M105,51.116a2.7,2.7,0,1,0,2.7,2.7A2.7,2.7,0,0,0,105,51.116Zm0,4.386a1.69,1.69,0,1,1,1.69-1.69A1.692,1.692,0,0,1,105,55.5Z" transform="translate(-97.669 -46.477)" fill="#c6aa76"/>
      </g>
      <g id="Group_57203" data-name="Group 57203" transform="translate(118.475 35.306)">
        <path id="Path_126950-7" data-name="Path 126950" d="M160.655,101.23H159.13a5.3,5.3,0,0,0-.354-.856l1.078-1.078a.713.713,0,0,0,0-1.009l-1.268-1.269a.714.714,0,0,0-1.009,0L156.5,98.1a5.3,5.3,0,0,0-.856-.354V96.218a.714.714,0,0,0-.713-.713h-1.794a.714.714,0,0,0-.713.713v1.524a5.308,5.308,0,0,0-.856.354l-1.078-1.078a.714.714,0,0,0-1.009,0l-1.268,1.268a.713.713,0,0,0,0,1.009l1.078,1.078a5.3,5.3,0,0,0-.354.856H147.41a.714.714,0,0,0-.713.713v1.794a.714.714,0,0,0,.713.713h1.524a5.3,5.3,0,0,0,.354.856l-1.078,1.078a.714.714,0,0,0,0,1.009l1.268,1.268a.714.714,0,0,0,1.009,0l1.078-1.078a5.3,5.3,0,0,0,.856.354v1.524a.714.714,0,0,0,.713.713h1.794a.714.714,0,0,0,.713-.713v-1.524a5.3,5.3,0,0,0,.856-.354l1.078,1.078a.714.714,0,0,0,1.009,0l1.268-1.268a.713.713,0,0,0,0-1.009l-1.078-1.078a5.3,5.3,0,0,0,.354-.856h1.524a.714.714,0,0,0,.713-.713v-1.794A.714.714,0,0,0,160.655,101.23Zm-.293,2.214h-1.615a.5.5,0,0,0-.49.389,4.3,4.3,0,0,1-.535,1.293.5.5,0,0,0,.072.622l1.142,1.142-.854.854-1.142-1.142a.5.5,0,0,0-.622-.072,4.307,4.307,0,0,1-1.293.535.5.5,0,0,0-.389.49v1.615h-1.207v-1.615a.5.5,0,0,0-.389-.49,4.3,4.3,0,0,1-1.293-.535.5.5,0,0,0-.622.072l-1.142,1.142-.854-.854,1.142-1.142a.5.5,0,0,0,.072-.622,4.305,4.305,0,0,1-.535-1.293.5.5,0,0,0-.49-.389H147.7v-1.207h1.615a.5.5,0,0,0,.49-.389,4.305,4.305,0,0,1,.535-1.293.5.5,0,0,0-.072-.622l-1.142-1.142.854-.854,1.142,1.142a.5.5,0,0,0,.622.072,4.3,4.3,0,0,1,1.293-.535.5.5,0,0,0,.389-.49V96.512h1.207v1.615a.5.5,0,0,0,.389.49,4.306,4.306,0,0,1,1.293.535.5.5,0,0,0,.622-.072l1.142-1.142.854.854-1.142,1.142a.5.5,0,0,0-.072.622,4.305,4.305,0,0,1,.535,1.293.5.5,0,0,0,.49.389h1.615Z" transform="translate(-146.697 -95.505)" fill="#c6aa76"/>
        <path id="Path_126953-7" data-name="Path 126953" d="M105,51.116a2.7,2.7,0,1,0,2.7,2.7A2.7,2.7,0,0,0,105,51.116Zm0,4.386a1.69,1.69,0,1,1,1.69-1.69A1.692,1.692,0,0,1,105,55.5Z" transform="translate(-97.669 -46.477)" fill="#c6aa76"/>
      </g>
      <g id="Group_57204" data-name="Group 57204" transform="translate(96.181 93.098)">
        <path id="Path_126950-8" data-name="Path 126950" d="M160.655,101.23H159.13a5.3,5.3,0,0,0-.354-.856l1.078-1.078a.713.713,0,0,0,0-1.009l-1.268-1.269a.714.714,0,0,0-1.009,0L156.5,98.1a5.3,5.3,0,0,0-.856-.354V96.218a.714.714,0,0,0-.713-.713h-1.794a.714.714,0,0,0-.713.713v1.524a5.308,5.308,0,0,0-.856.354l-1.078-1.078a.714.714,0,0,0-1.009,0l-1.268,1.268a.713.713,0,0,0,0,1.009l1.078,1.078a5.3,5.3,0,0,0-.354.856H147.41a.714.714,0,0,0-.713.713v1.794a.714.714,0,0,0,.713.713h1.524a5.3,5.3,0,0,0,.354.856l-1.078,1.078a.714.714,0,0,0,0,1.009l1.268,1.268a.714.714,0,0,0,1.009,0l1.078-1.078a5.3,5.3,0,0,0,.856.354v1.524a.714.714,0,0,0,.713.713h1.794a.714.714,0,0,0,.713-.713v-1.524a5.3,5.3,0,0,0,.856-.354l1.078,1.078a.714.714,0,0,0,1.009,0l1.268-1.268a.713.713,0,0,0,0-1.009l-1.078-1.078a5.3,5.3,0,0,0,.354-.856h1.524a.714.714,0,0,0,.713-.713v-1.794A.714.714,0,0,0,160.655,101.23Zm-.293,2.214h-1.615a.5.5,0,0,0-.49.389,4.3,4.3,0,0,1-.535,1.293.5.5,0,0,0,.072.622l1.142,1.142-.854.854-1.142-1.142a.5.5,0,0,0-.622-.072,4.307,4.307,0,0,1-1.293.535.5.5,0,0,0-.389.49v1.615h-1.207v-1.615a.5.5,0,0,0-.389-.49,4.3,4.3,0,0,1-1.293-.535.5.5,0,0,0-.622.072l-1.142,1.142-.854-.854,1.142-1.142a.5.5,0,0,0,.072-.622,4.305,4.305,0,0,1-.535-1.293.5.5,0,0,0-.49-.389H147.7v-1.207h1.615a.5.5,0,0,0,.49-.389,4.305,4.305,0,0,1,.535-1.293.5.5,0,0,0-.072-.622l-1.142-1.142.854-.854,1.142,1.142a.5.5,0,0,0,.622.072,4.3,4.3,0,0,1,1.293-.535.5.5,0,0,0,.389-.49V96.512h1.207v1.615a.5.5,0,0,0,.389.49,4.306,4.306,0,0,1,1.293.535.5.5,0,0,0,.622-.072l1.142-1.142.854.854-1.142,1.142a.5.5,0,0,0-.072.622,4.305,4.305,0,0,1,.535,1.293.5.5,0,0,0,.49.389h1.615Z" transform="translate(-146.697 -95.505)" fill="#c6aa76"/>
        <path id="Path_126953-8" data-name="Path 126953" d="M105,51.116a2.7,2.7,0,1,0,2.7,2.7A2.7,2.7,0,0,0,105,51.116Zm0,4.386a1.69,1.69,0,1,1,1.69-1.69A1.692,1.692,0,0,1,105,55.5Z" transform="translate(-97.669 -46.477)" fill="#c6aa76"/>
      </g>
      <g id="Group_57205" data-name="Group 57205" transform="translate(85.032 57.68)">
        <path id="Path_126950-9" data-name="Path 126950" d="M157.324,99.729h-1.161a3.843,3.843,0,0,0-.27-.631l.821-.8a.515.515,0,0,0,0-.744l-.966-.936a.556.556,0,0,0-.768,0l-.821.8a4.107,4.107,0,0,0-.652-.261V96.031a.536.536,0,0,0-.543-.526H151.6a.535.535,0,0,0-.543.526v1.125a4.113,4.113,0,0,0-.652.261l-.821-.8a.556.556,0,0,0-.768,0l-.966.936a.515.515,0,0,0,0,.744l.821.8a3.845,3.845,0,0,0-.27.631H147.24a.535.535,0,0,0-.543.526v1.323a.535.535,0,0,0,.543.526H148.4a3.846,3.846,0,0,0,.27.631l-.821.8a.515.515,0,0,0,0,.744l.966.936a.556.556,0,0,0,.768,0l.821-.8a4.106,4.106,0,0,0,.652.261V105.8a.535.535,0,0,0,.543.526h1.366a.535.535,0,0,0,.543-.526v-1.125a4.109,4.109,0,0,0,.652-.261l.821.8a.556.556,0,0,0,.768,0l.966-.936a.515.515,0,0,0,0-.744l-.821-.8a3.84,3.84,0,0,0,.27-.631h1.161a.535.535,0,0,0,.543-.526v-1.323A.535.535,0,0,0,157.324,99.729Zm-.223,1.633h-1.229a.381.381,0,0,0-.373.287,3.122,3.122,0,0,1-.408.954.363.363,0,0,0,.055.459l.869.842-.65.63-.869-.842a.393.393,0,0,0-.473-.053,3.338,3.338,0,0,1-.984.4.374.374,0,0,0-.3.362v1.191h-.919v-1.191a.374.374,0,0,0-.3-.362,3.333,3.333,0,0,1-.984-.4.393.393,0,0,0-.473.053l-.869.842-.65-.63.869-.842a.363.363,0,0,0,.055-.459,3.122,3.122,0,0,1-.408-.954.381.381,0,0,0-.373-.287h-1.229v-.89h1.229a.381.381,0,0,0,.373-.287,3.122,3.122,0,0,1,.408-.954.363.363,0,0,0-.055-.459l-.869-.842.65-.63.869.842a.393.393,0,0,0,.473.053,3.335,3.335,0,0,1,.984-.395.374.374,0,0,0,.3-.362V96.248h.919v1.191a.374.374,0,0,0,.3.362,3.338,3.338,0,0,1,.984.395.393.393,0,0,0,.473-.053l.869-.842.65.63-.869.842a.363.363,0,0,0-.055.459,3.122,3.122,0,0,1,.408.954.381.381,0,0,0,.373.287H157.1Z" transform="translate(-146.697 -95.505)" fill="#c6aa76"/>
        <path id="Path_126953-9" data-name="Path 126953" d="M104.361,51.116a1.99,1.99,0,1,0,2.053,1.989A2.024,2.024,0,0,0,104.361,51.116Zm0,3.236a1.247,1.247,0,1,1,1.287-1.247A1.269,1.269,0,0,1,104.361,54.352Z" transform="translate(-98.776 -47.694)" fill="#c6aa76"/>
      </g>
      <g id="Group_57206" data-name="Group 57206" transform="translate(155.554 57.68)">
        <path id="Path_126950-10" data-name="Path 126950" d="M157.324,99.729h-1.161a3.843,3.843,0,0,0-.27-.631l.821-.8a.515.515,0,0,0,0-.744l-.966-.936a.556.556,0,0,0-.768,0l-.821.8a4.107,4.107,0,0,0-.652-.261V96.031a.536.536,0,0,0-.543-.526H151.6a.535.535,0,0,0-.543.526v1.125a4.113,4.113,0,0,0-.652.261l-.821-.8a.556.556,0,0,0-.768,0l-.966.936a.515.515,0,0,0,0,.744l.821.8a3.845,3.845,0,0,0-.27.631H147.24a.535.535,0,0,0-.543.526v1.323a.535.535,0,0,0,.543.526H148.4a3.846,3.846,0,0,0,.27.631l-.821.8a.515.515,0,0,0,0,.744l.966.936a.556.556,0,0,0,.768,0l.821-.8a4.106,4.106,0,0,0,.652.261V105.8a.535.535,0,0,0,.543.526h1.366a.535.535,0,0,0,.543-.526v-1.125a4.109,4.109,0,0,0,.652-.261l.821.8a.556.556,0,0,0,.768,0l.966-.936a.515.515,0,0,0,0-.744l-.821-.8a3.84,3.84,0,0,0,.27-.631h1.161a.535.535,0,0,0,.543-.526v-1.323A.535.535,0,0,0,157.324,99.729Zm-.223,1.633h-1.229a.381.381,0,0,0-.373.287,3.122,3.122,0,0,1-.408.954.363.363,0,0,0,.055.459l.869.842-.65.63-.869-.842a.393.393,0,0,0-.473-.053,3.338,3.338,0,0,1-.984.4.374.374,0,0,0-.3.362v1.191h-.919v-1.191a.374.374,0,0,0-.3-.362,3.333,3.333,0,0,1-.984-.4.393.393,0,0,0-.473.053l-.869.842-.65-.63.869-.842a.363.363,0,0,0,.055-.459,3.122,3.122,0,0,1-.408-.954.381.381,0,0,0-.373-.287h-1.229v-.89h1.229a.381.381,0,0,0,.373-.287,3.122,3.122,0,0,1,.408-.954.363.363,0,0,0-.055-.459l-.869-.842.65-.63.869.842a.393.393,0,0,0,.473.053,3.335,3.335,0,0,1,.984-.395.374.374,0,0,0,.3-.362V96.248h.919v1.191a.374.374,0,0,0,.3.362,3.338,3.338,0,0,1,.984.395.393.393,0,0,0,.473-.053l.869-.842.65.63-.869.842a.363.363,0,0,0-.055.459,3.122,3.122,0,0,1,.408.954.381.381,0,0,0,.373.287H157.1Z" transform="translate(-146.697 -95.505)" fill="#c6aa76"/>
        <path id="Path_126953-10" data-name="Path 126953" d="M104.361,51.116a1.99,1.99,0,1,0,2.053,1.989A2.024,2.024,0,0,0,104.361,51.116Zm0,3.236a1.247,1.247,0,1,1,1.287-1.247A1.269,1.269,0,0,1,104.361,54.352Z" transform="translate(-98.776 -47.694)" fill="#c6aa76"/>
      </g>
      <g id="Group_57199" data-name="Group 57199" transform="translate(110.852 103.208)">
        <path id="Path_126950-11" data-name="Path 126950" d="M175.16,107.18h-3.109a10.812,10.812,0,0,0-.723-1.745l2.2-2.2a1.455,1.455,0,0,0,0-2.057l-2.587-2.587a1.457,1.457,0,0,0-2.057,0l-2.2,2.2a10.806,10.806,0,0,0-1.745-.723V96.96a1.457,1.457,0,0,0-1.455-1.455h-3.658a1.456,1.456,0,0,0-1.455,1.455v3.109a10.821,10.821,0,0,0-1.745.723l-2.2-2.2a1.457,1.457,0,0,0-2.057,0l-2.587,2.587a1.454,1.454,0,0,0,0,2.057l2.2,2.2a10.8,10.8,0,0,0-.723,1.745h-3.109a1.456,1.456,0,0,0-1.455,1.455v3.658a1.456,1.456,0,0,0,1.455,1.454h3.109a10.812,10.812,0,0,0,.723,1.745l-2.2,2.2a1.456,1.456,0,0,0,0,2.057l2.587,2.587a1.456,1.456,0,0,0,2.057,0l2.2-2.2a10.809,10.809,0,0,0,1.745.723v3.109a1.456,1.456,0,0,0,1.455,1.454h3.658a1.456,1.456,0,0,0,1.455-1.454v-3.109a10.81,10.81,0,0,0,1.745-.723l2.2,2.2a1.456,1.456,0,0,0,2.057,0l2.587-2.587a1.455,1.455,0,0,0,0-2.057l-2.2-2.2a10.8,10.8,0,0,0,.723-1.745h3.109a1.456,1.456,0,0,0,1.455-1.454v-3.658A1.456,1.456,0,0,0,175.16,107.18Zm-.6,4.514h-3.293a1.026,1.026,0,0,0-1,.793,8.776,8.776,0,0,1-1.092,2.637,1.027,1.027,0,0,0,.146,1.267l2.328,2.328-1.741,1.741-2.328-2.328a1.026,1.026,0,0,0-1.268-.146,8.784,8.784,0,0,1-2.637,1.092,1.026,1.026,0,0,0-.793,1v3.293h-2.461v-3.293a1.026,1.026,0,0,0-.793-1A8.772,8.772,0,0,1,157,117.986a1.027,1.027,0,0,0-1.267.146L153.4,120.46l-1.741-1.741,2.328-2.328a1.027,1.027,0,0,0,.146-1.267,8.778,8.778,0,0,1-1.092-2.637,1.026,1.026,0,0,0-1-.793H148.75v-2.461h3.293a1.026,1.026,0,0,0,1-.793,8.779,8.779,0,0,1,1.092-2.637,1.027,1.027,0,0,0-.146-1.267l-2.328-2.328,1.741-1.741,2.328,2.328a1.026,1.026,0,0,0,1.267.146,8.776,8.776,0,0,1,2.637-1.092,1.026,1.026,0,0,0,.793-1V97.558h2.461v3.293a1.026,1.026,0,0,0,.793,1,8.782,8.782,0,0,1,2.637,1.092,1.027,1.027,0,0,0,1.267-.146l2.328-2.328,1.741,1.741-2.328,2.328a1.026,1.026,0,0,0-.146,1.267,8.779,8.779,0,0,1,1.092,2.637,1.027,1.027,0,0,0,1,.793h3.293Z" transform="translate(-146.697 -95.505)" fill="#c6aa76"/>
        <path id="Path_126953-11" data-name="Path 126953" d="M107.807,51.116a5.5,5.5,0,1,0,5.5,5.5A5.505,5.505,0,0,0,107.807,51.116Zm0,8.945a3.446,3.446,0,1,1,3.446-3.446A3.45,3.45,0,0,1,107.807,60.061Z" transform="translate(-92.848 -41.656)" fill="#c6aa76"/>
      </g>
      <path id="Path_126952" data-name="Path 126952" d="M212.309,112.963a2.73,2.73,0,0,0-3.054,2.368,49.241,49.241,0,0,1-22.787,35.621,18.384,18.384,0,0,0-8.687,15.636v11.246H142.666V166.339a18,18,0,0,0-8.419-15.22A49.433,49.433,0,0,1,154.183,60a2.733,2.733,0,0,0-.672-5.424,54.894,54.894,0,0,0-22.142,101.188,12.491,12.491,0,0,1,5.83,10.573v11.893a7.112,7.112,0,0,0-4.782,6.707v3.9a7.064,7.064,0,0,0,1.516,4.372,7.061,7.061,0,0,0-1.516,4.372v3.9a7.113,7.113,0,0,0,7.1,7.1h8.591v6.177a6.47,6.47,0,0,0,6.462,6.463h11.293a6.469,6.469,0,0,0,6.462-6.463v-6.177h8.591a7.113,7.113,0,0,0,7.1-7.1v-3.9a7.063,7.063,0,0,0-1.516-4.372,7.062,7.062,0,0,0,1.516-4.372v-3.9a7.111,7.111,0,0,0-4.782-6.707V166.588a12.947,12.947,0,0,1,6.128-11.007,54.685,54.685,0,0,0,25.3-39.563,2.73,2.73,0,0,0-2.366-3.054ZM166.867,214.756a1.011,1.011,0,0,1-1,1H154.577a1.01,1.01,0,0,1-1-1v-6.177h13.287Zm15.7-13.282a1.662,1.662,0,0,1-1.64,1.639h-41.4a1.662,1.662,0,0,1-1.639-1.639v-3.9a1.662,1.662,0,0,1,1.639-1.639h41.4a1.662,1.662,0,0,1,1.639,1.639v3.9Zm0-12.64a1.662,1.662,0,0,1-1.64,1.64h-41.4a1.662,1.662,0,0,1-1.639-1.64v-3.9a1.662,1.662,0,0,1,1.639-1.64h41.4a1.662,1.662,0,0,1,1.639,1.64v3.9Z" transform="translate(-34.412 -34.679)" fill="#c6aa76"/>
    </g>
  </g>
</svg>
