<svg xmlns="http://www.w3.org/2000/svg" xmlns:xlink="http://www.w3.org/1999/xlink" width="259.966" height="302.191" viewBox="0 0 259.966 302.191">
  <defs>
    <clipPath id="clip-path">
      <path id="Path_124116" data-name="Path 124116" d="M36.521,28.768a23.816,23.816,0,0,0-17.1,22.844V292.484H214.81V51.613a23.812,23.812,0,0,0-17.1-22.844l-80.594-23.7Z" transform="translate(-19.423 -5.067)" fill="#c7af81"/>
    </clipPath>
    <clipPath id="clip-path-2">
      <rect id="Rectangle_14261" data-name="Rectangle 14261" width="259.966" height="302.19" fill="#c7af81"/>
    </clipPath>
  </defs>
  <g id="bg-img" opacity="0.4">
    <g id="Group_56482" data-name="Group 56482" transform="translate(56.651 14.774)">
      <g id="Group_56481" data-name="Group 56481" clip-path="url(#clip-path)">
        <rect id="Rectangle_14061" data-name="Rectangle 14061" width="104.278" height="1.289" transform="translate(-7.928 107.454)" fill="#c7af81"/>
        <rect id="Rectangle_14062" data-name="Rectangle 14062" width="1.289" height="181.771" transform="translate(95.061 107.454)" fill="#c7af81"/>
        <rect id="Rectangle_14063" data-name="Rectangle 14063" width="100.302" height="1.289" transform="translate(-7.928 111.428)" fill="#c7af81"/>
        <rect id="Rectangle_14064" data-name="Rectangle 14064" width="1.289" height="177.8" transform="translate(91.086 111.425)" fill="#c7af81"/>
        <rect id="Rectangle_14065" data-name="Rectangle 14065" width="96.33" height="1.289" transform="translate(-7.928 115.399)" fill="#c7af81"/>
        <rect id="Rectangle_14066" data-name="Rectangle 14066" width="1.289" height="173.826" transform="translate(87.113 115.399)" fill="#c7af81"/>
        <rect id="Rectangle_14067" data-name="Rectangle 14067" width="92.354" height="1.289" transform="translate(-7.928 119.373)" fill="#c7af81"/>
        <rect id="Rectangle_14068" data-name="Rectangle 14068" width="1.289" height="169.852" transform="translate(83.138 119.373)" fill="#c7af81"/>
        <rect id="Rectangle_14069" data-name="Rectangle 14069" width="88.382" height="1.286" transform="translate(-7.928 123.35)" fill="#c7af81"/>
        <rect id="Rectangle_14070" data-name="Rectangle 14070" width="1.289" height="165.881" transform="translate(79.165 123.347)" fill="#c7af81"/>
        <rect id="Rectangle_14071" data-name="Rectangle 14071" width="84.406" height="1.289" transform="translate(-7.928 127.318)" fill="#c7af81"/>
        <rect id="Rectangle_14072" data-name="Rectangle 14072" width="1.289" height="161.907" transform="translate(75.19 127.318)" fill="#c7af81"/>
        <rect id="Rectangle_14073" data-name="Rectangle 14073" width="80.431" height="1.289" transform="translate(-7.928 131.292)" fill="#c7af81"/>
        <rect id="Rectangle_14074" data-name="Rectangle 14074" width="1.289" height="157.933" transform="translate(71.214 131.292)" fill="#c7af81"/>
        <rect id="Rectangle_14075" data-name="Rectangle 14075" width="76.456" height="1.289" transform="translate(-7.928 135.266)" fill="#c7af81"/>
        <rect id="Rectangle_14076" data-name="Rectangle 14076" width="1.289" height="153.959" transform="translate(67.239 135.266)" fill="#c7af81"/>
        <rect id="Rectangle_14077" data-name="Rectangle 14077" width="72.483" height="1.289" transform="translate(-7.928 139.237)" fill="#c7af81"/>
        <rect id="Rectangle_14078" data-name="Rectangle 14078" width="1.289" height="149.987" transform="translate(63.263 139.237)" fill="#c7af81"/>
        <rect id="Rectangle_14079" data-name="Rectangle 14079" width="68.507" height="1.289" transform="translate(-7.928 143.211)" fill="#c7af81"/>
        <rect id="Rectangle_14080" data-name="Rectangle 14080" width="1.289" height="146.013" transform="translate(59.291 143.211)" fill="#c7af81"/>
        <rect id="Rectangle_14081" data-name="Rectangle 14081" width="64.532" height="1.289" transform="translate(-7.928 147.186)" fill="#c7af81"/>
        <rect id="Rectangle_14082" data-name="Rectangle 14082" width="1.289" height="142.042" transform="translate(55.315 147.186)" fill="#c7af81"/>
        <rect id="Rectangle_14083" data-name="Rectangle 14083" width="60.559" height="1.289" transform="translate(-7.928 151.157)" fill="#c7af81"/>
        <rect id="Rectangle_14084" data-name="Rectangle 14084" width="1.289" height="138.068" transform="translate(51.343 151.16)" fill="#c7af81"/>
        <rect id="Rectangle_14085" data-name="Rectangle 14085" width="56.584" height="1.289" transform="translate(-7.928 155.131)" fill="#c7af81"/>
        <rect id="Rectangle_14086" data-name="Rectangle 14086" width="1.289" height="134.094" transform="translate(47.367 155.131)" fill="#c7af81"/>
        <rect id="Rectangle_14087" data-name="Rectangle 14087" width="52.609" height="1.289" transform="translate(-7.928 159.105)" fill="#c7af81"/>
        <rect id="Rectangle_14088" data-name="Rectangle 14088" width="1.289" height="130.123" transform="translate(43.392 159.105)" fill="#c7af81"/>
        <rect id="Rectangle_14089" data-name="Rectangle 14089" width="48.636" height="1.289" transform="translate(-7.928 163.076)" fill="#c7af81"/>
        <rect id="Rectangle_14090" data-name="Rectangle 14090" width="1.289" height="126.149" transform="translate(39.416 163.079)" fill="#c7af81"/>
        <rect id="Rectangle_14091" data-name="Rectangle 14091" width="44.661" height="1.289" transform="translate(-7.928 167.05)" fill="#c7af81"/>
        <rect id="Rectangle_14092" data-name="Rectangle 14092" width="1.289" height="122.175" transform="translate(35.444 167.05)" fill="#c7af81"/>
        <rect id="Rectangle_14093" data-name="Rectangle 14093" width="40.685" height="1.289" transform="translate(-7.928 171.024)" fill="#c7af81"/>
        <rect id="Rectangle_14094" data-name="Rectangle 14094" width="1.289" height="118.201" transform="translate(31.468 171.024)" fill="#c7af81"/>
        <rect id="Rectangle_14095" data-name="Rectangle 14095" width="36.71" height="1.289" transform="translate(-7.928 174.998)" fill="#c7af81"/>
        <rect id="Rectangle_14096" data-name="Rectangle 14096" width="1.289" height="114.23" transform="translate(27.493 174.998)" fill="#c7af81"/>
        <rect id="Rectangle_14097" data-name="Rectangle 14097" width="32.737" height="1.289" transform="translate(-7.928 178.969)" fill="#c7af81"/>
        <rect id="Rectangle_14098" data-name="Rectangle 14098" width="1.289" height="110.256" transform="translate(23.52 178.969)" fill="#c7af81"/>
        <rect id="Rectangle_14099" data-name="Rectangle 14099" width="28.762" height="1.289" transform="translate(-7.928 182.943)" fill="#c7af81"/>
        <rect id="Rectangle_14100" data-name="Rectangle 14100" width="1.289" height="106.285" transform="translate(19.545 182.943)" fill="#c7af81"/>
        <rect id="Rectangle_14101" data-name="Rectangle 14101" width="24.789" height="1.289" transform="translate(-7.928 186.917)" fill="#c7af81"/>
        <rect id="Rectangle_14102" data-name="Rectangle 14102" width="1.289" height="102.311" transform="translate(15.569 186.917)" fill="#c7af81"/>
        <rect id="Rectangle_14103" data-name="Rectangle 14103" width="20.814" height="1.286" transform="translate(-7.928 190.891)" fill="#c7af81"/>
        <rect id="Rectangle_14104" data-name="Rectangle 14104" width="1.289" height="98.337" transform="translate(11.597 190.888)" fill="#c7af81"/>
        <rect id="Rectangle_14105" data-name="Rectangle 14105" width="16.838" height="1.289" transform="translate(-7.928 194.862)" fill="#c7af81"/>
        <rect id="Rectangle_14106" data-name="Rectangle 14106" width="1.289" height="94.362" transform="translate(7.621 194.862)" fill="#c7af81"/>
        <rect id="Rectangle_14107" data-name="Rectangle 14107" width="12.863" height="1.289" transform="translate(-7.928 198.836)" fill="#c7af81"/>
        <rect id="Rectangle_14108" data-name="Rectangle 14108" width="1.289" height="90.388" transform="translate(3.646 198.836)" fill="#c7af81"/>
        <rect id="Rectangle_14109" data-name="Rectangle 14109" width="8.887" height="1.289" transform="translate(-7.928 202.808)" fill="#c7af81"/>
        <rect id="Rectangle_14110" data-name="Rectangle 14110" width="1.289" height="86.417" transform="translate(-0.33 202.808)" fill="#c7af81"/>
        <rect id="Rectangle_14111" data-name="Rectangle 14111" width="1.289" height="106.576" transform="translate(95.061 -1.808)" fill="#c7af81"/>
        <rect id="Rectangle_14112" data-name="Rectangle 14112" width="104.278" height="1.289" transform="translate(-7.928 103.48)" fill="#c7af81"/>
        <rect id="Rectangle_14113" data-name="Rectangle 14113" width="1.289" height="102.605" transform="translate(91.089 -1.811)" fill="#c7af81"/>
        <rect id="Rectangle_14114" data-name="Rectangle 14114" width="100.302" height="1.289" transform="translate(-7.928 99.506)" fill="#c7af81"/>
        <rect id="Rectangle_14115" data-name="Rectangle 14115" width="1.289" height="98.631" transform="translate(87.113 -1.808)" fill="#c7af81"/>
        <rect id="Rectangle_14116" data-name="Rectangle 14116" width="96.33" height="1.289" transform="translate(-7.928 95.535)" fill="#c7af81"/>
        <rect id="Rectangle_14117" data-name="Rectangle 14117" width="1.289" height="94.657" transform="translate(83.138 -1.808)" fill="#c7af81"/>
        <rect id="Rectangle_14118" data-name="Rectangle 14118" width="92.354" height="1.289" transform="translate(-7.928 91.561)" fill="#c7af81"/>
        <rect id="Rectangle_14119" data-name="Rectangle 14119" width="1.289" height="90.683" transform="translate(79.165 -1.808)" fill="#c7af81"/>
        <rect id="Rectangle_14120" data-name="Rectangle 14120" width="88.382" height="1.289" transform="translate(-7.928 87.586)" fill="#c7af81"/>
        <rect id="Rectangle_14121" data-name="Rectangle 14121" width="1.289" height="86.712" transform="translate(75.19 -1.811)" fill="#c7af81"/>
        <rect id="Rectangle_14122" data-name="Rectangle 14122" width="84.406" height="1.289" transform="translate(-7.928 83.612)" fill="#c7af81"/>
        <rect id="Rectangle_14123" data-name="Rectangle 14123" width="1.289" height="82.738" transform="translate(71.214 -1.808)" fill="#c7af81"/>
        <rect id="Rectangle_14124" data-name="Rectangle 14124" width="80.431" height="1.289" transform="translate(-7.928 79.641)" fill="#c7af81"/>
        <rect id="Rectangle_14125" data-name="Rectangle 14125" width="1.289" height="78.764" transform="translate(67.239 -1.808)" fill="#c7af81"/>
        <rect id="Rectangle_14126" data-name="Rectangle 14126" width="76.456" height="1.286" transform="translate(-7.928 75.67)" fill="#c7af81"/>
        <rect id="Rectangle_14127" data-name="Rectangle 14127" width="1.289" height="74.793" transform="translate(63.266 -1.811)" fill="#c7af81"/>
        <rect id="Rectangle_14128" data-name="Rectangle 14128" width="72.48" height="1.289" transform="translate(-7.928 71.693)" fill="#c7af81"/>
        <rect id="Rectangle_14129" data-name="Rectangle 14129" width="1.289" height="70.816" transform="translate(59.291 -1.805)" fill="#c7af81"/>
        <rect id="Rectangle_14130" data-name="Rectangle 14130" width="68.507" height="1.289" transform="translate(-7.928 67.722)" fill="#c7af81"/>
        <rect id="Rectangle_14131" data-name="Rectangle 14131" width="1.289" height="66.844" transform="translate(55.315 -1.808)" fill="#c7af81"/>
        <rect id="Rectangle_14132" data-name="Rectangle 14132" width="64.532" height="1.289" transform="translate(-7.928 63.748)" fill="#c7af81"/>
        <rect id="Rectangle_14133" data-name="Rectangle 14133" width="1.289" height="62.87" transform="translate(51.34 -1.808)" fill="#c7af81"/>
        <rect id="Rectangle_14134" data-name="Rectangle 14134" width="60.559" height="1.289" transform="translate(-7.928 59.774)" fill="#c7af81"/>
        <rect id="Rectangle_14135" data-name="Rectangle 14135" width="1.289" height="58.896" transform="translate(47.367 -1.808)" fill="#c7af81"/>
        <rect id="Rectangle_14136" data-name="Rectangle 14136" width="56.584" height="1.289" transform="translate(-7.928 55.8)" fill="#c7af81"/>
        <rect id="Rectangle_14137" data-name="Rectangle 14137" width="1.289" height="54.925" transform="translate(43.392 -1.808)" fill="#c7af81"/>
        <rect id="Rectangle_14138" data-name="Rectangle 14138" width="52.609" height="1.289" transform="translate(-7.928 51.829)" fill="#c7af81"/>
        <rect id="Rectangle_14139" data-name="Rectangle 14139" width="1.289" height="50.951" transform="translate(39.419 -1.808)" fill="#c7af81"/>
        <rect id="Rectangle_14140" data-name="Rectangle 14140" width="48.633" height="1.289" transform="translate(-7.928 47.855)" fill="#c7af81"/>
        <rect id="Rectangle_14141" data-name="Rectangle 14141" width="1.289" height="46.977" transform="translate(35.444 -1.805)" fill="#c7af81"/>
        <rect id="Rectangle_14142" data-name="Rectangle 14142" width="44.661" height="1.289" transform="translate(-7.928 43.884)" fill="#c7af81"/>
        <rect id="Rectangle_14143" data-name="Rectangle 14143" width="1.289" height="43.006" transform="translate(31.468 -1.808)" fill="#c7af81"/>
        <rect id="Rectangle_14144" data-name="Rectangle 14144" width="40.685" height="1.289" transform="translate(-7.928 39.91)" fill="#c7af81"/>
        <rect id="Rectangle_14145" data-name="Rectangle 14145" width="1.289" height="39.032" transform="translate(27.493 -1.808)" fill="#c7af81"/>
        <rect id="Rectangle_14146" data-name="Rectangle 14146" width="36.71" height="1.289" transform="translate(-7.928 35.936)" fill="#c7af81"/>
        <rect id="Rectangle_14147" data-name="Rectangle 14147" width="1.289" height="35.061" transform="translate(23.52 -1.811)" fill="#c7af81"/>
        <rect id="Rectangle_14148" data-name="Rectangle 14148" width="32.734" height="1.289" transform="translate(-7.928 31.961)" fill="#c7af81"/>
        <rect id="Rectangle_14149" data-name="Rectangle 14149" width="1.289" height="31.087" transform="translate(19.545 -1.808)" fill="#c7af81"/>
        <rect id="Rectangle_14150" data-name="Rectangle 14150" width="28.762" height="1.286" transform="translate(-7.928 27.993)" fill="#c7af81"/>
        <rect id="Rectangle_14151" data-name="Rectangle 14151" width="1.289" height="27.113" transform="translate(15.569 -1.808)" fill="#c7af81"/>
        <rect id="Rectangle_14152" data-name="Rectangle 14152" width="24.786" height="1.289" transform="translate(-7.928 24.016)" fill="#c7af81"/>
        <rect id="Rectangle_14153" data-name="Rectangle 14153" width="1.289" height="23.139" transform="translate(11.597 -1.808)" fill="#c7af81"/>
        <rect id="Rectangle_14154" data-name="Rectangle 14154" width="20.811" height="1.289" transform="translate(-7.928 20.042)" fill="#c7af81"/>
        <rect id="Rectangle_14155" data-name="Rectangle 14155" width="1.289" height="19.168" transform="translate(7.621 -1.808)" fill="#c7af81"/>
        <rect id="Rectangle_14156" data-name="Rectangle 14156" width="16.838" height="1.289" transform="translate(-7.928 16.071)" fill="#c7af81"/>
        <rect id="Rectangle_14157" data-name="Rectangle 14157" width="1.289" height="15.194" transform="translate(3.646 -1.808)" fill="#c7af81"/>
        <rect id="Rectangle_14158" data-name="Rectangle 14158" width="12.863" height="1.289" transform="translate(-7.928 12.097)" fill="#c7af81"/>
        <rect id="Rectangle_14159" data-name="Rectangle 14159" width="1.289" height="11.219" transform="translate(-0.327 -1.808)" fill="#c7af81"/>
        <rect id="Rectangle_14160" data-name="Rectangle 14160" width="8.887" height="1.289" transform="translate(-7.928 8.123)" fill="#c7af81"/>
        <rect id="Rectangle_14161" data-name="Rectangle 14161" width="104.278" height="1.289" transform="translate(99.037 103.48)" fill="#c7af81"/>
        <rect id="Rectangle_14162" data-name="Rectangle 14162" width="1.289" height="106.576" transform="translate(99.037 -1.808)" fill="#c7af81"/>
        <rect id="Rectangle_14163" data-name="Rectangle 14163" width="100.302" height="1.289" transform="translate(103.012 99.506)" fill="#c7af81"/>
        <rect id="Rectangle_14164" data-name="Rectangle 14164" width="1.286" height="102.605" transform="translate(103.012 -1.811)" fill="#c7af81"/>
        <rect id="Rectangle_14165" data-name="Rectangle 14165" width="96.33" height="1.286" transform="translate(106.985 95.535)" fill="#c7af81"/>
        <rect id="Rectangle_14166" data-name="Rectangle 14166" width="1.289" height="98.628" transform="translate(106.988 -1.805)" fill="#c7af81"/>
        <rect id="Rectangle_14167" data-name="Rectangle 14167" width="92.354" height="1.289" transform="translate(110.96 91.561)" fill="#c7af81"/>
        <rect id="Rectangle_14168" data-name="Rectangle 14168" width="1.289" height="94.657" transform="translate(110.96 -1.808)" fill="#c7af81"/>
        <rect id="Rectangle_14169" data-name="Rectangle 14169" width="88.382" height="1.289" transform="translate(114.933 87.587)" fill="#c7af81"/>
        <rect id="Rectangle_14170" data-name="Rectangle 14170" width="1.289" height="90.683" transform="translate(114.936 -1.808)" fill="#c7af81"/>
        <rect id="Rectangle_14171" data-name="Rectangle 14171" width="84.406" height="1.289" transform="translate(118.908 83.615)" fill="#c7af81"/>
        <rect id="Rectangle_14172" data-name="Rectangle 14172" width="1.289" height="86.712" transform="translate(118.908 -1.808)" fill="#c7af81"/>
        <rect id="Rectangle_14173" data-name="Rectangle 14173" width="80.434" height="1.289" transform="translate(122.881 79.641)" fill="#c7af81"/>
        <rect id="Rectangle_14174" data-name="Rectangle 14174" width="1.289" height="82.738" transform="translate(122.884 -1.808)" fill="#c7af81"/>
        <rect id="Rectangle_14175" data-name="Rectangle 14175" width="76.456" height="1.286" transform="translate(126.859 75.667)" fill="#c7af81"/>
        <rect id="Rectangle_14176" data-name="Rectangle 14176" width="1.289" height="78.764" transform="translate(126.859 -1.808)" fill="#c7af81"/>
        <rect id="Rectangle_14177" data-name="Rectangle 14177" width="72.48" height="1.289" transform="translate(130.835 71.696)" fill="#c7af81"/>
        <rect id="Rectangle_14178" data-name="Rectangle 14178" width="1.289" height="74.793" transform="translate(130.835 -1.811)" fill="#c7af81"/>
        <rect id="Rectangle_14179" data-name="Rectangle 14179" width="68.507" height="1.289" transform="translate(134.807 67.722)" fill="#c7af81"/>
        <rect id="Rectangle_14180" data-name="Rectangle 14180" width="1.289" height="70.816" transform="translate(134.807 -1.805)" fill="#c7af81"/>
        <rect id="Rectangle_14181" data-name="Rectangle 14181" width="64.532" height="1.289" transform="translate(138.783 63.748)" fill="#c7af81"/>
        <rect id="Rectangle_14182" data-name="Rectangle 14182" width="1.289" height="66.844" transform="translate(138.783 -1.808)" fill="#c7af81"/>
        <rect id="Rectangle_14183" data-name="Rectangle 14183" width="60.559" height="1.289" transform="translate(142.755 59.777)" fill="#c7af81"/>
        <rect id="Rectangle_14184" data-name="Rectangle 14184" width="1.289" height="62.87" transform="translate(142.758 -1.808)" fill="#c7af81"/>
        <rect id="Rectangle_14185" data-name="Rectangle 14185" width="56.584" height="1.289" transform="translate(146.731 55.803)" fill="#c7af81"/>
        <rect id="Rectangle_14186" data-name="Rectangle 14186" width="1.289" height="58.899" transform="translate(146.731 -1.808)" fill="#c7af81"/>
        <rect id="Rectangle_14187" data-name="Rectangle 14187" width="52.609" height="1.289" transform="translate(150.706 51.829)" fill="#c7af81"/>
        <rect id="Rectangle_14188" data-name="Rectangle 14188" width="1.289" height="54.925" transform="translate(150.706 -1.808)" fill="#c7af81"/>
        <rect id="Rectangle_14189" data-name="Rectangle 14189" width="48.636" height="1.289" transform="translate(154.679 47.855)" fill="#c7af81"/>
        <rect id="Rectangle_14190" data-name="Rectangle 14190" width="1.289" height="50.951" transform="translate(154.681 -1.808)" fill="#c7af81"/>
        <rect id="Rectangle_14191" data-name="Rectangle 14191" width="44.661" height="1.289" transform="translate(158.654 43.884)" fill="#c7af81"/>
        <rect id="Rectangle_14192" data-name="Rectangle 14192" width="1.289" height="46.977" transform="translate(158.654 -1.808)" fill="#c7af81"/>
        <rect id="Rectangle_14193" data-name="Rectangle 14193" width="40.685" height="1.289" transform="translate(162.629 39.91)" fill="#c7af81"/>
        <rect id="Rectangle_14194" data-name="Rectangle 14194" width="1.289" height="43.006" transform="translate(162.629 -1.808)" fill="#c7af81"/>
        <rect id="Rectangle_14195" data-name="Rectangle 14195" width="36.71" height="1.289" transform="translate(166.605 35.938)" fill="#c7af81"/>
        <rect id="Rectangle_14196" data-name="Rectangle 14196" width="1.289" height="39.032" transform="translate(166.605 -1.808)" fill="#c7af81"/>
        <rect id="Rectangle_14197" data-name="Rectangle 14197" width="32.737" height="1.289" transform="translate(170.577 31.961)" fill="#c7af81"/>
        <rect id="Rectangle_14198" data-name="Rectangle 14198" width="1.286" height="35.061" transform="translate(170.58 -1.808)" fill="#c7af81"/>
        <rect id="Rectangle_14199" data-name="Rectangle 14199" width="28.762" height="1.289" transform="translate(174.553 27.99)" fill="#c7af81"/>
        <rect id="Rectangle_14200" data-name="Rectangle 14200" width="1.289" height="31.087" transform="translate(174.553 -1.808)" fill="#c7af81"/>
        <rect id="Rectangle_14201" data-name="Rectangle 14201" width="24.786" height="1.289" transform="translate(178.528 24.016)" fill="#c7af81"/>
        <rect id="Rectangle_14202" data-name="Rectangle 14202" width="1.289" height="27.113" transform="translate(178.528 -1.808)" fill="#c7af81"/>
        <rect id="Rectangle_14203" data-name="Rectangle 14203" width="20.814" height="1.289" transform="translate(182.501 20.045)" fill="#c7af81"/>
        <rect id="Rectangle_14204" data-name="Rectangle 14204" width="1.289" height="23.139" transform="translate(182.504 -1.808)" fill="#c7af81"/>
        <rect id="Rectangle_14205" data-name="Rectangle 14205" width="16.838" height="1.289" transform="translate(186.476 16.071)" fill="#c7af81"/>
        <rect id="Rectangle_14206" data-name="Rectangle 14206" width="1.289" height="19.168" transform="translate(186.476 -1.808)" fill="#c7af81"/>
        <rect id="Rectangle_14207" data-name="Rectangle 14207" width="12.866" height="1.289" transform="translate(190.449 12.097)" fill="#c7af81"/>
        <rect id="Rectangle_14208" data-name="Rectangle 14208" width="1.289" height="15.194" transform="translate(190.452 -1.808)" fill="#c7af81"/>
        <rect id="Rectangle_14209" data-name="Rectangle 14209" width="8.887" height="1.289" transform="translate(194.427 8.123)" fill="#c7af81"/>
        <rect id="Rectangle_14210" data-name="Rectangle 14210" width="1.289" height="11.219" transform="translate(194.427 -1.808)" fill="#c7af81"/>
        <rect id="Rectangle_14211" data-name="Rectangle 14211" width="1.289" height="181.774" transform="translate(99.037 107.454)" fill="#c7af81"/>
        <rect id="Rectangle_14212" data-name="Rectangle 14212" width="104.278" height="1.289" transform="translate(99.037 107.454)" fill="#c7af81"/>
        <rect id="Rectangle_14213" data-name="Rectangle 14213" width="1.289" height="177.8" transform="translate(103.012 111.425)" fill="#c7af81"/>
        <rect id="Rectangle_14214" data-name="Rectangle 14214" width="100.302" height="1.289" transform="translate(103.012 111.425)" fill="#c7af81"/>
        <rect id="Rectangle_14215" data-name="Rectangle 14215" width="1.289" height="173.829" transform="translate(106.985 115.399)" fill="#c7af81"/>
        <rect id="Rectangle_14216" data-name="Rectangle 14216" width="96.33" height="1.289" transform="translate(106.985 115.399)" fill="#c7af81"/>
        <rect id="Rectangle_14217" data-name="Rectangle 14217" width="1.289" height="169.852" transform="translate(110.96 119.373)" fill="#c7af81"/>
        <rect id="Rectangle_14218" data-name="Rectangle 14218" width="92.354" height="1.289" transform="translate(110.96 119.373)" fill="#c7af81"/>
        <rect id="Rectangle_14219" data-name="Rectangle 14219" width="1.289" height="165.881" transform="translate(114.936 123.347)" fill="#c7af81"/>
        <rect id="Rectangle_14220" data-name="Rectangle 14220" width="88.382" height="1.289" transform="translate(114.933 123.344)" fill="#c7af81"/>
        <rect id="Rectangle_14221" data-name="Rectangle 14221" width="1.289" height="161.907" transform="translate(118.911 127.318)" fill="#c7af81"/>
        <rect id="Rectangle_14222" data-name="Rectangle 14222" width="84.406" height="1.289" transform="translate(118.908 127.318)" fill="#c7af81"/>
        <rect id="Rectangle_14223" data-name="Rectangle 14223" width="1.289" height="157.933" transform="translate(122.884 131.292)" fill="#c7af81"/>
        <rect id="Rectangle_14224" data-name="Rectangle 14224" width="80.431" height="1.289" transform="translate(122.884 131.292)" fill="#c7af81"/>
        <rect id="Rectangle_14225" data-name="Rectangle 14225" width="1.289" height="153.959" transform="translate(126.859 135.266)" fill="#c7af81"/>
        <rect id="Rectangle_14226" data-name="Rectangle 14226" width="76.456" height="1.289" transform="translate(126.859 135.266)" fill="#c7af81"/>
        <rect id="Rectangle_14227" data-name="Rectangle 14227" width="1.286" height="149.987" transform="translate(130.835 139.237)" fill="#c7af81"/>
        <rect id="Rectangle_14228" data-name="Rectangle 14228" width="72.48" height="1.289" transform="translate(130.835 139.237)" fill="#c7af81"/>
        <rect id="Rectangle_14229" data-name="Rectangle 14229" width="1.289" height="146.013" transform="translate(134.807 143.211)" fill="#c7af81"/>
        <rect id="Rectangle_14230" data-name="Rectangle 14230" width="68.507" height="1.286" transform="translate(134.807 143.211)" fill="#c7af81"/>
        <rect id="Rectangle_14231" data-name="Rectangle 14231" width="1.289" height="142.042" transform="translate(138.783 147.186)" fill="#c7af81"/>
        <rect id="Rectangle_14232" data-name="Rectangle 14232" width="64.532" height="1.289" transform="translate(138.783 147.186)" fill="#c7af81"/>
        <rect id="Rectangle_14233" data-name="Rectangle 14233" width="1.289" height="138.068" transform="translate(142.758 151.16)" fill="#c7af81"/>
        <rect id="Rectangle_14234" data-name="Rectangle 14234" width="60.559" height="1.289" transform="translate(142.755 151.16)" fill="#c7af81"/>
        <rect id="Rectangle_14235" data-name="Rectangle 14235" width="1.289" height="134.094" transform="translate(146.731 155.131)" fill="#c7af81"/>
        <rect id="Rectangle_14236" data-name="Rectangle 14236" width="56.584" height="1.289" transform="translate(146.731 155.131)" fill="#c7af81"/>
        <rect id="Rectangle_14237" data-name="Rectangle 14237" width="1.289" height="130.123" transform="translate(150.706 159.105)" fill="#c7af81"/>
        <rect id="Rectangle_14238" data-name="Rectangle 14238" width="52.609" height="1.289" transform="translate(150.706 159.105)" fill="#c7af81"/>
        <rect id="Rectangle_14239" data-name="Rectangle 14239" width="1.289" height="126.149" transform="translate(154.681 163.079)" fill="#c7af81"/>
        <rect id="Rectangle_14240" data-name="Rectangle 14240" width="48.636" height="1.289" transform="translate(154.679 163.079)" fill="#c7af81"/>
        <rect id="Rectangle_14241" data-name="Rectangle 14241" width="1.289" height="122.175" transform="translate(158.654 167.053)" fill="#c7af81"/>
        <rect id="Rectangle_14242" data-name="Rectangle 14242" width="44.661" height="1.289" transform="translate(158.654 167.053)" fill="#c7af81"/>
        <rect id="Rectangle_14243" data-name="Rectangle 14243" width="1.289" height="118.201" transform="translate(162.629 171.024)" fill="#c7af81"/>
        <rect id="Rectangle_14244" data-name="Rectangle 14244" width="40.685" height="1.289" transform="translate(162.629 171.024)" fill="#c7af81"/>
        <rect id="Rectangle_14245" data-name="Rectangle 14245" width="1.289" height="114.23" transform="translate(166.605 174.998)" fill="#c7af81"/>
        <rect id="Rectangle_14246" data-name="Rectangle 14246" width="36.71" height="1.289" transform="translate(166.605 174.998)" fill="#c7af81"/>
        <rect id="Rectangle_14247" data-name="Rectangle 14247" width="1.286" height="110.256" transform="translate(170.58 178.969)" fill="#c7af81"/>
        <rect id="Rectangle_14248" data-name="Rectangle 14248" width="32.734" height="1.289" transform="translate(170.58 178.969)" fill="#c7af81"/>
        <rect id="Rectangle_14249" data-name="Rectangle 14249" width="1.289" height="106.285" transform="translate(174.553 182.943)" fill="#c7af81"/>
        <rect id="Rectangle_14250" data-name="Rectangle 14250" width="28.762" height="1.289" transform="translate(174.553 182.943)" fill="#c7af81"/>
        <rect id="Rectangle_14251" data-name="Rectangle 14251" width="1.289" height="102.311" transform="translate(178.528 186.917)" fill="#c7af81"/>
        <rect id="Rectangle_14252" data-name="Rectangle 14252" width="24.786" height="1.289" transform="translate(178.528 186.917)" fill="#c7af81"/>
        <rect id="Rectangle_14253" data-name="Rectangle 14253" width="1.289" height="98.337" transform="translate(182.504 190.891)" fill="#c7af81"/>
        <rect id="Rectangle_14254" data-name="Rectangle 14254" width="20.814" height="1.286" transform="translate(182.501 190.891)" fill="#c7af81"/>
        <rect id="Rectangle_14255" data-name="Rectangle 14255" width="1.289" height="94.362" transform="translate(186.476 194.862)" fill="#c7af81"/>
        <rect id="Rectangle_14256" data-name="Rectangle 14256" width="16.838" height="1.289" transform="translate(186.476 194.862)" fill="#c7af81"/>
        <rect id="Rectangle_14257" data-name="Rectangle 14257" width="1.289" height="90.388" transform="translate(190.452 198.836)" fill="#c7af81"/>
        <rect id="Rectangle_14258" data-name="Rectangle 14258" width="12.866" height="1.289" transform="translate(190.449 198.836)" fill="#c7af81"/>
        <rect id="Rectangle_14259" data-name="Rectangle 14259" width="1.289" height="86.417" transform="translate(194.427 202.811)" fill="#c7af81"/>
        <rect id="Rectangle_14260" data-name="Rectangle 14260" width="8.887" height="1.289" transform="translate(194.427 202.811)" fill="#c7af81"/>
      </g>
    </g>
    <g id="Group_56484" data-name="Group 56484">
      <g id="Group_56483" data-name="Group 56483" clip-path="url(#clip-path-2)">
        <path id="Path_124117" data-name="Path 124117" d="M148.6,302.191H146.97V35.863a17.193,17.193,0,0,0-12.273-16.4L74.3,1.7l-60.4,17.759a17.193,17.193,0,0,0-12.273,16.4V302.191H0V35.863A18.834,18.834,0,0,1,13.446,17.9L74.3,0l.228.07L135.157,17.9A18.834,18.834,0,0,1,148.6,35.863Z" fill="#c7af81"/>
        <path id="Path_124118" data-name="Path 124118" d="M176.476,229.959H174.84V73.569a17.191,17.191,0,0,0-12.271-16.4l-60.4-17.762L41.78,57.168a17.19,17.19,0,0,0-12.273,16.4v156.39H27.873V73.569A18.834,18.834,0,0,1,41.319,55.6l60.854-17.893L163.027,55.6a18.836,18.836,0,0,1,13.449,17.969Z" transform="translate(53.424 72.232)" fill="#c7af81"/>
      </g>
    </g>
  </g>
</svg>
