<svg xmlns="http://www.w3.org/2000/svg" width="76.687" height="78.9" viewBox="0 0 76.687 78.9">
  <g id="iconHome2" transform="translate(-1219.855 -141.007)">
    <g id="icon" transform="translate(1219.26 140.758)">
      <path id="Path_124314" data-name="Path 124314" d="M22.068,35.76a6.918,6.918,0,0,0-1.256,0,16.918,16.918,0,1,1,1.256,0Z" transform="translate(6.216 0)" fill="none" stroke="#005f61" stroke-width="3.5"/>
      <path id="Path_124315" data-name="Path 124315" d="M16.775,4a13.326,13.326,0,0,1,.495,26.643,4.3,4.3,0,0,0-.99,0" transform="translate(39.103 5.612)" fill="none" stroke="#005f61" stroke-width="3.5"/>
      <path id="Path_124316" data-name="Path 124316" d="M9.253,18.411c-9.211,6.166-9.211,16.214,0,22.342,10.467,7,27.632,7,38.1,0,9.211-6.166,9.211-16.214,0-22.342C36.924,11.446,19.758,11.446,9.253,18.411Z" transform="translate(0 31.393)" fill="none" stroke="#005f61" stroke-width="3.5"/>
      <path id="Path_124317" data-name="Path 124317" d="M18.34,36.837a18.411,18.411,0,0,0,7.46-3.311c5.938-4.453,5.938-11.8,0-16.252A18.93,18.93,0,0,0,18.454,14" transform="translate(44.884 33.673)" fill="none" stroke="#005f61" stroke-width="3.5"/>
    </g>
    <g id="icon-2" data-name="icon" transform="translate(1219.654 140.757)">
      <path id="Path_124314-2" data-name="Path 124314" d="M22.068,35.76a6.918,6.918,0,0,0-1.256,0,16.918,16.918,0,1,1,1.256,0Z" transform="translate(6.216 0)" fill="none" stroke="#005f61" stroke-width="3.5"/>
      <path id="Path_124315-2" data-name="Path 124315" d="M16.775,4a13.326,13.326,0,0,1,.495,26.643,4.3,4.3,0,0,0-.99,0" transform="translate(39.103 5.612)" fill="none" stroke="#005f61" stroke-width="3.5"/>
      <path id="Path_124316-2" data-name="Path 124316" d="M9.253,18.411c-9.211,6.166-9.211,16.214,0,22.342,10.467,7,27.632,7,38.1,0,9.211-6.166,9.211-16.214,0-22.342C36.924,11.446,19.758,11.446,9.253,18.411Z" transform="translate(0 31.393)" fill="none" stroke="#005f61" stroke-width="3.5"/>
      <path id="Path_124317-2" data-name="Path 124317" d="M18.34,36.837a18.411,18.411,0,0,0,7.46-3.311c5.938-4.453,5.938-11.8,0-16.252A18.93,18.93,0,0,0,18.454,14" transform="translate(44.884 33.673)" fill="none" stroke="#005f61" stroke-width="3.5"/>
    </g>
  </g>
</svg>
