<svg xmlns="http://www.w3.org/2000/svg" width="86.024" height="55.161" viewBox="0 0 86.024 55.161">
  <g id="iconHome3" transform="translate(-1214.786 -154.173)">
    <g id="Group_57076" data-name="Group 57076" transform="translate(1215.096 154.496)">
      <path id="Subtraction_1" data-name="Subtraction 1" d="M37.134,54.588a4.624,4.624,0,0,1-4.62-4.375,4.8,4.8,0,0,1-.517.028,4.632,4.632,0,0,1-4.613-4.376,4.8,4.8,0,0,1-.517.028,4.629,4.629,0,0,1-4.61-4.376,4.732,4.732,0,0,1-.506.027,4.631,4.631,0,0,1-3.919-7.1l-.94-.66L11.413,30.33a2.592,2.592,0,0,1-2.625.429L0,27.783l.788-2.577c1.926.6,5.038,1.649,8.934,3.186a.054.054,0,0,0,.07-.031c.16-.407,3.053-7.741,5.378-13.633l.1-.253,3.216-8.152a.053.053,0,0,0-.03-.069L7.846,2.12,8.495,0l10.9,3.889a2.6,2.6,0,0,1,1.558,3.064l2.242.938a5.94,5.94,0,0,0,2.278.457c.124,0,.249,0,.373-.012.33-.021.577-.03.851-.03.648,0,1.506.049,3.58.168l2.207.125a18.136,18.136,0,0,1,5.051,1.02c.467-.451.933-.911,1.423-1.405a6.416,6.416,0,0,1,5.558-1.82l4.826.766a1.272,1.272,0,1,1-.4,2.512L44.112,8.9a3.866,3.866,0,0,0-3.35,1.1A74.582,74.582,0,0,1,28.723,20.025a.814.814,0,0,0-.393.605.731.731,0,0,0,.225.6,4.659,4.659,0,0,0,3.3,1.338c2.23,0,5.02-1.446,8.067-4.183a2.9,2.9,0,0,1,1.942-.751,2.843,2.843,0,0,1,2.071.888A14.834,14.834,0,0,0,54.81,23.349a15.5,15.5,0,0,0,2.586-.221,1.469,1.469,0,0,1,.249-.022,1.245,1.245,0,0,1,.752.246l10.518,7.763.094.068,5.456-3.5c-.28-.709-3.162-8.014-5.267-13.349l-1.971-5-3.742,1.381a9.767,9.767,0,0,1-4.9.484l-3.749-.6a1.272,1.272,0,0,1,.2-2.528,1.286,1.286,0,0,1,.2.016l3.749.6a7.236,7.236,0,0,0,1.124.088,7.194,7.194,0,0,0,2.5-.445l3.709-1.369a2.6,2.6,0,0,1,1.558-3.072L77.538.1l.932,2.366L68.8,6.256a.045.045,0,0,0-.028.028.046.046,0,0,0,0,.04L73.182,17.5l.176.446,4.109,10.417a.052.052,0,0,0,.049.033.058.058,0,0,0,.021,0l6.918-2.728.934,2.366-6.919,2.73a2.595,2.595,0,0,1-2.936-.743L70.582,33.2a4.987,4.987,0,0,1-.345,4.829A5.055,5.055,0,0,1,66,40.362a5.123,5.123,0,0,1-1.32-.175,5.07,5.07,0,0,1-5.063,4.766,5.342,5.342,0,0,1-.986-.093,5.023,5.023,0,0,1-5.064,4.989,5.242,5.242,0,0,1-1.794-.319,5.011,5.011,0,0,1-1.72,3.3,5.145,5.145,0,0,1-6.428.2l-1.852-1.366-1.1,1.29A4.623,4.623,0,0,1,37.134,54.588ZM40.28,44.177a2.086,2.086,0,0,0-1.594.738L35.54,48.606a2.09,2.09,0,0,0,3.19,2.7c1.24-1.456,2.638-3.1,3.146-3.691l.007-.01.007-.01a2.089,2.089,0,0,0-1.611-3.419Zm.011-2.543h0a4.633,4.633,0,0,1,3.522,7.63l-.392.461,1.709,1.261a2.676,2.676,0,0,0,1.6.529,2.491,2.491,0,0,0,1.822-.766,2.533,2.533,0,0,0,.314-3.1l-2.7-2.091a1.272,1.272,0,0,1,1.557-2.011L49.1,44.612l.053.041c1.429,1.108,1.429,1.108,2.23,1.7l.032.023.555.408a2.663,2.663,0,0,0,1.594.525,2.514,2.514,0,0,0,2-4.067l-3.9-3a1.272,1.272,0,0,1,.777-2.279,1.259,1.259,0,0,1,.775.264l2.256,1.737.018.014c1.776,1.368,1.776,1.368,2.236,1.706l.284.209a2.707,2.707,0,0,0,1.595.525,2.5,2.5,0,0,0,1.779-.72,2.549,2.549,0,0,0,.23-3.333l-4.4-3.386a1.272,1.272,0,1,1,1.551-2.015l2.238,1.725.1.075c2.212,1.705,2.212,1.705,2.875,2.193l.482.355a2.529,2.529,0,0,0,3.513-.482,2.462,2.462,0,0,0,.5-1.866,2.7,2.7,0,0,0-1.066-1.8l-5.437-4.013-.082-.06c-4.154-3.066-4.154-3.066-4.44-3.265l-.151-.105a17.5,17.5,0,0,1-2.424.171,17.614,17.614,0,0,1-12.769-5.6.323.323,0,0,0-.235-.1.364.364,0,0,0-.243.1c-3.57,3.207-6.862,4.833-9.784,4.833A7.215,7.215,0,0,1,26.8,23.076a3.26,3.26,0,0,1-1-2.687,3.3,3.3,0,0,1,1.511-2.478,63.429,63.429,0,0,0,8.08-6.3,15.65,15.65,0,0,0-3.055-.477l-2.26-.129-.029,0c-2.029-.116-2.788-.16-3.348-.16-.259,0-.466.01-.7.024-.177.011-.357.017-.535.017a8.53,8.53,0,0,1-3.26-.653l-2.173-.909L15.948,19.686l-.015.038-3.3,8.368,5.643,3.56c.017.011.036.023.052.035l1.12.787,1.917-2.249a4.632,4.632,0,0,1,8.158,2.743,4.74,4.74,0,0,1,.5-.027,4.638,4.638,0,0,1,3.51,1.608l.006.007.006.007a4.588,4.588,0,0,1,1.093,2.629c0,.02,0,.041,0,.061s0,.042,0,.061l.062-.006.062-.006c.128-.01.258-.016.386-.016a4.569,4.569,0,0,1,2.991,1.1,4.654,4.654,0,0,1,1.627,3.276A4.785,4.785,0,0,1,40.291,41.633Zm-5.137-1.8a2.088,2.088,0,0,0-1.6.735L30.413,44.26a2.088,2.088,0,0,0,.244,2.943A2.088,2.088,0,0,0,33.6,46.96l3.142-3.687a2.088,2.088,0,0,0-1.591-3.441ZM30.03,35.485a2.092,2.092,0,0,0-1.6.735l-3.145,3.691a2.09,2.09,0,0,0,3.189,2.7l3.145-3.69a2.09,2.09,0,0,0-.071-2.782l-.01-.01-.008-.009A2.067,2.067,0,0,0,30.03,35.485ZM24.9,31.136a2.09,2.09,0,0,0-1.6.736l-3.146,3.691a2.09,2.09,0,0,0,3.19,2.7l3.143-3.689a2.086,2.086,0,0,0-1.587-3.44Z" transform="translate(0 0)" fill="#005f61" stroke="#005f61" stroke-width="0.5"/>
    </g>
    <g id="Group_57077" data-name="Group 57077" transform="translate(1215.096 154.496)">
      <path id="Subtraction_1-2" data-name="Subtraction 1" d="M37.134,54.588a4.624,4.624,0,0,1-4.62-4.375,4.8,4.8,0,0,1-.517.028,4.632,4.632,0,0,1-4.613-4.376,4.8,4.8,0,0,1-.517.028,4.629,4.629,0,0,1-4.61-4.376,4.732,4.732,0,0,1-.506.027,4.631,4.631,0,0,1-3.919-7.1l-.94-.66L11.413,30.33a2.592,2.592,0,0,1-2.625.429L0,27.783l.788-2.577c1.926.6,5.038,1.649,8.934,3.186a.054.054,0,0,0,.07-.031c.16-.407,3.053-7.741,5.378-13.633l.1-.253,3.216-8.152a.053.053,0,0,0-.03-.069L7.846,2.12,8.495,0l10.9,3.889a2.6,2.6,0,0,1,1.558,3.064l2.242.938a5.94,5.94,0,0,0,2.278.457c.124,0,.249,0,.373-.012.33-.021.577-.03.851-.03.648,0,1.506.049,3.58.168l2.207.125a18.136,18.136,0,0,1,5.051,1.02c.467-.451.933-.911,1.423-1.405a6.416,6.416,0,0,1,5.558-1.82l4.826.766a1.272,1.272,0,1,1-.4,2.512L44.112,8.9a3.866,3.866,0,0,0-3.35,1.1A74.582,74.582,0,0,1,28.723,20.025a.814.814,0,0,0-.393.605.731.731,0,0,0,.225.6,4.659,4.659,0,0,0,3.3,1.338c2.23,0,5.02-1.446,8.067-4.183a2.9,2.9,0,0,1,1.942-.751,2.843,2.843,0,0,1,2.071.888A14.834,14.834,0,0,0,54.81,23.349a15.5,15.5,0,0,0,2.586-.221,1.469,1.469,0,0,1,.249-.022,1.245,1.245,0,0,1,.752.246l10.518,7.763.094.068,5.456-3.5c-.28-.709-3.162-8.014-5.267-13.349l-1.971-5-3.742,1.381a9.767,9.767,0,0,1-4.9.484l-3.749-.6a1.272,1.272,0,0,1,.2-2.528,1.286,1.286,0,0,1,.2.016l3.749.6a7.236,7.236,0,0,0,1.124.088,7.194,7.194,0,0,0,2.5-.445l3.709-1.369a2.6,2.6,0,0,1,1.558-3.072L77.538.1l.932,2.366L68.8,6.256a.045.045,0,0,0-.028.028.046.046,0,0,0,0,.04L73.182,17.5l.176.446,4.109,10.417a.052.052,0,0,0,.049.033.058.058,0,0,0,.021,0l6.918-2.728.934,2.366-6.919,2.73a2.595,2.595,0,0,1-2.936-.743L70.582,33.2a4.987,4.987,0,0,1-.345,4.829A5.055,5.055,0,0,1,66,40.362a5.123,5.123,0,0,1-1.32-.175,5.07,5.07,0,0,1-5.063,4.766,5.342,5.342,0,0,1-.986-.093,5.023,5.023,0,0,1-5.064,4.989,5.242,5.242,0,0,1-1.794-.319,5.011,5.011,0,0,1-1.72,3.3,5.145,5.145,0,0,1-6.428.2l-1.852-1.366-1.1,1.29A4.623,4.623,0,0,1,37.134,54.588ZM40.28,44.177a2.086,2.086,0,0,0-1.594.738L35.54,48.606a2.09,2.09,0,0,0,3.19,2.7c1.24-1.456,2.638-3.1,3.146-3.691l.007-.01.007-.01a2.089,2.089,0,0,0-1.611-3.419Zm.011-2.543h0a4.633,4.633,0,0,1,3.522,7.63l-.392.461,1.709,1.261a2.676,2.676,0,0,0,1.6.529,2.491,2.491,0,0,0,1.822-.766,2.533,2.533,0,0,0,.314-3.1l-2.7-2.091a1.272,1.272,0,0,1,1.557-2.011L49.1,44.612l.053.041c1.429,1.108,1.429,1.108,2.23,1.7l.032.023.555.408a2.663,2.663,0,0,0,1.594.525,2.514,2.514,0,0,0,2-4.067l-3.9-3a1.272,1.272,0,0,1,.777-2.279,1.259,1.259,0,0,1,.775.264l2.256,1.737.018.014c1.776,1.368,1.776,1.368,2.236,1.706l.284.209a2.707,2.707,0,0,0,1.595.525,2.5,2.5,0,0,0,1.779-.72,2.549,2.549,0,0,0,.23-3.333l-4.4-3.386a1.272,1.272,0,1,1,1.551-2.015l2.238,1.725.1.075c2.212,1.705,2.212,1.705,2.875,2.193l.482.355a2.529,2.529,0,0,0,3.513-.482,2.462,2.462,0,0,0,.5-1.866,2.7,2.7,0,0,0-1.066-1.8l-5.437-4.013-.082-.06c-4.154-3.066-4.154-3.066-4.44-3.265l-.151-.105a17.5,17.5,0,0,1-2.424.171,17.614,17.614,0,0,1-12.769-5.6.323.323,0,0,0-.235-.1.364.364,0,0,0-.243.1c-3.57,3.207-6.862,4.833-9.784,4.833A7.215,7.215,0,0,1,26.8,23.076a3.26,3.26,0,0,1-1-2.687,3.3,3.3,0,0,1,1.511-2.478,63.429,63.429,0,0,0,8.08-6.3,15.65,15.65,0,0,0-3.055-.477l-2.26-.129-.029,0c-2.029-.116-2.788-.16-3.348-.16-.259,0-.466.01-.7.024-.177.011-.357.017-.535.017a8.53,8.53,0,0,1-3.26-.653l-2.173-.909L15.948,19.686l-.015.038-3.3,8.368,5.643,3.56c.017.011.036.023.052.035l1.12.787,1.917-2.249a4.632,4.632,0,0,1,8.158,2.743,4.74,4.74,0,0,1,.5-.027,4.638,4.638,0,0,1,3.51,1.608l.006.007.006.007a4.588,4.588,0,0,1,1.093,2.629c0,.02,0,.041,0,.061s0,.042,0,.061l.062-.006.062-.006c.128-.01.258-.016.386-.016a4.569,4.569,0,0,1,2.991,1.1,4.654,4.654,0,0,1,1.627,3.276A4.785,4.785,0,0,1,40.291,41.633Zm-5.137-1.8a2.088,2.088,0,0,0-1.6.735L30.413,44.26a2.088,2.088,0,0,0,.244,2.943A2.088,2.088,0,0,0,33.6,46.96l3.142-3.687a2.088,2.088,0,0,0-1.591-3.441ZM30.03,35.485a2.092,2.092,0,0,0-1.6.735l-3.145,3.691a2.09,2.09,0,0,0,3.189,2.7l3.145-3.69a2.09,2.09,0,0,0-.071-2.782l-.01-.01-.008-.009A2.067,2.067,0,0,0,30.03,35.485ZM24.9,31.136a2.09,2.09,0,0,0-1.6.736l-3.146,3.691a2.09,2.09,0,0,0,3.19,2.7l3.143-3.689a2.086,2.086,0,0,0-1.587-3.44Z" transform="translate(0 0)" fill="#005f61" stroke="#005f61" stroke-width="0.5"/>
    </g>
  </g>
</svg>
