<svg xmlns="http://www.w3.org/2000/svg" xmlns:xlink="http://www.w3.org/1999/xlink" width="73.166" height="79.356" viewBox="0 0 73.166 79.356">
  <defs>
    <clipPath id="clip-path">
      <path id="Path_126949" data-name="Path 126949" d="M35.821,0a35.821,35.821,0,1,1,0,71.641c-2.275,0-1.8.47-4.293,0,8.476-6.053,2.381-23.987-2.7-28.765C23.343,37.729,14.2,33.466.348,40.836A34.787,34.787,0,0,1,0,35.821,35.821,35.821,0,0,1,35.821,0Z" transform="translate(0 0)" fill="#fff"/>
    </clipPath>
  </defs>
  <g id="iconHome4" transform="translate(-1220.655 -144)">
    <g id="Group_57076" data-name="Group 57076" transform="translate(1015.904 -865)">
      <g id="location" transform="translate(206.276 1051.54)">
        <path id="Path_124318" data-name="Path 124318" d="M14.391,18.211A5.511,5.511,0,1,0,8.88,12.7,5.511,5.511,0,0,0,14.391,18.211Z" transform="translate(0.839 1.977)" fill="none" stroke="#005f61" stroke-width="3"/>
        <path id="Path_124319" data-name="Path 124319" d="M3.806,13.463c3.479-15.3,26.14-15.278,29.6.018,2.031,8.972-3.55,16.567-8.442,21.265a9.173,9.173,0,0,1-12.734,0C7.356,30.047,1.775,22.435,3.806,13.463Z" transform="translate(-3.377 -2)" fill="none" stroke="#005f61" stroke-width="3"/>
      </g>
      <g id="Group_57073" data-name="Group 57073" transform="translate(206.276 1009)">
        <g id="Mask_Group_8" data-name="Mask Group 8" transform="translate(0)" clip-path="url(#clip-path)">
          <g id="Group_55947" data-name="Group 55947" transform="translate(7.704 5.538)" opacity="0.3">
            <g id="Group_55948" data-name="Group 55948">
              <g id="Group_55949" data-name="Group 55949">
                <g id="layer1">
                  <g id="ye" transform="translate(30.23 43.377)">
                    <path id="path2592" d="M8811.652,3468.987c-.532-.019-.231-1.1-.756-1.166.235-.374-.637-1.534-.788-1.944l-.613-1.416c-1.556.3-3.114.64-4.647.846a3.19,3.19,0,0,0-2.209,1.72c-.266.4-.409,1.4-1.046,1.364-.435-.026-.391-.678-.807-.628a5.434,5.434,0,0,1-1.491-.023,7.751,7.751,0,0,0-.913-.258c-.328,0-.654.031-.981.063a7.332,7.332,0,0,1-1.156.2c-.229-.013-.314-.268-.547-.3a.489.489,0,0,0-.489.312,1.135,1.135,0,0,0-.1.683c.024.146.231.292.117.442s-.187.289-.3.437a.629.629,0,0,1-.22.192c-.21.1-.1.185-.059.415.067.364-.071.533-.135.864-.061.308.2.575.169.879-.06-.052-.37-.06-.319.062a2.364,2.364,0,0,1,.314.158,1.294,1.294,0,0,1,.3.624c.117.479.128,1.014.278,1.48.061.191.215.334.288.521a1.756,1.756,0,0,1,0,.7c-.01.455.542.838.392,1.3.2.016.337-.1.542-.016a.945.945,0,0,0,.6.11c.493-.1.712-.441,1.224-.172-.025-.139.123-.281.174-.078a2.47,2.47,0,0,0,.2-.306c.106-.165.285-.161.427-.271.322-.244.36-.49.807-.592a4.087,4.087,0,0,1,1.275-.075c.251.023.669-.263.92-.333.369-.106.555-.428.883-.609a2.339,2.339,0,0,1,.351-.214.84.84,0,0,1,.346.085,1.087,1.087,0,0,0,.36-.044c.792-.128.969-.946,1.682-1.3a3.336,3.336,0,0,1,.975-.265c.436-.076.8-.368,1.225-.47a8.188,8.188,0,0,0,.889-.232c.289-.1.391-.334.636-.459.2-.1.638-.09.7-.365.072-.319-.15-.608-.034-.933.233-.657,1.035-.631,1.525-.99" transform="translate(-8794.363 -3464.462)" fill="#005f61"/>
                  </g>
                  <path id="jo" d="M-134.987,45.941c-.03-.527.182-1.028.187-1.552a12.822,12.822,0,0,1,.347-1.622c.031-.239-.038-.482-.02-.725s.094-.455.1-.678c.017-.468-.047-1.03-.064-1.5-.014-.4.486-.278.714-.12.376.26.717.654,1.223.555a4.539,4.539,0,0,0,1.4-.86c.539-.359,1.076-.755,1.641-1.069.174.559.4,1.1.6,1.65-.194.021-.067.286.058.318.2.051.448.02.128.356a10.941,10.941,0,0,1-3.222,1.242l1.8,1.891c-.162.08-.591.07-.706.215-.133.167.018.5-.124.672-.238.28-.839.042-1.148.336-.352.336-.467.968-.97,1.166a4.424,4.424,0,0,1-1.945-.273" transform="translate(151.443 -21.975)" fill="#005f61"/>
                  <g id="ae" transform="translate(43.968 30.188)">
                    <path id="path2704" d="M9221.753,3223.216a.257.257,0,0,0,.251-.126.25.25,0,0,0-.406.079l.155.047" transform="translate(-9218.125 -3219.555)" fill="#005f61"/>
                    <path id="path2784" d="M9135.412,3140.427c.107-.07.146-.029.124.126.051-.048.1-.1.156-.141.1.148.012.364.126.5s.37.1.52.094a.77.77,0,0,0,.513-.178c.069-.061.146-.242.241-.262s.354.13.479.132c.2,0,.405.028.61.021.551-.02.931.235,1.473-.09-.048-.076-.1-.149-.157-.22.171-.065.146.141.282.125.2-.021.36-.258.441-.415a2.346,2.346,0,0,1,.625-.988c.371-.309.521-.867.873-1.156.387-.319.62-.4.73-.929.283.015.162.423.164.6,0,.326.358.16.4.523s.29.838.006,1.119c-.611.6-.415.18-.51-.078s-.287.209-.255.364c.021.118-.033.119-.014.245a4.184,4.184,0,0,1,.106.492c0,.44.446.242.27.535-.143.234-.6.029-.78.241.41.229-.2,1.3-.278,1.961.027.432-.192.53-.567.442-.462-.109-.942-.152-1.411-.222-.492-.073-.984-.145-1.478-.207-.362-.045-.8.027-1.041-.3s-.483-.66-.741-.98c-.185-.223-.371-.442-.551-.664a4.418,4.418,0,0,1-.355-.694" transform="translate(-9135.412 -3137.049)" fill="#005f61"/>
                  </g>
                  <g id="tr" transform="translate(0.981)">
                    <path id="path3456" d="M8068.234,2390.141a.952.952,0,0,0,.438-.477c.075-.276-.137-.483.244-.656.21-.094.134-.1.081-.316a.366.366,0,0,0-.22-.3c-.5-.164.116-.243.088-.444-.007-.056.537-.211.626-.24.287-.094.459-.191.667.047.2.222.307.08.555.055a.472.472,0,0,1,.346.078c.158.132-.081.178.033.323a2.807,2.807,0,0,0,1.579.977c.257.077.043.453-.116.513-.306.113-.748-.183-1.061-.2-.153-.009-.246.1-.375.163-.155.08-.318-.059-.5,0-.216.065-.307.3-.457.461a4.755,4.755,0,0,1-.847.543c-.237.173-.467.655-.721.754a.589.589,0,0,1,.353-.731c.052-.02.631-.194.44-.351-.31-.255-1.006.427-1.156-.191" transform="translate(-8068.234 -2387.604)" fill="#005f61"/>
                    <path id="path3458" d="M8073.326,2393.575c.022-.163.041-.967.161-1.013.3-.114.4-.546.7-.7.164-.082.376.063.525-.044.192-.134.275-.032.441.069.242.144,1.02.083.525-.213a.785.785,0,0,1,.486-.016.151.151,0,0,0-.117.153c.092.129.561.053.679.042.367-.033.893.18,1.2-.085-.147-.143-.337-.018-.49-.142.2-.5,1.1-.313,1.511-.408-.354-.173-.856-.028-1.152-.331-.331-.341,0-.623.358-.59a3.8,3.8,0,0,0,1.178.133c.53-.116.96.174,1.5.12.249-.024.285-.152.378-.348.1-.215.484-.309.679-.422a6.411,6.411,0,0,1,1.639-.788,6.333,6.333,0,0,1,1.837-.083,2.867,2.867,0,0,0,.825.031c.123-.037.162-.185.283-.22s.228.037.345.047c-.2.241.143.57.36.636a1.214,1.214,0,0,0,.513.069c.19-.025.354-.24.354.033.044-.4.3.088.343.2.05.154.467.671.633.5.216-.233.447-.182.68,0a4.836,4.836,0,0,0,.95.427c.18.09.21-.279.454-.01.2.217.58.211.851.238.375.038.76-.222,1.138-.259a1.558,1.558,0,0,1,.807.036,1.382,1.382,0,0,0,1.2.053,7.083,7.083,0,0,0,1.478-.9c.184-.147.351.1.537.106.111,0,.1-.152.235-.125.086.016.17.036.255.053.125.026.479.165.554,0,.093-.2.538-.375.4-.067a.459.459,0,0,1,.362.147c.072.066.149.127.226.185.126.016.156.074.087.176.059.176.3,0,.393.148.063.093.105.371.2.447.3.24.539.48.369.725s.286.6.048.763a1.862,1.862,0,0,0,.978.164,1.471,1.471,0,0,1,.953.763c-.187-.153-.471-.376-.55,0a3.069,3.069,0,0,1-.03.354c-.046.149-.441.07-.567.118a1.943,1.943,0,0,1,.313.525,4.489,4.489,0,0,0,.239.557c.12.31.011.764.409.9a1.207,1.207,0,0,0-.256.555c-.085.349.274.3.459.467s.148.393.206.615c.028.111.226.16.3.228s.01.255.058.351c-.366-.258-.52.384-.729.314-.271-.09-.048-.448-.249-.581a.31.31,0,0,0-.354.021.6.6,0,0,1-.594.052,2.631,2.631,0,0,0-.885-.2c-.235,0-.381-.062-.5.145-.15.25-.447.474-.547.1-.09-.325-.5.066-.679.124a2.778,2.778,0,0,1-1.314.083c-.84-.111-1.564.734-2.415.794-.341.024-.951.107-1.237-.108-.311-.236-.506-.37-.889-.184-.41.2-1.3.669-1.656.231-.177-.22-.552-.3-.606.049a1.331,1.331,0,0,0,.213.868,1.667,1.667,0,0,1-.475.015c-.023.134.065.276.018.409-.054.156-.263.189-.312.361a1.291,1.291,0,0,0-.377-.2c.135-.176-.053-.405-.16-.537-.2-.246.018-.39.224-.568s.347-.311.141-.588c-.081-.11-.252-.247-.37-.1-.161.209-.324.177-.526.327.335-.034-.008.3-.257.257a3.3,3.3,0,0,1-.857-.376c-.657-.329-1,.636-1.3,1.03l-.143-.158c-.12.124-.2.345-.388.272a1.571,1.571,0,0,0-.8.132,1.055,1.055,0,0,1-.9,0c-.428-.188-.581-.663-.989-.861a5.449,5.449,0,0,0-1.389-.556c-.261-.046-.789-.15-.789.261,0,.237.044.666-.129.855-.095.1-.22-.088-.31-.1-.228-.031-.462.238-.687.276a1.5,1.5,0,0,1-.869-.262c-.164-.1-.17-.445-.393-.455.172-.245-.231-.51-.281-.188-.172-.147-.6-.2-.646-.456-.041.183-.481.485-.628.6.05-.11.015-.177-.109-.2a.251.251,0,0,0,.2-.251,2.238,2.238,0,0,1-1.115.236.861.861,0,0,1,.7-.206c.238.006.215.07.311-.115.069-.128.216-.186.308-.292a2.155,2.155,0,0,0-1.522.094c-.36-.422.322-.2.374-.308a.337.337,0,0,0-.015-.3c-.121-.2-.253.078-.187-.238-.348.443-.321-.47-.644-.456.225-.121.479-.238.287-.542-.14-.219-.533-.106-.628-.268s-.2-.4-.348-.11c-.064.131-.529-.221-.538-.337.469.112.063-.384.08-.577.014-.16.265-.043.313.036.1.162.064.429.222.557-.036-.348.507.088.657-.267a.876.876,0,0,1-.628-.424c.164-.091.246-.288.441-.33-.086-.255-.35.01-.326-.279s-.126-.323-.336-.506c.14-.16.3-.3.426-.471-.447-.228-.87.242-1.32.095" transform="translate(-8073.121 -2388.666)" fill="#005f61"/>
                  </g>
                  <path id="iq" d="M2.4-141.152a20.236,20.236,0,0,0,2.635-1.5,2.723,2.723,0,0,0,.714-.65c.3-.454.06-1.053.12-1.223.006-.705.2-.792.156-1.131-.045-.379-.584-1.044-.168-1.368.238-.185.534-.178.779-.383.206-.172.761-.623.6-.8-.075-.083.076.008.188-.026.186-.056.247-.232.328-.38s.91-.011,1.091.059a2.821,2.821,0,0,0,.441.139c.249.051.324-.11.541-.15.547-.1.174.615.484.587.226-.02.316-.363.564-.353.316.012.3.548.443.734.066.088.151.073.206.183.067.135-.022.327.092.438.239.234.765.464.551.868.355-.079.5.239.659.3.3.115.307-.126.96.047-.057.245-.342.188-.444.378-.173.32.316.559.344.85.037.384-.433-.038-.419.351.006.175-.184.146-.232.311-.055.187.037.326.069.5a.623.623,0,0,1-.33-.095c-.027.158-.136.278-.012.409s.238.2.163.437-.271.273-.079.447a4.694,4.694,0,0,0,.493.45c.184.124,1.145.947.6,1.1.214.052.159.3.335.26.253-.059.395.1.6.217.372.21.61.688,1.126.728.244.019.695.815.911,1.006.327.289.126.587.044.984-.039.19-.029.728.252.748.1.007.264-.013.341.085a.8.8,0,0,1,.077.535c-.051.343.128.443.512.72.193.139.15.572.424.638-.142.011-.986-.11-1-.264.116.275-.367.054-.555.046a.767.767,0,0,0-.75.315c-.268.569-.22,1.7-1.129,1.6l-2.3-.262c-.768-.11-.8-.514-1.5-.955-1.943-1.429-3.8-3.142-5.98-4.1a9.985,9.985,0,0,0-2.183-.469c.443-.48-.091-.268-.223-.473a.242.242,0,0,1-.032-.2c.111-.127,0-.257-.068-.443-.154-.412-.3-.816-.431-1.235" transform="translate(19.585 157.547)" fill="#005f61"/>
                  <g id="ir" transform="translate(28.885 4.379)">
                    <path id="path4560" d="M9190.566,3101.378a.282.282,0,0,1,.155-.032.355.355,0,0,0-.327-.032c.056.021.112.043.172.064" transform="translate(-9173.097 -3076.919)" fill="#005f61"/>
                    <path id="path4562" d="M9222.133,3115c.029-.131-.023-.142-.156-.032l.156.032" transform="translate(-9203.407 -3089.974)" fill="#005f61"/>
                    <path id="path4564" d="M9275.82,3093.748c-.258.215-.437.587-.85.518-.037.387.549-.007.682-.067s.3-.013.439-.079c.2-.093.23-.4.465-.42-.264-.256-.467.169-.736.048" transform="translate(-9254.265 -3069.556)" fill="#005f61"/>
                    <path id="path4606" d="M8760.979,2497.027c.432-.148.589.173.58-.513-.006-.3.256-.187.443-.049a6.294,6.294,0,0,1,.458.506c.164.149.348.269.51.417a1.546,1.546,0,0,0,.959.547,2.592,2.592,0,0,0,1.008-.008,2.337,2.337,0,0,0,.752-.665c.065-.172.3-.21.437-.323a5.436,5.436,0,0,1,.445-.4c.434-.3.82.156,1.085.472-.579.218.2.7-.117.776-.6.135.021.487.277.646a5.174,5.174,0,0,0,.532.373c.079.036.313-.01.337.039.24.487.206,1.29.744,1.573.457.241,1,.128,1.47.326.3.129.4.466.645.66a4.7,4.7,0,0,0,.983.5,3.085,3.085,0,0,0,2,.254,6.216,6.216,0,0,1,2.508-.468,2.1,2.1,0,0,1-.5.063c.114.086.566.255.629.02.058-.205-.265-.77-.327-.98a1.57,1.57,0,0,0,1.011-.082c.4-.17.126-.318.308-.6a2.091,2.091,0,0,1,.908-.666c.441-.167.868.088,1.309-.007-.149-.25.181-.275.373-.291.244-.021.521.068.76.044.338-.034.34.009.506.315s.6.285.89.338c.327.058.553.386.9.414a3.472,3.472,0,0,1,1.061.106,1.2,1.2,0,0,1,.689.6c.205.315.668.271.958.466.255.173.341.492.6.652.294.179,1.044-.167,1.273.081a2.387,2.387,0,0,1,.272,1c.045.253-.16.161.041.333a1.711,1.711,0,0,1,.254.718c.031.251-.2.424-.152.693.063.366.19,1.149-.355,1.211.048.069.236.223.221.315-.025.146-.361.191-.424.38-.111.341.085,1.143.5,1.171.533.036.052.458-.028.725-.122.392.44,1.267.552,1.707.122.5.082.986.424,1.367.275.3.871.145,1.228.323.373.187.349.761.256,1.078a5.024,5.024,0,0,1-.562.886,4.664,4.664,0,0,1-.618.889c.172.174.314.31.4.383.789.7,1.061,1.726,1.692,2.074.193.1.387.17.586.267a1.938,1.938,0,0,0,.627.268c.292.019.393,1.036.405,1.3.04.914.209.664.732.67.251,0,.108.654.089.912-.033.521-1.711.043-1.442.749a.637.637,0,0,0-.524.187,3.226,3.226,0,0,0-.279,1.61c-.008.147.044.465-.219.371.121.412-.774.044-.916,0-.159-.05-.526-.016-.566-.238-.061-.306-.416-.124-.261.018a4.389,4.389,0,0,1-.937-.064,1.281,1.281,0,0,0-1.037-.086c-.238.074-.413-.059-.6-.192-.248-.177-.457-.069-.726-.142-.215-.057-.4.118-.613.029-.2-.083-.248-.364-.473-.111.059-.307-.6-.219-.781-.39a3.206,3.206,0,0,1-.585-1.65,1.148,1.148,0,0,0-1.281-.917c-.276.021-.476.254-.734.329-.216.063-.493.106-.369.357.081.161-.482.089-.521.1-.28.068-.391.36-.63.479-.4.2-.772-.349-1.165-.349-.479,0-.748.094-1.047-.348-.148-.221-.48-.292-.706-.416-.29-.163-.577-.339-.882-.477.293-.28-.426-.541-.595-.618a2.846,2.846,0,0,0-.45-.244c-.227-.055-.53.035-.721-.107a3.11,3.11,0,0,1-.795-1.041c-.13-.207-.042-.491-.25-.658-.143-.114-.366-.177-.366-.4.258.025.22-.2.028-.244-.129-.029-.449,0-.318-.232.167-.3-.326-.619-.479-.774a2.508,2.508,0,0,1-.582-.881c-.225-.584-.683.438-.928.089-.167-.234-.417-.068-.529-.289-.05-.106-.374-.163-.476-.323a1.915,1.915,0,0,0,.487,0,.324.324,0,0,0-.487-.173c.043.048.082.1.127.141-.467-.061.3,1.01-.521.676.057.163-.083.206-.209.151-.175-.077-.185-.281-.247-.437-.128-.323-.583-.35-.64-.75-.03-.254.085-.761-.274-.749-.567.017-.392-.76-.315-1.145.1-.511-.151-.606-.448-.966s-.248-.577-.741-.67c-.375-.071-.626-.475-.925-.681a.927.927,0,0,0-.563-.236c-.35.029-.139-.168-.394-.266.559-.171-.541-1.041-.721-1.193-.13-.111-.244-.244-.37-.358-.189-.17-.018-.21.061-.423a.3.3,0,0,0-.126-.413c-.157-.124-.033-.308-.008-.456a.634.634,0,0,0,.33.094c-.026-.139-.093-.269-.11-.41-.024-.245.244-.206.266-.387.028-.265.037-.19.259-.189s.186-.189.115-.309c-.117-.2-.4-.4-.329-.664.061-.231.415-.172.477-.429-.153.044-.263-.07-.412-.054-.179.018-.375.1-.548.008-.267-.147-.311-.362-.659-.283.239-.553-.656-.714-.621-1.084.02-.216,0-.292-.2-.378a2.674,2.674,0,0,1-.349-.812c.079-.335-.145-.2-.309-.429s-.083-.6-.267-.681c-.095-.041-.467-.157-.452-.307a1.21,1.21,0,0,1,.3-.693c-.471-.1-.256-.717-.466-.956-.115-.133-.077-.253-.152-.409-.041-.086-.229-.437-.339-.614" transform="translate(-8760.979 -2496.325)" fill="#005f61"/>
                  </g>
                  <path id="sy" d="M-122.968-137.725c.137-.173.4-.534.644-.581-.371-.346.159-.564.471-.471-.274-.333.134-.373.229-.692a.586.586,0,0,0-.369-.57c-.23-.043.208-.373-.149-.273-.6.167-.639-.213-.667-.521-.025-.28.156-.791-.1-1-.2-.165-.045-.6-.053-.846-.006-.181.331.1.4.136.005.024.083-.161.226-.248.177-.107.057-.347.088-.514a1.635,1.635,0,0,0,.471-.015,1.493,1.493,0,0,1-.239-.622c-.013-.111,0-.423.152-.461a.463.463,0,0,1,.326.019c.25.132.3.355.557.315a2.974,2.974,0,0,0,.823-.216c.308-.133.533-.317.878-.268.255.036.4.218.621.319a2.4,2.4,0,0,0,.993.044,6.176,6.176,0,0,0,1.78-.693c.622-.249,1.3.1,1.94-.155.326-.13.8-.628.852.151.011.181-.431.549-.559.675-.231.229-.489.213-.749.365-.559.328.027,1.038.07,1.43a4.81,4.81,0,0,1-.131.756c-.025.357,0,.934,0,1.287,0,.826-3.484,2.407-5.25,3.616-.481.329-1.259,1.121-1.884.683-.228-.159-.392-.281-.626-.443a.591.591,0,0,0-.658-.08c-.014-.051.147-1.027-.088-1.13" transform="translate(139.943 154.308)" fill="#005f61"/>
                  <g id="om" transform="translate(45.34 29.623)">
                    <path id="path4692" d="M9435.733,3390.37a1.132,1.132,0,0,0,.266-.478.71.71,0,0,1,.144-.135c.059-.07-.092-.288-.11-.361-.08.34-.438.594-.3.974" transform="translate(-9424.978 -3378.667)" fill="#005f61"/>
                    <path id="path4696" d="M9310.114,3123.569a1.874,1.874,0,0,1,.17-.361c.148.165.291-.06.223-.2.126.069.383.5.062.424.206.143.056,1.019-.171.978-.31-.055.109-.817-.283-.837" transform="translate(-9304.45 -3123.003)" fill="#005f61"/>
                    <path id="path4786" d="M9169.492,3199.963a18.7,18.7,0,0,0,4.777-1.646c.422-.812-.035.467.17-.437.166-.738.281-1.475.445-2.178.117-.487.391-1.1.109-1.562-.2-.333-.613-.618-.742-.987-.162-.463.713-2.056.283-2.309.191-.23.572-.031.74-.251.184-.242-.113-.161-.172-.283a1.71,1.71,0,0,1-.072-1.366c.1-.153.3.083.273.2-.1.379.283-.032.344-.089.186-.178.186-.148.3.1a4.657,4.657,0,0,0,.76,1.157,3.2,3.2,0,0,0,1.863.877c.324.065.6.193.932.23.443.05.688.589.941.89.2.243.344.537.547.769a1.161,1.161,0,0,0,.6.364c.656.262-.086,1.2-.217,1.581-.246.728-1.027,1.108-1.24,1.889-.047.184-.117.717-.408.629-.23-.069-.187-.51-.48-.327-.354.213-.334.98-.424,1.3a1.916,1.916,0,0,0,.123,1.131c.088.326.145.573-.252.585-.637.019-1.34.207-1.5.894a2.072,2.072,0,0,1-.277.794c-.211.284-.635.269-.967.293a.884.884,0,0,0-.8.414c-.227.308-.08.367-.1.719-.016.28-.3.482-.529.593-.107.053-.215.123-.328.036-.189-.151-.35-.11-.586-.11-.691,0-1.293.669-1.99.649-.449-.013-.248-1.114-.729-1.167.2-.214-.295-.966-.4-1.154a15.012,15.012,0,0,1-1.012-2.239" transform="translate(-9169.484 -3186.24)" fill="#005f61"/>
                  </g>
                  <path id="eg" d="M-543.36,122.217c-.311-.5.329-1.019.251-1.53-.085-.548-.584-.931.205-1.581.017.4.482.256.723.185a2.967,2.967,0,0,1,1.24.059,8.844,8.844,0,0,1,1.4.278c.2.052.227.266.427.327a1.1,1.1,0,0,0,.487.014c.118-.013.172.172.305.2a4.23,4.23,0,0,0,.441.045c.472.047.787.343,1.23.417a1.514,1.514,0,0,0,1.144-.479c.159-.136.308-.283.454-.433.125.1.219.2.377.173-.09-.045-.071-.071-.19-.063a.663.663,0,0,0,.347-.409c.267.16.519-.127.786-.125a1.553,1.553,0,0,0-.489.33c.047-.028,1.13-.355.613-.393.383-.127.631.311,1,.259.176-.025.341-.2.527-.133s.255.311.408.408c-.155-.109-.314-.347-.519-.361.061.163-.164.471.1.534.288.069.153.14.34.314,0-.064.514-.281.142-.456.4.092.527.457.992.417.151-.013.6-.291.516.039.288-.183.611-.076.92-.169a2.028,2.028,0,0,0,.763-.378l1.327,3.5c-.335.427-.261,1.215-.474,1.721a1.679,1.679,0,0,0-.116.792c0,.267-.337.525-.253.786a4.781,4.781,0,0,0-.558-.343,2.338,2.338,0,0,1-.542-.615c-.2-.284-.773-.47-.69-.9s-.33-.728-.542-1.031a4.127,4.127,0,0,1-.621-1.4c-.2.211-.406.673-.2.914.351.414.315.921.609,1.348a7.955,7.955,0,0,0,.832,1.139c.141.14.3.26.43.412.067.08.344.536.01.287.27.211.047.479.218.653a2.216,2.216,0,0,1,.473.774,2.5,2.5,0,0,0,.241.4c.064.1-.063.226-.069.323-.008.13.2.322.262.434.133.256.278.506.412.762.44.84.885,1.665,1.3,2.518a7.047,7.047,0,0,0,.608.872c.191.279.525.366.7.649a.98.98,0,0,1-.486-.094,1.937,1.937,0,0,0,.176,1.421c.221.256-.29.769-.6.785-.154.007-.213-.1-.369.069a1.573,1.573,0,0,0-.243.547.55.55,0,0,1-.383.434c-.181.042-.507.005-.6.213-.176.38-.068.824-.6.782-.625-.05-.942-.556-1.271-.542a11.519,11.519,0,0,1-2.556,0c.024-.085.123-.266.062-.354-.154-.222-.271.18-.322.253-.2.291-1.221.116-1.547.116l-8.748-.019-.312-11.824c-.033-.553-.019-1.132-.1-1.68a5.889,5.889,0,0,0-.4-1.592" transform="translate(543.446 -99.46)" fill="#005f61"/>
                  <g id="sa" transform="translate(16.065 18.736)">
                    <path id="path3380" d="M8457.123,2882.422a1.1,1.1,0,0,0-.28-.782c-.089-.058-.531-.981-.5-.536-.041-.8-.592-1-1.032-1.544a2.606,2.606,0,0,1-.481-.75c-.1-.323-.285-.416-.449-.678-.1-.154-.014-.289-.127-.446a4.123,4.123,0,0,1-.264-.614c-.052-.136-.08-.279-.144-.408s-.179-.136-.238-.241,0-.239-.078-.327-.205-.1-.291-.18a8.039,8.039,0,0,1-.649-.62c-.226-.269-.5-.156-.754-.346a4.466,4.466,0,0,1-.979-1.35,1.153,1.153,0,0,1-.124-.686c-.016-.3-.232-.545-.254-.848a9.254,9.254,0,0,0,.058-1.184,1.486,1.486,0,0,0-.231-.484c-.052-.08-.357-.476-.01-.205-.079-.2-.251-.2-.3-.419a3.076,3.076,0,0,0-.212-.592,3.748,3.748,0,0,0-1.006-1.223,1.822,1.822,0,0,0-.9-.4c-.148-.04-.218-.318-.258-.436a2.558,2.558,0,0,0-.431-.642c.552-.2-.219-1.107-.4-1.327-.124-.147-.464-.416-.449-.61.023-.335-.406-.528-.551-.83-.441-.914-1.136-1.674-1.623-2.571-.148-.273-.313-.694-.641-.787-.151-.042-.736-.139-.746.136-.2-.179.12-.649.175-.837a9.141,9.141,0,0,0,.089-1.2,3.986,3.986,0,0,1,.071-.491,5.783,5.783,0,0,0,1.787.308c.745-.163.735-1.246,1.436-1.357.262-.041.9.025.876-.329-.064-.807.287-.565.776-.73-.636-.611-1.247-1.248-1.827-1.91a10.506,10.506,0,0,0,3.221-1.206,10.35,10.35,0,0,1,2.194.458,31.091,31.091,0,0,1,5.61,3.816c.384.292.756.582,1.112.9a1.709,1.709,0,0,0,1.229.4c.617.06,1.271.148,1.89.205.228.021.341-.1.588-.042a8.448,8.448,0,0,0,1.018.143c.358.033.387.451.5.715.167.393.741.145,1.065.173s.379.212.49.487c.119.3.71.678.619,1.011a.678.678,0,0,0-.11-.141c-.1.24.138.212.11.423,0,0,1.01.1.626.393.148.046.459.8.61.376-.1.379.808.8,1.021,1.035a.4.4,0,0,1-.251-.2c0,.418.255.424.349.759.053.2.031.61-.256.354.027.223-.047.268.158.309a4.962,4.962,0,0,1,.315.648c-.06-.051-.117-.1-.174-.157.174.255.484.4.622.681a8.794,8.794,0,0,0,.349.825c.129.214.313.58.58.645.123.03.566-.085.5.155a.167.167,0,0,1,.266-.094c-.149.182-.283.678.22.55a3.577,3.577,0,0,0,.286.615,14.92,14.92,0,0,0,1.669,1.942,34.612,34.612,0,0,1,3.839.549.456.456,0,0,0,.3-.2c.234.537.76.818.849,1.167a1.5,1.5,0,0,1-.023.848c-.277,1.083-.431,3.036-.829,3.252-2.728,1.469-6.139,1.983-9.379,2.52a7.429,7.429,0,0,0-1.21.561,3.98,3.98,0,0,0-1.323,1.935.878.878,0,0,1-.716.581c-.317,0-.377-.516-.637-.6-.295-.1-.511.052-.766.021a4.01,4.01,0,0,1-1.274-.168,2.247,2.247,0,0,0-1.209-.118c-.414,0-.849.254-1.258.249-.511-.007-.587-.395-.853-.325-.355.093-.45.561-.469.855s.345.461.034.671c-.059.041-.118.454-.564.6,0-.04.023-.05.022-.088" transform="translate(-8442.714 -2852.736)" fill="#005f61"/>
                    <path id="path5488" d="M9040.611,3077.1c.076-.118.2-.086.285,0a.757.757,0,0,1-.285,0" transform="translate(-9016.528 -3067.986)" fill="#005f61"/>
                  </g>
                  <path id="il" d="M-168.076,46.2c.076-.1.489-.6.3-.723a5.291,5.291,0,0,0,.519-1.775c.036-.186.042-.491.192-.625.113-.1-.059-.317.044-.428s.324,0,.433.015c.259.032.224-.235.3-.392.377.019.1,1.457.127,1.878a.849.849,0,0,0-.515-.443c-.242-.065-.317.24-.364.427-.053.21-.168.953.135.914.634-.082-.272.348-.149.8.069.254.723-.232.859-.234a4.06,4.06,0,0,0-.011.739,3.338,3.338,0,0,1-.22,1.036c-.189.557-.05,1.513-.428,2.062l-1.226-3.252" transform="translate(183.196 -25.718)" fill="#005f61"/>
                  <g id="lb" transform="translate(16.175 13.933)">
                    <path id="lb-" d="M8283.457,2492.322c.346-.4.332-1.135.627-1.589.146-.225-.023-.53.145-.746.133-.169.488-.356.373-.618a.714.714,0,0,0,.467.009c.3-.177.088.16.131.261a.786.786,0,0,1,.217.082c.146.143.064.112.178.319.24.441-.529.512-.223.885-.311-.094-.842.124-.471.471a1.649,1.649,0,0,0-.629.628.2.2,0,0,1-.078-.078c-.053.1-.053.221-.109.325-.119.22-.457-.085-.627.052" transform="translate(-8283.457 -2489.326)" fill="#005f61"/>
                  </g>
                  <g id="kw" transform="translate(35.091 22.576)">
                    <g id="kw-" transform="translate(0 0.04)">
                      <path id="path5440" d="M8973.295,2953.728c.031.068-.373.732.127.684.428-.043-.01-.538-.127-.684" transform="translate(-8970.828 -2953.539)" fill="#005f61"/>
                      <path id="path5486" d="M8915.042,2950.882c.7-.254.371-1.672,1.1-1.806a1.225,1.225,0,0,1,1.056.228c.1.079.34.591.244.714-.207-.29-.5.2-.613.346a.631.631,0,0,1,.752.427c.1.419.419.793.558,1.216-.271-.156-.941.106-1.208-.08-.206-.145-.233-.459-.312-.676-.112-.29-1.154-.212-1.577-.368" transform="translate(-8915.042 -2949.044)" fill="#005f61"/>
                    </g>
                    <path id="kw." d="M8763.5,2706.509a1.313,1.313,0,0,0,0-2.625,1.313,1.313,0,0,0,0,2.625" transform="translate(-8761.869 -2703.884)" fill="#005f61"/>
                  </g>
                  <g id="qa" transform="translate(42.466 30.112)">
                    <path id="qa-" d="M8936.181,2892.519c-.012-.085-.134-.607.11-.361-.018-.085-.07-.555.078-.157.014-.4.152-1.443.7-.866.138.144.4.246.4.473a1.649,1.649,0,0,1-.114.4c-.033.125.044.288.058.413s.145.127.181.236a.7.7,0,0,1-.057.5c-.124.281-.084.488-.395.581-.256.076-.488.281-.659-.1a5.582,5.582,0,0,1-.3-1.127" transform="translate(-8936.14 -2890.966)" fill="#005f61"/>
                  </g>
                  <g id="cy" transform="translate(11.414 12.058)">
                    <path id="cy-" d="M8165.318,2444.041c-.021-.057-.044-.115-.063-.173.213.211.53-.191.774-.174.378.025.095-.354.445-.345a3.6,3.6,0,0,0,1.088-.026c.423-.114.8-.554,1.245-.555-.281.177-.533.591-.848.689-.339.106,0,.433.138.584-.146.018-.477-.011-.589.09s-.168.271-.338.33c-.148.052-.735.114-.645.382-.492-.249-.978-.175-1.208-.8" transform="translate(-8165.255 -2442.768)" fill="#005f61"/>
                  </g>
                </g>
              </g>
            </g>
          </g>
          <g id="Ellipse_11717" data-name="Ellipse 11717" transform="translate(0 0)" fill="none" stroke="#005f61" stroke-width="3">
            <circle cx="35.821" cy="35.821" r="35.821" stroke="none"/>
            <circle cx="35.821" cy="35.821" r="34.321" fill="none"/>
          </g>
        </g>
      </g>
    </g>
    <g id="Group_57078" data-name="Group 57078" transform="translate(1015.904 -865)">
      <g id="location-2" data-name="location" transform="translate(206.276 1051.54)">
        <path id="Path_124318-2" data-name="Path 124318" d="M14.391,18.211A5.511,5.511,0,1,0,8.88,12.7,5.511,5.511,0,0,0,14.391,18.211Z" transform="translate(0.839 1.977)" fill="none" stroke="#005f61" stroke-width="3"/>
        <path id="Path_124319-2" data-name="Path 124319" d="M3.806,13.463c3.479-15.3,26.14-15.278,29.6.018,2.031,8.972-3.55,16.567-8.442,21.265a9.173,9.173,0,0,1-12.734,0C7.356,30.047,1.775,22.435,3.806,13.463Z" transform="translate(-3.377 -2)" fill="none" stroke="#005f61" stroke-width="3"/>
      </g>
      <g id="Group_57073-2" data-name="Group 57073" transform="translate(206.276 1009)">
        <g id="Mask_Group_8-2" data-name="Mask Group 8" transform="translate(0)" clip-path="url(#clip-path)">
          <g id="Group_55947-2" data-name="Group 55947" transform="translate(7.704 5.538)" opacity="0.3">
            <g id="Group_55948-2" data-name="Group 55948">
              <g id="Group_55949-2" data-name="Group 55949">
                <g id="layer1-2" data-name="layer1">
                  <g id="ye-2" data-name="ye" transform="translate(30.23 43.377)">
                    <path id="path2592-2" data-name="path2592" d="M8811.652,3468.987c-.532-.019-.231-1.1-.756-1.166.235-.374-.637-1.534-.788-1.944l-.613-1.416c-1.556.3-3.114.64-4.647.846a3.19,3.19,0,0,0-2.209,1.72c-.266.4-.409,1.4-1.046,1.364-.435-.026-.391-.678-.807-.628a5.434,5.434,0,0,1-1.491-.023,7.751,7.751,0,0,0-.913-.258c-.328,0-.654.031-.981.063a7.332,7.332,0,0,1-1.156.2c-.229-.013-.314-.268-.547-.3a.489.489,0,0,0-.489.312,1.135,1.135,0,0,0-.1.683c.024.146.231.292.117.442s-.187.289-.3.437a.629.629,0,0,1-.22.192c-.21.1-.1.185-.059.415.067.364-.071.533-.135.864-.061.308.2.575.169.879-.06-.052-.37-.06-.319.062a2.364,2.364,0,0,1,.314.158,1.294,1.294,0,0,1,.3.624c.117.479.128,1.014.278,1.48.061.191.215.334.288.521a1.756,1.756,0,0,1,0,.7c-.01.455.542.838.392,1.3.2.016.337-.1.542-.016a.945.945,0,0,0,.6.11c.493-.1.712-.441,1.224-.172-.025-.139.123-.281.174-.078a2.47,2.47,0,0,0,.2-.306c.106-.165.285-.161.427-.271.322-.244.36-.49.807-.592a4.087,4.087,0,0,1,1.275-.075c.251.023.669-.263.92-.333.369-.106.555-.428.883-.609a2.339,2.339,0,0,1,.351-.214.84.84,0,0,1,.346.085,1.087,1.087,0,0,0,.36-.044c.792-.128.969-.946,1.682-1.3a3.336,3.336,0,0,1,.975-.265c.436-.076.8-.368,1.225-.47a8.188,8.188,0,0,0,.889-.232c.289-.1.391-.334.636-.459.2-.1.638-.09.7-.365.072-.319-.15-.608-.034-.933.233-.657,1.035-.631,1.525-.99" transform="translate(-8794.363 -3464.462)" fill="#005f61"/>
                  </g>
                  <path id="jo-2" data-name="jo" d="M-134.987,45.941c-.03-.527.182-1.028.187-1.552a12.822,12.822,0,0,1,.347-1.622c.031-.239-.038-.482-.02-.725s.094-.455.1-.678c.017-.468-.047-1.03-.064-1.5-.014-.4.486-.278.714-.12.376.26.717.654,1.223.555a4.539,4.539,0,0,0,1.4-.86c.539-.359,1.076-.755,1.641-1.069.174.559.4,1.1.6,1.65-.194.021-.067.286.058.318.2.051.448.02.128.356a10.941,10.941,0,0,1-3.222,1.242l1.8,1.891c-.162.08-.591.07-.706.215-.133.167.018.5-.124.672-.238.28-.839.042-1.148.336-.352.336-.467.968-.97,1.166a4.424,4.424,0,0,1-1.945-.273" transform="translate(151.443 -21.975)" fill="#005f61"/>
                  <g id="ae-2" data-name="ae" transform="translate(43.968 30.188)">
                    <path id="path2704-2" data-name="path2704" d="M9221.753,3223.216a.257.257,0,0,0,.251-.126.25.25,0,0,0-.406.079l.155.047" transform="translate(-9218.125 -3219.555)" fill="#005f61"/>
                    <path id="path2784-2" data-name="path2784" d="M9135.412,3140.427c.107-.07.146-.029.124.126.051-.048.1-.1.156-.141.1.148.012.364.126.5s.37.1.52.094a.77.77,0,0,0,.513-.178c.069-.061.146-.242.241-.262s.354.13.479.132c.2,0,.405.028.61.021.551-.02.931.235,1.473-.09-.048-.076-.1-.149-.157-.22.171-.065.146.141.282.125.2-.021.36-.258.441-.415a2.346,2.346,0,0,1,.625-.988c.371-.309.521-.867.873-1.156.387-.319.62-.4.73-.929.283.015.162.423.164.6,0,.326.358.16.4.523s.29.838.006,1.119c-.611.6-.415.18-.51-.078s-.287.209-.255.364c.021.118-.033.119-.014.245a4.184,4.184,0,0,1,.106.492c0,.44.446.242.27.535-.143.234-.6.029-.78.241.41.229-.2,1.3-.278,1.961.027.432-.192.53-.567.442-.462-.109-.942-.152-1.411-.222-.492-.073-.984-.145-1.478-.207-.362-.045-.8.027-1.041-.3s-.483-.66-.741-.98c-.185-.223-.371-.442-.551-.664a4.418,4.418,0,0,1-.355-.694" transform="translate(-9135.412 -3137.049)" fill="#005f61"/>
                  </g>
                  <g id="tr-2" data-name="tr" transform="translate(0.981)">
                    <path id="path3456-2" data-name="path3456" d="M8068.234,2390.141a.952.952,0,0,0,.438-.477c.075-.276-.137-.483.244-.656.21-.094.134-.1.081-.316a.366.366,0,0,0-.22-.3c-.5-.164.116-.243.088-.444-.007-.056.537-.211.626-.24.287-.094.459-.191.667.047.2.222.307.08.555.055a.472.472,0,0,1,.346.078c.158.132-.081.178.033.323a2.807,2.807,0,0,0,1.579.977c.257.077.043.453-.116.513-.306.113-.748-.183-1.061-.2-.153-.009-.246.1-.375.163-.155.08-.318-.059-.5,0-.216.065-.307.3-.457.461a4.755,4.755,0,0,1-.847.543c-.237.173-.467.655-.721.754a.589.589,0,0,1,.353-.731c.052-.02.631-.194.44-.351-.31-.255-1.006.427-1.156-.191" transform="translate(-8068.234 -2387.604)" fill="#005f61"/>
                    <path id="path3458-2" data-name="path3458" d="M8073.326,2393.575c.022-.163.041-.967.161-1.013.3-.114.4-.546.7-.7.164-.082.376.063.525-.044.192-.134.275-.032.441.069.242.144,1.02.083.525-.213a.785.785,0,0,1,.486-.016.151.151,0,0,0-.117.153c.092.129.561.053.679.042.367-.033.893.18,1.2-.085-.147-.143-.337-.018-.49-.142.2-.5,1.1-.313,1.511-.408-.354-.173-.856-.028-1.152-.331-.331-.341,0-.623.358-.59a3.8,3.8,0,0,0,1.178.133c.53-.116.96.174,1.5.12.249-.024.285-.152.378-.348.1-.215.484-.309.679-.422a6.411,6.411,0,0,1,1.639-.788,6.333,6.333,0,0,1,1.837-.083,2.867,2.867,0,0,0,.825.031c.123-.037.162-.185.283-.22s.228.037.345.047c-.2.241.143.57.36.636a1.214,1.214,0,0,0,.513.069c.19-.025.354-.24.354.033.044-.4.3.088.343.2.05.154.467.671.633.5.216-.233.447-.182.68,0a4.836,4.836,0,0,0,.95.427c.18.09.21-.279.454-.01.2.217.58.211.851.238.375.038.76-.222,1.138-.259a1.558,1.558,0,0,1,.807.036,1.382,1.382,0,0,0,1.2.053,7.083,7.083,0,0,0,1.478-.9c.184-.147.351.1.537.106.111,0,.1-.152.235-.125.086.016.17.036.255.053.125.026.479.165.554,0,.093-.2.538-.375.4-.067a.459.459,0,0,1,.362.147c.072.066.149.127.226.185.126.016.156.074.087.176.059.176.3,0,.393.148.063.093.105.371.2.447.3.24.539.48.369.725s.286.6.048.763a1.862,1.862,0,0,0,.978.164,1.471,1.471,0,0,1,.953.763c-.187-.153-.471-.376-.55,0a3.069,3.069,0,0,1-.03.354c-.046.149-.441.07-.567.118a1.943,1.943,0,0,1,.313.525,4.489,4.489,0,0,0,.239.557c.12.31.011.764.409.9a1.207,1.207,0,0,0-.256.555c-.085.349.274.3.459.467s.148.393.206.615c.028.111.226.16.3.228s.01.255.058.351c-.366-.258-.52.384-.729.314-.271-.09-.048-.448-.249-.581a.31.31,0,0,0-.354.021.6.6,0,0,1-.594.052,2.631,2.631,0,0,0-.885-.2c-.235,0-.381-.062-.5.145-.15.25-.447.474-.547.1-.09-.325-.5.066-.679.124a2.778,2.778,0,0,1-1.314.083c-.84-.111-1.564.734-2.415.794-.341.024-.951.107-1.237-.108-.311-.236-.506-.37-.889-.184-.41.2-1.3.669-1.656.231-.177-.22-.552-.3-.606.049a1.331,1.331,0,0,0,.213.868,1.667,1.667,0,0,1-.475.015c-.023.134.065.276.018.409-.054.156-.263.189-.312.361a1.291,1.291,0,0,0-.377-.2c.135-.176-.053-.405-.16-.537-.2-.246.018-.39.224-.568s.347-.311.141-.588c-.081-.11-.252-.247-.37-.1-.161.209-.324.177-.526.327.335-.034-.008.3-.257.257a3.3,3.3,0,0,1-.857-.376c-.657-.329-1,.636-1.3,1.03l-.143-.158c-.12.124-.2.345-.388.272a1.571,1.571,0,0,0-.8.132,1.055,1.055,0,0,1-.9,0c-.428-.188-.581-.663-.989-.861a5.449,5.449,0,0,0-1.389-.556c-.261-.046-.789-.15-.789.261,0,.237.044.666-.129.855-.095.1-.22-.088-.31-.1-.228-.031-.462.238-.687.276a1.5,1.5,0,0,1-.869-.262c-.164-.1-.17-.445-.393-.455.172-.245-.231-.51-.281-.188-.172-.147-.6-.2-.646-.456-.041.183-.481.485-.628.6.05-.11.015-.177-.109-.2a.251.251,0,0,0,.2-.251,2.238,2.238,0,0,1-1.115.236.861.861,0,0,1,.7-.206c.238.006.215.07.311-.115.069-.128.216-.186.308-.292a2.155,2.155,0,0,0-1.522.094c-.36-.422.322-.2.374-.308a.337.337,0,0,0-.015-.3c-.121-.2-.253.078-.187-.238-.348.443-.321-.47-.644-.456.225-.121.479-.238.287-.542-.14-.219-.533-.106-.628-.268s-.2-.4-.348-.11c-.064.131-.529-.221-.538-.337.469.112.063-.384.08-.577.014-.16.265-.043.313.036.1.162.064.429.222.557-.036-.348.507.088.657-.267a.876.876,0,0,1-.628-.424c.164-.091.246-.288.441-.33-.086-.255-.35.01-.326-.279s-.126-.323-.336-.506c.14-.16.3-.3.426-.471-.447-.228-.87.242-1.32.095" transform="translate(-8073.121 -2388.666)" fill="#005f61"/>
                  </g>
                  <path id="iq-2" data-name="iq" d="M2.4-141.152a20.236,20.236,0,0,0,2.635-1.5,2.723,2.723,0,0,0,.714-.65c.3-.454.06-1.053.12-1.223.006-.705.2-.792.156-1.131-.045-.379-.584-1.044-.168-1.368.238-.185.534-.178.779-.383.206-.172.761-.623.6-.8-.075-.083.076.008.188-.026.186-.056.247-.232.328-.38s.91-.011,1.091.059a2.821,2.821,0,0,0,.441.139c.249.051.324-.11.541-.15.547-.1.174.615.484.587.226-.02.316-.363.564-.353.316.012.3.548.443.734.066.088.151.073.206.183.067.135-.022.327.092.438.239.234.765.464.551.868.355-.079.5.239.659.3.3.115.307-.126.96.047-.057.245-.342.188-.444.378-.173.32.316.559.344.85.037.384-.433-.038-.419.351.006.175-.184.146-.232.311-.055.187.037.326.069.5a.623.623,0,0,1-.33-.095c-.027.158-.136.278-.012.409s.238.2.163.437-.271.273-.079.447a4.694,4.694,0,0,0,.493.45c.184.124,1.145.947.6,1.1.214.052.159.3.335.26.253-.059.395.1.6.217.372.21.61.688,1.126.728.244.019.695.815.911,1.006.327.289.126.587.044.984-.039.19-.029.728.252.748.1.007.264-.013.341.085a.8.8,0,0,1,.077.535c-.051.343.128.443.512.72.193.139.15.572.424.638-.142.011-.986-.11-1-.264.116.275-.367.054-.555.046a.767.767,0,0,0-.75.315c-.268.569-.22,1.7-1.129,1.6l-2.3-.262c-.768-.11-.8-.514-1.5-.955-1.943-1.429-3.8-3.142-5.98-4.1a9.985,9.985,0,0,0-2.183-.469c.443-.48-.091-.268-.223-.473a.242.242,0,0,1-.032-.2c.111-.127,0-.257-.068-.443-.154-.412-.3-.816-.431-1.235" transform="translate(19.585 157.547)" fill="#005f61"/>
                  <g id="ir-2" data-name="ir" transform="translate(28.885 4.379)">
                    <path id="path4560-2" data-name="path4560" d="M9190.566,3101.378a.282.282,0,0,1,.155-.032.355.355,0,0,0-.327-.032c.056.021.112.043.172.064" transform="translate(-9173.097 -3076.919)" fill="#005f61"/>
                    <path id="path4562-2" data-name="path4562" d="M9222.133,3115c.029-.131-.023-.142-.156-.032l.156.032" transform="translate(-9203.407 -3089.974)" fill="#005f61"/>
                    <path id="path4564-2" data-name="path4564" d="M9275.82,3093.748c-.258.215-.437.587-.85.518-.037.387.549-.007.682-.067s.3-.013.439-.079c.2-.093.23-.4.465-.42-.264-.256-.467.169-.736.048" transform="translate(-9254.265 -3069.556)" fill="#005f61"/>
                    <path id="path4606-2" data-name="path4606" d="M8760.979,2497.027c.432-.148.589.173.58-.513-.006-.3.256-.187.443-.049a6.294,6.294,0,0,1,.458.506c.164.149.348.269.51.417a1.546,1.546,0,0,0,.959.547,2.592,2.592,0,0,0,1.008-.008,2.337,2.337,0,0,0,.752-.665c.065-.172.3-.21.437-.323a5.436,5.436,0,0,1,.445-.4c.434-.3.82.156,1.085.472-.579.218.2.7-.117.776-.6.135.021.487.277.646a5.174,5.174,0,0,0,.532.373c.079.036.313-.01.337.039.24.487.206,1.29.744,1.573.457.241,1,.128,1.47.326.3.129.4.466.645.66a4.7,4.7,0,0,0,.983.5,3.085,3.085,0,0,0,2,.254,6.216,6.216,0,0,1,2.508-.468,2.1,2.1,0,0,1-.5.063c.114.086.566.255.629.02.058-.205-.265-.77-.327-.98a1.57,1.57,0,0,0,1.011-.082c.4-.17.126-.318.308-.6a2.091,2.091,0,0,1,.908-.666c.441-.167.868.088,1.309-.007-.149-.25.181-.275.373-.291.244-.021.521.068.76.044.338-.034.34.009.506.315s.6.285.89.338c.327.058.553.386.9.414a3.472,3.472,0,0,1,1.061.106,1.2,1.2,0,0,1,.689.6c.205.315.668.271.958.466.255.173.341.492.6.652.294.179,1.044-.167,1.273.081a2.387,2.387,0,0,1,.272,1c.045.253-.16.161.041.333a1.711,1.711,0,0,1,.254.718c.031.251-.2.424-.152.693.063.366.19,1.149-.355,1.211.048.069.236.223.221.315-.025.146-.361.191-.424.38-.111.341.085,1.143.5,1.171.533.036.052.458-.028.725-.122.392.44,1.267.552,1.707.122.5.082.986.424,1.367.275.3.871.145,1.228.323.373.187.349.761.256,1.078a5.024,5.024,0,0,1-.562.886,4.664,4.664,0,0,1-.618.889c.172.174.314.31.4.383.789.7,1.061,1.726,1.692,2.074.193.1.387.17.586.267a1.938,1.938,0,0,0,.627.268c.292.019.393,1.036.405,1.3.04.914.209.664.732.67.251,0,.108.654.089.912-.033.521-1.711.043-1.442.749a.637.637,0,0,0-.524.187,3.226,3.226,0,0,0-.279,1.61c-.008.147.044.465-.219.371.121.412-.774.044-.916,0-.159-.05-.526-.016-.566-.238-.061-.306-.416-.124-.261.018a4.389,4.389,0,0,1-.937-.064,1.281,1.281,0,0,0-1.037-.086c-.238.074-.413-.059-.6-.192-.248-.177-.457-.069-.726-.142-.215-.057-.4.118-.613.029-.2-.083-.248-.364-.473-.111.059-.307-.6-.219-.781-.39a3.206,3.206,0,0,1-.585-1.65,1.148,1.148,0,0,0-1.281-.917c-.276.021-.476.254-.734.329-.216.063-.493.106-.369.357.081.161-.482.089-.521.1-.28.068-.391.36-.63.479-.4.2-.772-.349-1.165-.349-.479,0-.748.094-1.047-.348-.148-.221-.48-.292-.706-.416-.29-.163-.577-.339-.882-.477.293-.28-.426-.541-.595-.618a2.846,2.846,0,0,0-.45-.244c-.227-.055-.53.035-.721-.107a3.11,3.11,0,0,1-.795-1.041c-.13-.207-.042-.491-.25-.658-.143-.114-.366-.177-.366-.4.258.025.22-.2.028-.244-.129-.029-.449,0-.318-.232.167-.3-.326-.619-.479-.774a2.508,2.508,0,0,1-.582-.881c-.225-.584-.683.438-.928.089-.167-.234-.417-.068-.529-.289-.05-.106-.374-.163-.476-.323a1.915,1.915,0,0,0,.487,0,.324.324,0,0,0-.487-.173c.043.048.082.1.127.141-.467-.061.3,1.01-.521.676.057.163-.083.206-.209.151-.175-.077-.185-.281-.247-.437-.128-.323-.583-.35-.64-.75-.03-.254.085-.761-.274-.749-.567.017-.392-.76-.315-1.145.1-.511-.151-.606-.448-.966s-.248-.577-.741-.67c-.375-.071-.626-.475-.925-.681a.927.927,0,0,0-.563-.236c-.35.029-.139-.168-.394-.266.559-.171-.541-1.041-.721-1.193-.13-.111-.244-.244-.37-.358-.189-.17-.018-.21.061-.423a.3.3,0,0,0-.126-.413c-.157-.124-.033-.308-.008-.456a.634.634,0,0,0,.33.094c-.026-.139-.093-.269-.11-.41-.024-.245.244-.206.266-.387.028-.265.037-.19.259-.189s.186-.189.115-.309c-.117-.2-.4-.4-.329-.664.061-.231.415-.172.477-.429-.153.044-.263-.07-.412-.054-.179.018-.375.1-.548.008-.267-.147-.311-.362-.659-.283.239-.553-.656-.714-.621-1.084.02-.216,0-.292-.2-.378a2.674,2.674,0,0,1-.349-.812c.079-.335-.145-.2-.309-.429s-.083-.6-.267-.681c-.095-.041-.467-.157-.452-.307a1.21,1.21,0,0,1,.3-.693c-.471-.1-.256-.717-.466-.956-.115-.133-.077-.253-.152-.409-.041-.086-.229-.437-.339-.614" transform="translate(-8760.979 -2496.325)" fill="#005f61"/>
                  </g>
                  <path id="sy-2" data-name="sy" d="M-122.968-137.725c.137-.173.4-.534.644-.581-.371-.346.159-.564.471-.471-.274-.333.134-.373.229-.692a.586.586,0,0,0-.369-.57c-.23-.043.208-.373-.149-.273-.6.167-.639-.213-.667-.521-.025-.28.156-.791-.1-1-.2-.165-.045-.6-.053-.846-.006-.181.331.1.4.136.005.024.083-.161.226-.248.177-.107.057-.347.088-.514a1.635,1.635,0,0,0,.471-.015,1.493,1.493,0,0,1-.239-.622c-.013-.111,0-.423.152-.461a.463.463,0,0,1,.326.019c.25.132.3.355.557.315a2.974,2.974,0,0,0,.823-.216c.308-.133.533-.317.878-.268.255.036.4.218.621.319a2.4,2.4,0,0,0,.993.044,6.176,6.176,0,0,0,1.78-.693c.622-.249,1.3.1,1.94-.155.326-.13.8-.628.852.151.011.181-.431.549-.559.675-.231.229-.489.213-.749.365-.559.328.027,1.038.07,1.43a4.81,4.81,0,0,1-.131.756c-.025.357,0,.934,0,1.287,0,.826-3.484,2.407-5.25,3.616-.481.329-1.259,1.121-1.884.683-.228-.159-.392-.281-.626-.443a.591.591,0,0,0-.658-.08c-.014-.051.147-1.027-.088-1.13" transform="translate(139.943 154.308)" fill="#005f61"/>
                  <g id="om-2" data-name="om" transform="translate(45.34 29.623)">
                    <path id="path4692-2" data-name="path4692" d="M9435.733,3390.37a1.132,1.132,0,0,0,.266-.478.71.71,0,0,1,.144-.135c.059-.07-.092-.288-.11-.361-.08.34-.438.594-.3.974" transform="translate(-9424.978 -3378.667)" fill="#005f61"/>
                    <path id="path4696-2" data-name="path4696" d="M9310.114,3123.569a1.874,1.874,0,0,1,.17-.361c.148.165.291-.06.223-.2.126.069.383.5.062.424.206.143.056,1.019-.171.978-.31-.055.109-.817-.283-.837" transform="translate(-9304.45 -3123.003)" fill="#005f61"/>
                    <path id="path4786-2" data-name="path4786" d="M9169.492,3199.963a18.7,18.7,0,0,0,4.777-1.646c.422-.812-.035.467.17-.437.166-.738.281-1.475.445-2.178.117-.487.391-1.1.109-1.562-.2-.333-.613-.618-.742-.987-.162-.463.713-2.056.283-2.309.191-.23.572-.031.74-.251.184-.242-.113-.161-.172-.283a1.71,1.71,0,0,1-.072-1.366c.1-.153.3.083.273.2-.1.379.283-.032.344-.089.186-.178.186-.148.3.1a4.657,4.657,0,0,0,.76,1.157,3.2,3.2,0,0,0,1.863.877c.324.065.6.193.932.23.443.05.688.589.941.89.2.243.344.537.547.769a1.161,1.161,0,0,0,.6.364c.656.262-.086,1.2-.217,1.581-.246.728-1.027,1.108-1.24,1.889-.047.184-.117.717-.408.629-.23-.069-.187-.51-.48-.327-.354.213-.334.98-.424,1.3a1.916,1.916,0,0,0,.123,1.131c.088.326.145.573-.252.585-.637.019-1.34.207-1.5.894a2.072,2.072,0,0,1-.277.794c-.211.284-.635.269-.967.293a.884.884,0,0,0-.8.414c-.227.308-.08.367-.1.719-.016.28-.3.482-.529.593-.107.053-.215.123-.328.036-.189-.151-.35-.11-.586-.11-.691,0-1.293.669-1.99.649-.449-.013-.248-1.114-.729-1.167.2-.214-.295-.966-.4-1.154a15.012,15.012,0,0,1-1.012-2.239" transform="translate(-9169.484 -3186.24)" fill="#005f61"/>
                  </g>
                  <path id="eg-2" data-name="eg" d="M-543.36,122.217c-.311-.5.329-1.019.251-1.53-.085-.548-.584-.931.205-1.581.017.4.482.256.723.185a2.967,2.967,0,0,1,1.24.059,8.844,8.844,0,0,1,1.4.278c.2.052.227.266.427.327a1.1,1.1,0,0,0,.487.014c.118-.013.172.172.305.2a4.23,4.23,0,0,0,.441.045c.472.047.787.343,1.23.417a1.514,1.514,0,0,0,1.144-.479c.159-.136.308-.283.454-.433.125.1.219.2.377.173-.09-.045-.071-.071-.19-.063a.663.663,0,0,0,.347-.409c.267.16.519-.127.786-.125a1.553,1.553,0,0,0-.489.33c.047-.028,1.13-.355.613-.393.383-.127.631.311,1,.259.176-.025.341-.2.527-.133s.255.311.408.408c-.155-.109-.314-.347-.519-.361.061.163-.164.471.1.534.288.069.153.14.34.314,0-.064.514-.281.142-.456.4.092.527.457.992.417.151-.013.6-.291.516.039.288-.183.611-.076.92-.169a2.028,2.028,0,0,0,.763-.378l1.327,3.5c-.335.427-.261,1.215-.474,1.721a1.679,1.679,0,0,0-.116.792c0,.267-.337.525-.253.786a4.781,4.781,0,0,0-.558-.343,2.338,2.338,0,0,1-.542-.615c-.2-.284-.773-.47-.69-.9s-.33-.728-.542-1.031a4.127,4.127,0,0,1-.621-1.4c-.2.211-.406.673-.2.914.351.414.315.921.609,1.348a7.955,7.955,0,0,0,.832,1.139c.141.14.3.26.43.412.067.08.344.536.01.287.27.211.047.479.218.653a2.216,2.216,0,0,1,.473.774,2.5,2.5,0,0,0,.241.4c.064.1-.063.226-.069.323-.008.13.2.322.262.434.133.256.278.506.412.762.44.84.885,1.665,1.3,2.518a7.047,7.047,0,0,0,.608.872c.191.279.525.366.7.649a.98.98,0,0,1-.486-.094,1.937,1.937,0,0,0,.176,1.421c.221.256-.29.769-.6.785-.154.007-.213-.1-.369.069a1.573,1.573,0,0,0-.243.547.55.55,0,0,1-.383.434c-.181.042-.507.005-.6.213-.176.38-.068.824-.6.782-.625-.05-.942-.556-1.271-.542a11.519,11.519,0,0,1-2.556,0c.024-.085.123-.266.062-.354-.154-.222-.271.18-.322.253-.2.291-1.221.116-1.547.116l-8.748-.019-.312-11.824c-.033-.553-.019-1.132-.1-1.68a5.889,5.889,0,0,0-.4-1.592" transform="translate(543.446 -99.46)" fill="#005f61"/>
                  <g id="sa-2" data-name="sa" transform="translate(16.065 18.736)">
                    <path id="path3380-2" data-name="path3380" d="M8457.123,2882.422a1.1,1.1,0,0,0-.28-.782c-.089-.058-.531-.981-.5-.536-.041-.8-.592-1-1.032-1.544a2.606,2.606,0,0,1-.481-.75c-.1-.323-.285-.416-.449-.678-.1-.154-.014-.289-.127-.446a4.123,4.123,0,0,1-.264-.614c-.052-.136-.08-.279-.144-.408s-.179-.136-.238-.241,0-.239-.078-.327-.205-.1-.291-.18a8.039,8.039,0,0,1-.649-.62c-.226-.269-.5-.156-.754-.346a4.466,4.466,0,0,1-.979-1.35,1.153,1.153,0,0,1-.124-.686c-.016-.3-.232-.545-.254-.848a9.254,9.254,0,0,0,.058-1.184,1.486,1.486,0,0,0-.231-.484c-.052-.08-.357-.476-.01-.205-.079-.2-.251-.2-.3-.419a3.076,3.076,0,0,0-.212-.592,3.748,3.748,0,0,0-1.006-1.223,1.822,1.822,0,0,0-.9-.4c-.148-.04-.218-.318-.258-.436a2.558,2.558,0,0,0-.431-.642c.552-.2-.219-1.107-.4-1.327-.124-.147-.464-.416-.449-.61.023-.335-.406-.528-.551-.83-.441-.914-1.136-1.674-1.623-2.571-.148-.273-.313-.694-.641-.787-.151-.042-.736-.139-.746.136-.2-.179.12-.649.175-.837a9.141,9.141,0,0,0,.089-1.2,3.986,3.986,0,0,1,.071-.491,5.783,5.783,0,0,0,1.787.308c.745-.163.735-1.246,1.436-1.357.262-.041.9.025.876-.329-.064-.807.287-.565.776-.73-.636-.611-1.247-1.248-1.827-1.91a10.506,10.506,0,0,0,3.221-1.206,10.35,10.35,0,0,1,2.194.458,31.091,31.091,0,0,1,5.61,3.816c.384.292.756.582,1.112.9a1.709,1.709,0,0,0,1.229.4c.617.06,1.271.148,1.89.205.228.021.341-.1.588-.042a8.448,8.448,0,0,0,1.018.143c.358.033.387.451.5.715.167.393.741.145,1.065.173s.379.212.49.487c.119.3.71.678.619,1.011a.678.678,0,0,0-.11-.141c-.1.24.138.212.11.423,0,0,1.01.1.626.393.148.046.459.8.61.376-.1.379.808.8,1.021,1.035a.4.4,0,0,1-.251-.2c0,.418.255.424.349.759.053.2.031.61-.256.354.027.223-.047.268.158.309a4.962,4.962,0,0,1,.315.648c-.06-.051-.117-.1-.174-.157.174.255.484.4.622.681a8.794,8.794,0,0,0,.349.825c.129.214.313.58.58.645.123.03.566-.085.5.155a.167.167,0,0,1,.266-.094c-.149.182-.283.678.22.55a3.577,3.577,0,0,0,.286.615,14.92,14.92,0,0,0,1.669,1.942,34.612,34.612,0,0,1,3.839.549.456.456,0,0,0,.3-.2c.234.537.76.818.849,1.167a1.5,1.5,0,0,1-.023.848c-.277,1.083-.431,3.036-.829,3.252-2.728,1.469-6.139,1.983-9.379,2.52a7.429,7.429,0,0,0-1.21.561,3.98,3.98,0,0,0-1.323,1.935.878.878,0,0,1-.716.581c-.317,0-.377-.516-.637-.6-.295-.1-.511.052-.766.021a4.01,4.01,0,0,1-1.274-.168,2.247,2.247,0,0,0-1.209-.118c-.414,0-.849.254-1.258.249-.511-.007-.587-.395-.853-.325-.355.093-.45.561-.469.855s.345.461.034.671c-.059.041-.118.454-.564.6,0-.04.023-.05.022-.088" transform="translate(-8442.714 -2852.736)" fill="#005f61"/>
                    <path id="path5488-2" data-name="path5488" d="M9040.611,3077.1c.076-.118.2-.086.285,0a.757.757,0,0,1-.285,0" transform="translate(-9016.528 -3067.986)" fill="#005f61"/>
                  </g>
                  <path id="il-2" data-name="il" d="M-168.076,46.2c.076-.1.489-.6.3-.723a5.291,5.291,0,0,0,.519-1.775c.036-.186.042-.491.192-.625.113-.1-.059-.317.044-.428s.324,0,.433.015c.259.032.224-.235.3-.392.377.019.1,1.457.127,1.878a.849.849,0,0,0-.515-.443c-.242-.065-.317.24-.364.427-.053.21-.168.953.135.914.634-.082-.272.348-.149.8.069.254.723-.232.859-.234a4.06,4.06,0,0,0-.011.739,3.338,3.338,0,0,1-.22,1.036c-.189.557-.05,1.513-.428,2.062l-1.226-3.252" transform="translate(183.196 -25.718)" fill="#005f61"/>
                  <g id="lb-2" data-name="lb" transform="translate(16.175 13.933)">
                    <path id="lb--2" data-name="lb-" d="M8283.457,2492.322c.346-.4.332-1.135.627-1.589.146-.225-.023-.53.145-.746.133-.169.488-.356.373-.618a.714.714,0,0,0,.467.009c.3-.177.088.16.131.261a.786.786,0,0,1,.217.082c.146.143.064.112.178.319.24.441-.529.512-.223.885-.311-.094-.842.124-.471.471a1.649,1.649,0,0,0-.629.628.2.2,0,0,1-.078-.078c-.053.1-.053.221-.109.325-.119.22-.457-.085-.627.052" transform="translate(-8283.457 -2489.326)" fill="#005f61"/>
                  </g>
                  <g id="kw-2" data-name="kw" transform="translate(35.091 22.576)">
                    <g id="kw--2" data-name="kw-" transform="translate(0 0.04)">
                      <path id="path5440-2" data-name="path5440" d="M8973.295,2953.728c.031.068-.373.732.127.684.428-.043-.01-.538-.127-.684" transform="translate(-8970.828 -2953.539)" fill="#005f61"/>
                      <path id="path5486-2" data-name="path5486" d="M8915.042,2950.882c.7-.254.371-1.672,1.1-1.806a1.225,1.225,0,0,1,1.056.228c.1.079.34.591.244.714-.207-.29-.5.2-.613.346a.631.631,0,0,1,.752.427c.1.419.419.793.558,1.216-.271-.156-.941.106-1.208-.08-.206-.145-.233-.459-.312-.676-.112-.29-1.154-.212-1.577-.368" transform="translate(-8915.042 -2949.044)" fill="#005f61"/>
                    </g>
                    <path id="kw.-2" data-name="kw." d="M8763.5,2706.509a1.313,1.313,0,0,0,0-2.625,1.313,1.313,0,0,0,0,2.625" transform="translate(-8761.869 -2703.884)" fill="#005f61"/>
                  </g>
                  <g id="qa-2" data-name="qa" transform="translate(42.466 30.112)">
                    <path id="qa--2" data-name="qa-" d="M8936.181,2892.519c-.012-.085-.134-.607.11-.361-.018-.085-.07-.555.078-.157.014-.4.152-1.443.7-.866.138.144.4.246.4.473a1.649,1.649,0,0,1-.114.4c-.033.125.044.288.058.413s.145.127.181.236a.7.7,0,0,1-.057.5c-.124.281-.084.488-.395.581-.256.076-.488.281-.659-.1a5.582,5.582,0,0,1-.3-1.127" transform="translate(-8936.14 -2890.966)" fill="#005f61"/>
                  </g>
                  <g id="cy-2" data-name="cy" transform="translate(11.414 12.058)">
                    <path id="cy--2" data-name="cy-" d="M8165.318,2444.041c-.021-.057-.044-.115-.063-.173.213.211.53-.191.774-.174.378.025.095-.354.445-.345a3.6,3.6,0,0,0,1.088-.026c.423-.114.8-.554,1.245-.555-.281.177-.533.591-.848.689-.339.106,0,.433.138.584-.146.018-.477-.011-.589.09s-.168.271-.338.33c-.148.052-.735.114-.645.382-.492-.249-.978-.175-1.208-.8" transform="translate(-8165.255 -2442.768)" fill="#005f61"/>
                  </g>
                </g>
              </g>
            </g>
          </g>
          <g id="Ellipse_11717-2" data-name="Ellipse 11717" transform="translate(0 0)" fill="none" stroke="#005f61" stroke-width="3">
            <circle cx="35.821" cy="35.821" r="35.821" stroke="none"/>
            <circle cx="35.821" cy="35.821" r="34.321" fill="none"/>
          </g>
        </g>
      </g>
    </g>
  </g>
</svg>
