<svg xmlns="http://www.w3.org/2000/svg" xmlns:xlink="http://www.w3.org/1999/xlink" width="259.738" height="302" viewBox="0 0 259.738 302">
  <defs>
    <clipPath id="clip-path">
      <path id="Path_124116" data-name="Path 124116" d="M36.506,28.753a23.8,23.8,0,0,0-17.083,22.83V292.3H214.639V51.583a23.8,23.8,0,0,0-17.083-22.83L117.032,5.067Z" transform="translate(-19.423 -5.067)" fill="#c7af81"/>
    </clipPath>
    <clipPath id="clip-path-2">
      <rect id="Rectangle_14261" data-name="Rectangle 14261" width="259.738" height="301.999" fill="#c7af81"/>
    </clipPath>
  </defs>
  <g id="main-member-bg" opacity="0.4">
    <g id="Group_56482" data-name="Group 56482" transform="translate(56.602 14.765)">
      <g id="Group_56481" data-name="Group 56481" clip-path="url(#clip-path)">
        <rect id="Rectangle_14061" data-name="Rectangle 14061" width="104.187" height="1.288" transform="translate(-7.921 107.386)" fill="#c7af81"/>
        <rect id="Rectangle_14062" data-name="Rectangle 14062" width="1.288" height="181.656" transform="translate(94.978 107.386)" fill="#c7af81"/>
        <rect id="Rectangle_14063" data-name="Rectangle 14063" width="100.215" height="1.288" transform="translate(-7.921 111.357)" fill="#c7af81"/>
        <rect id="Rectangle_14064" data-name="Rectangle 14064" width="1.288" height="177.687" transform="translate(91.006 111.354)" fill="#c7af81"/>
        <rect id="Rectangle_14065" data-name="Rectangle 14065" width="96.246" height="1.288" transform="translate(-7.921 115.326)" fill="#c7af81"/>
        <rect id="Rectangle_14066" data-name="Rectangle 14066" width="1.288" height="173.716" transform="translate(87.037 115.326)" fill="#c7af81"/>
        <rect id="Rectangle_14067" data-name="Rectangle 14067" width="92.274" height="1.288" transform="translate(-7.921 119.297)" fill="#c7af81"/>
        <rect id="Rectangle_14068" data-name="Rectangle 14068" width="1.288" height="169.744" transform="translate(83.065 119.297)" fill="#c7af81"/>
        <rect id="Rectangle_14069" data-name="Rectangle 14069" width="88.305" height="1.285" transform="translate(-7.921 123.272)" fill="#c7af81"/>
        <rect id="Rectangle_14070" data-name="Rectangle 14070" width="1.288" height="165.776" transform="translate(79.096 123.269)" fill="#c7af81"/>
        <rect id="Rectangle_14071" data-name="Rectangle 14071" width="84.333" height="1.288" transform="translate(-7.921 127.238)" fill="#c7af81"/>
        <rect id="Rectangle_14072" data-name="Rectangle 14072" width="1.288" height="161.804" transform="translate(75.124 127.238)" fill="#c7af81"/>
        <rect id="Rectangle_14073" data-name="Rectangle 14073" width="80.361" height="1.288" transform="translate(-7.921 131.209)" fill="#c7af81"/>
        <rect id="Rectangle_14074" data-name="Rectangle 14074" width="1.288" height="157.833" transform="translate(71.152 131.209)" fill="#c7af81"/>
        <rect id="Rectangle_14075" data-name="Rectangle 14075" width="76.389" height="1.288" transform="translate(-7.921 135.181)" fill="#c7af81"/>
        <rect id="Rectangle_14076" data-name="Rectangle 14076" width="1.288" height="153.861" transform="translate(67.18 135.181)" fill="#c7af81"/>
        <rect id="Rectangle_14077" data-name="Rectangle 14077" width="72.42" height="1.288" transform="translate(-7.921 139.149)" fill="#c7af81"/>
        <rect id="Rectangle_14078" data-name="Rectangle 14078" width="1.288" height="149.893" transform="translate(63.208 139.149)" fill="#c7af81"/>
        <rect id="Rectangle_14079" data-name="Rectangle 14079" width="68.448" height="1.288" transform="translate(-7.921 143.121)" fill="#c7af81"/>
        <rect id="Rectangle_14080" data-name="Rectangle 14080" width="1.288" height="145.921" transform="translate(59.239 143.121)" fill="#c7af81"/>
        <rect id="Rectangle_14081" data-name="Rectangle 14081" width="64.476" height="1.288" transform="translate(-7.921 147.092)" fill="#c7af81"/>
        <rect id="Rectangle_14082" data-name="Rectangle 14082" width="1.288" height="141.952" transform="translate(55.267 147.092)" fill="#c7af81"/>
        <rect id="Rectangle_14083" data-name="Rectangle 14083" width="60.507" height="1.288" transform="translate(-7.921 151.061)" fill="#c7af81"/>
        <rect id="Rectangle_14084" data-name="Rectangle 14084" width="1.288" height="137.981" transform="translate(51.298 151.064)" fill="#c7af81"/>
        <rect id="Rectangle_14085" data-name="Rectangle 14085" width="56.535" height="1.288" transform="translate(-7.921 155.033)" fill="#c7af81"/>
        <rect id="Rectangle_14086" data-name="Rectangle 14086" width="1.288" height="134.009" transform="translate(47.326 155.033)" fill="#c7af81"/>
        <rect id="Rectangle_14087" data-name="Rectangle 14087" width="52.563" height="1.288" transform="translate(-7.921 159.004)" fill="#c7af81"/>
        <rect id="Rectangle_14088" data-name="Rectangle 14088" width="1.288" height="130.041" transform="translate(43.354 159.004)" fill="#c7af81"/>
        <rect id="Rectangle_14089" data-name="Rectangle 14089" width="48.593" height="1.288" transform="translate(-7.921 162.973)" fill="#c7af81"/>
        <rect id="Rectangle_14090" data-name="Rectangle 14090" width="1.288" height="126.069" transform="translate(39.382 162.976)" fill="#c7af81"/>
        <rect id="Rectangle_14091" data-name="Rectangle 14091" width="44.621" height="1.288" transform="translate(-7.921 166.944)" fill="#c7af81"/>
        <rect id="Rectangle_14092" data-name="Rectangle 14092" width="1.288" height="122.098" transform="translate(35.413 166.944)" fill="#c7af81"/>
        <rect id="Rectangle_14093" data-name="Rectangle 14093" width="40.649" height="1.288" transform="translate(-7.921 170.916)" fill="#c7af81"/>
        <rect id="Rectangle_14094" data-name="Rectangle 14094" width="1.288" height="118.126" transform="translate(31.441 170.916)" fill="#c7af81"/>
        <rect id="Rectangle_14095" data-name="Rectangle 14095" width="36.677" height="1.288" transform="translate(-7.921 174.887)" fill="#c7af81"/>
        <rect id="Rectangle_14096" data-name="Rectangle 14096" width="1.288" height="114.158" transform="translate(27.469 174.887)" fill="#c7af81"/>
        <rect id="Rectangle_14097" data-name="Rectangle 14097" width="32.708" height="1.288" transform="translate(-7.921 178.856)" fill="#c7af81"/>
        <rect id="Rectangle_14098" data-name="Rectangle 14098" width="1.288" height="110.186" transform="translate(23.5 178.856)" fill="#c7af81"/>
        <rect id="Rectangle_14099" data-name="Rectangle 14099" width="28.736" height="1.288" transform="translate(-7.921 182.827)" fill="#c7af81"/>
        <rect id="Rectangle_14100" data-name="Rectangle 14100" width="1.288" height="106.217" transform="translate(19.528 182.827)" fill="#c7af81"/>
        <rect id="Rectangle_14101" data-name="Rectangle 14101" width="24.767" height="1.288" transform="translate(-7.921 186.799)" fill="#c7af81"/>
        <rect id="Rectangle_14102" data-name="Rectangle 14102" width="1.288" height="102.246" transform="translate(15.556 186.799)" fill="#c7af81"/>
        <rect id="Rectangle_14103" data-name="Rectangle 14103" width="20.795" height="1.285" transform="translate(-7.921 190.771)" fill="#c7af81"/>
        <rect id="Rectangle_14104" data-name="Rectangle 14104" width="1.288" height="98.274" transform="translate(11.587 190.768)" fill="#c7af81"/>
        <rect id="Rectangle_14105" data-name="Rectangle 14105" width="16.823" height="1.288" transform="translate(-7.921 194.739)" fill="#c7af81"/>
        <rect id="Rectangle_14106" data-name="Rectangle 14106" width="1.288" height="94.303" transform="translate(7.615 194.739)" fill="#c7af81"/>
        <rect id="Rectangle_14107" data-name="Rectangle 14107" width="12.851" height="1.288" transform="translate(-7.921 198.711)" fill="#c7af81"/>
        <rect id="Rectangle_14108" data-name="Rectangle 14108" width="1.288" height="90.331" transform="translate(3.643 198.711)" fill="#c7af81"/>
        <rect id="Rectangle_14109" data-name="Rectangle 14109" width="8.879" height="1.288" transform="translate(-7.921 202.679)" fill="#c7af81"/>
        <rect id="Rectangle_14110" data-name="Rectangle 14110" width="1.288" height="86.363" transform="translate(-0.329 202.679)" fill="#c7af81"/>
        <rect id="Rectangle_14111" data-name="Rectangle 14111" width="1.288" height="106.509" transform="translate(94.978 -1.807)" fill="#c7af81"/>
        <rect id="Rectangle_14112" data-name="Rectangle 14112" width="104.187" height="1.288" transform="translate(-7.921 103.414)" fill="#c7af81"/>
        <rect id="Rectangle_14113" data-name="Rectangle 14113" width="1.288" height="102.54" transform="translate(91.009 -1.809)" fill="#c7af81"/>
        <rect id="Rectangle_14114" data-name="Rectangle 14114" width="100.215" height="1.288" transform="translate(-7.921 99.443)" fill="#c7af81"/>
        <rect id="Rectangle_14115" data-name="Rectangle 14115" width="1.288" height="98.569" transform="translate(87.037 -1.807)" fill="#c7af81"/>
        <rect id="Rectangle_14116" data-name="Rectangle 14116" width="96.246" height="1.288" transform="translate(-7.921 95.474)" fill="#c7af81"/>
        <rect id="Rectangle_14117" data-name="Rectangle 14117" width="1.288" height="94.597" transform="translate(83.065 -1.807)" fill="#c7af81"/>
        <rect id="Rectangle_14118" data-name="Rectangle 14118" width="92.274" height="1.288" transform="translate(-7.921 91.503)" fill="#c7af81"/>
        <rect id="Rectangle_14119" data-name="Rectangle 14119" width="1.288" height="90.626" transform="translate(79.096 -1.807)" fill="#c7af81"/>
        <rect id="Rectangle_14120" data-name="Rectangle 14120" width="88.305" height="1.288" transform="translate(-7.921 87.531)" fill="#c7af81"/>
        <rect id="Rectangle_14121" data-name="Rectangle 14121" width="1.288" height="86.657" transform="translate(75.124 -1.809)" fill="#c7af81"/>
        <rect id="Rectangle_14122" data-name="Rectangle 14122" width="84.333" height="1.288" transform="translate(-7.921 83.56)" fill="#c7af81"/>
        <rect id="Rectangle_14123" data-name="Rectangle 14123" width="1.288" height="82.685" transform="translate(71.152 -1.807)" fill="#c7af81"/>
        <rect id="Rectangle_14124" data-name="Rectangle 14124" width="80.361" height="1.288" transform="translate(-7.921 79.591)" fill="#c7af81"/>
        <rect id="Rectangle_14125" data-name="Rectangle 14125" width="1.288" height="78.714" transform="translate(67.18 -1.807)" fill="#c7af81"/>
        <rect id="Rectangle_14126" data-name="Rectangle 14126" width="76.389" height="1.285" transform="translate(-7.921 75.622)" fill="#c7af81"/>
        <rect id="Rectangle_14127" data-name="Rectangle 14127" width="1.288" height="74.745" transform="translate(63.211 -1.809)" fill="#c7af81"/>
        <rect id="Rectangle_14128" data-name="Rectangle 14128" width="72.417" height="1.288" transform="translate(-7.921 71.648)" fill="#c7af81"/>
        <rect id="Rectangle_14129" data-name="Rectangle 14129" width="1.288" height="70.771" transform="translate(59.239 -1.804)" fill="#c7af81"/>
        <rect id="Rectangle_14130" data-name="Rectangle 14130" width="68.448" height="1.288" transform="translate(-7.921 67.679)" fill="#c7af81"/>
        <rect id="Rectangle_14131" data-name="Rectangle 14131" width="1.288" height="66.802" transform="translate(55.267 -1.807)" fill="#c7af81"/>
        <rect id="Rectangle_14132" data-name="Rectangle 14132" width="64.476" height="1.288" transform="translate(-7.921 63.708)" fill="#c7af81"/>
        <rect id="Rectangle_14133" data-name="Rectangle 14133" width="1.288" height="62.831" transform="translate(51.295 -1.807)" fill="#c7af81"/>
        <rect id="Rectangle_14134" data-name="Rectangle 14134" width="60.507" height="1.288" transform="translate(-7.921 59.736)" fill="#c7af81"/>
        <rect id="Rectangle_14135" data-name="Rectangle 14135" width="1.288" height="58.859" transform="translate(47.326 -1.807)" fill="#c7af81"/>
        <rect id="Rectangle_14136" data-name="Rectangle 14136" width="56.535" height="1.288" transform="translate(-7.921 55.765)" fill="#c7af81"/>
        <rect id="Rectangle_14137" data-name="Rectangle 14137" width="1.288" height="54.89" transform="translate(43.354 -1.807)" fill="#c7af81"/>
        <rect id="Rectangle_14138" data-name="Rectangle 14138" width="52.563" height="1.288" transform="translate(-7.921 51.796)" fill="#c7af81"/>
        <rect id="Rectangle_14139" data-name="Rectangle 14139" width="1.288" height="50.919" transform="translate(39.385 -1.807)" fill="#c7af81"/>
        <rect id="Rectangle_14140" data-name="Rectangle 14140" width="48.591" height="1.288" transform="translate(-7.921 47.824)" fill="#c7af81"/>
        <rect id="Rectangle_14141" data-name="Rectangle 14141" width="1.288" height="46.947" transform="translate(35.413 -1.804)" fill="#c7af81"/>
        <rect id="Rectangle_14142" data-name="Rectangle 14142" width="44.621" height="1.288" transform="translate(-7.921 43.856)" fill="#c7af81"/>
        <rect id="Rectangle_14143" data-name="Rectangle 14143" width="1.288" height="42.979" transform="translate(31.441 -1.807)" fill="#c7af81"/>
        <rect id="Rectangle_14144" data-name="Rectangle 14144" width="40.649" height="1.288" transform="translate(-7.921 39.884)" fill="#c7af81"/>
        <rect id="Rectangle_14145" data-name="Rectangle 14145" width="1.288" height="39.007" transform="translate(27.469 -1.807)" fill="#c7af81"/>
        <rect id="Rectangle_14146" data-name="Rectangle 14146" width="36.677" height="1.288" transform="translate(-7.921 35.913)" fill="#c7af81"/>
        <rect id="Rectangle_14147" data-name="Rectangle 14147" width="1.288" height="35.039" transform="translate(23.5 -1.809)" fill="#c7af81"/>
        <rect id="Rectangle_14148" data-name="Rectangle 14148" width="32.706" height="1.288" transform="translate(-7.921 31.941)" fill="#c7af81"/>
        <rect id="Rectangle_14149" data-name="Rectangle 14149" width="1.288" height="31.067" transform="translate(19.528 -1.807)" fill="#c7af81"/>
        <rect id="Rectangle_14150" data-name="Rectangle 14150" width="28.736" height="1.285" transform="translate(-7.921 27.976)" fill="#c7af81"/>
        <rect id="Rectangle_14151" data-name="Rectangle 14151" width="1.288" height="27.096" transform="translate(15.556 -1.807)" fill="#c7af81"/>
        <rect id="Rectangle_14152" data-name="Rectangle 14152" width="24.764" height="1.288" transform="translate(-7.921 24.001)" fill="#c7af81"/>
        <rect id="Rectangle_14153" data-name="Rectangle 14153" width="1.288" height="23.124" transform="translate(11.587 -1.807)" fill="#c7af81"/>
        <rect id="Rectangle_14154" data-name="Rectangle 14154" width="20.792" height="1.288" transform="translate(-7.921 20.03)" fill="#c7af81"/>
        <rect id="Rectangle_14155" data-name="Rectangle 14155" width="1.288" height="19.155" transform="translate(7.615 -1.807)" fill="#c7af81"/>
        <rect id="Rectangle_14156" data-name="Rectangle 14156" width="16.823" height="1.288" transform="translate(-7.921 16.061)" fill="#c7af81"/>
        <rect id="Rectangle_14157" data-name="Rectangle 14157" width="1.288" height="15.184" transform="translate(3.643 -1.807)" fill="#c7af81"/>
        <rect id="Rectangle_14158" data-name="Rectangle 14158" width="12.851" height="1.288" transform="translate(-7.921 12.089)" fill="#c7af81"/>
        <rect id="Rectangle_14159" data-name="Rectangle 14159" width="1.288" height="11.212" transform="translate(-0.326 -1.807)" fill="#c7af81"/>
        <rect id="Rectangle_14160" data-name="Rectangle 14160" width="8.879" height="1.288" transform="translate(-7.921 8.118)" fill="#c7af81"/>
        <rect id="Rectangle_14161" data-name="Rectangle 14161" width="104.187" height="1.288" transform="translate(98.95 103.414)" fill="#c7af81"/>
        <rect id="Rectangle_14162" data-name="Rectangle 14162" width="1.288" height="106.509" transform="translate(98.95 -1.807)" fill="#c7af81"/>
        <rect id="Rectangle_14163" data-name="Rectangle 14163" width="100.215" height="1.288" transform="translate(102.922 99.443)" fill="#c7af81"/>
        <rect id="Rectangle_14164" data-name="Rectangle 14164" width="1.285" height="102.54" transform="translate(102.922 -1.809)" fill="#c7af81"/>
        <rect id="Rectangle_14165" data-name="Rectangle 14165" width="96.246" height="1.285" transform="translate(106.891 95.474)" fill="#c7af81"/>
        <rect id="Rectangle_14166" data-name="Rectangle 14166" width="1.288" height="98.566" transform="translate(106.894 -1.804)" fill="#c7af81"/>
        <rect id="Rectangle_14167" data-name="Rectangle 14167" width="92.274" height="1.288" transform="translate(110.863 91.503)" fill="#c7af81"/>
        <rect id="Rectangle_14168" data-name="Rectangle 14168" width="1.288" height="94.597" transform="translate(110.863 -1.807)" fill="#c7af81"/>
        <rect id="Rectangle_14169" data-name="Rectangle 14169" width="88.305" height="1.288" transform="translate(114.832 87.531)" fill="#c7af81"/>
        <rect id="Rectangle_14170" data-name="Rectangle 14170" width="1.288" height="90.626" transform="translate(114.835 -1.807)" fill="#c7af81"/>
        <rect id="Rectangle_14171" data-name="Rectangle 14171" width="84.333" height="1.288" transform="translate(118.804 83.562)" fill="#c7af81"/>
        <rect id="Rectangle_14172" data-name="Rectangle 14172" width="1.288" height="86.657" transform="translate(118.804 -1.807)" fill="#c7af81"/>
        <rect id="Rectangle_14173" data-name="Rectangle 14173" width="80.364" height="1.288" transform="translate(122.773 79.591)" fill="#c7af81"/>
        <rect id="Rectangle_14174" data-name="Rectangle 14174" width="1.288" height="82.685" transform="translate(122.776 -1.807)" fill="#c7af81"/>
        <rect id="Rectangle_14175" data-name="Rectangle 14175" width="76.389" height="1.285" transform="translate(126.748 75.619)" fill="#c7af81"/>
        <rect id="Rectangle_14176" data-name="Rectangle 14176" width="1.288" height="78.714" transform="translate(126.748 -1.807)" fill="#c7af81"/>
        <rect id="Rectangle_14177" data-name="Rectangle 14177" width="72.417" height="1.288" transform="translate(130.72 71.651)" fill="#c7af81"/>
        <rect id="Rectangle_14178" data-name="Rectangle 14178" width="1.288" height="74.745" transform="translate(130.72 -1.809)" fill="#c7af81"/>
        <rect id="Rectangle_14179" data-name="Rectangle 14179" width="68.448" height="1.288" transform="translate(134.689 67.679)" fill="#c7af81"/>
        <rect id="Rectangle_14180" data-name="Rectangle 14180" width="1.288" height="70.771" transform="translate(134.689 -1.804)" fill="#c7af81"/>
        <rect id="Rectangle_14181" data-name="Rectangle 14181" width="64.476" height="1.288" transform="translate(138.661 63.708)" fill="#c7af81"/>
        <rect id="Rectangle_14182" data-name="Rectangle 14182" width="1.288" height="66.802" transform="translate(138.661 -1.807)" fill="#c7af81"/>
        <rect id="Rectangle_14183" data-name="Rectangle 14183" width="60.506" height="1.288" transform="translate(142.63 59.739)" fill="#c7af81"/>
        <rect id="Rectangle_14184" data-name="Rectangle 14184" width="1.288" height="62.831" transform="translate(142.633 -1.807)" fill="#c7af81"/>
        <rect id="Rectangle_14185" data-name="Rectangle 14185" width="56.535" height="1.288" transform="translate(146.602 55.768)" fill="#c7af81"/>
        <rect id="Rectangle_14186" data-name="Rectangle 14186" width="1.288" height="58.862" transform="translate(146.602 -1.807)" fill="#c7af81"/>
        <rect id="Rectangle_14187" data-name="Rectangle 14187" width="52.563" height="1.288" transform="translate(150.574 51.796)" fill="#c7af81"/>
        <rect id="Rectangle_14188" data-name="Rectangle 14188" width="1.288" height="54.89" transform="translate(150.574 -1.807)" fill="#c7af81"/>
        <rect id="Rectangle_14189" data-name="Rectangle 14189" width="48.593" height="1.288" transform="translate(154.543 47.824)" fill="#c7af81"/>
        <rect id="Rectangle_14190" data-name="Rectangle 14190" width="1.288" height="50.919" transform="translate(154.546 -1.807)" fill="#c7af81"/>
        <rect id="Rectangle_14191" data-name="Rectangle 14191" width="44.621" height="1.288" transform="translate(158.515 43.856)" fill="#c7af81"/>
        <rect id="Rectangle_14192" data-name="Rectangle 14192" width="1.288" height="46.947" transform="translate(158.515 -1.807)" fill="#c7af81"/>
        <rect id="Rectangle_14193" data-name="Rectangle 14193" width="40.649" height="1.288" transform="translate(162.487 39.884)" fill="#c7af81"/>
        <rect id="Rectangle_14194" data-name="Rectangle 14194" width="1.288" height="42.979" transform="translate(162.487 -1.807)" fill="#c7af81"/>
        <rect id="Rectangle_14195" data-name="Rectangle 14195" width="36.677" height="1.288" transform="translate(166.459 35.916)" fill="#c7af81"/>
        <rect id="Rectangle_14196" data-name="Rectangle 14196" width="1.288" height="39.007" transform="translate(166.459 -1.807)" fill="#c7af81"/>
        <rect id="Rectangle_14197" data-name="Rectangle 14197" width="32.708" height="1.288" transform="translate(170.428 31.941)" fill="#c7af81"/>
        <rect id="Rectangle_14198" data-name="Rectangle 14198" width="1.285" height="35.039" transform="translate(170.431 -1.807)" fill="#c7af81"/>
        <rect id="Rectangle_14199" data-name="Rectangle 14199" width="28.736" height="1.288" transform="translate(174.4 27.973)" fill="#c7af81"/>
        <rect id="Rectangle_14200" data-name="Rectangle 14200" width="1.288" height="31.067" transform="translate(174.4 -1.807)" fill="#c7af81"/>
        <rect id="Rectangle_14201" data-name="Rectangle 14201" width="24.764" height="1.288" transform="translate(178.372 24.001)" fill="#c7af81"/>
        <rect id="Rectangle_14202" data-name="Rectangle 14202" width="1.288" height="27.096" transform="translate(178.372 -1.807)" fill="#c7af81"/>
        <rect id="Rectangle_14203" data-name="Rectangle 14203" width="20.795" height="1.288" transform="translate(182.341 20.032)" fill="#c7af81"/>
        <rect id="Rectangle_14204" data-name="Rectangle 14204" width="1.288" height="23.124" transform="translate(182.344 -1.807)" fill="#c7af81"/>
        <rect id="Rectangle_14205" data-name="Rectangle 14205" width="16.823" height="1.288" transform="translate(186.313 16.061)" fill="#c7af81"/>
        <rect id="Rectangle_14206" data-name="Rectangle 14206" width="1.288" height="19.155" transform="translate(186.313 -1.807)" fill="#c7af81"/>
        <rect id="Rectangle_14207" data-name="Rectangle 14207" width="12.854" height="1.288" transform="translate(190.282 12.089)" fill="#c7af81"/>
        <rect id="Rectangle_14208" data-name="Rectangle 14208" width="1.288" height="15.184" transform="translate(190.285 -1.807)" fill="#c7af81"/>
        <rect id="Rectangle_14209" data-name="Rectangle 14209" width="8.879" height="1.288" transform="translate(194.257 8.118)" fill="#c7af81"/>
        <rect id="Rectangle_14210" data-name="Rectangle 14210" width="1.288" height="11.212" transform="translate(194.257 -1.807)" fill="#c7af81"/>
        <rect id="Rectangle_14211" data-name="Rectangle 14211" width="1.288" height="181.659" transform="translate(98.95 107.386)" fill="#c7af81"/>
        <rect id="Rectangle_14212" data-name="Rectangle 14212" width="104.187" height="1.288" transform="translate(98.95 107.386)" fill="#c7af81"/>
        <rect id="Rectangle_14213" data-name="Rectangle 14213" width="1.288" height="177.687" transform="translate(102.922 111.354)" fill="#c7af81"/>
        <rect id="Rectangle_14214" data-name="Rectangle 14214" width="100.215" height="1.288" transform="translate(102.922 111.354)" fill="#c7af81"/>
        <rect id="Rectangle_14215" data-name="Rectangle 14215" width="1.288" height="173.719" transform="translate(106.891 115.326)" fill="#c7af81"/>
        <rect id="Rectangle_14216" data-name="Rectangle 14216" width="96.246" height="1.288" transform="translate(106.891 115.326)" fill="#c7af81"/>
        <rect id="Rectangle_14217" data-name="Rectangle 14217" width="1.288" height="169.744" transform="translate(110.863 119.297)" fill="#c7af81"/>
        <rect id="Rectangle_14218" data-name="Rectangle 14218" width="92.274" height="1.288" transform="translate(110.863 119.297)" fill="#c7af81"/>
        <rect id="Rectangle_14219" data-name="Rectangle 14219" width="1.288" height="165.776" transform="translate(114.835 123.269)" fill="#c7af81"/>
        <rect id="Rectangle_14220" data-name="Rectangle 14220" width="88.305" height="1.288" transform="translate(114.832 123.266)" fill="#c7af81"/>
        <rect id="Rectangle_14221" data-name="Rectangle 14221" width="1.288" height="161.804" transform="translate(118.807 127.238)" fill="#c7af81"/>
        <rect id="Rectangle_14222" data-name="Rectangle 14222" width="84.333" height="1.288" transform="translate(118.804 127.238)" fill="#c7af81"/>
        <rect id="Rectangle_14223" data-name="Rectangle 14223" width="1.288" height="157.833" transform="translate(122.776 131.209)" fill="#c7af81"/>
        <rect id="Rectangle_14224" data-name="Rectangle 14224" width="80.361" height="1.288" transform="translate(122.776 131.209)" fill="#c7af81"/>
        <rect id="Rectangle_14225" data-name="Rectangle 14225" width="1.288" height="153.861" transform="translate(126.748 135.181)" fill="#c7af81"/>
        <rect id="Rectangle_14226" data-name="Rectangle 14226" width="76.389" height="1.288" transform="translate(126.748 135.181)" fill="#c7af81"/>
        <rect id="Rectangle_14227" data-name="Rectangle 14227" width="1.285" height="149.893" transform="translate(130.72 139.149)" fill="#c7af81"/>
        <rect id="Rectangle_14228" data-name="Rectangle 14228" width="72.417" height="1.288" transform="translate(130.72 139.149)" fill="#c7af81"/>
        <rect id="Rectangle_14229" data-name="Rectangle 14229" width="1.288" height="145.921" transform="translate(134.689 143.121)" fill="#c7af81"/>
        <rect id="Rectangle_14230" data-name="Rectangle 14230" width="68.448" height="1.285" transform="translate(134.689 143.121)" fill="#c7af81"/>
        <rect id="Rectangle_14231" data-name="Rectangle 14231" width="1.288" height="141.952" transform="translate(138.661 147.092)" fill="#c7af81"/>
        <rect id="Rectangle_14232" data-name="Rectangle 14232" width="64.476" height="1.288" transform="translate(138.661 147.092)" fill="#c7af81"/>
        <rect id="Rectangle_14233" data-name="Rectangle 14233" width="1.288" height="137.981" transform="translate(142.633 151.064)" fill="#c7af81"/>
        <rect id="Rectangle_14234" data-name="Rectangle 14234" width="60.506" height="1.288" transform="translate(142.63 151.064)" fill="#c7af81"/>
        <rect id="Rectangle_14235" data-name="Rectangle 14235" width="1.288" height="134.009" transform="translate(146.602 155.033)" fill="#c7af81"/>
        <rect id="Rectangle_14236" data-name="Rectangle 14236" width="56.535" height="1.288" transform="translate(146.602 155.033)" fill="#c7af81"/>
        <rect id="Rectangle_14237" data-name="Rectangle 14237" width="1.288" height="130.041" transform="translate(150.574 159.004)" fill="#c7af81"/>
        <rect id="Rectangle_14238" data-name="Rectangle 14238" width="52.563" height="1.288" transform="translate(150.574 159.004)" fill="#c7af81"/>
        <rect id="Rectangle_14239" data-name="Rectangle 14239" width="1.288" height="126.069" transform="translate(154.546 162.976)" fill="#c7af81"/>
        <rect id="Rectangle_14240" data-name="Rectangle 14240" width="48.593" height="1.288" transform="translate(154.543 162.976)" fill="#c7af81"/>
        <rect id="Rectangle_14241" data-name="Rectangle 14241" width="1.288" height="122.098" transform="translate(158.515 166.947)" fill="#c7af81"/>
        <rect id="Rectangle_14242" data-name="Rectangle 14242" width="44.621" height="1.288" transform="translate(158.515 166.947)" fill="#c7af81"/>
        <rect id="Rectangle_14243" data-name="Rectangle 14243" width="1.288" height="118.126" transform="translate(162.487 170.916)" fill="#c7af81"/>
        <rect id="Rectangle_14244" data-name="Rectangle 14244" width="40.649" height="1.288" transform="translate(162.487 170.916)" fill="#c7af81"/>
        <rect id="Rectangle_14245" data-name="Rectangle 14245" width="1.288" height="114.158" transform="translate(166.459 174.887)" fill="#c7af81"/>
        <rect id="Rectangle_14246" data-name="Rectangle 14246" width="36.677" height="1.288" transform="translate(166.459 174.887)" fill="#c7af81"/>
        <rect id="Rectangle_14247" data-name="Rectangle 14247" width="1.285" height="110.186" transform="translate(170.431 178.856)" fill="#c7af81"/>
        <rect id="Rectangle_14248" data-name="Rectangle 14248" width="32.706" height="1.288" transform="translate(170.431 178.856)" fill="#c7af81"/>
        <rect id="Rectangle_14249" data-name="Rectangle 14249" width="1.288" height="106.217" transform="translate(174.4 182.827)" fill="#c7af81"/>
        <rect id="Rectangle_14250" data-name="Rectangle 14250" width="28.736" height="1.288" transform="translate(174.4 182.827)" fill="#c7af81"/>
        <rect id="Rectangle_14251" data-name="Rectangle 14251" width="1.288" height="102.246" transform="translate(178.372 186.799)" fill="#c7af81"/>
        <rect id="Rectangle_14252" data-name="Rectangle 14252" width="24.764" height="1.288" transform="translate(178.372 186.799)" fill="#c7af81"/>
        <rect id="Rectangle_14253" data-name="Rectangle 14253" width="1.288" height="98.274" transform="translate(182.344 190.771)" fill="#c7af81"/>
        <rect id="Rectangle_14254" data-name="Rectangle 14254" width="20.795" height="1.285" transform="translate(182.341 190.771)" fill="#c7af81"/>
        <rect id="Rectangle_14255" data-name="Rectangle 14255" width="1.288" height="94.303" transform="translate(186.313 194.739)" fill="#c7af81"/>
        <rect id="Rectangle_14256" data-name="Rectangle 14256" width="16.823" height="1.288" transform="translate(186.313 194.739)" fill="#c7af81"/>
        <rect id="Rectangle_14257" data-name="Rectangle 14257" width="1.288" height="90.331" transform="translate(190.285 198.711)" fill="#c7af81"/>
        <rect id="Rectangle_14258" data-name="Rectangle 14258" width="12.854" height="1.288" transform="translate(190.282 198.711)" fill="#c7af81"/>
        <rect id="Rectangle_14259" data-name="Rectangle 14259" width="1.288" height="86.363" transform="translate(194.257 202.682)" fill="#c7af81"/>
        <rect id="Rectangle_14260" data-name="Rectangle 14260" width="8.879" height="1.288" transform="translate(194.257 202.682)" fill="#c7af81"/>
      </g>
    </g>
    <g id="Group_56484" data-name="Group 56484">
      <g id="Group_56483" data-name="Group 56483" clip-path="url(#clip-path-2)">
        <path id="Path_124117" data-name="Path 124117" d="M148.473,302h-1.632V35.84a17.182,17.182,0,0,0-12.263-16.39L74.238,1.7,13.895,19.45A17.182,17.182,0,0,0,1.632,35.84V302H0V35.84A18.821,18.821,0,0,1,13.434,17.885L74.238,0l.227.07,60.574,17.815A18.821,18.821,0,0,1,148.473,35.84Z" fill="#c7af81"/>
        <path id="Path_124118" data-name="Path 124118" d="M176.346,229.837h-1.635V73.546a17.179,17.179,0,0,0-12.26-16.39L102.108,39.4,41.768,57.156A17.178,17.178,0,0,0,29.5,73.546V229.837H27.873V73.546A18.821,18.821,0,0,1,41.307,55.588l60.8-17.882,60.8,17.882a18.824,18.824,0,0,1,13.437,17.958Z" transform="translate(53.353 72.162)" fill="#c7af81"/>
      </g>
    </g>
  </g>
</svg>
