<svg xmlns="http://www.w3.org/2000/svg" width="53.193" height="56.984" viewBox="0 0 53.193 56.984">
  <g id="criminalIcin4" transform="translate(-2.5 -1)">
    <path id="Path_124974" data-name="Path 124974" d="M48.95,26.864V15.475C48.95,4.7,46.437,2,36.331,2H16.119C6.013,2,3.5,4.7,3.5,15.475v30.1c0,7.112,13.368,5.929,13.368,5.929" transform="translate(0 0)" fill="none" stroke="#c6aa76" stroke-linecap="round" stroke-linejoin="round" stroke-width="2"/>
    <path id="Path_124975" data-name="Path 124975" d="M25.557,36.115A10.557,10.557,0,1,0,15,25.557,10.557,10.557,0,0,0,25.557,36.115Z" transform="translate(14.866 17.376)" fill="none" stroke="#c6aa76" stroke-linecap="round" stroke-linejoin="round" stroke-width="2"/>
    <path id="Path_124976" data-name="Path 124976" d="M24.3,24.3,21,21" transform="translate(29.98 32.271)" fill="none" stroke="#c6aa76" stroke-linecap="round" stroke-linejoin="round" stroke-width="2"/>
    <path id="Path_124977" data-name="Path 124977" d="M8,7H29.388" transform="translate(7.531 8.368)" fill="none" stroke="#c6aa76" stroke-linecap="round" stroke-linejoin="round" stroke-width="2"/>
    <path id="Path_124978" data-name="Path 124978" d="M9,11H25.041" transform="translate(9.204 15.062)" fill="none" stroke="#c6aa76" stroke-linecap="round" stroke-linejoin="round" stroke-width="2"/>
  </g>
</svg>
