<svg xmlns="http://www.w3.org/2000/svg" width="58.245" height="58.119" viewBox="0 0 58.245 58.119">
  <g id="trainingImg2" transform="translate(-1661.473 -2784.879)">
    <g id="setting-2" transform="translate(1674.74 2798.306)">
      <path id="Path_124966" data-name="Path 124966" d="M13.155,17.309A4.155,4.155,0,1,0,9,13.155,4.155,4.155,0,0,0,13.155,17.309Z" transform="translate(2.694 2.478)" fill="none" stroke="#c6aa76" stroke-linecap="round" stroke-linejoin="round" stroke-width="2"/>
      <path id="Path_124967" data-name="Path 124967" d="M2,16.851V14.414a2.639,2.639,0,0,1,2.631-2.631c2.507,0,3.531-1.773,2.271-3.947a2.63,2.63,0,0,1,.969-3.587l2.4-1.371a2.311,2.311,0,0,1,3.157.831l.152.263c1.246,2.174,3.3,2.174,4.556,0l.152-.263a2.311,2.311,0,0,1,3.157-.831l2.4,1.371a2.63,2.63,0,0,1,.969,3.587c-1.26,2.174-.235,3.947,2.271,3.947a2.639,2.639,0,0,1,2.631,2.631v2.437a2.639,2.639,0,0,1-2.631,2.631c-2.507,0-3.531,1.773-2.271,3.947a2.627,2.627,0,0,1-.969,3.587l-2.4,1.371a2.311,2.311,0,0,1-3.157-.831l-.152-.263c-1.246-2.174-3.3-2.174-4.556,0l-.152.263a2.311,2.311,0,0,1-3.157.831l-2.4-1.371A2.63,2.63,0,0,1,6.9,23.429c1.26-2.174.235-3.947-2.271-3.947A2.639,2.639,0,0,1,2,16.851Z" transform="translate(0 0)" fill="none" stroke="#c6aa76" stroke-linecap="round" stroke-linejoin="round" stroke-width="2"/>
    </g>
    <g id="Group_56964" data-name="Group 56964" transform="translate(11500.432 7203.43)">
      <g id="Group_56960" data-name="Group 56960" transform="translate(-9806.155 -4414.744)">
        <path id="Path_124968" data-name="Path 124968" d="M-9796.256-4412.982s9.09,1.842,14.37,7.615a28.274,28.274,0,0,1,6.511,12.774" transform="translate(9796.256 4412.982)" fill="none" stroke="#c6aa76" stroke-linecap="round" stroke-width="2"/>
        <path id="Path_124969" data-name="Path 124969" d="M-9767.27-4392.149l-3.071,5.281-5.4-2.825" transform="translate(9791.344 4407.993)" fill="none" stroke="#c6aa76" stroke-linecap="round" stroke-width="2"/>
      </g>
      <g id="Group_56963" data-name="Group 56963" transform="translate(-9837.592 -4385.364)">
        <path id="Path_124968-2" data-name="Path 124968" d="M-9775.376-4392.593s-9.09-1.842-14.37-7.615a28.286,28.286,0,0,1-6.511-12.774" transform="translate(9799.45 4413.718)" fill="none" stroke="#c6aa76" stroke-linecap="round" stroke-width="2"/>
        <path id="Path_124969-2" data-name="Path 124969" d="M-9775.746-4386.868l3.071-5.281,5.4,2.825" transform="translate(9775.746 4392.149)" fill="none" stroke="#c6aa76" stroke-linecap="round" stroke-width="2"/>
      </g>
      <g id="Group_56961" data-name="Group 56961" transform="matrix(0.017, 1, -1, 0.017, -9814.188, -4417.161)">
        <path id="Path_124968-3" data-name="Path 124968" d="M20.88,20.389S11.791,18.547,6.51,12.774A28.289,28.289,0,0,1,0,0" transform="translate(3.194 0.737)" fill="none" stroke="#c6aa76" stroke-linecap="round" stroke-width="2"/>
        <path id="Path_124969-3" data-name="Path 124969" d="M0,5.281,3.071,0l5.4,2.825" transform="translate(0 0)" fill="none" stroke="#c6aa76" stroke-linecap="round" stroke-width="2"/>
      </g>
      <g id="Group_56962" data-name="Group 56962" transform="matrix(-0.017, -1, 1, -0.017, -9805.484, -4361.822)">
        <path id="Path_124968-4" data-name="Path 124968" d="M20.88,20.389S11.791,18.547,6.51,12.774A28.289,28.289,0,0,1,0,0" transform="translate(3.194 0.737)" fill="none" stroke="#c6aa76" stroke-linecap="round" stroke-width="2"/>
        <path id="Path_124969-4" data-name="Path 124969" d="M0,5.281,3.071,0l5.4,2.825" transform="translate(0 0)" fill="none" stroke="#c6aa76" stroke-linecap="round" stroke-width="2"/>
      </g>
    </g>
  </g>
</svg>
