<svg xmlns="http://www.w3.org/2000/svg" width="238" height="238" viewBox="0 0 238 238">
  <g id="call-calling" transform="translate(16.777 16.936)">
    <rect id="Rectangle_13986" data-name="Rectangle 13986" width="238" height="238" rx="119" transform="translate(-16.777 -16.936)" fill="#eee"/>
    <g id="call-calling-2" data-name="call-calling" transform="translate(62.222 62.064)">
      <path id="Path_124605" data-name="Path 124605" d="M81.881,67.32a10.181,10.181,0,0,1-1,4.36,16.5,16.5,0,0,1-2.72,4.08,18.034,18.034,0,0,1-6.56,4.72A20.087,20.087,0,0,1,63.8,82a33.335,33.335,0,0,1-13.04-2.92A70.258,70.258,0,0,1,37,71.16a115,115,0,0,1-13.12-11.2A113.655,113.655,0,0,1,12.72,46.88,71.312,71.312,0,0,1,4.88,33.24,33.69,33.69,0,0,1,2,20.16a20.692,20.692,0,0,1,1.44-7.72,18.411,18.411,0,0,1,4.6-6.68A11.72,11.72,0,0,1,16.36,2a7.517,7.517,0,0,1,3.24.72,6.521,6.521,0,0,1,2.68,2.24l9.28,13.08a13.689,13.689,0,0,1,1.6,2.8,6.322,6.322,0,0,1,.56,2.44,5.43,5.43,0,0,1-.84,2.84,13.605,13.605,0,0,1-2.24,2.84L27.6,32.12a2.141,2.141,0,0,0-.64,1.6,3.632,3.632,0,0,0,.12.92c.12.32.24.56.32.8a33.193,33.193,0,0,0,3.72,5.12c1.8,2.08,3.72,4.2,5.8,6.32,2.16,2.12,4.24,4.08,6.36,5.88a30.7,30.7,0,0,0,5.16,3.68c.2.08.44.2.72.32a2.762,2.762,0,0,0,1,.16,2.2,2.2,0,0,0,1.64-.68l3.04-3A12.272,12.272,0,0,1,57.721,51a5.327,5.327,0,0,1,2.84-.84,6.384,6.384,0,0,1,2.44.52,15.471,15.471,0,0,1,2.8,1.56l13.24,9.4a6.068,6.068,0,0,1,2.2,2.56A8.207,8.207,0,0,1,81.881,67.32Z" transform="translate(-2 -2)" fill="none" stroke="#005f61" stroke-miterlimit="10" stroke-width="5"/>
      <path id="Path_124606" data-name="Path 124606" d="M28.868,19.368c0-2.377-1.862-6.023-4.636-8.995C21.7,7.64,18.328,5.5,15,5.5" transform="translate(37.104 8.528)" fill="none" stroke="#c6aa76" stroke-linecap="round" stroke-linejoin="round" stroke-width="5"/>
      <path id="Path_124607" data-name="Path 124607" d="M42.737,29.737A27.717,27.717,0,0,0,15,2" transform="translate(37.263 -2)" fill="none" stroke="#c6aa76" stroke-linecap="round" stroke-linejoin="round" stroke-width="5"/>
    </g>
  </g>
</svg>
