<svg xmlns="http://www.w3.org/2000/svg" width="20.254" height="20.254" viewBox="0 0 20.254 20.254">
  <path id="globe" d="M221.466,686.082a22.243,22.243,0,0,0-3.887-.9,24.375,24.375,0,0,0,.318-3.423h5.067a8.788,8.788,0,0,1-1.5,4.322Zm-5.166,3.627a20.591,20.591,0,0,0,1.032-3.279,21.064,21.064,0,0,1,3.263.744,8.874,8.874,0,0,1-4.294,2.535Zm-1.559.248c-.2.015-.407.031-.615.031s-.41-.016-.615-.031a18.9,18.9,0,0,1-1.3-3.694c.629-.055,1.266-.087,1.912-.087s1.283.032,1.913.087a18.945,18.945,0,0,1-1.3,3.694Zm-7.083-2.783a21.064,21.064,0,0,1,3.263-.744,20.591,20.591,0,0,0,1.032,3.279,8.877,8.877,0,0,1-4.294-2.535Zm-.872-1.092a8.788,8.788,0,0,1-1.5-4.322h5.067a24.37,24.37,0,0,0,.318,3.423,22.243,22.243,0,0,0-3.887.9Zm0-9.911a22.2,22.2,0,0,0,3.887.9,24.372,24.372,0,0,0-.318,3.423H205.29a8.788,8.788,0,0,1,1.5-4.322Zm5.166-3.627a20.6,20.6,0,0,0-1.032,3.279,21,21,0,0,1-3.263-.744,8.878,8.878,0,0,1,4.294-2.535Zm1.559-.248c.2-.014.407-.031.615-.031s.411.017.615.031a18.96,18.96,0,0,1,1.3,3.694c-.63.055-1.267.087-1.913.087s-1.283-.032-1.912-.087a18.917,18.917,0,0,1,1.3-3.694Zm3.117,9.463a22.2,22.2,0,0,1-.326,3.263c-.713-.062-1.437-.1-2.177-.1s-1.464.037-2.176.1a22.031,22.031,0,0,1-.326-3.263Zm-5-1.266a22.03,22.03,0,0,1,.326-3.263c.712.062,1.437.1,2.176.1s1.464-.037,2.176-.1a22.114,22.114,0,0,1,.327,3.263Zm8.97-5.414a21,21,0,0,1-3.263.744,20.6,20.6,0,0,0-1.032-3.279,8.875,8.875,0,0,1,4.294,2.535Zm.872,1.092a8.788,8.788,0,0,1,1.5,4.322H217.9a24.376,24.376,0,0,0-.318-3.423,22.2,22.2,0,0,0,3.887-.9ZM214.127,671a10.127,10.127,0,1,0,10.127,10.127A10.127,10.127,0,0,0,214.127,671Z" transform="translate(-204 -671)" fill="#c6aa76" fill-rule="evenodd"/>
</svg>
