<svg xmlns="http://www.w3.org/2000/svg" width="20.67" height="20.67" viewBox="0 0 20.67 20.67">
  <g id="id-design" transform="translate(0 0)">
    <path id="Path_127059" data-name="Path 127059" d="M15.108,9.9l.507.507h0l1.79,1.79h0l1.79,1.79h0l.983.983a1.671,1.671,0,0,1,0,2.363l-2.844,2.844a1.671,1.671,0,0,1-2.363,0L9.9,15.108,6.458,18.551A4.523,4.523,0,0,1,4.37,19.738l-3.616.914a.606.606,0,0,1-.736-.736L.932,16.3a4.523,4.523,0,0,1,1.186-2.089l3.443-3.443L.489,5.7a1.671,1.671,0,0,1,0-2.363L3.333.49A1.671,1.671,0,0,1,5.7.49L8.469,3.262h0l2.3,2.3L15.432.9a3.069,3.069,0,0,1,4.34,4.34Zm-13,6.7-.665,2.631,2.631-.665A3.311,3.311,0,0,0,5.6,17.695l.477-.477L3.453,14.591l-.477.477A3.312,3.312,0,0,0,2.107,16.6Zm2.2-2.863,2.627,2.627,2.109-2.109L6.418,11.625ZM4.515,1.211a.457.457,0,0,0-.325.135L1.346,4.19a.46.46,0,0,0,0,.651L15.83,19.324a.46.46,0,0,0,.651,0l2.844-2.844a.46.46,0,0,0,0-.651l-.555-.555-1.847,1.847a.606.606,0,0,1-.856-.856l1.847-1.847-.934-.934-.952.952a.606.606,0,1,1-.856-.856l.952-.952-.934-.934-1.847,1.847a.606.606,0,1,1-.856-.856l1.847-1.847L13.4,9.9l-.952.952A.606.606,0,1,1,11.589,10l.952-.952-.918-.918L9.776,9.976a.606.606,0,0,1-.856-.856l1.847-1.847-.934-.934-.952.952a.606.606,0,0,1-.856-.856l.952-.952-.934-.934L6.195,6.4a.606.606,0,0,1-.856-.856L7.186,3.692l-.934-.934L5.3,3.71a.606.606,0,0,1-.856-.856L5.4,1.9,4.84,1.346a.457.457,0,0,0-.325-.135Zm7.534,5.631,0,0,0,0,1.771,1.771h0l.426.426,2.566-2.566L14.191,3.852,11.625,6.418Zm6.866-5.087a1.86,1.86,0,0,0-2.627,0L15.048,3l2.627,2.627,1.24-1.24A1.86,1.86,0,0,0,18.915,1.755Z" transform="translate(0 0)" fill="#fff"/>
  </g>
</svg>
