<svg xmlns="http://www.w3.org/2000/svg" width="20.162" height="20.161" viewBox="0 0 20.162 20.161">
  <path id="linkInSo" d="M4.513,4.412V-9.049H.333V4.412Zm-2.092-15.3a2.441,2.441,0,0,0,2.421-2.444A2.422,2.422,0,0,0,2.421-15.75,2.422,2.422,0,0,0,0-13.329,2.441,2.441,0,0,0,2.421-10.885Zm17.737,15.3h0V-2.982c0-3.618-.778-6.4-5.008-6.4A4.392,4.392,0,0,0,11.2-7.213H11.14V-9.049H7.131V4.412h4.175V-2.253c0-1.755.333-3.452,2.506-3.452,2.142,0,2.173,2,2.173,3.564V4.412Z" transform="translate(0 15.75)" fill="#C6AA76"/>
</svg>
