<svg xmlns="http://www.w3.org/2000/svg" xmlns:xlink="http://www.w3.org/1999/xlink" width="292.984" height="109.72" viewBox="0 0 292.984 109.72">
  <defs>
    <clipPath id="clip-path">
      <path id="Path_143" data-name="Path 143" d="M0,56.589H292.984V-53.129H0Z" transform="translate(0 53.129)" fill="#c6aa76"/>
    </clipPath>
  </defs>
  <g id="Logo" transform="translate(-976 829.83)">
    <g id="Group_229" data-name="Group 229" transform="translate(976 -829.83)">
      <g id="shabe">
        <path id="Path_118" data-name="Path 118" d="M21.32,19.936,3.478,2.093l20.1-20.1v-.708h-2.3L1.972.59v0l0,0L-17.336-18.717h-2.3v.708l20.1,20.1L-17.378,19.936l.463.882-3.1,3.1.958.958L1.972,3.846,23,24.878l.958-.958-3.1-3.1Z" transform="translate(236.124 51.971)" fill="#c6aa76"/>
        <path id="Path_119" data-name="Path 119" d="M22.289.987V-.927L1.951,19.408H-.589L-20.926-.927V.987L.681,22.595Z" transform="translate(237.414 13.846)" fill="#c6aa76"/>
        <path id="Path_120" data-name="Path 120" d="M13.681,2.536,8.764-2.381h0L3.841,2.536l1.109.227-17.8,17.8v1.914L8.762.867,30.37,22.475V20.56l-17.8-17.8Z" transform="translate(229.334 80.785)" fill="#c6aa76"/>
        <path id="Path_121" data-name="Path 121" d="M22.289.987V-.927L.681,20.678-20.926-.927V.987L.681,22.595Z" transform="translate(237.414 7.387)" fill="#c6aa76"/>
        <path id="Path_122" data-name="Path 122" d="M22.289.987V-.927L8.411,12.951H7.073L.683,19.338l0,0,0,0L-5.71,12.951H-7.048L-20.926-.927V.987L.681,22.595Z" transform="translate(237.414 20.305)" fill="#c6aa76"/>
        <path id="Path_123" data-name="Path 123" d="M16.132,4.987,6.463-4.682l0,0v0L-3.208,4.987l.913.432L-15.146,18.268v1.916L6.461-1.425,28.069,20.184V18.268L15.222,5.418Z" transform="translate(231.633 76.619)" fill="#c6aa76"/>
        <path id="Path_124" data-name="Path 124" d="M18.157,7.012,4.562-6.583v0l0,0L-9.034,7.012l.756.586-8.768,8.768v1.914L4.56-3.324h0L26.168,18.281V16.367L17.4,7.6Z" transform="translate(233.535 72.061)" fill="#c6aa76"/>
        <path id="Path_125" data-name="Path 125" d="M8.368,17.485-4.6,4.518,16.335-16.416H14.418l-5.5,5.5v-1.338L-7.856,4.518l.673.675h0L14.451,26.828h1.916L8.091,18.553Z" transform="translate(250.783 49.67)" fill="#c6aa76"/>
        <path id="Path_126" data-name="Path 126" d="M22.288,0,.682,21.605-20.923,0h0V1.914L.682,23.522,22.29,1.914V0Z" transform="translate(237.413 0.002)" fill="#c6aa76"/>
        <path id="Path_127" data-name="Path 127" d="M19.8,8.705,3.023-8.173l0,0,0,0L-13.754,8.705l.568.671-5.4,5.4v1.916L3.021-4.916,24.629,16.691V14.775l-5.4-5.4Z" transform="translate(235.074 67.193)" fill="#c6aa76"/>
        <path id="Path_128" data-name="Path 128" d="M11.143,0-10.462,21.605,11.176,43.241h1.914L-8.546,21.605,13.06,0Z" transform="translate(279.892 33.254)" fill="#c6aa76"/>
        <path id="Path_129" data-name="Path 129" d="M1.99,11.143v-.068l-.6-.6L22.323-10.462H20.4L1.99,7.955V6.614l-3.858,3.858.673.673,0,0L20.437,32.779h1.916L1.99,12.417Z" transform="translate(257.714 43.717)" fill="#c6aa76"/>
        <path id="Path_130" data-name="Path 130" d="M5.321,14.439-1.739,7.378,19.193-13.556H17.278L5.321-1.6V-2.937L-5,7.38l.673.671v0L17.311,29.688h1.916L5.319,15.781Z" transform="translate(254.382 46.809)" fill="#c6aa76"/>
        <path id="Path_131" data-name="Path 131" d="M12.131,0H10.214l-21.6,21.605L10.247,43.244h1.914L-9.475,21.605Z" transform="translate(274.363 33.254)" fill="#c6aa76"/>
        <path id="Path_132" data-name="Path 132" d="M11.145,12.132,27.053-3.776l5.7-5.7V-11.39l-7.42,7.418H23.995L11.147,8.875l0,0,0,0L-1.706-3.972H-3.044l-7.42-7.418v1.914l5.7,5.7Z" transform="translate(226.95 37.227)" fill="#c6aa76"/>
        <path id="Path_133" data-name="Path 133" d="M12.146,11.144l.673-.673L-3.956-6.3v1.338l-5.5-5.5H-11.37L9.564,10.471-3.4,23.438l.277,1.068L-11.4,32.778h1.916L12.148,11.146Z" transform="translate(220.445 43.717)" fill="#c6aa76"/>
        <path id="Path_134" data-name="Path 134" d="M0,11.143V13.06L21.607-8.548,43.215,13.06V11.143L21.607-10.462Z" transform="translate(216.488 96.66)" fill="#c6aa76"/>
        <path id="Path_135" data-name="Path 135" d="M1.005,0H-.911L20.694,21.605-.944,43.244H.972L22.611,21.605Z" transform="translate(184.151 33.254)" fill="#c6aa76"/>
        <path id="Path_136" data-name="Path 136" d="M12.146,11.144l.673-.673L8.961,6.613v1.34L-9.456-10.463H-11.37L9.564,10.471l-.6.6v1.342L-11.4,32.778h1.916L12.148,11.146Z" transform="translate(207.528 43.717)" fill="#c6aa76"/>
        <path id="Path_137" data-name="Path 137" d="M12.146,11.144l.673-.673L2.5.156V1.494L-9.456-10.463H-11.37L9.564,10.471,2.5,17.532l0,1.34L-11.4,32.778h1.916L12.148,11.146Z" transform="translate(213.986 43.717)" fill="#c6aa76"/>
        <path id="Path_138" data-name="Path 138" d="M1,0H-.912L20.693,21.605-.943,43.244H.973L22.61,21.605Z" transform="translate(190.609 33.254)" fill="#c6aa76"/>
      </g>
      <g id="Group_138" data-name="Group 138" transform="translate(130.096 92.44)">
        <path id="Path_139" data-name="Path 139" d="M1.927,2.8v.332H-1.809v-5.76H1.8v.312H-1.175V-.059H1.636V.253H-1.175V2.8Z" transform="translate(1.809 2.628)" fill="#c6aa76"/>
      </g>
      <g id="Group_142" data-name="Group 142" transform="translate(0 0)" clip-path="url(#clip-path)">
        <g id="Group_139" data-name="Group 139" transform="translate(134.856 94.285)">
          <path id="Path_140" data-name="Path 140" d="M.795.161A.825.825,0,0,0,.27.349.656.656,0,0,0,.037.884a.475.475,0,0,0,.027.151.53.53,0,0,0,.107.171.938.938,0,0,0,.221.178,2.21,2.21,0,0,0,.39.178,3.557,3.557,0,0,1,.669.324,1.861,1.861,0,0,1,.4.337.949.949,0,0,1,.194.33.924.924,0,0,1,.05.277,1.031,1.031,0,0,1-.06.322.876.876,0,0,1-.223.341,1.324,1.324,0,0,1-.43.273,1.817,1.817,0,0,1-.679.112,2.154,2.154,0,0,1-.859-.145A1.668,1.668,0,0,1-.645,3.42l-.1-.1.6-.112a1.808,1.808,0,0,0,.328.246,1.046,1.046,0,0,0,.531.122.985.985,0,0,0,.235-.033A.7.7,0,0,0,1.2,3.424.63.63,0,0,0,1.4,3.2a.776.776,0,0,0,.076-.368.521.521,0,0,0-.165-.355,2.1,2.1,0,0,0-.659-.39c-.112-.043-.24-.1-.38-.159A2.915,2.915,0,0,1-.137,1.7a1.249,1.249,0,0,1-.328-.33A.823.823,0,0,1-.6.884.878.878,0,0,1-.207.134,1.631,1.631,0,0,1,.782-.151a2.041,2.041,0,0,1,.537.062,1.838,1.838,0,0,1,.368.138A1.088,1.088,0,0,1,1.91.2c.052.047.081.076.089.083L1.486.45A.88.88,0,0,0,.795.161" transform="translate(0.746 0.151)" fill="#c6aa76"/>
        </g>
        <g id="Group_140" data-name="Group 140" transform="translate(138.324 93.196)">
          <path id="Path_141" data-name="Path 141" d="M1.225,2.581c-.006,0-.068.019-.184.056a1.692,1.692,0,0,1-.5.056,1.093,1.093,0,0,1-.229-.039,1,1,0,0,1-.308-.142,1.1,1.1,0,0,1-.277-.291.827.827,0,0,1-.124-.471V-1.023H-1.15v-.312h.758V-2.423H.242v1.088H1.26v.312H.242L.234,1.749a.894.894,0,0,0,.039.231.553.553,0,0,0,.151.256.45.45,0,0,0,.332.134.881.881,0,0,0,.38-.089Z" transform="translate(1.15 2.423)" fill="#c6aa76"/>
        </g>
        <g id="Group_141" data-name="Group 141" transform="translate(141.913 97.343)">
          <path id="Path_142" data-name="Path 142" d="M0,.239A.449.449,0,0,1,.134-.088.443.443,0,0,1,.458-.224a.442.442,0,0,1,.322.136A.449.449,0,0,1,.915.239.446.446,0,0,1,.781.565.434.434,0,0,1,.458.7.435.435,0,0,1,.134.565.446.446,0,0,1,0,.239" transform="translate(0 0.224)" fill="#c6aa76"/>
        </g>
      </g>
      <g id="Group_143" data-name="Group 143" transform="translate(148.158 92.618)">
        <path id="Path_144" data-name="Path 144" d="M.7,0-.654,1.055l.535.213L.639.677V5.57h.6V0Z" transform="translate(0.654)" fill="#c6aa76"/>
      </g>
      <g id="Group_145" data-name="Group 145" transform="translate(0 0)" clip-path="url(#clip-path)">
        <g id="Group_144" data-name="Group 144" transform="translate(151.86 92.529)">
          <path id="Path_145" data-name="Path 145" d="M1.059,0a1.885,1.885,0,0,1,.679.122,1.858,1.858,0,0,1,.574.345,1.657,1.657,0,0,1,.4.539,1.6,1.6,0,0,1,.151.7,2.1,2.1,0,0,1-.112.661,3.5,3.5,0,0,1-.378.762L.8,5.66H.123L1.6,3.315A2.192,2.192,0,0,1,.991,3.4H.757a1.876,1.876,0,0,1-.669-.118,1.678,1.678,0,0,1-.558-.339,1.59,1.59,0,0,1-.386-.539A1.773,1.773,0,0,1-.994,1.7,1.624,1.624,0,0,1-.843.985,1.633,1.633,0,0,1-.443.45,1.839,1.839,0,0,1,.138.116,2.069,2.069,0,0,1,.823,0ZM-.381,1.7a1.435,1.435,0,0,0,.091.5,1.31,1.31,0,0,0,.256.434,1.355,1.355,0,0,0,.4.308,1.133,1.133,0,0,0,.518.116,1.353,1.353,0,0,0,.516-.1,1.287,1.287,0,0,0,.442-.283,1.363,1.363,0,0,0,.3-.43A1.253,1.253,0,0,0,2.25,1.7a1.441,1.441,0,0,0-.093-.512A1.324,1.324,0,0,0,1.883.756a1.35,1.35,0,0,0-.417-.3A1.255,1.255,0,0,0,.947.345,1.23,1.23,0,0,0,.658.378,1.249,1.249,0,0,0-.381,1.7" transform="translate(0.994)" fill="#c6aa76"/>
        </g>
      </g>
      <g id="Group_146" data-name="Group 146" transform="translate(157.58 92.618)">
        <path id="Path_147" data-name="Path 147" d="M0,0H3.558V.322L3.546.345,1.128,5.57H.479L2.922.345H0Z" fill="#c6aa76"/>
      </g>
      <g id="Group_165" data-name="Group 165" transform="translate(0 0)" clip-path="url(#clip-path)">
        <g id="Group_147" data-name="Group 147" transform="translate(162.864 92.528)">
          <path id="Path_148" data-name="Path 148" d="M1.438,1.383a1.538,1.538,0,0,1,.762.545,1.456,1.456,0,0,1,.3.911,1.548,1.548,0,0,1-.147.7,1.508,1.508,0,0,1-.388.508,1.587,1.587,0,0,1-.572.3,2.261,2.261,0,0,1-.688.1H.443a2.187,2.187,0,0,1-.657-.1,1.647,1.647,0,0,1-.572-.3,1.486,1.486,0,0,1-.407-.5,1.511,1.511,0,0,1-.157-.712A1.616,1.616,0,0,1-1.3,2.489a1.37,1.37,0,0,1,.161-.413,1.691,1.691,0,0,1,.322-.394,1.49,1.49,0,0,1,.541-.3A1.562,1.562,0,0,1-.914.81a1.33,1.33,0,0,1-.213-.7,1.341,1.341,0,0,1,.105-.533A1.307,1.307,0,0,1-.71-.871a1.566,1.566,0,0,1,.5-.31A1.739,1.739,0,0,1,.443-1.3H.7a1.768,1.768,0,0,1,.661.118,1.529,1.529,0,0,1,.5.31,1.285,1.285,0,0,1,.314.452,1.377,1.377,0,0,1,.105.533,1.388,1.388,0,0,1-.213.7,1.4,1.4,0,0,1-.634.568M-.737,2.838a1.227,1.227,0,0,0,.1.491,1.43,1.43,0,0,0,.287.411,1.349,1.349,0,0,0,.417.281,1.219,1.219,0,0,0,.508.107,1.293,1.293,0,0,0,.545-.112,1.237,1.237,0,0,0,.413-.293A1.421,1.421,0,0,0,1.8,3.305a1.248,1.248,0,0,0,.095-.467A1.227,1.227,0,0,0,1.805,2.4a1.356,1.356,0,0,0-.669-.729A1.217,1.217,0,0,0,.579,1.55a1.3,1.3,0,0,0-.518.1,1.363,1.363,0,0,0-.419.291,1.381,1.381,0,0,0-.279.417,1.249,1.249,0,0,0-.1.477m2.061-3.5A1.024,1.024,0,0,0,.969-.879a1.086,1.086,0,0,0-.39-.074,1.1,1.1,0,0,0-.446.089,1.218,1.218,0,0,0-.347.233,1.085,1.085,0,0,0-.227.339A1.024,1.024,0,0,0-.524.115,1.074,1.074,0,0,0-.458.466a1.147,1.147,0,0,0,.2.361A1.17,1.17,0,0,0,.1,1.1a.994.994,0,0,0,.483.112,1.043,1.043,0,0,0,.475-.105A1.02,1.02,0,0,0,1.39.837,1.2,1.2,0,0,0,1.6.476,1.059,1.059,0,0,0,1.671.115a1,1,0,0,0-.347-.779" transform="translate(1.35 1.298)" fill="#c6aa76"/>
        </g>
        <g id="Group_148" data-name="Group 148" transform="translate(0 92.613)">
          <path id="Path_149" data-name="Path 149" d="M.162,2.877Q.162.99.088-.318a17.516,17.516,0,0,0-.24-2.156L.432-2.7A15.657,15.657,0,0,1,.7-.609Q.777.6.779,2.1v.776Z" transform="translate(0.152 2.701)" fill="#c6aa76"/>
        </g>
        <g id="Group_149" data-name="Group 149" transform="translate(2.661 92.613)">
          <path id="Path_150" data-name="Path 150" d="M1.842,2.877H1.214L1.2,2.813c-.017-.2-.031-.5-.05-.89S1.113.989,1.084.3A3.823,3.823,0,0,1,.636.38,4.266,4.266,0,0,1,.187.407H0A3.064,3.064,0,0,1-.837.31,1.471,1.471,0,0,1-1.368.041a.913.913,0,0,1-.279-.423,1.713,1.713,0,0,1-.083-.549,1.747,1.747,0,0,1,.134-.684,1.919,1.919,0,0,1,.363-.562,1.763,1.763,0,0,1,.518-.384A1.4,1.4,0,0,1-.108-2.7H.068a1.227,1.227,0,0,1,1.156.746c.078.151.142.287.194.409a2.518,2.518,0,0,1,.13.4,3.75,3.75,0,0,1,.087.518c.023.2.043.448.064.75s.043.669.062,1.1.041.956.07,1.576ZM1.063-.155C1.047-.378,1.02-.621.98-.882A3.626,3.626,0,0,0,.8-1.6a1.772,1.772,0,0,0-.326-.551.65.65,0,0,0-.5-.221,1.1,1.1,0,0,0-.359.066.893.893,0,0,0-.355.225,1.217,1.217,0,0,0-.271.432,1.835,1.835,0,0,0-.109.679A1.065,1.065,0,0,0-1-.429a1,1,0,0,0,.314.335A1.137,1.137,0,0,0-.29.072,1.8,1.8,0,0,0,.078.116,1.577,1.577,0,0,0,.59.025c.178-.062.335-.122.473-.18" transform="translate(1.729 2.701)" fill="#c6aa76"/>
        </g>
        <g id="Group_150" data-name="Group 150" transform="translate(7.801 92.614)">
          <path id="Path_151" data-name="Path 151" d="M2.471,0A30.514,30.514,0,0,0,1.232,2.825,21.4,21.4,0,0,0,.394,5.578H-.364a12.1,12.1,0,0,0-.3-1.328c-.132-.481-.289-.973-.465-1.472S-1.5,1.788-1.7,1.311-2.12.4-2.32,0h.679c.167.353.32.69.467,1.008s.281.657.415,1.01.266.735.4,1.148.275.892.427,1.431A17.229,17.229,0,0,1,.788,2.342C1.087,1.578,1.432.8,1.823,0Z" transform="translate(2.32)" fill="#c6aa76"/>
        </g>
        <g id="Group_151" data-name="Group 151" transform="translate(13.782 92.613)">
          <path id="Path_152" data-name="Path 152" d="M2.07,2.877c-.37-.841-.692-1.64-.975-2.4S.579-1,.393-1.687C.2-1-.029-.274-.305.481s-.6,1.555-.969,2.4h-.669A34.755,34.755,0,0,0,.068-2.7H.727A34.581,34.581,0,0,0,2.741,2.877Z" transform="translate(1.943 2.701)" fill="#c6aa76"/>
        </g>
        <g id="Group_152" data-name="Group 152" transform="translate(21.386 92.84)">
          <path id="Path_153" data-name="Path 153" d="M3.269,2.309a.521.521,0,0,0,.163.388.547.547,0,0,0,.4.163H4.4a.16.16,0,0,1,.116.05.153.153,0,0,1,.047.112.161.161,0,0,1-.047.114.166.166,0,0,1-.116.047H3.692a.849.849,0,0,1-.4-.1,1.217,1.217,0,0,1-.33-.237,1.527,1.527,0,0,1-.337.237.825.825,0,0,1-.4.1H-1.9a1.115,1.115,0,0,1-.485-.1A1.114,1.114,0,0,1-2.755,2.8a1.161,1.161,0,0,1-.231-.4,1.445,1.445,0,0,1-.083-.491,2.7,2.7,0,0,1,.033-.363,2.478,2.478,0,0,1,.145-.533A3.906,3.906,0,0,1-2.567.372a3.467,3.467,0,0,1,.58-.684,1.95,1.95,0,0,1,.648-.4A2.127,2.127,0,0,1-.56-.853l.087.314H-.56A1.354,1.354,0,0,0-1.642,0,3.391,3.391,0,0,0-2.3,1.177a3.412,3.412,0,0,0-.147.9,1.049,1.049,0,0,0,.134.551.472.472,0,0,0,.438.227H2.079a.55.55,0,0,0,.4-.163.521.521,0,0,0,.163-.388V-.656l.626-.2ZM-.182-1.753a.415.415,0,0,1,.116-.3.377.377,0,0,1,.285-.12.405.405,0,0,1,.293.12.408.408,0,0,1,.118.3.392.392,0,0,1-.118.291.408.408,0,0,1-.293.114.38.38,0,0,1-.285-.114.4.4,0,0,1-.116-.291m1.051,0a.413.413,0,0,1,.114-.3.38.38,0,0,1,.285-.12.405.405,0,0,1,.293.12.408.408,0,0,1,.118.3.392.392,0,0,1-.118.291.408.408,0,0,1-.293.114.383.383,0,0,1-.285-.114.4.4,0,0,1-.114-.291" transform="translate(3.069 2.168)" fill="#c6aa76"/>
        </g>
        <g id="Group_153" data-name="Group 153" transform="translate(28.697 94.156)">
          <path id="Path_154" data-name="Path 154" d="M3.678,2.081a1.105,1.105,0,0,1-.855-.368.966.966,0,0,1-.363.277A1.122,1.122,0,0,1,2,2.081H1.59a1.2,1.2,0,0,1-.471-.091.918.918,0,0,1-.372-.277A1.1,1.1,0,0,1-.1,2.081H-.876a1.062,1.062,0,0,1-.855-.368,1.157,1.157,0,0,1-.878.368H-3.29A.161.161,0,0,1-3.4,2.034a.155.155,0,0,1-.05-.114.155.155,0,0,1,.05-.114.155.155,0,0,1,.114-.05h.661a.605.605,0,0,0,.411-.151.488.488,0,0,0,.173-.388V-1.737l.605-.207V1.218a.488.488,0,0,0,.173.388.6.6,0,0,0,.411.151H-.12a.541.541,0,0,0,.38-.151.5.5,0,0,0,.161-.388V-1.747l.648-.207V1.218a.509.509,0,0,0,.157.388.547.547,0,0,0,.394.151h.326a.579.579,0,0,0,.4-.151.5.5,0,0,0,.167-.388V-1.747l.628-.207V1.218a.5.5,0,0,0,.161.388.555.555,0,0,0,.39.151H4.39a.152.152,0,0,1,.114.05.155.155,0,0,1,0,.227.158.158,0,0,1-.114.047Z" transform="translate(3.453 1.954)" fill="#c6aa76"/>
        </g>
        <g id="Group_154" data-name="Group 154" transform="translate(36.38 94.156)">
          <path id="Path_155" data-name="Path 155" d="M3.408,0V2.893a1.078,1.078,0,0,1-.337.807,1.151,1.151,0,0,1-.81.335h-.4a1.105,1.105,0,0,1-.855-.368.946.946,0,0,1-.372.277,1.249,1.249,0,0,1-.471.091h-.8a1.107,1.107,0,0,1-.843-.368,1.1,1.1,0,0,1-.845.368h-.715a.161.161,0,0,1-.114-.047A.161.161,0,0,1-3.2,3.874a.158.158,0,0,1,.047-.114.155.155,0,0,1,.114-.05h.694a.553.553,0,0,0,.388-.149.507.507,0,0,0,.163-.39V.217L-1.158.01V3.172A.524.524,0,0,0-1,3.562a.554.554,0,0,0,.394.149H.131a.6.6,0,0,0,.407-.149.5.5,0,0,0,.167-.39V.207L1.333,0V3.172a.518.518,0,0,0,.159.39.578.578,0,0,0,.4.149h.324a.576.576,0,0,0,.394-.149.5.5,0,0,0,.167-.39V.207Z" transform="translate(3.2)" fill="#c6aa76"/>
        </g>
        <g id="Group_155" data-name="Group 155" transform="translate(43.55 90.65)">
          <path id="Path_156" data-name="Path 156" d="M.977.663H-.917l.066-.14H-.58A.546.546,0,0,1-.81.047a.588.588,0,0,1,.3-.454A1.323,1.323,0,0,1,.273-.622H.5l.043.151H.479a1.426,1.426,0,0,0-.3.033.9.9,0,0,0-.264.1.679.679,0,0,0-.2.155A.328.328,0,0,0-.353.024.414.414,0,0,0-.132.375,1.1,1.1,0,0,0,.479.522h.5Zm.5,5.933a.155.155,0,0,1,.114.05.146.146,0,0,1,.047.112.15.15,0,0,1-.047.114.153.153,0,0,1-.114.047H.76a1.11,1.11,0,0,1-.411-.078,1,1,0,0,1-.335-.227,1.038,1.038,0,0,1-.221-.335,1.02,1.02,0,0,1-.083-.4V1.189l.628-.2v5.06A.527.527,0,0,0,.5,6.432.539.539,0,0,0,.9,6.6Z" transform="translate(0.917 0.622)" fill="#c6aa76"/>
        </g>
        <g id="Group_156" data-name="Group 156" transform="translate(45.778 92.84)">
          <path id="Path_157" data-name="Path 157" d="M0,2.677a.153.153,0,0,1,.047-.112.163.163,0,0,1,.116-.05H.735a.55.55,0,0,0,.4-.163A.529.529,0,0,0,1.3,1.964V-1l.626-.207v3a1,1,0,0,1-.081.4,1.12,1.12,0,0,1-.221.337.994.994,0,0,1-.337.225,1.057,1.057,0,0,1-.411.081H.163A.17.17,0,0,1,.047,2.79.161.161,0,0,1,0,2.677M.3-2.1a.415.415,0,0,1,.116-.3A.382.382,0,0,1,.7-2.513.4.4,0,0,1,1-2.393a.41.41,0,0,1,.12.3A.394.394,0,0,1,1-1.807.4.4,0,0,1,.7-1.693a.384.384,0,0,1-.287-.114A.4.4,0,0,1,.3-2.1m1.051,0a.413.413,0,0,1,.114-.3.383.383,0,0,1,.285-.12.4.4,0,0,1,.293.12.41.41,0,0,1,.12.3.394.394,0,0,1-.12.291.405.405,0,0,1-.293.114.386.386,0,0,1-.285-.114A.4.4,0,0,1,1.353-2.1" transform="translate(0 2.513)" fill="#c6aa76"/>
        </g>
        <g id="Group_157" data-name="Group 157" transform="translate(68.432 37.39)">
          <path id="Path_158" data-name="Path 158" d="M4.732,3.963a6.564,6.564,0,0,1-.194,1.518,7.651,7.651,0,0,1-.6,1.621,8.528,8.528,0,0,1,.582,1.557,6.462,6.462,0,0,1,.215,1.662H-1.378V9.711h.39A4.237,4.237,0,0,0,.42,9.454a4.134,4.134,0,0,0,1.084-.6,4,4,0,0,0,.8-.824,5.81,5.81,0,0,0,.553-.948,12.11,12.11,0,0,0-1.5-2.344A19.836,19.836,0,0,0-.581,2.668,21.461,21.461,0,0,0-2.624.987Q-3.646.253-4.443-.216l.471-.467q.654.347,1.584.966A23.222,23.222,0,0,1-.447,1.752,22.889,22.889,0,0,1,1.546,3.645,15.15,15.15,0,0,1,3.281,5.9a6.556,6.556,0,0,0,.266-1.344c.027-.38.041-.578.041-.591V-.481L4.732-.888ZM-.519-1.294H-4.1l.124-.266h.51a1.026,1.026,0,0,1-.43-.9,1.107,1.107,0,0,1,.572-.855,2.473,2.473,0,0,1,1.472-.409h.43l.081.285h-.122a2.559,2.559,0,0,0-.562.062,1.837,1.837,0,0,0-.5.184,1.2,1.2,0,0,0-.368.3.607.607,0,0,0-.142.4.792.792,0,0,0,.419.663,2.08,2.08,0,0,0,1.154.275h.94ZM3.281,8.1a5.124,5.124,0,0,1-.857.927,4.554,4.554,0,0,1-1.084.684H3.627A6.178,6.178,0,0,0,3.5,8.905c-.06-.266-.132-.533-.215-.805" transform="translate(4.443 3.721)" fill="#c6aa76"/>
        </g>
        <g id="Group_158" data-name="Group 158" transform="translate(1.559 23.679)">
          <path id="Path_159" data-name="Path 159" d="M.365.749a.72.72,0,0,0,.518-.2.676.676,0,0,0,.209-.51A.715.715,0,0,0,.884-.49.7.7,0,0,0,.365-.7.667.667,0,0,0-.143-.49a.733.733,0,0,0-.2.525.693.693,0,0,0,.2.51.683.683,0,0,0,.508.2" transform="translate(0.343 0.703)" fill="#c6aa76"/>
        </g>
        <g id="Group_159" data-name="Group 159" transform="translate(3.417 23.679)">
          <path id="Path_160" data-name="Path 160" d="M.365.749a.72.72,0,0,0,.518-.2.676.676,0,0,0,.209-.51A.715.715,0,0,0,.884-.49.7.7,0,0,0,.365-.7.667.667,0,0,0-.143-.49a.733.733,0,0,0-.2.525.693.693,0,0,0,.2.51.683.683,0,0,0,.508.2" transform="translate(0.343 0.703)" fill="#c6aa76"/>
        </g>
        <g id="Group_160" data-name="Group 160" transform="translate(0.027 25.991)">
          <path id="Path_161" data-name="Path 161" d="M.543,2.931a3.9,3.9,0,0,0,1.264,1.08,3.517,3.517,0,0,0,1.687.4,2.754,2.754,0,0,0,1.282-.3A3.309,3.309,0,0,0,5.791,3.3a2.006,2.006,0,0,0,.729.8,1.876,1.876,0,0,0,1.035.306H9.929a1.5,1.5,0,0,0,.708-.171,2.871,2.871,0,0,0,.595-.421,2.339,2.339,0,0,0,.582.421,1.562,1.562,0,0,0,.719.171h2.528a1.852,1.852,0,0,0,.729-.145,1.739,1.739,0,0,0,.593-.4,1.948,1.948,0,0,0,.394-.591,1.812,1.812,0,0,0,.142-.717V-2.752l-1.111.361V2.863a.939.939,0,0,1-.287.69.967.967,0,0,1-.708.285h-2.03a.964.964,0,0,1-.708-.285.941.941,0,0,1-.289-.69v-5.6l-1.111.343V2.863a.939.939,0,0,1-.287.69.966.966,0,0,1-.706.285H7.612a.888.888,0,0,1-.692-.3,1.007,1.007,0,0,1-.266-.7V-2.6l-1.092.343v.632A3.411,3.411,0,0,0,3.11-2.6H2.363a3.435,3.435,0,0,0-2.127.572A1.916,1.916,0,0,0-.51-.42a6.063,6.063,0,0,0,.268,1.8A4.922,4.922,0,0,0,.543,2.931M.659-1.013a1.642,1.642,0,0,1,.363-.556,1.731,1.731,0,0,1,.411-.277,1.78,1.78,0,0,1,.421-.142,4.732,4.732,0,0,1,.471-.058A3.18,3.18,0,0,1,3.579-1.8a3.305,3.305,0,0,1,1.016.669,3.069,3.069,0,0,1,.679,1,3.115,3.115,0,0,1,.25,1.231c0,.027-.017.182-.05.469a3.844,3.844,0,0,1-.24.938,2.594,2.594,0,0,1-.593.915,1.456,1.456,0,0,1-1.092.411,2.662,2.662,0,0,1-2.078-.983,3.814,3.814,0,0,1-.69-1.289A5.982,5.982,0,0,1,.525-.307a1.808,1.808,0,0,1,.134-.706" transform="translate(0.51 2.752)" fill="#c6aa76"/>
        </g>
        <g id="Group_161" data-name="Group 161" transform="translate(11.977 34.264)">
          <path id="Path_162" data-name="Path 162" d="M.1.11A.73.73,0,0,0-.1.632a.7.7,0,0,0,.2.514.686.686,0,0,0,.508.2.719.719,0,0,0,.516-.2A.687.687,0,0,0,1.339.632.712.712,0,0,0,1.129.11.7.7,0,0,0,.612-.1.664.664,0,0,0,.1.11" transform="translate(0.098 0.103)" fill="#c6aa76"/>
        </g>
        <g id="Group_162" data-name="Group 162" transform="translate(10.119 34.264)">
          <path id="Path_163" data-name="Path 163" d="M.1.11A.73.73,0,0,0-.1.632a.7.7,0,0,0,.2.514.686.686,0,0,0,.508.2.719.719,0,0,0,.516-.2A.687.687,0,0,0,1.339.632.712.712,0,0,0,1.129.11.7.7,0,0,0,.612-.1.664.664,0,0,0,.1.11" transform="translate(0.098 0.103)" fill="#c6aa76"/>
        </g>
        <g id="Group_163" data-name="Group 163" transform="translate(15.521 34.263)">
          <path id="Path_164" data-name="Path 164" d="M.366,0A.667.667,0,0,0-.142.213a.733.733,0,0,0-.2.522.7.7,0,0,0,.2.514.689.689,0,0,0,.508.2.727.727,0,0,0,.518-.2A.685.685,0,0,0,1.093.735.713.713,0,0,0,.885.213.7.7,0,0,0,.366,0" transform="translate(0.344)" fill="#c6aa76"/>
        </g>
        <g id="Group_164" data-name="Group 164" transform="translate(17.861 21.947)">
          <path id="Path_165" data-name="Path 165" d="M.71,7.308A2.735,2.735,0,0,0,1.9,6.267a2.8,2.8,0,0,0,.44-1.52V4.194a1.929,1.929,0,0,0,.748.153H29.242a5.136,5.136,0,0,0,.909-.076,4.209,4.209,0,0,0,.527-.114A4.81,4.81,0,0,0,31.4,4.3a6.654,6.654,0,0,0,.834.047H38.87A1.892,1.892,0,0,0,39.6,4.2a1.715,1.715,0,0,0,.593-.4,1.929,1.929,0,0,0,.392-.591,1.778,1.778,0,0,0,.145-.717V-6.861l-1.111.382V2.8a.938.938,0,0,1-.287.688.967.967,0,0,1-.708.285H33.207c-.219,0-.442,0-.671-.008a4.707,4.707,0,0,1-.671-.066A4.365,4.365,0,0,0,33.5,2.263,3.887,3.887,0,0,0,34.048.107a2.641,2.641,0,0,0-1.033-2.226A4.511,4.511,0,0,0,30.2-2.912a5.162,5.162,0,0,0-1.3.153,4.881,4.881,0,0,0-1.082.411,5.17,5.17,0,0,0-.871.572,6.368,6.368,0,0,0-.69.659A6.576,6.576,0,0,0,25.1.679h.076A.48.48,0,0,0,25.256.67.406.406,0,0,1,25.37.66a3.8,3.8,0,0,1,.576.058,3.369,3.369,0,0,1,.8.237,4.055,4.055,0,0,1,.882.525,4,4,0,0,1,.851.938,8.27,8.27,0,0,0,.489.669,2.889,2.889,0,0,0,.737.63,4.093,4.093,0,0,1-.69.056H3.335a1.035,1.035,0,0,1-.7-.256.814.814,0,0,1-.3-.64V-2.8l-1.111.361V4.958A2.3,2.3,0,0,1,.9,6.133a2.373,2.373,0,0,1-.88.888l-.688.4.266.4ZM29.451,1.92a3.941,3.941,0,0,0-.832-.9A4.188,4.188,0,0,0,27.747.5a4.343,4.343,0,0,0-.766-.258c-.231-.05-.4-.083-.518-.095a4.006,4.006,0,0,1,.595-.909,4.816,4.816,0,0,1,.882-.8,4.542,4.542,0,0,1,1.072-.564A3.418,3.418,0,0,1,30.2-2.34a3.819,3.819,0,0,1,.853.107,2.537,2.537,0,0,1,.88.38,2.336,2.336,0,0,1,.692.746A2.37,2.37,0,0,1,32.9.107a4.362,4.362,0,0,1-.182,1.355,3.24,3.24,0,0,1-.461.927,2.446,2.446,0,0,1-.632.6,7.712,7.712,0,0,1-.7.4A4.494,4.494,0,0,1,29.451,1.92" transform="translate(0.667 6.861)" fill="#c6aa76"/>
        </g>
      </g>
      <g id="Group_166" data-name="Group 166" transform="translate(61.362 21.948)">
        <path id="Path_167" data-name="Path 167" d="M0,.187V11.031H1.111V-.176Z" transform="translate(0 0.176)" fill="#c6aa76"/>
      </g>
      <g id="Group_184" data-name="Group 184" transform="translate(0 0)" clip-path="url(#clip-path)">
        <g id="Group_167" data-name="Group 167" transform="translate(80.392 23.679)">
          <path id="Path_168" data-name="Path 168" d="M.365.749a.72.72,0,0,0,.518-.2.676.676,0,0,0,.209-.51A.715.715,0,0,0,.884-.49.7.7,0,0,0,.365-.7.667.667,0,0,0-.143-.49a.733.733,0,0,0-.2.525.693.693,0,0,0,.2.51.683.683,0,0,0,.508.2" transform="translate(0.343 0.703)" fill="#c6aa76"/>
        </g>
        <g id="Group_168" data-name="Group 168" transform="translate(66.882 25.896)">
          <path id="Path_169" data-name="Path 169" d="M10.247,3.744h1.119A1.9,1.9,0,0,0,12.1,3.6a1.715,1.715,0,0,0,.593-.4,1.929,1.929,0,0,0,.392-.591,1.781,1.781,0,0,0,.145-.719V-3.42l-1.111.363V2.2a.939.939,0,0,1-.287.69.972.972,0,0,1-.708.287H5.174a5.649,5.649,0,0,0,2.239-1.7,4.314,4.314,0,0,0,.824-2.714,4.31,4.31,0,0,0-.076-.82,1.661,1.661,0,0,0-.335-.727,1.814,1.814,0,0,0-.737-.525,3.444,3.444,0,0,0-1.3-.2,6.022,6.022,0,0,0-3.717.983A3.368,3.368,0,0,0,.785.305a2.754,2.754,0,0,0,.479,1.7A4.02,4.02,0,0,0,2.683,3.114l-.258.029c-.072.006-.132.008-.182.008a.665.665,0,0,1-.155.021H-5.14a4.956,4.956,0,0,1-1.551-.211,3.036,3.036,0,0,1-1.035-.556A1.958,1.958,0,0,1-8.3,1.623,2.369,2.369,0,0,1-8.471.745,3.291,3.291,0,0,1-8.08-.888a3.79,3.79,0,0,1,.987-1.156A4.062,4.062,0,0,1-5.8-2.722a4.384,4.384,0,0,1,1.311-.221v-.572a6.6,6.6,0,0,0-2.1.316A4.931,4.931,0,0,0-8.2-2.332,3.882,3.882,0,0,0-9.249-.985,4.037,4.037,0,0,0-9.621.745a2.453,2.453,0,0,0,.316,1.289,2.693,2.693,0,0,0,.8.859A3.876,3.876,0,0,0-7.448,3.4a8.067,8.067,0,0,0,1.055.248,6.916,6.916,0,0,0,.824.085l.353.01h7.5a9.1,9.1,0,0,0,1.648-.153,5.458,5.458,0,0,0,.869.134c.237.012.368.019.394.019h5.055ZM3.7,2.943a2.465,2.465,0,0,1-.948-.613,2.947,2.947,0,0,1-.537-.783A2.731,2.731,0,0,1,1.983.793,4.139,4.139,0,0,1,1.935.248a2.97,2.97,0,0,1,.24-1.165,3.057,3.057,0,0,1,.7-1.022,3.587,3.587,0,0,1,1.111-.727,3.808,3.808,0,0,1,1.5-.277,3.411,3.411,0,0,1,.487.039,1.129,1.129,0,0,1,.527.219,1.389,1.389,0,0,1,.421.553,2.469,2.469,0,0,1,.173,1.022A4.006,4.006,0,0,1,6.79.553,4.064,4.064,0,0,1,5.9,1.776a4.141,4.141,0,0,1-1.082.754A6.129,6.129,0,0,1,3.7,2.943" transform="translate(9.621 3.515)" fill="#c6aa76"/>
        </g>
        <g id="Group_169" data-name="Group 169" transform="translate(84.807 34.263)">
          <path id="Path_170" data-name="Path 170" d="M.632.644A.685.685,0,0,0,.842.132.716.716,0,0,0,.632-.392.7.7,0,0,0,.113-.6a.673.673,0,0,0-.506.213.733.733,0,0,0-.2.525.7.7,0,0,0,.2.512.688.688,0,0,0,.506.2.72.72,0,0,0,.518-.2" transform="translate(0.593 0.605)" fill="#c6aa76"/>
        </g>
        <g id="Group_170" data-name="Group 170" transform="translate(86.662 34.264)">
          <path id="Path_171" data-name="Path 171" d="M.1.11A.73.73,0,0,0-.1.632a.7.7,0,0,0,.2.514.686.686,0,0,0,.508.2.727.727,0,0,0,.518-.2A.693.693,0,0,0,1.339.632.718.718,0,0,0,1.131.11.7.7,0,0,0,.612-.1.664.664,0,0,0,.1.11" transform="translate(0.098 0.103)" fill="#c6aa76"/>
        </g>
        <g id="Group_171" data-name="Group 171" transform="translate(160.246 34.263)">
          <path id="Path_172" data-name="Path 172" d="M.365.749a.727.727,0,0,0,.518-.2A.685.685,0,0,0,1.092.032.713.713,0,0,0,.884-.49.7.7,0,0,0,.365-.7.667.667,0,0,0-.143-.49a.732.732,0,0,0-.2.522.7.7,0,0,0,.2.514.689.689,0,0,0,.508.2" transform="translate(0.343 0.703)" fill="#c6aa76"/>
        </g>
        <g id="Group_172" data-name="Group 172" transform="translate(96.145 23.679)">
          <path id="Path_173" data-name="Path 173" d="M.365.749a.72.72,0,0,0,.518-.2.676.676,0,0,0,.209-.51A.715.715,0,0,0,.884-.49.7.7,0,0,0,.365-.7.667.667,0,0,0-.143-.49a.733.733,0,0,0-.2.525.693.693,0,0,0,.2.51.683.683,0,0,0,.508.2" transform="translate(0.343 0.703)" fill="#c6aa76"/>
        </g>
        <g id="Group_173" data-name="Group 173" transform="translate(91.835 21.947)">
          <path id="Path_174" data-name="Path 174" d="M3.146,5.195a1.778,1.778,0,0,0,.145-.717V-.834L2.18-.47V4.784a.931.931,0,0,1-.287.688.976.976,0,0,1-.708.287H-.846a.97.97,0,0,1-.71-.287.931.931,0,0,1-.287-.688V-4.877l-1.111.363V4.478a1.812,1.812,0,0,0,.142.717,1.948,1.948,0,0,0,.394.591,1.715,1.715,0,0,0,.593.4A1.9,1.9,0,0,0-1.1,6.33H1.432a1.9,1.9,0,0,0,.729-.142,1.715,1.715,0,0,0,.593-.4,1.9,1.9,0,0,0,.392-.591" transform="translate(2.954 4.877)" fill="#c6aa76"/>
        </g>
        <g id="Group_174" data-name="Group 174" transform="translate(103.596 23.679)">
          <path id="Path_175" data-name="Path 175" d="M.365.749a.72.72,0,0,0,.518-.2.676.676,0,0,0,.209-.51A.715.715,0,0,0,.884-.49.7.7,0,0,0,.365-.7.667.667,0,0,0-.143-.49a.733.733,0,0,0-.2.525.693.693,0,0,0,.2.51.683.683,0,0,0,.508.2" transform="translate(0.343 0.703)" fill="#c6aa76"/>
        </g>
        <g id="Group_175" data-name="Group 175" transform="translate(105.455 23.679)">
          <path id="Path_176" data-name="Path 176" d="M.365.749a.72.72,0,0,0,.518-.2.676.676,0,0,0,.209-.51A.715.715,0,0,0,.884-.49.7.7,0,0,0,.365-.7.667.667,0,0,0-.143-.49a.733.733,0,0,0-.2.525.693.693,0,0,0,.2.51.683.683,0,0,0,.508.2" transform="translate(0.343 0.703)" fill="#c6aa76"/>
        </g>
        <g id="Group_176" data-name="Group 176" transform="translate(102.064 25.894)">
          <path id="Path_177" data-name="Path 177" d="M.543,2.981a3.9,3.9,0,0,0,1.264,1.08,3.523,3.523,0,0,0,1.687.4,2.754,2.754,0,0,0,1.282-.3,3.341,3.341,0,0,0,1.016-.812,1.986,1.986,0,0,0,.727.8,1.876,1.876,0,0,0,1.035.306H29.383a5.143,5.143,0,0,0,.911-.076,3.421,3.421,0,0,0,.527-.116,4.132,4.132,0,0,0,.719.145,7.061,7.061,0,0,0,.832.047h7.294a1.938,1.938,0,0,0,1.264-.44,1.98,1.98,0,0,0,.69-1.146,4.133,4.133,0,0,0,1.293,1.156,3.418,3.418,0,0,0,1.714.43,3.382,3.382,0,0,0,1.264-.229,2.853,2.853,0,0,0,1-.659,3.063,3.063,0,0,0,.661-1.041,3.784,3.784,0,0,0,.24-1.4,3.479,3.479,0,0,0-1.043-2.8A4.936,4.936,0,0,0,43.5-2.549a4.026,4.026,0,0,0-1.821.361v-.361L40.6-2.225V2.895a.95.95,0,0,1-.3.7.934.934,0,0,1-.679.3H33.348c-.217,0-.44,0-.671-.008a4.424,4.424,0,0,1-.669-.068A4.375,4.375,0,0,0,33.645,2.38,3.906,3.906,0,0,0,34.192.22a2.648,2.648,0,0,0-1.035-2.226A4.524,4.524,0,0,0,30.341-2.8a5.328,5.328,0,0,0-1.3.153,5.01,5.01,0,0,0-1.082.411,5.24,5.24,0,0,0-.874.574,6.183,6.183,0,0,0-.69.659A6.6,6.6,0,0,0,25.246.792h.076A.321.321,0,0,0,25.4.784a.512.512,0,0,1,.116-.01,3.775,3.775,0,0,1,.574.058,3.558,3.558,0,0,1,.8.24,4.139,4.139,0,0,1,.882.525,4,4,0,0,1,.851.938,7.783,7.783,0,0,0,.489.667,2.935,2.935,0,0,0,.737.632,4.111,4.111,0,0,1-.69.056H7.612a.888.888,0,0,1-.692-.3,1.007,1.007,0,0,1-.266-.7V-2.549l-1.092.343v.632A3.408,3.408,0,0,0,3.11-2.549H2.363a3.439,3.439,0,0,0-2.127.572A1.916,1.916,0,0,0-.51-.37a6.063,6.063,0,0,0,.268,1.8A4.922,4.922,0,0,0,.543,2.981M41.779-.963a1.237,1.237,0,0,1,.374-.556,1.742,1.742,0,0,1,.413-.277,1.809,1.809,0,0,1,.411-.142,2.76,2.76,0,0,1,.326-.047L43.456-2q3.2,0,3.2,3.056a5.722,5.722,0,0,1-.076.737,4.915,4.915,0,0,1-.182.677,2.722,2.722,0,0,1-.345.677,1.838,1.838,0,0,1-.566.525,1.526,1.526,0,0,1-.822.211,2.658,2.658,0,0,1-1.092-.237,2.636,2.636,0,0,1-.958-.746,3.876,3.876,0,0,1-.679-1.289,5.979,5.979,0,0,1-.26-1.873,2.344,2.344,0,0,1,.105-.706m-12.186,3a3.9,3.9,0,0,0-.832-.9,4.188,4.188,0,0,0-.871-.525,4.288,4.288,0,0,0-.766-.258,5.049,5.049,0,0,0-.516-.095A3.94,3.94,0,0,1,27.2-.647a4.82,4.82,0,0,1,.882-.8,4.583,4.583,0,0,1,1.072-.564,3.435,3.435,0,0,1,1.187-.211,3.946,3.946,0,0,1,.853.105,2.609,2.609,0,0,1,.882.382,2.261,2.261,0,0,1,.688.746A2.346,2.346,0,0,1,33.042.22a4.376,4.376,0,0,1-.182,1.357A3.214,3.214,0,0,1,32.4,2.5a2.414,2.414,0,0,1-.632.6,6.779,6.779,0,0,1-.7.4,4.521,4.521,0,0,1-1.474-1.47M.659-.963a1.674,1.674,0,0,1,.363-.556A1.731,1.731,0,0,1,1.433-1.8a1.794,1.794,0,0,1,.423-.142A4.684,4.684,0,0,1,2.325-2a3.173,3.173,0,0,1,1.254.248,3.281,3.281,0,0,1,1.016.669,3.069,3.069,0,0,1,.679,1,3.115,3.115,0,0,1,.25,1.231c0,.027-.017.182-.047.469a3.952,3.952,0,0,1-.242.938,2.594,2.594,0,0,1-.593.915,1.456,1.456,0,0,1-1.092.411A2.662,2.662,0,0,1,1.473,2.9a3.814,3.814,0,0,1-.69-1.289A6.043,6.043,0,0,1,.525-.257,1.808,1.808,0,0,1,.659-.963" transform="translate(0.51 2.799)" fill="#c6aa76"/>
        </g>
        <g id="Group_177" data-name="Group 177" transform="translate(152.466 21.948)">
          <path id="Path_178" data-name="Path 178" d="M6.925,5.484A1.388,1.388,0,0,1,5.841,5a5.271,5.271,0,0,1-.774-1.214q-.344-.725-.7-1.586A8.13,8.13,0,0,0,3.506.613,4.658,4.658,0,0,0,2.271-.6,3.243,3.243,0,0,0,.433-1.087,3.8,3.8,0,0,0-1-.81,3.614,3.614,0,0,0-2.231,0L-2.326.1l.632.63.1-.132A2.674,2.674,0,0,1-.678-.228,2.314,2.314,0,0,1,.433-.515,1.949,1.949,0,0,1,1.591-.18,3.135,3.135,0,0,1,2.4.689a7.912,7.912,0,0,1,.622,1.2c.186.438.378.882.576,1.326a11.368,11.368,0,0,0,.661,1.272,3.628,3.628,0,0,0,.88,1H-4.4A.964.964,0,0,1-5.1,5.2a.939.939,0,0,1-.287-.69V-5.149L-6.5-4.786V4.2a1.8,1.8,0,0,0,.142.717,1.99,1.99,0,0,0,.392.593,1.768,1.768,0,0,0,.595.4,1.852,1.852,0,0,0,.729.145h12.3V5.484Z" transform="translate(6.502 5.149)" fill="#c6aa76"/>
        </g>
        <g id="Group_178" data-name="Group 178" transform="translate(3.415 41.947)">
          <path id="Path_179" data-name="Path 179" d="M.1.11A.733.733,0,0,0-.1.632a.7.7,0,0,0,.2.514.689.689,0,0,0,.508.2.727.727,0,0,0,.518-.2A.693.693,0,0,0,1.339.632.721.721,0,0,0,1.131.11.7.7,0,0,0,.612-.1.667.667,0,0,0,.1.11" transform="translate(0.098 0.103)" fill="#c6aa76"/>
        </g>
        <g id="Group_179" data-name="Group 179" transform="translate(1.558 41.947)">
          <path id="Path_180" data-name="Path 180" d="M.1.11A.733.733,0,0,0-.1.632a.7.7,0,0,0,.2.514.686.686,0,0,0,.508.2.719.719,0,0,0,.516-.2A.687.687,0,0,0,1.339.632.715.715,0,0,0,1.129.11.7.7,0,0,0,.612-.1.664.664,0,0,0,.1.11" transform="translate(0.098 0.103)" fill="#c6aa76"/>
        </g>
        <g id="Group_180" data-name="Group 180" transform="translate(45.825 52.531)">
          <path id="Path_181" data-name="Path 181" d="M.365,0A.667.667,0,0,0-.143.213a.732.732,0,0,0-.2.522.7.7,0,0,0,.2.514.689.689,0,0,0,.508.2.727.727,0,0,0,.518-.2A.685.685,0,0,0,1.092.735.713.713,0,0,0,.884.213.7.7,0,0,0,.365,0" transform="translate(0.343)" fill="#c6aa76"/>
        </g>
        <g id="Group_181" data-name="Group 181" transform="translate(43.966 52.531)">
          <path id="Path_182" data-name="Path 182" d="M.365,0A.667.667,0,0,0-.143.213a.732.732,0,0,0-.2.522.7.7,0,0,0,.2.514.689.689,0,0,0,.508.2.724.724,0,0,0,.518-.2A.685.685,0,0,0,1.092.735.713.713,0,0,0,.884.213.7.7,0,0,0,.365,0" transform="translate(0.343)" fill="#c6aa76"/>
        </g>
        <g id="Group_182" data-name="Group 182" transform="translate(52.751 41.947)">
          <path id="Path_183" data-name="Path 183" d="M.1.11A.732.732,0,0,0-.1.632a.7.7,0,0,0,.2.514.689.689,0,0,0,.508.2.724.724,0,0,0,.518-.2A.685.685,0,0,0,1.338.632.713.713,0,0,0,1.13.11.7.7,0,0,0,.611-.1.667.667,0,0,0,.1.11" transform="translate(0.097 0.103)" fill="#c6aa76"/>
        </g>
        <g id="Group_183" data-name="Group 183" transform="translate(0.026 44.279)">
          <path id="Path_184" data-name="Path 184" d="M33.271.068a3.988,3.988,0,0,0-1.819.363V.068L30.378.392V5.514a.947.947,0,0,1-.3.7.934.934,0,0,1-.679.3H23.749a.969.969,0,0,1-.71-.285.942.942,0,0,1-.287-.688v-5.6L21.64.279V5.532a.934.934,0,0,1-.287.688.967.967,0,0,1-.708.285H15.9a.97.97,0,0,1-.708-.285.942.942,0,0,1-.287-.688v-5.6L13.8.279V5.532a.936.936,0,0,1-.289.688.967.967,0,0,1-.708.285H-23.115a.883.883,0,0,1-.69-.3,1.007,1.007,0,0,1-.268-.7V.068l-1.09.343v.632A3.415,3.415,0,0,0-27.615.068h-.75A3.446,3.446,0,0,0-30.489.64a1.912,1.912,0,0,0-.748,1.607,6.064,6.064,0,0,0,.268,1.8A4.944,4.944,0,0,0-30.184,5.6a3.907,3.907,0,0,0,1.266,1.08,3.515,3.515,0,0,0,1.685.4,2.773,2.773,0,0,0,1.282-.3,3.379,3.379,0,0,0,1.016-.812,2,2,0,0,0,.727.8,1.886,1.886,0,0,0,1.035.306H13.049a1.514,1.514,0,0,0,.708-.171,2.731,2.731,0,0,0,.593-.421,2.3,2.3,0,0,0,.584.421,1.562,1.562,0,0,0,.719.171h5.241a1.514,1.514,0,0,0,.708-.171,2.8,2.8,0,0,0,.595-.421,2.288,2.288,0,0,0,.582.421,1.562,1.562,0,0,0,.719.171H29.44a1.92,1.92,0,0,0,1.264-.44,1.975,1.975,0,0,0,.69-1.144A4.149,4.149,0,0,0,32.687,6.65a3.62,3.62,0,0,0,2.978.2,2.87,2.87,0,0,0,1-.659,3.094,3.094,0,0,0,.661-1.041,3.819,3.819,0,0,0,.24-1.4,3.48,3.48,0,0,0-1.045-2.8A4.936,4.936,0,0,0,33.271.068M-25.25,4.242a3.916,3.916,0,0,1-.24.938,2.655,2.655,0,0,1-.595.917,1.461,1.461,0,0,1-1.09.409,2.717,2.717,0,0,1-1.113-.237,2.75,2.75,0,0,1-.966-.746,3.814,3.814,0,0,1-.69-1.289A6.034,6.034,0,0,1-30.2,2.36a1.846,1.846,0,0,1,.134-.706A1.664,1.664,0,0,1-29.7,1.1a1.794,1.794,0,0,1,.413-.279A1.879,1.879,0,0,1-28.87.679c.134-.025.291-.043.469-.058a3.227,3.227,0,0,1,1.256.248,3.333,3.333,0,0,1,1.014.669,3.069,3.069,0,0,1,.679,1,3.079,3.079,0,0,1,.25,1.231c0,.027-.017.184-.047.469m61.6.173a4.639,4.639,0,0,1-.182.677,2.735,2.735,0,0,1-.345.679,1.881,1.881,0,0,1-.564.525,1.551,1.551,0,0,1-.824.209,2.666,2.666,0,0,1-1.092-.237,2.613,2.613,0,0,1-.956-.746,3.879,3.879,0,0,1-.681-1.289,5.973,5.973,0,0,1-.258-1.873,2.281,2.281,0,0,1,.105-.706,1.183,1.183,0,0,1,.374-.553,1.783,1.783,0,0,1,.411-.279,1.955,1.955,0,0,1,.411-.142,2.822,2.822,0,0,1,.326-.047l.155-.01q3.2,0,3.2,3.056a5.694,5.694,0,0,1-.078.737" transform="translate(31.237 0.064)" fill="#c6aa76"/>
        </g>
      </g>
      <g id="Group_185" data-name="Group 185" transform="translate(79.719 40.214)">
        <path id="Path_186" data-name="Path 186" d="M0,.187V11.031H1.111V-.176Z" transform="translate(0 0.176)" fill="#c6aa76"/>
      </g>
      <g id="Group_188" data-name="Group 188" transform="translate(0 0)" clip-path="url(#clip-path)">
        <g id="Group_186" data-name="Group 186" transform="translate(85.147 44.411)">
          <path id="Path_187" data-name="Path 187" d="M3.259,0A3.663,3.663,0,0,0,1.316.448,1.986,1.986,0,0,0,.405,1.739l-.171.785a.562.562,0,0,1-.326.4,3.073,3.073,0,0,1-.632.229c-.244.064-.5.128-.776.192a2.56,2.56,0,0,0-.756.306,1.786,1.786,0,0,0-.574.572,1.854,1.854,0,0,0-.229,1v5.157l1.09-.343V4.719A.593.593,0,0,1-1.7,4.194a1.9,1.9,0,0,1,.622-.268,4.713,4.713,0,0,1,.71-.116,3.271,3.271,0,0,0,.506-.066c.064-.012.132-.029.2-.047a.746.746,0,0,0,.2-.087,5.469,5.469,0,0,0,.508,1.367,4.159,4.159,0,0,0,.824,1.078A3.429,3.429,0,0,0,3,6.763a3.935,3.935,0,0,0,1.427.248,3.28,3.28,0,0,0,1.227-.229,2.765,2.765,0,0,0,.985-.659,3.175,3.175,0,0,0,.653-1.041,3.819,3.819,0,0,0,.24-1.4A3.5,3.5,0,0,0,6.5.888,4.9,4.9,0,0,0,3.259,0m3.1,4.347a4.915,4.915,0,0,1-.182.677,2.635,2.635,0,0,1-.355.679,2.041,2.041,0,0,1-.564.525,1.5,1.5,0,0,1-.814.209A2.694,2.694,0,0,1,3.338,6.2a2.619,2.619,0,0,1-.958-.746A3.879,3.879,0,0,1,1.7,4.165,6.034,6.034,0,0,1,1.44,2.292a1.63,1.63,0,0,1,.518-1.27A1.814,1.814,0,0,1,3.222.553q3.234,0,3.236,3.056c-.027.281-.058.527-.095.737" transform="translate(3.06)" fill="#c6aa76"/>
        </g>
        <g id="Group_187" data-name="Group 187" transform="translate(97.462 40.216)">
          <path id="Path_188" data-name="Path 188" d="M35.1,4.982a.939.939,0,0,1-.287.688.965.965,0,0,1-.71.287h-2.03a.961.961,0,0,1-.708-.287.939.939,0,0,1-.287-.688V-4.677l-1.111.382V4.982a.931.931,0,0,1-.287.688.961.961,0,0,1-.708.287H23.557c-.217,0-.44,0-.669-.01a4.177,4.177,0,0,1-.671-.066,4.377,4.377,0,0,0,1.638-1.433A3.9,3.9,0,0,0,24.4,2.289,2.637,2.637,0,0,0,23.365.062,4.513,4.513,0,0,0,20.55-.731a5.258,5.258,0,0,0-1.3.153,5.052,5.052,0,0,0-1.082.411,5.3,5.3,0,0,0-.871.572,6.382,6.382,0,0,0-.69.661,6.517,6.517,0,0,0-1.148,1.795h.076a.332.332,0,0,0,.076-.008.5.5,0,0,1,.114-.01A3.822,3.822,0,0,1,16.3,2.9a3.5,3.5,0,0,1,.8.237,4.142,4.142,0,0,1,.88.527,3.992,3.992,0,0,1,.853.935,7.8,7.8,0,0,0,.489.669,2.889,2.889,0,0,0,.737.63,3.885,3.885,0,0,1-.69.058H-21a.965.965,0,0,1-.71-.287A.929.929,0,0,1-22,4.982V-4.677l-1.111.382V4.982a.939.939,0,0,1-.287.688.969.969,0,0,1-.71.287h-3.025V-.481H-28.74a3.849,3.849,0,0,0-1.592.343,4.306,4.306,0,0,0-1.349.946,4.574,4.574,0,0,0-.929,1.4,4.328,4.328,0,0,0-.345,1.739A2.881,2.881,0,0,0-32.7,5.258a1.84,1.84,0,0,0,.785.793,3.645,3.645,0,0,0,1.324.382,16,16,0,0,0,1.888.095h.5v.516a2.232,2.232,0,0,1-.335,1.206,2.184,2.184,0,0,1-.853.8l-.688.438.268.4,1.09-.5a2.955,2.955,0,0,0,1.159-1.078,3.226,3.226,0,0,0,.432-1.731V6.528h3.275a1.47,1.47,0,0,0,.706-.171,2.735,2.735,0,0,0,.595-.419,2.33,2.33,0,0,0,.584.419,1.537,1.537,0,0,0,.719.171H19.592a5.143,5.143,0,0,0,.911-.076,3.7,3.7,0,0,0,.525-.114,4.365,4.365,0,0,0,.721.142,6.644,6.644,0,0,0,.832.047h6.639a1.492,1.492,0,0,0,.71-.171,2.773,2.773,0,0,0,.593-.419,2.293,2.293,0,0,0,.584.419,1.537,1.537,0,0,0,.719.171h2.528a1.885,1.885,0,0,0,.727-.142,1.747,1.747,0,0,0,.595-.4,1.951,1.951,0,0,0,.392-.593,1.806,1.806,0,0,0,.145-.717V-4.677L35.1-4.295Zm-63.306.975h-1.072c-.244,0-.514-.01-.814-.029a2.284,2.284,0,0,1-.853-.219,1.651,1.651,0,0,1-.671-.6,2.125,2.125,0,0,1-.266-1.156A4.346,4.346,0,0,1-31.6,2.375a3.983,3.983,0,0,1,.729-1.225A3.435,3.435,0,0,1-29.861.358,2.482,2.482,0,0,1-28.74.073h.535Zm49.482-.382A4.5,4.5,0,0,1,19.8,4.1a3.944,3.944,0,0,0-.832-.9,4.207,4.207,0,0,0-1.64-.783c-.229-.052-.4-.083-.516-.1a3.972,3.972,0,0,1,.595-.907,4.813,4.813,0,0,1,.88-.8A4.589,4.589,0,0,1,19.363.054,3.418,3.418,0,0,1,20.55-.156a3.931,3.931,0,0,1,.853.105,2.542,2.542,0,0,1,.88.382,2.3,2.3,0,0,1,.69.743,2.38,2.38,0,0,1,.279,1.214,4.353,4.353,0,0,1-.182,1.355,3.227,3.227,0,0,1-.461.929,2.479,2.479,0,0,1-.632.6,7.433,7.433,0,0,1-.7.4" transform="translate(32.955 4.677)" fill="#c6aa76"/>
        </g>
      </g>
      <g id="Group_189" data-name="Group 189" transform="translate(0.027 58.394)">
        <path id="Path_190" data-name="Path 190" d="M4.167,0V9.421L-2.673,0H-3.912V11.22H-2.7V1.8L4.121,11.22H5.383V0Z" transform="translate(3.912)" fill="#c6aa76"/>
      </g>
      <g id="Group_190" data-name="Group 190" transform="translate(10.842 58.394)">
        <path id="Path_191" data-name="Path 191" d="M5.387,5.787H4.13L2.868,2.646H-2.5L-3.819,5.787H-5.058L-.325-5.433H.848ZM.241-3.938l-2.5,5.976H2.628Z" transform="translate(5.058 5.433)" fill="#c6aa76"/>
      </g>
      <path id="Path_192" data-name="Path 192" d="M11.044-13.632h1.239v-11.22H11.044Z" transform="translate(11.763 83.247)" fill="#c6aa76"/>
      <g id="Group_191" data-name="Group 191" transform="translate(27.022 58.393)">
        <path id="Path_193" data-name="Path 193" d="M3.562.313H-2.107v4.4H3.169v.607H-2.107v5.609H-3.344V-.294H3.562Z" transform="translate(3.344 0.294)" fill="#c6aa76"/>
      </g>
      <g id="Group_192" data-name="Group 192" transform="translate(37.792 58.394)">
        <path id="Path_194" data-name="Path 194" d="M5.387,5.787H4.13L2.868,2.646H-2.5L-3.819,5.787H-5.058L-.325-5.433H.848ZM.241-3.938l-2.5,5.976H2.628Z" transform="translate(5.058 5.433)" fill="#c6aa76"/>
      </g>
      <g id="Group_194" data-name="Group 194" transform="translate(0 0)" clip-path="url(#clip-path)">
        <g id="Group_193" data-name="Group 193" transform="translate(49.759 58.395)">
          <path id="Path_195" data-name="Path 195" d="M3.775,5.775H2.492L-.787.187H-2.328V5.8H-3.544V-5.422H.016c.014,0,.105.006.271.021s.382.047.642.1a4.5,4.5,0,0,1,.834.26,3.213,3.213,0,0,1,.826.5,2.484,2.484,0,0,1,.63.8,2.6,2.6,0,0,1,.25,1.2A2.492,2.492,0,0,1,2.7-.6,3.385,3.385,0,0,1,.5.166Zm-6.1-6.193h2.04A2.9,2.9,0,0,0,1.656-.961a1.985,1.985,0,0,0,.62-1.582A2.026,2.026,0,0,0,1.516-4.2,2.873,2.873,0,0,0-.353-4.815H-2.328Z" transform="translate(3.544 5.422)" fill="#c6aa76"/>
        </g>
      </g>
      <g id="Group_195" data-name="Group 195" transform="translate(57.597 58.394)">
        <path id="Path_197" data-name="Path 197" d="M5.388,5.787H4.129L2.869,2.646H-2.5L-3.82,5.787H-5.059L-.324-5.433H.849ZM.242-3.938l-2.5,5.976H2.629Z" transform="translate(5.059 5.433)" fill="#c6aa76"/>
      </g>
      <g id="Group_198" data-name="Group 198" transform="translate(0 0)" clip-path="url(#clip-path)">
        <g id="Group_196" data-name="Group 196" transform="translate(69.563 58.393)">
          <path id="Path_198" data-name="Path 198" d="M2.722,2.715A3.4,3.4,0,0,1,4.339,3.7,2.7,2.7,0,0,1,4.982,5.6,2.932,2.932,0,0,1,4.633,7.1a2.728,2.728,0,0,1-.89.942,3.623,3.623,0,0,1-1.171.487,5.486,5.486,0,0,1-1.175.14H-2.556V-2.549H1.029a6.163,6.163,0,0,1,1.27.13,3.106,3.106,0,0,1,1.107.456,2.42,2.42,0,0,1,.783.845,2.6,2.6,0,0,1,.293,1.3,2.592,2.592,0,0,1-.5,1.625,2.655,2.655,0,0,1-1.26.909M.507,2.434A3.805,3.805,0,0,0,1.485,2.3a3.017,3.017,0,0,0,.9-.388,2.028,2.028,0,0,0,.651-.673,1.87,1.87,0,0,0,.252-1,1.91,1.91,0,0,0-.24-.975,2.138,2.138,0,0,0-.63-.681,2.757,2.757,0,0,0-.913-.4A4.459,4.459,0,0,0,.42-1.942H-1.34V2.434ZM-1.34,8.022H.723a5.053,5.053,0,0,0,1.216-.14,2.815,2.815,0,0,0,.969-.434,2.2,2.2,0,0,0,.638-.737,2.21,2.21,0,0,0,.24-1.072A2.254,2.254,0,0,0,3.546,4.6a2.649,2.649,0,0,0-.638-.824,3,3,0,0,0-.925-.541A3.072,3.072,0,0,0,.9,3.039H-1.34Z" transform="translate(2.556 2.549)" fill="#c6aa76"/>
        </g>
        <g id="Group_197" data-name="Group 197" transform="translate(82.422 58.393)">
          <path id="Path_199" data-name="Path 199" d="M4.614,3.586a5.353,5.353,0,0,1-.26,1.776A4.187,4.187,0,0,1,3.691,6.6a3.282,3.282,0,0,1-.911.791,5.038,5.038,0,0,1-1.012.444,4.862,4.862,0,0,1-.933.194,6.726,6.726,0,0,1-.694.043,6.727,6.727,0,0,1-.7-.043,4.862,4.862,0,0,1-.933-.194A4.924,4.924,0,0,1-2.5,7.388,3.261,3.261,0,0,1-3.411,6.6a4.187,4.187,0,0,1-.663-1.235,5.357,5.357,0,0,1-.258-1.776V-3.367h1.237V3.52a4.482,4.482,0,0,0,.834,2.947,2.962,2.962,0,0,0,2.4,1,2.948,2.948,0,0,0,2.4-1.008A4.5,4.5,0,0,0,3.377,3.52V-3.367H4.614Z" transform="translate(4.332 3.367)" fill="#c6aa76"/>
        </g>
      </g>
      <g id="Group_199" data-name="Group 199" transform="translate(94.321 58.394)">
        <path id="Path_201" data-name="Path 201" d="M4.794,5.787H3.534L-3.285-3.636V5.787H-4.5V-5.433h1.239l6.84,9.421V-5.433H4.794Z" transform="translate(4.501 5.433)" fill="#c6aa76"/>
      </g>
      <path id="Path_202" data-name="Path 202" d="M51.615-13.632h1.237v-11.22H51.615Z" transform="translate(54.976 83.247)" fill="#c6aa76"/>
      <g id="Group_200" data-name="Group 200" transform="translate(109.348 58.394)">
        <path id="Path_203" data-name="Path 203" d="M2.767,5.787H1.507L-2.6-5.433h1.26L2.137,4.12l3.54-9.553h1.26Z" transform="translate(2.598 5.433)" fill="#c6aa76"/>
      </g>
      <g id="Group_201" data-name="Group 201" transform="translate(120.383 58.393)">
        <path id="Path_204" data-name="Path 204" d="M3.751,5.452V6.1H-3.522V-5.119H3.512v.607h-5.8v4.4h5.47V.492h-5.47v4.96Z" transform="translate(3.522 5.119)" fill="#c6aa76"/>
      </g>
      <g id="Group_204" data-name="Group 204" transform="translate(0 0)" clip-path="url(#clip-path)">
        <g id="Group_202" data-name="Group 202" transform="translate(129.936 58.395)">
          <path id="Path_205" data-name="Path 205" d="M3.775,5.775H2.494L-.787.187H-2.328V5.8H-3.544V-5.422H.018c.012,0,.105.006.271.021s.38.047.64.1a4.518,4.518,0,0,1,.836.26,3.284,3.284,0,0,1,.826.5,2.541,2.541,0,0,1,.63.8,2.626,2.626,0,0,1,.248,1.2A2.484,2.484,0,0,1,2.7-.6,3.385,3.385,0,0,1,.5.166Zm-6.1-6.193h2.04A2.906,2.906,0,0,0,1.658-.961a1.991,1.991,0,0,0,.617-1.582A2.02,2.02,0,0,0,1.516-4.2,2.863,2.863,0,0,0-.351-4.815H-2.328Z" transform="translate(3.544 5.422)" fill="#c6aa76"/>
        </g>
        <g id="Group_203" data-name="Group 203" transform="translate(138.166 58.112)">
          <path id="Path_206" data-name="Path 206" d="M2.1,2.67a8.457,8.457,0,0,1,1.26.607,4.658,4.658,0,0,1,1.01.791,3.483,3.483,0,0,1,.661.973A2.773,2.773,0,0,1,5.265,6.2a2.7,2.7,0,0,1-.184.886,2.9,2.9,0,0,1-.609.985,3.555,3.555,0,0,1-1.128.8,4.135,4.135,0,0,1-1.772.335,6.582,6.582,0,0,1-.857-.064,5.387,5.387,0,0,1-.977-.227,6.56,6.56,0,0,1-.946-.4,2.456,2.456,0,0,1-.76-.607l1.043-.454.273.26a3.76,3.76,0,0,0,.531.4,3.624,3.624,0,0,0,.762.355,2.887,2.887,0,0,0,.977.153,2.311,2.311,0,0,0,1.128-.25,2.293,2.293,0,0,0,.739-.615A2.524,2.524,0,0,0,3.9,6.97a2.636,2.636,0,0,0,.13-.768A2.034,2.034,0,0,0,3.518,5a4.383,4.383,0,0,0-1.9-1.2C1.312,3.68.963,3.529.565,3.341a6.082,6.082,0,0,1-1.13-.694,3.966,3.966,0,0,1-.89-.952A2.183,2.183,0,0,1-1.814.461,2.342,2.342,0,0,1-1.531-.655,3.127,3.127,0,0,1-.751-1.6,4.118,4.118,0,0,1,.412-2.259a4.025,4.025,0,0,1,1.423-.248,4.992,4.992,0,0,1,1.183.13,4.959,4.959,0,0,1,.923.314,3.333,3.333,0,0,1,.663.4,2.339,2.339,0,0,1,.4.39L3.962-.838c-.029-.029-.093-.1-.194-.217a2.769,2.769,0,0,0-.423-.37,3.383,3.383,0,0,0-.64-.347,2.2,2.2,0,0,0-.826-.151,2.646,2.646,0,0,0-1.119.217,2.439,2.439,0,0,0-.77.541A2.114,2.114,0,0,0-.457-.45,2.206,2.206,0,0,0-.6.308,1.548,1.548,0,0,0-.49.851a1.619,1.619,0,0,0,.415.572,4.585,4.585,0,0,0,.824.607A8.95,8.95,0,0,0,2.1,2.67" transform="translate(1.967 2.507)" fill="#c6aa76"/>
        </g>
      </g>
      <path id="Path_208" data-name="Path 208" d="M71.344-13.632h1.237v-11.22H71.344Z" transform="translate(75.99 83.247)" fill="#c6aa76"/>
      <g id="Group_205" data-name="Group 205" transform="translate(149.872 58.394)">
        <path id="Path_209" data-name="Path 209" d="M4.335.346H.752V10.895H-.487V.346H-4.07V-.325H4.335Z" transform="translate(4.07 0.325)" fill="#c6aa76"/>
      </g>
      <g id="Group_206" data-name="Group 206" transform="translate(158.082 58.393)">
        <path id="Path_210" data-name="Path 210" d="M2.565,3.262V8.157H1.371V3.262L-2.408-3.063h1.324L1.978,2.114,5.02-3.063h1.3Z" transform="translate(2.408 3.063)" fill="#c6aa76"/>
      </g>
      <g id="Group_207" data-name="Group 207" transform="translate(0.028 76.569)">
        <path id="Path_211" data-name="Path 211" d="M0,0V11.22H1.235V5.611H6.513V5.006H1.235V.607H6.9V0Z" fill="#c6aa76"/>
      </g>
      <g id="Group_211" data-name="Group 211" transform="translate(0 0)" clip-path="url(#clip-path)">
        <g id="Group_208" data-name="Group 208" transform="translate(7.475 76.289)">
          <path id="Path_212" data-name="Path 212" d="M3.036,0A5.859,5.859,0,0,1,5.328.454,5.745,5.745,0,0,1,7.195,1.712a6.079,6.079,0,0,1,1.26,1.863,5.563,5.563,0,0,1,.467,2.272,5.652,5.652,0,0,1-.467,2.286,5.887,5.887,0,0,1-3.127,3.12,5.722,5.722,0,0,1-2.292.465,5.712,5.712,0,0,1-2.29-.465A6.01,6.01,0,0,1-1.124,10,5.962,5.962,0,0,1-2.381,8.132,5.619,5.619,0,0,1-2.85,5.846a5.53,5.53,0,0,1,.469-2.272A6.073,6.073,0,0,1-1.124,1.712,5.776,5.776,0,0,1,.745.454,5.849,5.849,0,0,1,3.036,0M7.7,5.869a5.594,5.594,0,0,0-.368-2.036,5.415,5.415,0,0,0-1-1.656A4.785,4.785,0,0,0,4.861,1.061,4.122,4.122,0,0,0,3.036.648a4.077,4.077,0,0,0-1.8.413A4.761,4.761,0,0,0-.244,2.177a5.37,5.37,0,0,0-1,1.656,5.553,5.553,0,0,0-.37,2.036,5.545,5.545,0,0,0,.37,2.036,5.472,5.472,0,0,0,1,1.667A4.615,4.615,0,0,0,1.233,10.7a4.077,4.077,0,0,0,1.8.413A4.122,4.122,0,0,0,4.861,10.7,4.638,4.638,0,0,0,6.338,9.572a5.518,5.518,0,0,0,1-1.667A5.587,5.587,0,0,0,7.7,5.869" transform="translate(2.85)" fill="#c6aa76"/>
        </g>
        <g id="Group_209" data-name="Group 209" transform="translate(20.701 76.571)">
          <path id="Path_213" data-name="Path 213" d="M3.775,5.775H2.494L-.787.187H-2.328V5.8H-3.544V-5.422H.018c.012,0,.105.006.271.021s.38.047.64.1a4.367,4.367,0,0,1,.836.26,3.284,3.284,0,0,1,.826.5,2.541,2.541,0,0,1,.63.8,2.626,2.626,0,0,1,.248,1.2A2.484,2.484,0,0,1,2.7-.6,3.384,3.384,0,0,1,.5.164Zm-6.1-6.193h2.04A2.906,2.906,0,0,0,1.658-.961a1.994,1.994,0,0,0,.617-1.582A2.02,2.02,0,0,0,1.516-4.2,2.865,2.865,0,0,0-.351-4.817H-2.328Z" transform="translate(3.544 5.422)" fill="#c6aa76"/>
        </g>
        <g id="Group_210" data-name="Group 210" transform="translate(32.371 76.289)">
          <path id="Path_214" data-name="Path 214" d="M2.1,2.67a8.658,8.658,0,0,1,1.26.605,4.722,4.722,0,0,1,1.01.791,3.522,3.522,0,0,1,.661.975A2.773,2.773,0,0,1,5.265,6.2a2.7,2.7,0,0,1-.184.886,2.9,2.9,0,0,1-.609.985,3.555,3.555,0,0,1-1.128.8,4.135,4.135,0,0,1-1.772.335,6.582,6.582,0,0,1-.857-.064,5.387,5.387,0,0,1-.977-.227,6.56,6.56,0,0,1-.946-.4,2.456,2.456,0,0,1-.76-.607l1.043-.454.273.26a3.76,3.76,0,0,0,.531.4,3.624,3.624,0,0,0,.762.355,2.883,2.883,0,0,0,.975.153,2.314,2.314,0,0,0,1.13-.25,2.273,2.273,0,0,0,.739-.617A2.492,2.492,0,0,0,3.9,6.97a2.647,2.647,0,0,0,.13-.768A2.048,2.048,0,0,0,3.518,5a4.4,4.4,0,0,0-1.9-1.2c-.3-.116-.653-.266-1.051-.454a6.015,6.015,0,0,1-1.13-.694A3.935,3.935,0,0,1-1.457,1.7,2.2,2.2,0,0,1-1.814.461,2.319,2.319,0,0,1-1.531-.655,3.127,3.127,0,0,1-.751-1.6,4.069,4.069,0,0,1,.412-2.259a4.025,4.025,0,0,1,1.423-.248,4.992,4.992,0,0,1,1.183.13,4.959,4.959,0,0,1,.923.314,3.333,3.333,0,0,1,.663.4,2.339,2.339,0,0,1,.4.39L3.962-.838c-.029-.029-.093-.1-.194-.219a2.887,2.887,0,0,0-.423-.368,3.27,3.27,0,0,0-.64-.347,2.164,2.164,0,0,0-.826-.151,2.639,2.639,0,0,0-1.119.217,2.439,2.439,0,0,0-.77.541A2.094,2.094,0,0,0-.457-.45,2.206,2.206,0,0,0-.6.308,1.557,1.557,0,0,0-.49.851a1.619,1.619,0,0,0,.415.572,4.511,4.511,0,0,0,.824.607A8.95,8.95,0,0,0,2.1,2.67" transform="translate(1.967 2.507)" fill="#c6aa76"/>
        </g>
      </g>
      <g id="Group_212" data-name="Group 212" transform="translate(40.669 76.569)">
        <path id="Path_216" data-name="Path 216" d="M3.751,5.452V6.1H-3.522V-5.119H3.512v.607h-5.8v4.4h5.47V.492h-5.47v4.96Z" transform="translate(3.522 5.119)" fill="#c6aa76"/>
      </g>
      <g id="Group_216" data-name="Group 216" transform="translate(0 0)" clip-path="url(#clip-path)">
        <g id="Group_213" data-name="Group 213" transform="translate(48.55 76.57)">
          <path id="Path_217" data-name="Path 217" d="M5.243,4.916l-.173.194a3.647,3.647,0,0,1-.543.51,5.323,5.323,0,0,1-.913.564,6.64,6.64,0,0,1-1.237.454,6.065,6.065,0,0,1-1.543.184A6.4,6.4,0,0,1-1.556,6.4,5.041,5.041,0,0,1-3.367,5.2,5.282,5.282,0,0,1-4.519,3.334a6.91,6.91,0,0,1-.4-2.424c0-.014.012-.159.033-.434a6.065,6.065,0,0,1,.2-1.028,6.684,6.684,0,0,1,.52-1.322,5.028,5.028,0,0,1,1-1.322A5.009,5.009,0,0,1-1.546-4.214a6.483,6.483,0,0,1,2.422-.4A6.135,6.135,0,0,1,2.5-4.421a6.486,6.486,0,0,1,1.185.444,3.887,3.887,0,0,1,.76.487c.18.161.3.268.357.326l.176.194L3.9-2.6l-.13-.13A3.773,3.773,0,0,0,.833-4.008a4.663,4.663,0,0,0-1.9.345,3.935,3.935,0,0,0-1.27.878,4.2,4.2,0,0,0-.783,1.159A6.8,6.8,0,0,0-3.532-.456a5.373,5.373,0,0,0-.153.931Q-3.7.866-3.7.909a7.054,7.054,0,0,0,.312,2.144A4.848,4.848,0,0,0-2.479,4.73,4.145,4.145,0,0,0-1.044,5.824a4.38,4.38,0,0,0,1.877.39A3.4,3.4,0,0,0,1.9,6.043a4.839,4.839,0,0,0,.946-.423,5.454,5.454,0,0,0,.737-.51,3.221,3.221,0,0,0,.469-.452l.064-.087Z" transform="translate(4.922 4.615)" fill="#c6aa76"/>
        </g>
        <g id="Group_214" data-name="Group 214" transform="translate(59.562 76.57)">
          <path id="Path_218" data-name="Path 218" d="M4.614,3.586a5.353,5.353,0,0,1-.26,1.776A4.235,4.235,0,0,1,3.691,6.6a3.261,3.261,0,0,1-.913.791,4.973,4.973,0,0,1-1.01.444,4.894,4.894,0,0,1-.933.194c-.289.029-.522.043-.694.043s-.407-.014-.7-.043a4.862,4.862,0,0,1-.933-.194A4.924,4.924,0,0,1-2.5,7.388,3.261,3.261,0,0,1-3.411,6.6a4.187,4.187,0,0,1-.663-1.235,5.357,5.357,0,0,1-.258-1.776V-3.367h1.237V3.52a4.486,4.486,0,0,0,.834,2.947,2.959,2.959,0,0,0,2.4,1,2.948,2.948,0,0,0,2.4-1.008A4.5,4.5,0,0,0,3.377,3.52V-3.367H4.614Z" transform="translate(4.332 3.367)" fill="#c6aa76"/>
        </g>
        <g id="Group_215" data-name="Group 215" transform="translate(70.037 76.571)">
          <path id="Path_219" data-name="Path 219" d="M3.775,5.775H2.492L-.787.187H-2.328V5.8H-3.544V-5.422H.016c.014,0,.105.006.271.021s.382.047.642.1a4.35,4.35,0,0,1,.834.26,3.213,3.213,0,0,1,.826.5,2.484,2.484,0,0,1,.63.8,2.6,2.6,0,0,1,.25,1.2A2.492,2.492,0,0,1,2.7-.6,3.384,3.384,0,0,1,.5.164Zm-6.1-6.193h2.04A2.9,2.9,0,0,0,1.656-.961a1.988,1.988,0,0,0,.62-1.582A2.026,2.026,0,0,0,1.516-4.2,2.874,2.874,0,0,0-.353-4.817H-2.328Z" transform="translate(3.544 5.422)" fill="#c6aa76"/>
        </g>
      </g>
      <path id="Path_221" data-name="Path 221" d="M38.1-4.831h1.237v-11.22H38.1Z" transform="translate(40.579 92.621)" fill="#c6aa76"/>
      <g id="Group_217" data-name="Group 217" transform="translate(80.348 76.571)">
        <path id="Path_222" data-name="Path 222" d="M4.335.346H.752V10.895H-.487V.346H-4.07V-.325H4.335Z" transform="translate(4.07 0.325)" fill="#c6aa76"/>
      </g>
      <g id="Group_218" data-name="Group 218" transform="translate(87.399 76.57)">
        <path id="Path_223" data-name="Path 223" d="M2.565,3.262V8.157H1.371V3.262L-2.408-3.063h1.324L1.98,2.114,5.02-3.063h1.3Z" transform="translate(2.408 3.063)" fill="#c6aa76"/>
      </g>
      <g id="Group_221" data-name="Group 221" transform="translate(0 0)" clip-path="url(#clip-path)">
        <g id="Group_219" data-name="Group 219" transform="translate(99.542 76.289)">
          <path id="Path_224" data-name="Path 224" d="M2.094,2.67a8.658,8.658,0,0,1,1.26.605,4.722,4.722,0,0,1,1.01.791,3.478,3.478,0,0,1,.661.975A2.773,2.773,0,0,1,5.264,6.2a2.7,2.7,0,0,1-.184.886,2.863,2.863,0,0,1-.609.985,3.555,3.555,0,0,1-1.128.8,4.135,4.135,0,0,1-1.772.335,6.527,6.527,0,0,1-.855-.064,5.408,5.408,0,0,1-.979-.227,6.44,6.44,0,0,1-.944-.4,2.409,2.409,0,0,1-.76-.607l1.041-.454.273.26a3.674,3.674,0,0,0,.533.4,3.6,3.6,0,0,0,.76.355,2.887,2.887,0,0,0,.977.153,2.325,2.325,0,0,0,1.13-.25,2.265,2.265,0,0,0,.737-.617A2.492,2.492,0,0,0,3.9,6.97a2.647,2.647,0,0,0,.13-.768A2.034,2.034,0,0,0,3.517,5a4.39,4.39,0,0,0-1.9-1.2C1.311,3.68.962,3.529.564,3.341a6.082,6.082,0,0,1-1.13-.694,3.966,3.966,0,0,1-.89-.952A2.183,2.183,0,0,1-1.815.461,2.342,2.342,0,0,1-1.532-.655,3.127,3.127,0,0,1-.752-1.6,4.069,4.069,0,0,1,.411-2.259a4.025,4.025,0,0,1,1.423-.248,4.992,4.992,0,0,1,1.183.13,4.959,4.959,0,0,1,.923.314,3.333,3.333,0,0,1,.663.4,2.265,2.265,0,0,1,.4.39L3.961-.838c-.029-.029-.093-.1-.194-.219a2.782,2.782,0,0,0-.423-.368,3.27,3.27,0,0,0-.64-.347,2.164,2.164,0,0,0-.826-.151,2.646,2.646,0,0,0-1.119.217,2.463,2.463,0,0,0-.77.541A2.027,2.027,0,0,0-.456-.45,2.162,2.162,0,0,0-.6.308,1.515,1.515,0,0,0-.489.851a1.585,1.585,0,0,0,.413.572,4.585,4.585,0,0,0,.824.607,8.95,8.95,0,0,0,1.346.64" transform="translate(1.966 2.507)" fill="#c6aa76"/>
        </g>
        <g id="Group_220" data-name="Group 220" transform="translate(107.033 76.57)">
          <path id="Path_225" data-name="Path 225" d="M5.243,4.916l-.173.194a3.647,3.647,0,0,1-.543.51,5.323,5.323,0,0,1-.913.564,6.64,6.64,0,0,1-1.237.454,6.065,6.065,0,0,1-1.543.184A6.4,6.4,0,0,1-1.556,6.4,5.049,5.049,0,0,1-3.369,5.2a5.307,5.307,0,0,1-1.15-1.863,6.91,6.91,0,0,1-.4-2.424c0-.014.01-.159.033-.434a6.065,6.065,0,0,1,.2-1.028,6.684,6.684,0,0,1,.52-1.322,4.984,4.984,0,0,1,1-1.322A5.009,5.009,0,0,1-1.546-4.214a6.483,6.483,0,0,1,2.422-.4A6.135,6.135,0,0,1,2.5-4.421a6.486,6.486,0,0,1,1.185.444,3.887,3.887,0,0,1,.76.487c.18.161.3.268.357.326l.176.194L3.9-2.6l-.132-.13A3.769,3.769,0,0,0,.833-4.008a4.663,4.663,0,0,0-1.9.345,3.935,3.935,0,0,0-1.27.878,4.2,4.2,0,0,0-.783,1.159A6.8,6.8,0,0,0-3.532-.456a5.373,5.373,0,0,0-.153.931Q-3.7.866-3.7.909a6.991,6.991,0,0,0,.312,2.144A4.848,4.848,0,0,0-2.479,4.73,4.145,4.145,0,0,0-1.044,5.824a4.38,4.38,0,0,0,1.877.39A3.4,3.4,0,0,0,1.9,6.043a4.839,4.839,0,0,0,.946-.423,5.454,5.454,0,0,0,.737-.51,3.221,3.221,0,0,0,.469-.452l.064-.087Z" transform="translate(4.922 4.615)" fill="#c6aa76"/>
        </g>
      </g>
      <path id="Path_227" data-name="Path 227" d="M57.172-4.831h1.237v-11.22H57.172Z" transform="translate(60.895 92.621)" fill="#c6aa76"/>
      <g id="Group_222" data-name="Group 222" transform="translate(121.411 76.569)">
        <path id="Path_228" data-name="Path 228" d="M3.751,5.452V6.1H-3.522V-5.119H3.512v.607h-5.8v4.4h5.47V.492h-5.47v4.96Z" transform="translate(3.522 5.119)" fill="#c6aa76"/>
      </g>
      <g id="Group_223" data-name="Group 223" transform="translate(130.096 76.57)">
        <path id="Path_229" data-name="Path 229" d="M4.794,5.787H3.534L-3.285-3.634V5.787H-4.5V-5.433h1.239L3.576,3.988V-5.433H4.794Z" transform="translate(4.501 5.433)" fill="#c6aa76"/>
      </g>
      <g id="Group_225" data-name="Group 225" transform="translate(0 0)" clip-path="url(#clip-path)">
        <g id="Group_224" data-name="Group 224" transform="translate(140.695 76.57)">
          <path id="Path_230" data-name="Path 230" d="M5.241,4.916l-.173.194a3.546,3.546,0,0,1-.543.51,5.243,5.243,0,0,1-.913.564,6.586,6.586,0,0,1-1.237.454,6.065,6.065,0,0,1-1.543.184A6.412,6.412,0,0,1-1.557,6.4,5.059,5.059,0,0,1-3.368,5.2,5.312,5.312,0,0,1-4.52,3.334a6.958,6.958,0,0,1-.4-2.424q0-.022.031-.434a6.278,6.278,0,0,1,.2-1.028,6.7,6.7,0,0,1,.522-1.322,4.975,4.975,0,0,1,1-1.322A5.019,5.019,0,0,1-1.545-4.214a6.475,6.475,0,0,1,2.422-.4,6.135,6.135,0,0,1,1.627.194,6.519,6.519,0,0,1,1.183.444,3.887,3.887,0,0,1,.76.487c.182.161.3.268.359.326l.173.194L3.895-2.6l-.13-.13A3.77,3.77,0,0,0,.832-4.008a4.663,4.663,0,0,0-1.9.345,3.981,3.981,0,0,0-1.27.878A4.293,4.293,0,0,0-3.12-1.627,6.78,6.78,0,0,0-3.531-.456a5.373,5.373,0,0,0-.153.931C-3.7.736-3.7.88-3.7.909a6.99,6.99,0,0,0,.314,2.144A4.844,4.844,0,0,0-2.48,4.73,4.184,4.184,0,0,0-1.045,5.824a4.38,4.38,0,0,0,1.877.39A3.383,3.383,0,0,0,1.9,6.043a4.915,4.915,0,0,0,.948-.423,5.729,5.729,0,0,0,.737-.51,3.189,3.189,0,0,0,.467-.452l.064-.087Z" transform="translate(4.921 4.615)" fill="#c6aa76"/>
        </g>
      </g>
      <g id="Group_226" data-name="Group 226" transform="translate(151.728 76.569)">
        <path id="Path_232" data-name="Path 232" d="M3.751,5.452V6.1H-3.522V-5.119H3.512v.607h-5.8v4.4h5.47V.492h-5.47v4.96Z" transform="translate(3.522 5.119)" fill="#c6aa76"/>
      </g>
      <g id="Group_228" data-name="Group 228" transform="translate(0 0)" clip-path="url(#clip-path)">
        <g id="Group_227" data-name="Group 227" transform="translate(159.348 76.289)">
          <path id="Path_233" data-name="Path 233" d="M2.1,2.67a8.658,8.658,0,0,1,1.26.605,4.722,4.722,0,0,1,1.01.791,3.478,3.478,0,0,1,.661.975A2.773,2.773,0,0,1,5.265,6.2a2.7,2.7,0,0,1-.184.886,2.863,2.863,0,0,1-.609.985,3.555,3.555,0,0,1-1.128.8,4.135,4.135,0,0,1-1.772.335,6.527,6.527,0,0,1-.855-.064,5.369,5.369,0,0,1-.979-.227,6.56,6.56,0,0,1-.946-.4,2.456,2.456,0,0,1-.76-.607l1.043-.454.273.26a3.76,3.76,0,0,0,.531.4,3.624,3.624,0,0,0,.762.355,2.887,2.887,0,0,0,.977.153,2.311,2.311,0,0,0,1.128-.25,2.273,2.273,0,0,0,.739-.617A2.492,2.492,0,0,0,3.9,6.97a2.647,2.647,0,0,0,.13-.768A2.034,2.034,0,0,0,3.518,5a4.39,4.39,0,0,0-1.9-1.2C1.312,3.68.963,3.529.565,3.341a6.082,6.082,0,0,1-1.13-.694,3.966,3.966,0,0,1-.89-.952A2.183,2.183,0,0,1-1.814.461,2.342,2.342,0,0,1-1.531-.655,3.127,3.127,0,0,1-.751-1.6,4.069,4.069,0,0,1,.412-2.259a4.025,4.025,0,0,1,1.423-.248,4.992,4.992,0,0,1,1.183.13,4.959,4.959,0,0,1,.923.314,3.333,3.333,0,0,1,.663.4,2.265,2.265,0,0,1,.4.39L3.962-.838c-.029-.029-.093-.1-.194-.219a2.782,2.782,0,0,0-.423-.368,3.27,3.27,0,0,0-.64-.347,2.164,2.164,0,0,0-.826-.151,2.646,2.646,0,0,0-1.119.217,2.439,2.439,0,0,0-.77.541A2.094,2.094,0,0,0-.457-.45,2.206,2.206,0,0,0-.6.308,1.557,1.557,0,0,0-.49.851a1.619,1.619,0,0,0,.415.572,4.585,4.585,0,0,0,.824.607A8.95,8.95,0,0,0,2.1,2.67" transform="translate(1.967 2.507)" fill="#c6aa76"/>
        </g>
      </g>
    </g>
  </g>
</svg>
