<svg xmlns="http://www.w3.org/2000/svg" xmlns:xlink="http://www.w3.org/1999/xlink" width="75" height="77.356" viewBox="0 0 75 77.356">
  <defs>
    <clipPath id="clip-path">
      <path id="Path_126949" data-name="Path 126949" d="M34.9,0a34.9,34.9,0,0,1,0,69.8c-2.217,0-1.753.458-4.182,0,8.259-5.9,2.32-23.371-2.632-28.026C22.743,36.759,13.839,32.606.339,39.787A33.894,33.894,0,0,1,0,34.9,34.9,34.9,0,0,1,34.9,0Z" transform="translate(0)" fill="#fff"/>
    </clipPath>
  </defs>
  <g id="num-icon4" transform="translate(-202.538 -1009)">
    <g id="Group_57076" data-name="Group 57076" transform="translate(-0.738)">
      <g id="location" transform="translate(206.276 1050.448)">
        <path id="Path_124318" data-name="Path 124318" d="M14.249,17.928A5.369,5.369,0,1,0,8.88,12.559,5.369,5.369,0,0,0,14.249,17.928Z" transform="translate(0.589 1.741)" fill="none" stroke="#005f61" stroke-width="3"/>
        <path id="Path_124319" data-name="Path 124319" d="M3.795,13.168c3.39-14.9,25.468-14.885,28.841.017,1.979,8.742-3.459,16.141-8.226,20.719A8.937,8.937,0,0,1,12,33.9C7.254,29.327,1.816,21.91,3.795,13.168Z" transform="translate(-3.377 -2)" fill="none" stroke="#005f61" stroke-width="3"/>
      </g>
      <g id="Group_57073" data-name="Group 57073" transform="translate(206.276 1009)">
        <g id="Mask_Group_8" data-name="Mask Group 8" transform="translate(0 0)" clip-path="url(#clip-path)">
          <g id="Group_55947" data-name="Group 55947" transform="translate(7.506 5.396)" opacity="0.3">
            <g id="Group_55948" data-name="Group 55948">
              <g id="Group_55949" data-name="Group 55949">
                <g id="layer1">
                  <g id="ye" transform="translate(29.453 42.263)">
                    <path id="path2592" d="M8811.208,3468.871c-.519-.019-.225-1.076-.736-1.136.229-.364-.62-1.495-.768-1.894l-.6-1.379c-1.516.3-3.034.623-4.528.824a3.105,3.105,0,0,0-2.151,1.676c-.259.388-.4,1.367-1.02,1.329-.423-.026-.381-.661-.786-.612a5.285,5.285,0,0,1-1.452-.023,7.542,7.542,0,0,0-.89-.252c-.32,0-.638.031-.957.061a7.146,7.146,0,0,1-1.126.191c-.223-.012-.307-.261-.533-.289a.477.477,0,0,0-.477.3,1.108,1.108,0,0,0-.094.666c.023.142.225.285.114.431s-.183.281-.289.426a.609.609,0,0,1-.214.187c-.2.1-.1.18-.057.4.065.354-.07.519-.132.842-.059.3.191.56.165.857-.059-.051-.361-.059-.312.06a2.332,2.332,0,0,1,.307.154,1.262,1.262,0,0,1,.292.608c.114.467.125.988.271,1.442.059.186.209.326.28.508a1.7,1.7,0,0,1,0,.681c-.01.443.528.817.382,1.267.2.015.328-.095.527-.015a.924.924,0,0,0,.588.107c.48-.095.693-.43,1.191-.168-.024-.135.12-.274.17-.076a2.457,2.457,0,0,0,.2-.3c.1-.16.277-.157.415-.263.314-.238.352-.478.786-.577a3.984,3.984,0,0,1,1.243-.073c.244.022.651-.256.9-.325.36-.1.541-.417.86-.594a2.261,2.261,0,0,1,.342-.208.813.813,0,0,1,.337.083,1.054,1.054,0,0,0,.351-.043c.772-.125.944-.922,1.639-1.263a3.248,3.248,0,0,1,.949-.258c.425-.074.777-.359,1.193-.458a8,8,0,0,0,.866-.226c.281-.1.381-.325.619-.447.2-.1.621-.088.685-.356.07-.311-.146-.593-.033-.909.227-.64,1.008-.615,1.485-.965" transform="translate(-8794.363 -3464.462)" fill="#005f61"/>
                  </g>
                  <path id="jo" d="M-134.987,45.747c-.029-.513.177-1,.182-1.512a12.494,12.494,0,0,1,.338-1.58c.03-.233-.037-.47-.019-.706s.092-.443.1-.66c.017-.456-.045-1-.062-1.463-.014-.391.473-.27.7-.117.367.253.7.637,1.191.54a4.422,4.422,0,0,0,1.364-.838c.525-.35,1.049-.736,1.6-1.042.17.544.393,1.07.58,1.607-.189.02-.066.278.056.31.193.05.437.019.124.347a10.66,10.66,0,0,1-3.139,1.21l1.756,1.843c-.158.078-.576.068-.688.21-.129.163.017.492-.121.655-.232.273-.817.041-1.118.328-.343.327-.455.943-.945,1.136a4.31,4.31,0,0,1-1.9-.266" transform="translate(151.02 -22.396)" fill="#005f61"/>
                  <g id="ae" transform="translate(42.838 29.413)">
                    <path id="path2704" d="M9221.749,3223.21a.25.25,0,0,0,.244-.123.243.243,0,0,0-.4.077l.151.046" transform="translate(-9218.214 -3219.644)" fill="#005f61"/>
                    <path id="path2784" d="M9135.412,3140.34c.1-.068.143-.028.121.123.049-.047.1-.093.152-.138.1.145.011.355.122.49s.361.1.507.092a.75.75,0,0,0,.5-.174c.067-.06.143-.235.235-.255s.344.126.466.129c.2,0,.4.028.595.021.537-.019.907.229,1.435-.088-.046-.074-.1-.145-.152-.214.166-.063.142.137.274.122.19-.021.352-.252.43-.4a2.292,2.292,0,0,1,.609-.963c.361-.3.508-.845.851-1.126.377-.311.6-.394.712-.906.275.015.158.412.16.581,0,.317.349.156.389.51s.282.817.006,1.091c-.6.584-.4.175-.5-.076s-.279.2-.248.354c.021.115-.032.116-.014.239a4,4,0,0,1,.1.48c0,.429.435.236.262.521-.139.228-.588.028-.76.235.4.223-.194,1.268-.271,1.911.027.421-.187.517-.553.431-.45-.106-.918-.148-1.375-.216-.479-.071-.959-.142-1.439-.2-.353-.044-.778.026-1.014-.289s-.472-.643-.723-.955c-.18-.218-.361-.431-.536-.647a4.217,4.217,0,0,1-.347-.677" transform="translate(-9135.412 -3137.049)" fill="#005f61"/>
                  </g>
                  <g id="tr" transform="translate(0.955)">
                    <path id="path3456" d="M8068.234,2390.076a.925.925,0,0,0,.426-.465c.073-.269-.133-.471.238-.639.2-.092.13-.093.079-.307a.356.356,0,0,0-.214-.3c-.489-.16.113-.237.085-.432-.006-.054.523-.206.61-.234.28-.092.447-.186.65.046.191.216.3.077.541.054a.46.46,0,0,1,.337.076c.154.129-.079.174.032.315a2.735,2.735,0,0,0,1.539.952c.25.075.042.441-.113.5-.3.11-.729-.178-1.033-.2-.149-.009-.24.1-.365.159-.151.078-.311-.057-.484,0-.21.063-.3.291-.445.449a4.627,4.627,0,0,1-.825.529c-.231.168-.455.638-.7.735a.574.574,0,0,1,.344-.712c.05-.02.614-.189.429-.342-.3-.248-.98.417-1.127-.186" transform="translate(-8068.234 -2387.604)" fill="#005f61"/>
                    <path id="path3458" d="M8073.326,2393.45c.021-.159.04-.942.157-.987.291-.111.386-.532.685-.682.16-.08.366.061.512-.043.188-.13.269-.031.431.067.235.14.993.08.512-.208a.764.764,0,0,1,.474-.016.147.147,0,0,0-.114.149c.09.125.547.052.661.041.358-.032.87.175,1.171-.083-.144-.14-.328-.017-.478-.138.191-.49,1.074-.305,1.472-.4-.345-.169-.834-.027-1.123-.322-.322-.332,0-.607.35-.575a3.7,3.7,0,0,0,1.147.129c.517-.113.936.169,1.462.117.243-.023.278-.148.368-.339.1-.209.473-.3.662-.411a6.237,6.237,0,0,1,1.6-.768,6.167,6.167,0,0,1,1.789-.081,2.8,2.8,0,0,0,.8.031c.12-.036.158-.18.276-.215s.222.036.336.046c-.2.235.139.556.351.62a1.191,1.191,0,0,0,.5.068c.186-.025.345-.233.345.032.043-.394.295.085.334.2.048.15.454.654.616.483.21-.227.436-.177.662,0a4.714,4.714,0,0,0,.926.416c.175.088.205-.271.442-.009.191.211.565.206.829.232.365.037.74-.216,1.108-.252a1.519,1.519,0,0,1,.786.035,1.346,1.346,0,0,0,1.164.051,6.9,6.9,0,0,0,1.439-.879c.18-.143.342.1.523.1.108,0,.1-.148.229-.122.084.016.166.035.248.052.122.025.467.161.54,0,.09-.2.524-.365.39-.065a.448.448,0,0,1,.354.144c.07.064.146.124.22.18.122.016.152.073.085.171.057.171.288,0,.382.145.063.091.1.361.193.435.289.234.525.468.359.707s.279.587.047.744a1.815,1.815,0,0,0,.952.16,1.431,1.431,0,0,1,.929.743c-.182-.149-.458-.367-.535,0a3.138,3.138,0,0,1-.03.345c-.044.146-.43.069-.553.115a1.88,1.88,0,0,1,.3.511,4.425,4.425,0,0,0,.233.542c.117.3.011.744.4.875a1.181,1.181,0,0,0-.249.541c-.083.34.268.29.447.455s.145.383.2.6c.028.108.22.156.295.222s.01.248.057.342c-.356-.251-.506.374-.71.306-.264-.087-.047-.436-.242-.566a.3.3,0,0,0-.345.02.589.589,0,0,1-.578.051,2.563,2.563,0,0,0-.862-.191c-.229,0-.371-.06-.49.141-.146.243-.436.462-.533.1-.087-.316-.485.064-.661.121a2.707,2.707,0,0,1-1.28.081c-.818-.108-1.524.716-2.354.773-.332.023-.927.1-1.205-.105-.3-.23-.493-.361-.866-.179-.4.194-1.269.652-1.613.226-.173-.214-.538-.288-.591.048a1.3,1.3,0,0,0,.207.846,1.623,1.623,0,0,1-.462.015c-.023.13.063.269.017.4-.052.152-.256.184-.3.352a1.236,1.236,0,0,0-.367-.2c.132-.172-.051-.395-.155-.523-.191-.24.017-.38.218-.554s.338-.3.137-.573c-.079-.107-.245-.24-.36-.093-.157.2-.316.172-.513.319.326-.033-.008.295-.251.251a3.213,3.213,0,0,1-.835-.366c-.641-.32-.973.62-1.271,1l-.139-.154c-.117.121-.191.336-.378.266a1.53,1.53,0,0,0-.777.128,1.027,1.027,0,0,1-.872,0c-.417-.184-.566-.646-.964-.839a5.328,5.328,0,0,0-1.354-.542c-.254-.044-.769-.146-.769.255,0,.23.043.649-.126.833-.092.1-.214-.086-.3-.1-.222-.03-.45.232-.669.269a1.465,1.465,0,0,1-.848-.255c-.159-.1-.165-.433-.382-.444.167-.239-.226-.5-.274-.184-.167-.143-.58-.2-.63-.444-.04.178-.469.473-.611.582.048-.107.014-.173-.106-.2a.245.245,0,0,0,.2-.245,2.179,2.179,0,0,1-1.086.229.836.836,0,0,1,.684-.2c.232.006.209.068.3-.112.067-.125.21-.181.3-.285a2.1,2.1,0,0,0-1.483.092c-.352-.411.313-.193.364-.3a.327.327,0,0,0-.015-.295c-.117-.2-.246.075-.183-.232-.338.431-.312-.458-.627-.444.219-.118.468-.232.28-.528-.137-.214-.52-.1-.612-.261s-.193-.394-.339-.107c-.062.128-.516-.215-.523-.328.456.109.062-.374.077-.562.014-.156.259-.042.3.035.1.158.063.418.216.542-.035-.339.494.086.641-.26a.852.852,0,0,1-.611-.413c.159-.088.239-.281.43-.321-.084-.248-.341.01-.317-.272s-.123-.315-.328-.493c.137-.156.292-.293.415-.459-.436-.222-.848.235-1.286.092" transform="translate(-8073.126 -2388.667)" fill="#005f61"/>
                  </g>
                  <path id="iq" d="M2.4-141.346a19.716,19.716,0,0,0,2.567-1.466,2.652,2.652,0,0,0,.7-.633c.289-.442.059-1.026.116-1.191.006-.687.191-.772.152-1.1-.044-.369-.569-1.017-.164-1.332.232-.181.52-.173.759-.373.2-.168.741-.607.581-.784-.073-.081.074.008.184-.026.182-.055.241-.226.32-.37s.886-.011,1.063.057a2.75,2.75,0,0,0,.43.135c.243.05.316-.107.527-.146.533-.1.169.6.471.572.22-.02.308-.353.55-.344.308.011.3.534.432.715.064.086.147.071.2.178.065.131-.021.318.089.426.233.228.746.452.536.846.346-.077.488.233.642.292.295.112.3-.122.935.046-.055.239-.333.184-.433.368-.169.312.308.544.336.828.036.374-.422-.037-.408.342.006.171-.179.142-.226.3-.053.182.036.317.068.485a.607.607,0,0,1-.321-.092c-.026.154-.133.271-.011.4s.232.2.159.426-.264.266-.077.435a4.572,4.572,0,0,0,.481.438c.18.121,1.116.923.583,1.073.208.051.155.293.327.253.247-.057.385.1.582.211.363.2.595.671,1.1.71.238.019.677.794.887.98.318.281.123.572.043.958-.038.185-.029.709.245.729.1.007.257-.013.332.083a.782.782,0,0,1,.075.522c-.049.334.125.432.5.7.188.136.146.557.413.621-.138.01-.961-.107-.979-.257.113.267-.357.053-.541.045a.747.747,0,0,0-.73.307c-.261.555-.214,1.66-1.1,1.558l-2.236-.256c-.748-.107-.776-.5-1.461-.931C9.2-136,7.384-137.667,5.264-138.6a9.729,9.729,0,0,0-2.127-.457c.431-.468-.088-.262-.218-.46a.236.236,0,0,1-.031-.2c.108-.124,0-.251-.067-.432-.15-.4-.292-.8-.42-1.2" transform="translate(19.021 157.319)" fill="#005f61"/>
                  <g id="ir" transform="translate(28.143 4.267)">
                    <path id="path4560" d="M9190.562,3101.375a.273.273,0,0,1,.151-.031.346.346,0,0,0-.318-.031l.167.062" transform="translate(-9173.541 -3077.545)" fill="#005f61"/>
                    <path id="path4562" d="M9222.129,3114.995c.028-.128-.023-.138-.152-.031l.152.031" transform="translate(-9203.884 -3090.614)" fill="#005f61"/>
                    <path id="path4564" d="M9275.8,3093.744c-.251.209-.426.573-.827.5-.036.377.534-.007.664-.065s.291-.012.428-.077c.192-.09.225-.389.453-.41-.257-.25-.455.165-.718.047" transform="translate(-9254.797 -3070.175)" fill="#005f61"/>
                    <path id="path4606" d="M8760.979,2497.009c.421-.144.574.168.565-.5-.006-.291.249-.183.433-.048a6.045,6.045,0,0,1,.445.493c.16.145.339.261.5.406a1.507,1.507,0,0,0,.935.533,2.524,2.524,0,0,0,.981-.008,2.283,2.283,0,0,0,.733-.648c.063-.168.3-.2.425-.314a5.407,5.407,0,0,1,.434-.389c.423-.291.8.152,1.058.46-.564.212.2.684-.114.756-.584.132.021.474.271.629a4.983,4.983,0,0,0,.519.363c.077.035.3-.01.328.038.233.475.2,1.257.725,1.533.445.235.979.124,1.433.318.292.126.39.454.628.643a4.566,4.566,0,0,0,.958.49,3,3,0,0,0,1.948.248,6.056,6.056,0,0,1,2.443-.456,2.052,2.052,0,0,1-.488.062c.111.084.552.249.613.02.056-.2-.258-.75-.319-.955a1.533,1.533,0,0,0,.985-.08c.39-.166.122-.31.3-.582a2.035,2.035,0,0,1,.885-.649c.43-.163.846.086,1.274-.007-.146-.244.177-.268.364-.284.237-.02.507.066.74.043.329-.033.331.009.492.307s.581.278.867.33c.318.057.538.376.874.4a3.385,3.385,0,0,1,1.033.1,1.163,1.163,0,0,1,.672.582c.2.307.651.264.934.454.248.168.332.479.587.635.286.175,1.018-.163,1.241.079a2.309,2.309,0,0,1,.265.979c.044.247-.155.156.04.324a1.673,1.673,0,0,1,.248.7c.03.245-.194.413-.148.675.061.356.186,1.12-.347,1.18.047.067.23.217.215.306-.024.143-.352.186-.413.371-.108.333.083,1.114.488,1.141.52.035.051.446-.027.707-.119.382.429,1.235.537,1.663.119.488.08.96.413,1.332.269.3.849.141,1.2.314.363.182.34.741.249,1.05a4.849,4.849,0,0,1-.547.863,4.5,4.5,0,0,1-.6.866c.168.17.307.3.388.373.769.685,1.033,1.682,1.648,2.021.188.1.377.165.571.26a1.894,1.894,0,0,0,.61.261c.285.019.383,1.01.4,1.264.039.891.2.647.714.653.244,0,.105.637.086.889-.032.508-1.667.042-1.405.73a.621.621,0,0,0-.511.182,3.156,3.156,0,0,0-.272,1.569c-.008.143.043.453-.213.361.118.4-.755.043-.893,0-.155-.049-.513-.016-.552-.232-.059-.3-.405-.12-.254.017a4.287,4.287,0,0,1-.912-.062,1.248,1.248,0,0,0-1.011-.084c-.232.072-.4-.058-.583-.187-.242-.172-.445-.068-.707-.138-.21-.056-.389.115-.6.028s-.242-.355-.461-.108c.058-.3-.582-.214-.761-.38a3.126,3.126,0,0,1-.57-1.607,1.117,1.117,0,0,0-1.248-.894c-.27.02-.464.248-.716.321-.21.061-.48.1-.359.348.079.157-.47.086-.507.1-.273.067-.381.35-.614.467-.393.2-.753-.341-1.135-.341-.468,0-.729.092-1.021-.339-.145-.215-.468-.284-.687-.406-.282-.158-.562-.33-.859-.465.285-.273-.415-.527-.579-.6a2.78,2.78,0,0,0-.438-.238c-.221-.053-.517.034-.7-.1a3.038,3.038,0,0,1-.775-1.014c-.126-.2-.04-.479-.243-.641-.139-.111-.356-.173-.356-.387.251.025.214-.2.027-.238-.126-.028-.437,0-.311-.227.163-.287-.317-.6-.467-.754a2.455,2.455,0,0,1-.567-.858c-.219-.569-.665.427-.9.086-.163-.228-.406-.066-.516-.281-.049-.1-.365-.158-.464-.315a1.871,1.871,0,0,0,.475,0,.315.315,0,0,0-.475-.169c.042.047.08.093.124.138-.455-.06.288.984-.508.658.056.159-.08.2-.2.147-.17-.075-.18-.273-.241-.426-.124-.315-.567-.341-.623-.731-.029-.248.083-.741-.268-.73-.553.017-.381-.74-.307-1.116.1-.5-.147-.59-.437-.941s-.242-.562-.723-.653c-.365-.069-.609-.463-.9-.664a.9.9,0,0,0-.549-.23c-.341.028-.135-.164-.383-.26.544-.167-.527-1.014-.7-1.162-.126-.108-.237-.237-.36-.349-.185-.166-.017-.2.06-.412a.3.3,0,0,0-.123-.4c-.153-.12-.032-.3-.008-.444a.62.62,0,0,0,.321.091c-.025-.135-.09-.261-.107-.4-.023-.239.238-.2.259-.377.028-.258.036-.185.253-.184s.181-.184.112-.3c-.114-.2-.392-.385-.321-.647.06-.225.4-.167.465-.418-.149.043-.256-.068-.4-.053-.175.018-.366.1-.534.007-.26-.143-.3-.353-.643-.276.233-.539-.639-.7-.6-1.056.019-.21,0-.285-.2-.369a2.606,2.606,0,0,1-.34-.791c.077-.326-.141-.2-.3-.418s-.081-.586-.26-.663c-.092-.04-.455-.153-.44-.3a1.18,1.18,0,0,1,.288-.676c-.458-.094-.249-.7-.453-.931-.112-.13-.075-.246-.148-.4-.04-.084-.223-.426-.331-.6" transform="translate(-8760.979 -2496.324)" fill="#005f61"/>
                  </g>
                  <path id="sy" d="M-122.969-137.92c.133-.169.39-.52.627-.566-.362-.338.155-.55.459-.459-.267-.324.131-.364.223-.674a.571.571,0,0,0-.359-.556c-.225-.042.2-.364-.145-.266-.58.163-.623-.207-.649-.507-.024-.273.152-.771-.093-.971-.2-.161-.044-.589-.051-.824-.006-.177.323.1.386.132.005.023.08-.157.22-.241.172-.1.056-.338.086-.5a1.593,1.593,0,0,0,.459-.015,1.455,1.455,0,0,1-.233-.606c-.013-.108,0-.412.148-.45a.451.451,0,0,1,.318.018c.244.128.291.346.543.307a2.9,2.9,0,0,0,.8-.21c.3-.129.519-.309.856-.261.249.035.395.212.6.311a2.335,2.335,0,0,0,.968.043,6.017,6.017,0,0,0,1.734-.675c.606-.242,1.268.1,1.89-.151.317-.127.783-.612.83.147.011.177-.42.535-.544.658-.225.223-.476.207-.73.356-.544.32.026,1.011.069,1.393a4.687,4.687,0,0,1-.128.736c-.024.348,0,.91,0,1.254,0,.805-3.395,2.345-5.115,3.523-.469.321-1.226,1.092-1.836.666-.222-.155-.381-.274-.61-.431a.575.575,0,0,0-.641-.078c-.014-.05.143-1-.086-1.1" transform="translate(139.508 154.077)" fill="#005f61"/>
                  <g id="om" transform="translate(44.175 28.862)">
                    <path id="path4692" d="M9435.732,3390.345a1.1,1.1,0,0,0,.259-.465.706.706,0,0,1,.14-.132c.058-.068-.089-.281-.107-.352-.078.332-.427.579-.291.949" transform="translate(-9425.253 -3378.942)" fill="#005f61"/>
                    <path id="path4696" d="M9310.114,3123.554a1.844,1.844,0,0,1,.166-.352c.145.161.283-.059.217-.2.123.067.373.49.06.414.2.139.055.992-.166.953-.3-.054.106-.8-.276-.815" transform="translate(-9304.596 -3123.003)" fill="#005f61"/>
                    <path id="path4786" d="M9169.491,3199.679a18.229,18.229,0,0,0,4.655-1.6c.411-.791-.034.455.165-.426.162-.719.274-1.437.435-2.122.114-.474.38-1.071.106-1.522-.2-.325-.6-.6-.724-.961-.157-.451.694-2,.276-2.249.187-.224.558-.031.721-.245.179-.236-.11-.157-.167-.275a1.665,1.665,0,0,1-.07-1.331c.1-.149.3.08.267.2-.1.369.275-.031.335-.087.181-.174.181-.145.293.1a4.509,4.509,0,0,0,.74,1.127,3.111,3.111,0,0,0,1.815.855c.315.063.586.188.907.224.432.049.67.574.917.867.2.236.335.523.533.749a1.127,1.127,0,0,0,.588.355c.64.255-.084,1.165-.211,1.54-.24.709-1,1.08-1.209,1.84-.045.179-.114.7-.4.613-.225-.067-.183-.5-.468-.318-.345.207-.325.955-.413,1.262a1.866,1.866,0,0,0,.12,1.1c.085.317.141.559-.246.57-.62.018-1.3.2-1.457.871a2.023,2.023,0,0,1-.271.774c-.205.277-.618.262-.942.286a.86.86,0,0,0-.783.4c-.221.3-.078.358-.1.7-.015.273-.295.47-.516.578-.1.051-.209.12-.319.035-.185-.147-.341-.107-.571-.107-.674,0-1.26.652-1.939.633-.437-.012-.241-1.086-.709-1.137.2-.209-.288-.941-.387-1.125a14.508,14.508,0,0,1-.985-2.181" transform="translate(-9169.484 -3186.308)" fill="#005f61"/>
                  </g>
                  <path id="eg" d="M-543.363,122.137c-.3-.485.321-.993.244-1.49-.082-.534-.569-.907.2-1.541.016.389.47.25.7.18a2.89,2.89,0,0,1,1.209.058,8.616,8.616,0,0,1,1.368.271c.191.051.222.259.416.319a1.068,1.068,0,0,0,.474.014c.115-.012.168.167.3.194a4.121,4.121,0,0,0,.43.044c.46.045.767.334,1.2.406a1.475,1.475,0,0,0,1.115-.466c.155-.132.3-.276.442-.422.122.1.214.193.368.168-.088-.044-.069-.07-.185-.061a.646.646,0,0,0,.338-.4c.26.156.505-.124.765-.122a1.512,1.512,0,0,0-.476.321c.046-.027,1.1-.346.6-.383.373-.123.615.3.973.253.171-.024.332-.193.513-.13s.248.3.4.4c-.151-.106-.306-.338-.506-.352.059.159-.159.459.1.52.281.067.149.137.331.306,0-.063.5-.274.138-.444.386.09.514.446.966.406.147-.013.58-.284.5.038.28-.178.6-.074.9-.165a1.976,1.976,0,0,0,.744-.368l1.293,3.412c-.327.416-.254,1.184-.462,1.677a1.637,1.637,0,0,0-.113.772c0,.26-.328.512-.247.766a4.661,4.661,0,0,0-.544-.334,2.277,2.277,0,0,1-.528-.6c-.192-.277-.753-.457-.672-.873s-.322-.709-.528-1a4.021,4.021,0,0,1-.6-1.368c-.192.206-.4.655-.2.891.342.4.307.9.593,1.314a7.747,7.747,0,0,0,.81,1.11c.137.136.294.253.419.4.065.078.335.522.01.28.263.205.046.467.213.636a2.159,2.159,0,0,1,.46.754,2.437,2.437,0,0,0,.234.388c.063.1-.062.22-.067.315-.008.127.2.314.255.423.129.25.271.493.4.742.429.819.862,1.623,1.269,2.454a6.875,6.875,0,0,0,.592.85c.186.272.512.356.684.633a.955.955,0,0,1-.474-.092,1.888,1.888,0,0,0,.171,1.384c.216.249-.282.75-.586.764-.151.007-.208-.1-.359.067a1.532,1.532,0,0,0-.237.533.536.536,0,0,1-.373.423c-.177.041-.494,0-.588.207-.171.371-.067.8-.589.762-.608-.048-.918-.542-1.239-.528a11.223,11.223,0,0,1-2.491,0c.024-.083.12-.259.061-.344-.15-.216-.264.176-.314.247-.2.284-1.19.113-1.507.113l-8.523-.018-.3-11.52c-.032-.539-.019-1.1-.093-1.637a5.738,5.738,0,0,0-.388-1.551" transform="translate(543.446 -99.964)" fill="#005f61"/>
                  <g id="sa" transform="translate(15.652 18.255)">
                    <path id="path3380" d="M8456.753,2881.659a1.069,1.069,0,0,0-.272-.761c-.087-.056-.518-.956-.492-.522-.04-.778-.576-.978-1.006-1.5a2.547,2.547,0,0,1-.469-.731c-.1-.315-.278-.405-.437-.66-.094-.15-.014-.281-.124-.435a4.06,4.06,0,0,1-.257-.6c-.051-.132-.078-.271-.14-.4s-.175-.132-.232-.235,0-.232-.076-.319-.2-.1-.283-.176a7.715,7.715,0,0,1-.633-.6c-.22-.262-.483-.152-.734-.337a4.352,4.352,0,0,1-.955-1.315,1.125,1.125,0,0,1-.12-.668c-.016-.291-.227-.531-.248-.826a8.956,8.956,0,0,0,.057-1.154,1.458,1.458,0,0,0-.226-.472c-.051-.077-.349-.463-.01-.2-.077-.194-.244-.2-.289-.408a3.062,3.062,0,0,0-.206-.577,3.66,3.66,0,0,0-.98-1.192,1.775,1.775,0,0,0-.88-.393c-.145-.039-.212-.31-.251-.425a2.5,2.5,0,0,0-.42-.625c.537-.2-.213-1.079-.386-1.292-.12-.144-.452-.405-.437-.594.022-.326-.4-.515-.536-.809-.431-.891-1.107-1.631-1.582-2.5-.145-.267-.3-.677-.624-.767-.147-.041-.717-.135-.727.132-.191-.174.117-.632.17-.816a8.838,8.838,0,0,0,.087-1.17,3.963,3.963,0,0,1,.069-.478,5.639,5.639,0,0,0,1.741.3c.726-.159.717-1.214,1.4-1.322.255-.04.879.025.854-.32-.062-.786.28-.55.757-.711q-.93-.893-1.78-1.861a10.237,10.237,0,0,0,3.138-1.175,10.065,10.065,0,0,1,2.138.446,30.284,30.284,0,0,1,5.467,3.718c.374.284.736.567,1.084.88a1.663,1.663,0,0,0,1.2.389c.6.059,1.238.144,1.841.2.222.021.333-.093.573-.041a8.255,8.255,0,0,0,.991.139c.35.032.377.439.491.7.163.383.722.141,1.038.169s.369.207.478.475c.116.29.691.66.6.985a.651.651,0,0,0-.107-.138c-.1.234.134.207.107.412,0,0,.983.095.609.383.145.045.447.781.595.366-.1.369.787.783.994,1.008a.393.393,0,0,1-.244-.2c0,.407.248.413.34.74.051.191.03.595-.249.345.026.217-.046.26.153.3a4.694,4.694,0,0,1,.308.631c-.058-.05-.114-.1-.169-.153.169.249.472.389.605.663s.177.533.34.8c.126.208.3.565.565.628.12.03.552-.083.49.151a.162.162,0,0,1,.259-.092c-.146.177-.276.66.214.536a3.51,3.51,0,0,0,.278.6,14.623,14.623,0,0,0,1.626,1.893,33.641,33.641,0,0,1,3.74.535.444.444,0,0,0,.289-.2c.229.523.74.8.826,1.137a1.461,1.461,0,0,1-.022.826c-.271,1.056-.42,2.958-.808,3.168-2.657,1.432-5.981,1.932-9.138,2.455a7.238,7.238,0,0,0-1.18.547,3.882,3.882,0,0,0-1.289,1.885.855.855,0,0,1-.7.566c-.31,0-.367-.5-.62-.588-.288-.1-.5.05-.746.02a3.909,3.909,0,0,1-1.242-.164,2.187,2.187,0,0,0-1.178-.115c-.4,0-.826.248-1.226.242-.5-.007-.571-.385-.83-.316-.347.091-.438.546-.457.833s.336.449.033.654c-.057.04-.115.442-.55.585,0-.039.022-.049.021-.086" transform="translate(-8442.715 -2852.736)" fill="#005f61"/>
                    <path id="path5488" d="M9040.611,3077.1c.074-.115.191-.084.277,0a.736.736,0,0,1-.277,0" transform="translate(-9017.147 -3068.218)" fill="#005f61"/>
                  </g>
                  <path id="il" d="M-168.076,46.1c.074-.1.477-.587.291-.7a5.155,5.155,0,0,0,.506-1.73c.035-.181.04-.478.187-.609.11-.1-.057-.309.043-.417s.315,0,.422.014c.252.031.219-.229.3-.382.367.019.093,1.42.124,1.829a.828.828,0,0,0-.5-.432c-.235-.063-.309.234-.355.416-.052.2-.164.928.132.89.618-.08-.265.339-.145.781.067.247.7-.226.837-.228a3.956,3.956,0,0,0-.01.72,3.252,3.252,0,0,1-.214,1.009c-.184.542-.049,1.474-.417,2.009l-1.195-3.168" transform="translate(182.808 -26.143)" fill="#005f61"/>
                  <g id="lb" transform="translate(15.759 13.575)">
                    <path id="lb-" d="M8283.457,2492.245c.337-.395.323-1.105.61-1.549.144-.219-.022-.516.142-.727.129-.165.476-.347.363-.6a.7.7,0,0,0,.455.009c.289-.172.085.156.127.254a.765.765,0,0,1,.211.08c.144.139.063.109.174.311.233.43-.516.5-.217.862-.3-.092-.82.121-.459.458a1.605,1.605,0,0,0-.612.612.182.182,0,0,1-.076-.076c-.052.1-.052.216-.107.317-.115.214-.445-.083-.61.051" transform="translate(-8283.457 -2489.326)" fill="#005f61"/>
                  </g>
                  <g id="kw" transform="translate(34.19 21.996)">
                    <g id="kw-" transform="translate(0 0.039)">
                      <path id="path5440" d="M8973.291,2953.728c.031.066-.363.713.124.666.417-.042-.01-.524-.124-.666" transform="translate(-8970.889 -2953.544)" fill="#005f61"/>
                      <path id="path5486" d="M8915.042,2950.834c.679-.247.361-1.629,1.073-1.76a1.192,1.192,0,0,1,1.028.222c.095.077.331.576.238.7-.2-.283-.49.2-.6.337a.615.615,0,0,1,.732.416c.095.408.408.773.543,1.185-.265-.152-.917.1-1.177-.078-.2-.141-.228-.448-.3-.659-.109-.283-1.124-.207-1.536-.359" transform="translate(-8915.042 -2949.044)" fill="#005f61"/>
                    </g>
                    <path id="kw." d="M8763.471,2706.441a1.279,1.279,0,0,0,0-2.557,1.279,1.279,0,0,0,0,2.557" transform="translate(-8761.879 -2703.884)" fill="#005f61"/>
                  </g>
                  <g id="qa" transform="translate(41.375 29.338)">
                    <path id="qa-" d="M8936.18,2892.479c-.012-.083-.131-.591.107-.351-.018-.083-.068-.541.076-.153.013-.386.148-1.406.68-.844.135.141.391.24.394.461a1.613,1.613,0,0,1-.111.393c-.032.122.043.28.056.4s.141.124.177.23a.681.681,0,0,1-.056.487c-.121.274-.082.475-.385.566-.249.074-.476.274-.642-.094a5.437,5.437,0,0,1-.3-1.1" transform="translate(-8936.14 -2890.966)" fill="#005f61"/>
                  </g>
                  <g id="cy" transform="translate(11.12 11.748)">
                    <path id="cy-" d="M8165.317,2444.008c-.021-.056-.043-.112-.062-.169.208.206.517-.186.754-.17.368.025.092-.344.434-.336a3.506,3.506,0,0,0,1.06-.025c.412-.111.778-.54,1.213-.541-.274.172-.52.575-.826.671-.33.1,0,.422.134.569-.143.017-.464-.011-.574.087s-.164.264-.329.321c-.145.05-.716.111-.628.372-.479-.242-.952-.171-1.177-.781" transform="translate(-8165.255 -2442.768)" fill="#005f61"/>
                  </g>
                </g>
              </g>
            </g>
          </g>
          <g id="Ellipse_11717" data-name="Ellipse 11717" transform="translate(0)" fill="none" stroke="#005f61" stroke-width="3">
            <circle cx="34.9" cy="34.9" r="34.9" stroke="none"/>
            <circle cx="34.9" cy="34.9" r="33.4" fill="none"/>
          </g>
        </g>
      </g>
    </g>
    <rect id="base" width="75" height="75" transform="translate(202.538 1009)" fill="none"/>
  </g>
</svg>
