<svg xmlns="http://www.w3.org/2000/svg" width="75" height="76.348" viewBox="0 0 75 76.348">
  <g id="num-icon5" transform="translate(1987.747 -9709.028)">
    <g id="Group_57077" data-name="Group 57077" transform="translate(4.36 5)">
      <path id="path13472" d="M-1809.57,9949.888l19.132-9.608,18.445,9.5,11.342,10.391,2.291,11.619-2.151,8.923-3.116,9.14-11.459,11.434,1.6,2.905-5.041,6.479-9.394-2.122-2.52-1.564-12.029,3.911-.8-1.229-4.926-5.922-.573-4.245-8.821-9.943-3.322-8.492-1.833-9.5,2.406-10.725,4.239-5.141Z" transform="translate(-164.736 -231.589)" fill="#fff" fill-rule="evenodd"/>
      <g id="g10679" transform="translate(-1990.442 9704.528)">
        <path id="path10681" d="M-4832.147,1550.807c0,12.878-10.705,23.318-23.91,23.318s-23.91-10.44-23.91-23.318,10.705-23.318,23.91-23.318S-4832.147,1537.928-4832.147,1550.807Z" transform="translate(4891.242 -1512.839)" fill="rgba(0,0,0,0)" stroke="#005f61" stroke-linecap="round" stroke-linejoin="round" stroke-width="0.5" fill-rule="evenodd"/>
        <g id="g10685" transform="translate(0 0)">
          <path id="path10687" d="M-527.57,824.8c-.671-3.723-6.294-3.974-7.171-4.578-1.032-.654-.877,0-.516,1.006,1.032,2.616,4.54,3.673,6.139,3.974C-527.828,825.4-527.415,825.5-527.57,824.8Z" transform="translate(561.219 -817.954)" fill="#fff" stroke="#005f61" stroke-width="1"/>
          <path id="path10689" d="M-343.833,713.4c.567-3.824-5-5.635-5.675-6.49-.774-.906-.877-.352-.516.7a11.276,11.276,0,0,0,4.54,5.635C-344.3,713.856-343.936,714.107-343.833,713.4Z" transform="translate(379.185 -706.457)" fill="#fff" stroke="#005f61" stroke-width="1"/>
          <path id="path10691" d="M-57.5,823.965c.516-4.578-4.024-5.283-5.21-6.742-.774-.906-.825-.4-.567.654a11.376,11.376,0,0,0,4.179,5.886C-58.011,824.418-57.547,824.67-57.5,823.965Z" transform="translate(97.438 -814.806)" fill="#fff" stroke="#005f61" stroke-width="1"/>
          <path id="path10693" d="M-385.5,1068.766c-4.694-2.968-8-1.308-9.337-1.459-1.29-.151-1.7.654.516,1.862a11.641,11.641,0,0,0,8.048.7C-384.723,1069.269-385.187,1068.967-385.5,1068.766Z" transform="translate(424.047 -1060.613)" fill="#fff" stroke="#005f61" stroke-width="1"/>
          <path id="path10695" d="M217.941,999.583c-1.444-4.93-4.8-4.125-5.778-4.729s-1.083-.453-.877.654c.413,1.962,3.869,4.125,5.571,4.779C217.476,1000.488,218.25,1000.79,217.941,999.583Z" transform="translate(-172.323 -989.417)" fill="#fff" stroke="#005f61" stroke-width="1"/>
          <path id="path10697" d="M55.82,1237.343c-4.024-3.169-7.171-.8-8.409-1.157-.929-.252-.516.352-.155.6,2.579,1.761,5.778,2.717,8.254,1.61C56.491,1238,56.542,1237.9,55.82,1237.343Z" transform="translate(-10.873 -1226.322)" fill="#fff" stroke="#005f61" stroke-width="1"/>
          <path id="path10699" d="M537.072,1127.5c.052-3.119-6.552-4.427-7.944-6.339-.825-1.157-1.548-.554-1.135,1.308.619,2.415,5.159,5.081,7.635,5.584C537.123,1128.352,537.072,1127.849,537.072,1127.5Z" transform="translate(-483.407 -1113.256)" fill="#fff" stroke="#005f61" stroke-width="1"/>
          <path id="path10701" d="M474.494,1383.915c-4.179-3.673-7.686-2.465-8.976-2.817-1.29-.3-1.806.453.206,1.962a11.624,11.624,0,0,0,7.893,1.811C475.216,1384.519,474.8,1384.167,474.494,1383.915Z" transform="translate(-421.035 -1369.121)" fill="#fff" stroke="#005f61" stroke-width="1"/>
          <path id="path10703" d="M1060.126,1404.816c-1.187-5.333-4.952-6.44-5.881-7.446-.877-1.006-1.805-.7-1.032,1.71a11.222,11.222,0,0,0,5.571,5.987C1060.332,1405.722,1060.229,1405.219,1060.126,1404.816Z" transform="translate(-999.187 -1384.639)" fill="#fff" stroke="#005f61" stroke-width="1"/>
          <path id="path10705" d="M926.346,1579.513c-3.044-4.779-7.016-4.628-8.254-5.283-1.186-.7-2.012-.1-.413,1.962a11.731,11.731,0,0,0,7.428,4.025C926.862,1580.318,926.552,1579.865,926.346,1579.513Z" transform="translate(-865.459 -1558.631)" fill="#fff" stroke="#005f61" stroke-width="1"/>
          <path id="path10707" d="M1452.6,1708.965c1.754-5.433-2.27-7.446-2.682-8.351-.464-.906-.929-.906-1.187.05-1.135,3.874,2.528,7.647,3.1,8.4C1452.4,1709.77,1452.5,1709.418,1452.6,1708.965Z" transform="translate(-1387.794 -1682.399)" fill="#fff" stroke="#005f61" stroke-width="1"/>
          <path id="path10709" d="M1256.745,1907.35c-1.393-6.088-5.055-5.735-5.881-6.591-.877-.855-.98-.251-.825.855.413,2.968,4.075,4.981,5.726,5.987C1256.281,1907.9,1256.9,1908.256,1256.745,1907.35Z" transform="translate(-1192.763 -1879.275)" fill="#fff" stroke="#005f61" stroke-width="1"/>
          <path id="path10711" d="M1683.493,2077.668c2.528-5.735-.464-9.609-1.393-10.465-.928-.8-1.5-1.157-1.186,0,.413,1.761-1.032,6.289,1.186,9.609C1682.822,2077.92,1682.925,2078.976,1683.493,2077.668Z" transform="translate(-1616.002 -2042.448)" fill="#fff" stroke="#005f61" stroke-width="1"/>
          <path id="path10713" d="M1474.615,2296.4a8.068,8.068,0,0,0-3.714-8c-1.29-.755-1.341-.553-1.341.5.1,3.27,3.25,5.987,4.179,7.5C1474.615,2297.8,1474.564,2296.747,1474.615,2296.4Z" transform="translate(-1408.466 -2260.018)" fill="#fff" stroke="#005f61" stroke-width="1"/>
          <path id="path10715" d="M1696.136,2622.151c-1.857-6.641,2.012-10.464,3.2-11.219,1.135-.8,1.857-1.106,1.341.151-.774,1.862.052,7.043-2.889,10.313C1696.858,2622.5,1696.5,2623.66,1696.136,2622.151Z" transform="translate(-1630.554 -2576.617)" fill="#fff" stroke="#005f61" stroke-width="1"/>
          <path id="path10717" d="M1517.373,2630.865c1.548-5.786-1.806-9.056-2.837-9.71-.98-.654-1.6-.906-1.135.151.619,1.61-.052,6.138,2.528,8.955C1516.754,2631.217,1517.063,2632.173,1517.373,2630.865Z" transform="translate(-1451.378 -2586.79)" fill="#fff" stroke="#005f61" stroke-width="1"/>
          <path id="path10719" d="M1506.955,3018.515a8.954,8.954,0,0,0-1.6,9.71c.774,1.459.877,1.358,1.6.3,1.96-3.069.774-7.5.877-9.458C1507.884,3017.207,1507.265,3018.213,1506.955,3018.515Z" transform="translate(-1442.869 -2977.157)" fill="#fff" stroke="#005f61" stroke-width="1"/>
          <path id="path10721" d="M1529.223,3264.7a8.934,8.934,0,0,1-5.21,8.3c-1.548.553-1.548.4-1.341-.8.722-4.528,4.282-6.188,5.571-7.647C1529.481,3263.138,1529.223,3264.3,1529.223,3264.7Z" transform="translate(-1460.546 -3218.712)" fill="#fff" stroke="#005f61" stroke-width="1"/>
          <path id="path10723" d="M1278.905,3407.387c4.54-4.025,2.115-6.842,2.321-9.458.1-1.409-.464-1.057-.98-.553-2.889,2.767-3.044,7.7-2.424,9.609C1278.08,3407.84,1278.493,3407.739,1278.905,3407.387Z" transform="translate(-1219.823 -3349.427)" fill="#fff" stroke="#005f61" stroke-width="1"/>
          <path id="path10725" d="M1117.353,3784.765c-1.5,4.427-5.468,7.144-8.821,7.295-1.96.1-1.909-.05-1.238-1.358,2.528-4.729,7.016-5.283,9.028-6.49C1118.178,3783.1,1117.507,3784.313,1117.353,3784.765Z" transform="translate(-1052.184 -3729.421)" fill="#fff" stroke="#005f61" stroke-width="1"/>
          <path id="path10727" d="M938.965,3781.019c5.881-2.868,4.694-7.647,5.778-8.854.774-.855-.155-.755-.619-.453-3.456,1.962-6.242,5.082-6.294,8.4C937.83,3781.371,937.934,3781.522,938.965,3781.019Z" transform="translate(-886.125 -3717.374)" fill="#fff" stroke="#005f61" stroke-width="1"/>
          <path id="path10729" d="M496.113,4297.608c7.429,1.157,10.885-4.327,13.051-4.83,1.135-.252.31-.7-.258-.755-4.952-.554-11.246,1.71-13.155,4.226C494.978,4297.256,494.978,4297.458,496.113,4297.608Z" transform="translate(-451.32 -4228.63)" fill="#fff" stroke="#005f61" stroke-width="1"/>
          <path id="path10731" d="M253.728,4055.839c-1.5,4.78-7.067,8.7-11.246,9.005-1.96.151-1.96-.05-1.238-1.308,3.353-5.937,9.182-6.943,11.246-8.452C254.244,4053.777,253.883,4055.386,253.728,4055.839Z" transform="translate(-201.404 -3995.464)" fill="#fff" stroke="#005f61" stroke-width="1"/>
          <path id="path10733" d="M83.006,824.8c.671-3.723,6.294-3.974,7.171-4.578,1.032-.654.877,0,.516,1.006-1.032,2.616-4.54,3.673-6.139,3.974C83.264,825.4,82.852,825.5,83.006,824.8Z" transform="translate(-46.365 -817.954)" fill="#fff" stroke="#005f61" stroke-width="1"/>
          <path id="path10735" d="M-13.94,713.4c-.567-3.824,5-5.635,5.675-6.49.774-.906.877-.352.516.7a11.276,11.276,0,0,1-4.54,5.635C-13.476,713.856-13.837,714.107-13.94,713.4Z" transform="translate(48.879 -706.457)" fill="#fff" stroke="#005f61" stroke-width="1"/>
          <path id="path10737" d="M-273.971,823.965c-.516-4.578,4.024-5.283,5.21-6.742.774-.906.825-.4.567.654a11.376,11.376,0,0,1-4.178,5.886C-273.455,824.418-273.919,824.67-273.971,823.965Z" transform="translate(304.319 -814.806)" fill="#fff" stroke="#005f61" stroke-width="1"/>
          <path id="path10739" d="M-210.323,1068.766c4.694-2.968,8-1.308,9.337-1.459,1.29-.151,1.7.654-.516,1.862a11.641,11.641,0,0,1-8.048.7C-211.1,1069.269-210.633,1068.967-210.323,1068.766Z" transform="translate(242.064 -1060.613)" fill="#fff" stroke="#005f61" stroke-width="1"/>
          <path id="path10741" d="M-597,999.583c1.444-4.93,4.8-4.125,5.778-4.729s1.083-.453.877.654c-.413,1.962-3.869,4.125-5.571,4.779C-596.539,1000.488-597.313,1000.79-597,999.583Z" transform="translate(621.676 -989.417)" fill="#fff" stroke="#005f61" stroke-width="1"/>
          <path id="path10743" d="M-582.409,1237.343c4.024-3.169,7.171-.8,8.409-1.157.929-.252.516.352.155.6-2.579,1.761-5.778,2.717-8.254,1.61C-583.08,1238-583.131,1237.9-582.409,1237.343Z" transform="translate(607.753 -1226.322)" fill="#fff" stroke="#005f61" stroke-width="1"/>
          <path id="path10745" d="M-1048.867,1127.5c-.052-3.119,6.552-4.427,7.944-6.339.825-1.157,1.547-.554,1.135,1.308-.619,2.415-5.159,5.081-7.635,5.584C-1048.919,1128.352-1048.867,1127.849-1048.867,1127.5Z" transform="translate(1065.493 -1113.256)" fill="#fff" stroke="#005f61" stroke-width="1"/>
          <path id="path10747" d="M-1053.209,1383.915c4.179-3.673,7.687-2.465,8.976-2.817,1.29-.3,1.806.453-.206,1.962a11.624,11.624,0,0,1-7.893,1.811C-1053.932,1384.519-1053.519,1384.167-1053.209,1383.915Z" transform="translate(1070.042 -1369.121)" fill="#fff" stroke="#005f61" stroke-width="1"/>
          <path id="path10749" d="M-1463.665,1404.816c1.186-5.333,4.952-6.44,5.881-7.446.877-1.006,1.806-.7,1.032,1.71a11.222,11.222,0,0,1-5.571,5.987C-1463.871,1405.722-1463.768,1405.219-1463.665,1404.816Z" transform="translate(1473.017 -1384.639)" fill="#fff" stroke="#005f61" stroke-width="1"/>
          <path id="path10751" d="M-1466.879,1579.513c3.044-4.779,7.016-4.628,8.254-5.283,1.187-.7,2.012-.1.413,1.962a11.731,11.731,0,0,1-7.428,4.025C-1467.4,1580.318-1467.086,1579.865-1466.879,1579.513Z" transform="translate(1476.283 -1558.631)" fill="#fff" stroke="#005f61" stroke-width="1"/>
          <path id="path10753" d="M-1704.415,1708.965c-1.754-5.433,2.27-7.446,2.682-8.351.464-.906.928-.906,1.187.05,1.135,3.874-2.528,7.647-3.1,8.4C-1704.208,1709.77-1704.311,1709.418-1704.415,1708.965Z" transform="translate(1709.898 -1682.399)" fill="#fff" stroke="#005f61" stroke-width="1"/>
          <path id="path10755" d="M-1634.514,1907.35c1.393-6.088,5.056-5.735,5.881-6.591.877-.855.98-.251.825.855-.413,2.968-4.075,4.981-5.726,5.987C-1634.049,1907.9-1634.668,1908.256-1634.514,1907.35Z" transform="translate(1640.822 -1879.275)" fill="#fff" stroke="#005f61" stroke-width="1"/>
          <path id="path10757" d="M-1887.012,2077.668c-2.528-5.735.464-9.609,1.393-10.465.928-.8,1.5-1.157,1.187,0-.413,1.761,1.032,6.289-1.187,9.609C-1886.341,2077.92-1886.444,2078.976-1887.012,2077.668Z" transform="translate(1889.813 -2042.448)" fill="#fff" stroke="#005f61" stroke-width="1"/>
          <path id="path10759" d="M-1761.17,2296.4a8.068,8.068,0,0,1,3.714-8c1.29-.755,1.341-.553,1.341.5-.1,3.27-3.25,5.987-4.178,7.5C-1761.17,2297.8-1761.118,2296.747-1761.17,2296.4Z" transform="translate(1765.312 -2260.018)" fill="#fff" stroke="#005f61" stroke-width="1"/>
          <path id="path10761" d="M-1985.733,2622.151c1.857-6.641-2.012-10.464-3.2-11.219-1.135-.8-1.857-1.106-1.341.151.774,1.862-.052,7.043,2.889,10.313C-1986.455,2622.5-1986.146,2623.66-1985.733,2622.151Z" transform="translate(1990.442 -2576.617)" fill="#fff" stroke="#005f61" stroke-width="1"/>
          <path id="path10763" d="M-1769.45,2630.865c-1.548-5.786,1.805-9.056,2.837-9.71.98-.654,1.6-.906,1.135.151-.619,1.61.052,6.138-2.528,8.955C-1768.831,2631.217-1769.14,2632.173-1769.45,2630.865Z" transform="translate(1773.746 -2586.79)" fill="#fff" stroke="#005f61" stroke-width="1"/>
          <path id="path10765" d="M-1702.406,3018.515a8.954,8.954,0,0,1,1.6,9.71c-.774,1.459-.877,1.358-1.6.3-1.96-3.069-.774-7.5-.877-9.458C-1703.334,3017.207-1702.715,3018.213-1702.406,3018.515Z" transform="translate(1708.611 -2977.157)" fill="#fff" stroke="#005f61" stroke-width="1"/>
          <path id="path10767" d="M-1900.275,3264.7a8.934,8.934,0,0,0,5.21,8.3c1.548.553,1.548.4,1.341-.8-.722-4.528-4.282-6.188-5.571-7.647C-1900.533,3263.138-1900.275,3264.3-1900.275,3264.7Z" transform="translate(1901.889 -3218.712)" fill="#fff" stroke="#005f61" stroke-width="1"/>
          <path id="path10769" d="M-1510.61,3407.387c-4.54-4.025-2.115-6.842-2.322-9.458-.1-1.409.464-1.057.98-.553,2.889,2.767,3.043,7.7,2.424,9.609C-1509.785,3407.84-1510.2,3407.739-1510.61,3407.387Z" transform="translate(1521.82 -3349.427)" fill="#fff" stroke="#005f61" stroke-width="1"/>
          <path id="path10771" d="M-1713.994,3784.765c1.5,4.427,5.468,7.144,8.821,7.295,1.96.1,1.909-.05,1.238-1.358-2.528-4.729-7.016-5.283-9.028-6.49C-1714.819,3783.1-1714.149,3784.313-1713.994,3784.765Z" transform="translate(1719.116 -3729.421)" fill="#fff" stroke="#005f61" stroke-width="1"/>
          <path id="path10773" d="M-1340.082,3781.019c-5.881-2.868-4.694-7.647-5.778-8.854-.774-.855.155-.755.619-.453,3.456,1.962,6.242,5.082,6.294,8.4C-1338.947,3781.371-1339.05,3781.522-1340.082,3781.019Z" transform="translate(1357.533 -3717.374)" fill="#fff" stroke="#005f61" stroke-width="1"/>
          <path id="path10775" d="M-1304,4297.608c-7.428,1.157-10.885-4.327-13.051-4.83-1.135-.252-.309-.7.258-.755,4.952-.554,11.246,1.71,13.155,4.226C-1302.864,4297.256-1302.864,4297.458-1304,4297.608Z" transform="translate(1329.498 -4228.63)" fill="#fff" stroke="#005f61" stroke-width="1"/>
          <path id="path10777" d="M-980.626,4055.839c1.5,4.78,7.067,8.7,11.246,9.005,1.96.151,1.96-.05,1.238-1.308-3.353-5.937-9.182-6.943-11.246-8.452C-981.142,4053.777-980.781,4055.386-980.626,4055.839Z" transform="translate(998.593 -3995.464)" fill="#fff" stroke="#005f61" stroke-width="1"/>
        </g>
        <g id="g10779" transform="translate(1.666 1.713)">
          <path id="path10781" d="M201.008,1314.27c-.98-.7-4.591-.3-5.262-.755C197.036,1314.572,199.925,1313.817,201.008,1314.27Z" transform="translate(-158.81 -1304.51)" fill="#005f61"/>
          <path id="path10783" d="M651.707,1265.7c-.774-1.359-5.365-2.264-6.036-3.471C646.858,1264.543,650.417,1264.241,651.707,1265.7Z" transform="translate(-600.791 -1254.128)" fill="#005f61"/>
          <path id="path10785" d="M567.806,1440.8c-1.7-1.61-5.675-.956-6.861-1.912C563.731,1441.349,565.279,1439.437,567.806,1440.8Z" transform="translate(-517.561 -1427.664)" fill="#005f61"/>
          <path id="path10787" d="M374.17,1142.559a6.206,6.206,0,0,1,3.1,2.415c-.774-1.006-2.167-1.409-3.3-2.264C374.015,1142.71,374.118,1142.609,374.17,1142.559Z" transform="translate(-333.88 -1136.572)" fill="#005f61"/>
          <path id="path10789" d="M1163.121,1522.386c-.671-1.509-3.043-3.17-3.25-3.723C1160.542,1520.625,1162.5,1521.078,1163.121,1522.386Z" transform="translate(-1105.911 -1506.035)" fill="#005f61"/>
          <path id="path10791" d="M1011.63,1656.6c-2.064-3.17-5.313-2.818-6.6-4.025C1006.007,1653.736,1009.721,1654.49,1011.63,1656.6Z" transform="translate(-953.801 -1637.587)" fill="#005f61"/>
          <path id="path10793" d="M1510.027,1793.035c.155-3.371-2.425-4.628-2.528-6.54C1507.448,1788.759,1510.13,1791.828,1510.027,1793.035Z" transform="translate(-1447.401 -1769.138)" fill="#005f61"/>
          <path id="path10795" d="M1319.358,1990.774c-.516-2.918-4.024-3.119-4.643-4.83C1314.715,1987.554,1318.842,1989.214,1319.358,1990.774Z" transform="translate(-1258.021 -1965.066)" fill="#005f61"/>
          <path id="path10797" d="M1741.267,2165.448c1.857,2.214.568,5.584,1.341,8.05C1741.68,2171.687,1742.145,2167.159,1741.267,2165.448Z" transform="translate(-1677.042 -2141.4)" fill="#005f61"/>
          <path id="path10799" d="M1568.894,2701.112c2.786,2.918,1.651,6.188,2.786,7.6C1570.286,2706.746,1570.493,2702.923,1568.894,2701.112Z" transform="translate(-1507.712 -2667.605)" fill="#005f61"/>
          <path id="path10801" d="M1775.572,2723.906c-2.373,2.566-.929,6.44-2.167,8.251C1774.8,2730.6,1774.592,2725.817,1775.572,2723.906Z" transform="translate(-1708.612 -2689.997)" fill="#005f61"/>
          <path id="path10803" d="M1536.014,2382.432c-.309-2.968-3.147-4.528-3.4-6.138C1532.3,2377.9,1535.343,2380.42,1536.014,2382.432Z" transform="translate(-1472.046 -2348.523)" fill="#005f61"/>
          <path id="path10805" d="M1585.914,3125.654c.464,2.063-1.238,6.49-.722,7.848C1584.057,3131.137,1586.172,3126.66,1585.914,3125.654Z" transform="translate(-1523.391 -3084.651)" fill="#005f61"/>
          <path id="path10807" d="M1622.688,3393.485c-1.135,3.673-3.4,3.421-4.127,5.635C1619.077,3397.007,1622.069,3395.1,1622.688,3393.485Z" transform="translate(-1556.502 -3347.754)" fill="#005f61"/>
          <path id="path10809" d="M1351.271,3490.36c-1.5,2.465-.258,5.283-1.5,7.043C1351.529,3495.643,1350.6,3492.373,1351.271,3490.36Z" transform="translate(-1292.462 -3442.918)" fill="#005f61"/>
          <path id="path10811" d="M1248.692,3872.163c-1.806,3.27-5.52,2.969-7.016,5.333C1243.172,3874.528,1247.763,3874.025,1248.692,3872.163Z" transform="translate(-1186.271 -3817.979)" fill="#005f61"/>
          <path id="path10813" d="M1009.67,3849.369c-3.2,2.163-2.218,4.427-4.643,6.842C1008.07,3853.8,1007.813,3851.13,1009.67,3849.369Z" transform="translate(-953.801 -3795.587)" fill="#005f61"/>
          <path id="path10815" d="M614.983,4345.037c-3.1-.1-7.532,3.824-10.214,3.522C607.452,4349.112,612.4,4345.59,614.983,4345.037Z" transform="translate(-560.611 -4282.501)" fill="#005f61"/>
          <path id="path10817" d="M391.859,4145.693c-.206,3.069-8.254,5.031-9.131,7.094C383.708,4150.07,390.776,4148.058,391.859,4145.693Z" transform="translate(-342.491 -4086.68)" fill="#005f61"/>
          <path id="path10819" d="M-277.842,805.91c-1.032-.855-2.27-1.56-2.631-2.415a5.253,5.253,0,0,0,2.321,2.666C-278.048,806.111-277.945,805.96-277.842,805.91Z" transform="translate(309 -803.495)" fill="#005f61"/>
          <path id="path10821" d="M-469.016,893.584c-1.6-.755-3.456-.7-4.282-1.761.516,1.057,2.27,1.459,3.766,2.012A2.43,2.43,0,0,1-469.016,893.584Z" transform="translate(498.42 -890.263)" fill="#005f61"/>
          <path id="path10823" d="M-493.749,1314.27c.98-.7,4.591-.3,5.262-.755C-489.776,1314.572-492.665,1313.817-493.749,1314.27Z" transform="translate(518.51 -1304.51)" fill="#005f61"/>
          <path id="path10825" d="M-987.5,1265.7c.774-1.359,5.365-2.264,6.036-3.471C-982.648,1264.543-986.208,1264.241-987.5,1265.7Z" transform="translate(1003.541 -1254.128)" fill="#005f61"/>
          <path id="path10827" d="M-949.517,1440.8c1.7-1.61,5.674-.956,6.861-1.912C-945.441,1441.349-946.989,1439.437-949.517,1440.8Z" transform="translate(966.231 -1427.664)" fill="#005f61"/>
          <path id="path10829" d="M-560.945,1086.2c.98-2.012,3.766-2.264,4.488-3.471C-557.541,1084.535-559.914,1084.837-560.945,1086.2Z" transform="translate(584.521 -1077.794)" fill="#005f61"/>
          <path id="path10831" d="M-111.02,1134.816c2.837-1.308,5.623-.2,6.964-.8C-105.707,1134.866-109.628,1134.464-111.02,1134.816Z" transform="translate(142.54 -1128.175)" fill="#005f61"/>
          <path id="path10833" d="M-1343.931,1522.386c.671-1.509,3.044-3.17,3.25-3.723C-1341.352,1520.625-1343.312,1521.078-1343.931,1522.386Z" transform="translate(1353.681 -1506.035)" fill="#005f61"/>
          <path id="path10835" d="M-1378.99,1656.6c2.063-3.17,5.313-2.818,6.6-4.025C-1373.368,1653.736-1377.082,1654.49-1378.99,1656.6Z" transform="translate(1388.121 -1637.587)" fill="#005f61"/>
          <path id="path10837" d="M-1651.07,1793.035c-.155-3.371,2.425-4.628,2.528-6.54C-1648.491,1788.759-1651.174,1791.828-1651.07,1793.035Z" transform="translate(1655.404 -1769.138)" fill="#005f61"/>
          <path id="path10839" d="M-1577.659,1990.774c.516-2.918,4.024-3.119,4.643-4.83C-1573.016,1987.554-1577.143,1989.214-1577.659,1990.774Z" transform="translate(1583.282 -1965.066)" fill="#005f61"/>
          <path id="path10841" d="M-1815.888,2165.448c-1.857,2.214-.568,5.584-1.341,8.05C-1816.3,2171.687-1816.765,2167.159-1815.888,2165.448Z" transform="translate(1818.622 -2141.4)" fill="#005f61"/>
          <path id="path10843" d="M-1723.874,2701.112c-2.786,2.918-1.651,6.188-2.786,7.6C-1725.267,2706.746-1725.473,2702.923-1723.874,2701.112Z" transform="translate(1729.652 -2667.605)" fill="#005f61"/>
          <path id="path10845" d="M-1896.112,2723.906c2.373,2.566.929,6.44,2.167,8.251C-1895.338,2730.6-1895.132,2725.817-1896.112,2723.906Z" transform="translate(1896.112 -2689.997)" fill="#005f61"/>
          <path id="path10847" d="M-1726.66,2382.432c.31-2.968,3.147-4.528,3.4-6.138C-1722.945,2377.9-1725.989,2380.42-1726.66,2382.432Z" transform="translate(1729.652 -2348.523)" fill="#005f61"/>
          <path id="path10849" d="M-1649.37,3125.654c-.464,2.063,1.238,6.49.722,7.848C-1647.512,3131.137-1649.628,3126.66-1649.37,3125.654Z" transform="translate(1653.806 -3084.651)" fill="#005f61"/>
          <path id="path10851" d="M-1852.288,3393.485c1.135,3.673,3.4,3.421,4.127,5.635C-1848.677,3397.007-1851.669,3395.1-1852.288,3393.485Z" transform="translate(1853.062 -3347.754)" fill="#005f61"/>
          <path id="path10853" d="M-1434.5,3490.36c1.5,2.465.258,5.283,1.5,7.043C-1434.759,3495.643-1433.83,3492.373-1434.5,3490.36Z" transform="translate(1442.651 -3442.918)" fill="#005f61"/>
          <path id="path10855" d="M-1639.012,3872.163c1.806,3.27,5.52,2.969,7.016,5.333C-1633.492,3874.528-1638.083,3874.025-1639.012,3872.163Z" transform="translate(1643.552 -3817.979)" fill="#005f61"/>
          <path id="path10857" d="M-1267.97,3849.369c3.2,2.163,2.218,4.427,4.643,6.842C-1266.371,3853.8-1266.113,3851.13-1267.97,3849.369Z" transform="translate(1279.061 -3795.587)" fill="#005f61"/>
          <path id="path10859" d="M-1183.244,4345.037c3.1-.1,7.531,3.824,10.214,3.522C-1175.712,4349.112-1180.665,4345.59-1183.244,4345.037Z" transform="translate(1195.831 -4282.501)" fill="#005f61"/>
          <path id="path10861" d="M-899.85,4145.693c.206,3.069,8.254,5.031,9.131,7.094C-891.7,4150.07-898.766,4148.058-899.85,4145.693Z" transform="translate(917.441 -4086.68)" fill="#005f61"/>
          <path id="path10863" d="M-236.649,916.6c.619-2.717,3.714-3.22,4.127-4.83C-232.677,913.478-236.339,915.39-236.649,916.6Z" transform="translate(265.95 -909.856)" fill="#005f61"/>
          <path id="path10865" d="M42.262,803.5c-.464,2.063-3.817,3.22-4.282,4.779C38.135,806.162,41.592,804.954,42.262,803.5Z" transform="translate(-3.83 -803.495)" fill="#005f61"/>
          <path id="path10867" d="M131.472,895.143c1.6-2.516,4.9-1.862,6.036-3.32C136.682,893.533,132.606,893.584,131.472,895.143Z" transform="translate(-95.67 -890.263)" fill="#005f61"/>
        </g>
        <g id="g10869" transform="translate(16.377 63.881)">
          <path id="path10871" d="M-1046.983,4544.383c-4.54,2.213-10.214,1.61-15.012-1.408-.206-.1-.309.05-.1.6a4.251,4.251,0,0,1-.619,4.779c-.671.956.1,1.107,1.238,1.006a62.5,62.5,0,0,0,14.186-2.867Z" transform="translate(1062.966 -4539.084)" fill="#fff" stroke="#005f61" stroke-width="1"/>
          <path id="path10873" d="M-679.621,4772.534a47.792,47.792,0,0,1-8.357,2.164c-1.393.2-1.341,1.056,1.135,1.358,2.528.251,5.778-1.509,7.738-3.068Z" transform="translate(695.501 -4764.619)" fill="#fff" stroke="#005f61" stroke-width="1"/>
          <path id="path10875" d="M-361.694,4327.391c.619,0,1.754-.251,2.889-.4,2.115-.352.567,2.817-2.889,2.817v1.057c3.508,0,7.171-3.723,6.4-5.383-1.083-2.415-4.075-.352-6.4-.352s-5.313-2.062-6.4.352c-.774,1.66,2.889,5.383,6.4,5.383v-1.057c-3.456,0-5-3.169-2.889-2.817C-363.448,4327.14-362.313,4327.391-361.694,4327.391Z" transform="translate(380.463 -4324.307)" fill="#fff" stroke="#005f61" stroke-width="1"/>
          <path id="path10877" d="M157.766,4544.383c4.54,2.213,10.214,1.61,15.012-1.408.206-.1.31.05.1.6a4.251,4.251,0,0,0,.619,4.779c.671.956-.1,1.107-1.238,1.006a62.506,62.506,0,0,1-14.186-2.867Z" transform="translate(-136.211 -4539.084)" fill="#fff" stroke="#005f61" stroke-width="1"/>
          <path id="path10879" d="M134.909,4772.534a46.562,46.562,0,0,0,8.357,2.164c1.393.2,1.341,1.056-1.135,1.358-2.528.251-5.778-1.509-7.738-3.068Z" transform="translate(-113.251 -4764.619)" fill="#fff" stroke="#005f61" stroke-width="1"/>
          <path id="path10881" d="M-197.875,4531.32c.1.855.258,2.717,1.444,1.912,1.6-1.057,1.96-1.861,1.96-3.371,0-.956-1.187-2.365-3.559-2.365s-3.559,1.409-3.559,2.365c0,1.509.361,2.314,1.96,3.371,1.187.805,1.29-1.057,1.444-1.912C-198.133,4531.018-197.875,4531.119-197.875,4531.32Z" transform="translate(216.799 -4523.909)" fill="#fff" stroke="#005f61" stroke-width="1"/>
        </g>
        <path id="path10883" d="M-1145.131,2029.759c11.349,0,20.583-9.005,20.583-20.074a19.766,19.766,0,0,0-7.171-15.194,17.2,17.2,0,0,1,4.23,11.32,17.525,17.525,0,0,1-17.643,17.407,17.525,17.525,0,0,1-17.643-17.407,17.2,17.2,0,0,1,4.23-11.32,19.766,19.766,0,0,0-7.171,15.194C-1165.714,2020.753-1156.48,2029.759-1145.131,2029.759Z" transform="translate(1180.277 -1971.749)" fill="#005f61"/>
        <path id="path10885" d="M-5178.426,1661.93c0,13.8-11.473,24.989-25.624,24.989s-25.623-11.188-25.623-24.989,11.472-24.989,25.623-24.989S-5178.426,1648.129-5178.426,1661.93Z" transform="translate(5239.233 -1623.962)" fill="rgba(0,0,0,0)" stroke="#005f61" stroke-linecap="round" stroke-linejoin="round" stroke-width="0.5" fill-rule="evenodd"/>
        <g id="g10887" transform="translate(19.516 19.729)">
          <path id="path10889" d="M4798.28,12274.5c-2.074,3.03-.58,5,1.554,5.147,1.409.095,4.335-1.941,4.33-4.346l-.8-.434c.443,1.227-.022,1.62-.967,2.457C4800.518,12278.994,4796.681,12279.114,4798.28,12274.5Z" transform="translate(-4795.754 -12254.234)" fill="#005f61" fill-rule="evenodd"/>
          <path id="path10891" d="M5642.189,11606.584c11.656.323,15.371-10.676,8.171-20.1l-.71,1.04c.465,4.39,1.132,8.715,1.2,13.209-1.411,1.612-3.458,1.02-3.864-.779a13.345,13.345,0,0,0-1.821-6.454l-.577,1.04a17.7,17.7,0,0,1,1.554,5.414c-3.328,3.9-7,4.68-5.64-.434-2.632,4.48,1.354,7.641,5.862.735.966,4.716,4.71,1.788,4.93.78a40.472,40.472,0,0,0-.622-12c3.246,5.482,3.36,9.434,1.632,12.076C5650.38,11604.06,5646.208,11605.433,5642.189,11606.584Z" transform="translate(-5623.254 -11578.368)" fill="#005f61" fill-rule="evenodd"/>
          <path id="path10893" d="M5709.177,11858.429c-2.493.178-3.773-.325-2.417-2.121,1.335-1.769,2.58-.359,2.912,1.99.313,2.209-4.375,5.026-6,5.026-2.455,0-3.592-3.079-1.329-5.849C5699.434,11865.554,5708.626,11860.867,5709.177,11858.429Zm-1.726-1.877c-.3-.013-.521.51-.37.612a1.119,1.119,0,0,0,1.2-.029C5708.436,11856.8,5707.879,11856.57,5707.451,11856.552Z" transform="translate(-5683.633 -11842.643)" fill="#005f61" fill-rule="evenodd"/>
          <path id="path10895" d="M5336.023,11613.625c-2.4,4.595-.009,6.5,3.067,5.967a9.454,9.454,0,0,0,5.371-3.246c.022-3.727-.033-7.427-.363-11.037,1.2-1.39-.107-1.383-.563-2.881-.21.868-.71,1.812-.224,2.5.345,3.64.54,7.328.529,11.082-2.414,1.9-4.227,2.6-5.529,2.587C5335.632,11618.566,5335.062,11616.368,5336.023,11613.625Z" transform="translate(-5324.015 -11594.026)" fill="#005f61" fill-rule="evenodd"/>
          <path id="path10897" d="M5591.521,11597.372c-.042-3.472-.1-7.4-.417-9.829,1.242-1.354-.064-1.386-.472-2.9-.238.861-.768,1.79-.3,2.489.208,3.711.4,7.423.447,11.134C5591.065,11598.089,5591.393,11598.02,5591.521,11597.372Z" transform="translate(-5574.613 -11576.56)" fill="#005f61" fill-rule="evenodd"/>
          <path id="path10899" d="M5087.335,11611.68c-.3-.378-.521-.8-.77-1.166-.037-.521.323-1.009.369-1.269a8.215,8.215,0,0,0,.978,1.387m.427.243a6.1,6.1,0,0,0,2.021.245c2.617.052,5.376-.371,5.084,3.087a5.246,5.246,0,0,1-5.213,4.829c-3.339-.034-6.184-3.618-1.042-10.218a7.448,7.448,0,0,1,1.682.1,3.946,3.946,0,0,0,2.942-.858c-.132-2.173-.129-4.24-.4-6.2-.465-.7.064-1.626.3-2.488.408,1.51,1.714,1.543.473,2.895a43.967,43.967,0,0,1,.327,5.737,4.07,4.07,0,0,1-2.931,2.279c-1.864-.264-2.7-2.8-4.647-1.959.537-2.293,5.467-2.817,5.967-1.011-.328,1.892-4.937,1.128-6.155,7.227-.377,1.883,1.653,3.612,3.738,3.476,2.042-.136,4.216-1.517,4.426-3.843.176-1.937-2.637-1.714-3.812-1.689a6.865,6.865,0,0,1-3.435-.58m1.748-4.205c.306-.279,1.371-.479,1.754-.022a4.323,4.323,0,0,0-.8.629A7.232,7.232,0,0,1,5089.412,11607.7Z" transform="translate(-5079.736 -11591.027)" fill="#005f61" fill-rule="evenodd"/>
          <path id="path10901" d="M4722.768,11705.712a3.8,3.8,0,0,1,.424,1.637,1.984,1.984,0,0,1-1.624,1.592,1.32,1.32,0,0,1-1.323-.806c-.042-.083-.235-.283-.417-.19-.81,1.289-1.412,1.841-2.134,1.828-1.461-.023-1.028-1.285-2.367-1.671a2.472,2.472,0,0,0-1.956,1.621c-1.785,4.95-3.422-.017-2.724-2.326.106,2.207.645,3.518,1.208,3.473.407-.032.765-.951,1.283-1.918.4-.742,1.365-2.078,2.376-2.075.927.02.349,1.682,2.2,1.653.9-.012,1.719-.677,2.545-2.021.186-.032.238.287.271.4.134.453.945,1.718,2.047.565-.053-.252-.027-.665-.31-.748Z" transform="translate(-4710.481 -11695.487)" fill="#005f61" fill-rule="evenodd"/>
          <path id="path10903" d="M4923.438,11343.544a1.7,1.7,0,0,1-2.109-.385c.705-.137,1.257-.388,1.421-.932-.323-.7-1.079-1.007-2.154-1.017-1.43.038-2.162.6-2.253,1.374.665.025,1.263-.153,1.52.467a9.271,9.271,0,0,1-4.063.758c-2.458.124-2.819-.956-3.471-1.909a.567.567,0,0,0-.374-.146c-.757,0-1.316,2.586-2.172,2.574-.856-.108-.662-1.662-.911-2.555-.212,1.4.26,6.587,2.909.953.082-.185.2-.137.267.021a3.942,3.942,0,0,0,3.711,2.2,9.553,9.553,0,0,0,4.748-1.468,2.737,2.737,0,0,0,1.843,1.191,2.764,2.764,0,0,0,2.678-1.778c.144-.521.17-1.55-.4-1.567-.795-.023-1.367,1.847-1.185,3.529.014-.022.1-.421.1-.421m-3.5-2.243c.522-.234,1.024-.34,1.429.169a2.067,2.067,0,0,0-.671.317A5.583,5.583,0,0,1,4920.044,11342.2Zm3.825,1.166c.132-.56.2-1,.663-1.289C4924.632,11342.652,4924.649,11342.981,4923.869,11343.361Z" transform="translate(-4905.325 -11337.422)" fill="#005f61" fill-rule="evenodd"/>
          <path id="path10905" d="M5852.3,11133.4a6.829,6.829,0,0,1-.355-1.4,1.437,1.437,0,0,1,1.643-1.557,9.426,9.426,0,0,1,2.238.668c.643.215,1.505.375,2.322.605.464.2,0,.729-.116.8-2.066.793-3.525,2.039-4.841,2.1-.777.033-1.475-.463-2.109-1.488-.035-1.977-.113-4.3-.311-5.76a2.663,2.663,0,0,0,.511-.758c.161,1.93.223,3.955.266,6A1.443,1.443,0,0,0,5852.3,11133.4Zm1.32.16c-1.107.3-.972-.607-1.076-1.172-.12-.656-.034-1.393.82-1.207a23.524,23.524,0,0,1,3.109,1.072Z" transform="translate(-5830.637 -11126.605)" fill="#005f61" fill-rule="evenodd"/>
          <path id="path10907" d="M5950.671,11574.832l.157.726h.123l-.052-.673" transform="translate(-5928.773 -11566.918)" fill="#005f61" fill-rule="evenodd"/>
          <path id="path10919" d="M4954.146,11972.762l.566-.562.644.541-.6.52Z" transform="translate(-4949.844 -11957.268)" fill="#005f61" fill-rule="evenodd"/>
          <path id="path10921" d="M5035.058,11962.34l.566-.563.644.542-.6.52Z" transform="translate(-5029.327 -11947.029)" fill="#005f61" fill-rule="evenodd"/>
          <path id="path10923" d="M4810.977,11632.794l.566-.563.644.542-.6.52Z" transform="translate(-4809.203 -11623.302)" fill="#005f61" fill-rule="evenodd"/>
          <path id="path10925" d="M4825.239,11726.5l.566-.564.644.543-.6.52Z" transform="translate(-4823.212 -11715.349)" fill="#005f61" fill-rule="evenodd"/>
          <path id="path10927" d="M5407.244,11891.507l.52-.413.48.5-.543.376Z" transform="translate(-5394.941 -11877.596)" fill="#005f61" fill-rule="evenodd"/>
          <path id="path10929" d="M5018.4,11294.769l.371-.369.423.355-.394.34Z" transform="translate(-5012.958 -11291.437)" fill="#005f61" fill-rule="evenodd"/>
          <path id="path10931" d="M5071.507,11287.926l.372-.37.422.355-.394.34Z" transform="translate(-5065.132 -11284.714)" fill="#005f61" fill-rule="evenodd"/>
          <path id="path10933" d="M6145.495,11528.526l-.35.287-.333-.339.366-.261Z" transform="translate(-6119.486 -11521.123)" fill="#005f61" fill-rule="evenodd"/>
          <path id="path11011" d="M5244.278,12131.92l-.039.612,1.009.1.8-.595Z" transform="translate(-5234.814 -12114.17)" fill="#005f61" fill-rule="evenodd"/>
          <path id="path11013" d="M5728.491,11476.5l.3-.065-.031.8-.186.071Z" transform="translate(-5710.516 -11470.257)" fill="#005f61" fill-rule="evenodd"/>
        </g>
        <path id="path11015" d="M-4526.791,1452.823c0,12.065-10.028,21.845-22.4,21.845s-22.4-9.78-22.4-21.845,10.029-21.845,22.4-21.845S-4526.791,1440.758-4526.791,1452.823Z" transform="translate(4584.375 -1414.855)" fill="rgba(0,0,0,0)" stroke="#005f61" stroke-linecap="round" stroke-linejoin="round" stroke-width="0.5" fill-rule="evenodd"/>
        <g id="Group_57075" data-name="Group 57075" transform="translate(10.4 13.809)">
          <path id="path11017" d="M-1309.818,3312.132a.879.879,0,0,1,1.154.424l.962,2.073a.841.841,0,0,1-.435,1.126.88.88,0,0,1-1.154-.424l-.962-2.072A.841.841,0,0,1-1309.818,3312.132Z" transform="translate(1311.939 -3280.098)" fill="#f2f2f2" stroke="#005f61" stroke-linecap="round" stroke-linejoin="round" stroke-width="0.5" fill-rule="evenodd"/>
          <path id="path11019" d="M-1400.1,2946.657a.867.867,0,0,1,.985.724l.324,2.253a.852.852,0,0,1-.742.96.867.867,0,0,1-.985-.724l-.324-2.252A.853.853,0,0,1-1400.1,2946.657Z" transform="translate(1400.862 -2921.143)" fill="#f2f2f2" stroke="#005f61" stroke-linecap="round" stroke-linejoin="round" stroke-width="0.5" fill-rule="evenodd"/>
          <path id="path11021" d="M-1400.085,2571.145a.852.852,0,0,1,.736.965l-.339,2.25a.868.868,0,0,1-.99.718.852.852,0,0,1-.736-.966l.34-2.25A.867.867,0,0,1-1400.085,2571.145Z" transform="translate(1401.424 -2552.261)" fill="#f2f2f2" stroke="#005f61" stroke-linecap="round" stroke-linejoin="round" stroke-width="0.5" fill-rule="evenodd"/>
          <path id="path11023" d="M-1308.911,2216.01a.84.84,0,0,1,.427,1.128l-.976,2.066a.88.88,0,0,1-1.157.417.84.84,0,0,1-.427-1.129l.976-2.066A.879.879,0,0,1-1308.911,2216.01Z" transform="translate(1312.719 -2203.328)" fill="#f2f2f2" stroke="#005f61" stroke-linecap="round" stroke-linejoin="round" stroke-width="0.5" fill-rule="evenodd"/>
          <path id="path11025" d="M-1115.883,1910.05a.834.834,0,0,1,.084,1.2l-1.533,1.714a.886.886,0,0,1-1.231.082.834.834,0,0,1-.084-1.2l1.533-1.714A.886.886,0,0,1-1115.883,1910.05Z" transform="translate(1123.852 -1902.641)" fill="#f2f2f2" stroke="#005f61" stroke-linecap="round" stroke-linejoin="round" stroke-width="0.5" fill-rule="evenodd"/>
          <path id="path11027" d="M-836.648,1678.027a.836.836,0,0,1-.266,1.175l-1.966,1.224a.884.884,0,0,1-1.2-.259.836.836,0,0,1,.266-1.175l1.966-1.224A.883.883,0,0,1-836.648,1678.027Z" transform="translate(850.131 -1674.535)" fill="#f2f2f2" stroke="#005f61" stroke-linecap="round" stroke-linejoin="round" stroke-width="0.5" fill-rule="evenodd"/>
          <path id="path11029" d="M-493.807,1538.739a.846.846,0,0,1-.595,1.054l-2.24.634a.874.874,0,0,1-1.081-.58.846.846,0,0,1,.594-1.054l2.24-.634A.874.874,0,0,1-493.807,1538.739Z" transform="translate(513.714 -1537.49)" fill="#f2f2f2" stroke="#005f61" stroke-linecap="round" stroke-linejoin="round" stroke-width="0.5" fill-rule="evenodd"/>
          <path id="path11031" d="M-839.047,3897.885a.884.884,0,0,1,1.206-.251l1.958,1.236a.837.837,0,0,1,.258,1.177.884.884,0,0,1-1.206.252l-1.958-1.237A.836.836,0,0,1-839.047,3897.885Z" transform="translate(849.115 -3855.202)" fill="#f2f2f2" stroke="#005f61" stroke-linecap="round" stroke-linejoin="round" stroke-width="0.5" fill-rule="evenodd"/>
          <path id="path11033" d="M-496.69,4070.753a.874.874,0,0,1,1.085-.573l2.235.649a.846.846,0,0,1,.587,1.058.874.874,0,0,1-1.085.573l-2.236-.649A.846.846,0,0,1-496.69,4070.753Z" transform="translate(512.701 -4024.801)" fill="#f2f2f2" stroke="#005f61" stroke-linecap="round" stroke-linejoin="round" stroke-width="0.5" fill-rule="evenodd"/>
          <path id="path11035" d="M-1117.606,3638a.886.886,0,0,1,1.23.09l1.521,1.724a.834.834,0,0,1-.092,1.2.886.886,0,0,1-1.23-.09l-1.521-1.724A.834.834,0,0,1-1117.606,3638Z" transform="translate(1122.916 -3600.083)" fill="#f2f2f2" stroke="#005f61" stroke-linecap="round" stroke-linejoin="round" stroke-width="0.5" fill-rule="evenodd"/>
          <path id="path11037" d="M-114.328,1503.014a.859.859,0,0,1-.869.854l-2.332.009a.86.86,0,0,1-.876-.847.86.86,0,0,1,.869-.854l2.332-.009A.86.86,0,0,1-114.328,1503.014Z" transform="translate(141.059 -1502.167)" fill="#f2f2f2" stroke="#005f61" stroke-linecap="round" stroke-linejoin="round" stroke-width="0.5" fill-rule="evenodd"/>
          <path id="path11039" d="M1158.885,2209.773a.879.879,0,0,1-1.157-.416l-.978-2.065a.84.84,0,0,1,.426-1.129.879.879,0,0,1,1.157.416l.978,2.065A.84.84,0,0,1,1158.885,2209.773Z" transform="translate(-1111.501 -2193.656)" fill="#f2f2f2" stroke="#005f61" stroke-linecap="round" stroke-linejoin="round" stroke-width="0.5" fill-rule="evenodd"/>
          <path id="path11041" d="M1287.422,2564.338a.867.867,0,0,1-.99-.717l-.342-2.25a.853.853,0,0,1,.735-.966.868.868,0,0,1,.991.717l.341,2.25A.852.852,0,0,1,1287.422,2564.338Z" transform="translate(-1238.627 -2541.711)" fill="#f2f2f2" stroke="#005f61" stroke-linecap="round" stroke-linejoin="round" stroke-width="0.5" fill-rule="evenodd"/>
          <path id="path11043" d="M1290.4,2939.837a.853.853,0,0,1-.743-.96l.322-2.253a.867.867,0,0,1,.984-.725.853.853,0,0,1,.743.96l-.322,2.253A.867.867,0,0,1,1290.4,2939.837Z" transform="translate(-1242.134 -2910.575)" fill="#f2f2f2" stroke="#005f61" stroke-linecap="round" stroke-linejoin="round" stroke-width="0.5" fill-rule="evenodd"/>
          <path id="path11045" d="M1166.513,3305.827a.84.84,0,0,1-.436-1.125l.96-2.073a.88.88,0,0,1,1.154-.425.84.84,0,0,1,.436,1.125l-.96,2.073A.879.879,0,0,1,1166.513,3305.827Z" transform="translate(-1120.666 -3270.345)" fill="#f2f2f2" stroke="#005f61" stroke-linecap="round" stroke-linejoin="round" stroke-width="0.5" fill-rule="evenodd"/>
          <path id="path11047" d="M944.835,3632.728a.835.835,0,0,1-.093-1.2l1.52-1.726a.886.886,0,0,1,1.23-.091.835.835,0,0,1,.093,1.2l-1.52,1.725A.886.886,0,0,1,944.835,3632.728Z" transform="translate(-903.107 -3591.943)" fill="#f2f2f2" stroke="#005f61" stroke-linecap="round" stroke-linejoin="round" stroke-width="0.5" fill-rule="evenodd"/>
          <path id="path11049" d="M643.3,3894.078a.836.836,0,0,1,.257-1.177l1.957-1.238a.884.884,0,0,1,1.206.251.836.836,0,0,1-.257,1.177l-1.957,1.238A.884.884,0,0,1,643.3,3894.078Z" transform="translate(-607.061 -3849.336)" fill="#f2f2f2" stroke="#005f61" stroke-linecap="round" stroke-linejoin="round" stroke-width="0.5" fill-rule="evenodd"/>
          <path id="path11051" d="M286.34,4068.729a.846.846,0,0,1,.586-1.058l2.235-.65a.874.874,0,0,1,1.085.572.846.846,0,0,1-.586,1.059l-2.235.65a.874.874,0,0,1-1.085-.572Z" transform="translate(-256.503 -4021.697)" fill="#f2f2f2" stroke="#005f61" stroke-linecap="round" stroke-linejoin="round" stroke-width="0.5" fill-rule="evenodd"/>
          <path id="path11053" d="M628.558,1674.352a.884.884,0,0,1-1.2.26l-1.967-1.222a.836.836,0,0,1-.267-1.174.883.883,0,0,1,1.2-.26l1.967,1.222A.836.836,0,0,1,628.558,1674.352Z" transform="translate(-589.202 -1668.825)" fill="#f2f2f2" stroke="#005f61" stroke-linecap="round" stroke-linejoin="round" stroke-width="0.5" fill-rule="evenodd"/>
          <path id="path11055" d="M269.706,1536.842a.874.874,0,0,1-1.08.581l-2.24-.632a.846.846,0,0,1-.6-1.054.874.874,0,0,1,1.08-.581l2.24.632A.846.846,0,0,1,269.706,1536.842Z" transform="translate(-236.317 -1534.54)" fill="#f2f2f2" stroke="#005f61" stroke-linecap="round" stroke-linejoin="round" stroke-width="0.5" fill-rule="evenodd"/>
          <path id="path11057" d="M933.177,1904.886a.886.886,0,0,1-1.231-.081l-1.534-1.713a.834.834,0,0,1,.083-1.2.886.886,0,0,1,1.231.081l1.534,1.713A.834.834,0,0,1,933.177,1904.886Z" transform="translate(-889.026 -1894.627)" fill="#f2f2f2" stroke="#005f61" stroke-linecap="round" stroke-linejoin="round" stroke-width="0.5" fill-rule="evenodd"/>
          <path id="path10683" d="M-118.26,4142.607a.86.86,0,0,1,.875-.847l2.332.008a.86.86,0,0,1,.869.854.86.86,0,0,1-.875.847l-2.332-.009A.859.859,0,0,1-118.26,4142.607Z" transform="translate(140.917 -4095.152)" fill="#f2f2f2" stroke="#005f61" stroke-linecap="round" stroke-linejoin="round" stroke-width="0.5" fill-rule="evenodd"/>
        </g>
        <path id="path11059" d="M-1089.485,2011.972a16.848,16.848,0,0,0-4.143,11.213,17.525,17.525,0,0,0,17.643,17.407,17.525,17.525,0,0,0,17.643-17.407,17.413,17.413,0,0,0-4.112-11.253c11.958,13.564,4.411,32.228-13.492,32.432S-1101.571,2025.114-1089.485,2011.972Z" transform="translate(1111.131 -1989.122)" fill="#005f61"/>
      </g>
    </g>
    <rect id="base" width="75" height="75" transform="translate(-1987.747 9709.528)" fill="none"/>
  </g>
</svg>
