<svg xmlns="http://www.w3.org/2000/svg" width="75.58" height="75.58" viewBox="0 0 75.58 75.58">
  <g id="num-icon1" transform="translate(7280.5 11193)">
    <g id="Group_56474" data-name="Group 56474" transform="translate(-7280.5 -11193)">
      <g id="Group_56467" data-name="Group 56467" transform="translate(54.416 67.762)">
        <g id="Group_56466" data-name="Group 56466">
          <path id="Path_124006" data-name="Path 124006" d="M371.44,459.771a1.476,1.476,0,0,0-2.017-.536l-.057.033a1.476,1.476,0,1,0,1.481,2.553l.057-.033A1.476,1.476,0,0,0,371.44,459.771Z" transform="translate(-368.63 -459.036)" fill="#005f61"/>
        </g>
      </g>
      <g id="Group_56469" data-name="Group 56469" transform="translate(0 0)">
        <g id="Group_56468" data-name="Group 56468" transform="translate(0 0)">
          <path id="Path_124007" data-name="Path 124007" d="M70.516,18.908A37.781,37.781,0,0,0,1.3,28.02,37.787,37.787,0,0,0,51.312,73.085a1.476,1.476,0,0,0-1.059-2.755,34.6,34.6,0,0,1-33.3-4.577l1.323-6.9.637-.207a4.6,4.6,0,0,0,2.949-5.786l-.468-1.439a1.63,1.63,0,0,1,0-1.018,4.593,4.593,0,0,0-3.483-5.938L14.58,43.81,8.152,38.922a1.476,1.476,0,0,0-1.35-.229L3.039,39.916a34.8,34.8,0,0,1-.005-4.03c.149.138.245.232.3.294a1.547,1.547,0,0,0,1.442.739,21.442,21.442,0,0,0,2.645-.3c1.245-.184,2.484-.391,2.5-.394a1.476,1.476,0,0,0,.975-2.287l-1.81-2.655,2.592-1.854a1.477,1.477,0,0,0,.422-.467l4.019-7.016,1.62-1.736a6.235,6.235,0,0,0,1.2-6.613,6.789,6.789,0,0,0-2.689-3.167A34.784,34.784,0,0,1,37.393,2.98L34.758,6.287,24.983,9.713a1.475,1.475,0,0,0-.876.83l-2.73,6.617a1.476,1.476,0,0,0,.163,1.421l3.987,5.585a14.029,14.029,0,0,0-1.791,2.222c-.291.413-.566.8-.756,1.022-.165.19-.331.376-.494.561a13.814,13.814,0,0,0-2.374,3.3,8.8,8.8,0,0,0,.73,8.892,8.285,8.285,0,0,0,7.822,3.357,11.494,11.494,0,0,0,1.442-.291c1.266-.313,1.666-.344,2.072.036.2.185.216.22.212.847a5.738,5.738,0,0,0,.132,1.463,4.664,4.664,0,0,0,1.248,2.038,3.308,3.308,0,0,1,.535.683c.46,1.1.26,1.714-.179,3.053q-.056.172-.115.351c-.667,2.066.263,4.115,1.084,5.923.267.587.518,1.141.683,1.631,1.327,3.938,2.322,4.84,3.121,5.2a3.077,3.077,0,0,0,1.288.273c2.128,0,4.348-1.976,5.368-3.228a4.537,4.537,0,0,0,.914-2.149,2.353,2.353,0,0,1,.189-.66,3.867,3.867,0,0,1,.484-.623,5.121,5.121,0,0,0,1.207-2.005,3.248,3.248,0,0,1,1-1.572c.1-.108.21-.223.326-.35,1.966-2.139,1.46-3.774.923-5.5-.451-1.456.338-2.387,2.246-4.164a15.944,15.944,0,0,0,2.344-2.524,3.187,3.187,0,0,0,.625-2.956c-.534-1.239-1.891-1.447-2.981-1.614a4.891,4.891,0,0,1-1.288-.3,6.978,6.978,0,0,1-2.012-3.049c-.108-.24-.214-.477-.321-.707-.192-.41-.384-.906-.587-1.431a12.383,12.383,0,0,0-2.182-4.064c-.931-.987-2.687-1.462-4.236-1.882-.521-.141-1.013-.274-1.337-.394a1.474,1.474,0,0,0-.848-.052,3.83,3.83,0,0,0-1.573.651,1.834,1.834,0,0,0-.526.707A16.883,16.883,0,0,1,36.183,25.8l-.028-.019a2.093,2.093,0,0,0-.132-1.421c-.825-1.744-3.562-1.608-4.1-1.562-.307.026-.695.039-1.105.054-.645.023-1.357.049-2.063.128l.036-.1a3.774,3.774,0,0,1,3.544-2.493h.839a1.476,1.476,0,0,0,0-2.952h-.839a6.738,6.738,0,0,0-5.714,3.187l-2.2-3.084,2.166-5.251,9.551-3.349a1.477,1.477,0,0,0,.666-.473l4.246-5.326A34.811,34.811,0,0,1,67.96,20.383a34.447,34.447,0,0,1,3.478,8.449l-.626.558A3.943,3.943,0,0,0,69.5,32.259c0,.012,0,.024,0,.036l-1.019-2.8a3.685,3.685,0,0,0-.665-1.14L66,26.221a3.7,3.7,0,0,0-2.817-1.3H60.953a2.138,2.138,0,0,0-1.779,3.324l.225.338a16.359,16.359,0,0,1-4.873,2.894l-3.051-5.845v-1.3a1.475,1.475,0,0,0-.457-1.068L48.27,20.64a1.478,1.478,0,0,0-.53-.325l-2.473-.869a1.476,1.476,0,0,0-.979,2.785l2.174.764,2.061,1.967V26a1.477,1.477,0,0,0,.168.683L52.51,34a1.475,1.475,0,0,0,1.819.7l1.112-.41a19.318,19.318,0,0,0,6.926-4.433,1.476,1.476,0,0,0,.184-1.862l-.079-.118h.7a.751.751,0,0,1,.572.264l1.819,2.129a.75.75,0,0,1,.135.231l2.007,5.518a1.476,1.476,0,0,0,2.431.539L71.1,35.6a4.608,4.608,0,0,0,1.22-2.219A34.955,34.955,0,0,1,59.34,65.171a1.476,1.476,0,0,0,1.823,2.322,37.788,37.788,0,0,0,9.354-48.586ZM6.98,41.739l6.087,4.628a1.475,1.475,0,0,0,.61.274l3.669.717a1.64,1.64,0,0,1,1.244,2.121,4.563,4.563,0,0,0,0,2.85l.468,1.439A1.642,1.642,0,0,1,18,55.834l-1.467.477a1.476,1.476,0,0,0-.993,1.126L14.359,63.6a35.218,35.218,0,0,1-6.724-8.387A34.645,34.645,0,0,1,3.347,42.92Zm8.6-23.543-1.736,1.86a1.482,1.482,0,0,0-.2.274L9.7,27.214,6.2,29.72a1.476,1.476,0,0,0-.361,2.032l1.311,1.923c-.756.112-1.434.205-1.884.254-.087-.083-.177-.167-.271-.254-.351-.326-.838-.761-1.565-1.4a34.89,34.89,0,0,1,10.4-19.745,3.838,3.838,0,0,1,2.392,2.19A3.276,3.276,0,0,1,15.583,18.2Zm12.035,8.066a9.466,9.466,0,0,1,3.3-.464c.447-.016.87-.031,1.247-.062a4.015,4.015,0,0,1,.629,0,1.476,1.476,0,0,0,.679,1.837c.277.148.662.405,1.07.677a8.506,8.506,0,0,0,3.69,1.719,2.449,2.449,0,0,0,2.005-.835c.021-.022.041-.043.063-.063a1.581,1.581,0,0,0,.4-.484c.236.067.484.135.738.2a9.829,9.829,0,0,1,2.86,1.058,10.478,10.478,0,0,1,1.575,3.1c.222.574.431,1.116.667,1.619.1.216.2.438.3.663a9.218,9.218,0,0,0,3.091,4.312,6.1,6.1,0,0,0,2.456.748l.322.051a14.273,14.273,0,0,1-1.873,1.965c-1.827,1.7-4.1,3.82-3.054,7.2.494,1.6.517,1.768-.278,2.633-.108.118-.209.225-.3.326a6.066,6.066,0,0,0-1.664,2.7,2.3,2.3,0,0,1-.6.938,6.591,6.591,0,0,0-.826,1.094,4.784,4.784,0,0,0-.534,1.568,1.807,1.807,0,0,1-.308.865A8.6,8.6,0,0,1,41.4,61.28a2.435,2.435,0,0,1-1.237.492,10.531,10.531,0,0,1-1.59-3.467c-.213-.631-.508-1.281-.793-1.909-.629-1.385-1.279-2.817-.962-3.8q.056-.173.111-.338a6.448,6.448,0,0,0,.1-5.11,5.323,5.323,0,0,0-1.075-1.531,2.744,2.744,0,0,1-.564-.749,3.191,3.191,0,0,1-.048-.747A3.661,3.661,0,0,0,34.2,41.1c-1.634-1.529-3.538-1.058-4.8-.746a9.259,9.259,0,0,1-1.077.224,5.3,5.3,0,0,1-5.081-2.148,5.844,5.844,0,0,1-.458-5.908,11.208,11.208,0,0,1,1.911-2.595c.171-.193.344-.387.517-.587.288-.332.6-.781.94-1.257A10.671,10.671,0,0,1,27.618,26.262Z" transform="translate(0 -0.001)" fill="#005f61"/>
        </g>
      </g>
      <g id="Group_56471" data-name="Group 56471" transform="translate(51.688 47.047)">
        <g id="Group_56470" data-name="Group 56470">
          <path id="Path_124008" data-name="Path 124008" d="M358.988,322.486l-.71-2.677a1.476,1.476,0,0,0-2.724-.325c-.162.3-.307.614-.448.92a6.342,6.342,0,0,1-.737,1.339,3.258,3.258,0,0,1-.867.514,4.058,4.058,0,0,0-2.458,2.389,4.325,4.325,0,0,0-.1,2.083,1.344,1.344,0,0,1-.038.87l-.015.034c-.47,1.1-1.344,3.155-.118,4.9a3.075,3.075,0,0,0,2.509,1.566,2.4,2.4,0,0,0,.394-.032c1.506-.246,2.638-1.812,3.563-4.929l1.736-5.852A1.475,1.475,0,0,0,358.988,322.486ZM354.41,328.3a8.954,8.954,0,0,1-1.129,2.66c-.028-.035-.058-.076-.09-.121-.282-.4.139-1.391.418-2.046l.015-.035a4.154,4.154,0,0,0,.242-2.459,1.547,1.547,0,0,1-.006-.766c.058-.184.4-.363.925-.614.231-.112.485-.234.742-.383Z" transform="translate(-350.15 -318.712)" fill="#005f61"/>
        </g>
      </g>
      <g id="Group_56473" data-name="Group 56473" transform="translate(37.796 17.428)">
        <g id="Group_56472" data-name="Group 56472">
          <path id="Path_124009" data-name="Path 124009" d="M258.108,118.177l-.1-.035a1.476,1.476,0,0,0-.977,2.786l.1.035a1.476,1.476,0,1,0,.977-2.786Z" transform="translate(-256.044 -118.059)" fill="#005f61"/>
        </g>
      </g>
    </g>
  </g>
</svg>
