<svg xmlns="http://www.w3.org/2000/svg" width="75" height="75" viewBox="0 0 75 75">
  <g id="num-icon2" transform="translate(0.259 -2)">
    <g id="Group_57078" data-name="Group 57078" transform="translate(1.817 2.507)">
      <path id="Path_124314" data-name="Path 124314" d="M20.9,33.515a6.458,6.458,0,0,0-1.172,0,15.793,15.793,0,1,1,1.172,0Z" transform="translate(5.655)" fill="none" stroke="#005f61" stroke-width="3.5"/>
      <path id="Path_124315" data-name="Path 124315" d="M16.742,4A12.44,12.44,0,0,1,17.2,28.871a4.013,4.013,0,0,0-.924,0" transform="translate(35.576 5.106)" fill="none" stroke="#005f61" stroke-width="3.5"/>
      <path id="Path_124316" data-name="Path 124316" d="M8.794,18.064C.2,23.82.2,33.2,8.794,38.92c9.771,6.537,25.795,6.537,35.565,0,8.6-5.756,8.6-15.136,0-20.856C34.624,11.562,18.6,11.562,8.794,18.064Z" transform="translate(0 28.561)" fill="none" stroke="#005f61" stroke-width="3.5"/>
      <path id="Path_124317" data-name="Path 124317" d="M18.34,35.318A17.186,17.186,0,0,0,25.3,32.227c5.543-4.157,5.543-11.014,0-15.171A17.671,17.671,0,0,0,18.447,14" transform="translate(40.835 30.636)" fill="none" stroke="#005f61" stroke-width="3.5"/>
    </g>
    <rect id="base" width="75" height="75" transform="translate(-0.259 2)" fill="none"/>
  </g>
</svg>
