<svg id="Simple-logo-ar" xmlns="http://www.w3.org/2000/svg" width="292.97" height="85.018" viewBox="0 0 292.97 85.018">
  <g id="Shape" transform="translate(207.73)">
    <path id="Path_124011" data-name="Path 124011" d="M151.825,43.2,137.972,29.378,153.579,13.8v-.548h-1.785L136.8,28.213l0,0,0,0-14.991-14.96h-1.785V13.8l15.607,15.576L121.777,43.2l.358.682-2.407,2.4.743.743,16.33-16.3,16.328,16.3.745-.743-2.409-2.4Z" transform="translate(-94.18 12.516)" fill="#c6aa76"/>
    <path id="Path_124012" data-name="Path 124012" d="M153.435,6.633V5.148L137.643,20.907H135.67L119.88,5.148V6.633l16.778,16.743Z" transform="translate(-94.037 4.862)" fill="#c6aa76"/>
    <path id="Path_124013" data-name="Path 124013" d="M140.478,35.057l-3.819-3.811h0l-3.819,3.811.859.177L119.88,49.024v1.484l16.778-16.743,16.778,16.743V49.024L139.618,35.234Z" transform="translate(-94.037 29.507)" fill="#c6aa76"/>
    <path id="Path_124014" data-name="Path 124014" d="M153.435,4.059V2.574L136.658,19.319,119.88,2.574V4.059L136.658,20.8Z" transform="translate(-94.037 2.431)" fill="#c6aa76"/>
    <path id="Path_124015" data-name="Path 124015" d="M153.435,9.207V7.722L142.66,18.476h-1.04l-4.962,4.95h0l-4.96-4.95h-1.04L119.88,7.722V9.207L136.658,25.95Z" transform="translate(-94.037 7.292)" fill="#c6aa76"/>
    <path id="Path_124016" data-name="Path 124016" d="M144.166,36.161l-7.507-7.491h0l-7.507,7.491.71.334-9.978,9.957v1.484l16.778-16.743,16.78,16.743V46.452L143.458,36.5Z" transform="translate(-94.037 27.074)" fill="#c6aa76"/>
    <path id="Path_124017" data-name="Path 124017" d="M147.215,36.629,136.659,26.1l0,0v0L126.1,36.629l.589.455-6.809,6.793v1.485l16.778-16.743h0l16.778,16.743V43.878l-6.809-6.793Z" transform="translate(-94.037 24.642)" fill="#c6aa76"/>
    <path id="Path_124018" data-name="Path 124018" d="M143.036,39.521l-10.07-10.048,16.255-16.22h-1.487l-4.268,4.26V16.475l-13.027,13,.523.521v0l16.8,16.762h1.487l-6.424-6.41Z" transform="translate(-84.066 12.516)" fill="#c6aa76"/>
    <path id="Path_124019" data-name="Path 124019" d="M153.436,0,136.658,16.744,119.88,0V1.485l16.778,16.743L153.436,1.485Z" transform="translate(-94.036 0)" fill="#c6aa76"/>
    <path id="Path_124020" data-name="Path 124020" d="M149.683,36.6,136.658,23.521v0l0,0L123.631,36.6l.441.519L119.88,41.3v1.485l16.778-16.743,16.778,16.743V41.3l-4.194-4.184Z" transform="translate(-94.037 22.212)" fill="#c6aa76"/>
    <path id="Path_124021" data-name="Path 124021" d="M142.51,30l16.778-16.743H157.8L141.023,30l16.8,16.766h1.487Z" transform="translate(-74.071 12.515)" fill="#c6aa76"/>
    <path id="Path_124022" data-name="Path 124022" d="M138.593,30v-.052l-.467-.469,16.253-16.221h-1.485l-14.3,14.271V26.488l-3,2.988.523.521,16.8,16.764H154.4L138.593,30.983Z" transform="translate(-79.195 12.515)" fill="#c6aa76"/>
    <path id="Path_124023" data-name="Path 124023" d="M141.029,34.946l-5.483-5.471L151.8,13.253h-1.487l-9.284,9.267V21.481l-8.011,8,.523.521h0l16.8,16.764h1.487l-10.8-10.777Z" transform="translate(-81.63 12.515)" fill="#c6aa76"/>
    <path id="Path_124024" data-name="Path 124024" d="M156.707,13.253h-1.487L138.444,30l16.8,16.766h1.487L139.929,30Z" transform="translate(-76.507 12.516)" fill="#c6aa76"/>
    <path id="Path_124025" data-name="Path 124025" d="M136.657,28.523,149.01,16.2l4.425-4.416V10.3l-5.761,5.747h-1.038L136.659,26h0l-9.976-9.955h-1.04L119.88,10.3v1.484l4.425,4.416Z" transform="translate(-94.037 9.724)" fill="#c6aa76"/>
    <path id="Path_124026" data-name="Path 124026" d="M135.191,30l.523-.521-13.025-13v1.038l-4.27-4.26h-1.487l16.255,16.22-10.07,10.048.214.828-6.424,6.41h1.487Z" transform="translate(-96.845 12.516)" fill="#c6aa76"/>
    <path id="Path_124027" data-name="Path 124027" d="M119.88,51.095v1.484l16.778-16.743,16.776,16.743V51.095L136.658,34.352Z" transform="translate(-94.037 32.44)" fill="#c6aa76"/>
    <path id="Path_124028" data-name="Path 124028" d="M108.1,13.253h-1.487L123.389,30l-16.8,16.766h1.487L124.879,30Z" transform="translate(-106.588 12.516)" fill="#c6aa76"/>
    <path id="Path_124029" data-name="Path 124029" d="M130.032,30l.523-.521-3-2.99v1.038l-14.3-14.269h-1.487l16.255,16.22-.469.467v1.042L111.747,46.76h1.487L130.034,30Z" transform="translate(-101.717 12.516)" fill="#c6aa76"/>
    <path id="Path_124030" data-name="Path 124030" d="M132.611,30l.523-.521-8.011-8v1.038l-9.286-9.265h-1.485l16.255,16.22-5.483,5.471v1.04l-10.8,10.775h1.487Z" transform="translate(-99.281 12.516)" fill="#c6aa76"/>
    <path id="Path_124031" data-name="Path 124031" d="M110.68,13.253h-1.487L125.969,30l-16.8,16.766h1.487L127.458,30Z" transform="translate(-104.153 12.516)" fill="#c6aa76"/>
  </g>
  <g id="Ar-txt" transform="translate(0 25.763)">
    <path id="Path_124040" data-name="Path 124040" d="M159.335,37.322q0-1.584-.064-2.679a14.815,14.815,0,0,0-.2-1.81l.49-.189a12.872,12.872,0,0,1,.222,1.756q.07,1.012.068,2.271v.651Z" transform="translate(-159.071 5.064)" fill="#c6aa76"/>
    <path id="Path_124041" data-name="Path 124041" d="M162.559,34.779c-.012-.187-.035-.391-.068-.611a3.077,3.077,0,0,0-.154-.607,1.461,1.461,0,0,0-.272-.461.542.542,0,0,0-.422-.187.932.932,0,0,0-.3.054.791.791,0,0,0-.3.191,1.046,1.046,0,0,0-.226.362,1.553,1.553,0,0,0-.091.57.916.916,0,0,0,.1.459.85.85,0,0,0,.264.28,1,1,0,0,0,.331.14,1.582,1.582,0,0,0,.309.037,1.322,1.322,0,0,0,.43-.078c.148-.051.28-.1.395-.15m.653,2.543h-.527l-.008-.054c-.014-.169-.027-.418-.043-.745s-.033-.785-.058-1.365a2.848,2.848,0,0,1-.375.07,3.653,3.653,0,0,1-.377.021h-.154a2.528,2.528,0,0,1-.7-.082,1.183,1.183,0,0,1-.445-.226.754.754,0,0,1-.235-.354,1.489,1.489,0,0,1-.068-.461,1.444,1.444,0,0,1,.113-.574,1.578,1.578,0,0,1,.3-.471,1.493,1.493,0,0,1,.436-.323,1.167,1.167,0,0,1,.507-.117h.146a1.03,1.03,0,0,1,.97.624q.1.19.163.344a2.465,2.465,0,0,1,.109.338,3.566,3.566,0,0,1,.072.436c.019.165.037.375.054.628s.035.562.051.924.035.8.06,1.322Z" transform="translate(-157.988 5.064)" fill="#c6aa76"/>
    <path id="Path_124042" data-name="Path 124042" d="M166.454,32.644a25.491,25.491,0,0,0-1.04,2.372,18.2,18.2,0,0,0-.7,2.306h-.636a9.958,9.958,0,0,0-.249-1.114q-.166-.6-.389-1.233c-.148-.42-.311-.83-.484-1.231s-.348-.768-.519-1.1h.572c.14.3.268.577.391.846s.237.55.348.846.224.618.336.964.231.747.358,1.2a14.751,14.751,0,0,1,.6-1.892q.376-.96.867-1.964Z" transform="translate(-155.896 5.064)" fill="#c6aa76"/>
    <path id="Path_124043" data-name="Path 124043" d="M168.379,37.322q-.464-1.059-.815-2.01t-.591-1.818q-.233.869-.585,1.818c-.233.636-.5,1.3-.811,2.01h-.562a29.175,29.175,0,0,0,1.686-4.678h.554a28.992,28.992,0,0,0,1.686,4.678Z" transform="translate(-153.46 5.064)" fill="#c6aa76"/>
    <path id="Path_124044" data-name="Path 124044" d="M171.6,33.091a.346.346,0,0,1,.1-.249.318.318,0,0,1,.239-.1.342.342,0,0,1,.247.1.35.35,0,0,1,.1.249.333.333,0,0,1-.1.243.345.345,0,0,1-.247.1.321.321,0,0,1-.239-.1.33.33,0,0,1-.1-.243m-.881,0a.348.348,0,0,1,.1-.249.315.315,0,0,1,.239-.1.334.334,0,0,1,.245.1.342.342,0,0,1,.1.249.325.325,0,0,1-.1.243.337.337,0,0,1-.245.1.318.318,0,0,1-.239-.1.331.331,0,0,1-.1-.243m2.893,3.406a.438.438,0,0,0,.136.325.454.454,0,0,0,.336.136h.48a.143.143,0,0,1,.136.136.137.137,0,0,1-.041.1.139.139,0,0,1-.1.039h-.6a.732.732,0,0,1-.34-.082,1.112,1.112,0,0,1-.276-.2,1.351,1.351,0,0,1-.28.2.717.717,0,0,1-.336.082h-3.455a.953.953,0,0,1-.408-.086.936.936,0,0,1-.309-.231,1.021,1.021,0,0,1-.194-.338,1.264,1.264,0,0,1-.068-.412,2.14,2.14,0,0,1,.027-.3,2.1,2.1,0,0,1,.122-.449,3.046,3.046,0,0,1,.272-.539,2.989,2.989,0,0,1,.484-.574,1.68,1.68,0,0,1,.544-.334,1.829,1.829,0,0,1,.653-.119l.072.262H170.4a1.134,1.134,0,0,0-.906.453,2.844,2.844,0,0,0-.558.986,2.948,2.948,0,0,0-.122.76.882.882,0,0,0,.113.463.4.4,0,0,0,.367.189h3.319a.454.454,0,0,0,.336-.136.445.445,0,0,0,.136-.325V34.009l.525-.163Z" transform="translate(-150.363 5.156)" fill="#c6aa76"/>
    <path id="Path_124045" data-name="Path 124045" d="M177.424,36.694a.93.93,0,0,1-.717-.309.787.787,0,0,1-.3.233.965.965,0,0,1-.385.076h-.344a1.027,1.027,0,0,1-.395-.076.777.777,0,0,1-.313-.233.918.918,0,0,1-.708.309h-.653a.89.89,0,0,1-.716-.309.967.967,0,0,1-.735.309h-.572a.139.139,0,0,1-.136-.136.122.122,0,0,1,.041-.093.125.125,0,0,1,.1-.043h.552a.517.517,0,0,0,.346-.126.414.414,0,0,0,.144-.325V33.49l.509-.173v2.654a.408.408,0,0,0,.144.325.512.512,0,0,0,.344.126h.618a.455.455,0,0,0,.317-.126.427.427,0,0,0,.136-.325V33.482l.544-.173v2.662a.429.429,0,0,0,.13.325.463.463,0,0,0,.332.126h.27a.5.5,0,0,0,.342-.126.417.417,0,0,0,.14-.325V33.482l.525-.173v2.662a.42.42,0,0,0,.136.325.468.468,0,0,0,.327.126h.579a.147.147,0,0,1,.138.136.132.132,0,0,1-.043.1.13.13,0,0,1-.1.041Z" transform="translate(-147.386 5.692)" fill="#c6aa76"/>
    <path id="Path_124046" data-name="Path 124046" d="M180.3,33.309v2.427a.905.905,0,0,1-.282.679.971.971,0,0,1-.679.28H179a.923.923,0,0,1-.715-.309.8.8,0,0,1-.313.233,1.034,1.034,0,0,1-.395.076h-.671a.936.936,0,0,1-.708-.309.918.918,0,0,1-.708.309h-.6a.14.14,0,0,1-.136-.136.122.122,0,0,1,.041-.093.124.124,0,0,1,.1-.043h.581a.46.46,0,0,0,.325-.126.422.422,0,0,0,.138-.325V33.49l.535-.173v2.654a.424.424,0,0,0,.132.325.458.458,0,0,0,.331.126h.616a.5.5,0,0,0,.34-.126.417.417,0,0,0,.14-.325V33.482l.527-.173v2.662a.425.425,0,0,0,.134.325.482.482,0,0,0,.336.126h.272a.481.481,0,0,0,.331-.126.41.41,0,0,0,.14-.325V33.482Z" transform="translate(-144.259 5.692)" fill="#c6aa76"/>
    <path id="Path_124047" data-name="Path 124047" d="M179.855,37.851a.126.126,0,0,1,.1.041.131.131,0,0,1,0,.191.132.132,0,0,1-.1.039h-.6a.906.906,0,0,1-.346-.066.852.852,0,0,1-.28-.191.891.891,0,0,1-.187-.282.854.854,0,0,1-.068-.338V33.316l.527-.173v4.244a.439.439,0,0,0,.136.327.458.458,0,0,0,.334.136Zm-.416-4.977H177.85l.056-.119h.226a.458.458,0,0,1-.191-.4.493.493,0,0,1,.255-.381,1.1,1.1,0,0,1,.653-.181h.191l.035.126h-.054a1.176,1.176,0,0,0-.249.027.791.791,0,0,0-.222.082.53.53,0,0,0-.163.132.263.263,0,0,0-.064.175.35.35,0,0,0,.187.294.9.9,0,0,0,.511.122h.418Z" transform="translate(-141.34 4.263)" fill="#c6aa76"/>
    <path id="Path_124048" data-name="Path 124048" d="M179.945,33.091a.347.347,0,0,1,.1-.249.315.315,0,0,1,.239-.1.334.334,0,0,1,.247.1.342.342,0,0,1,.1.249.328.328,0,0,1-.1.243.345.345,0,0,1-.247.1.324.324,0,0,1-.239-.1.333.333,0,0,1-.1-.243m-.881,0a.348.348,0,0,1,.1-.249.312.312,0,0,1,.239-.1.327.327,0,0,1,.245.1.343.343,0,0,1,.1.249.33.33,0,0,1-.1.243.337.337,0,0,1-.245.1.321.321,0,0,1-.239-.1.334.334,0,0,1-.1-.243m-.253,4a.122.122,0,0,1,.041-.093.125.125,0,0,1,.1-.043h.48a.454.454,0,0,0,.336-.136.445.445,0,0,0,.136-.325V34.009l.525-.171v2.516a.822.822,0,0,1-.068.338.936.936,0,0,1-.185.28.8.8,0,0,1-.282.191.9.9,0,0,1-.344.068h-.6a.14.14,0,0,1-.136-.136" transform="translate(-140.432 5.156)" fill="#c6aa76"/>
    <path id="Path_124049" data-name="Path 124049" d="M208.063,35.762a6.006,6.006,0,0,1-.98,1.06,5.05,5.05,0,0,1-1.237.78h2.613a7.368,7.368,0,0,0-.152-.92c-.07-.3-.152-.609-.245-.92m-4.34-10.733h-4.083l.14-.3h.583a1.18,1.18,0,0,1-.49-1.025,1.266,1.266,0,0,1,.653-.978,2.822,2.822,0,0,1,1.68-.465h.49l.093.325h-.14a2.949,2.949,0,0,0-.642.07,2.17,2.17,0,0,0-.572.21,1.386,1.386,0,0,0-.42.338.69.69,0,0,0-.163.453.9.9,0,0,0,.478.756,2.378,2.378,0,0,0,1.318.315h1.073Zm6,6.006a7.4,7.4,0,0,1-.222,1.734,8.631,8.631,0,0,1-.688,1.851,9.846,9.846,0,0,1,.665,1.783,7.327,7.327,0,0,1,.245,1.9h-6.976v-.7h.443a4.829,4.829,0,0,0,1.61-.292,4.688,4.688,0,0,0,1.237-.686,4.531,4.531,0,0,0,.91-.943,6.642,6.642,0,0,0,.63-1.083,13.8,13.8,0,0,0-1.715-2.677,22.811,22.811,0,0,0-2.2-2.362,24.1,24.1,0,0,0-2.333-1.921c-.78-.56-1.47-1.017-2.077-1.375l.537-.535c.5.264,1.1.632,1.808,1.106a26.2,26.2,0,0,1,4.491,3.84,17.248,17.248,0,0,1,1.983,2.572,7.561,7.561,0,0,0,.3-1.536c.031-.434.047-.659.047-.675V25.961l1.307-.467Z" transform="translate(-121.137 -4.743)" fill="#c6aa76"/>
    <path id="Path_124050" data-name="Path 124050" d="M160.781,15.927a.814.814,0,0,0,.589-.233.774.774,0,0,0,.241-.585.815.815,0,0,0-.241-.6.8.8,0,0,0-.589-.243.763.763,0,0,0-.579.243.837.837,0,0,0-.229.6.794.794,0,0,0,.229.585.776.776,0,0,0,.579.233" transform="translate(-158.222 -12.289)" fill="#c6aa76"/>
    <path id="Path_124051" data-name="Path 124051" d="M161.872,15.927a.819.819,0,0,0,.591-.233.78.78,0,0,0,.239-.585.821.821,0,0,0-.239-.6.8.8,0,0,0-.591-.243.763.763,0,0,0-.579.243.837.837,0,0,0-.229.6.794.794,0,0,0,.229.585.777.777,0,0,0,.579.233" transform="translate(-157.192 -12.289)" fill="#c6aa76"/>
    <path id="Path_124052" data-name="Path 124052" d="M160.406,17.612a1.913,1.913,0,0,1,.416-.632,1.943,1.943,0,0,1,.471-.317,2,2,0,0,1,.482-.165,4.486,4.486,0,0,1,.535-.064,3.6,3.6,0,0,1,1.433.284,3.688,3.688,0,0,1,1.159.764,3.469,3.469,0,0,1,.776,1.145,3.524,3.524,0,0,1,.286,1.408c0,.029-.019.208-.054.535a4.467,4.467,0,0,1-.274,1.069,3.009,3.009,0,0,1-.679,1.048,1.661,1.661,0,0,1-1.246.469,3.091,3.091,0,0,1-1.268-.272,3.123,3.123,0,0,1-1.1-.852,4.308,4.308,0,0,1-.787-1.474,6.8,6.8,0,0,1-.3-2.139,2.106,2.106,0,0,1,.152-.807m-.13,4.507a4.42,4.42,0,0,0,1.443,1.233,4.011,4.011,0,0,0,1.925.459,3.15,3.15,0,0,0,1.466-.338,3.8,3.8,0,0,0,1.159-.927,2.28,2.28,0,0,0,.83.916,2.154,2.154,0,0,0,1.182.35h2.712a1.721,1.721,0,0,0,.809-.2,3.2,3.2,0,0,0,.679-.48,2.624,2.624,0,0,0,.665.48,1.785,1.785,0,0,0,.82.2h2.887a2.153,2.153,0,0,0,.832-.163,1.978,1.978,0,0,0,.677-.459,2.21,2.21,0,0,0,.449-.677,2.058,2.058,0,0,0,.163-.819V15.627l-1.268.414v6a1.066,1.066,0,0,1-.329.786,1.1,1.1,0,0,1-.809.327h-2.318a1.1,1.1,0,0,1-.809-.327,1.066,1.066,0,0,1-.329-.786V15.648l-1.268.393v6a1.074,1.074,0,0,1-.329.786,1.106,1.106,0,0,1-.809.327h-2.362a1.014,1.014,0,0,1-.787-.338,1.148,1.148,0,0,1-.307-.8V15.8l-1.246.393v.721a3.891,3.891,0,0,0-2.8-1.114h-.854a3.9,3.9,0,0,0-2.427.655,2.178,2.178,0,0,0-.854,1.833,6.964,6.964,0,0,0,.307,2.063,5.654,5.654,0,0,0,.9,1.767" transform="translate(-159.072 -11.005)" fill="#c6aa76"/>
    <path id="Path_124053" data-name="Path 124053" d="M166.32,20.73a.834.834,0,0,0-.229.6.8.8,0,0,0,.229.587.785.785,0,0,0,.579.231.822.822,0,0,0,.591-.231.787.787,0,0,0,.239-.587.818.818,0,0,0-.239-.6.794.794,0,0,0-.591-.243.759.759,0,0,0-.579.243" transform="translate(-152.444 -6.416)" fill="#c6aa76"/>
    <path id="Path_124054" data-name="Path 124054" d="M165.229,20.73a.834.834,0,0,0-.229.6.8.8,0,0,0,.229.587.785.785,0,0,0,.579.231.822.822,0,0,0,.591-.231.789.789,0,0,0,.241-.587.82.82,0,0,0-.241-.6.793.793,0,0,0-.591-.243.759.759,0,0,0-.579.243" transform="translate(-153.474 -6.416)" fill="#c6aa76"/>
    <path id="Path_124055" data-name="Path 124055" d="M168.981,20.487a.766.766,0,0,0-.579.243.834.834,0,0,0-.229.6.8.8,0,0,0,.229.587.786.786,0,0,0,.579.231.825.825,0,0,0,.591-.231.787.787,0,0,0,.239-.587.818.818,0,0,0-.239-.6.8.8,0,0,0-.591-.243" transform="translate(-150.479 -6.416)" fill="#c6aa76"/>
    <path id="Path_124056" data-name="Path 124056" d="M203.935,23.281a4.535,4.535,0,0,0-.951-1.025,4.763,4.763,0,0,0-.994-.6,5.076,5.076,0,0,0-.875-.294,5.935,5.935,0,0,0-.591-.109,4.465,4.465,0,0,1,.677-1.038,5.531,5.531,0,0,1,1.007-.916,5.119,5.119,0,0,1,1.225-.644,3.927,3.927,0,0,1,1.355-.241,4.522,4.522,0,0,1,.974.121,2.939,2.939,0,0,1,1.005.436,2.639,2.639,0,0,1,.787.852,2.69,2.69,0,0,1,.317,1.386,4.972,4.972,0,0,1-.208,1.55,3.669,3.669,0,0,1-.525,1.06,2.765,2.765,0,0,1-.721.686,8.5,8.5,0,0,1-.8.459,5.141,5.141,0,0,1-1.686-1.682m-32.816,6.156a3.121,3.121,0,0,0,1.357-1.19,3.19,3.19,0,0,0,.5-1.734v-.634a2.177,2.177,0,0,0,.854.175H203.7a5.936,5.936,0,0,0,1.038-.087,4.393,4.393,0,0,0,.6-.13,5.28,5.28,0,0,0,.82.163,7.787,7.787,0,0,0,.953.054h7.581a2.143,2.143,0,0,0,.83-.163,2,2,0,0,0,.679-.459,2.241,2.241,0,0,0,.447-.677,2.026,2.026,0,0,0,.165-.819V13.25l-1.27.436v10.6a1.072,1.072,0,0,1-.327.786,1.106,1.106,0,0,1-.809.327h-6.183c-.247,0-.5,0-.766-.01a5.411,5.411,0,0,1-.764-.076,5.016,5.016,0,0,0,1.87-1.639,4.463,4.463,0,0,0,.622-2.465A3.022,3.022,0,0,0,208,18.665a5.167,5.167,0,0,0-3.216-.9,6.051,6.051,0,0,0-1.487.173,5.67,5.67,0,0,0-1.235.469,6,6,0,0,0-1,.655,7.11,7.11,0,0,0-.787.754,7.472,7.472,0,0,0-1.312,2.051h.087a.447.447,0,0,0,.087-.01.546.546,0,0,1,.132-.012,4.575,4.575,0,0,1,.655.064,4.043,4.043,0,0,1,.908.274,4.456,4.456,0,0,1,1.979,1.668,9.06,9.06,0,0,0,.556.764,3.33,3.33,0,0,0,.844.719,4.451,4.451,0,0,1-.787.066H174.115a1.175,1.175,0,0,1-.8-.294.926.926,0,0,1-.34-.731V17.891l-1.268.414v8.446a2.642,2.642,0,0,1-.373,1.344,2.731,2.731,0,0,1-1.005,1.013l-.787.461.307.457Z" transform="translate(-149.183 -13.25)" fill="#c6aa76"/>
    <path id="Path_124057" data-name="Path 124057" d="M195.092,13.665V26.054h1.268v-12.8Z" transform="translate(-125.058 -13.249)" fill="#c6aa76"/>
    <path id="Path_124058" data-name="Path 124058" d="M207.077,15.927a.819.819,0,0,0,.591-.233.78.78,0,0,0,.239-.585.821.821,0,0,0-.239-.6.8.8,0,0,0-.591-.243.766.766,0,0,0-.579.243.837.837,0,0,0-.229.6.794.794,0,0,0,.229.585.779.779,0,0,0,.579.233" transform="translate(-114.504 -12.289)" fill="#c6aa76"/>
    <path id="Path_124059" data-name="Path 124059" d="M213.542,22.947a2.852,2.852,0,0,1-1.083-.7,3.431,3.431,0,0,1-.612-.894,3.154,3.154,0,0,1-.263-.861,4.9,4.9,0,0,1-.054-.622,3.418,3.418,0,0,1,.274-1.332,3.513,3.513,0,0,1,.8-1.169,4.09,4.09,0,0,1,1.27-.828,4.3,4.3,0,0,1,1.705-.317,4.147,4.147,0,0,1,.558.043,1.341,1.341,0,0,1,.6.251,1.6,1.6,0,0,1,.482.634,2.852,2.852,0,0,1,.2,1.169,4.593,4.593,0,0,1-.338,1.9,4.874,4.874,0,0,1-2.253,2.259,6.78,6.78,0,0,1-1.279.469m7.48.918H222.3a2.153,2.153,0,0,0,.832-.163,1.977,1.977,0,0,0,.677-.459,2.211,2.211,0,0,0,.449-.677,2.059,2.059,0,0,0,.163-.819V15.681l-1.268.414v6a1.069,1.069,0,0,1-.329.786,1.1,1.1,0,0,1-.809.327h-6.79a6.46,6.46,0,0,0,2.559-1.942,4.938,4.938,0,0,0,.941-3.1,5.022,5.022,0,0,0-.087-.939,1.882,1.882,0,0,0-.383-.828,2.072,2.072,0,0,0-.842-.6,3.95,3.95,0,0,0-1.487-.229,6.873,6.873,0,0,0-4.242,1.124,3.84,3.84,0,0,0-1.466,3.241,3.139,3.139,0,0,0,.546,1.942,4.592,4.592,0,0,0,1.62,1.266c-.117.016-.216.027-.3.033s-.15.012-.208.012a.769.769,0,0,1-.175.021h-8.252a5.7,5.7,0,0,1-1.773-.239,3.5,3.5,0,0,1-1.18-.634,2.269,2.269,0,0,1-.657-.894,2.751,2.751,0,0,1-.2-1.005,3.734,3.734,0,0,1,.449-1.865,4.331,4.331,0,0,1,1.126-1.32,4.705,4.705,0,0,1,1.478-.776,5,5,0,0,1,1.5-.251V15.57a7.59,7.59,0,0,0-2.4.36,5.689,5.689,0,0,0-1.847.994,4.41,4.41,0,0,0-1.192,1.54,4.579,4.579,0,0,0-.428,1.973,2.807,2.807,0,0,0,.362,1.474,3.129,3.129,0,0,0,.918.982,4.437,4.437,0,0,0,1.2.579,8.993,8.993,0,0,0,1.2.284,7.32,7.32,0,0,0,.941.1l.4.012h8.559a10.253,10.253,0,0,0,1.88-.175,6.142,6.142,0,0,0,1,.152c.268.016.418.023.447.023h5.775Z" transform="translate(-121.997 -11.059)" fill="#c6aa76"/>
    <path id="Path_124060" data-name="Path 124060" d="M210.259,21.913a.778.778,0,0,0,.241-.587.815.815,0,0,0-.241-.6.8.8,0,0,0-.589-.243.767.767,0,0,0-.581.243.846.846,0,0,0-.229.6.806.806,0,0,0,.229.587.787.787,0,0,0,.581.231.824.824,0,0,0,.589-.231" transform="translate(-112.057 -6.417)" fill="#c6aa76"/>
    <path id="Path_124061" data-name="Path 124061" d="M210.18,20.73a.834.834,0,0,0-.229.6.8.8,0,0,0,.229.587.785.785,0,0,0,.579.231.825.825,0,0,0,.591-.231.787.787,0,0,0,.239-.587.818.818,0,0,0-.239-.6.8.8,0,0,0-.591-.243.759.759,0,0,0-.579.243" transform="translate(-111.026 -6.416)" fill="#c6aa76"/>
    <path id="Path_124062" data-name="Path 124062" d="M253.972,22.146a.828.828,0,0,0,.591-.231.787.787,0,0,0,.239-.587.818.818,0,0,0-.239-.6.807.807,0,0,0-.591-.243.763.763,0,0,0-.579.243.834.834,0,0,0-.229.6.8.8,0,0,0,.229.587.782.782,0,0,0,.579.231" transform="translate(-70.22 -6.416)" fill="#c6aa76"/>
    <path id="Path_124063" data-name="Path 124063" d="M216.328,15.927a.819.819,0,0,0,.591-.233.78.78,0,0,0,.239-.585.821.821,0,0,0-.239-.6.8.8,0,0,0-.591-.243.766.766,0,0,0-.579.243.837.837,0,0,0-.229.6.794.794,0,0,0,.229.585.78.78,0,0,0,.579.233" transform="translate(-105.768 -12.289)" fill="#c6aa76"/>
    <path id="Path_124064" data-name="Path 124064" d="M219.954,24.756a2.059,2.059,0,0,0,.163-.819V17.869l-1.268.416v6a1.075,1.075,0,0,1-.327.786,1.107,1.107,0,0,1-.811.327h-2.318a1.1,1.1,0,0,1-.809-.327,1.069,1.069,0,0,1-.329-.786V13.251l-1.27.414V23.937a2.06,2.06,0,0,0,.165.819,2.211,2.211,0,0,0,.449.677,2.005,2.005,0,0,0,.677.459,2.153,2.153,0,0,0,.832.163H218a2.16,2.16,0,0,0,.832-.163,2,2,0,0,0,.677-.459,2.211,2.211,0,0,0,.449-.677" transform="translate(-108.159 -13.249)" fill="#c6aa76"/>
    <path id="Path_124065" data-name="Path 124065" d="M220.219,15.927a.819.819,0,0,0,.591-.233.78.78,0,0,0,.239-.585.821.821,0,0,0-.239-.6.8.8,0,0,0-.591-.243.763.763,0,0,0-.579.243.837.837,0,0,0-.229.6.794.794,0,0,0,.229.585.776.776,0,0,0,.579.233" transform="translate(-102.093 -12.289)" fill="#c6aa76"/>
    <path id="Path_124066" data-name="Path 124066" d="M221.31,15.927a.819.819,0,0,0,.591-.233.78.78,0,0,0,.239-.585.821.821,0,0,0-.239-.6.8.8,0,0,0-.591-.243.766.766,0,0,0-.579.243.837.837,0,0,0-.229.6.794.794,0,0,0,.229.585.78.78,0,0,0,.579.233" transform="translate(-101.063 -12.289)" fill="#c6aa76"/>
    <path id="Path_124067" data-name="Path 124067" d="M219.845,17.666a1.878,1.878,0,0,1,.414-.632,1.943,1.943,0,0,1,.471-.317,2,2,0,0,1,.482-.165,4.538,4.538,0,0,1,.535-.064,3.6,3.6,0,0,1,1.433.284,3.688,3.688,0,0,1,1.159.764,3.469,3.469,0,0,1,.776,1.145,3.525,3.525,0,0,1,.286,1.408c0,.029-.019.208-.054.535a4.466,4.466,0,0,1-.274,1.069,3.008,3.008,0,0,1-.679,1.048,1.661,1.661,0,0,1-1.246.469,3.1,3.1,0,0,1-1.268-.272,3.141,3.141,0,0,1-1.1-.852,4.308,4.308,0,0,1-.787-1.474,6.861,6.861,0,0,1-.3-2.139,2.071,2.071,0,0,1,.154-.807m33.979,3.426a4.536,4.536,0,0,0-.951-1.025,4.724,4.724,0,0,0-1-.6,5.155,5.155,0,0,0-.875-.3c-.262-.056-.459-.093-.589-.107a4.466,4.466,0,0,1,.677-1.038,5.531,5.531,0,0,1,1.007-.916,5.2,5.2,0,0,1,1.225-.646,3.928,3.928,0,0,1,1.357-.239,4.52,4.52,0,0,1,.972.121,2.956,2.956,0,0,1,1.005.436,2.618,2.618,0,0,1,.787.852,2.69,2.69,0,0,1,.317,1.386,4.973,4.973,0,0,1-.208,1.55,3.705,3.705,0,0,1-.523,1.058,2.835,2.835,0,0,1-.721.688,9.046,9.046,0,0,1-.8.459,5.123,5.123,0,0,1-1.686-1.682m13.916-3.426a1.366,1.366,0,0,1,.426-.632,1.944,1.944,0,0,1,.471-.317,2.043,2.043,0,0,1,.471-.165,3.172,3.172,0,0,1,.371-.054l.175-.01q3.651,0,3.653,3.492a6.7,6.7,0,0,1-.088.84,5.4,5.4,0,0,1-.208.776,3.153,3.153,0,0,1-.393.774,2.109,2.109,0,0,1-.647.6,1.77,1.77,0,0,1-.939.239,3.009,3.009,0,0,1-2.341-1.124,4.433,4.433,0,0,1-.776-1.474,6.86,6.86,0,0,1-.3-2.139,2.61,2.61,0,0,1,.121-.807m-48.027,4.507a4.419,4.419,0,0,0,1.443,1.233,4.013,4.013,0,0,0,1.927.459,3.147,3.147,0,0,0,1.464-.338,3.8,3.8,0,0,0,1.159-.927,2.285,2.285,0,0,0,.832.916,2.147,2.147,0,0,0,1.18.35h25.867a5.935,5.935,0,0,0,1.038-.087,4.394,4.394,0,0,0,.6-.13,5.28,5.28,0,0,0,.82.163,7.787,7.787,0,0,0,.953.054h8.326a2.214,2.214,0,0,0,1.445-.5,2.268,2.268,0,0,0,.786-1.31,4.742,4.742,0,0,0,1.478,1.322,4.131,4.131,0,0,0,3.4.227,3.257,3.257,0,0,0,1.137-.752,3.519,3.519,0,0,0,.754-1.19,4.334,4.334,0,0,0,.274-1.592,3.977,3.977,0,0,0-1.194-3.2,5.632,5.632,0,0,0-3.706-1.015,4.554,4.554,0,0,0-2.078.414v-.414l-1.225.371v5.849a1.089,1.089,0,0,1-.338.8,1.071,1.071,0,0,1-.778.338h-7.167c-.247,0-.5,0-.766-.01a5.163,5.163,0,0,1-.764-.078,5,5,0,0,0,1.87-1.637,4.446,4.446,0,0,0,.622-2.465,3.022,3.022,0,0,0-1.18-2.543,5.165,5.165,0,0,0-3.214-.906,5.961,5.961,0,0,0-1.489.175,5.669,5.669,0,0,0-1.235.469,5.963,5.963,0,0,0-1,.655,7.113,7.113,0,0,0-.787.754,7.474,7.474,0,0,0-1.312,2.051h.087a.338.338,0,0,0,.087-.012.546.546,0,0,1,.132-.012,4.6,4.6,0,0,1,.655.066,4.029,4.029,0,0,1,.908.272,4.745,4.745,0,0,1,1.005.6,4.614,4.614,0,0,1,.974,1.069c.161.249.346.5.556.764a3.33,3.33,0,0,0,.844.719,4.451,4.451,0,0,1-.787.066H227.783a1.014,1.014,0,0,1-.787-.338,1.146,1.146,0,0,1-.305-.8v-6.22l-1.248.393v.721a3.89,3.89,0,0,0-2.8-1.114h-.855a3.913,3.913,0,0,0-2.427.655,2.182,2.182,0,0,0-.852,1.833,6.963,6.963,0,0,0,.305,2.063,5.653,5.653,0,0,0,.9,1.767" transform="translate(-102.942 -11.059)" fill="#c6aa76"/>
    <path id="Path_124068" data-name="Path 124068" d="M263.925,25.4a1.581,1.581,0,0,1-1.237-.556,5.966,5.966,0,0,1-.885-1.386q-.394-.828-.8-1.812a9.38,9.38,0,0,0-.984-1.812,5.331,5.331,0,0,0-1.41-1.384,3.694,3.694,0,0,0-2.1-.558,4.385,4.385,0,0,0-1.641.317,4.192,4.192,0,0,0-1.4.927l-.109.109.721.721.109-.154a3.063,3.063,0,0,1,1.05-.937,2.641,2.641,0,0,1,1.27-.329,2.219,2.219,0,0,1,1.322.383,3.585,3.585,0,0,1,.929.992,8.983,8.983,0,0,1,.712,1.365q.318.752.655,1.517a12.8,12.8,0,0,0,.756,1.452,4.125,4.125,0,0,0,1.005,1.145H251a1.094,1.094,0,0,1-.809-.329,1.074,1.074,0,0,1-.329-.786V13.25l-1.268.416V23.938a2.058,2.058,0,0,0,.163.819,2.24,2.24,0,0,0,.447.677,2.021,2.021,0,0,0,.68.459,2.136,2.136,0,0,0,.83.163h14.05V25.4Z" transform="translate(-74.534 -13.25)" fill="#c6aa76"/>
    <path id="Path_124069" data-name="Path 124069" d="M161.292,25.179a.837.837,0,0,0-.229.6.794.794,0,0,0,.229.585.78.78,0,0,0,.579.233.819.819,0,0,0,.591-.233.78.78,0,0,0,.239-.585.821.821,0,0,0-.239-.6.8.8,0,0,0-.591-.243.759.759,0,0,0-.579.243" transform="translate(-157.192 -2.215)" fill="#c6aa76"/>
    <path id="Path_124070" data-name="Path 124070" d="M160.2,25.179a.837.837,0,0,0-.229.6.794.794,0,0,0,.229.585.78.78,0,0,0,.579.233.811.811,0,0,0,.589-.233.774.774,0,0,0,.241-.585.815.815,0,0,0-.241-.6.789.789,0,0,0-.589-.243.759.759,0,0,0-.579.243" transform="translate(-158.222 -2.215)" fill="#c6aa76"/>
    <path id="Path_124071" data-name="Path 124071" d="M186.777,31.154a.766.766,0,0,0-.579.243.837.837,0,0,0-.229.6.8.8,0,0,0,.229.587.785.785,0,0,0,.579.231.825.825,0,0,0,.591-.231.787.787,0,0,0,.239-.587.821.821,0,0,0-.239-.6.8.8,0,0,0-.591-.243" transform="translate(-133.674 3.657)" fill="#c6aa76"/>
    <path id="Path_124072" data-name="Path 124072" d="M185.686,31.154a.763.763,0,0,0-.579.243.837.837,0,0,0-.229.6.8.8,0,0,0,.229.587.782.782,0,0,0,.579.231.817.817,0,0,0,.589-.231.781.781,0,0,0,.241-.587.815.815,0,0,0-.241-.6.8.8,0,0,0-.589-.243" transform="translate(-134.704 3.657)" fill="#c6aa76"/>
    <path id="Path_124073" data-name="Path 124073" d="M190.264,25.179a.837.837,0,0,0-.229.6.794.794,0,0,0,.229.585.779.779,0,0,0,.579.233.811.811,0,0,0,.589-.233.774.774,0,0,0,.241-.585.815.815,0,0,0-.241-.6.789.789,0,0,0-.589-.243.759.759,0,0,0-.579.243" transform="translate(-129.833 -2.215)" fill="#c6aa76"/>
    <path id="Path_124074" data-name="Path 124074" d="M236.25,31.423a5.454,5.454,0,0,1-.208.774,3.028,3.028,0,0,1-.395.774,2.08,2.08,0,0,1-.646.6,1.753,1.753,0,0,1-.939.241,3.026,3.026,0,0,1-2.341-1.124,4.453,4.453,0,0,1-.776-1.474,6.813,6.813,0,0,1-.3-2.139,2.61,2.61,0,0,1,.121-.807,1.371,1.371,0,0,1,.428-.634,2.01,2.01,0,0,1,.469-.317,2.031,2.031,0,0,1,.471-.163,3.116,3.116,0,0,1,.371-.054l.175-.012q3.654,0,3.653,3.492a6.4,6.4,0,0,1-.087.842m-70.344-.2a4.458,4.458,0,0,1-.272,1.069,2.984,2.984,0,0,1-.679,1.046,1.655,1.655,0,0,1-1.246.471,3.055,3.055,0,0,1-2.372-1.124,4.326,4.326,0,0,1-.787-1.474,6.812,6.812,0,0,1-.3-2.139,2.106,2.106,0,0,1,.152-.807,1.911,1.911,0,0,1,.416-.634,2.062,2.062,0,0,1,.471-.317,1.977,1.977,0,0,1,.48-.163,4.93,4.93,0,0,1,.537-.066,3.639,3.639,0,0,1,1.433.284,3.8,3.8,0,0,1,1.159.764,3.477,3.477,0,0,1,.776,1.147,3.523,3.523,0,0,1,.284,1.408c0,.029-.017.206-.054.535m66.822-4.769a4.554,4.554,0,0,0-2.078.414v-.414l-1.225.371v5.849a1.092,1.092,0,0,1-.338.8,1.071,1.071,0,0,1-.778.338h-6.455a1.1,1.1,0,0,1-.809-.327,1.081,1.081,0,0,1-.329-.787V26.306l-1.268.393v6a1.074,1.074,0,0,1-.329.787,1.1,1.1,0,0,1-.809.327H212.9a1.1,1.1,0,0,1-.809-.327,1.074,1.074,0,0,1-.329-.787V26.306l-1.27.393v6a1.079,1.079,0,0,1-.327.787,1.1,1.1,0,0,1-.809.327H168.346a1.014,1.014,0,0,1-.787-.338,1.142,1.142,0,0,1-.307-.8v-6.22l-1.246.393v.719a3.9,3.9,0,0,0-2.8-1.112h-.854a3.9,3.9,0,0,0-2.427.655,2.173,2.173,0,0,0-.854,1.833,6.951,6.951,0,0,0,.307,2.061,5.643,5.643,0,0,0,.9,1.769,4.443,4.443,0,0,0,1.443,1.233,4.011,4.011,0,0,0,1.925.459,3.155,3.155,0,0,0,1.466-.338,3.826,3.826,0,0,0,1.159-.927,2.293,2.293,0,0,0,.83.916,2.154,2.154,0,0,0,1.182.35h41.358a1.709,1.709,0,0,0,.809-.2,3.219,3.219,0,0,0,.679-.48,2.683,2.683,0,0,0,.667.48,1.779,1.779,0,0,0,.821.2H218.6a1.709,1.709,0,0,0,.809-.2,3.22,3.22,0,0,0,.679-.48,2.718,2.718,0,0,0,.667.48,1.785,1.785,0,0,0,.82.2h6.784a2.212,2.212,0,0,0,1.443-.5,2.26,2.26,0,0,0,.787-1.31,4.736,4.736,0,0,0,1.478,1.32,3.894,3.894,0,0,0,1.958.492,3.848,3.848,0,0,0,1.443-.262,3.262,3.262,0,0,0,1.137-.754,3.5,3.5,0,0,0,.754-1.188,4.341,4.341,0,0,0,.272-1.592,3.974,3.974,0,0,0-1.192-3.2,5.635,5.635,0,0,0-3.706-1.015" transform="translate(-159.072 -0.921)" fill="#c6aa76"/>
    <path id="Path_124075" data-name="Path 124075" d="M205.873,24.333V36.722h1.268v-12.8Z" transform="translate(-114.877 -3.176)" fill="#c6aa76"/>
    <path id="Path_124076" data-name="Path 124076" d="M219.819,31.35a5.427,5.427,0,0,1-.206.774,2.889,2.889,0,0,1-.406.774,2.286,2.286,0,0,1-.644.6,1.709,1.709,0,0,1-.929.241,3.078,3.078,0,0,1-1.27-.274,3.01,3.01,0,0,1-1.093-.85,4.454,4.454,0,0,1-.778-1.474A6.87,6.87,0,0,1,214.2,29a1.862,1.862,0,0,1,.591-1.45,2.071,2.071,0,0,1,1.445-.537q3.692,0,3.7,3.492c-.031.321-.066.6-.111.842m-3.543-4.966a4.162,4.162,0,0,0-2.22.513,2.261,2.261,0,0,0-1.038,1.474l-.2.894a.649.649,0,0,1-.373.457,3.648,3.648,0,0,1-.721.262c-.276.074-.572.146-.885.218a2.92,2.92,0,0,0-.865.35,2.009,2.009,0,0,0-.655.655,2.111,2.111,0,0,0-.262,1.135v5.891l1.246-.393V31.776a.68.68,0,0,1,.305-.6,2.178,2.178,0,0,1,.712-.305,5.312,5.312,0,0,1,.809-.132,3.967,3.967,0,0,0,.579-.076c.074-.014.15-.033.231-.054a.881.881,0,0,0,.229-.1,6.1,6.1,0,0,0,.579,1.561,4.79,4.79,0,0,0,.939,1.233,3.984,3.984,0,0,0,1.291.809,4.485,4.485,0,0,0,1.629.284,3.734,3.734,0,0,0,1.4-.262,3.167,3.167,0,0,0,1.126-.752,3.577,3.577,0,0,0,.745-1.19,4.34,4.34,0,0,0,.274-1.592,4,4,0,0,0-1.182-3.2,5.592,5.592,0,0,0-3.7-1.015" transform="translate(-111.868 -0.847)" fill="#c6aa76"/>
    <path id="Path_124077" data-name="Path 124077" d="M278.217,35.631a5.123,5.123,0,0,1-1.686-1.682,4.536,4.536,0,0,0-.951-1.025,4.808,4.808,0,0,0-1-.6,4.917,4.917,0,0,0-.875-.294q-.394-.087-.589-.111a4.447,4.447,0,0,1,.677-1.034,5.473,5.473,0,0,1,1.007-.918,5.262,5.262,0,0,1,1.225-.644,3.93,3.93,0,0,1,1.357-.241,4.52,4.52,0,0,1,.972.121,2.907,2.907,0,0,1,1.005.437,2.592,2.592,0,0,1,.787.85,2.69,2.69,0,0,1,.317,1.386,4.973,4.973,0,0,1-.208,1.55,3.718,3.718,0,0,1-.523,1.06,2.836,2.836,0,0,1-.721.688,9.012,9.012,0,0,1-.8.457m-56.5.436h-1.225c-.278,0-.587-.01-.929-.031a2.712,2.712,0,0,1-.974-.251,1.877,1.877,0,0,1-.766-.688,2.412,2.412,0,0,1-.305-1.32,4.926,4.926,0,0,1,.317-1.8,4.552,4.552,0,0,1,.832-1.4,3.912,3.912,0,0,1,1.159-.9,2.788,2.788,0,0,1,1.279-.329h.612ZM294,34.954a1.066,1.066,0,0,1-.329.785,1.1,1.1,0,0,1-.809.327h-2.318a1.1,1.1,0,0,1-.809-.327,1.066,1.066,0,0,1-.329-.785V23.918l-1.268.437v10.6a1.066,1.066,0,0,1-.329.785,1.1,1.1,0,0,1-.809.327h-6.183c-.247,0-.5,0-.764-.01a5.438,5.438,0,0,1-.766-.076,5,5,0,0,0,1.87-1.639,4.462,4.462,0,0,0,.622-2.465,3.015,3.015,0,0,0-1.18-2.541,5.152,5.152,0,0,0-3.214-.906,6.056,6.056,0,0,0-1.489.173,5.775,5.775,0,0,0-2.23,1.126,6.929,6.929,0,0,0-.787.752,7.474,7.474,0,0,0-1.312,2.051h.088a.338.338,0,0,0,.087-.012.7.7,0,0,1,.132-.01,4.333,4.333,0,0,1,.655.066,3.931,3.931,0,0,1,.908.272,4.491,4.491,0,0,1,1.979,1.668q.242.373.556.766a3.37,3.37,0,0,0,.844.719,4.646,4.646,0,0,1-.787.064h-46.09a1.1,1.1,0,0,1-.809-.327,1.066,1.066,0,0,1-.329-.785V23.918l-1.268.437v10.6a1.066,1.066,0,0,1-.329.785,1.106,1.106,0,0,1-.809.327h-3.455V28.713H221.1a4.376,4.376,0,0,0-1.816.393,4.964,4.964,0,0,0-1.542,1.079,5.228,5.228,0,0,0-1.06,1.6,4.981,4.981,0,0,0-.395,1.987,3.294,3.294,0,0,0,.3,1.5,2.12,2.12,0,0,0,.9.906,4.193,4.193,0,0,0,1.509.436,18.117,18.117,0,0,0,2.154.109h.57v.591a2.546,2.546,0,0,1-.383,1.375,2.494,2.494,0,0,1-.974.916l-.787.5.307.459L221.126,40a3.362,3.362,0,0,0,1.322-1.233,3.69,3.69,0,0,0,.494-1.975v-.066h3.739a1.709,1.709,0,0,0,.809-.2,3.2,3.2,0,0,0,.679-.48,2.634,2.634,0,0,0,.667.48,1.773,1.773,0,0,0,.82.2h46.637a5.939,5.939,0,0,0,1.038-.086,4.269,4.269,0,0,0,.6-.132,4.861,4.861,0,0,0,.821.163,7.787,7.787,0,0,0,.953.054h7.581a1.709,1.709,0,0,0,.809-.2,3.15,3.15,0,0,0,.679-.48,2.634,2.634,0,0,0,.667.48,1.779,1.779,0,0,0,.821.2h2.887a2.15,2.15,0,0,0,.83-.163,2.005,2.005,0,0,0,.679-.459,2.241,2.241,0,0,0,.447-.677,2.055,2.055,0,0,0,.163-.817V23.918L294,24.355Z" transform="translate(-105.038 -3.176)" fill="#c6aa76"/>
  </g>
</svg>
