<svg xmlns="http://www.w3.org/2000/svg" width="81.939" height="72.831" viewBox="0 0 81.939 72.831">
  <g id="slid5Icon11" transform="translate(0)">
    <g id="Group_55947" data-name="Group 55947" opacity="0.2">
      <g id="Group_55948" data-name="Group 55948">
        <g id="Group_55949" data-name="Group 55949">
          <g id="layer1">
            <g id="ye" transform="translate(39.643 56.884)">
              <path id="path2592" d="M8817.034,3470.4c-.7-.026-.3-1.448-.99-1.529.31-.49-.835-2.012-1.032-2.549l-.8-1.857c-2.04.4-4.086.84-6.095,1.111a4.183,4.183,0,0,0-2.9,2.255c-.349.522-.537,1.84-1.373,1.789-.569-.034-.51-.889-1.056-.824a7.144,7.144,0,0,1-1.958-.03,10.066,10.066,0,0,0-1.2-.339c-.43,0-.858.042-1.288.082a9.616,9.616,0,0,1-1.517.256c-.3-.017-.412-.35-.718-.388a.646.646,0,0,0-.642.409,1.482,1.482,0,0,0-.126.9c.031.192.3.383.154.58s-.246.379-.389.573a.825.825,0,0,1-.289.252c-.274.137-.135.242-.077.543.089.477-.092.7-.175,1.133-.08.4.258.753.221,1.153-.077-.069-.486-.079-.418.081a3.182,3.182,0,0,1,.412.207,1.686,1.686,0,0,1,.395.819c.152.628.166,1.329.363,1.94.08.251.281.438.378.683a2.355,2.355,0,0,1,0,.917c-.012.6.71,1.1.516,1.706.263.02.44-.128.706-.021a1.255,1.255,0,0,0,.793.145c.646-.128.933-.579,1.605-.226-.034-.183.16-.369.226-.1a2.872,2.872,0,0,0,.267-.4c.14-.216.372-.211.561-.354.424-.32.473-.642,1.056-.776a5.349,5.349,0,0,1,1.675-.1c.329.03.875-.345,1.2-.438.486-.138.729-.561,1.159-.8a3.045,3.045,0,0,1,.461-.281,1.115,1.115,0,0,1,.452.112,1.4,1.4,0,0,0,.472-.058c1.039-.167,1.271-1.241,2.206-1.7a4.352,4.352,0,0,1,1.279-.348c.569-.1,1.045-.483,1.605-.616a10.688,10.688,0,0,0,1.165-.3c.377-.137.512-.438.832-.6.267-.135.839-.119.922-.479.095-.418-.2-.8-.046-1.224.307-.861,1.359-.827,2-1.3" transform="translate(-8794.363 -3464.461)" fill="#005f61"/>
            </g>
            <path id="jo" d="M-134.986,48.3c-.04-.691.239-1.349.245-2.035a16.817,16.817,0,0,1,.456-2.126c.04-.313-.05-.632-.026-.95.023-.3.123-.6.135-.889.023-.613-.061-1.35-.084-1.97-.019-.526.637-.364.937-.157.494.341.94.858,1.6.727a5.952,5.952,0,0,0,1.836-1.128c.706-.47,1.411-.991,2.152-1.4.229.733.529,1.44.781,2.164-.255.027-.088.375.076.417.26.067.588.026.167.467a14.349,14.349,0,0,1-4.225,1.629l2.363,2.48c-.213.1-.775.092-.926.282-.174.219.023.662-.163.881-.312.368-1.1.055-1.5.441-.462.441-.613,1.269-1.272,1.529a5.8,5.8,0,0,1-2.551-.358" transform="translate(156.566 -16.87)" fill="#005f61"/>
            <g id="ae" transform="translate(57.658 39.588)">
              <path id="path2704" d="M9221.8,3223.277a.339.339,0,0,0,.329-.165.33.33,0,0,0-.535.1l.206.062" transform="translate(-9217.045 -3218.477)" fill="#005f61"/>
              <path id="path2784" d="M9135.411,3141.479q.209-.138.163.165c.065-.063.135-.125.206-.185.134.2.014.477.166.659s.483.135.681.124a1,1,0,0,0,.67-.234c.092-.081.194-.317.317-.343s.464.17.627.173c.266.006.532.037.8.028.725-.026,1.225.308,1.935-.119-.065-.1-.135-.2-.206-.288.224-.084.191.185.369.165.258-.029.476-.339.581-.544a3.076,3.076,0,0,1,.818-1.3c.486-.406.684-1.137,1.145-1.515.507-.419.813-.531.959-1.219.369.019.212.555.214.781,0,.427.47.211.524.686s.38,1.1.006,1.468c-.8.787-.541.236-.667-.1s-.375.274-.335.477c.028.154-.043.156-.018.321a5.505,5.505,0,0,1,.141.647c.006.577.584.317.352.7-.186.306-.789.037-1.021.316.538.3-.263,1.707-.366,2.572.037.566-.252.7-.744.58-.606-.142-1.233-.2-1.851-.291-.645-.1-1.291-.19-1.937-.271-.476-.06-1.048.035-1.365-.389s-.635-.866-.973-1.285c-.24-.293-.483-.58-.722-.871a5.892,5.892,0,0,1-.466-.911" transform="translate(-9135.411 -3137.05)" fill="#005f61"/>
            </g>
            <g id="tr" transform="translate(1.286)">
              <path id="path3456" d="M8068.234,2390.931a1.238,1.238,0,0,0,.572-.626c.1-.362-.177-.633.324-.86.274-.124.174-.125.105-.414a.486.486,0,0,0-.289-.4c-.658-.215.152-.318.115-.582-.009-.073.7-.277.821-.314.377-.123.6-.25.875.062.257.291.4.1.727.072a.618.618,0,0,1,.452.1c.208.174-.106.234.043.424a3.7,3.7,0,0,0,2.071,1.281c.338.1.058.594-.151.672-.4.148-.981-.24-1.391-.264-.2-.012-.324.129-.492.214-.2.1-.418-.077-.652-.007-.284.085-.4.391-.6.6a6.271,6.271,0,0,1-1.11.711c-.312.227-.612.859-.947.989a.776.776,0,0,1,.463-.959c.069-.025.827-.254.578-.46-.406-.334-1.319.561-1.517-.25" transform="translate(-8068.234 -2387.604)" fill="#005f61"/>
              <path id="path3458" d="M8073.326,2395.09c.029-.213.054-1.268.212-1.329.392-.149.518-.716.921-.917.214-.107.492.082.689-.058.252-.175.361-.042.578.09.318.189,1.336.109.689-.279a1.027,1.027,0,0,1,.638-.021.2.2,0,0,0-.154.2c.12.169.735.069.89.055.481-.044,1.17.236,1.574-.111-.192-.187-.441-.023-.641-.185.257-.659,1.445-.411,1.98-.536-.463-.228-1.122-.036-1.511-.434-.435-.446,0-.817.469-.773a5,5,0,0,0,1.545.173c.7-.152,1.259.228,1.969.157.326-.032.375-.2.5-.456.134-.282.635-.405.89-.554a8.417,8.417,0,0,1,2.149-1.033,8.31,8.31,0,0,1,2.41-.109,3.754,3.754,0,0,0,1.082.041c.16-.049.214-.242.372-.288s.3.048.452.062c-.263.317.186.748.472.835a1.6,1.6,0,0,0,.672.091c.249-.033.463-.315.463.043.058-.531.4.115.449.267.066.2.612.88.83.65.283-.305.586-.238.893.007a6.257,6.257,0,0,0,1.245.56c.234.118.274-.366.6-.013.257.284.761.277,1.116.313.492.05,1-.291,1.491-.34a2.037,2.037,0,0,1,1.059.048,1.813,1.813,0,0,0,1.568.068,9.339,9.339,0,0,0,1.938-1.182c.24-.193.46.133.7.138.146,0,.135-.2.309-.165.112.022.223.048.335.071.163.033.627.216.724,0,.123-.269.707-.492.526-.088a.6.6,0,0,1,.475.193c.094.086.195.167.295.242.166.021.206.1.114.23.077.231.389.006.515.195.083.123.137.487.26.586.389.315.707.63.484.952s.375.79.063,1a2.444,2.444,0,0,0,1.282.215,1.933,1.933,0,0,1,1.25,1c-.246-.2-.618-.494-.721,0a4.115,4.115,0,0,1-.04.464c-.06.2-.578.093-.744.154a2.519,2.519,0,0,1,.409.689,6.08,6.08,0,0,0,.315.73c.157.407.014,1,.535,1.177a1.585,1.585,0,0,0-.335.727c-.111.457.361.39.6.612s.195.516.272.806c.037.146.294.21.4.3s.012.334.075.46c-.481-.339-.681.5-.956.412-.354-.118-.063-.587-.326-.762a.406.406,0,0,0-.463.028.8.8,0,0,1-.778.068,3.456,3.456,0,0,0-1.159-.258c-.309,0-.5-.081-.661.189-.2.327-.587.621-.718.133-.118-.426-.653.086-.89.163a3.642,3.642,0,0,1-1.723.109c-1.1-.145-2.052.963-3.167,1.041-.447.031-1.248.141-1.623-.142-.406-.309-.664-.486-1.165-.241-.538.261-1.708.876-2.172.3-.231-.288-.724-.387-.8.065a1.756,1.756,0,0,0,.278,1.138,2.156,2.156,0,0,1-.621.021c-.031.176.086.363.023.536-.072.205-.343.249-.409.474a1.694,1.694,0,0,0-.5-.268c.177-.231-.069-.531-.209-.7-.257-.322.023-.512.292-.745s.455-.408.186-.771c-.109-.145-.332-.324-.486-.125-.212.274-.427.231-.69.429.438-.044-.011.4-.337.337a4.358,4.358,0,0,1-1.125-.492c-.861-.431-1.308.834-1.711,1.35-.063-.069-.126-.138-.186-.206-.157.163-.257.452-.509.357a2.047,2.047,0,0,0-1.044.172,1.389,1.389,0,0,1-1.176,0c-.561-.248-.761-.869-1.3-1.13a7.134,7.134,0,0,0-1.823-.729c-.34-.06-1.033-.2-1.033.343,0,.31.057.874-.169,1.121-.126.135-.289-.115-.406-.131-.3-.041-.607.313-.9.362a1.975,1.975,0,0,1-1.139-.343c-.214-.137-.223-.584-.515-.6.226-.321-.3-.668-.369-.247-.224-.193-.781-.265-.847-.6-.054.24-.632.636-.824.783.066-.144.02-.233-.143-.268a.328.328,0,0,0,.266-.33,2.927,2.927,0,0,1-1.462.309,1.129,1.129,0,0,1,.921-.27c.312.008.281.091.407-.151.091-.168.283-.244.4-.383a2.825,2.825,0,0,0-2,.124c-.472-.553.424-.261.492-.4a.45.45,0,0,0-.02-.4c-.157-.264-.332.1-.246-.311-.455.581-.42-.616-.844-.6.294-.159.629-.313.377-.711-.183-.287-.7-.138-.824-.352s-.26-.53-.455-.144c-.085.171-.7-.29-.707-.441.615.147.083-.5.106-.757.017-.21.346-.057.409.046.131.213.086.563.289.731-.046-.457.667.115.864-.35a1.149,1.149,0,0,1-.824-.556c.214-.118.323-.378.578-.433-.112-.334-.458.013-.427-.366s-.166-.424-.44-.665c.183-.21.392-.394.558-.618-.587-.3-1.142.318-1.731.125" transform="translate(-8073.057 -2388.652)" fill="#005f61"/>
            </g>
            <path id="iq" d="M2.4-138.806a26.537,26.537,0,0,0,3.455-1.973,3.569,3.569,0,0,0,.937-.852c.39-.595.079-1.381.157-1.6.008-.925.258-1.039.2-1.483-.059-.5-.766-1.368-.221-1.794.312-.243.7-.233,1.022-.5.27-.226,1-.817.782-1.055-.1-.109.1.01.247-.035.244-.074.324-.3.43-.5s1.193-.014,1.431.077a3.7,3.7,0,0,0,.578.182c.327.068.425-.144.709-.2.717-.133.228.807.634.77.3-.027.414-.476.74-.463.414.015.4.719.581.963.086.116.2.1.27.24.088.177-.029.428.12.574.314.307,1,.609.722,1.138.466-.1.657.314.864.392.4.15.4-.165,1.259.062-.075.322-.448.247-.582.5-.227.42.415.732.452,1.114.048.5-.567-.05-.55.461.008.23-.241.191-.3.408-.072.245.049.427.091.653a.816.816,0,0,1-.432-.124c-.035.207-.179.365-.015.536.178.187.312.267.214.573s-.356.358-.1.586a6.164,6.164,0,0,0,.647.59c.242.163,1.5,1.242.784,1.444.28.068.209.394.44.34.332-.077.518.134.784.284.488.276.8.9,1.477.955.321.025.911,1.069,1.194,1.319.428.378.166.769.058,1.29-.052.249-.039.955.33.981.129.009.346-.017.447.112a1.052,1.052,0,0,1,.1.7c-.066.45.169.582.671.944.254.183.2.75.555.836-.186.014-1.293-.144-1.318-.346.153.36-.481.071-.728.06a1.006,1.006,0,0,0-.983.414c-.351.747-.288,2.234-1.481,2.1l-3.01-.344c-1.007-.144-1.045-.674-1.967-1.253-2.548-1.874-4.989-4.12-7.843-5.37a13.094,13.094,0,0,0-2.862-.615c.581-.629-.119-.352-.293-.62a.317.317,0,0,1-.042-.266c.146-.167,0-.337-.09-.581-.2-.54-.394-1.07-.565-1.62" transform="translate(26.432 160.305)" fill="#005f61"/>
            <g id="ir" transform="translate(37.879 5.743)">
              <path id="path4560" d="M9190.62,3101.405a.381.381,0,0,1,.206-.042.47.47,0,0,0-.432-.041l.226.083" transform="translate(-9167.711 -3069.332)" fill="#005f61"/>
              <path id="path4562" d="M9222.183,3115.031q.056-.258-.206-.041l.206.041" transform="translate(-9197.625 -3082.216)" fill="#005f61"/>
              <path id="path4564" d="M9276.084,3093.788c-.338.282-.572.771-1.113.68-.049.507.718-.01.893-.087s.395-.017.578-.1c.258-.122.3-.522.609-.551-.346-.337-.612.221-.967.062" transform="translate(-9247.818 -3062.065)" fill="#005f61"/>
              <path id="path4606" d="M8760.979,2497.246c.569-.194.772.227.762-.674-.006-.391.337-.246.583-.064a8.313,8.313,0,0,1,.6.664c.215.194.458.352.669.546a2.024,2.024,0,0,0,1.257.717,3.4,3.4,0,0,0,1.322-.011,3.054,3.054,0,0,0,.986-.872c.086-.227.4-.276.57-.423a7.664,7.664,0,0,1,.586-.524c.569-.39,1.076.205,1.423.62-.759.285.269.921-.155,1.017-.784.178.029.639.363.847a7.185,7.185,0,0,0,.7.49c.1.047.409-.013.441.051.314.639.269,1.692.976,2.063.6.316,1.316.167,1.926.427.395.169.526.61.847.866a6.129,6.129,0,0,0,1.288.659,4.05,4.05,0,0,0,2.624.333,8.138,8.138,0,0,1,3.288-.614,2.775,2.775,0,0,1-.658.083c.151.113.744.334.826.027.075-.27-.346-1.01-.429-1.286a2.062,2.062,0,0,0,1.325-.107c.526-.223.166-.417.4-.783a2.757,2.757,0,0,1,1.19-.875c.578-.219,1.139.117,1.717-.009-.2-.328.237-.36.489-.382.32-.027.684.089,1,.058.443-.046.446.012.664.414.205.382.78.374,1.167.443.427.077.724.507,1.176.543a4.554,4.554,0,0,1,1.391.139,1.566,1.566,0,0,1,.9.783c.27.414.876.356,1.257.612.335.227.446.646.789.854.387.236,1.371-.218,1.672.106a3.164,3.164,0,0,1,.357,1.318c.058.332-.212.21.052.436a2.253,2.253,0,0,1,.335.941c.04.33-.261.557-.2.908.083.479.249,1.507-.466,1.588.063.09.309.292.289.412-.034.192-.473.25-.556.5-.146.447.112,1.5.658,1.536.7.048.066.6-.04.951-.157.512.578,1.661.725,2.237.163.656.108,1.292.558,1.792.36.4,1.142.19,1.608.423.489.245.458,1,.335,1.413a6.64,6.64,0,0,1-.735,1.162,6.049,6.049,0,0,1-.811,1.166c.227.229.412.406.521.5,1.032.921,1.391,2.263,2.22,2.719.252.138.507.223.768.35a2.527,2.527,0,0,0,.821.351c.386.025.515,1.359.532,1.7.054,1.2.274.871.961.877.329,0,.141.858.117,1.2-.045.684-2.246.057-1.894.982a.838.838,0,0,0-.687.246,4.266,4.266,0,0,0-.366,2.111c-.008.194.058.61-.286.486.16.539-1.016.057-1.2,0-.209-.065-.69-.021-.744-.312-.077-.4-.544-.162-.341.024a5.774,5.774,0,0,1-1.228-.084,1.679,1.679,0,0,0-1.359-.113c-.314.1-.544-.078-.787-.251-.326-.232-.6-.091-.95-.186-.28-.076-.523.154-.807.037-.26-.108-.323-.477-.618-.144.077-.4-.784-.287-1.024-.512a4.211,4.211,0,0,1-.767-2.164,1.5,1.5,0,0,0-1.68-1.2c-.363.028-.624.333-.965.432-.283.082-.646.138-.483.469.106.211-.632.117-.684.129-.366.089-.51.472-.824.628-.529.264-1.013-.458-1.528-.458-.629,0-.981.123-1.373-.456-.194-.289-.63-.383-.925-.546-.383-.212-.758-.444-1.158-.625.386-.367-.559-.709-.778-.809a3.69,3.69,0,0,0-.59-.32c-.3-.072-.7.046-.944-.141a4.053,4.053,0,0,1-1.045-1.365c-.171-.271-.054-.643-.329-.863-.186-.15-.478-.232-.478-.521.338.033.289-.265.037-.321-.169-.038-.589,0-.418-.3.221-.388-.429-.812-.629-1.015a3.252,3.252,0,0,1-.762-1.155c-.3-.766-.9.575-1.219.116-.218-.307-.547-.089-.692-.379-.068-.139-.492-.213-.624-.424a2.475,2.475,0,0,0,.639,0,.424.424,0,0,0-.639-.227c.055.064.108.125.166.185-.612-.08.387,1.324-.681.886.071.214-.112.27-.278.2-.229-.1-.24-.368-.32-.573-.169-.424-.767-.459-.838-.984-.043-.333.108-1-.363-.983-.744.023-.513-1-.412-1.5.134-.672-.2-.795-.59-1.267s-.323-.756-.973-.879c-.492-.094-.818-.623-1.211-.893a1.215,1.215,0,0,0-.738-.31c-.458.038-.183-.22-.518-.35.732-.224-.71-1.365-.944-1.564-.172-.146-.32-.319-.486-.47-.249-.223-.021-.275.08-.555a.4.4,0,0,0-.166-.542c-.206-.162-.043-.4-.009-.6a.82.82,0,0,0,.433.124c-.035-.183-.123-.352-.144-.538-.034-.322.32-.269.347-.507.037-.347.048-.249.34-.247.275,0,.243-.248.152-.406-.155-.265-.527-.519-.433-.871.08-.3.544-.226.624-.562-.2.058-.344-.092-.538-.072-.234.024-.492.138-.721.01-.35-.193-.406-.475-.864-.371.314-.726-.861-.936-.815-1.422.028-.283,0-.383-.261-.5a3.516,3.516,0,0,1-.458-1.065c.1-.438-.188-.263-.4-.562s-.108-.789-.35-.893c-.126-.054-.612-.207-.595-.4a1.575,1.575,0,0,1,.39-.909c-.618-.127-.335-.94-.61-1.253-.154-.175-.1-.331-.2-.536-.054-.113-.3-.573-.446-.805" transform="translate(-8760.979 -2496.325)" fill="#005f61"/>
            </g>
            <path id="sy" d="M-122.956-135.363c.179-.227.525-.7.844-.762-.487-.454.209-.74.618-.618-.359-.437.176-.49.3-.907a.769.769,0,0,0-.484-.748c-.3-.056.273-.49-.2-.358-.78.219-.838-.279-.874-.683-.033-.367.2-1.037-.125-1.307-.264-.217-.059-.792-.069-1.109-.007-.238.435.136.52.178.007.031.108-.211.3-.325.232-.14.075-.455.116-.674a2.144,2.144,0,0,0,.618-.02,1.957,1.957,0,0,1-.313-.815c-.017-.145,0-.554.2-.605a.607.607,0,0,1,.428.024c.328.173.392.466.73.413a3.9,3.9,0,0,0,1.079-.283c.4-.174.7-.416,1.152-.351.335.048.531.285.814.418a3.143,3.143,0,0,0,1.3.058,8.1,8.1,0,0,0,2.334-.908c.816-.326,1.707.131,2.544-.2.427-.171,1.055-.823,1.117.2.015.238-.565.72-.733.885-.3.3-.641.279-.982.479-.733.43.035,1.361.092,1.875a6.311,6.311,0,0,1-.172.991c-.032.468,0,1.225,0,1.688-.006,1.084-4.569,3.157-6.885,4.742-.631.432-1.651,1.47-2.471.9-.3-.209-.513-.369-.821-.581a.775.775,0,0,0-.863-.105c-.019-.067.193-1.347-.115-1.482" transform="translate(145.217 157.109)" fill="#005f61"/>
            <g id="om" transform="translate(59.458 38.846)">
              <path id="path4692" d="M9435.743,3390.674a1.492,1.492,0,0,0,.349-.627.859.859,0,0,1,.187-.177c.077-.092-.12-.378-.144-.474-.105.447-.575.779-.392,1.278" transform="translate(-9421.639 -3375.324)" fill="#005f61"/>
              <path id="path4696" d="M9310.113,3123.745a2.583,2.583,0,0,1,.226-.474c.194.218.381-.078.289-.268.166.091.5.659.083.556.27.187.071,1.336-.226,1.283-.4-.072.143-1.071-.372-1.1" transform="translate(-9302.685 -3123.003)" fill="#005f61"/>
              <path id="path4786" d="M9169.493,3203.411a24.445,24.445,0,0,0,6.264-2.159c.558-1.064-.043.612.226-.573.218-.968.369-1.935.587-2.857.151-.638.51-1.441.141-2.049-.267-.437-.8-.811-.974-1.294-.211-.607.937-2.7.372-3.028.252-.3.75-.041.971-.329.24-.317-.146-.211-.227-.371a2.246,2.246,0,0,1-.095-1.79c.132-.2.4.108.358.268-.132.5.372-.042.452-.117.243-.234.243-.195.395.136a6.093,6.093,0,0,0,.993,1.517,4.2,4.2,0,0,0,2.446,1.15c.427.085.79.253,1.222.3.581.065.9.772,1.233,1.167.267.318.449.7.719,1.008a1.509,1.509,0,0,0,.792.477c.861.344-.114,1.568-.286,2.074-.323.955-1.348,1.454-1.625,2.477-.062.241-.154.94-.535.825-.3-.091-.246-.669-.632-.428-.464.28-.438,1.286-.556,1.7a2.531,2.531,0,0,0,.163,1.483c.114.428.188.752-.332.767-.835.025-1.754.271-1.96,1.172a2.724,2.724,0,0,1-.366,1.042c-.277.372-.83.352-1.268.385a1.155,1.155,0,0,0-1.053.543c-.3.4-.106.481-.129.943-.021.367-.4.634-.692.778-.144.069-.286.162-.433.047-.249-.2-.458-.144-.77-.144-.9,0-1.694.877-2.607.851-.589-.017-.326-1.462-.958-1.531.269-.281-.387-1.266-.521-1.513a19.72,19.72,0,0,1-1.325-2.936" transform="translate(-9169.484 -3185.414)" fill="#005f61"/>
            </g>
            <path id="eg" d="M-543.334,123.185c-.408-.653.432-1.337.329-2.006-.111-.719-.766-1.22.269-2.073.022.524.632.336.949.242a3.891,3.891,0,0,1,1.627.078,11.6,11.6,0,0,1,1.841.365c.257.069.3.349.559.429a1.439,1.439,0,0,0,.639.018c.154-.017.226.225.4.261a5.538,5.538,0,0,0,.578.06c.619.061,1.032.45,1.613.547a1.985,1.985,0,0,0,1.5-.628c.209-.178.4-.371.595-.568.164.128.288.26.495.227-.118-.06-.093-.094-.249-.082a.869.869,0,0,0,.455-.536c.351.209.68-.167,1.03-.164a2.037,2.037,0,0,0-.641.432c.062-.037,1.482-.466.8-.515.5-.166.827.408,1.309.34.23-.033.447-.26.691-.175.227.079.334.408.535.535-.2-.143-.412-.456-.681-.474.08.213-.215.617.133.7.378.09.2.184.445.412,0-.084.674-.369.186-.6.519.121.692.6,1.3.547.2-.017.78-.382.677.051.377-.24.8-.1,1.206-.222a2.661,2.661,0,0,0,1-.5l1.74,4.593c-.44.559-.342,1.594-.621,2.257a2.2,2.2,0,0,0-.153,1.038c0,.35-.442.689-.332,1.03a6.3,6.3,0,0,0-.732-.45,3.061,3.061,0,0,1-.71-.806c-.258-.373-1.014-.616-.9-1.175s-.433-.955-.711-1.352a5.413,5.413,0,0,1-.814-1.842c-.258.277-.533.882-.264,1.2.46.542.413,1.208.8,1.768a10.435,10.435,0,0,0,1.091,1.493c.185.183.4.341.564.54.088.1.451.7.013.377.354.276.061.628.286.856a2.9,2.9,0,0,1,.62,1.015,3.287,3.287,0,0,0,.316.522c.084.13-.083.3-.09.424-.01.17.268.423.344.57.174.336.364.664.54,1,.578,1.1,1.161,2.184,1.708,3.3a9.24,9.24,0,0,0,.8,1.144c.25.366.688.479.92.852a1.286,1.286,0,0,1-.638-.124,2.542,2.542,0,0,0,.23,1.863c.29.335-.38,1.009-.789,1.029-.2.01-.28-.138-.484.09a2.06,2.06,0,0,0-.319.717.722.722,0,0,1-.5.569c-.237.055-.665.007-.791.279-.231.5-.09,1.081-.793,1.025-.819-.065-1.236-.729-1.667-.711a15.106,15.106,0,0,1-3.352,0c.032-.112.161-.349.082-.464-.2-.291-.355.237-.422.332-.267.382-1.6.152-2.029.152l-11.472-.025-.409-15.505c-.043-.725-.025-1.485-.125-2.2a7.716,7.716,0,0,0-.522-2.087" transform="translate(543.446 -93.342)" fill="#005f61"/>
            <g id="sa" transform="translate(21.067 24.57)">
              <path id="path3380" d="M8461.608,2891.665a1.431,1.431,0,0,0-.366-1.024c-.117-.076-.7-1.287-.661-.7-.054-1.047-.778-1.316-1.356-2.025a3.5,3.5,0,0,1-.629-.984c-.132-.424-.372-.544-.59-.889-.126-.2-.017-.378-.166-.586a5.355,5.355,0,0,1-.346-.805c-.066-.177-.1-.364-.187-.535s-.237-.178-.314-.316,0-.312-.1-.428-.269-.134-.38-.237a10.23,10.23,0,0,1-.851-.813c-.3-.352-.652-.2-.989-.454a5.906,5.906,0,0,1-1.285-1.77,1.5,1.5,0,0,1-.163-.9c-.021-.392-.3-.716-.332-1.111a12.181,12.181,0,0,0,.074-1.553,1.938,1.938,0,0,0-.3-.634c-.066-.1-.47-.624-.015-.269-.1-.261-.326-.264-.387-.55a4.388,4.388,0,0,0-.277-.776,4.917,4.917,0,0,0-1.322-1.6,2.368,2.368,0,0,0-1.185-.529c-.191-.052-.283-.417-.338-.573a3.278,3.278,0,0,0-.563-.841c.725-.264-.286-1.452-.521-1.74-.16-.193-.606-.545-.587-.8.031-.439-.532-.693-.724-1.088-.578-1.2-1.488-2.2-2.126-3.371-.2-.358-.412-.911-.842-1.032-.2-.055-.964-.183-.979.178-.258-.235.157-.851.229-1.1a12.691,12.691,0,0,0,.117-1.575,5.3,5.3,0,0,1,.094-.643,7.6,7.6,0,0,0,2.344.4c.976-.213.962-1.634,1.88-1.779.344-.054,1.188.032,1.15-.432-.083-1.058.378-.741,1.019-.957q-1.252-1.2-2.4-2.5a13.784,13.784,0,0,0,4.224-1.581,13.471,13.471,0,0,1,2.879.6,40.784,40.784,0,0,1,7.356,5.005c.5.383.993.762,1.46,1.184a2.238,2.238,0,0,0,1.61.524c.811.079,1.666.193,2.479.268.3.028.446-.124.77-.054a11.106,11.106,0,0,0,1.334.188c.472.042.509.591.661.938.22.516.973.19,1.4.228.441.039.5.278.645.639.154.391.93.888.81,1.326a.846.846,0,0,0-.146-.185c-.132.314.183.278.146.555.006,0,1.325.126.821.514.194.061.6,1.052.8.494-.131.5,1.06,1.055,1.337,1.357a.534.534,0,0,1-.329-.267c.006.548.338.556.458,1,.068.258.04.8-.335.465.034.292-.061.35.206.4a5.985,5.985,0,0,1,.412.85c-.077-.067-.152-.135-.227-.206.229.335.636.523.815.893s.238.718.458,1.082c.169.28.412.759.762.845.16.039.741-.113.658.2a.219.219,0,0,1,.349-.124c-.194.239-.372.889.289.721a4.763,4.763,0,0,0,.375.807,19.666,19.666,0,0,0,2.189,2.547,45.351,45.351,0,0,1,5.033.72.6.6,0,0,0,.389-.264c.307.7,1,1.072,1.113,1.529a1.988,1.988,0,0,1-.031,1.112c-.363,1.422-.563,3.982-1.088,4.265-3.576,1.927-8.049,2.6-12.3,3.3a9.516,9.516,0,0,0-1.585.736,5.226,5.226,0,0,0-1.737,2.538,1.146,1.146,0,0,1-.938.762c-.418,0-.5-.677-.835-.791-.387-.13-.67.067-1,.027a5.267,5.267,0,0,1-1.671-.221,2.944,2.944,0,0,0-1.585-.154c-.541,0-1.113.333-1.651.326-.67-.009-.767-.518-1.116-.426-.467.123-.59.735-.615,1.122s.452.6.046.88c-.077.053-.157.594-.741.787,0-.051.031-.065.028-.115" transform="translate(-8442.714 -2852.736)" fill="#005f61"/>
              <path id="path5488" d="M9040.611,3077.121c.1-.154.261-.113.372,0a.983.983,0,0,1-.372,0" transform="translate(-9009.028 -3065.173)" fill="#005f61"/>
            </g>
            <path id="il" d="M-168.076,47.42c.1-.136.642-.79.392-.948A6.937,6.937,0,0,0-167,44.144c.048-.244.054-.644.251-.819.148-.131-.077-.416.058-.561s.425,0,.568.019c.339.042.294-.308.4-.514.494.025.125,1.911.167,2.462a1.114,1.114,0,0,0-.675-.581c-.317-.085-.416.315-.478.56-.07.275-.22,1.25.177,1.2.832-.108-.357.457-.195,1.052.09.333.948-.3,1.127-.307a5.322,5.322,0,0,0-.014.969,4.377,4.377,0,0,1-.288,1.358c-.248.73-.066,1.984-.562,2.7l-1.608-4.265" transform="translate(187.904 -20.564)" fill="#005f61"/>
            <g id="lb" transform="translate(21.211 18.272)">
              <path id="lb-" d="M8283.457,2493.254c.455-.531.438-1.488.824-2.084.191-.3-.031-.694.188-.979.172-.221.639-.466.489-.81a.931.931,0,0,0,.612.012c.39-.232.114.209.172.342a1.066,1.066,0,0,1,.283.107c.194.188.086.147.234.418.315.578-.7.671-.291,1.16-.409-.122-1.1.164-.618.618a2.166,2.166,0,0,0-.824.824.236.236,0,0,1-.1-.1c-.068.133-.071.291-.146.427-.154.288-.6-.113-.821.068" transform="translate(-8283.457 -2489.326)" fill="#005f61"/>
            </g>
            <g id="kw" transform="translate(46.017 29.605)">
              <g id="kw-" transform="translate(0 0.052)">
                <path id="path5440" d="M8973.333,2953.728c.04.09-.486.961.166.9.563-.056-.012-.7-.166-.9" transform="translate(-8970.1 -2953.48)" fill="#005f61"/>
                <path id="path5486" d="M8915.041,2951.454c.915-.334.489-2.192,1.447-2.369a1.6,1.6,0,0,1,1.383.3c.126.1.446.775.32.937-.272-.382-.661.266-.8.453a.83.83,0,0,1,.987.559c.126.55.547,1.04.73,1.595-.355-.2-1.236.139-1.583-.1-.271-.19-.306-.6-.412-.887-.146-.381-1.514-.279-2.068-.482" transform="translate(-8915.041 -2949.044)" fill="#005f61"/>
              </g>
              <path id="kw." d="M8763.9,2707.326a1.722,1.722,0,0,0,0-3.441,1.722,1.722,0,0,0,0,3.441" transform="translate(-8761.753 -2703.884)" fill="#005f61"/>
            </g>
            <g id="qa" transform="translate(55.688 39.488)">
              <path id="qa-" d="M8936.192,2893c-.015-.112-.175-.8.144-.474-.021-.111-.092-.727.105-.206.015-.52.2-1.891.916-1.135.18.19.523.323.526.62a2.1,2.1,0,0,1-.148.529c-.043.164.06.378.074.542s.191.167.237.309a.9.9,0,0,1-.074.655c-.163.37-.109.64-.516.762-.337.1-.641.369-.867-.125a7.514,7.514,0,0,1-.4-1.477" transform="translate(-8936.14 -2890.966)" fill="#005f61"/>
            </g>
            <g id="cy" transform="translate(14.967 15.812)">
              <path id="cy-" d="M8165.338,2444.437c-.028-.075-.057-.151-.083-.227.281.277.7-.25,1.016-.229.5.033.123-.463.583-.453a4.7,4.7,0,0,0,1.425-.033c.555-.149,1.05-.727,1.634-.728-.369.232-.7.774-1.11.9-.446.14,0,.569.18.766-.191.023-.626-.015-.772.118-.163.147-.22.356-.443.433-.195.067-.964.15-.844.5-.647-.326-1.282-.229-1.585-1.051" transform="translate(-8165.255 -2442.767)" fill="#005f61"/>
            </g>
          </g>
        </g>
      </g>
    </g>
    <g id="Group_55944" data-name="Group 55944" transform="translate(11.59 25.755)">
      <g id="Group_55943" data-name="Group 55943" transform="translate(0 0)">
        <path id="Subtraction_1" data-name="Subtraction 1" d="M25.553,37.563a3.182,3.182,0,0,1-3.179-3.01,3.306,3.306,0,0,1-.355.019,3.187,3.187,0,0,1-3.175-3.012,3.3,3.3,0,0,1-.356.019,3.186,3.186,0,0,1-3.172-3.012,3.257,3.257,0,0,1-.348.019,3.187,3.187,0,0,1-2.7-4.885l-.647-.454L7.854,20.871a1.784,1.784,0,0,1-1.806.295L0,19.118l.542-1.773c1.326.416,3.467,1.135,6.148,2.193l.014,0a.038.038,0,0,0,.035-.024l3.7-9.381.069-.174,2.213-5.609A.036.036,0,0,0,12.7,4.3L5.4,1.459,5.845,0l7.5,2.676a1.788,1.788,0,0,1,1.072,2.108l1.543.645a4.088,4.088,0,0,0,1.567.314c.085,0,.171,0,.256-.008.227-.015.4-.021.586-.021.446,0,1.036.034,2.463.116l1.519.086a12.48,12.48,0,0,1,3.476.7c.321-.31.642-.627.979-.967A4.415,4.415,0,0,1,30.629,4.4l3.321.527a.875.875,0,1,1-.274,1.729l-3.322-.527a2.66,2.66,0,0,0-2.305.754,51.322,51.322,0,0,1-8.284,6.9.56.56,0,0,0-.27.417.5.5,0,0,0,.155.414,3.206,3.206,0,0,0,2.272.92c1.535,0,3.454-1,5.551-2.878a2,2,0,0,1,1.336-.517,1.956,1.956,0,0,1,1.425.611,10.207,10.207,0,0,0,7.482,3.32,10.665,10.665,0,0,0,1.78-.152,1.011,1.011,0,0,1,.171-.015.857.857,0,0,1,.517.169l7.238,5.342.065.047,3.755-2.412L47.618,9.86,46.262,6.423l-2.575.95a6.721,6.721,0,0,1-3.373.333L37.733,7.3a.875.875,0,0,1,.137-1.739.885.885,0,0,1,.137.011l2.58.409a4.979,4.979,0,0,0,.774.061,4.95,4.95,0,0,0,1.719-.306l2.552-.942A1.786,1.786,0,0,1,46.7,2.676L53.356.067,54,1.7,47.346,4.3a.031.031,0,0,0-.019.019.032.032,0,0,0,0,.028l3.033,7.69.121.307,2.828,7.168a.036.036,0,0,0,.034.023l.014,0,4.76-1.877.642,1.628L54,21.166a1.786,1.786,0,0,1-2.021-.511L48.57,22.842a3.432,3.432,0,0,1-.237,3.323,3.478,3.478,0,0,1-2.919,1.609,3.525,3.525,0,0,1-.908-.121,3.489,3.489,0,0,1-3.484,3.28,3.676,3.676,0,0,1-.678-.064A3.457,3.457,0,0,1,36.858,34.3a3.607,3.607,0,0,1-1.235-.22,3.448,3.448,0,0,1-1.184,2.27,3.54,3.54,0,0,1-4.423.14l-1.275-.94-.756.887A3.181,3.181,0,0,1,25.553,37.563ZM27.718,30.4a1.436,1.436,0,0,0-1.1.508l-2.165,2.54a1.438,1.438,0,0,0,2.2,1.859l2.165-2.54.005-.007.005-.007A1.438,1.438,0,0,0,27.718,30.4Zm.008-1.75h0a3.188,3.188,0,0,1,2.424,5.25l-.27.317,1.176.868a1.841,1.841,0,0,0,1.1.364,1.714,1.714,0,0,0,1.254-.527,1.743,1.743,0,0,0,.216-2.136l-1.859-1.439a.875.875,0,0,1,1.071-1.384l.951.737.036.028c.984.762.984.762,1.534,1.167l.022.016.382.281a1.833,1.833,0,0,0,1.1.361,1.73,1.73,0,0,0,1.375-2.8l-2.682-2.065a.875.875,0,0,1,.534-1.568.866.866,0,0,1,.533.182l1.553,1.2.012.01c1.222.941,1.222.941,1.538,1.174l.2.144a1.863,1.863,0,0,0,1.1.361,1.717,1.717,0,0,0,1.225-.5A1.754,1.754,0,0,0,42.4,26.4l-3.024-2.33a.875.875,0,1,1,1.068-1.387l1.54,1.187.067.051c1.522,1.173,1.522,1.173,1.978,1.509l.332.244a1.74,1.74,0,0,0,2.417-.332,1.694,1.694,0,0,0,.341-1.284,1.859,1.859,0,0,0-.734-1.238l-3.742-2.761-.056-.041c-2.858-2.11-2.858-2.11-3.055-2.247l-.1-.072a12.038,12.038,0,0,1-1.668.117,12.121,12.121,0,0,1-8.787-3.856.222.222,0,0,0-.162-.068.251.251,0,0,0-.167.066c-2.457,2.207-4.722,3.326-6.733,3.326a4.965,4.965,0,0,1-3.465-1.4,2.243,2.243,0,0,1-.691-1.849,2.27,2.27,0,0,1,1.04-1.705,43.648,43.648,0,0,0,5.56-4.332,10.769,10.769,0,0,0-2.1-.328L20.7,7.576h-.02c-1.4-.08-1.918-.11-2.3-.11-.179,0-.321.007-.479.017-.122.008-.245.012-.368.012a5.869,5.869,0,0,1-2.243-.449l-1.5-.626-2.812,7.128-.01.026L8.692,19.331l3.883,2.45.036.024.771.542L14.7,20.8a3.188,3.188,0,0,1,5.614,1.888,3.263,3.263,0,0,1,.347-.019,3.191,3.191,0,0,1,2.415,1.107l0,0,0,0a3.157,3.157,0,0,1,.752,1.809c0,.014,0,.028,0,.042s0,.029,0,.042l.043,0,.042,0c.088-.007.178-.011.266-.011a3.144,3.144,0,0,1,2.058.757,3.2,3.2,0,0,1,1.119,2.254A3.293,3.293,0,0,1,27.725,28.649Zm-3.535-1.24a1.437,1.437,0,0,0-1.1.506l-2.165,2.541a1.437,1.437,0,0,0,.168,2.025,1.437,1.437,0,0,0,2.027-.167l2.162-2.537a1.436,1.436,0,0,0-1.095-2.368Zm-3.526-2.991a1.439,1.439,0,0,0-1.1.506L17.4,27.464a1.438,1.438,0,0,0,2.194,1.859l2.164-2.539a1.438,1.438,0,0,0-.049-1.914l-.007-.007-.005-.006A1.422,1.422,0,0,0,20.664,24.418Zm-3.528-2.992a1.438,1.438,0,0,0-1.1.506l-2.165,2.54a1.438,1.438,0,0,0,2.2,1.859l2.163-2.538a1.436,1.436,0,0,0-1.092-2.367Z" transform="translate(0 0)" fill="#005f61"/>
      </g>
    </g>
  </g>
</svg>
