<svg id="slid5Icon5" xmlns="http://www.w3.org/2000/svg" xmlns:xlink="http://www.w3.org/1999/xlink" width="143.111" height="103.595" viewBox="0 0 143.111 103.595">
  <defs>
    <clipPath id="clip-path">
      <rect id="Rectangle_14371" data-name="Rectangle 14371" width="143.111" height="103.595" fill="#fff"/>
    </clipPath>
  </defs>
  <g id="Group_56823" data-name="Group 56823" clip-path="url(#clip-path)">
    <path id="Path_124507" data-name="Path 124507" d="M86.774,70.324c.078-.872.012-1.756.012-2.978A10.854,10.854,0,0,0,85.7,68.3c-.458.549-.909,1.1-1.363,1.657q1.241.8,2.482,1.6a4.9,4.9,0,0,1-.045-1.238" transform="translate(-4.936 -3.941)" fill="#fff"/>
    <path id="Path_124508" data-name="Path 124508" d="M81.887,78.632a3.161,3.161,0,0,0,3.753-1.548,3.039,3.039,0,0,0-.867-3.853,21.56,21.56,0,0,0-2.161-1.551c-.6.729-1.2,1.456-1.81,2.174a1.914,1.914,0,0,1-1.07.5c-1.361.24-2.732.436-4.1.605a.053.053,0,0,0-.012,0c1.467.959,2.931,1.922,4.408,2.865a6.8,6.8,0,0,0,1.865.8" transform="translate(-4.425 -4.195)" fill="#fff"/>
    <path id="Path_124509" data-name="Path 124509" d="M78.009,55.574c3.219,2.119,6.426,4.254,9.663,6.346a28.673,28.673,0,0,0,3.88,2.256,3.12,3.12,0,0,0,4.464-2.555,3.347,3.347,0,0,0-1.674-3.177c-1.605-1.153-3.26-2.239-4.905-3.337q-7.276-4.855-14.558-9.7a4.921,4.921,0,0,0-3.484-.841,14.849,14.849,0,0,1-3.576-.018,2.692,2.692,0,0,0-2.335.72c-.826.764-1.633,1.55-2.49,2.276-3.615,3.059-7.424,3.3-11.381.734-1.164-.753-1.288-1.283-.475-2.409,1.834-2.537,3.694-5.055,5.535-7.587a1.856,1.856,0,0,0,.161-.5c-.453-.1-.844-.214-1.245-.275a19.485,19.485,0,0,1-7.456-2.34c-.592-.365-.952.016-1.258.472q-5.666,8.435-11.309,16.884a1.306,1.306,0,0,0-.082,1.175c1.173,1.623,2.43,3.187,3.666,4.765.458.586.909.48,1.343-.043.478-.577.931-1.179,1.448-1.719a4.749,4.749,0,0,1,7.507.981c.206.377.418.75.628,1.126.019-.1.039-.205.057-.307a14.006,14.006,0,0,1,3.5-.612,4.265,4.265,0,0,1,4.077,4.6c-.07.574-.1,1.109.8,1.2A4.493,4.493,0,0,1,62.833,69c-.061.619-.034.951.731,1.119a4.207,4.207,0,0,1,3.286,2.9,4.626,4.626,0,0,1-.215,3.277c-.236.59-.233,1.068.33,1.419,1.415.885,2.8,1.835,4.276,2.6a4.148,4.148,0,0,0,4.471-.17,1.622,1.622,0,0,0,.474-2.539A9.362,9.362,0,0,0,74.317,75.9c-1.707-1.187-3.47-2.292-5.2-3.445a5.71,5.71,0,0,1-1.03-.828c-.442-.476-.428-1.025.27-1.143a2.59,2.59,0,0,1,1.672.255c.349.217.691.447,1.038.668l-.024-.027a1.982,1.982,0,0,1-.189-1.261,22.389,22.389,0,0,0,.4-2.462,1.155,1.155,0,0,0-1.89-.839,19.873,19.873,0,0,0-1.57,1.375c-.072-.054-.184-.1-.179-.137.265-1.766-.652-2.884-1.842-4.091a39.082,39.082,0,0,1-3.8-4.976,1.8,1.8,0,0,1,.457-2.663c.534-.445,1.016-.952,1.608-1.513a8.889,8.889,0,0,0,.556,1.014c.14.194.462.489.571.441,1.049-.465,1.3.309,1.745.962,1.064,1.565,2.189,3.087,3.332,4.6a3.51,3.51,0,0,0,1.07.861c.464.264.927.535,1.393.8.567-.739,1.346-.217,1.974.187q1.374.884,2.744,1.774c.646.192,1.3.373,1.942.556.249.071.6-.121.875-.248.424-.193.824-.436,1.235-.656,2.639-1.415,2.667-1.433,4.226,1.086.713,1.151,1.533,1.908,3.011,1.7a5.217,5.217,0,0,1,1.362.264l.8.12a3.105,3.105,0,0,0-1.127-2.584,21.1,21.1,0,0,0-2.081-1.48q-5.342-3.511-10.7-7c-.668-.433-1.012-.964-.531-1.682.5-.75,1.057-.29,1.577.053" transform="translate(-2.071 -2.05)" fill="#fff"/>
    <path id="Path_124510" data-name="Path 124510" d="M26.318,35.523c-.813,1.741-.048,3.611.079,5.506a1.5,1.5,0,0,1-.294.856,20.431,20.431,0,0,0-2.725,6.768c-.017.07-.033.14-.049.21.9.568,3.875,2.437,4.654,3.016,1.867,1.389,1.907,1.413,3.188-.478,4.672-6.9,9.309-13.828,13.98-20.731.366-.542.33-.886-.178-1.277-1-.768-1.955-1.592-2.96-2.353-.837-.635-1.727-1.209-.96-2.575l1,.049c1.645,1.337,3.25,2.628,4.839,3.937a1.613,1.613,0,0,1,.414,2.478c-.121.205-.249.407-.383.6-.388.564-.264.931.4,1.147,1.649.539,3.266,1.19,4.941,1.619a15.779,15.779,0,0,0,10.233-.3c1.386-.571,2.826-1.015,4.268-1.446-.063-.04-.134-.078-.192-.12a7.667,7.667,0,0,0-3.739-1.741,2.006,2.006,0,0,1-1.764-1.87,4.973,4.973,0,0,1,.673-4.064c.352-.511.225-1.329.514-1.91a4.248,4.248,0,0,1,1.215-1.335,6.419,6.419,0,0,1,1.5-.576,6.6,6.6,0,0,0-1.4-.933,4.239,4.239,0,0,1-2.53-2.256,5.3,5.3,0,0,0-.635-.833c-1.433-1.643-1.446-1.649-2.725.12-.559.776-1.122.874-1.813.181a7.938,7.938,0,0,0-1.463-1.328,3.935,3.935,0,0,0-1.426-.217,6.343,6.343,0,0,0-.062,1.444,4.267,4.267,0,0,0,.677,1.147c-.915-.326-1.637-.607-2.377-.834-.278-.086-.764-.174-.869-.039-1.063,1.359-2.942.247-4.084,1.361-.087.085-.571-.135-.792-.311-.6-.477-1.162-1.008-1.846-1.613-.59,1.3-1.546.939-2.486.684a2.474,2.474,0,0,0-2.456,1.031c-.994,1.009-2.012,1.5-3.389.823a1.056,1.056,0,0,0-.782.031c-2.8,1.237-5.286.4-7.712-1.056-1.148-.689-2.332-1.315-3.509-1.955a.719.719,0,0,0-.447-.025,19.637,19.637,0,0,1-2.655.533,10.769,10.769,0,0,0-6.882,3.327,1.43,1.43,0,0,1-1.526.4c-1.359-.3-2.768-.379-4.285-.565,0,.537,0,.753,0,.97.007.457.992.782.173,1.354-.763.532-1.5,1.229-2.53.844A4.478,4.478,0,0,0,0,24.483V26.35l1.819.735c.109,1.1.138,2.129-.813,2.914-.539.443-.4.937.174,1.195a2.832,2.832,0,0,1,1.688,2.064,1.939,1.939,0,0,0,.6.845c.622.582.971,1.188.3,2.019l.153.263a10.125,10.125,0,0,0,1.512-.294c1.118-.4,2.166-.331,2.769.743.636,1.134,1.53.858,2.431.7a2.022,2.022,0,0,0,1.809-1.585c.058-.261.1-.525.2-1.007,1.414.773,2.775,1.457,4.074,2.245,1.164.705,2.171,1.192,3.409.012a16.622,16.622,0,0,1,2.862-1.822l3.338.149" transform="translate(0 -0.917)" fill="#fff"/>
    <path id="Path_124511" data-name="Path 124511" d="M46.536,75.417a2.657,2.657,0,0,0,2.72-1.223c2.03-2.6,4.1-5.168,6.1-7.8a11.16,11.16,0,0,0,1.024-2.052,10.688,10.688,0,0,0-.289-1.25,2.613,2.613,0,0,0-4.5-.9c-1.831,2.1-3.524,4.322-5.254,6.509a14.608,14.608,0,0,0-1.64,2.328,3.7,3.7,0,0,0-.467,2.1,2.676,2.676,0,0,0,2.31,2.283" transform="translate(-2.587 -3.585)" fill="#fff"/>
    <path id="Path_124512" data-name="Path 124512" d="M108.536,56.8c-.458-.59-.759-.529-1.321-.121-.232.169-.47.329-.7.5.705-.076,1.41-.165,2.115-.261-.032-.041-.056-.071-.09-.114" transform="translate(-6.234 -3.299)" fill="#fff"/>
    <path id="Path_124513" data-name="Path 124513" d="M100.3,47.791q-3.679-5.461-7.327-10.944a1.648,1.648,0,0,0-1.849-.859,25.529,25.529,0,0,1-10.162-.363c-1.8-.467-3.61-.938-5.261-1.366-1.291.251-2.382.378-3.419.684-3.528,1.038-7.038,2.133-10.55,3.22a6.453,6.453,0,0,0-3.5,2.518C57,42.439,55.77,44.2,54.506,45.928c-.49.67-.36,1.043.357,1.42a6.182,6.182,0,0,0,7.167-.706c1.179-.919,2.189-2.055,3.371-2.97a4.06,4.06,0,0,1,2.164-.957c2.144-.037,4.29.186,6.437.252a8.09,8.09,0,0,1,4.3,1.691C84.338,48.7,90.4,52.7,96.425,56.746a1.6,1.6,0,0,0,1.356.316,4.623,4.623,0,0,1-.7-2.088c.323.092.6.175.873.248.639.169,1.285.429,1.927.619,1.066-.659,2.132-1.317,3.194-1.984.736-.461.758-1,.25-1.7-1.039-1.431-2.035-2.9-3.024-4.363" transform="translate(-3.173 -2.005)" fill="#fff"/>
    <path id="Path_124514" data-name="Path 124514" d="M112.993,56.211l.327-.052a1.905,1.905,0,0,0,1.751-1.582q-1.041.815-2.078,1.633" transform="translate(-6.613 -3.194)" fill="#fff"/>
    <path id="Path_124515" data-name="Path 124515" d="M102.084,59.95c-.031-.012-.056-.028-.086-.041-.865.5-.87.605-.615,1.876a4.884,4.884,0,0,1-4.352,5.938c-.6.047-.739.286-.716.832a13.3,13.3,0,0,1,.008,1.45c1.939.29,3.891.58,5.9.879,0-.521.018-.816,0-1.11-.144-2.132.559-3.145,2.619-3.763,1.4-.421,1.429-.736.865-2.022-.778-1.775-1.586-3.215-3.625-4.039" transform="translate(-5.637 -3.506)" fill="#fff"/>
    <path id="Path_124516" data-name="Path 124516" d="M145.481,8.631c-.689-.421-1.278-1.066-2.2-.56-.105.057-.3-.025-.45-.072-2.6-.848-5.233-.429-7.866-.226a5.311,5.311,0,0,1-2.294-.192c-2.169-.861-3.133-.185-4,1.621-1.658-.121-3.211-.225-4.764-.353-.693-.056-1.009.243-1.283.885a5.515,5.515,0,0,1-1.279,1.818c-1.106,1.03-2.345,1.916-3.464,2.934a1.816,1.816,0,0,1-2.085.465,5.545,5.545,0,0,0-2.258-.071c-.7.068-1.211.131-1.232-.832-.028-1.211-.718-1.834-2.161-1.632,1.53-2.429-.112-3.708-1.43-5.084-1.411-1.473-2.974-1.285-4.806-.749a21.049,21.049,0,0,1-4.849.374c-.186.008-.4-.208-.575-.355q-3.834-3.3-7.66-6.6H88.485c-1.551.615-3.08,1.288-4.658,1.824a2.064,2.064,0,0,0-1.617,2.334c.223,3.442.421,6.885.62,10.327.024.422,0,.845,0,1.625a6.276,6.276,0,0,1-1.306-.839,21.677,21.677,0,0,1-1.675-2.236,1.812,1.812,0,0,0-2.114-.823c-.832.195-1.67.382-2.482.645a2.317,2.317,0,0,0-1.243,3.727,3.719,3.719,0,0,1,.487,3.3,5.956,5.956,0,0,0-.02,1.5,9.51,9.51,0,0,0,1.018.059c.907-.04,1.465.1,1.06,1.249-.1.275.29.838.6,1.109.555.493.6.829.412,1.632a9.537,9.537,0,0,0,.344,3.376,6.217,6.217,0,0,0,.371.977.943.943,0,0,1-.072.962A13.1,13.1,0,0,1,80,31.08a51.091,51.091,0,0,0,5.768,1.278,16.91,16.91,0,0,0,6.367-.258c-.407-.693-.716-1.278-1.08-1.825-.8-1.195-.729-2,.39-2.917,1.52-1.247,3.08-2.444,4.748-3.762l.659,1.882c-1.156.953-2.276,1.956-3.486,2.835-.73.529-.748.942-.27,1.649q7.319,10.81,14.582,21.658c.433.647.749.712,1.351.209,1.254-1.048,2.553-2.042,3.859-3.027a2.062,2.062,0,0,1,.932-.485,10.14,10.14,0,0,1,.984-.361,4.737,4.737,0,0,0,1.343-.676c.8-.6,1.568-1.135,2.664-.707a.947.947,0,0,0,.844-.382,11.4,11.4,0,0,0,1-2.931,1.119,1.119,0,0,1,.847-1.134c1.327-.492,1.408-.881.729-2.091a4.219,4.219,0,0,1-.2-1.317c2.1.773,2.174.742,3.009-1.071a11.854,11.854,0,0,1,.616-1.382,2.474,2.474,0,0,0-.176-3.4c-.68-.746-.389-1.53.788-1.961a27.817,27.817,0,0,1,4.608-1.2c4.644-.838,3.608-.122,3.738-4.492.045-1.537-.153-1.639-1.682-1.67-1.767-.035-1.983-.29-1.686-1.992.02-.115.08-.247.045-.343-.553-1.525.545-2.137,1.546-2.806.97-.649,1.9-1.325,3.2-.827a2.212,2.212,0,0,0,2.749-.893,2.9,2.9,0,0,1,2.583-1.3c.587.029,1.231-.536,1.8-.906,1.316-.856,2.6-1.758,4.155-2.813l.1-2.131a18.855,18.855,0,0,1-1.932-.9m-70.512,8.1a2.65,2.65,0,0,1,1.539-2.7L79.5,17.252c-.853.371-1.519,1.433-2.678.914-.716-.319-1.717-.842-1.848-1.436" transform="translate(-4.302)" fill="#fff"/>
    <path id="Path_124517" data-name="Path 124517" d="M52.968,79.71c1.359.442,2.226.123,3.332-1.278,1.558-1.972,3.14-3.93,4.623-5.958A12.651,12.651,0,0,0,62,70.126a3.576,3.576,0,0,0-1.982-2.485,2.4,2.4,0,0,0-3.086.824c-1.719,2.105-3.383,4.255-5.043,6.408a5.047,5.047,0,0,0-.645,1.263,2.674,2.674,0,0,0,1.719,3.574" transform="translate(-2.988 -3.944)" fill="#fff"/>
    <path id="Path_124518" data-name="Path 124518" d="M48.434,61.559a3.277,3.277,0,0,0-1.628-2.642c-1.024-.516-2.114-.683-2.905.263-1.586,1.893-3.117,3.843-4.528,5.868a2.615,2.615,0,0,0-.189,2.094c.854,2.3,3.252,2.662,4.838.773,1.244-1.482,2.424-3.019,3.564-4.582a9.7,9.7,0,0,0,.847-1.774" transform="translate(-2.285 -3.424)" fill="#fff"/>
    <path id="Path_124519" data-name="Path 124519" d="M61.509,82.837c.216-.093.86-.172,1.158-.534a43.187,43.187,0,0,0,3.457-4.609c.673-1.085.287-2.051-.709-2.856a1.981,1.981,0,0,0-2.714.025,11.1,11.1,0,0,0-3.734,4.861c-.525,1.438.665,3.006,2.542,3.113" transform="translate(-3.444 -4.349)" fill="#fff"/>
    <path id="Path_124520" data-name="Path 124520" d="M88.131,74.164a5.084,5.084,0,0,1-2.247-.08c-.873-.224-1.111.02-1.178.9a5.315,5.315,0,0,1-.7,2.285,4.64,4.64,0,0,1-4.827,2.152c-.665-.068-1.225-.218-1.321.832a3.353,3.353,0,0,1-1,1.938A13.646,13.646,0,0,1,74.49,83.7H71.619a18.983,18.983,0,0,1-6.541-3.464c-.637-.47-.973-.4-1.355.277a9.067,9.067,0,0,1-1.135,1.442,4.484,4.484,0,0,1-7.291-.707c-.428-.756-.748-.907-1.579-.613A4.577,4.577,0,0,1,47.484,77.3c-.158-.692-.418-.749-1.058-.6a4.384,4.384,0,0,1-5.439-5.077,6.17,6.17,0,0,0,.083-.967c-.262-.036-.394-.064-.527-.07a4.336,4.336,0,0,1-4.4-3.63,4.827,4.827,0,0,1,1.274-4.4c.3-.375.645-.7.183-1.231-1.453-1.655-2.876-3.337-4.358-5.064-.123.144-.3.339-.462.54-.93,1.14-1.424,1.223-2.519.292-1.322-1.122-4.014-2.726-6.024-4.345-.041.1-.077.208-.125.307a4.943,4.943,0,0,0,.305,4.9,7.224,7.224,0,0,1,.75,5.824,1.212,1.212,0,0,0,.707,1.6A6.21,6.21,0,0,1,27.6,66.711c1.886,2.307,3.942,4.5,4.862,7.46A2.453,2.453,0,0,0,33.7,75.3a6.98,6.98,0,0,1,3.868,6.3,5.683,5.683,0,0,0,3.01,4.815c1.465.822,2.62,1.763,2.864,3.551a2.587,2.587,0,0,0,.738,1.14,21.316,21.316,0,0,1,2.7,3.042,14.854,14.854,0,0,1,1.386,3.994c.523,2.183.809,4.425,1.383,6.592.171.649.973,1.131,1.723,1.946l3.557-.083a26.011,26.011,0,0,1,1.8-2.018,2.1,2.1,0,0,1,1.224-.475c.773-.047,1.561.119,2.332.061a1.577,1.577,0,0,0,1.157-.554,1.728,1.728,0,0,1,1.782-1.03,2.835,2.835,0,0,0,2.609-1.406,4.395,4.395,0,0,1,3.693-1.928c1.939.031,3.045-1.056,4.215-2.277a15.465,15.465,0,0,1,2.9-2.6,5.268,5.268,0,0,1,2.678-.482c.833.007,1.425-.107,1.8-.914A2.859,2.859,0,0,1,83.738,91c.311-.008.75-.5.883-.864.393-1.066.839-1.969,2.1-2.244,1.074-.233,1.15-1.233,1.157-2.056.013-1.324.358-2.265,1.811-2.518a.782.782,0,0,0,.521-.513c.121-1.2.962-1.892,1.7-2.7,1.465-1.6,1.356-1.75-.084-3.325a10.2,10.2,0,0,0-3.7-2.62" transform="translate(-1.381 -3.087)" fill="#fff"/>
  </g>
</svg>
