<svg xmlns="http://www.w3.org/2000/svg" width="132.43" height="95.402" viewBox="0 0 132.43 95.402">
  <g id="slid5Icon3" transform="translate(-974 -1736.2)">
    <g id="scientific-journals-icon" transform="translate(975 1737.2)">
      <g id="Group_57124" data-name="Group 57124" transform="translate(0 0)">
        <path id="Path_124618" data-name="Path 124618" d="M66.212,90.463a7.99,7.99,0,0,0,7.995,7.994H131.43V14.1h-2.524M66.212,90.463a7.99,7.99,0,0,1-7.994,7.994H1V14.1H3.524" transform="translate(-1 -5.054)" fill="none" stroke="#fff" stroke-linecap="round" stroke-linejoin="round" stroke-miterlimit="10" stroke-width="2"/>
        <path id="Path_124619" data-name="Path 124619" d="M117.635,9.8V91.211H61.467V17.162A7.453,7.453,0,0,1,68.831,9.8ZM61.467,17.162V91.211H5.3V9.8H54.1a7.453,7.453,0,0,1,7.362,7.362Z" transform="translate(3.746 -9.8)" fill="none" stroke="#fff" stroke-linecap="round" stroke-linejoin="round" stroke-miterlimit="10" stroke-width="2"/>
        <path id="Path_124624" data-name="Path 124624" d="M62.521,54.835H93.444m-30.923,8.2H93.444m-30.923,8.2H93.444" transform="translate(14.683 -41.691)" fill="none" stroke="#fff" stroke-linecap="round" stroke-linejoin="round" stroke-miterlimit="10" stroke-width="2"/>
        <g id="Group_56819" data-name="Group 56819" transform="translate(21.672 42.356)">
          <ellipse id="Ellipse_11212" data-name="Ellipse 11212" cx="4.838" cy="14.726" rx="4.838" ry="14.726" transform="translate(10.216)" fill="none" stroke="#fff" stroke-linecap="round" stroke-linejoin="round" stroke-miterlimit="10" stroke-width="1"/>
          <ellipse id="Ellipse_11213" data-name="Ellipse 11213" cx="14.726" cy="4.838" rx="14.726" ry="4.838" transform="translate(25.506 26.415) rotate(-150)" fill="none" stroke="#fff" stroke-linecap="round" stroke-linejoin="round" stroke-miterlimit="10" stroke-width="1"/>
          <ellipse id="Ellipse_11214" data-name="Ellipse 11214" cx="14.726" cy="4.838" rx="14.726" ry="4.838" transform="translate(30.347 11.597) rotate(150)" fill="none" stroke="#fff" stroke-linecap="round" stroke-linejoin="round" stroke-miterlimit="10" stroke-width="1"/>
        </g>
      </g>
    </g>
    <g id="Group_56820" data-name="Group 56820" transform="translate(1054.438 1778.285)">
      <path id="Path_124493" data-name="Path 124493" d="M16.788,30.3a.442.442,0,0,0,.442-.442V28.192a.442.442,0,1,0-.884,0v1.662A.442.442,0,0,0,16.788,30.3ZM24.3,41.128a.442.442,0,0,0-.429-.333H12.735a.441.441,0,0,0-.429.333,6.186,6.186,0,1,0,11.99,0Zm-6,6.82a5.308,5.308,0,0,1-5.3-5.3,5.254,5.254,0,0,1,.09-.968H23.514A5.3,5.3,0,0,1,18.3,47.948Z" transform="translate(-10.256 -21.943)" fill="#fff"/>
      <path id="Path_124494" data-name="Path 124494" d="M34.226,32.269H32.57V31.2a.442.442,0,0,0-.442-.442h-.315V11.614h1.814a.442.442,0,0,0,.442-.442V9.657a.442.442,0,0,0-.442-.442H31.813V7.385a.442.442,0,0,0-.442-.442H29.856a.442.442,0,0,0-.442.442V9.216H27.506V7.141a1.2,1.2,0,0,0-.064-2.392h-5.3a1.2,1.2,0,1,0-.062,2.392V9.216h-.7a.442.442,0,0,0-.442.442v1.515a.442.442,0,0,0,.442.442h.7V23.02a2.714,2.714,0,0,0,5.428,0V11.614h1.909v19.14H29.1a.442.442,0,0,0-.442.442v1.073H16.372a7.7,7.7,0,0,0-.1-13.689V8.851a1.2,1.2,0,1,0-.062-2.392H9.389a1.2,1.2,0,0,0-.064,2.392V18.58a7.7,7.7,0,0,0-.1,13.689H5.192a.442.442,0,0,0-.442.442v1.515a.442.442,0,0,0,.442.442H34.226a.442.442,0,0,0,.442-.442V32.71a.442.442,0,0,0-.442-.442ZM30.3,7.826h.631V9.215H30.3ZM21.824,5.948a.316.316,0,0,1,.316-.316h5.3a.316.316,0,0,1,0,.631h-5.3A.316.316,0,0,1,21.824,5.948Zm1.136,1.2h3.661V9.216h-3.66ZM21.824,10.1H33.185v.631H21.824Zm4.8,2.335H25.548a.442.442,0,1,0,0,.884h1.074v.821H25.548a.442.442,0,1,0,0,.884h1.074v.821H25.548a.442.442,0,1,0,0,.884h1.074v.821H25.548a.442.442,0,1,0,0,.884h1.074v.821H25.548a.442.442,0,1,0,0,.884h1.074V23.02a1.83,1.83,0,0,1-3.661,0V11.614h3.661Zm3.676-.821h.631v19.14H30.3ZM29.54,31.637h2.146v.631H29.54ZM9.073,7.659a.316.316,0,0,1,.316-.316h6.817a.316.316,0,1,1,0,.631H9.389A.316.316,0,0,1,9.073,7.659ZM5.98,25.452a6.835,6.835,0,0,1,3.972-6.193.442.442,0,0,0,.257-.4v-10h5.176v1H14.312a.442.442,0,0,0,0,.884h1.072v.821H14.312a.442.442,0,0,0,0,.884h1.072v.821H14.312a.442.442,0,0,0,0,.884h1.072v.821H14.312a.442.442,0,0,0,0,.884h1.072v.821H14.312a.442.442,0,0,0,0,.884h1.072v1.3a.442.442,0,0,0,.258.4A6.817,6.817,0,1,1,5.98,25.452Zm27.805,8.332H5.634v-.631H33.785Z" transform="translate(-4.75 -4.748)" fill="#fff"/>
      <path id="Path_124495" data-name="Path 124495" d="M28.586,69.494a1.2,1.2,0,1,0,1.2,1.2A1.2,1.2,0,0,0,28.586,69.494Zm0,1.515a.316.316,0,1,1,.316-.316A.316.316,0,0,1,28.586,71.009Zm4.163-3a1.2,1.2,0,1,0,1.2,1.2A1.2,1.2,0,0,0,32.749,68.01Zm0,1.515a.316.316,0,1,1,.316-.316A.316.316,0,0,1,32.749,69.525Zm-4.6-5.688a1.2,1.2,0,1,0,1.2-1.2A1.2,1.2,0,0,0,28.144,63.837Zm1.2-.316a.316.316,0,1,1-.316.316A.316.316,0,0,1,29.344,63.522Z" transform="translate(-21.672 -48.022)" fill="#fff"/>
    </g>
    <g id="Group_56821" data-name="Group 56821" transform="translate(997.537 1747.533)">
      <path id="Path_124496" data-name="Path 124496" d="M13.2,12C5.92,12,0,15.552,0,19.918v3.519c0,4.366,5.92,7.918,13.2,7.918s13.2-3.552,13.2-7.918V19.918C26.394,15.552,20.474,12,13.2,12ZM25.514,23.437c0,3.881-5.526,7.038-12.317,7.038S.88,27.318.88,23.437v-.681c1.906,2.969,6.707,5.08,12.317,5.08s10.411-2.112,12.317-5.08ZM1.188,21.472c1.251-3.2,6.259-5.512,12.009-5.512s10.758,2.311,12.011,5.512c-1.241,3.136-6.154,5.485-12.011,5.485S2.427,24.607,1.188,21.472Zm24.319-1.346c-1.922-3.023-6.723-5.046-12.31-5.046S2.809,17.1.889,20.125c0-.069-.009-.138-.009-.207,0-3.881,5.526-7.038,12.317-7.038s12.317,3.158,12.317,7.038c0,.07-.006.138-.009.207Z" transform="translate(0 -12)" fill="#fff"/>
      <path id="Path_124497" data-name="Path 124497" d="M10.239,28.578a1.3,1.3,0,0,0,.756-.238,10.9,10.9,0,0,1,5.523-1.7,1.32,1.32,0,1,0-.167-2.634,13.543,13.543,0,0,0-6.883,2.178,1.287,1.287,0,0,0-.48,1.46,1.3,1.3,0,0,0,1.252.932ZM9.975,26.9a12.683,12.683,0,0,1,6.438-2.021h.032a.44.44,0,1,1,.017.88,11.775,11.775,0,0,0-5.975,1.857.435.435,0,0,1-.66-.24.417.417,0,0,1,.15-.479Zm16.14.882a1.3,1.3,0,0,0-.756.238,10.873,10.873,0,0,1-5.523,1.7A1.32,1.32,0,0,0,20,32.356a13.547,13.547,0,0,0,6.883-2.179,1.286,1.286,0,0,0,.48-1.46A1.3,1.3,0,0,0,26.115,27.786Zm.264,1.674a12.677,12.677,0,0,1-6.437,2.017H19.91a.44.44,0,0,1-.017-.88,11.779,11.779,0,0,0,5.975-1.857.435.435,0,0,1,.66.239.417.417,0,0,1-.151.481Zm-10.825-.618a3.8,3.8,0,0,0-2.511,1.009.44.44,0,0,0,.619.623,2.954,2.954,0,0,1,1.892-.752.44.44,0,1,0,0-.88Zm6.6-3.079a2.954,2.954,0,0,1,1.892.752.44.44,0,1,0,.621-.623,3.8,3.8,0,0,0-2.513-1.009.44.44,0,0,0,0,.88ZM18.193,28.4h1.76a.44.44,0,1,0,0-.88h-1.76a.44.44,0,1,0,0,.88Z" transform="translate(-4.996 -18.724)" fill="#fff"/>
    </g>
  </g>
</svg>
