<svg xmlns="http://www.w3.org/2000/svg" width="106.375" height="109.782" viewBox="0 0 106.375 109.782">
  <g id="slid5Icon4" transform="translate(-20.213 -17.25)">
    <g id="Group_56183" data-name="Group 56183" transform="translate(20.213 17.25)">
      <g id="Group_56181" data-name="Group 56181" transform="translate(39.716 15.792)">
        <path id="Path_122757" data-name="Path 122757" d="M282.242,290.659a20.469,20.469,0,0,0,6.023,5.419,15.068,15.068,0,0,0-6.023-5.419Z" transform="translate(-278.222 -258.052)" fill="#fff"/>
        <path id="Path_122758" data-name="Path 122758" d="M279.819,269.312a2.528,2.528,0,0,0-1.373-3.3,18.534,18.534,0,0,0-5.07-1.3,20.542,20.542,0,0,0,.782,5.23,14.174,14.174,0,0,1,2.363.742A2.527,2.527,0,0,0,279.819,269.312Z" transform="translate(-273.376 -243.875)" fill="#fff"/>
        <path id="Path_122759" data-name="Path 122759" d="M296.4,278.815a2.531,2.531,0,1,0-3.456,3.7,13.517,13.517,0,0,1,2.878,3.722c1.028,1.677,2.007,3.355,2.891,5.122a20.657,20.657,0,0,0,5.356.706c.174,0,.35,0,.524-.011a61.061,61.061,0,0,0-4.463-8.454,18.294,18.294,0,0,0-3.734-4.784Z" transform="translate(-283.636 -251.208)" fill="#fff"/>
        <path id="Path_122760" data-name="Path 122760" d="M276.488,242.363a20.211,20.211,0,0,0-1.85,4.819,28.808,28.808,0,0,1,15.684,9.455A36.219,36.219,0,0,1,298.6,272.1a20.265,20.265,0,0,0,4.8-1.613,41.3,41.3,0,0,0-9.277-17.19A33.812,33.812,0,0,0,276.488,242.363Z" transform="translate(-274.072 -231.66)" fill="#fff"/>
        <path id="Path_122761" data-name="Path 122761" d="M310.877,239.757A41.032,41.032,0,0,0,291.754,224.9c-.4-.159-.786-.307-1.174-.454a20.485,20.485,0,0,0-4.317,3.243c-.15.148-.294.3-.437.452,1.284.411,2.624.884,4.039,1.45a36.119,36.119,0,0,1,16.851,13.055,2.528,2.528,0,0,0,4.152-2.878Z" transform="translate(-280.18 -221.869)" fill="#fff"/>
        <path id="Path_122762" data-name="Path 122762" d="M341.33,272.059a2.528,2.528,0,0,0-1.293,3.332,54.466,54.466,0,0,1,2.281,6.22l.411,1.34.326,1.075q.74-.6,1.439-1.28a20.447,20.447,0,0,0,2.537-3.029,59.134,59.134,0,0,0-2.355-6.36,2.526,2.526,0,0,0-3.344-1.289Z" transform="translate(-309.686 -247.77)" fill="#fff"/>
        <path id="Path_122763" data-name="Path 122763" d="M338.706,230.829a43.7,43.7,0,0,0-7.195-8.594,20.259,20.259,0,0,0-10.1-3.469,2.52,2.52,0,0,0,1.043,2.817,41.654,41.654,0,0,1,17.207,23.245A20.573,20.573,0,0,0,338.706,230.829Z" transform="translate(-299.578 -218.767)" fill="#fff"/>
      </g>
      <g id="Group_56182" data-name="Group 56182" transform="translate(0 0)">
        <path id="Path_122764" data-name="Path 122764" d="M238.439,337.077a2.225,2.225,0,1,0-4.417-.538c-1.07,8.759-5.262,13.325-13.613,22.425l-1.744,1.9a2.227,2.227,0,1,0,3.289,3l1.738-1.893C232.111,352.792,237.2,347.259,238.439,337.077Z" transform="translate(-203.448 -266.264)" fill="#fff"/>
        <path id="Path_122765" data-name="Path 122765" d="M302.268,337.866h.146a2.225,2.225,0,0,0,2.217-2.083c.055-.854.08-1.694.072-2.5a47.87,47.87,0,0,0-.28-4.783,30.117,30.117,0,0,1-4.608-.947,40.95,40.95,0,0,1,.439,5.776c0,.695-.015,1.422-.062,2.164a2.225,2.225,0,0,0,2.083,2.372Z" transform="translate(-248.109 -262.422)" fill="#fff"/>
        <path id="Path_122766" data-name="Path 122766" d="M257.468,311.15a2.23,2.23,0,0,0,2.314-2.132,24.834,24.834,0,0,1,1.233-7.195,30.051,30.051,0,0,1-3-4.184,25.725,25.725,0,0,0-2.683,11.2,2.225,2.225,0,0,0,2.134,2.306Z" transform="translate(-223.802 -246.066)" fill="#fff"/>
        <path id="Path_122767" data-name="Path 122767" d="M282.423,357.774a2.225,2.225,0,0,0-2.692,1.628,53.672,53.672,0,0,1-14.45,25.511,2.225,2.225,0,0,0,3.065,3.219,58.232,58.232,0,0,0,15.715-27.671A2.225,2.225,0,0,0,282.423,357.774Z" transform="translate(-228.85 -278.895)" fill="#fff"/>
        <path id="Path_122768" data-name="Path 122768" d="M226.63,290.884c.35-2.391.71-4.86,1.221-7.414a14.388,14.388,0,0,1,1.339-3.863A30.161,30.161,0,0,1,227.768,274a17.186,17.186,0,0,0-4.273,8.594c-.534,2.672-.9,5.2-1.259,7.643-1.456,9.959-2.711,18.555-14.531,29.527a2.226,2.226,0,1,0,3.029,3.262C223.694,311,225.12,301.227,226.63,290.884Z" transform="translate(-197.381 -233.16)" fill="#fff"/>
        <path id="Path_122769" data-name="Path 122769" d="M304.5,329.776a30.911,30.911,0,0,1-3.393.189c-.354,0-.706-.015-1.058-.027a52.019,52.019,0,0,1,.081,7.134c-.665,12.685-4.947,22.964-12.727,30.545a2.225,2.225,0,1,0,3.105,3.187c8.607-8.388,13.34-19.659,14.066-33.512a56.547,56.547,0,0,0-.074-7.524Z" transform="translate(-240.958 -263.635)" fill="#fff"/>
        <path id="Path_122770" data-name="Path 122770" d="M213.335,302.609a2.225,2.225,0,1,0-4.338-1c-2.015,8.759-4.26,16.4-11.36,21.171a2.228,2.228,0,0,0,2.482,3.7C208.56,320.8,211.188,311.947,213.335,302.609Z" transform="translate(-191.727 -247.3)" fill="#fff"/>
        <path id="Path_122771" data-name="Path 122771" d="M230.634,257.017a54.039,54.039,0,0,0-2.651,7.952,2.225,2.225,0,0,0,4.3,1.125,49.8,49.8,0,0,1,2.425-7.314,14.023,14.023,0,0,1,4.165-5.491,30.371,30.371,0,0,1,.854-5.693,18.207,18.207,0,0,0-9.1,9.421Z" transform="translate(-208.817 -218.728)" fill="#fff"/>
        <path id="Path_122772" data-name="Path 122772" d="M331.743,326.21a29.7,29.7,0,0,1-4.317,1.208,1.349,1.349,0,0,0,.025.176c1.27,8.882,1.079,14.825-3.408,26.573a2.229,2.229,0,1,0,4.165,1.587c4.807-12.591,5.01-19.312,3.654-28.792C331.817,326.708,331.779,326.46,331.743,326.21Z" transform="translate(-261.266 -261.683)" fill="#fff"/>
        <path id="Path_122773" data-name="Path 122773" d="M198.387,273.468c4.733-5.065,5.608-10.347,6.53-15.94a55.75,55.75,0,0,1,3.385-13.081,21.124,21.124,0,0,1,11.305-11.334,2.224,2.224,0,1,0-1.755-4.088,25.549,25.549,0,0,0-13.66,13.72,59.467,59.467,0,0,0-3.665,14.06c-.879,5.332-1.571,9.542-5.388,13.632a2.225,2.225,0,0,0,3.249,3.041Z" transform="translate(-190.583 -208.479)" fill="#fff"/>
        <path id="Path_122774" data-name="Path 122774" d="M258.015,226.562a2.2,2.2,0,0,0,.719,1.28,29.879,29.879,0,0,1,2.565-4.048c-.487.055-.975.119-1.462.206A2.225,2.225,0,0,0,258.015,226.562Z" transform="translate(-225.253 -205.722)" fill="#fff"/>
        <path id="Path_122775" data-name="Path 122775" d="M352.306,321.467l-1.56-1.585q-.918.583-1.869,1.1a71.721,71.721,0,0,1-.845,17.441,2.227,2.227,0,0,0,1.878,2.524,2.266,2.266,0,0,0,.326.025,2.227,2.227,0,0,0,2.2-1.9,89.252,89.252,0,0,0,1.106-14.2,8.089,8.089,0,0,1-1.235-3.4Z" transform="translate(-274.443 -258.227)" fill="#fff"/>
        <path id="Path_122776" data-name="Path 122776" d="M191.4,257.624c1.46-6.784,3.276-15.209,8.465-20.524a2.225,2.225,0,1,0-3.183-3.111c-6.085,6.225-8.141,15.745-9.631,22.7-.394,1.827-.757,3.552-1.153,4.961a2.225,2.225,0,1,0,4.289,1.185C190.607,261.3,190.991,259.515,191.4,257.624Z" transform="translate(-185.815 -210.928)" fill="#fff"/>
        <path id="Path_122777" data-name="Path 122777" d="M220.93,212.14a2.225,2.225,0,0,0,2.863,3.408,32.955,32.955,0,0,1,21.361-7.748,30.011,30.011,0,0,1,5.756-3.876,39.861,39.861,0,0,0-4.317-.522,37.3,37.3,0,0,0-25.662,8.738Z" transform="translate(-204.57 -194.53)" fill="#fff"/>
        <path id="Path_122778" data-name="Path 122778" d="M216.762,196.927a2.211,2.211,0,0,0,1.325-.439,39.175,39.175,0,0,1,22.652-8.1,2.225,2.225,0,1,0-.08-4.448,43.59,43.59,0,0,0-25.229,8.976,2.227,2.227,0,0,0,1.325,4.01Z" transform="translate(-201.509 -183.941)" fill="#fff"/>
        <path id="Path_122779" data-name="Path 122779" d="M284.579,188.678a42.155,42.155,0,0,1,8.883,1.965,30.2,30.2,0,0,1,10.559-.04,47.816,47.816,0,0,0-18.967-6.348,2.224,2.224,0,1,0-.475,4.423Z" transform="translate(-238.696 -184.102)" fill="#fff"/>
        <path id="Path_122780" data-name="Path 122780" d="M259.159,318.5a29.915,29.915,0,0,1-9.277-5.835c-.966,1.982-1.645,5.756-1.384,13.325.293,8.367-5.405,17.767-17.432,28.739a2.225,2.225,0,1,0,3,3.289c13.047-11.905,19.223-22.432,18.878-32.187a37.6,37.6,0,0,1,.6-10.213,21.56,21.56,0,0,1,1.814,10.035c-.488,12.087-6.886,24.14-17.549,33.067a2.227,2.227,0,0,0,2.857,3.408c11.623-9.73,18.6-22.961,19.14-36.3a30.164,30.164,0,0,0-.636-7.339Z" transform="translate(-210.144 -254.284)" fill="#fff"/>
        <path id="Path_122781" data-name="Path 122781" d="M329.995,267.57,314.87,253.046a5.3,5.3,0,0,0-3.906-1.581l-3.893-3.953a27.435,27.435,0,0,0-40.9-36.381c-.424.411-.822.848-1.216,1.284a27.485,27.485,0,0,0,.907,37.513q.464.473.947.916a27.279,27.279,0,0,0,14.348,6.922,28.126,28.126,0,0,0,7.339.153,25.383,25.383,0,0,0,2.514-.411,27.579,27.579,0,0,0,10.894-4.923l1.967,2,1.924,1.956a5.3,5.3,0,0,0,1.515,3.932l15.122,14.543a5.315,5.315,0,1,0,7.573-7.454ZM294.971,251.8a23.179,23.179,0,0,1-27.281-36.053c.46-.545.947-1.075,1.462-1.585a23.183,23.183,0,1,1,30.008,35.188,22.957,22.957,0,0,1-4.192,2.45Z" transform="translate(-225.249 -194.498)" fill="#fff"/>
      </g>
    </g>
  </g>
</svg>
