<svg xmlns="http://www.w3.org/2000/svg" width="65.253" height="82.134" viewBox="0 0 65.253 82.134">
  <g id="slid5Icon111" transform="translate(0.5 0.503)">
    <path id="Path_123932" data-name="Path 123932" d="M108.862,53l-4.762-1.4L93.741,44.84v-1.55a13.788,13.788,0,0,0,5.442-9.684,3.166,3.166,0,0,0,2.657-3.121V26.221c0-.016,0-.033,0-.049v-5.4a2.343,2.343,0,0,0,.98-1.912V13.917l7.149-1.218a2.534,2.534,0,0,0,.343-4.914L86.208.12a2.522,2.522,0,0,0-1.537,0l-24.1,7.666a2.543,2.543,0,0,0-.789,4.424v6.463h-.059a2.464,2.464,0,0,0-2.461,2.461v3.208l-1.589,9.326a2.646,2.646,0,0,0,2.608,3.089h5.38a2.646,2.646,0,0,0,2.608-3.089l-1.589-9.325V21.135a2.464,2.464,0,0,0-2.461-2.461h-.059V12.911l5.91,1.007v4.942a2.345,2.345,0,0,0,.975,1.908l0,5.454v4.263A3.166,3.166,0,0,0,71.7,33.605a13.789,13.789,0,0,0,5.437,9.681v1.558L66.78,51.609l-4.758,1.4a12.085,12.085,0,0,0-8.686,11.6l-.042,9.1a1.188,1.188,0,0,0,2.377,0l.042-9.1a9.767,9.767,0,0,1,6.979-9.321l4.433-1.3,17.71,10.524a1.2,1.2,0,0,0,1.214,0L103.76,53.984l4.433,1.3a9.768,9.768,0,0,1,6.978,9.321V76.084a2.673,2.673,0,0,1-2.67,2.67h-5.238V73.632a1.188,1.188,0,0,0-2.377,0v5.123H65.992V73.632a1.188,1.188,0,0,0-2.377,0v5.123H58.383a2.673,2.673,0,0,1-2.67-2.67V73.7a1.188,1.188,0,1,0-2.377,0v2.38a5.052,5.052,0,0,0,5.047,5.047H112.5a5.052,5.052,0,0,0,5.047-5.047V64.606A12.085,12.085,0,0,0,108.862,53Zm-45.2-18.623H58.278a.268.268,0,0,1-.265-.313l1.437-8.436h3.035l1.437,8.436A.268.268,0,0,1,63.658,34.381ZM62.3,21.135v2.12H59.636v-2.12a.085.085,0,0,1,.085-.085h2.494A.085.085,0,0,1,62.3,21.135Zm18.891,38,.473.727L69.531,52.65l7.7-5.03A24.963,24.963,0,0,0,81.191,59.132ZM81.183,54A30.56,30.56,0,0,0,89.7,54a22.7,22.7,0,0,1-2,3.834l-2.258,3.471-2.258-3.471a22.7,22.7,0,0,1-2-3.834Zm8.509,5.13a24.961,24.961,0,0,0,3.959-11.513l7.7,5.03-12.133,7.21Zm6.952-37.918H99.46v3.819h-1.4a1.42,1.42,0,0,1-1.419-1.419v-2.4ZM61.29,10.051l24.1-7.666a.156.156,0,0,1,.1,0l24.1,7.666a.133.133,0,0,1,.109.161c-.009.124-.079.135-.131.144L101.6,11.713l-2.992-.37a1.188,1.188,0,0,0-.292,2.359l2.125.263v4.872h-30V13.965l12.3-1.522a22.014,22.014,0,0,1,5.4,0l4.654.576a1.188,1.188,0,0,0,.292-2.359l-4.654-.576a24.38,24.38,0,0,0-5.981,0L69.282,11.714l-7.971-1.358c-.052-.009-.122-.021-.131-.144a.133.133,0,0,1,.11-.161ZM71.42,25.033l0-3.819h2.821v2.4a1.42,1.42,0,0,1-1.419,1.419h-1.4Zm2.616,7.962A1.842,1.842,0,0,0,72.2,31.269a.785.785,0,0,1-.784-.784V27.41h1.4a3.8,3.8,0,0,0,3.8-3.8v-2.4H94.267v2.4a3.8,3.8,0,0,0,3.8,3.8h1.4v3.075a.785.785,0,0,1-.784.784,1.842,1.842,0,0,0-1.831,1.726,11.429,11.429,0,0,1-22.812,0ZM85.442,46.073a13.717,13.717,0,0,0,5.923-1.343v.753a22.649,22.649,0,0,1-.8,5.969,28.062,28.062,0,0,1-10.242,0,22.648,22.648,0,0,1-.8-5.969c0-.025,0-.05-.005-.075,0,0,0-.01,0-.015v-.666a13.719,13.719,0,0,0,5.928,1.345Z" transform="translate(-53.294 0)" fill="#005f61" stroke="rgba(0,0,0,0)" stroke-miterlimit="10" stroke-width="1"/>
  </g>
</svg>
