<svg xmlns="http://www.w3.org/2000/svg" width="91.807" height="130.144" viewBox="0 0 91.807 130.144">
  <g id="slid5Icon2" transform="translate(0.75 1.359)">
    <path id="Path_124485" data-name="Path 124485" d="M.5,116.252V89.019L35.478,70.03" transform="translate(0 10.921)" fill="none" stroke="#fff" stroke-linejoin="round" stroke-width="2.5"/>
    <path id="Path_124486" data-name="Path 124486" d="M82.478,116.252V89.019L47.5,70.03" transform="translate(7.329 10.921)" fill="none" stroke="#fff" stroke-linejoin="round" stroke-width="2.5"/>
    <path id="Path_124487" data-name="Path 124487" d="M68.678,78.243,43.443,99.48,16.71,78.243" transform="translate(2.528 12.202)" fill="none" stroke="#fff" stroke-width="2.5"/>
    <path id="Path_124488" data-name="Path 124488" d="M82.208,83.214,45.4,114.193,6.4,83.214" transform="translate(0.92 12.977)" fill="none" stroke="#fff" stroke-width="2.5"/>
    <path id="Path_124489" data-name="Path 124489" d="M63.8,21.12V58.3a21.385,21.385,0,0,1-42.77,0V21.12" transform="translate(3.201 3.294)" fill="none" stroke="#fff" stroke-width="2.5"/>
    <line id="Line_227" data-name="Line 227" x1="42.429" transform="translate(24.3 44.138)" fill="none" stroke="#fff" stroke-width="2.5"/>
    <line id="Line_228" data-name="Line 228" y2="20.402" transform="translate(81.66 17.821)" fill="none" stroke="#fff" stroke-width="2.5"/>
    <path id="Path_124492" data-name="Path 124492" d="M40,34.771,1.238,17,40,.544,78.771,17Z" transform="translate(5.509 -0.545)" fill="none" stroke="#fff" stroke-width="2.5"/>
    <path id="Path_124491" data-name="Path 124491" d="M71.462,32.783h0c3.571,0,6.465,11.2,6.465,15.027H65C65,43.979,67.889,32.783,71.462,32.783Z" transform="translate(10.058 5.113)" fill="none" stroke="#fff" stroke-width="2.5"/>
  </g>
</svg>
