<svg xmlns="http://www.w3.org/2000/svg" width="86" height="80.526" viewBox="0 0 86 80.526">
  <g id="slid5Icon11111" transform="translate(-1 -1.658)">
    <path id="Path_124110" data-name="Path 124110" d="M86,61.788V11.094a8.274,8.274,0,0,0-9.114-8.358h-.252c-8.82.756-22.218,5.25-29.694,9.954l-.714.462a4.653,4.653,0,0,1-4.452,0l-1.05-.63C33.248,7.86,19.892,3.408,11.072,2.694A8.263,8.263,0,0,0,2,11.052V61.788A8.63,8.63,0,0,0,9.308,70.1l1.218.168C19.64,71.49,33.71,76.11,41.774,80.52l.168.084a4.537,4.537,0,0,0,4.032,0c8.064-4.452,22.176-9.114,31.332-10.332l1.386-.168A8.63,8.63,0,0,0,86,61.788Z" transform="translate(0 0)" fill="none" stroke="#005f61" stroke-linecap="round" stroke-linejoin="round" stroke-width="2"/>
    <path id="Path_124111" data-name="Path 124111" d="M12,5.49v63" transform="translate(32 9.048)" fill="none" stroke="#005f61" stroke-linecap="round" stroke-linejoin="round" stroke-width="3" opacity="0.4"/>
    <path id="Path_124112" data-name="Path 124112" d="M14.95,8.49H5.5" transform="translate(11.2 18.648)" fill="none" stroke="#005f61" stroke-linecap="round" stroke-linejoin="round" stroke-width="3" opacity="0.4"/>
    <path id="Path_124115" data-name="Path 124115" d="M14.95,8.49H5.5" transform="translate(53.2 18.648)" fill="none" stroke="#005f61" stroke-linecap="round" stroke-linejoin="round" stroke-width="3"/>
    <path id="Path_124113" data-name="Path 124113" d="M18.1,11.49H5.5" transform="translate(11.2 28.248)" fill="none" stroke="#005f61" stroke-linecap="round" stroke-linejoin="round" stroke-width="3" opacity="0.4"/>
    <path id="Path_124114" data-name="Path 124114" d="M18.1,11.49H5.5" transform="translate(53.2 28.248)" fill="none" stroke="#005f61" stroke-linecap="round" stroke-linejoin="round" stroke-width="3"/>
  </g>
</svg>
