<svg xmlns="http://www.w3.org/2000/svg" xmlns:xlink="http://www.w3.org/1999/xlink" width="117.561" height="113.975" viewBox="0 0 117.561 113.975">
  <defs>
    <clipPath id="clip-path">
      <path id="Union_6" data-name="Union 6" d="M0,46.321l19.622-5.637L34.16,49.456,59.792,51.7l41.368-6.632,16.4-6.632-4.916-11.615L88.881,5.868S69.44-.974,59.792.118A96.911,96.911,0,0,0,30.657,7.323c-7.842,4.366-15.21,12.805-15.21,12.805L9.505,26.823Z" fill="#fff"/>
    </clipPath>
  </defs>
  <g id="slid5Icon1" transform="translate(11.02 21.958)">
    <g id="Group_55944" data-name="Group 55944" transform="translate(5.96 36.379)">
      <g id="Group_55943" data-name="Group 55943" transform="translate(0 0)">
        <path id="Subtraction_1" data-name="Subtraction 1" d="M37.849,55.639h0a4.712,4.712,0,0,1-4.708-4.46,4.894,4.894,0,0,1-.529.029,4.717,4.717,0,0,1-4.7-4.46,4.891,4.891,0,0,1-.526.029,4.719,4.719,0,0,1-4.7-4.461,4.805,4.805,0,0,1-.518.028,4.719,4.719,0,0,1-3.992-7.234l-.958-.674-5.584-3.521a2.641,2.641,0,0,1-2.674.436L0,28.318l.8-2.626c1.962.616,5.134,1.68,9.107,3.247a.054.054,0,0,0,.02,0,.055.055,0,0,0,.05-.034l4.831-12.246.817-2.072,3.213-8.145a.054.054,0,0,0,0-.041.053.053,0,0,0-.03-.029L8,2.16,8.658,0l11.1,3.964a2.648,2.648,0,0,1,1.59,3.123l2.284.956a6.087,6.087,0,0,0,2.326.464c.125,0,.252,0,.376-.012.337-.022.588-.03.868-.03.662,0,1.541.05,3.665.172l.041,0,2.194.124A18.538,18.538,0,0,1,38.253,9.8c.5-.484.99-.966,1.45-1.433a6.542,6.542,0,0,1,5.665-1.854L55.892,8.248a1.3,1.3,0,0,1,.2-.016,1.313,1.313,0,0,1,.2.016l3.82.606a7.364,7.364,0,0,0,3.694-.363l3.779-1.4a2.645,2.645,0,0,1,1.587-3.131L79.032.1l.95,2.411L70.13,6.376a.054.054,0,0,0-.03.029.05.05,0,0,0,0,.041l5.688,14.42.754,1.912,2.419,6.131a.053.053,0,0,0,.05.034.054.054,0,0,0,.02,0l7.052-2.781.951,2.411-7.052,2.782a2.644,2.644,0,0,1-2.994-.757l-5.046,3.241a5.084,5.084,0,0,1-.352,4.922,5.151,5.151,0,0,1-4.322,2.383,5.219,5.219,0,0,1-1.347-.179,5.168,5.168,0,0,1-5.161,4.859,5.446,5.446,0,0,1-1-.094A5.121,5.121,0,0,1,54.6,50.809a5.34,5.34,0,0,1-1.83-.326,5.109,5.109,0,0,1-1.754,3.363,5.243,5.243,0,0,1-6.551.208l-1.888-1.394-1.121,1.316A4.712,4.712,0,0,1,37.849,55.639Zm3.206-10.611a2.127,2.127,0,0,0-1.625.752l-3.206,3.764A2.13,2.13,0,0,0,39.477,52.3l1.7-2,.069-.081,1.436-1.685a.132.132,0,0,1,.016-.021,2.13,2.13,0,0,0-1.643-3.485Zm.011-2.593a4.723,4.723,0,0,1,3.591,7.777l-.4.47L46,51.968a2.724,2.724,0,0,0,1.627.539,2.54,2.54,0,0,0,1.858-.782,2.583,2.583,0,0,0,.32-3.164l-2.753-2.132a1.3,1.3,0,1,1,1.586-2.05l1.35,1.046.029.023c1.526,1.183,1.526,1.183,2.332,1.776l.622.459a2.715,2.715,0,0,0,1.624.535,2.562,2.562,0,0,0,2.037-4.146l-3.973-3.058a1.3,1.3,0,0,1,.792-2.324,1.283,1.283,0,0,1,.79.269l2.166,1.668c1.949,1.5,1.949,1.5,2.42,1.848l.013.01.285.21a2.76,2.76,0,0,0,1.627.536,2.544,2.544,0,0,0,1.813-.733,2.6,2.6,0,0,0,.233-3.4l-4.48-3.451A1.3,1.3,0,1,1,59.9,33.6l2.268,1.748.054.042c2.306,1.778,2.306,1.778,2.983,2.276l.5.366a2.579,2.579,0,0,0,3.581-.491,2.513,2.513,0,0,0,.5-1.9A2.752,2.752,0,0,0,68.7,33.8l-5.416-4-.118-.087c-4.322-3.191-4.322-3.191-4.616-3.4l-.154-.107a17.834,17.834,0,0,1-2.472.174,17.957,17.957,0,0,1-13.016-5.712.328.328,0,0,0-.24-.1.371.371,0,0,0-.247.1C38.785,23.938,35.43,25.6,32.452,25.6A7.353,7.353,0,0,1,27.32,23.52,3.321,3.321,0,0,1,26.3,20.783a3.362,3.362,0,0,1,1.54-2.527,64.672,64.672,0,0,0,8.236-6.417,15.97,15.97,0,0,0-3.113-.486L30.6,11.219c-1.994-.114-2.818-.162-3.386-.162-.266,0-.477.01-.713.025-.18.012-.362.017-.543.017a8.693,8.693,0,0,1-3.324-.666l-2.215-.927-3.656,9.267-3.89,9.859,5.752,3.629.054.034,1.143.8,1.953-2.292a4.722,4.722,0,0,1,8.314,2.8,4.834,4.834,0,0,1,.513-.028,4.728,4.728,0,0,1,3.579,1.639l.011.014a4.673,4.673,0,0,1,1.115,2.679c0,.028,0,.055.005.083l0,.042.063-.006.063-.006c.131-.011.263-.016.393-.016a4.66,4.66,0,0,1,3.048,1.121,4.746,4.746,0,0,1,1.659,3.34A4.889,4.889,0,0,1,41.067,42.436ZM35.832,40.6a2.129,2.129,0,0,0-1.627.75L31,45.111a2.13,2.13,0,0,0,3.252,2.753l3.2-3.76A2.127,2.127,0,0,0,35.832,40.6Zm-5.224-4.43a2.131,2.131,0,0,0-1.63.749l-3.2,3.762a2.13,2.13,0,0,0,3.251,2.753l3.2-3.761a2.124,2.124,0,0,0-.072-2.834l-.017-.019A2.106,2.106,0,0,0,30.608,36.168Zm-5.224-4.432a2.131,2.131,0,0,0-1.631.75l-3.206,3.762A2.13,2.13,0,0,0,23.8,39L27,35.242a2.127,2.127,0,0,0-1.617-3.506ZM58.755,23.55a1.269,1.269,0,0,1,.768.251l5.753,4.246,4.967,3.666.1.07L75.9,28.212c-.453-1.15-7-17.742-7.377-18.7l-3.814,1.407a9.914,9.914,0,0,1-3.445.614,9.947,9.947,0,0,1-1.551-.122l-3.378-.536a1.3,1.3,0,0,1-.21.017,1.312,1.312,0,0,1-.2-.016l-10.958-1.8a3.941,3.941,0,0,0-3.416,1.117,75.941,75.941,0,0,1-12.27,10.219.827.827,0,0,0-.4.616.745.745,0,0,0,.229.613A4.749,4.749,0,0,0,32.471,23c2.273,0,5.117-1.474,8.223-4.263a2.961,2.961,0,0,1,1.979-.764,2.9,2.9,0,0,1,2.111.9A15.115,15.115,0,0,0,55.864,23.8a15.791,15.791,0,0,0,2.637-.226A1.515,1.515,0,0,1,58.755,23.55Z" transform="translate(0 0)" fill="#fff"/>
      </g>
    </g>
    <g id="Mask_Group_10" data-name="Mask Group 10" transform="translate(-11.02 -21.958)" clip-path="url(#clip-path)">
      <g id="_43.-Globe" data-name="43.-Globe" transform="translate(7.35 6.322)">
        <circle id="Layer-1" cx="53.191" cy="53.191" r="53.191" fill="none" stroke="#fff" stroke-linecap="round" stroke-linejoin="round" stroke-width="2.5"/>
        <path id="Layer-2" d="M50,2V104.817" transform="translate(3.095 -0.51)" fill="none" stroke="#fff" stroke-linecap="round" stroke-linejoin="round" stroke-width="2.5" fill-rule="evenodd"/>
        <path id="Layer-3" d="M108.1,50H2" transform="translate(-1.957 2.898)" fill="none" stroke="#fff" stroke-linecap="round" stroke-linejoin="round" stroke-width="2.5" fill-rule="evenodd"/>
        <path id="Layer-4" d="M50,2S76.685,21.889,76.685,53.486,50,104.972,50,104.972" transform="translate(3.098 -0.511)" fill="none" stroke="#fff" stroke-linecap="round" stroke-linejoin="round" stroke-width="2.5" fill-rule="evenodd"/>
        <path id="Layer-5" d="M52.685,2S26,21.889,26,53.486s26.685,51.486,26.685,51.486" transform="translate(0.569 -0.511)" fill="none" stroke="#fff" stroke-linecap="round" stroke-linejoin="round" stroke-width="2.5" fill-rule="evenodd"/>
        <path id="Layer-6" d="M16.4,78.342a79.236,79.236,0,0,1,74.273.2" transform="translate(-0.442 11.194)" fill="none" stroke="#fff" stroke-linecap="round" stroke-linejoin="round" stroke-width="2.5" fill-rule="evenodd"/>
        <path id="Layer-7" d="M16.4,16.608a76.641,76.641,0,0,0,36.949,9.574A76.661,76.661,0,0,0,90.673,16.4" transform="translate(-0.442 -0.639)" fill="none" stroke="#fff" stroke-linecap="round" stroke-linejoin="round" stroke-width="2.5" fill-rule="evenodd"/>
      </g>
    </g>
  </g>
</svg>
