<svg id="slid5Icon1111" xmlns="http://www.w3.org/2000/svg" width="79.998" height="80.542" viewBox="0 0 79.998 80.542">
  <g id="Subtraction_2" data-name="Subtraction 2" fill="none" stroke-linecap="round" stroke-linejoin="round">
    <path d="M12.9,68.793h-.006v0l-8.6,0A4.3,4.3,0,0,1,0,64.492V4.3A4.3,4.3,0,0,1,4.295,0h8.6Zm19.551,0H20.422V0H55.893a4.3,4.3,0,0,1,4.295,4.3l-.2,29.023A28.012,28.012,0,0,0,32.246,61.268c0,3.1.012,5.461.2,7.523Z" stroke="none"/>
    <path d="M 30.31595993041992 66.79297637939453 C 30.25266647338867 65.22984313964844 30.24609375 63.46730422973633 30.24609375 61.26758575439453 C 30.24609375 45.53636169433594 42.5232048034668 32.53187561035156 57.99776458740234 31.40310287475586 L 58.18749618530273 4.294449806213379 C 58.18411254882812 3.02866530418396 57.15592193603516 2.000006675720215 55.89258193969727 2.000006675720215 L 22.42187309265137 2.000006675720215 L 22.42187309265137 66.79297637939453 L 30.31595993041992 66.79297637939453 M 4.294472217559814 66.79297637939453 L 10.89648342132568 66.79147338867188 L 10.89648342132568 2.000006675720215 L 4.294927597045898 2.000006675720215 C 3.029505491256714 2.000006675720215 2.000005483627319 3.032128810882568 2.000005483627319 4.300784587860107 L 2.000005483627319 64.4921875 C 2.000005483627319 65.76084136962891 3.029505491256714 66.79297637939453 4.294472217559814 66.79297637939453 M 32.44726181030273 68.79297637939453 L 20.42187309265137 68.79297637939453 L 20.42187309265137 6.597222181881079e-06 L 55.89258193969727 6.597222181881079e-06 C 58.25977325439453 6.597222181881079e-06 60.18750381469727 1.929684400558472 60.18750381469727 4.300784587860107 L 59.98437118530273 33.32421875 C 44.68750381469727 33.43359375 32.24609375 45.966796875 32.24609375 61.26758575439453 C 32.24609375 64.37109375 32.25781631469727 66.728515625 32.44726181030273 68.791015625 L 32.44726181030273 68.79297637939453 Z M 12.89648342132568 68.79297637939453 L 4.294927597045898 68.79297637939453 C 1.925783276557922 68.79297637939453 5.555555617320351e-06 66.86328125 5.555555617320351e-06 64.4921875 L 5.555555617320351e-06 4.300784587860107 C 5.555555617320351e-06 1.929684400558472 1.925783276557922 6.597222181881079e-06 4.294927597045898 6.597222181881079e-06 L 12.89648342132568 6.597222181881079e-06 L 12.89648342132568 68.79297637939453 Z" stroke="none" fill="#005f61"/>
  </g>
  <path id="Polygon_38" data-name="Polygon 38" d="M18.81,0,23.7,13.718l13.919.651-10.9,9.13L30.435,37.62,18.81,29.544,7.185,37.62,10.9,23.5,0,14.37l13.919-.651Z" transform="translate(41.378 41.922)" fill="none" stroke="#005f61" stroke-linecap="round" stroke-linejoin="round" stroke-width="2"/>
</svg>
