<svg id="videoIcon" xmlns="http://www.w3.org/2000/svg" width="34" height="34" viewBox="0 0 34 34">
  <g id="Ellipse_171" data-name="Ellipse 171" fill="none" stroke="#fff" stroke-width="1.5">
    <circle cx="17" cy="17" r="17" stroke="none"/>
    <circle cx="17" cy="17" r="16.25" fill="none"/>
  </g>
  <g id="Polygon_37" data-name="Polygon 37" transform="translate(24 11) rotate(90)" fill="none">
    <path d="M5.639,1.457a1,1,0,0,1,1.722,0l4.748,8.034A1,1,0,0,1,11.248,11h-9.5A1,1,0,0,1,.892,9.491Z" stroke="none"/>
    <path d="M 6.5 2.948514938354492 L 2.628673553466797 9.500001907348633 L 10.3713321685791 9.500001907348633 L 6.5 2.948514938354492 M 6.499996662139893 0.9656801223754883 C 6.833695411682129 0.9656801223754883 7.16739559173584 1.129437446594238 7.360930442810059 1.456952095031738 L 12.10848045349121 9.49127197265625 C 12.50239086151123 10.15788269042969 12.0218505859375 11.00000190734863 11.24755096435547 11.00000190734863 L 1.752450942993164 11.00000190734863 C 0.9781503677368164 11.00000190734863 0.4976100921630859 10.15788269042969 0.8915205001831055 9.49127197265625 L 5.639070510864258 1.456952095031738 C 5.832600593566895 1.129437446594238 6.166297912597656 0.9656801223754883 6.499996662139893 0.9656801223754883 Z" stroke="none" fill="#fff"/>
  </g>
</svg>
