<svg xmlns="http://www.w3.org/2000/svg" width="21.423" height="20.422" viewBox="0 0 21.423 20.422">
  <g id="note-2" transform="translate(-1.29 -1.774)">
    <path id="Path_126954" data-name="Path 126954" d="M21.66,10.439l-.98,4.18c-.84,3.61-2.5,5.07-5.62,4.77a10.514,10.514,0,0,1-1.62-.27l-1.68-.4c-4.17-.99-5.46-3.05-4.48-7.23L8.26,7.3A10.474,10.474,0,0,1,9,5.1c1.17-2.42,3.16-3.07,6.5-2.28l1.67.39C21.36,4.189,22.64,6.259,21.66,10.439Z" fill="none" stroke="#005f61" stroke-linecap="round" stroke-linejoin="round" stroke-width="1.5"/>
    <path id="Path_126955" data-name="Path 126955" d="M15.058,19.392a9.372,9.372,0,0,1-2.35,1.08l-1.58.52c-3.97,1.28-6.06.21-7.35-3.76L2.5,13.282c-1.28-3.97-.22-6.07,3.75-7.35l1.58-.52A10.223,10.223,0,0,1,9,5.1a10.474,10.474,0,0,0-.74,2.2l-.98,4.19c-.98,4.18.31,6.24,4.48,7.23l1.68.4A10.513,10.513,0,0,0,15.058,19.392Z" fill="none" stroke="#005f61" stroke-linecap="round" stroke-linejoin="round" stroke-width="1.5" opacity="0.4"/>
    <path id="Path_126956" data-name="Path 126956" d="M12.641,8.531l4.85,1.23" fill="none" stroke="#005f61" stroke-linecap="round" stroke-linejoin="round" stroke-width="1.5" opacity="0.4"/>
    <path id="Path_126957" data-name="Path 126957" d="M11.66,12.4l2.9.74" fill="none" stroke="#005f61" stroke-linecap="round" stroke-linejoin="round" stroke-width="1.5" opacity="0.4"/>
  </g>
</svg>
