<svg xmlns="http://www.w3.org/2000/svg" width="46.698" height="58.371" viewBox="0 0 46.698 58.371">
  <g id="officIcon3" transform="translate(-51.192)">
    <path id="Path_126962" data-name="Path 126962" d="M170.408,105.231h-2.59a9.008,9.008,0,0,0-.6-1.454l1.831-1.831a1.212,1.212,0,0,0,0-1.714l-2.155-2.155a1.213,1.213,0,0,0-1.714,0l-1.831,1.831a9,9,0,0,0-1.454-.6v-2.59a1.213,1.213,0,0,0-1.212-1.212h-3.047a1.213,1.213,0,0,0-1.212,1.212v2.59a9.014,9.014,0,0,0-1.454.6l-1.831-1.831a1.213,1.213,0,0,0-1.713,0l-2.155,2.155a1.212,1.212,0,0,0,0,1.714l1.831,1.831a9,9,0,0,0-.6,1.454h-2.59a1.213,1.213,0,0,0-1.212,1.212v3.047a1.213,1.213,0,0,0,1.212,1.212h2.59a9.008,9.008,0,0,0,.6,1.454l-1.831,1.831a1.213,1.213,0,0,0,0,1.714l2.155,2.155a1.213,1.213,0,0,0,1.714,0l1.831-1.831a9,9,0,0,0,1.454.6v2.59a1.213,1.213,0,0,0,1.212,1.212h3.047a1.213,1.213,0,0,0,1.212-1.212v-2.59a9,9,0,0,0,1.454-.6l1.831,1.831a1.213,1.213,0,0,0,1.714,0l2.155-2.155a1.212,1.212,0,0,0,0-1.714l-1.831-1.831a9,9,0,0,0,.6-1.454h2.59a1.213,1.213,0,0,0,1.212-1.212v-3.047a1.213,1.213,0,0,0-1.212-1.212Zm-.5,3.761h-2.743a.855.855,0,0,0-.833.66,7.311,7.311,0,0,1-.91,2.2.855.855,0,0,0,.122,1.056l1.939,1.939-1.45,1.45-1.939-1.939a.855.855,0,0,0-1.056-.122,7.317,7.317,0,0,1-2.2.91.855.855,0,0,0-.66.833v2.743h-2.05v-2.743a.855.855,0,0,0-.66-.833,7.307,7.307,0,0,1-2.2-.91.856.856,0,0,0-1.056.122l-1.939,1.939-1.45-1.45,1.939-1.939a.855.855,0,0,0,.122-1.056,7.313,7.313,0,0,1-.91-2.2.855.855,0,0,0-.833-.66h-2.743v-2.05h2.743a.855.855,0,0,0,.833-.66,7.314,7.314,0,0,1,.91-2.2.855.855,0,0,0-.122-1.056l-1.939-1.939,1.45-1.45,1.939,1.939a.855.855,0,0,0,1.056.122,7.311,7.311,0,0,1,2.2-.91.855.855,0,0,0,.66-.833V97.215h2.05v2.743a.855.855,0,0,0,.66.833,7.314,7.314,0,0,1,2.2.91.856.856,0,0,0,1.056-.122l1.939-1.939,1.45,1.45-1.939,1.939a.855.855,0,0,0-.122,1.056,7.315,7.315,0,0,1,.91,2.2.855.855,0,0,0,.833.66h2.743Z" transform="translate(-84.617 -84.617)" fill="#c6aa76"/>
    <path id="Path_126963" data-name="Path 126963" d="M74.541,18.768a4.581,4.581,0,1,0,4.581,4.581A4.586,4.586,0,0,0,74.541,18.768Zm0,7.451a2.871,2.871,0,1,1,2.871-2.871A2.874,2.874,0,0,1,74.541,26.22ZM54.884,22.494H52.047a.855.855,0,1,0,0,1.71h2.837a.855.855,0,0,0,0-1.71Zm42.152,0H94.2a.855.855,0,0,0,0,1.71h2.837a.855.855,0,1,0,0-1.71Zm-35.79,14.15a.855.855,0,0,0-1.209,0L58.031,38.65A.855.855,0,0,0,59.24,39.86l2.006-2.006A.855.855,0,0,0,61.246,36.644ZM91.052,6.839a.855.855,0,0,0-1.209,0L87.836,8.845a.855.855,0,0,0,1.209,1.209l2.006-2.006a.855.855,0,0,0,0-1.209ZM74.541,0a.855.855,0,0,0-.855.855V3.692a.855.855,0,1,0,1.71,0V.855A.855.855,0,0,0,74.541,0Zm16.51,38.65-2.006-2.006a.855.855,0,1,0-1.209,1.209l2.006,2.006a.855.855,0,1,0,1.209-1.209ZM61.246,8.845,59.24,6.839a.855.855,0,0,0-1.209,1.209l2.006,2.006a.855.855,0,0,0,1.209-1.209ZM91.6,21.254A17.2,17.2,0,0,0,76.64,6.225a.855.855,0,1,0-.207,1.7A15.4,15.4,0,0,1,89.9,21.454a.855.855,0,0,0,1.7-.2Z" fill="#c6aa76"/>
    <path id="Path_126964" data-name="Path 126964" d="M138.8,72.832a.854.854,0,0,0-.956.741,15.408,15.408,0,0,1-7.13,11.146A5.752,5.752,0,0,0,128,89.612v3.519H117.011v-3.6a5.631,5.631,0,0,0-2.634-4.763,15.468,15.468,0,0,1,6.238-28.512.855.855,0,0,0-.21-1.7,17.177,17.177,0,0,0-6.928,31.663,3.909,3.909,0,0,1,1.824,3.308v3.721a2.225,2.225,0,0,0-1.5,2.1v1.219a2.211,2.211,0,0,0,.474,1.368,2.21,2.21,0,0,0-.474,1.368v1.219a2.226,2.226,0,0,0,2.223,2.223h2.688v1.933a2.024,2.024,0,0,0,2.022,2.022h3.534a2.024,2.024,0,0,0,2.022-2.022v-1.933h2.688a2.226,2.226,0,0,0,2.223-2.223V99.31a2.21,2.21,0,0,0-.474-1.368,2.21,2.21,0,0,0,.474-1.368V95.354a2.225,2.225,0,0,0-1.5-2.1V89.612a4.051,4.051,0,0,1,1.918-3.444,17.112,17.112,0,0,0,7.917-12.38.854.854,0,0,0-.74-.956Zm-14.22,31.852a.316.316,0,0,1-.312.312h-3.534a.316.316,0,0,1-.312-.312v-1.933h4.158Zm4.912-4.156a.52.52,0,0,1-.513.513H116.028a.52.52,0,0,1-.513-.513V99.31a.52.52,0,0,1,.513-.513h12.955a.52.52,0,0,1,.513.513Zm0-3.955a.52.52,0,0,1-.513.513H116.028a.52.52,0,0,1-.513-.513V95.354a.52.52,0,0,1,.513-.513h12.955a.52.52,0,0,1,.513.513Z" transform="translate(-47.964 -48.336)" fill="#c6aa76"/>
  </g>
</svg>
