<svg id="officIcon1" xmlns="http://www.w3.org/2000/svg" width="58.435" height="58.435" viewBox="0 0 58.435 58.435">
  <path id="Path_126958" data-name="Path 126958" d="M57.493,30.16a.941.941,0,0,0,.943-.942V6.6a.941.941,0,0,0-.943-.943H50.8a4.713,4.713,0,1,0-9.234,0H34.873a.941.941,0,0,0-.943.943v6.991a4.713,4.713,0,1,0,0,8.637v6.991a.941.941,0,0,0,.943.942h4.713v9.425a.954.954,0,0,0,.049.3l.715,2.144-2.229,1.486a.943.943,0,0,0-.4.969l.942,4.713a.954.954,0,0,0,.187.4l3.565,4.454v4.382H44.3V53.723a.942.942,0,0,0-.207-.589L40.464,48.6l-.773-3.868,1.275-.851.552,1.657,1.787-.6L41.47,39.432v-12.1a.943.943,0,0,1,1.885,0V37.7a.943.943,0,0,0,1.727.523l1.605-2.408h.876l1.605,2.408a.944.944,0,0,0,.784.419h1.381l1.605,2.408a.944.944,0,0,0,.784.419H55.1l1.447,2.171V48.68l-3.563,4.454a.938.938,0,0,0-.207.588v4.713h1.885V54.053L58.228,49.6a.942.942,0,0,0,.207-.589V43.355a.95.95,0,0,0-.158-.523L56.392,40a.944.944,0,0,0-.784-.419H54.227l-1.605-2.408a.944.944,0,0,0-.784-.419H50.457l-1.605-2.408a.944.944,0,0,0-.784-.419H46.183a.944.944,0,0,0-.784.419l-.158.237V30.16Zm-15.08-5.655a2.831,2.831,0,0,0-2.827,2.828v.942h-3.77V20.4a.942.942,0,0,0-1.649-.624,2.828,2.828,0,1,1,0-3.739.942.942,0,0,0,1.649-.624V7.54h7.1a.943.943,0,0,0,.815-1.416,2.828,2.828,0,1,1,4.9,0,.943.943,0,0,0,.815,1.416h7.1V28.275H45.24v-.942A2.831,2.831,0,0,0,42.413,24.505ZM.942,30.16H7.934a4.713,4.713,0,1,0,8.637,0h6.991a.941.941,0,0,0,.943-.942V20.4a.942.942,0,0,0-1.649-.624,2.827,2.827,0,1,1,0-3.739.942.942,0,0,0,1.649-.624V6.6a.941.941,0,0,0-.943-.943H.942A.941.941,0,0,0,0,6.6v22.62A.941.941,0,0,0,.942,30.16ZM1.885,7.54H22.62v6.049a4.713,4.713,0,1,0,0,8.637v6.049H14.746a.943.943,0,0,0-.624,1.649,2.827,2.827,0,1,1-3.739,0,.942.942,0,0,0-.624-1.649H1.885ZM26.39,46.183a4.718,4.718,0,0,0-1.885.394V39.585a.941.941,0,0,0-.943-.943H14.746a.943.943,0,0,0-.624,1.649,2.827,2.827,0,1,1-3.739,0,.942.942,0,0,0-.624-1.649H.942A.941.941,0,0,0,0,39.585v18.85H1.885V40.528H7.934a4.713,4.713,0,1,0,8.637,0H22.62V48.4a.943.943,0,0,0,1.649.624,2.827,2.827,0,1,1,0,3.739.942.942,0,0,0-1.649.624v5.046h1.885V55.214a4.712,4.712,0,1,0,1.885-9.031Zm0,0" transform="translate(0)" fill="#c6aa76"/>
</svg>
