<svg xmlns="http://www.w3.org/2000/svg" width="52.417" height="58.424" viewBox="0 0 52.417 58.424">
  <g id="officIcon4" transform="translate(-33.497 -8)">
    <path id="Path_126965" data-name="Path 126965" d="M44.49,34.879a1,1,0,1,1-.951-1.044A1,1,0,0,1,44.49,34.879ZM84.375,51.585l-3,1.162a2.41,2.41,0,0,1-3.118-1.376l-.224-.578-2.271.948a3.229,3.229,0,0,1-2.32,3.577h0a3.235,3.235,0,0,1-3.417,4.146,3.25,3.25,0,0,1-3.8,3.274,3.215,3.215,0,0,1-.4,1.527,3.285,3.285,0,0,1-1.981,1.568,3.245,3.245,0,0,1-.876.122,3.134,3.134,0,0,1-1.566-.419l-.748-.429a3.294,3.294,0,0,1-1.686,1.174,3.343,3.343,0,0,1-.97.145A3.314,3.314,0,0,1,54.948,64.4a3.3,3.3,0,0,1-4.164-1.59,3.311,3.311,0,0,1-4.779-3.346,3.316,3.316,0,0,1-2.877-4.876l.785-1.467a6.916,6.916,0,0,1-.342-1.33c-.148-.8-.261-1.289-.58-1.413-.211-.082-.746-.314-1.657-.72l-.283.641a2.41,2.41,0,0,1-3.178,1.23l-2.939-1.3a2.413,2.413,0,0,1-1.23-3.178l6.748-15.268a2.414,2.414,0,0,1,3.178-1.23l2.939,1.3a2.413,2.413,0,0,1,1.23,3.178l-.466,1.055,1.824.841q.034.016.067.035c1.017.573,2.1.319,3.467,0,1.821-.427,4.058-.951,6.674.564,3.615-2.209,6.391-1.077,8.443-.238,1.494.611,2.381.934,3.257.478l1.589-.851-.427-1.1A2.413,2.413,0,0,1,73.6,32.688l3-1.162A2.413,2.413,0,0,1,79.717,32.9l6.034,15.564a2.413,2.413,0,0,1-1.376,3.118ZM39.327,49.532l6.748-15.268a.532.532,0,0,0-.268-.693l-2.939-1.3a.51.51,0,0,0-.208-.044.541.541,0,0,0-.194.036.523.523,0,0,0-.291.276L35.427,47.808a.532.532,0,0,0,.268.693l2.939,1.3A.532.532,0,0,0,39.327,49.532Zm7.589,7.751,1.911-3.307a1.43,1.43,0,0,0-2.574-1.241L44.79,55.471a1.437,1.437,0,0,0,.587,1.936,1.437,1.437,0,0,0,1.539-.124Zm3.647,3.231,2.121-4.107a1.428,1.428,0,0,0-2.277-1.4l-2.371,4.163a1.431,1.431,0,1,0,2.527,1.342Zm4.309,1.67,1.875-3.6a1.428,1.428,0,0,0-2.4-1.295l-2.037,3.945a1.428,1.428,0,0,0,2.558.954Zm4.394,1.6,1.4-2.623a1.444,1.444,0,0,0-.114-1.528,1.4,1.4,0,0,0-.472-.408,1.45,1.45,0,0,0-1.668.234l-1.833,3.523a1.431,1.431,0,0,0,2.685.8ZM63.632,61.5l-.945-.55a3.281,3.281,0,0,1-.357,1.1l-.756,1.413.763.438a1.285,1.285,0,0,0,1,.117,1.369,1.369,0,0,0,.3-2.52Zm10.146-9.892a1.412,1.412,0,0,0-.574-.612l-7.969-4.542c-1.311-.747-2.981-.071-4.914.711C57.4,48.347,53.756,49.82,50.628,45.8a1.218,1.218,0,0,1,.348-1.8,27.132,27.132,0,0,0,5.62-4.239q.508-.514,1.057-.985a6.968,6.968,0,0,0-4.533.017c-1.545.362-3.142.736-4.787-.171L46.57,37.8,42.1,47.929c.867.386,1.4.617,1.577.687a2.858,2.858,0,0,1,1.648,2.309,3.313,3.313,0,0,1,5.462,1.94,3.311,3.311,0,0,1,3.654,2.259A3.317,3.317,0,0,1,58.5,57.3a3.307,3.307,0,0,1,2.47.266,3.267,3.267,0,0,1,.986.8l4.176,2.364h0a1.334,1.334,0,0,0,1.025.113,1.356,1.356,0,0,0,.82-.652,1.378,1.378,0,0,0-.545-1.854l-5.887-3.33a.942.942,0,1,1,.924-1.642l7.209,4.056h0a1.363,1.363,0,0,0,1.849-.537,1.378,1.378,0,0,0-.545-1.854h0c-1.691-.947-3.608-2.021-5.489-3.1a.942.942,0,1,1,.936-1.635c1.875,1.073,3.789,2.145,5.477,3.091a1.323,1.323,0,0,0,1.018.114,1.359,1.359,0,0,0,.825-.654A1.336,1.336,0,0,0,73.777,51.606Zm3.578-2.572L73.34,38.678l-1.4.747c-1.7.886-3.3.232-4.85-.4-2.041-.834-4.151-1.7-7.186.385a13.67,13.67,0,0,0-1.973,1.674,28.215,28.215,0,0,1-5.323,4.13c2.115,2.181,4.393,1.259,7,.2,2.187-.886,4.449-1.8,6.554-.6l7.969,4.542a3.3,3.3,0,0,1,.833.673Zm6.639.114L77.96,33.584a.534.534,0,0,0-.5-.334.509.509,0,0,0-.184.034l-3,1.162a.532.532,0,0,0-.3.68l6.034,15.564a.533.533,0,0,0,.68.3l3-1.162a.532.532,0,0,0,.3-.68ZM76.537,34.814a1,1,0,1,0,1,1A1,1,0,0,0,76.537,34.814ZM39.758,21.653v-3.03a.942.942,0,0,1,.6-.879l1.406-.541a10.475,10.475,0,0,1,.891-2.15l-.612-1.377a.942.942,0,0,1,.195-1.049l2.143-2.143a.942.942,0,0,1,1.049-.195l1.378.612a10.471,10.471,0,0,1,2.149-.891L49.5,8.6a.942.942,0,0,1,.879-.6h3.03a.942.942,0,0,1,.879.6l.541,1.406a10.476,10.476,0,0,1,2.149.891l1.378-.612a.943.943,0,0,1,1.049.195l1.476,1.476,1.476-1.476a.942.942,0,0,1,1.049-.195l1.378.612a10.474,10.474,0,0,1,2.149-.891L67.477,8.6a.942.942,0,0,1,.879-.6h3.03a.942.942,0,0,1,.879.6l.541,1.406a10.477,10.477,0,0,1,2.149.891l1.378-.612a.942.942,0,0,1,1.049.195l2.143,2.143a.942.942,0,0,1,.195,1.049l-.612,1.377A10.468,10.468,0,0,1,80,17.2l1.405.541a.942.942,0,0,1,.6.879v3.03a.942.942,0,0,1-.6.879L80,23.073a10.476,10.476,0,0,1-.891,2.149l.612,1.378a.942.942,0,0,1-.195,1.049l-2.143,2.143a.942.942,0,0,1-1.049.195l-1.377-.612a10.463,10.463,0,0,1-2.15.891l-.541,1.405a.942.942,0,0,1-.879.6h-3.03a.942.942,0,0,1-.879-.6l-.541-1.406a10.475,10.475,0,0,1-2.149-.891l-1.378.612a.942.942,0,0,1-1.049-.195l-1.477-1.476-1.476,1.476a.942.942,0,0,1-1.049.195l-1.377-.612a10.466,10.466,0,0,1-2.15.891l-.541,1.405a.942.942,0,0,1-.879.6h-3.03a.942.942,0,0,1-.879-.6l-.541-1.406a10.476,10.476,0,0,1-2.149-.891l-1.378.612a.942.942,0,0,1-1.049-.195l-2.143-2.143a.942.942,0,0,1-.195-1.049l.612-1.377a10.467,10.467,0,0,1-.891-2.15l-1.405-.541A.942.942,0,0,1,39.758,21.653Zm21.916-7.818-.54,1.217a10.475,10.475,0,0,1,.891,2.15l1.405.541a.94.94,0,0,1,.516.484,6.227,6.227,0,1,1,0,3.821.94.94,0,0,1-.516.484l-1.406.541a10.476,10.476,0,0,1-.891,2.149l.541,1.218L63.235,28l1.227-.545a.941.941,0,0,1,.876.059,8.6,8.6,0,0,0,2.522,1.046.942.942,0,0,1,.661.578L69,30.391H70.74l.482-1.251a.942.942,0,0,1,.661-.578,8.6,8.6,0,0,0,2.522-1.046.942.942,0,0,1,.877-.059L76.508,28l1.228-1.228-.545-1.227a.942.942,0,0,1,.059-.876A8.6,8.6,0,0,0,78.3,22.149a.942.942,0,0,1,.578-.661l1.252-.482V19.27l-1.251-.482a.942.942,0,0,1-.578-.661A8.6,8.6,0,0,0,77.25,15.6a.942.942,0,0,1-.059-.877l.545-1.226-1.228-1.228-1.227.545a.942.942,0,0,1-.876-.059,8.6,8.6,0,0,0-2.522-1.046.942.942,0,0,1-.661-.578L70.74,9.885H69l-.482,1.252a.942.942,0,0,1-.661.578,8.6,8.6,0,0,0-2.522,1.046.942.942,0,0,1-.876.059l-1.227-.545Zm8.2,10.645a4.342,4.342,0,1,0-4.342-4.342A4.347,4.347,0,0,0,69.871,24.48ZM41.643,21.006l1.251.482a.942.942,0,0,1,.578.661,8.6,8.6,0,0,0,1.046,2.523.942.942,0,0,1,.059.877l-.545,1.226L45.259,28l1.227-.545a.943.943,0,0,1,.877.059,8.6,8.6,0,0,0,2.522,1.046.942.942,0,0,1,.661.578l.482,1.252h1.736l.482-1.251a.943.943,0,0,1,.661-.578,8.6,8.6,0,0,0,2.522-1.046.942.942,0,0,1,.877-.059L58.532,28l1.228-1.228-.545-1.227a.942.942,0,0,1,.059-.876,8.6,8.6,0,0,0,1.045-2.522.942.942,0,0,1,.578-.661l1.252-.482V19.27L60.9,18.788a.942.942,0,0,1-.578-.661A8.6,8.6,0,0,0,59.274,15.6a.942.942,0,0,1-.059-.877L59.76,13.5l-1.228-1.228-1.227.545a.942.942,0,0,1-.876-.059,8.6,8.6,0,0,0-2.522-1.046.942.942,0,0,1-.661-.578l-.482-1.252H51.028l-.482,1.252a.942.942,0,0,1-.661.578,8.6,8.6,0,0,0-2.522,1.046.942.942,0,0,1-.876.059l-1.227-.545L44.032,13.5l.545,1.227a.942.942,0,0,1-.059.876,8.6,8.6,0,0,0-1.046,2.522.942.942,0,0,1-.578.661l-1.251.482v1.736Zm4.026-.868A6.227,6.227,0,1,1,51.9,26.365,6.234,6.234,0,0,1,45.669,20.138Zm1.885,0A4.342,4.342,0,1,0,51.9,15.8,4.347,4.347,0,0,0,47.553,20.138Z" transform="translate(0 0)" fill="#c6aa76"/>
  </g>
</svg>
