<svg xmlns="http://www.w3.org/2000/svg" width="58.507" height="58.497" viewBox="0 0 58.507 58.497">
  <g id="officIcon2" transform="translate(0 -0.04)">
    <path id="Path_126959" data-name="Path 126959" d="M117.508,98.187a2.927,2.927,0,0,0-5.362-.7l-.487.848a.975.975,0,0,0-1.326.351l-2.476,4.221-.848-.487a.974.974,0,1,0-.975,1.687l.848.487-8.287,14.361-2.047,5.47-.975,1.823a2.925,2.925,0,0,0,.156,3.159L93.534,132.1l-.614-1.54a1.95,1.95,0,0,0-3.481-.273l-.351.595-.331-3.9a1.95,1.95,0,0,0-3.793-.458l-2.4,7.2a.975.975,0,0,0,.614,1.229.844.844,0,0,0,.3.078.975.975,0,0,0,.926-.663l2.388-7.2.341,3.958a1.95,1.95,0,0,0,3.617.839l.361-.6.6,1.531a1.949,1.949,0,0,0,3.334.5l2.272-2.876a3,3,0,0,0,.77.1,2.925,2.925,0,0,0,2.545-1.443l.975-1.628,3.715-4.514,8.375-14.537.848.487a.977.977,0,0,1,.361,1.336l-3.9,6.757a.968.968,0,1,0,1.648,1.014l3.9-6.756a2.924,2.924,0,0,0-1.073-4l-.848-.487,2.437-4.222a.975.975,0,0,0-.351-1.326l.487-.848A2.924,2.924,0,0,0,117.508,98.187Zm-3.676.273a.975.975,0,0,1,.595-.458,1.024,1.024,0,0,1,.741.1.976.976,0,0,1,.458.595,1.024,1.024,0,0,1-.1.741l-.487.848-1.7-.975ZM100.544,125.68l-.487-.283-1.443-.839,1.384-3.7,3.071,1.774ZM97.619,128.5a.974.974,0,0,1-.292-1.277l.487-.848,1.7.975-.487.838a.975.975,0,0,1-1.4.312Zm6.561-7.468-3.373-1.95,7.8-13.513,3.373,1.95Zm8.774-15.2-3.373-1.95,1.95-3.373,3.373,1.95ZM74.493,128.01l-3.451,3.442-2.067-2.067A.976.976,0,1,0,67.6,130.77l2.067,2.067a1.966,1.966,0,0,0,2.759,0l3.441-3.451a.975.975,0,0,0-1.375-1.375Zm0,0" transform="translate(-59.109 -84.283)" fill="#c6aa76"/>
    <path id="Path_126960" data-name="Path 126960" d="M32,88.5a8.287,8.287,0,0,0,16.574,0,.975.975,0,1,0-1.95,0,6.337,6.337,0,1,1-2.535-5.07.975.975,0,0,0,1.17-1.56A8.287,8.287,0,0,0,32,88.5ZM63.2,49.99a.975.975,0,0,0,0-1.95H37.85a.975.975,0,0,0-.975.975v3.9a.975.975,0,0,0,.975.975H63.2a.975.975,0,0,0,0-1.95H38.825V49.99ZM40.774,55.84a.975.975,0,0,0,0,1.95h19.5a.975.975,0,0,0,0-1.95Zm25.349,6.825H44.674a.975.975,0,0,0,0,1.95H66.123a.975.975,0,1,0,0-1.95Zm-9.749,6.825a.975.975,0,0,0-.975-.975H35.9a.975.975,0,0,0,0,1.95H55.4A.975.975,0,0,0,56.374,69.489Zm9.749-.975H59.3a.975.975,0,0,0,0,1.95h6.825a.975.975,0,0,0,0-1.95ZM45.649,75.338a.975.975,0,0,0,0-1.95H35.9a.975.975,0,1,0,0,1.95Zm3.9,0h6.825a.975.975,0,1,0,0-1.95H49.549a.975.975,0,1,0,0,1.95Zm0,0" transform="translate(-28.1 -42.15)" fill="#c6aa76"/>
    <path id="Path_126961" data-name="Path 126961" d="M43.872,44.887a.975.975,0,0,0-.975.975v9.749a.975.975,0,0,1-.975.975h-39a.975.975,0,0,1-.975-.975V2.965a.975.975,0,0,1,.975-.975h39a.975.975,0,0,1,.975.975V21.274a.975.975,0,0,0,1.95,0V2.965A2.925,2.925,0,0,0,41.923.04h-39A2.925,2.925,0,0,0,0,2.965V55.612a2.925,2.925,0,0,0,2.925,2.925h39a2.925,2.925,0,0,0,2.925-2.925V45.862A.975.975,0,0,0,43.872,44.887Zm0,0" fill="#c6aa76"/>
  </g>
</svg>
