<svg xmlns="http://www.w3.org/2000/svg" width="185.787" height="185.787" viewBox="0 0 185.787 185.787">
  <g id="SevIcon2" transform="translate(-1433.888 -2781.888)">
    <circle id="bg" cx="92.894" cy="92.894" r="92.894" transform="translate(1433.888 2781.888)" fill="#005f61" opacity="0.15"/>
    <g id="Group_57094" data-name="Group 57094" transform="translate(1475.888 2814.888)">
      <path id="Path_126970" data-name="Path 126970" d="M42.552,32.112a4.936,4.936,0,1,0,4.936,4.936A4.936,4.936,0,0,0,42.552,32.112Zm0,7.36a2.424,2.424,0,1,1,2.424-2.424A2.424,2.424,0,0,1,42.552,39.471Zm36.994,10.1a17.988,17.988,0,0,0-7.1,1.453v-3.81h2.4A1.256,1.256,0,0,0,76.1,45.957V40.085a1.256,1.256,0,0,0-.809-1.174L43.808,26.93,43.8,19.139H54.424a1.256,1.256,0,0,0,1.256-1.256V10.256A1.256,1.256,0,0,0,54.424,9H42.536a1.256,1.256,0,0,0-1.256,1.257L41.3,26.931,9.809,38.912A1.256,1.256,0,0,0,9,40.085v5.871a1.256,1.256,0,0,0,1.256,1.256h2.4v5.96a1.256,1.256,0,0,0,1.256,1.256h1.529v26.46H13.916a1.256,1.256,0,0,0-1.256,1.256v5.888h-2.4A1.256,1.256,0,0,0,9,89.288v7.091a1.256,1.256,0,0,0,1.256,1.256H74.848A1.256,1.256,0,0,0,76.1,96.379V89.288a1.256,1.256,0,0,0-1.256-1.256h-2.4V84.294a18.089,18.089,0,1,0,7.1-34.725Zm-12.4,31.319H62.834V74.577a18.158,18.158,0,0,0,4.314,6.239Zm-9.611,1.256v5.888H50.479V82.144a1.256,1.256,0,0,0-1.256-1.256H47.694V54.428h1.529a1.256,1.256,0,0,0,1.256-1.256v-5.96h7.057v5.96a1.256,1.256,0,0,0,1.256,1.256h1.53v26.46h-1.53a1.256,1.256,0,0,0-1.256,1.256ZM26.312,80.888h-1.53V54.428h1.53a1.256,1.256,0,0,0,1.256-1.256v-5.96h8v5.96a1.256,1.256,0,0,0,1.256,1.256h1.53v26.46h-1.53a1.256,1.256,0,0,0-1.256,1.256v5.888h-8V82.144a1.256,1.256,0,0,0-1.256-1.256Zm14.556,0V54.428h4.314v26.46ZM38.083,51.916v-4.7h9.885v4.7Zm0,31.484h9.885v4.632H38.083ZM62.834,54.428h4.314V54.5a18.16,18.16,0,0,0-4.314,6.239Zm7.1-2.512H60.049v-4.7h9.885Zm-16.766-40.4v5.115H43.8l0-5.115ZM11.512,40.951,42.552,29.14l31.04,11.812V44.7H11.512Zm3.66,6.262h9.884v4.7H15.172Zm2.785,7.216H22.27V80.888H17.957ZM15.172,83.4h9.884v4.632H15.172Zm58.42,11.723H11.512V90.544H73.592ZM60.049,88.032V83.4h9.885v4.632Zm19.5-4.8A15.577,15.577,0,1,1,95.123,67.658,15.577,15.577,0,0,1,79.546,83.235Zm11.68-11.163a1.789,1.789,0,0,0-.538-1.28V62.857a1.315,1.315,0,0,0-.01-.149c0-.013,0-.026-.006-.039a1.223,1.223,0,0,0-.031-.148A1.184,1.184,0,0,0,90.6,62.4l-.008-.022a1.255,1.255,0,0,0-.064-.134l-.009-.015a1.21,1.21,0,0,0-.068-.105l-.025-.034q-.033-.043-.069-.083l-.027-.03a1.267,1.267,0,0,0-.106-.1l-.013-.01a1.284,1.284,0,0,0-.108-.076l-.014-.01-9.9-6.128a1.256,1.256,0,0,0-1.321,0l-9.9,6.128a1.256,1.256,0,0,0,0,2.136l3.12,1.93v4.4a1.256,1.256,0,0,0,.25.752,8.887,8.887,0,0,0,7.195,3.128,8.886,8.886,0,0,0,7.195-3.128,1.256,1.256,0,0,0,.251-.752v-4.4l1.2-.744v5.681a1.791,1.791,0,0,0,0,2.561v.605a1.256,1.256,0,0,0,2.512,0v-.605a1.788,1.788,0,0,0,.537-1.28Zm-6.766-2.266a7.6,7.6,0,0,1-9.868,0v-2.4l4.273,2.644a1.256,1.256,0,0,0,1.321,0L84.46,67.41Zm-4.934-2.3-7.518-4.651,7.518-4.651,7.518,4.651Z" fill="#005f61" fill-rule="evenodd"/>
    </g>
  </g>
</svg>
