<svg xmlns="http://www.w3.org/2000/svg" width="185.787" height="185.787" viewBox="0 0 185.787 185.787">
  <g id="SevIcon1" transform="translate(-1433.888 -2781.888)">
    <circle id="bg" cx="92.894" cy="92.894" r="92.894" transform="translate(1433.888 2781.888)" fill="#fff" opacity="0.15"/>
    <g id="Group_57093" data-name="Group 57093" transform="translate(1479.993 2828.42)">
      <path id="Path_126966" data-name="Path 126966" d="M15.217,37.03H27.49a3.924,3.924,0,0,0,3.919-3.92V19.541a3.923,3.923,0,0,0-3.919-3.919H15.216A3.923,3.923,0,0,0,11.3,19.541V33.11a3.924,3.924,0,0,0,3.919,3.92Zm-.965-17.49a.977.977,0,0,1,.965-.965H27.49a.977.977,0,0,1,.965.965V33.11a.978.978,0,0,1-.965.966H15.216a.978.978,0,0,1-.965-.966Zm22.225-.288H52.921a1.477,1.477,0,1,0,0-2.954H36.477a1.477,1.477,0,1,0,0,2.954Zm0,8.889H52.921a1.477,1.477,0,1,0,0-2.954H36.477a1.477,1.477,0,1,0,0,2.954Z" transform="translate(4.912 6.548)" fill="#fff"/>
      <path id="Path_126967" data-name="Path 126967" d="M92.074,83.173,83.345,72.007a2.376,2.376,0,0,0-3.332-.409l-1.279,1L77.01,70.4a19.511,19.511,0,0,0-10.548-32.84V13.7a4.475,4.475,0,0,0-4.471-4.471H58.863V6.366A4.475,4.475,0,0,0,54.392,1.9H5.472A4.475,4.475,0,0,0,1,6.366V69.837a4.475,4.475,0,0,0,4.471,4.471H8.6v2.865a4.475,4.475,0,0,0,4.471,4.467H61.991a4.475,4.475,0,0,0,4.471-4.467V76.038A19.377,19.377,0,0,0,74.8,72.369l1.606,2.05-1.285,1a2.374,2.374,0,0,0-.408,3.328L83.45,89.917a2.371,2.371,0,0,0,3.326.408L91.665,86.5A2.372,2.372,0,0,0,92.074,83.173ZM5.471,71.353a1.518,1.518,0,0,1-1.517-1.515V6.366A1.518,1.518,0,0,1,5.471,4.849H54.39a1.519,1.519,0,0,1,1.518,1.517V9.228H13.072A4.475,4.475,0,0,0,8.6,13.7V71.355H5.471Zm58.037,5.82a1.516,1.516,0,0,1-1.517,1.512H13.072a1.517,1.517,0,0,1-1.517-1.512V13.7a1.518,1.518,0,0,1,1.517-1.517H61.991A1.518,1.518,0,0,1,63.508,13.7v23.54a19.523,19.523,0,0,0-11.515,3.387H41.388a1.477,1.477,0,1,0,0,2.954h7.172a19.389,19.389,0,0,0-3.734,5.935H17.688a1.477,1.477,0,1,0,0,2.954H43.923a19.7,19.7,0,0,0-.4,5.935H17.686a1.477,1.477,0,1,0,0,2.954h26.3a19.45,19.45,0,0,0,2.5,5.933h-28.8a1.477,1.477,0,0,0,0,2.954h31.1a19.438,19.438,0,0,0,13.57,6.1c.388.01.762,0,1.152-.015v.845Zm-1.055-3.784a16.613,16.613,0,1,1,11.9-4.486A16.506,16.506,0,0,1,62.453,73.388ZM85.415,87.635,77.4,77.389l3.972-3.108,8.013,10.249Z" fill="#fff"/>
      <path id="Path_126968" data-name="Path 126968" d="M56.921,34.264a13.254,13.254,0,1,0-.6,18.745,13.277,13.277,0,0,0,.6-18.745ZM54.3,50.854A10.307,10.307,0,1,1,40.2,35.82h0A10.306,10.306,0,0,1,54.3,50.854Z" transform="translate(15.739 13.447)" fill="#fff"/>
      <path id="Path_126969" data-name="Path 126969" d="M51.7,39.861a7.871,7.871,0,0,0-9.356-6,1.477,1.477,0,1,0,.629,2.886,4.909,4.909,0,0,1,5.843,3.747,1.476,1.476,0,0,0,2.885-.631Z" transform="translate(19.167 15.162)" fill="#fff"/>
    </g>
  </g>
</svg>
