<svg xmlns="http://www.w3.org/2000/svg" width="185.787" height="185.787" viewBox="0 0 185.787 185.787">
  <g id="SevIcon4" transform="translate(-1433.888 -2781.888)">
    <circle id="bg" cx="92.894" cy="92.894" r="92.894" transform="translate(1433.888 2781.888)" fill="#005f61" opacity="0.15"/>
    <g id="Group_57097" data-name="Group 57097" transform="translate(1481.697 2829.76)">
      <path id="Path_126975" data-name="Path 126975" d="M55.44,76.177a4.171,4.171,0,1,0,4.171,4.171A4.174,4.174,0,0,0,55.44,76.177Zm0,5.909a1.738,1.738,0,1,1,1.738-1.738A1.757,1.757,0,0,1,55.44,82.086Zm8.717-49.245a3.99,3.99,0,1,0,3.99,3.99A4,4,0,0,0,64.157,32.841Zm0,5.561a1.557,1.557,0,1,1,1.557-1.557A1.566,1.566,0,0,1,64.157,38.4ZM42.719,22.5A20.764,20.764,0,1,0,21.947,43.255,20.785,20.785,0,0,0,42.719,22.5ZM21.961,40.822A18.324,18.324,0,1,1,40.286,22.5,18.35,18.35,0,0,1,21.961,40.822Z" transform="translate(0 0.239)" fill="#005f61"/>
      <path id="Path_126976" data-name="Path 126976" d="M19.077,5.66a10.514,10.514,0,0,0-10.5,10.5V31.951a1.223,1.223,0,0,0,2.447,0V16.171a8.064,8.064,0,1,1,16.128,0V31.965a1.223,1.223,0,1,0,2.447,0V16.171A10.559,10.559,0,0,0,19.077,5.66Z" transform="translate(2.884 1.769)" fill="#005f61"/>
      <path id="Path_126977" data-name="Path 126977" d="M17.663,12.392a5.6,5.6,0,0,0-4.435,2.252,1.2,1.2,0,0,0,.25,1.7,1.184,1.184,0,0,0,.723.236,1.2,1.2,0,0,0,.973-.487,3.108,3.108,0,0,1,2.489-1.265,1.222,1.222,0,0,0,1.21-1.223A1.2,1.2,0,0,0,17.663,12.392Zm.028,15.168A3.1,3.1,0,0,1,15.2,26.309a1.221,1.221,0,1,0-1.946,1.474,5.591,5.591,0,0,0,4.435,2.225h.056a1.2,1.2,0,0,0,1.2-1.223,1.249,1.249,0,0,0-1.251-1.223Zm-3.114-4.352V19.191a1.223,1.223,0,1,0-2.447,0v4.018a1.223,1.223,0,0,0,2.447,0Zm7.438-1.265a1.225,1.225,0,0,0-1.223,1.223v1.279a3.083,3.083,0,0,1-.6,1.835,1.205,1.205,0,0,0,.264,1.7,1.184,1.184,0,0,0,.723.236,1.218,1.218,0,0,0,.987-.5,5.546,5.546,0,0,0,1.071-3.281V23.153a1.223,1.223,0,0,0-1.223-1.21ZM20.4,14.353a1.231,1.231,0,0,0-.236,1.71,3.064,3.064,0,0,1,.64,1.877v1.21a1.223,1.223,0,0,0,2.447,0V17.94a5.5,5.5,0,0,0-1.126-3.351,1.24,1.24,0,0,0-1.724-.236Zm-3.935,3.712v6.243a1.225,1.225,0,0,0,1.223,1.223,1.2,1.2,0,0,0,1.21-1.223V18.065a1.217,1.217,0,1,0-2.433,0Zm68.9,36.8A23.42,23.42,0,0,0,66.8,31.982,8.949,8.949,0,0,0,64.6,29.9l2.836-5.964a1.218,1.218,0,0,0-.584-1.627L63.669,20.79,66.992,13.8l2.113,1a1.166,1.166,0,0,0,.528.111,1.232,1.232,0,0,0,1.1-.7l2.252-4.783A1.218,1.218,0,0,0,72.4,7.8L58.566,1.242a1.232,1.232,0,0,0-1.627.584L54.674,6.609a1.218,1.218,0,0,0,.584,1.627l2.113,1L54.048,16.23l-3.184-1.515a1.218,1.218,0,0,0-1.627.584L35.251,44.731a1.232,1.232,0,0,0,.584,1.627l2.614,1.237-2,4.227a1.232,1.232,0,0,0,.584,1.627l8.578,4.074a1.147,1.147,0,0,0,.514.111,1.2,1.2,0,0,0,1.1-.7l2-4.227,2.614,1.237a1.166,1.166,0,0,0,.528.111,1.232,1.232,0,0,0,1.1-.7L57.3,45.259a8.57,8.57,0,0,0,8.453-1.919,12.128,12.128,0,0,1-3.8,23.649H29.912a5.645,5.645,0,0,0,0,11.289h9.8a12.816,12.816,0,0,0-1.543,6.131v2.906h-2.7a1.223,1.223,0,1,0,0,2.447H66.867a1.223,1.223,0,0,0,0-2.447h-2.7V84.41a12.977,12.977,0,0,0-1.557-6.159A23.432,23.432,0,0,0,85.372,54.866Zm-26.75-50.9,11.637,5.52-1.223,2.586L57.4,6.553ZM45.539,54.783l-6.382-3.031,1.488-3.128,6.382,3.031Zm14.014-44.5,5.228,2.475-3.323,6.993L56.8,17.536l-.556-.264ZM51.768,51.224,37.976,44.675l12.93-27.25L64.7,23.974l-2.322,4.88a8.717,8.717,0,0,0-2.5-.375A8.588,8.588,0,0,0,55.091,44.2Zm5.45-8.62L57.2,42.59a6.162,6.162,0,1,1,7.216-1.376l-.014.014a6.133,6.133,0,0,1-4.519,2.016,6.393,6.393,0,0,1-2.669-.64ZM40.6,87.33V84.424a10.566,10.566,0,0,1,21.133,0V87.33ZM61.931,75.86H60.916a12.957,12.957,0,0,0-19.52,0H29.9a3.212,3.212,0,0,1,0-6.423H61.931a14.558,14.558,0,0,0,5.394-28.084,8.561,8.561,0,0,0,1.154-4.268,8.344,8.344,0,0,0-.306-2.224,20.972,20.972,0,0,1-6.243,41Z" transform="translate(4.27 0)" fill="#005f61"/>
    </g>
  </g>
</svg>
