<svg xmlns="http://www.w3.org/2000/svg" width="185.787" height="185.787" viewBox="0 0 185.787 185.787">
  <g id="SevIcon6" transform="translate(-1433.888 -2781.888)">
    <circle id="bg" cx="92.894" cy="92.894" r="92.894" transform="translate(1433.888 2781.888)" fill="#005f61" opacity="0.15"/>
    <g id="Group_57102" data-name="Group 57102" transform="translate(1480.887 2823.888)">
      <g id="Book_Research" data-name="Book Research" transform="translate(0 7)">
        <g id="Group_57101" data-name="Group 57101">
          <path id="Path_126989" data-name="Path 126989" d="M77.576,54.886,67.388,44.7a1.42,1.42,0,0,0-2.009,0l-1.837,1.837L60.5,43.5A18.52,18.52,0,1,0,58.5,45.5l3.038,3.038L59.7,50.38a1.42,1.42,0,0,0,0,2.009L69.886,62.576a5.438,5.438,0,0,0,7.69-7.69ZM30.873,31.5A15.625,15.625,0,1,1,46.5,47.123,15.625,15.625,0,0,1,30.873,31.5Zm44.694,29.07a2.6,2.6,0,0,1-3.673,0l-9.183-9.183,3.673-3.673,9.183,9.183a2.6,2.6,0,0,1,0,3.673Z" transform="translate(11.741 4.013)" fill="#005f61"/>
          <path id="Path_126990" data-name="Path 126990" d="M66.818,37.67V31.989a1.477,1.477,0,0,0-.786-1.271L54.669,25.035a1.422,1.422,0,0,0-1.27,0L42.035,30.717a1.42,1.42,0,0,0,0,2.543L45.511,35v4.8a1.42,1.42,0,0,0,.786,1.271l7.1,3.551a1.422,1.422,0,0,0,1.27,0l7.1-3.551a1.42,1.42,0,0,0,.786-1.271V35l1.42-.71V37.67a1.42,1.42,0,1,0,2.841,0ZM54.034,27.895l8.187,4.094-8.187,4.094-8.187-4.094Zm5.682,11.028-5.682,2.841-5.682-2.841V36.418L53.4,38.942a1.422,1.422,0,0,0,1.27,0l5.047-2.524ZM48.352,14.247a1.42,1.42,0,0,0,1.42-1.42V6.42A1.42,1.42,0,0,0,48.352,5H11.42A1.42,1.42,0,0,0,10,6.42V22.045a1.42,1.42,0,0,0,1.42,1.42H35.256a1.42,1.42,0,1,0,0-2.841H12.841V7.841H46.932v4.986A1.42,1.42,0,0,0,48.352,14.247Z" transform="translate(4.205 0.682)" fill="#005f61"/>
          <path id="Path_126991" data-name="Path 126991" d="M58.238,57.818a1.42,1.42,0,0,0-1.42,1.42v9.943H11.364V3.841H56.818v9.943a1.42,1.42,0,1,0,2.841,0V2.42A1.42,1.42,0,0,0,58.238,1H7.1A7.111,7.111,0,0,0,0,8.1V76.284a7.111,7.111,0,0,0,7.1,7.1H19.886a1.42,1.42,0,1,0,0-2.841H7.1a4.261,4.261,0,1,1,0-8.523H54.96a8.215,8.215,0,0,0-1.045,2.841H7.1a1.42,1.42,0,1,0,0,2.841H24.148v9.943a1.42,1.42,0,0,0,2.209,1.182l3.473-2.315L33.3,88.829a1.42,1.42,0,0,0,2.209-1.182V77.7h18.4a8.214,8.214,0,0,0,1.045,2.841H39.773a1.42,1.42,0,0,0,0,2.841H58.238a1.42,1.42,0,0,0,.788-2.6,5.322,5.322,0,0,1-2.4-4.393c0-.037.021-.068.021-.107s-.018-.07-.021-.107a5.322,5.322,0,0,1,2.4-4.393,1.483,1.483,0,0,0,.634-1.182V59.238A1.42,1.42,0,0,0,58.238,57.818ZM2.841,70.639V8.1A4.266,4.266,0,0,1,7.1,3.841h1.42V69.182H7.1a7.033,7.033,0,0,0-4.261,1.457ZM32.67,84.994l-2.053-1.369a1.416,1.416,0,0,0-1.577,0l-2.053,1.369V77.7H32.67Z" transform="translate(0 -1)" fill="#005f61"/>
        </g>
      </g>
    </g>
  </g>
</svg>
