<svg xmlns="http://www.w3.org/2000/svg" width="185.787" height="185.787" viewBox="0 0 185.787 185.787">
  <g id="SevIcon5" transform="translate(-1433.888 -2781.888)">
    <circle id="bg" cx="92.894" cy="92.894" r="92.894" transform="translate(1433.888 2781.888)" fill="#fff" opacity="0.15"/>
    <g id="Group_57099" data-name="Group 57099" transform="translate(1480.888 2838.388)">
      <path id="Path_126978" data-name="Path 126978" d="M319.82,198.7a1.519,1.519,0,0,1,.055-.3l5.083-16.669a1.76,1.76,0,0,1,1-1.053,4.526,4.526,0,0,1,3.58,0,1.762,1.762,0,0,1,1,1.053l5.11,16.669a1.535,1.535,0,0,1,.055.3,1.471,1.471,0,0,1-.888,1.23,3.606,3.606,0,0,1-1.845.519q-1.175,0-1.394-.792l-.929-3.416h-5.766l-.929,3.416q-.219.793-1.394.792a3.609,3.609,0,0,1-1.845-.519,1.469,1.469,0,0,1-.887-1.23Zm5.93-5.738h3.99l-1.995-7.323Zm0,0" transform="translate(-262.596 -147.636)" fill="#fff"/>
      <path id="Path_126979" data-name="Path 126979" d="M78.6,22.477H60.33V13.511A13.025,13.025,0,0,0,47.32.5H13.011A13.026,13.026,0,0,0,0,13.511V28.785A13.027,13.027,0,0,0,12.717,41.793a40.256,40.256,0,0,1-.5,4.937,3.465,3.465,0,0,0,3.412,4,3.512,3.512,0,0,0,1.181-.207A15.822,15.822,0,0,0,26.193,41.8H39.086v8.967A13.026,13.026,0,0,0,52.1,63.774H65.418A15.824,15.824,0,0,0,74.8,72.5a3.5,3.5,0,0,0,1.18.206,3.465,3.465,0,0,0,3.411-4,40.271,40.271,0,0,1-.5-4.937A13.025,13.025,0,0,0,91.61,50.763V35.489A13.026,13.026,0,0,0,78.6,22.477Zm9.432,28.285A9.443,9.443,0,0,1,78.6,60.2H77.107a1.789,1.789,0,0,0-1.788,1.722,38.334,38.334,0,0,0,.5,7.145,12.051,12.051,0,0,1-7.473-7.646,1.789,1.789,0,0,0-1.7-1.222H52.1a9.443,9.443,0,0,1-9.432-9.433V35.488a9.441,9.441,0,0,1,1.184-4.579,1.789,1.789,0,0,0-3.127-1.74,13.024,13.024,0,0,0-1.635,6.32v2.729H24.957a1.789,1.789,0,0,0-1.7,1.222,12.046,12.046,0,0,1-7.472,7.645,38.44,38.44,0,0,0,.5-7.145A1.789,1.789,0,0,0,14.5,38.217H13.011a9.443,9.443,0,0,1-9.432-9.432V13.511a9.443,9.443,0,0,1,9.432-9.432H47.32a9.443,9.443,0,0,1,9.432,9.432v8.967H54.215a1.789,1.789,0,0,0,0,3.579H78.6a9.443,9.443,0,0,1,9.432,9.432Zm0,0" fill="#fff"/>
      <path id="Path_126980" data-name="Path 126980" d="M120.328,46.065a1.789,1.789,0,0,0,0-3.579H113.5V39.809a1.789,1.789,0,1,0-3.579,0v2.677H103.1a1.789,1.789,0,0,0,0,3.579h11.859a17.407,17.407,0,0,1-3.237,6.6,19.554,19.554,0,0,1-2.179-3.566,1.789,1.789,0,0,0-3.243,1.514,23.456,23.456,0,0,0,3,4.762,32.822,32.822,0,0,1-6.813,4.977,1.789,1.789,0,1,0,1.752,3.12,36.437,36.437,0,0,0,7.481-5.458,36.2,36.2,0,0,0,7.465,5.458,1.789,1.789,0,1,0,1.752-3.12,32.621,32.621,0,0,1-6.8-4.975,20.734,20.734,0,0,0,4.46-9.315Zm9.865,8.437h0a1.789,1.789,0,1,0,1.793,1.789,1.788,1.788,0,0,0-1.793-1.789Zm0,0" transform="translate(-83.183 -30.807)" fill="#fff"/>
    </g>
  </g>
</svg>
