<svg xmlns="http://www.w3.org/2000/svg" width="185.787" height="185.787" viewBox="0 0 185.787 185.787">
  <g id="SevIcon7" transform="translate(-1433.888 -2781.888)">
    <circle id="bg" cx="92.894" cy="92.894" r="92.894" transform="translate(1433.888 2781.888)" fill="#fff" opacity="0.15"/>
    <g id="Group_57103" data-name="Group 57103" transform="translate(1477.888 2721.888)">
      <path id="Path_126992" data-name="Path 126992" d="M77.923,167.927H70.855a1.574,1.574,0,0,1,0-3.148h7.068A1.574,1.574,0,1,1,77.923,167.927ZM44.247,196.554a44.277,44.277,0,1,1,43.891-50.187,27.047,27.047,0,0,1,13.245,23.222c0,20.609-22.332,33.438-40.09,23.519A43.921,43.921,0,0,1,44.247,196.554Zm40.387-51.909a39.761,39.761,0,0,0-5.048-13.423,94.47,94.47,0,0,1-13.423,2.613,74.17,74.17,0,0,1,1.722,9.562A26.548,26.548,0,0,1,84.634,144.645Zm-19.837-.3a73.676,73.676,0,0,0-1.782-10.156c-5.345.594-11.166.891-17.164,1.01v15.5h9.325A27.221,27.221,0,0,1,64.8,144.348Zm-12.294,9.5H45.851v15.5h1.6A26.569,26.569,0,0,1,52.5,153.851Zm-4.93,18.709c-.535,0-1.128-.059-1.722-.059v20.728c3.088-.475,6.058-2.316,8.731-5.345A27.111,27.111,0,0,1,47.573,172.56ZM56.9,190.08c-.594.653-1.247,1.307-1.841,1.841a24.716,24.716,0,0,0,2.97-.95C57.67,190.674,57.254,190.377,56.9,190.08ZM26.37,173.451c3.385,11.106,9.384,18.768,16.333,19.778V172.5C36.942,172.619,31.419,172.916,26.37,173.451Zm-15.561,2.673a41.542,41.542,0,0,0,22.569,15.8c-4.336-3.979-7.9-10.275-10.216-18.115A95.993,95.993,0,0,0,10.809,176.123Zm-7.6-22.272a40.559,40.559,0,0,0,5.761,19.481,95.208,95.208,0,0,1,13.363-2.613,77.909,77.909,0,0,1-2.138-16.867Zm20.193,0a75.609,75.609,0,0,0,2.079,16.511,172.424,172.424,0,0,1,17.224-1.01v-15.5Zm0-3.148H42.7V135.2c-6.058-.119-11.878-.475-17.224-1.01A74.682,74.682,0,0,0,23.4,150.7Zm-20.193,0H20.193a78.956,78.956,0,0,1,2.138-16.927,95.77,95.77,0,0,1-13.363-2.554A40.366,40.366,0,0,0,3.207,150.7Zm42.644-39.377v20.669c5.7-.059,11.225-.356,16.274-.891C58.68,120,52.622,112.336,45.851,111.326ZM26.37,131.1c5.048.535,10.572.831,16.333.891V111.267C35.754,112.336,29.756,120,26.37,131.1Zm28.687-18.53c4.336,3.979,7.959,10.275,10.275,18.174a95.107,95.107,0,0,0,12.413-2.316A41.324,41.324,0,0,0,55.057,112.573ZM10.809,128.431a95.993,95.993,0,0,0,12.354,2.316c2.316-7.84,5.88-14.135,10.216-18.115A41.24,41.24,0,0,0,10.809,128.431Zm63.609,17.343A23.787,23.787,0,1,0,98.176,169.59,23.852,23.852,0,0,0,74.419,145.774Zm12.532,40.981H61.828a3.118,3.118,0,0,1-3.148-3.088v-9.919a7.054,7.054,0,0,1-2.494-5.345v-7.068a1.585,1.585,0,0,1,1.6-1.544h6.83v-2.257c0-2.851,2.079-5.167,4.573-5.167H79.586c2.494,0,4.573,2.316,4.573,5.167v2.257h6.89a1.572,1.572,0,0,1,1.544,1.544V168.4a6.861,6.861,0,0,1-2.494,5.345v9.919A3.118,3.118,0,0,1,86.951,186.754Zm-25.9-15.2a4.3,4.3,0,0,0,2.97.594c0-2.91,1.069-2.376,5.286-2.376,1.6,0,1.544,1.544,1.544,2.376h7.068c0-2.91,1.01-2.376,5.227-2.376,1.663,0,1.6,1.544,1.6,2.376a4.3,4.3,0,0,0,2.97-.594,3.664,3.664,0,0,0,1.722-3.148v-5.464H59.333V168.4A3.8,3.8,0,0,0,61.055,171.55Zm.831,3.682v8.374h25v-8.374l-2.2.119a3.42,3.42,0,0,1-6.711,0H70.8a3.42,3.42,0,0,1-6.711,0ZM81.011,159.79c0-1.247.3-4.276-1.425-4.276H69.192c-1.722,0-1.425,3.029-1.425,4.276Zm.594,14.017v-.891h-.535c0,.713-.119,2.019.3,2.019C81.724,174.935,81.605,174.341,81.605,173.807Zm-13.9,0v-.891h-.535c0,.831-.119,2.019.3,2.019C67.826,174.995,67.707,174.223,67.707,173.807Z" fill="#fff"/>
    </g>
  </g>
</svg>
