<svg xmlns="http://www.w3.org/2000/svg" width="185.787" height="185.787" viewBox="0 0 185.787 185.787">
  <g id="SevIcon3" transform="translate(-1433.888 -2781.888)">
    <circle id="bg" cx="92.894" cy="92.894" r="92.894" transform="translate(1433.888 2781.888)" fill="#fff" opacity="0.15"/>
    <g id="Group_57096" data-name="Group 57096" transform="translate(1477.332 2825.331)">
      <path id="Path_126971" data-name="Path 126971" d="M25.26,19.952A10.352,10.352,0,1,0,14.909,30.3,10.352,10.352,0,0,0,25.26,19.952Zm-18.085,0a7.734,7.734,0,1,1,7.737,7.734,7.734,7.734,0,0,1-7.737-7.734ZM33.987,56.182H21.836V38.416a6.927,6.927,0,1,0-13.855,0V63.109a6.935,6.935,0,0,0,6.931,6.928H27.056V87.8a6.928,6.928,0,0,0,13.855,0V63.109a6.936,6.936,0,0,0-6.924-6.928ZM38.3,87.8a4.309,4.309,0,1,1-8.619,0V68.728a1.309,1.309,0,0,0-1.309-1.309H14.912A4.314,4.314,0,0,1,10.6,63.109V38.416a4.309,4.309,0,1,1,8.619,0V57.491A1.31,1.31,0,0,0,20.53,58.8H33.987A4.315,4.315,0,0,1,38.3,63.11ZM83.134,9.482A10.352,10.352,0,1,0,93.486,19.834,10.352,10.352,0,0,0,83.134,9.482Zm0,18.086a7.734,7.734,0,1,1,7.734-7.734,7.734,7.734,0,0,1-7.734,7.734Z" transform="translate(0 -1.241)" fill="#fff"/>
      <path id="Path_126972" data-name="Path 126972" d="M100.843,38.9a6.935,6.935,0,0,0-6.927,6.928V63.594H81.772a6.936,6.936,0,0,0-6.928,6.928V95.215a6.928,6.928,0,1,0,13.855,0V77.449h12.144a6.935,6.935,0,0,0,6.928-6.928V45.828a6.935,6.935,0,0,0-6.928-6.928Zm4.309,31.621a4.314,4.314,0,0,1-4.309,4.309H87.39a1.309,1.309,0,0,0-1.309,1.309V95.214a4.309,4.309,0,1,1-8.619,0V70.521a4.315,4.315,0,0,1,4.309-4.309H95.228A1.31,1.31,0,0,0,96.537,64.9V45.828a4.309,4.309,0,1,1,8.619,0Z" transform="translate(-17.709 -8.653)" fill="#fff"/>
      <path id="Path_126973" data-name="Path 126973" d="M37.412,48.628H76.529a1.309,1.309,0,0,0,1.309-1.309V40.488a1.309,1.309,0,0,0-1.309-1.309H37.412A1.309,1.309,0,0,0,36.1,40.488v6.831A1.309,1.309,0,0,0,37.412,48.628ZM38.719,41.8h36.5V46.01h-36.5ZM37.412,27.928h8.315v3.63a1.31,1.31,0,0,0,1.309,1.309H72.181a1.31,1.31,0,0,0,1.309-1.309V15.95l3.994-4.25A1.309,1.309,0,0,0,76.529,9.5H68.215V5.866a1.309,1.309,0,0,0-1.309-1.309H41.761a1.309,1.309,0,0,0-1.309,1.309V21.473l-3.993,4.249a1.308,1.308,0,0,0,.954,2.207Zm30.8-1.309V12.114H73.5l-2.276,2.424a1.308,1.308,0,0,0-.355.9V30.247H48.345V27.928h18.56a1.309,1.309,0,0,0,1.309-1.311Zm-25.5-3.731a1.31,1.31,0,0,0,.355-.9V7.175H65.6V25.31H40.439Z" transform="translate(-7.948)" fill="#fff"/>
      <path id="Path_126974" data-name="Path 126974" d="M64.231,20.455H51.573a1.309,1.309,0,0,0,0,2.618H64.231a1.309,1.309,0,1,0,0-2.618Zm0-6.116H51.573a1.309,1.309,0,1,0,0,2.618H64.231a1.309,1.309,0,1,0,0-2.618Z" transform="translate(-11.516 -2.465)" fill="#fff"/>
    </g>
  </g>
</svg>
